<?xml version="1.0" encoding="utf-8"?>
<!-- Generator: Adobe Illustrator 26.0.0, SVG Export Plug-In . SVG Version: 6.00 Build 0)  -->
<svg version="1.1" id="Capa_1" xmlns="http://www.w3.org/2000/svg" xmlns:xlink="http://www.w3.org/1999/xlink" x="0px" y="0px"
	 viewBox="0 0 1080 1080" style="enable-background:new 0 0 1080 1080;" xml:space="preserve">
<style type="text/css">
	.st0{fill:#29B6F6;}
</style>
<path class="st0" d="M1021.5,780.8c0,20.3-11.2,38-28.4,47.1l-422.6,237.5c-8.6,6.4-19.3,9.6-30.5,9.6s-21.9-3.2-30.5-9.6
	L86.9,827.8c-17.1-9.1-28.4-26.8-28.4-47.1V299.3c0-20.3,11.2-38,28.4-47.1L509.5,14.6C518.1,8.2,528.8,5,540,5s21.9,3.2,30.5,9.6
	l422.6,237.5c17.1,9.1,28.4,26.8,28.4,47.1V780.8 M540,120L221.1,299.2L540,478.5l318.9-179.2L540,120 M165.5,749.2l321,180.8V571
	l-321-180.3V749.2 M914.5,749.2V390.7L593.5,571v359L914.5,749.2z"/>
</svg>
