<?xml version="1.0" encoding="utf-8"?>
<!-- Generator: Adobe Illustrator 24.1.1, SVG Export Plug-In . SVG Version: 6.00 Build 0)  -->
<svg version="1.1" id="Capa_1" xmlns="http://www.w3.org/2000/svg" xmlns:xlink="http://www.w3.org/1999/xlink" x="0px" y="0px"
	 viewBox="0 0 1080 1080" style="enable-background:new 0 0 1080 1080;" xml:space="preserve">
<style type="text/css">
	.st0{fill:#FF5722;}
</style>
<path class="st0" d="M605.2,491.4V321.1l107-107.5c38.9-38.4,46.2-99.7,19-147.4C709.2,27.9,669.4,5,627,5
	c-10.2,0-21.9,1.5-31.1,4.4c-52.5,14.1-88,62.7-88,117.2v157.6L355.2,438.4c-80.7,82.2-105.1,205.2-60.8,312.7
	c37.5,92.4,119.2,156.1,213.5,172.7v29.7c0,12.6-11.2,24.3-24.3,24.3h-73v97.3h73c65.7,0,121.6-54,121.6-121.6v-24.3
	c98.7,0,202.3-93.4,202.3-231C807.5,586.2,714.1,491.4,605.2,491.4 M605.2,126.6c0-11.2,5.4-19.9,15.6-22.9
	c10.7-2.9,21.9,1.5,27.2,11.2c5.8,9.7,3.9,21.9-3.9,29.7l-38.9,41.8V126.6 M507.9,515.7c-47.2,31.1-82.7,84.6-95.3,134.2l95.3,25.3
	v148.3c-55-14.6-102.1-54.5-125-109.9c-28.7-71-13.1-151.7,40.4-206.2l84.6-89L507.9,515.7 M605.2,831.8V585.7
	c56.9,0,106,53.5,106,112.3C711.2,783.2,649.4,831.8,605.2,831.8z"/>
</svg>
