<?xml version="1.0" encoding="utf-8"?>
<!-- Generator: Adobe Illustrator 24.1.1, SVG Export Plug-In . SVG Version: 6.00 Build 0)  -->
<svg version="1.1" id="Capa_1" xmlns="http://www.w3.org/2000/svg" xmlns:xlink="http://www.w3.org/1999/xlink" x="0px" y="0px"
	 viewBox="0 0 1080 1080" style="enable-background:new 0 0 1080 1080;" xml:space="preserve">
<style type="text/css">
	.st0{fill:#F44336;}
</style>
<path class="st0" d="M208.1,99c-52.4,0-90.4,14.1-113.7,42.1c-23.4,27.7-35,76-35,144.9v111.8c0,63.8-18.2,95.7-54.4,95.7v92.2
	c36.2,0,54.4,30.7,54.4,92.2v120.3c0,68.5,11.7,116.1,35.3,142.8S156.1,981,208.1,981v-93.7c-20.3,0-34.9-6.8-44-20.5
	c-8.8-13.7-13.2-36.9-13.2-69.6V694.4c0-81.9-18.3-133.1-55-153.8v-2c36.7-21,55-71.7,55-151.9V280c0-58.1,19-87.3,57.2-87.3V99
	L208.1,99z M872.3,99v93.7c38.1,0,57.2,29.1,57.2,87.3v102.7c0,83.5,18.2,135.8,54.7,156.8v2c-36.5,20-54.7,70-54.7,149.8v106.7
	c0,32.4-4.5,55.3-13.5,68.7c-9.1,13.7-23.6,20.5-43.6,20.5V981c52.2,0,89.9-13.4,113-40.1c23.4-26.7,35-75.3,35-145.8V679.3
	c0-62.5,18.3-93.7,54.8-93.7v-92.2c-36.5,0-54.8-31.5-54.8-94.7V283.9c0-67.5-11.6-115.1-35-142.8C961.9,113.1,924.2,99,872.3,99
	L872.3,99z M733.9,301c-20.6,0-40.1,2.6-58.6,7.9c-18.4,5-34.7,13-48.8,23.9c-13.9,10.9-25,24.9-33.1,41.9
	c-8.1,16.8-12.2,37-12.2,60.5c0,30,7.5,55.6,22.3,76.8c15,21.2,37.7,39.1,68.1,53.8c11.9,5.7,23.1,11.3,33.4,16.7
	c10.3,5.5,19.1,11.1,26.5,17c7.6,5.9,13.5,12.3,17.9,19.2c4.3,6.9,6.5,14.8,6.5,23.6c0,6.5-1.4,12.6-4.1,18.3
	c-2.7,5.5-6.9,10.2-12.5,14.4c-5.4,4-12.3,7.2-20.6,9.5c-8.1,2.3-17.7,3.5-28.8,3.5c-18.8,0-37.4-3.8-55.8-11.3
	c-18.4-7.8-35.5-19.3-51.2-34.6v100.7c14.1,8.4,30.7,14.7,49.9,18.9c19.3,4.2,39.6,6.3,61,6.3c20.8,0,40.5-2.3,59.1-6.9
	c18.8-4.6,35.3-12.2,49.4-22.7c14.1-10.7,25.2-24.6,33.4-41.6c8.3-17.2,12.5-38.4,12.5-63.6c0-18.3-2.4-34.2-7.1-47.9
	c-4.7-13.9-11.5-26.1-20.4-36.8c-8.9-10.7-19.5-20.3-31.9-28.7c-12.3-8.6-26.2-16.7-41.8-24.2c-11.4-5.5-21.6-10.7-30.6-15.8
	c-9-5.2-16.8-10.5-23.1-15.8c-6.3-5.5-11.2-11.1-14.6-17c-3.4-6.1-5.2-13-5.2-20.5c0-6.9,1.5-13,4.6-18.5
	c3.1-5.7,7.5-10.5,13.1-14.5c5.6-4,12.5-7,20.6-9.1c8.1-2.3,17.1-3.5,27.1-3.5c7.2,0,14.8,0.7,22.7,1.9c8.1,1.3,16.3,3.2,24.4,5.9
	c8.1,2.5,16,5.8,23.6,9.8c7.8,4,14.9,8.6,21.4,13.8v-94.2c-13.2-5.9-27.6-10.2-43.4-12.9C772,302.4,754.1,301,733.9,301L733.9,301z
	 M336.4,308.6L194.9,760.1h94.9l27.4-100.4h138.3l27.6,100.4h95.5L440.3,308.6H336.4L336.4,308.6z M385,389.2h2.1
	c1.3,15.7,3.5,29.3,6.5,40.6l41.8,151.8h-99.6l42.3-153C381.8,415.5,384.1,402.4,385,389.2L385,389.2z"/>
</svg>
