<?xml version="1.0" encoding="utf-8"?>
<!-- Generator: Adobe Illustrator 26.0.0, SVG Export Plug-In . SVG Version: 6.00 Build 0)  -->
<svg version="1.1" id="Capa_1" xmlns="http://www.w3.org/2000/svg" xmlns:xlink="http://www.w3.org/1999/xlink" x="0px" y="0px"
	 viewBox="0 0 1080 1080" style="enable-background:new 0 0 1080 1080;" xml:space="preserve">
<style type="text/css">
	.st0{fill:#0277BD;}
</style>
<path class="st0" d="M5,540l155.2-57.2c13.4-58.9,46.5-92.6,46.5-92.6c83.5-83.4,218.8-83.4,302.3,0l75.4,75.4L922,107.2
	c50.8,203.8,0,407.7-124.7,571.9L1075,947.7c0,0-453.1,101.7-716.9-104.3C217.4,733.2,185.8,669,166,601.6L5,540 M274.6,551.3
	c19.8,19.8,52.4,19.8,72.2,0s19.8-51.9,0-71.7c-20-19.8-52.2-19.8-72.2,0C254.8,499.4,254.8,531.5,274.6,551.3z"/>
</svg>
