<?xml version="1.0" encoding="utf-8"?>
<!-- Generator: Adobe Illustrator 24.1.1, SVG Export Plug-In . SVG Version: 6.00 Build 0)  -->
<svg version="1.1" id="Capa_1" xmlns="http://www.w3.org/2000/svg" xmlns:xlink="http://www.w3.org/1999/xlink" x="0px" y="0px"
	 viewBox="0 0 1080 1080" style="enable-background:new 0 0 1080 1080;" xml:space="preserve">
<style type="text/css">
	.st0{fill-rule:evenodd;clip-rule:evenodd;fill:#00BCD4;}
</style>
<path class="st0" d="M444,13.6C96.5,75.2-96.3,458.6,59.8,777.7c195.2,398.9,773,395.6,962.6-5.4C1208.7,378.5,872.6-62.4,444,13.6
	 M489.2,193.3C687.4,233.1,891.8,295.1,899,317.6c19.9,62.2,19.7,373-0.4,410.9c-5,9.5-93-1-160.1-19.1l-26.9-7.3l-0.1-33.6
	c-0.3-100.7-10.6-196-22.3-207.8c-13.5-13.5-100.9-41.9-234.8-76.2l-85.2-21.8l-1.1-20.6c-2.5-46.1,9-150,17.9-161
	C390.9,175.2,410.3,177.4,489.2,193.3 M234.4,339.2c38.5,5.1,83.4,13.7,114.8,22.2l13.7,3.7l2.3,75.7
	c4.4,141.9,8.9,163.8,36.4,176.1c34.5,15.4,160.3,52.3,278.6,81.7l26.1,6.5l-0.8,50.2c-0.9,56.6-6.3,107.2-13.4,124.5l-4.8,11.6
	l-20.1-2.3c-75.1-8.8-321.2-69-428.3-104.8c-47-15.7-58.4-21.8-62.4-33.4c-17.7-50.9-17.6-377.5,0.1-410.6
	C180.9,332.5,182.9,332.5,234.4,339.2"/>
</svg>
