<?xml version="1.0" encoding="utf-8"?>
<!-- Generator: Adobe Illustrator 24.1.1, SVG Export Plug-In . SVG Version: 6.00 Build 0)  -->
<svg version="1.1" id="Capa_1" xmlns="http://www.w3.org/2000/svg" xmlns:xlink="http://www.w3.org/1999/xlink" x="0px" y="0px"
	 viewBox="0 0 1080 1080" style="enable-background:new 0 0 1080 1080;" xml:space="preserve">
<style type="text/css">
	.st0{fill:#8BC34A;}
</style>
<path class="st0" d="M673.8,228h-44.6v-44.6h44.6 M450.8,228h-44.6v-44.6h44.6 M697.4,101.4L755.9,43c8.5-8.5,8.5-22.7,0-31.7
	c-8.9-8.5-23.2-8.5-31.7,0l-66,66C622.5,59.9,582.4,49.7,540,49.7c-42.8,0-83,10.3-118.6,28.1l-66.5-66.4c-8.5-8.5-22.7-8.5-31.2,0
	c-8.9,8.9-8.9,23.2,0,31.7l58.4,58.4c-66.5,49-109.7,126.6-109.7,215.8h535.2C807.6,228,763,150,697.4,101.4 M919.1,361.7
	c-36.9,0-66.9,29.9-66.9,66.9v0v312.1c0,36.9,30,66.9,66.9,66.9l0,0c36.9,0,66.9-29.9,66.9-66.9l0,0V428.6
	C986,391.7,956,361.7,919.1,361.7L919.1,361.7 M160.9,361.7c-36.9,0-66.9,29.9-66.9,66.9l0,0v312.1c0,36.9,30,66.9,66.9,66.9h0
	c36.9,0,66.9-29.9,66.9-66.9l0,0V428.6C227.8,391.7,197.8,361.7,160.9,361.7L160.9,361.7 M272.4,807.5c0,24.6,20,44.6,44.6,44.6l0,0
	h44.6v156c0,36.9,30,66.9,66.9,66.9h0c36.9,0,66.9-29.9,66.9-66.9l0,0v-156h89.2v156c0,36.9,30,66.9,66.9,66.9h0
	c36.9,0,66.9-29.9,66.9-66.9l0,0v-156H763c24.6,0,44.6-20,44.6-44.6l0,0V361.7H272.4L272.4,807.5z"/>
</svg>
