<?xml version="1.0" encoding="utf-8"?>
<!-- Generator: Adobe Illustrator 24.1.1, SVG Export Plug-In . SVG Version: 6.00 Build 0)  -->
<svg version="1.1" id="Capa_1" xmlns="http://www.w3.org/2000/svg" xmlns:xlink="http://www.w3.org/1999/xlink" x="0px" y="0px"
	 viewBox="0 0 1080 1080" style="enable-background:new 0 0 1080 1080;" xml:space="preserve">
<style type="text/css">
	.st0{fill:#42A5F5;}
</style>
<path class="st0" d="M540,48c-110.5,0-200.1,89.6-200.1,200.2c0,0,0,0,0,0c0,52.8,21,103.5,58.2,141L242.5,635.3
	c-12.3-2.4-24.8-3.6-37.4-3.6C94.6,631.7,5,721.3,5,831.8C5,942.4,94.6,1032,205.1,1032l0,0c110.5,0,200.1-89.6,200.1-200.2l0,0
	c-0.1-64.3-31-124.6-83.1-162.2l148.1-234.2c22.3,8.4,46,12.8,69.9,12.9c24.8,0,49.4-4.6,72.5-13.6l147.6,233.5
	c-53.4,37.4-85.2,98.4-85.3,163.6c0,110.5,89.6,200.2,200.1,200.2c0,0,0,0,0,0c110.5,0,200.1-89.6,200.1-200.2c0,0,0,0,0,0
	c0-110.5-89.6-200.2-200.1-200.2c0,0,0,0,0,0c-11.6,0-23.3,1-34.7,3.1L683.7,387.2c36.1-37.3,56.4-87.1,56.4-139
	C740.1,137.6,650.5,48,540,48C540,48,540,48,540,48L540,48z"/>
</svg>
