<?xml version="1.0" encoding="utf-8"?>
<!-- Generator: Adobe Illustrator 24.1.1, SVG Export Plug-In . SVG Version: 6.00 Build 0)  -->
<svg version="1.1" id="Capa_1" xmlns="http://www.w3.org/2000/svg" xmlns:xlink="http://www.w3.org/1999/xlink" x="0px" y="0px"
	 viewBox="0 0 1080 1080" style="enable-background:new 0 0 1080 1080;" xml:space="preserve">
<style type="text/css">
	.st0{fill:#7E57C2;}
</style>
<g transform="matrix(.66949 0 0 .66949 5.6001 2.6725)">
	<path class="st0" d="M798.2,3.5C356.8,3.5-0.9,361.3-0.9,802.6c0,441.4,357.8,799.1,799.1,799.1c441.4,0,799.1-357.8,799.1-799.1
		c0-74.7-10.2-146.9-29.3-215.5h-0.1c-0.4-2.4-1.1-4.8-1.9-7.1c-0.2-0.8-1-2.4-1-2.4c-6.5-14.1-20.6-23.2-36.2-23.2
		c-22.1-0.1-40,17.8-40.1,39.9c0,0,0,0,0,0c0,4.5,0.9,8.8,2.2,12.8l-0.1,0.1c17.8,63.6,26.7,129.3,26.7,195.4
		c0,192.1-74.7,372.8-210.5,508.6c-135.8,135.9-316.5,210.5-508.6,210.5c-192.1,0-372.8-74.7-508.6-210.5
		C153.7,1175.4,78.9,994.7,78.9,802.6c0-192.1,74.8-372.8,210.7-508.6C425.4,158.1,606.1,83.4,798.2,83.4
		c171.6,0,333.9,59.6,463.4,169.1c-4.5,11.4-6.7,23.5-6.7,35.7c0,54,43.7,97.7,97.7,97.7c53.9,0,97.7-43.7,97.7-97.7
		c0-54-43.7-97.7-97.7-97.7c-11.8,0-23,2.1-33.5,6C1179.2,76.3,997.2,3.5,798.2,3.5L798.2,3.5z M697.3,376l-294.4,764h184.5
		l48.1-129.4h278.1l-50.3-143.2H680.1l119.1-328.6l211.9,601.2h184.3L901.1,376L697.3,376z"/>
</g>
</svg>
