<?xml version="1.0" encoding="utf-8"?>
<!-- Generator: Adobe Illustrator 24.1.1, SVG Export Plug-In . SVG Version: 6.00 Build 0)  -->
<svg version="1.1" id="Capa_1" xmlns="http://www.w3.org/2000/svg" xmlns:xlink="http://www.w3.org/1999/xlink" x="0px" y="0px"
	 viewBox="0 0 1080 1080" style="enable-background:new 0 0 1080 1080;" xml:space="preserve">
<style type="text/css">
	.st0{fill:#78909C;}
</style>
<path class="st0" d="M900.2,941.2c-44.4,66.3-91.5,131.1-163.2,132.1c-71.7,1.6-94.7-42.3-176-42.3c-81.8,0-107,41.2-174.9,43.9
	c-70.1,2.7-123-70.6-168-135.3C126.6,807.4,56.5,564,150.7,400.3c46.5-81.3,130-132.7,220.4-134.3c68.5-1.1,133.7,46.5,176,46.5
	c41.7,0,120.9-57.2,203.8-48.7c34.8,1.6,132.1,13.9,194.7,105.9c-4.8,3.2-116.1,68.5-115,203.8c1.6,161.6,141.8,215.6,143.4,216.1
	C972.4,793.5,951.5,866.8,900.2,941.2 M594.7,85.2C633.8,40.8,698.5,7.1,752,5c7,62.6-18.2,125.7-55.6,170.7
	c-36.9,45.5-97.9,80.8-157.8,76C530.5,190.1,560.5,125.9,594.7,85.2z"/>
</svg>
