<?xml version="1.0" encoding="utf-8"?>
<!-- Generator: Adobe Illustrator 24.1.1, SVG Export Plug-In . SVG Version: 6.00 Build 0)  -->
<svg version="1.1" id="Capa_1" xmlns="http://www.w3.org/2000/svg" xmlns:xlink="http://www.w3.org/1999/xlink" x="0px" y="0px"
	 viewBox="0 0 1080 1080" style="enable-background:new 0 0 1080 1080;" xml:space="preserve">
<style type="text/css">
	.st0{fill-rule:evenodd;clip-rule:evenodd;fill:#00B3E0;}
</style>
<path class="st0" d="M538.3,5C836.1,5,1075,243.9,1075,538.3c0,297.8-238.9,536.7-536.7,536.7C243.9,1075,5,836.1,5,538.3
	C5,243.9,243.9,5,538.3,5z M669.9,642.2c-58.9,76.2-166.2,90-238.9,31.2c-72.7-55.4-83.1-162.8-24.2-238.9
	c62.3-72.7,169.7-86.6,242.4-31.2C721.8,462.1,732.2,569.4,669.9,642.2L669.9,642.2z M385.9,991.9l204.3-197.4
	C514,811.8,434.4,798,372.1,746c-72.7-55.4-103.9-148.9-93.5-235.5L95.1,711.4c0,0-24.2-45-31.2-128.1l322-252.8
	c97-69.3,228.5-72.7,322,0c103.9,83.1,124.7,235.5,48.5,349.7L521,1016.1C486.3,1016.1,417.1,1005.7,385.9,991.9L385.9,991.9z"/>
</svg>
