<?xml version="1.0" encoding="utf-8"?>
<!-- Generator: Adobe Illustrator 26.0.0, SVG Export Plug-In . SVG Version: 6.00 Build 0)  -->
<svg version="1.1" id="Capa_1" xmlns="http://www.w3.org/2000/svg" xmlns:xlink="http://www.w3.org/1999/xlink" x="0px" y="0px"
	 viewBox="0 0 1080 1080" style="enable-background:new 0 0 1080 1080;" xml:space="preserve">
<style type="text/css">
	.st0{fill:#66BB6A;}
</style>
<path class="st0" d="M227.9,1075l-14.9-130.8l169.4-466.7c29.2,27.4,65.1,46.9,104,56.5L323.1,982.9L227.9,1075z M852.1,1075
	L757,982.9L593.5,534c19.8-4.9,38.4-12.1,55.7-21.5c17.5-9.5,33.8-21.3,48.3-34.9l169.4,466.7L852.1,1075z M540,480.6
	c-49.5,0-91.6-17.3-126.3-52s-52-76.8-52-126.3c0-38.7,11.1-73.1,33.4-103.4c22.3-30.2,50.8-51.2,85.5-63.1V5h118.9v130.8
	c34.7,11.9,63.2,33,85.5,63.1c22.3,30.3,33.4,64.7,33.4,103.4c0,49.5-17.3,91.6-52,126.3C631.6,463.2,589.5,480.6,540,480.6
	L540,480.6z M540,361.7c16.9,0,31-5.7,42.4-17.1c11.4-11.4,17.1-25.5,17.1-42.3c0-16.9-5.7-31-17.1-42.4
	c-11.2-11.3-26.5-17.5-42.4-17.1c-16.9,0-30.9,5.7-42.3,17.1c-11.4,11.4-17.1,25.5-17.1,42.4c0,16.8,5.7,30.9,17.1,42.3
	C509.1,356,523.1,361.6,540,361.7L540,361.7z"/>
</svg>
