<?xml version="1.0" encoding="utf-8"?>
<!-- Generator: Adobe Illustrator 24.1.1, SVG Export Plug-In . SVG Version: 6.00 Build 0)  -->
<svg version="1.1" id="Capa_1" xmlns="http://www.w3.org/2000/svg" xmlns:xlink="http://www.w3.org/1999/xlink" x="0px" y="0px"
	 viewBox="0 0 1080 1080" style="enable-background:new 0 0 1080 1080;" xml:space="preserve">
<style type="text/css">
	.st0{fill:#00979C;}
</style>
<g>
	<path class="st0" d="M1072.1,499c-12.9-82.3-70.9-153.3-155.2-189.9c-40.6-17.6-84.6-25.9-127.4-23.9c-46,2.1-89.4,16.2-125.6,40.8
		c-53.1,34-91,79.4-123.6,127.4c-16.2-23.2-34.7-46.9-55.8-68.6c-46.7-48.2-96.7-78.1-152.6-91.3l-0.4-0.1
		c-19.9-4.5-41.7-6.9-64.7-6.9c-41.4-2.9-83.5,6.4-121.8,27c-35.5,19.1-67.1,47.5-91.4,82c-24.1,34.4-40.1,73.5-46,113.1
		c-6.5,43.1-0.9,86,16.1,124.1c16.5,40.7,44.8,76.5,81.9,103.6c34.3,25.1,75.5,42.4,119.1,50.2c43.5,7.7,88,5.6,128.7-6.1
		c43.8-12.6,82.4-36.3,111.8-68.6c28.1-27.8,51.3-58.8,72.4-90.7c18.4,29.3,39.3,55.7,61.9,78.2c44.8,44.6,95.5,73.7,150.8,86.5
		c20.6,6.1,41.8,9.1,63.1,9.1c59.4,0,119.6-23.2,169.4-66.9c32.2-28.3,57.6-63.4,73.5-101.5C1073.5,585.3,1079,541.1,1072.1,499z
		 M403,650.2l-1,1l-0.9,1c-37.2,41.4-97.4,59.3-161.1,48c-64-11.4-114.6-49.1-135.4-101l-0.7-1.7C83,551.3,91,494.6,125.2,446
		c31.8-45.3,79.7-72.3,126.8-72.3c3.2,0,6.5,0.1,9.7,0.4l1.8,0.1l1.8,0c0.1,0,0.2,0,0.3,0c16.9,0,32.6,1.6,46.5,4.7
		c77.7,18.4,133.1,85.6,177,155.7C462.5,577.4,436.3,617.5,403,650.2z M925.1,662.2c-45.2,39.6-101.6,54.4-151,39.4l-1.5-0.5
		l-1.5-0.3c-97.4-22-155.5-113.7-180.5-163.9c34.2-54.5,69.4-104.4,121-137.2l1.2-0.8c45.7-31.2,110.6-34.8,169.4-9.3
		c56.6,24.6,95.3,70.6,103.5,123.1l0.1,0.3C994.2,564.8,971,622,925.1,662.2z"/>
	<rect x="182.1" y="512.4" class="st0" width="178" height="37.1"/>
	<polygon class="st0" points="824.5,456.7 777,456.7 777,507.2 728.1,507.2 728.1,554.7 777,554.7 777,605.2 824.5,605.2 
		824.5,554.7 876.4,554.7 876.4,507.2 824.5,507.2 	"/>
</g>
</svg>
