<?xml version="1.0" encoding="utf-8"?>
<!-- Generator: Adobe Illustrator 24.1.1, SVG Export Plug-In . SVG Version: 6.00 Build 0)  -->
<svg version="1.1" id="Capa_1" xmlns="http://www.w3.org/2000/svg" xmlns:xlink="http://www.w3.org/1999/xlink" x="0px" y="0px"
	 viewBox="0 0 1080 1080" style="enable-background:new 0 0 1080 1080;" xml:space="preserve">
<style type="text/css">
	.st0{fill:#F44336;}
</style>
<path class="st0" d="M603.7,5.2c-6.9,0-13.9,1.3-20.6,4.1c-10.4,4.3-18.7,11.6-24.4,20.4c-2.3,3.3-4.3,6.8-5.9,10.7L353.6,521.7
	H161.5c-29.3,0-52.9,23.6-52.9,52.9c0,29.3,23.6,52.9,52.9,52.9h148.3l0,0.1h114.4l0-0.1h114.5c29.3,0,52.9-23.6,52.9-52.9
	c0-29.3-23.6-52.9-52.9-52.9H468l135-326.1l349.5,844.5c11.2,27.1,42,39.8,69.1,28.6c27.1-11.2,39.8-42,28.6-69l-398-961.7
	C643.7,17.6,624.3,5.4,603.7,5.2L603.7,5.2z M79.1,721c-29.3,0-52.9,23.6-52.9,52.9c0,29.3,23.6,52.9,52.9,52.9h148.2l-72.6,175.4
	c-11.2,27.1,1.6,57.8,28.6,69c27.1,11.2,57.9-1.6,69-28.6l89.3-215.8h114.6c29.3,0,52.9-23.6,52.9-52.9c0-29.3-23.6-52.9-52.9-52.9
	L79.1,721z"/>
</svg>
