<?xml version="1.0" encoding="utf-8"?>
<!-- Generator: Adobe Illustrator 24.1.1, SVG Export Plug-In . SVG Version: 6.00 Build 0)  -->
<svg version="1.1" id="Capa_1" xmlns="http://www.w3.org/2000/svg" xmlns:xlink="http://www.w3.org/1999/xlink" x="0px" y="0px"
	 viewBox="0 0 1080 1080" style="enable-background:new 0 0 1080 1080;" xml:space="preserve">
<style type="text/css">
	.st0{fill:#FF6E40;}
</style>
<path class="st0" d="M13,5v1069.8h173.1V968H99.5V112h86.5V5L13,5z M893.9,5v107h86.6V968h-86.6v107H1067V5.1L893.9,5z"/>
<path class="st0" d="M701.9,131c-25.6,0-47.6,3.9-66,11.5c-18.4,7.6-33.4,19.1-44.9,34.4c-11.5,15.4-20,34.4-25.3,56.7
	c-5.3,22.3-8,48.5-8,78.8c0,29.3,2.5,55.4,7.7,78.2c5.1,22.6,13.5,41.5,25.1,56.8c11.4,15.3,26.2,26.8,44.6,34.6
	c18.4,7.8,40.7,11.8,66.7,11.8c26.5,0,48.8-3.9,66.9-11.5c18.1-7.8,32.9-19.2,44.4-34.4c11.2-14.8,19.5-33.8,24.8-56.9
	c5.3-23.2,8-49.5,8-78.8c0-29.3-2.6-55.2-7.8-77.5c-5.1-22.5-13.4-41.3-24.8-56.6c-11.5-15.6-26.4-27.3-44.4-35.1
	C750.9,135,728.6,131,701.9,131L701.9,131z M353.3,137.1c-0.6,9.4-3,17.2-7,23.4c-4.1,6.2-10.1,11.3-18.2,15.2
	c-6.9,3.3-15.4,5.6-25.7,7c-10.3,1.2-21.1,1.9-32.3,1.9v56.8h73.5v184.2H270v60.8h232.5v-60.8h-71.9V137.1L353.3,137.1z
	 M701.9,195.4c19.2,0,32.9,9,41.2,27c8.3,17.8,12.4,47.7,12.4,89.9c0,41.7-4.2,71.6-12.6,89.9c-8.4,18.3-22,27.3-40.9,27.3
	s-32.6-9.1-41-27.3c-8.4-18.3-12.6-48.1-12.6-89.5c0-42.4,4.2-72.4,12.4-90.2C669,204.4,682.7,195.4,701.9,195.4L701.9,195.4z
	 M378.1,586.3c-25.6,0-47.6,3.8-66,11.4c-18.4,7.6-33.4,19.2-44.9,34.4c-11.5,15.4-20,34.3-25.3,56.6c-5.3,22.3-8,48.5-8,78.8
	c0,29.3,2.5,55.4,7.7,78.2c5.1,22.6,13.5,41.6,25.1,56.9c11.4,15.3,26.3,26.8,44.7,34.6c18.4,7.8,40.6,11.7,66.6,11.7
	c26.5,0,48.8-3.9,66.9-11.5c18.1-7.8,32.9-19.2,44.4-34.4c11.2-14.8,19.5-33.8,24.8-56.9c5.3-23.2,8-49.5,8-78.8
	c0-29.3-2.5-55.2-7.7-77.5c-5.1-22.5-13.5-41.3-24.9-56.6c-11.5-15.6-26.3-27.3-44.4-35.1C427.2,590.3,404.7,586.3,378.1,586.3
	L378.1,586.3z M677.1,592.4c-0.6,9.4-3,17.2-7,23.4c-4.1,6.2-10.1,11.3-18.2,15.2c-6.9,3.3-15.4,5.6-25.7,7
	c-10.3,1.2-21.1,1.9-32.3,1.9v56.9h73.5v184.1h-73.5v60.8h232.5v-60.8h-71.9V592.4L677.1,592.4L677.1,592.4z M378.1,650.6
	c19.2,0,32.9,9,41.2,27c8.3,17.8,12.4,47.7,12.4,89.9c0,41.7-4.1,71.6-12.5,89.9c-8.4,18.3-22.1,27.3-41,27.3s-32.6-9.1-41-27.3
	c-8.4-18.3-12.5-48-12.5-89.4c0-42.4,4.1-72.5,12.4-90.3C345.2,659.7,358.9,650.6,378.1,650.6L378.1,650.6z"/>
</svg>
