<?xml version="1.0" encoding="utf-8"?>
<!-- Generator: Adobe Illustrator 26.0.0, SVG Export Plug-In . SVG Version: 6.00 Build 0)  -->
<svg version="1.1" id="Capa_1" xmlns="http://www.w3.org/2000/svg" xmlns:xlink="http://www.w3.org/1999/xlink" x="0px" y="0px"
	 viewBox="0 0 1080 1080" style="enable-background:new 0 0 1080 1080;" xml:space="preserve">
<style type="text/css">
	.st0{fill-rule:evenodd;clip-rule:evenodd;fill:#FF6D00;}
</style>
<path class="st0" d="M136.3,653.9c-16.6,53.2-24.9,79.7-22.9,104.9c1.9,22.2,9.5,43.6,22,62.1c14.2,20.9,37.3,36.4,83.7,67.2
	l204.7,136.5c41.3,27.5,62,41.3,84.4,46.7c19.7,4.8,40.4,4.8,60.1,0.2c22.4-5.3,43.2-19,84.7-46.4l207-136.8
	c46.8-31,70.3-46.4,84.7-67.5c12.6-18.6,20.2-40.1,22-62.5c2.1-25.4-6.5-52.2-23.5-105.7L761.9,82.1c-8.8-27.7-13.2-41.5-21.6-51.8
	c-7.4-9-17-16-27.9-20.4C700.1,5,685.6,5,656.5,5H420.3c-29.2,0-43.8,0-56.2,5c-10.9,4.3-20.5,11.4-27.9,20.5
	c-8.4,10.3-12.7,24.3-21.4,52.1L136.3,653.9L136.3,653.9z M665.8,126.1c6.9,8.6,10.6,20.4,17.7,43.7l155.7,511.3
	c-58.5-30.3-121.2-51.5-186.1-62.9L551.6,275.7c-2.2-7-9.6-10.9-16.5-8.7c-4.2,1.3-7.5,4.6-8.7,8.7L426.2,617.9
	C361.1,629.3,298,650.6,239.3,681l156.5-511.3c7.1-23.4,10.7-35.1,17.7-43.7c6.2-7.6,14.2-13.5,23.3-17.2c10.3-4.2,22.6-4.2,47-4.2
	h111.7c24.4,0,36.7,0,47,4.2C651.5,112.5,659.5,118.4,665.8,126.1z M545.1,742.4c59,0,110.2-14.9,135.9-36.9
	c9.2,29,6.2,60.5-8.3,87.2c-16.4,30.4-40.3,45.5-61.7,59.1c-27,17.1-50.2,31.9-50.2,71.5c0,13.1,3,25.5,8.4,36.6
	c-37.2-15.4-61.4-51.7-61.4-92v-2.5c0-27.3,0.1-60.9-38.5-60.9c-22.5,0-40.8,18.2-40.8,40.7c0,0,0,0,0,0
	c-43.3-43.4-39.5-105.7-39.5-105.7c0-12.7,1.3-32.6,7-49.9C412,719.8,472.7,742.3,545.1,742.4L545.1,742.4z"/>
</svg>
