<?xml version="1.0" encoding="utf-8"?>
<!-- Generator: Adobe Illustrator 26.0.0, SVG Export Plug-In . SVG Version: 6.00 Build 0)  -->
<svg version="1.1" id="Capa_1" xmlns="http://www.w3.org/2000/svg" xmlns:xlink="http://www.w3.org/1999/xlink" x="0px" y="0px"
	 viewBox="0 0 1080 1080" style="enable-background:new 0 0 1080 1080;" xml:space="preserve">
<style type="text/css">
	.st0{fill:#EF5350;}
</style>
<path class="st0" d="M336.3,188.4l-127.4,71.3l71.3-127.4L208.9,5l127.4,71.3L463.7,5l-71.3,127.4l71.3,127.4L336.3,188.4
	 M947.6,687.6l127.4-71.3l-71.3,127.4L1075,871l-127.4-71.3L820.3,871l71.3-127.4l-71.3-127.4L947.6,687.6 M1075,5l-71.3,127.4
	l71.3,127.4l-127.4-71.3l-127.4,71.3l71.3-127.4L820.3,5l127.4,71.3L1075,5 M633.8,554.2l124.3-124.3l-108-108L525.8,446.2
	L633.8,554.2 M686.3,274.5l119.2,119.2c19.9,18.8,19.9,52,0,71.8l-594.6,594.5c-19.9,19.9-53,19.9-71.8,0L19.9,940.9
	C0,922,0,888.9,19.9,869.1l594.6-594.5C634.3,254.7,667.4,254.7,686.3,274.5z"/>
</svg>
