<?xml version="1.0" encoding="utf-8"?>
<!-- Generator: Adobe Illustrator 24.1.1, SVG Export Plug-In . SVG Version: 6.00 Build 0)  -->
<svg version="1.1" id="Capa_1" xmlns="http://www.w3.org/2000/svg" xmlns:xlink="http://www.w3.org/1999/xlink" x="0px" y="0px"
	 viewBox="0 0 1080 1080" style="enable-background:new 0 0 1080 1080;" xml:space="preserve">
<style type="text/css">
	.st0{fill:#EF5350;}
</style>
<path class="st0" d="M406.3,191.4L240.4,357.3H47.8C26.4,357.3,5,378.7,5,405.5v267.6c0,26.8,21.4,42.8,42.8,42.8h187.3l165.8,165.9
	c26.8,26.8,74.9,10.7,74.9-32.1V223.5C481.1,186.1,433,164.7,406.3,191.4z M839.6,100.4c-21.4-16.1-48.2-5.4-64.2,10.7
	c-16,21.4-5.3,48.2,10.7,64.2c123,80.3,198,214.1,198,363.9s-74.9,283.7-198,363.9c-21.4,16.1-26.8,42.8-10.7,64.2
	c10.7,21.4,42.8,26.8,64.2,10.7C989.4,881.8,1075,715.9,1075,539.3S984,196.8,839.6,100.4z M898.5,539.3
	c0-117.7-58.8-224.8-160.5-289c-21.4-10.7-48.1-5.4-64.2,16.1c-10.7,21.4-5.4,48.2,16,64.2c74.9,48.2,117.7,128.4,117.7,214.1
	s-42.8,165.9-117.7,214.1c-21.4,10.7-26.8,42.8-16,64.2c10.7,21.4,37.4,26.8,64.2,16.1C839.6,764.1,898.5,657,898.5,539.3z
	 M631,394.8c-21.4-10.7-48.2-5.4-58.9,16.1c-10.7,21.4-5.4,48.2,16,58.9c21.4,10.7,37.5,37.5,37.5,64.2s-16,53.5-37.5,64.2
	c-21.4,10.7-26.8,37.5-16,58.9c10.7,21.4,37.5,26.8,58.9,16.1c53.5-26.8,85.6-85.6,85.6-144.5S684.5,421.6,631,394.8L631,394.8z"/>
</svg>
