<?xml version="1.0" encoding="utf-8"?>
<!-- Generator: Adobe Illustrator 24.1.1, SVG Export Plug-In . SVG Version: 6.00 Build 0)  -->
<svg version="1.1" id="Capa_1" xmlns="http://www.w3.org/2000/svg" xmlns:xlink="http://www.w3.org/1999/xlink" x="0px" y="0px"
	 viewBox="0 0 1080 1080" style="enable-background:new 0 0 1080 1080;" xml:space="preserve">
<style type="text/css">
	.st0{fill-rule:evenodd;clip-rule:evenodd;fill:url(#SVGID_1_);}
	.st1{fill-rule:evenodd;clip-rule:evenodd;fill:url(#SVGID_2_);}
	.st2{fill-rule:evenodd;clip-rule:evenodd;fill:url(#SVGID_3_);}
	.st3{fill-rule:evenodd;clip-rule:evenodd;fill:url(#SVGID_4_);}
	.st4{fill-rule:evenodd;clip-rule:evenodd;fill:url(#SVGID_5_);}
	.st5{fill-rule:evenodd;clip-rule:evenodd;fill:url(#SVGID_6_);}
	.st6{fill-rule:evenodd;clip-rule:evenodd;fill:url(#SVGID_7_);}
	.st7{fill-rule:evenodd;clip-rule:evenodd;fill:#714896;}
	.st8{fill-rule:evenodd;clip-rule:evenodd;fill:#6F4795;}
	.st9{fill-rule:evenodd;clip-rule:evenodd;fill:#88519F;}
	.st10{fill-rule:evenodd;clip-rule:evenodd;fill:#85509E;}
	.st11{fill-rule:evenodd;clip-rule:evenodd;fill:#8D166A;}
	.st12{fill-rule:evenodd;clip-rule:evenodd;fill:#A70D6F;}
	.st13{fill-rule:evenodd;clip-rule:evenodd;fill:#9E61AD;}
	.st14{fill-rule:evenodd;clip-rule:evenodd;fill:#8053A3;}
	.st15{fill-rule:evenodd;clip-rule:evenodd;fill:url(#SVGID_8_);}
</style>
<g id="Icon" transform="matrix(.31022 .061897 -.061897 .31022 169.49 177.35)">
	<g id="Group" transform="rotate(-11.284,17.839,-78.732)">
		
			<linearGradient id="SVGID_1_" gradientUnits="userSpaceOnUse" x1="-1120.0961" y1="6015.7788" x2="1519.0155" y2="3592.7412" gradientTransform="matrix(0.4814 0 0 -0.5243 -245.988 943.0431)">
			<stop  offset="0" style="stop-color:#C06FBB"/>
			<stop  offset="1" style="stop-color:#6E4D9B"/>
		</linearGradient>
		<path class="st0" d="M1680,76.4l-313.9,215l-323.4-497.3l313.9-215L1680,76.4z"/>
	</g>
	<g transform="rotate(-11.284,129.49,-99.884)">
		
			<linearGradient id="SVGID_2_" gradientUnits="userSpaceOnUse" x1="4944.6411" y1="-3122.1499" x2="3520.6775" y2="-1177.8419" gradientTransform="matrix(0.4835 0 0 -0.5221 -242.7426 938.2112)">
			<stop  offset="0" style="stop-color:#6E4D9B"/>
			<stop  offset="0.14" style="stop-color:#77327A"/>
			<stop  offset="0.29" style="stop-color:#B31777"/>
			<stop  offset="0.84" style="stop-color:#CD0F7E"/>
			<stop  offset="1" style="stop-color:#ED2C89"/>
		</linearGradient>
		<path class="st1" d="M1933.2,1548.2l536.4,824.7l-639,437.5l-536.4-824.7l-93.6-143.9l639-437.5L1933.2,1548.2z"/>
	</g>
	<g transform="rotate(-11.284,167.2,-62.32)">
		
			<linearGradient id="SVGID_3_" gradientUnits="userSpaceOnUse" x1="-4267.3911" y1="5938.0571" x2="-1772.0304" y2="2464.9644" gradientTransform="matrix(0.524 0 0 -0.4817 -229.458 824.6853)">
			<stop  offset="0" style="stop-color:#C06FBB"/>
			<stop  offset="1" style="stop-color:#6E4D9B"/>
		</linearGradient>
		<path class="st2" d="M1136.5,2092.5l118.1,181.6l-486.3,333l-211.7-325.4l106.3-72.7l380.1-260.3L1136.5,2092.5z"/>
	</g>
	<g transform="rotate(-11.284,104.37,-149.22)">
		
			<linearGradient id="SVGID_4_" gradientUnits="userSpaceOnUse" x1="-3177.1724" y1="5779.5933" x2="-107.4214" y2="3261.46" gradientTransform="matrix(0.5019 0 0 -0.5029 -221.5479 883.5707)">
			<stop  offset="0" style="stop-color:#C06FBB"/>
			<stop  offset="1" style="stop-color:#6E4D9B"/>
		</linearGradient>
		<path class="st3" d="M2188.9,1162.2l136.4-93.4l211.7,325.4l-314,215l-118.1-181.6l177.6-121.6L2188.9,1162.2z M2104.9,1427.6
			l-93.6-143.9l177.6-121.6l93.6,143.9L2104.9,1427.6z"/>
	</g>
	<g transform="rotate(-11.284,81.819,7.6453)">
		
			<linearGradient id="SVGID_5_" gradientUnits="userSpaceOnUse" x1="-3495.5901" y1="3527.3708" x2="-633.6119" y2="1005.4462" gradientTransform="matrix(0.5026 0 0 -0.5022 -254.1836 881.0084)">
			<stop  offset="0" style="stop-color:#C06FBB"/>
			<stop  offset="1" style="stop-color:#6E4D9B"/>
		</linearGradient>
		<path class="st4" d="M17.6,1216.3l-106.2,72.7l-323.4-497.3l486.3-333L301,807.4l-380.1,260.3L301,807.4l96.7,148.7L17.6,1216.3z"
			/>
	</g>
	<g transform="rotate(-11.284,17.141,-7.8246)">
		
			<linearGradient id="SVGID_6_" gradientUnits="userSpaceOnUse" x1="5571.5713" y1="-3790.1121" x2="4144.0771" y2="-1837.2942" gradientTransform="matrix(0.4836 0 0 -0.522 -259.6456 936.2094)">
			<stop  offset="0" style="stop-color:#6E4D9B"/>
			<stop  offset="0.14" style="stop-color:#77327A"/>
			<stop  offset="0.29" style="stop-color:#B31777"/>
			<stop  offset="0.84" style="stop-color:#CD0F7E"/>
			<stop  offset="1" style="stop-color:#ED2C89"/>
		</linearGradient>
		<path class="st5" d="M1101.5,268.6l96.7,148.7l-639,437.5l-96.7-148.7l-531.4-817l639-437.5L1101.5,268.6z"/>
	</g>
	<g transform="rotate(-11.284,18.188,-79.174)">
		
			<linearGradient id="SVGID_7_" gradientUnits="userSpaceOnUse" x1="-774.1681" y1="6475.3916" x2="1867.4464" y2="3550.6079" gradientTransform="matrix(0.4814 0 0 -0.5243 -245.8889 943.048)">
			<stop  offset="0" style="stop-color:#C06FBB"/>
			<stop  offset="1" style="stop-color:#6E4D9B"/>
		</linearGradient>
		<path class="st6" d="M1543.6,169.8L1366,291.3l-96.7-148.7l-226.7-348.6l314-215L1680,76.4L1543.6,169.8z"/>
	</g>
	<g transform="rotate(-11.284,166.49,-69.536)">
		<path class="st7" d="M755,2352.8l-93.6-143.9l380.1-260.3l93.6,143.9L755,2352.8z"/>
	</g>
	<g transform="rotate(-11.284,109.99,-149.77)">
		<path class="st8" d="M2104.8,1426.6l-93.6-143.9l177.6-121.6l93.6,143.9L2104.8,1426.6z"/>
	</g>
	<g transform="rotate(-11.284,100.61,-15.26)">
		<path class="st9" d="M13.4,1212.3l-96.7-148.7l380.1-260.3L393.6,952L13.4,1212.3z"/>
	</g>
	<g transform="rotate(-11.284,43.301,-95.418)">
		<path class="st10" d="M1363.3,286.1l-96.7-148.7l177.6-121.6l96.7,148.7L1363.3,286.1z"/>
	</g>
	<g transform="rotate(-11.284,129.49,-99.884)">
		<path class="st11" d="M1933.2,1548.2l-639,437.5l-93.6-143.9l639-437.5L1933.2,1548.2z"/>
	</g>
	<g transform="rotate(-11.284,63.604,-45.609)">
		<path class="st12" d="M1095,258.8l96.7,148.7l-639,437.5L456,696.3L1095,258.8z"/>
	</g>
	<g transform="rotate(45,-13.019,8.751)">
		<polygon id="Rectangle-path" class="st13" points="25,217.1 246.2,219.8 248.8,438.8 27.6,436.2 		"/>
	</g>
	<g transform="rotate(45,-36.276,36.979)">
		<polygon class="st14" points="2208.8,901.2 2430,903.8 2432.6,1122.8 2211.4,1120.2 		"/>
	</g>
	<g transform="translate(1.8225,1.5477)">
		
			<linearGradient id="SVGID_8_" gradientUnits="userSpaceOnUse" x1="487.0404" y1="-2446.1545" x2="2037.7446" y2="-912.7509" gradientTransform="matrix(0.4937 -9.810840e-02 -9.850556e-02 -0.4917 -347.1409 989.376)">
			<stop  offset="0" style="stop-color:#6E4D9B"/>
			<stop  offset="0.14" style="stop-color:#77327A"/>
			<stop  offset="0.53" style="stop-color:#B31777"/>
			<stop  offset="0.79" style="stop-color:#CD0F7E"/>
			<stop  offset="1" style="stop-color:#ED2C89"/>
		</linearGradient>
		<path class="st15" d="M508.7,2510.2l-679.4-700.8L2222.6-646.9l702,682.9L508.7,2510.2z"/>
	</g>
</g>
</svg>
