<?xml version="1.0" encoding="utf-8"?>
<!-- Generator: Adobe Illustrator 24.1.1, SVG Export Plug-In . SVG Version: 6.00 Build 0)  -->
<svg version="1.1" id="Capa_1" xmlns="http://www.w3.org/2000/svg" xmlns:xlink="http://www.w3.org/1999/xlink" x="0px" y="0px"
	 viewBox="0 0 1080 1080" style="enable-background:new 0 0 1080 1080;" xml:space="preserve">
<style type="text/css">
	.st0{fill:#F44336;}
</style>
<path class="st0" d="M734.5,588.6c-14.1,0-30.2,0-47.2,2.4c56.4,40.8,95.8,94.7,95.8,167.6V880H1075V758.6
	C1075,645.4,847.9,588.6,734.5,588.6 M345.5,588.6C232.1,588.6,5,645.4,5,758.6V880h680.9V758.6
	C685.9,645.4,458.8,588.6,345.5,588.6 M345.5,491.4c80.6,0,145.9-65.2,145.9-145.7S426,200,345.5,200s-145.9,65.2-145.9,145.7
	S264.9,491.4,345.5,491.4 M734.6,491.4c80.6,0,145.9-65.2,145.9-145.7S815.1,200,734.6,200s-145.9,65.2-145.9,145.7
	S654,491.4,734.6,491.4z"/>
</svg>
