<?xml version="1.0" encoding="utf-8"?>
<!-- Generator: Adobe Illustrator 24.1.1, SVG Export Plug-In . SVG Version: 6.00 Build 0)  -->
<svg version="1.1" id="Capa_1" xmlns="http://www.w3.org/2000/svg" xmlns:xlink="http://www.w3.org/1999/xlink" x="0px" y="0px"
	 viewBox="0 0 1080 1080" style="enable-background:new 0 0 1080 1080;" xml:space="preserve">
<style type="text/css">
	.st0{fill:#1976D2;}
</style>
<path class="st0" d="M540,5C244.5,5,5,244.5,5,540c0,295.5,239.5,535,535,535c295.5,0,535-239.5,535-535c0,0,0,0,0,0
	C1075,244.5,835.4,5,540,5C540,5,540,5,540,5z M547.4,241.4c22.9,0,42,5.3,57.3,15.8c15.3,10.5,28.4,23.5,39.1,39.1l305.4,442H380.8
	l91.3-125.7h168.5c15.8,0,29.5,0.5,41.2,1.5c-6.8-8.8-14.7-19.8-23.7-33.2c-9-13.4-17.7-25.9-26-37.6l-87.7-129.3L315,738.3H136
	l313.5-442c10.2-14.1,23.1-26.8,38.7-38C503.7,247.1,523.5,241.4,547.4,241.4L547.4,241.4z"/>
</svg>
