<?xml version="1.0" encoding="utf-8"?>
<!-- Generator: Adobe Illustrator 26.0.0, SVG Export Plug-In . SVG Version: 6.00 Build 0)  -->
<svg version="1.1" id="Capa_1" xmlns="http://www.w3.org/2000/svg" xmlns:xlink="http://www.w3.org/1999/xlink" x="0px" y="0px"
	 viewBox="0 0 1080 1080" style="enable-background:new 0 0 1080 1080;" xml:space="preserve">
<style type="text/css">
	.st0{fill:#FFC400;}
	.st1{fill:#AD1457;}
	.st2{fill:#CFD8DC;}
	.st3{fill:#FF5252;}
</style>
<g>
	<path class="st0" d="M351.7,121.1c17.9,30.7,56,42.7,90.7,34c31.9-7.9,64.7-11.9,97.6-11.9c33.2,0,65.4,4,96.2,11.6
		c34.6,8.5,72.6-3.5,90.5-34.2c20.9-35.7,6.2-82-33.7-93.7C643.3,12.3,591.8,5,540,5c-53.8,0-105.8,7.8-154.8,22.4
		C345.4,39.2,330.9,85.4,351.7,121.1L351.7,121.1z"/>
	<path class="st1" d="M167.6,153.3c30.2-28.6,78-18.2,98.9,17.7c17.8,30.6,9.4,69.1-15.2,94.6c-32.6,33.8-59,73.1-77.9,116.1
		c-12.9,29.5-40.8,51.3-73.1,51.3c-45.7,0-80-41.8-63.7-84.1C65.1,274.8,109.9,208,167.6,153.3z"/>
	<path class="st2" d="M69,540c38.4,0,70.6,31.2,77.3,68.8c32.8,186.3,196.6,328,393.7,328s360.9-141.6,393.7-328
		c6.6-37.6,38.8-68.8,77.3-68.8c38.5,0,68.4,31.1,63.5,69c-34.1,262.9-260.4,466-534.5,466S39.6,871.9,5.5,609
		C0.6,571,30.6,540,69,540z"/>
	<path class="st3" d="M978.9,430.8c45.8,0,80.3-42.1,63.7-84.4C1013.6,272.6,968.7,206.3,911,152c-30.2-28.5-77.8-18-98.7,17.8
		c-17.8,30.7-9.3,69.3,15.5,94.8c32.6,33.5,59,72.6,78.1,115.3C918.8,409.2,946.6,430.8,978.9,430.8z"/>
	<path class="st2" d="M279.6,396.6c-23.6-26.1,2.8-67.5,35.1-54.9l262.8,102.2c59.6,23.2,82.3,98.4,46.1,152.7
		c-28.6,44.3-87.7,57-132,28.4c-7.2-4.6-13.7-10.2-19.4-16.6L279.6,396.6L279.6,396.6z"/>
</g>
</svg>
