<?xml version="1.0" encoding="utf-8"?>
<!-- Generator: Adobe Illustrator 24.1.1, SVG Export Plug-In . SVG Version: 6.00 Build 0)  -->
<svg version="1.1" id="Capa_1" xmlns="http://www.w3.org/2000/svg" xmlns:xlink="http://www.w3.org/1999/xlink" x="0px" y="0px"
	 viewBox="0 0 1080 1080" style="enable-background:new 0 0 1080 1080;" xml:space="preserve">
<style type="text/css">
	.st0{fill:#4CAF50;}
</style>
<path class="st0" d="M123.9,5C57.9,5,5,57.9,5,123.9v832.2c0,65.7,53.2,118.9,118.9,118.9h832.2c65.7,0,118.9-53.2,118.9-118.9
	V123.9C1075,57.9,1021.5,5,956.1,5H123.9z M341.9,209.9c15.4,0,28.4,5.1,38.8,15.2s15.6,22.5,15.6,37.2c0,20.2-0.8,50.7-2.4,91.4
	c-1.3,40.4-2,70.7-2,90.9c0,6.7-0.9,19.4-2.8,38.3c-1.6,17.6-2.2,31.1-2,40.4l153.3-28.8c59.9-10.6,111.4-16.7,154.8-18.3
	c1.1-17.8,2.8-65.7,5.2-143.6c0.5-20.5,6.8-44.1,18.8-70.7c14.9-32.7,31.7-49.1,50.6-49.1c14.1,0,26.6,4.7,37.5,14
	c11.7,10.1,17.5,22.7,17.5,37.8c0,4-0.4,8-1.5,12c-5.3,19.4-8,36.4-8,50.7c0,7.5-0.8,19-2.4,34.7c-1.3,15.4-2,26.9-2,34.4
	c0,25.3-1.3,62.7-3.9,112.5c-2.7,49.8-4.1,87.2-4.1,112.5c0,19.4,1.5,48.5,4.4,87.1c2.9,38.6,4.4,67.5,4.4,87
	c0,14.6-5.2,27-15.6,37.2c-10.4,10.1-23.2,15.1-38.7,15.1c-15.7,0-29.3-5-40.8-15.1c-11.4-9.8-17.2-22-17.2-36.3
	c0-19.4-0.9-48.6-2.8-87.4c-1.6-38.8-2.4-68-2.4-87.4c0-15.2,0.3-28.6,0.8-40.3c-41.8,1.9-93.3,8.4-154.8,19.6
	c-51.1,9.3-102.2,18.8-153.3,28.3c-0.5,18.1-2.5,48.3-5.7,90.6c-2.7,37.2-3.9,67.7-3.9,91.4c0,14.6-5.2,27-15.6,37.2
	c-10.4,10.1-23.2,15.1-38.7,15.1c-15.4,0-28.4-5-38.8-15.1c-10.4-10.1-15.6-22.5-15.6-37.2c0-26.9,2.2-67,6.7-120.5
	c4.8-53.5,7.2-93.6,7.2-120.5c0-34.1,0.8-85.3,2.4-153.7c1.6-68.6,2.4-119.9,2.4-153.9c0-14.6,5.2-27,15.6-37.2
	C313.6,215,326.5,209.9,341.9,209.9L341.9,209.9z"/>
</svg>
