<?xml version="1.0" encoding="utf-8"?>
<!-- Generator: Adobe Illustrator 24.1.1, SVG Export Plug-In . SVG Version: 6.00 Build 0)  -->
<svg version="1.1" id="Capa_1" xmlns="http://www.w3.org/2000/svg" xmlns:xlink="http://www.w3.org/1999/xlink" x="0px" y="0px"
	 viewBox="0 0 1080 1080" style="enable-background:new 0 0 1080 1080;" xml:space="preserve">
<style type="text/css">
	.st0{fill:#FDD835;}
</style>
<path class="st0" d="M873.4,497.7c-1.6-8.6-25.2-38-70.6-88.3c-1.1-10.2,15.5-24.1,48.2-42.8l93.1-82.9
	c20.9-26.8,33.2-68.5,36.9-127.3l-1.1-13.9c-3.7-41.7-33.7-74.9-90.4-101.1C855.8,18.9,795.3,6.6,708.6,5
	C636.3,10.9,542.1,36.6,426,81.5c-32.1,23-68.5,46-109.2,68.5l0.5,7.5l11.2-4.3c4.3-0.5,7,1.6,7.5,5.9l7-3.7l3.7-0.5l0.5,3.2
	c0,3.7-25.2,23.5-94.2,72.2l-3.2,6.4c-16.6,1.1-32.6,13.4-48.7,35.8l4.3,6.4l13.4-4.8l9.6,12.8c17.1-17.7,35.3-33.2,55.1-46.5
	c10.2,2.7,15.5,5.9,23.5,8.6c54.6-40.1,108.6-69.6,162.7-87.7l0.5,7.5c-10.7,14.4-17.1,22.5-20.3,22.5l5.4,12.3
	C456,213.7,319,578,99,976l4.3,10.2c18.7-4.3,31-9.1,40.1-13.9l0.5,7l21.4-1.6l-35.9,94.2l7.5,3.2c30.5-34.2,53.5-69,69.6-100.6
	c89.4-26.2,157.3-51.9,204.4-77c47.1-4.3,83.5-16.6,108.1-37.5l49.2-25.1c68-52.4,118.8-89.3,153.6-111.3
	c71.2-52.4,117.7-103.3,139.2-152.5L873.4,497.7 M688.2,621.3l-94.7,74.4c-69,45.5-107,69.5-111.9,69.5
	c-110.8,60.5-179.8,92-206.6,94.2l-2.7,0.5c2.1-12.3,51.4-113.4,147.2-303.3c41.7-3.2,108.1-23,198.6-58.9l21.9-1.6
	c45.5-4.3,79.7,4.8,102.2,26.2l1.6,13.9C727.3,584.4,708.1,613.3,688.2,621.3 M746.6,312.1c-9.6,11.8-36.4,31.6-80.3,59.4
	c-14.5,1.6-68,22.5-161.1,63.1l-15-2.7l-0.5-6.4c-1.1-13.4,4.8-30.5,18.2-50.8c7-37.4,15-59.9,23.5-64.2L609,135
	c-1.1-11.8,15.5-18.7,49.8-24.6l11.2-1.1l0.5,9.6l62.1-8.6c61.5-5.3,93.7,7.5,96.3,37.5l7-1.1l-1.6-17.1l8-1.1
	c18.7,10.2,27.8,21.4,28.9,36.4c1.1,9.6-4.3,21.9-15.5,36.4c-4.8,0.5-7.5-3.2-8-9.6l-7.5,0.5l-1.6,21.4c-31,46.5-54.1,70.1-68,71.7
	L746.6,312.1z"/>
</svg>
