<?xml version="1.0" encoding="utf-8"?>
<!-- Generator: Adobe Illustrator 24.1.1, SVG Export Plug-In . SVG Version: 6.00 Build 0)  -->
<svg version="1.1" id="Capa_1" xmlns="http://www.w3.org/2000/svg" xmlns:xlink="http://www.w3.org/1999/xlink" x="0px" y="0px"
	 viewBox="0 0 1080 1080" style="enable-background:new 0 0 1080 1080;" xml:space="preserve">
<style type="text/css">
	.st0{fill:#81C784;}
	.st1{fill:#43A047;}
	.st2{fill:#2E7D32;}
	.st3{fill:#1B5E20;}
</style>
<g transform="matrix(.91525 0 0 .91525 21.695 21.695)">
	<path class="st0" d="M274-18.2L566.3,274L274,566.3L-18.2,274L274-18.2z"/>
	<path class="st1" d="M-18.2,274v292.3L274,858.6V566.3L-18.2,274z"/>
	<path class="st0" d="M858.6-18.2L1150.8,274L858.6,566.3L566.3,274L858.6-18.2z"/>
	<path class="st1" d="M1150.8,274v292.3L858.6,858.6V566.3L1150.8,274z"/>
	<path class="st1" d="M566.3,274l292.3,292.3L566.3,858.6L274,566.3L566.3,274z"/>
	<path class="st2" d="M566.3,858.6v292.3L274,858.6V566.3L566.3,858.6z"/>
	<path class="st3" d="M566.3,858.6l292.3-292.3v292.3l-292.3,292.3V858.6z"/>
</g>
</svg>
