<?xml version="1.0" encoding="utf-8"?>
<!-- Generator: Adobe Illustrator 24.1.1, SVG Export Plug-In . SVG Version: 6.00 Build 0)  -->
<svg version="1.1" id="Capa_1" xmlns="http://www.w3.org/2000/svg" xmlns:xlink="http://www.w3.org/1999/xlink" x="0px" y="0px"
	 viewBox="0 0 1080 1080" style="enable-background:new 0 0 1080 1080;" xml:space="preserve">
<style type="text/css">
	.st0{fill:#1E88E5;}
	.st1{fill:url(#SVGID_1_);}
</style>
<g transform="matrix(.96468 0 0 .96468 1.1019 2.4485)">
	<path class="st0" d="M40,58.6C20.4,58.4,4.3,74.1,4,93.7c0,2.1,0.1,4.1,0.5,6.1l150.8,915.5c3.9,23.1,23.8,40.1,47.3,40.3h723.5
		c17.6,0.2,32.7-12.5,35.5-29.8l151.2-925.6c3.1-19.4-10-37.6-29.4-40.8c-2-0.3-4.1-0.5-6.1-0.5L40,58.6z M675.1,720.3H444.1
		l-62.5-326.5H731L675.1,720.3z"/>
	
		<linearGradient id="SVGID_1_" gradientUnits="userSpaceOnUse" x1="287.7193" y1="960.3513" x2="150.0303" y2="852.8456" gradientTransform="matrix(3.8605 0 0 -3.8605 30.9512 4192.8081)">
		<stop  offset="0.18" style="stop-color:#1565C0"/>
		<stop  offset="1" style="stop-color:#1E88E5"/>
	</linearGradient>
	<path class="st1" d="M1064.4,393.8H731l-56,326.5H444.1l-272.7,323.8c8.6,7.5,19.7,11.6,31.1,11.7h723.7
		c17.6,0.2,32.7-12.5,35.5-29.8L1064.4,393.8z"/>
</g>
</svg>
