<?xml version="1.0" encoding="utf-8"?>
<!-- Generator: Adobe Illustrator 24.1.1, SVG Export Plug-In . SVG Version: 6.00 Build 0)  -->
<svg version="1.1" id="Capa_1" xmlns="http://www.w3.org/2000/svg" xmlns:xlink="http://www.w3.org/1999/xlink" x="0px" y="0px"
	 viewBox="0 0 1080 1080" style="enable-background:new 0 0 1080 1080;" xml:space="preserve">
<style type="text/css">
	.st0{fill:#E53935;}
</style>
<g transform="matrix(.88 0 0 .88 24.698 4.003)">
	<path class="st0" d="M1134.1,558.7c-4.8-47.4-15.4-95.8-30.4-141c-43.2-129.1-123.6-261.4-225.1-352.7
		c-4.5-3.8-21.5-14.1-27.9-10.6c-16.7,9.3,14.7,73,18.6,84.6C893,209.5,908,284.2,891,357.9c-22.7,97.4-97.4,165.6-196.9,173.9
		c-54.8,4.5-109.8-1.6-164.6,4.8c-82,9.6-165.6,37.8-217.8,105.1c-6.1,7.7-11.5,16.3-16.7,25.3h-1.3c-20.2,2.2-40.3-6.4-50.3-11.9
		c-2.6-1.6-5.1-2.9-7-3.8c-60.8-33.6-105.7-108.9-133.2-171.1c-12.5-28.8-23.1-58.9-29.8-89.4c-3.2-13.8-3.5-28.2-4.2-42.3
		c-0.3-8.6,1-20.8-3.8-28.5c-10.6-16.7-24-0.6-26.3,12.8c-3.5,22.1-6.7,43.9-5.8,66.3c1.6,37.8,12.2,75.3,25.6,110.5
		c19.9,51.9,47.7,99.6,83.9,142.2c15.1,17.6,31.1,34,48.4,49c15.4,13.8,34.9,24.7,46.4,42.3c13.4,20.2,15.7,45.2,14.4,68.6
		c-3.2,61.8-5.1,119.8,12.5,180c15.4,53.5,34.6,108.3,66.6,154.1c16,22.7,35.9,46.8,57.6,63.7c14.7,11.5,42.6,12.8,26.6-29.5
		c-35.5-93.9-38.7-191.2,16.7-279c46.4-73,128.4-138.1,221-126.5c136.1,17,230.9,141.9,224.2,275.5c-1.9,37.5-3.2,69.5-15.1,104.8
		c-4.8,14.1-8.3,32-4.8,46.8c5.8,25,33.6,15.7,45.8-0.6c33-44.8,67.6-88.4,98.6-134.5C1103,915.3,1152.4,740.4,1134.1,558.7
		L1134.1,558.7z"/>
	<path class="st0" d="M371.6,190.6c2.2,7.4,4.5,15.4,6.1,24c0.3,3.5,1.3,7.4,3.2,10.9c8.3,21.8,28.5,33.6,47.4,44.8
		c11.5,7,32.3,13.8,45.2,18.9c16.7,6.7,52.5-1.9,69.5-3.2c39.1-3.2,75.3-17,111.1,3.8c-183.8,215.6-10.2,263.6,124.2,159.9
		c153.7-118.5,9-398.2,9-398.2s-3.2-21.8-61.5-34.6c-5.4-2.9-10.9-5.4-16.3-7.7c-57.6-26.6-109.5,17-151.1,52.5
		c-12.2,10.3-24,20.5-36.8,30.1c-17.3,12.8-35.9,23.4-55.4,32.7c-20.5,9.6-44.8,20.5-67.6,21.5c-3.2,0-9.3,0.6-15.7,1.9
		c-9.9,1-15.1,3.5-17.3,8c-3.8,3.2-6.4,7.7-5.8,13.5c0.6,8,4.5,14.7,8.6,19.9C369.7,189.7,370.7,190.3,371.6,190.6L371.6,190.6z"/>
</g>
</svg>
