<?xml version="1.0" encoding="utf-8"?>
<!-- Generator: Adobe Illustrator 24.1.1, SVG Export Plug-In . SVG Version: 6.00 Build 0)  -->
<svg version="1.1" id="Capa_1" xmlns="http://www.w3.org/2000/svg" xmlns:xlink="http://www.w3.org/1999/xlink" x="0px" y="0px"
	 viewBox="0 0 1080 1080" style="enable-background:new 0 0 1080 1080;" xml:space="preserve">
<style type="text/css">
	.st0{fill:#37474F;}
	.st1{fill:#F9A825;}
</style>
<circle class="st0" cx="540" cy="540" r="497.9"/>
<g transform="matrix(.90185 0 0 .90185 9.8555 13.463)">
	<path class="st1" d="M604.7-9.2C932.4,0,1190,273,1180.8,600.7c-9.2,327.7-282.2,585.3-609.9,576.1
		C243.8,1167.6-13.9,895.7-5.2,568.5C3.5,240.8,276-17.9,603.7-9.2H604.7z M601.6,52.2C308.2,44.5,63.8,276.6,56.7,570.5
		C49,864,281.1,1108.3,574.5,1115.5c293.4,7.7,537.8-224.4,544.9-517.9C1127.7,303.7,895.6,59.8,601.6,52.2
		C602.1,52.2,601.6,52.2,601.6,52.2z"/>
</g>
<path class="st1" d="M590.6,363.1c-21.2,20.3-12.9,65.5,19.8,100s77.9,45.2,98.2,24.4c20.3-20.7,13.8-66.4-19.4-101
	c-33.2-34.6-78.8-44.7-100-24.4L590.6,363.1z M857.6,234.5c42,43.8,73.8,95.9,94.1,152.6c0,0,13.8,37.8-30,37.8h-107
	c0,0-34.1-2.8-35.5,26.3c-2.3,36-1.4,66.4-1.4,66.4c1.4,20.7,9.2,41,22.1,57.2l110.2,116.2c18,16.6,20.3,43.8,5.5,63.2
	c-55.8,95-145.2,165-250.8,196.9c-32.3,9.7-35.5-16.6-34.6-34.6c0-11.5,13.4-267.9,13.4-267.9c3.7-27.7-5.1-55.8-24.4-76.1
	c-34.6-36.9-56.2-60.4-56.2-60.4s-24.4-24.4-59.5-60.9c-19.4-19.8-46.1-30-73.8-28.1H161.9c-17.5,0-44.3-4.1-32.7-36
	c37.3-103.7,112-189.5,210.2-239.7c19.8-13.8,47-10.1,62.7,8.8l110.2,116.2c15.7,13.8,35.5,22.1,56.2,24.4c0,0,30,2.3,66.4,1.8
	c28.6,0,28.1-34.6,28.1-34.6s4.6-71,6-107c-1.4-15.2,9.7-28.6,24.4-30c5.1-0.5,9.7,0.5,14.3,2.3c56.2,24,107.4,59.5,149.4,103.7
	L857.6,234.5z"/>
</svg>
