<?xml version="1.0" encoding="utf-8"?>
<!-- Generator: Adobe Illustrator 26.0.0, SVG Export Plug-In . SVG Version: 6.00 Build 0)  -->
<svg version="1.1" id="Capa_1" xmlns="http://www.w3.org/2000/svg" xmlns:xlink="http://www.w3.org/1999/xlink" x="0px" y="0px"
	 viewBox="0 0 1080 1080" style="enable-background:new 0 0 1080 1080;" xml:space="preserve">
<style type="text/css">
	.st0{fill:#7C4DFF;}
</style>
<path class="st0" d="M367.4,539.9c67.9,0,131.9,31.6,172.7,85.4l176,231.9c3.3,4.4,3.8,10.3,1.3,15.1l-101.4,194.9
	c-3.7,7.1-12.5,9.8-19.5,6.1c-1.9-1-3.5-2.4-4.8-4L189,539.9L367.4,539.9L367.4,539.9z M488.4,10.7L891,540.1H712.6
	c-67.8,0.1-131.7-31.5-172.7-85.4L364,222.8c-3.3-4.4-3.8-10.3-1.3-15.1L464.1,12.8c3.7-7.1,12.4-9.8,19.5-6.1
	C485.6,7.6,487.2,9,488.4,10.7L488.4,10.7z"/>
</svg>
