<?xml version="1.0" encoding="utf-8"?>
<!-- Generator: Adobe Illustrator 24.1.1, SVG Export Plug-In . SVG Version: 6.00 Build 0)  -->
<svg version="1.1" id="Capa_1" xmlns="http://www.w3.org/2000/svg" xmlns:xlink="http://www.w3.org/1999/xlink" x="0px" y="0px"
	 viewBox="0 0 1080 1080" style="enable-background:new 0 0 1080 1080;" xml:space="preserve">
<style type="text/css">
	.st0{fill:#543729;}
	.st1{fill:#00ACEE;}
	.st2{fill:#2BAF2B;}
	.st3{fill:#FFCC2F;}
	.st4{fill:#CECECE;}
	.st5{fill:#EF5734;}
	.st6{fill:#FFFFFF;}
</style>
<g transform="matrix(.81733 0 0 .81733 10.989 32.73)">
	<path id="outline" class="st0" d="M1276.8,607.3c-67.3-64.7-404.1-105.1-510.3-116.8c5.1-12.2,9.5-24.7,13.1-37.7
		c14.5-6.3,30.1-12.2,46.3-17.2c2,5.8,11.2,28.1,16.5,38.6c213.6,5.9,224.6-158.8,233.3-203.9c8.5-44.1,8.1-86.7,81.3-164.6
		C1048,74,891,155.1,838.4,275.8c-19.8-7.4-39.6-12.9-59.2-16.3c-14-56.6-87.1-214.4-279-214.4C257.4,45.2-7.3,245.6-7.3,584.7
		c0,285.1,194.7,535,304.6,535c48,0,89.3-36,99-68.2c8.1,22.1,33.1,90.8,41.3,108.3c12.1,25.9,68.1,48.3,92.6,21.4
		c31.5,17.5,89.3,28.1,120.9-18.6c60.7,12.8,114.4-23.4,115.5-66.5c29.8-1.6,44.4-43.4,37.9-76.7c-4.8-24.5-56-112.5-76-142.9
		c39.5,32.2,139.7,41.3,151.9,0c63.8,50,163.1,23.8,171-16.9c77.5,20.1,166.3-24.1,151.7-77.6
		C1327.6,773.3,1311.7,640.9,1276.8,607.3L1276.8,607.3z"/>
	<g id="leaf" transform="matrix(.97265 0 0 .97265 6.324 6.9029)">
		<path class="st1" d="M949.9,326.9c27.6-54.7,62.2-114.4,105.9-151.3C1007.7,195,960.2,253,932.1,315
			c-14.3-9.1-28.9-17.2-43.5-24.3c39.2-83.7,130.3-153.6,230.7-159c-67.2,61-43.4,187.7-98.7,254.9
			C1004.8,370.6,968.4,339.9,949.9,326.9z M906.5,416c0-2.1,0.8-18.2,2.3-25.6c-3.9-0.9-27.8-5.6-40.3-5.3
			c-0.9,15.7,6.6,42.4,14,58.5c51.1-1.1,88-16.4,109.7-30.4c-18.5-8.6-50-16.3-74-20.9C915.4,397.8,908.8,411.9,906.5,416L906.5,416
			z"/>
	</g>
	<g>
		<path id="wingtip" class="st2" d="M703.4,832.3c0,0.1,0,0.2,0.1,0.2c-6.3-13.6-13-30-21-51.5c31.1,45.3,128.6,21.9,123.5-18.6
			c47.7,35.9,145.9-6,123.6-56.3c47.8,22.3,102.3-22.5,90.1-42.1c81.5,15.7,159.6,31.4,184.1,37.6c-16.3,26.5-53.4,45.3-109.3,32.3
			c30.2,41.1-28.4,90.5-110.1,63.3c18,40.4-54.7,76.8-137.4,34.7C847.9,872.3,744.3,877,703.4,832.3L703.4,832.3z M865,628
			c94.6,7.3,251,21.4,347.8,34.9c-6.1-31.5-22.8-40.5-75.4-54.6C1080.9,614.4,937.5,628.4,865,628L865,628z"/>
		<path id="body" class="st3" d="M805.9,762.4c47.7,35.9,145.9-6,123.6-56.3c47.8,22.3,102.3-22.5,90.1-42.1
			c-96.3-18.6-197.4-37.2-220.3-40.5c13.9,0.7,37,2.3,65.7,4.5c72.5,0.4,215.9-13.7,272.4-19.7c-91.5-23.2-278.4-57.1-407.4-65.4
			c-6,8.7-17,23.6-36.1,39.3c-56.5,119.5-158.8,198.9-272,198.9c-33,0-69.9-5.6-111.3-18.8c-25.8,27.6-135.8,48.6-225,4.8
			c70.8,165.8,235,276.4,416.7,276.4c153,0,220.9-156.3,206.1-197.6c-3.6-10-17.9-43.3-25.9-64.8C713.6,826.3,811,802.9,805.9,762.4
			L805.9,762.4z"/>
		<path id="beak" class="st4" d="M713.2,447.8c13.5-7.4,60.2-35.7,104.7-46.3c-0.7-4.9-1.2-9.9-1.6-14.9
			c-29.2,7-84.2,30.6-115.8-1.9c66.5,20.1,99.8-17.9,148.7-17.9c29.1,0,70.7,8.1,103.5,21c-26.4-24.4-112.8-97.9-219.9-98.1
			C709,318.7,683.1,381.5,713.2,447.8L713.2,447.8z"/>
		<path id="head" class="st5" d="M310.6,762.3c41.4,13.2,78.3,18.8,111.3,18.8c113.2,0,215.5-79.4,272-198.9
			c-41.8,34.9-114.3,64.7-227.7,64.7c101-22.9,187.9-73.2,232.1-146.7c-31.1-49.5-64.8-158.9,20.6-245.4
			c-13.1-42.2-77-153.5-218.5-153.5c-246.9,0-451.5,206.6-451.5,483.5c0,65.5,13.2,127,36.9,182.4
			C174.9,810.9,284.8,789.9,310.6,762.3L310.6,762.3z"/>
		<path id="eye_rim" class="st3" d="M384.7,340.7c0,63,51.1,114,114,114s114-51.1,114-114c0-63-51.1-114-114-114
			S384.7,277.7,384.7,340.7z"/>
		<path id="eye" class="st0" d="M430.5,340.7c0,37.7,30.6,68.3,68.3,68.3c37.7,0,68.3-30.6,68.3-68.3c0-37.7-30.6-68.3-68.3-68.3
			C461,272.4,430.5,303,430.5,340.7z"/>
		<ellipse id="pupil_highlight" class="st6" cx="498.7" cy="310.4" rx="39.8" ry="24.7"/>
	</g>
</g>
</svg>
