<?xml version="1.0" encoding="utf-8"?>
<!-- Generator: Adobe Illustrator 24.1.1, SVG Export Plug-In . SVG Version: 6.00 Build 0)  -->
<svg version="1.1" id="Capa_1" xmlns="http://www.w3.org/2000/svg" xmlns:xlink="http://www.w3.org/1999/xlink" x="0px" y="0px"
	 viewBox="0 0 1080 1080" style="enable-background:new 0 0 1080 1080;" xml:space="preserve">
<style type="text/css">
	.st0{fill:#FF4081;}
</style>
<path class="st0" d="M1035.5,613.3c4.7,81.1-32.4,159.1-98.8,206.7l40.3,78c12,23.6,13.6,51.3,3.1,75.9c-9.9,24.6-30.3,44-55.4,52.3
	l-41.3,13.1c-8.9,3.1-18.8,4.7-28.2,4.7c-26.7,0-51.8-12-69-33.5L675.2,879.7c-46.5-7.9-90.5-27.7-127.6-57.6
	c-26.1,7.9-52.3,12-78.4,12c-46,0-92-14.1-130.7-41.3c-27.7,8.4-56,12-84.7,11.5c-41.3,0.5-82.1-7.9-120.3-23.6
	C58.6,747.3,8.9,674,6.3,591.8c-4.2-37.7,2.1-75.9,18.3-110.4c-15.2-39.3-16.7-82.2-3.7-121.9c19.4-49.7,56-91.1,101.5-117.2
	c30.3-88.4,115.6-147.6,209.2-141.3c83.7-78.5,211.8-86.9,304.9-19.4c22-5.8,45-8.9,68-8.9c71.1-1.6,138.6,29.8,183,85.8
	c106.7,27.7,183,123,187.2,233.9c2.6,58.1-13.1,115.1-45,163.8C1033.4,575.1,1035.5,593.9,1035.5,613.3 M774,539.5
	c29.8,3.7,53.3,26.2,53.3,56c0,28.9-23.4,52.3-52.3,52.3l0,0h-32.9c-16.7,47.1-46,88.4-84.7,119.8c13.1,4.7,26.7,7.3,40.3,11
	c268.3-3.7,236.9-167.5,236.9-170.1c-3.1-74.8-65.9-133.5-140.7-130.3c-28.9,0-52.3-23.4-52.3-52.3v0c0-28.9,23.4-52.3,52.3-52.3
	c0,0,0,0,0,0c64.3,1.6,126,25.6,174.2,68c2.6-15.2,4.2-30.9,4.2-46.6c-3.1-64.9-32.4-121.4-150.1-132.4
	C756.7,107.7,592,193.6,592,241.7c-1.6,12,11,37.7,13.1,39.3c28.9,0,52.3,23.4,52.3,52.3c0,0,0,0,0,0c0,28.8-23.5,52.3-52.3,52.3
	c-27.7-1-53.9-11.5-74.8-29.3c-25.1,16.2-53.9,26.2-83.7,29.3c-29.8,2.6-54.4-18.3-56-47.1c-4.2-29.3,17.3-55,46-57.6
	c8.4-1,49.2-7.3,49.2-40.3c0-34.5,13.1-67.5,35.6-93.7c-48.1-13.1-99.9,4.2-152.2,67.5c-96.2-15.2-135.5-2.1-164.2,100
	c-49.7,24.6-75.8,41.9-87.3,94.2c56.5-11.5,114.5-6.8,168.4,13.1c26.1,9.9,40.8,39.3,30.9,67.5c-9.9,27.2-40.3,40.8-67.5,30.9
	c-38.2-16.7-81.1-17.8-120.3-3.1c-16.7,14.1-16.7,43.4-16.7,66.5c0,38.7,19.4,74.8,52.3,95.8c27.7,14.1,58.6,21.5,89.4,20.9
	c-7.8-13.6-14.6-27.7-20.4-42.4c-9.9-28.3,5.2-59.1,33.5-69.1c28.2-9.9,59.1,5.2,69,33.5c20.9,59.7,74.3,100.5,137,107.3
	c71.7-3.7,135.5-46.1,166.8-111.5C652.1,545.8,710.2,539.5,774,539.5 M878.6,930.4l-32.4-68l-37.1,8.4l52.3,65.4L878.6,930.4
	 M635.4,479.8c1-27.7-19.9-51.3-47.6-53.9c-37.1-2.1-73.2,10.5-100.9,35.1c-29.8,30.4-45.5,72.2-43.9,114.6
	c0,28.9,23.4,52.3,52.3,52.3h0c29.8,0,52.3-23.6,52.3-52.3c0-14.1,3.7-28.3,12-39.8c6.3-5.2,14.1-7.9,22.5-7.9
	C610.8,529.6,635.4,508.1,635.4,479.8L635.4,479.8z"/>
</svg>
