<?xml version="1.0" encoding="utf-8"?>
<!-- Generator: Adobe Illustrator 24.1.1, SVG Export Plug-In . SVG Version: 6.00 Build 0)  -->
<svg version="1.1" id="Capa_1" xmlns="http://www.w3.org/2000/svg" xmlns:xlink="http://www.w3.org/1999/xlink" x="0px" y="0px"
	 viewBox="0 0 1080 1080" style="enable-background:new 0 0 1080 1080;" xml:space="preserve">
<style type="text/css">
	.st0{fill:#FFCA28;}
</style>
<g transform="translate(10.509,10.206)">
	<path class="st0" d="M529.5-5.2c-295.5,0-535,239.5-535,535s239.5,535,535,535l0,0c295.5,0,535-239.5,535-535v0
		C1064.5,234.3,825-5.2,529.5-5.2C529.5-5.2,529.5-5.2,529.5-5.2z M486.2,73.4c4.4,36.2,12.1,65.5,23,91.4
		C552,126.4,601,97.3,652.7,84.1c-8.8,35.2-12.1,65.2-11.3,93.3c53.9-20.7,110.4-30.4,163.7-24.2c-28.5,21.6-49,42.2-63.7,62.7
		c-19.7,108,61.3,182.7,132.2,219.5c5.2-21.1,24.6-35.7,46.4-34.8c25.3,1.1,45,22.4,43.9,47.7c-0.4,10.2-4.2,19.9-10.8,27.7v0
		c-4.3,9.4-17.9,21-31.3,28.8c-36.4,21.4-99.9,51.3-187,66.1c0.4,10.9,0.7,21.9,0.7,33.5c0,43.1-4.3,74.1-12.4,95.7
		c-29.5,119-113.1,239.3-220.8,285.7c3.2-36.5,1.8-66.9-3.6-94.7c-49.9,28.8-104.1,47.2-157.6,49.4h0c16-32.7,25.5-61.5,30.5-89.2
		c-56.8,8.9-113.8,6.6-164.3-10.5c26.2-24.4,45.2-47.5,59.7-71.2c-56.3-12-108.8-34.6-149.9-68.7c34.2-13.8,60.8-29,83.2-46.5
		C151.5,623,110.3,583,84,536.2c35.9-0.6,65.5-5.1,92.1-13c-33.8-46.6-57.8-98.7-65.6-151.6c34.5,12.6,64.3,19.1,92.6,21.1
		c-14.9-55.6-18.6-112.7-6.9-164.9c27.1,23.6,52.1,40.1,77.2,52c6.1-57.3,23-112,52.7-156.5c17.2,32.4,35,57.2,54.6,77.5
		C407,149.4,442.5,104.3,486.2,73.4L486.2,73.4z M722.9,248.2c-21.4,49.3-14.9,101-5,167.5c10.5-1.4,17.8-11.1,16.3-21.5
		c-1-7.6-6.5-13.8-13.8-15.8c16.5-3.5,32.8,7,36.3,23.5c3.5,16.5-7,32.8-23.5,36.3c-4,0.9-8,0.9-12,0.2
		c5.1,34.7,10.3,73.1,12.7,117.4c9.8-1.7,19.5-3.6,29.1-5.8c59.2-13.3,109.6-34,150.9-58.2c4-2.4,7.9-5,11.4-7.8
		c3.3-5,3-8.6,0.3-11.5c-43.2-11.1-97.4-40.5-136.4-78.6C746.6,352.2,722.8,302.9,722.9,248.2L722.9,248.2z"/>
</g>
</svg>
