<?xml version="1.0" encoding="utf-8"?>
<!-- Generator: Adobe Illustrator 24.1.1, SVG Export Plug-In . SVG Version: 6.00 Build 0)  -->
<svg version="1.1" id="Capa_1" xmlns="http://www.w3.org/2000/svg" xmlns:xlink="http://www.w3.org/1999/xlink" x="0px" y="0px"
	 viewBox="0 0 1080 1080" style="enable-background:new 0 0 1080 1080;" xml:space="preserve">
<style type="text/css">
	.st0{fill:#FFCA28;}
	.st1{fill:#37474F;}
</style>
<g transform="translate(10.508 10.205)">
	<circle class="st0" cx="529.5" cy="529.8" r="535"/>
	<path class="st1" d="M486.2,73.4c-43.7,31-79.2,76.1-105.4,127.5c-19.7-20.4-37.4-45.2-54.6-77.5c-29.7,44.5-46.6,99.2-52.7,156.5
		c-25.1-11.9-50.1-28.4-77.2-52c-11.7,52.1-8,109.2,6.9,164.9c-28.3-2-58.1-8.5-92.6-21.1c7.7,52.9,31.7,105,65.6,151.6
		c-26.6,7.9-56.2,12.4-92.1,13c26.3,46.8,67.5,86.9,116,118.3c-22.4,17.5-49,32.7-83.2,46.5c41.1,34.1,93.7,56.7,149.9,68.7
		c-14.5,23.7-33.5,46.7-59.7,71.2c50.5,17.1,107.6,19.4,164.3,10.5c-5,27.7-14.5,56.5-30.5,89.2h0c53.4-2.2,107.7-20.6,157.6-49.4
		c5.4,27.8,6.8,58.2,3.6,94.7c107.7-46.4,191.3-166.7,220.8-285.7c8-21.5,12.4-52.6,12.4-95.7c0-11.6-0.3-22.6-0.7-33.5
		c87.1-14.8,150.6-44.7,187-66.1c13.4-7.8,26.9-19.3,31.3-28.8c0,0,0,0,0,0c16.4-19.3,13.9-48.3-5.4-64.6
		c-7.8-6.6-17.5-10.4-27.7-10.8c-21.7-0.9-41.1,13.7-46.4,34.8c-70.8-36.9-151.8-111.6-132.2-219.5c14.7-20.6,35.3-41.2,63.7-62.7
		c-53.2-6.2-109.8,3.5-163.7,24.2c-0.9-28,2.5-58.1,11.3-93.3C601,97.3,552,126.4,509.3,164.8C498.3,138.8,490.7,109.5,486.2,73.4
		L486.2,73.4z M722.9,248.2c-0.1,54.7,23.7,104,66.3,145.6c39,38.1,93.2,67.5,136.4,78.6c2.7,2.9,3,6.5-0.3,11.5
		c-3.5,2.7-7.4,5.4-11.4,7.8c-41.2,24.2-91.7,44.9-150.9,58.2c-9.6,2.2-19.3,4.1-29.1,5.8c-2.4-44.2-7.6-82.7-12.7-117.4
		c16.6,3.1,32.6-7.9,35.7-24.4c3.1-16.6-7.9-32.6-24.4-35.7c-4-0.7-8.1-0.7-12,0.2c10.2,2.8,16.1,13.3,13.3,23.5
		c-2,7.4-8.3,12.8-15.8,13.8C708,349.3,701.5,297.5,722.9,248.2L722.9,248.2z"/>
</g>
</svg>
