<?xml version="1.0" encoding="utf-8"?>
<!-- Generator: Adobe Illustrator 24.1.1, SVG Export Plug-In . SVG Version: 6.00 Build 0)  -->
<svg version="1.1" id="Capa_1" xmlns="http://www.w3.org/2000/svg" xmlns:xlink="http://www.w3.org/1999/xlink" x="0px" y="0px"
	 viewBox="0 0 1080 1080" style="enable-background:new 0 0 1080 1080;" xml:space="preserve">
<style type="text/css">
	.st0{fill:#0277BD;}
</style>
<g transform="matrix(.081367 0 0 .081367 1.595 2.9394)">
	<path class="st0" d="M3765.8,873.3h-954.4v2700.6L3975.3,4738H2578.8L1054.3,3213.1V873.4H41.8v2770.4l2071.4,2072.1h2792.9
		l1000.8,1001H3230.4L5488.1,9045l-3305,3282.6h1303.5l3304.9-3329.1L5534.5,7741.3h6680.1v419.1L9328.6,9883.1L6908,12327.6h1373.1
		l1652.4-1676.2l3258.5-1955.6V6716.9h-3072.2L9072.5,5669.3l1187-1187.3v-2654h-989.3v2211.8l-965.8,954.5L7443.3,4092V1827.8h-931
		v2700.7l2176.8,2188.3H7360.9L3766,3154.8V873.3"/>
	<path class="st0" d="M8816.2,8346.3H7512.9l628.4,675.1L8816.2,8346.3"/>
</g>
</svg>
