<?xml version="1.0" encoding="utf-8"?>
<!-- Generator: Adobe Illustrator 24.1.1, SVG Export Plug-In . SVG Version: 6.00 Build 0)  -->
<svg version="1.1" id="Capa_1" xmlns="http://www.w3.org/2000/svg" xmlns:xlink="http://www.w3.org/1999/xlink" x="0px" y="0px"
	 viewBox="0 0 1080 1080" style="enable-background:new 0 0 1080 1080;" xml:space="preserve">
<style type="text/css">
	.st0{fill:#26A69A;}
</style>
<path class="st0" d="M5,5v1070h1070V5L5,5z M843.2,531.6c25.3,0,50.3,2.8,74.9,8.6c24.8,5.6,46.3,12.7,64.3,21.2v102.4h-10.7
	c-15.5-14.3-34.5-26.3-57-35.8c-22.4-9.8-45.3-14.7-68.7-14.7c-8.3,0-16.4,0.7-24.7,2.1c-8.1,1.2-15.9,3.6-23.5,7.2
	c-6.7,3-12.5,7.5-17.3,13.7c-4.8,6-7.3,12.9-7.3,20.7c0,11.7,3.9,20.7,11.6,27.1c7.7,6.2,22.3,11.9,43.9,17.1
	c14.1,3.4,27.7,6.6,40.6,9.8c13.1,3.2,27,7.6,42,13.2c29.4,11.1,51.1,26.4,65.1,45.7c14.1,19.1,21.2,43.9,21.2,74.6
	c0,43.8-16.1,79.4-48.3,106.9c-32,27.3-75.5,40.9-130.6,40.9c-31.8,0-59.6-3.2-83.4-9.6c-23.6-6.6-45.7-14.8-66.4-24.7V851.2h10.9
	c20.5,18.9,43.4,33.5,68.7,43.6c25.5,10.2,49.8,15.2,73.2,15.2c6,0,14-0.7,23.8-1.9c9.8-1.2,17.7-3.2,23.9-6
	c7.6-3.6,13.8-8,18.6-13.4c5-5.4,7.5-13.3,7.5-23.8c0-9.8-3.7-18.2-10.9-25.1c-7.1-7.2-17.5-12.7-31.2-16.4
	c-14.5-4-29.8-7.6-45.9-11c-16-3.6-31.1-8.1-45.2-13.5c-32.4-12.1-55.7-28.5-70-49.2c-14.1-20.9-21.2-46.8-21.2-77.6
	c0-41.4,16.1-75.1,48.1-101.2C751.5,544.7,792.8,531.6,843.2,531.6L843.2,531.6z M309.3,539.6h149.2c31,0,53.6,1.2,67.9,3.6
	c14.5,2.4,28.8,7.6,42.9,15.8c14.6,8.6,25.5,20.1,32.5,34.6c7.2,14.3,10.8,30.8,10.8,49.3c0,21.5-4.9,40.5-14.7,57
	c-9.8,16.3-23.7,29-41.6,38.2v2.4c25.1,5.8,45,17.7,59.6,35.8c14.8,18.1,22.2,42,22.2,71.6c0,21.5-3.7,40.8-11.3,57.7
	c-7.4,16.9-17.6,30.9-30.7,42c-15.1,13.1-31.9,22.5-50.2,28.1c-18.1,5.6-41,8.4-68.9,8.4H309.3L309.3,539.6z M407.9,621.1v94h15.6
	c15.7,0,28.9-0.4,39.9-1c11-0.6,19.8-2.6,26.1-6c9-4.6,14.8-10.4,17.5-17.5c2.8-7.4,4.1-15.8,4.1-25.4c0-7.4-1.6-14.7-4.9-22.1
	c-3.1-7.4-8.7-12.9-16.8-16.4c-7.2-3.2-16.3-4.9-27.1-5.1c-10.7-0.4-25.7-0.5-45.2-0.5L407.9,621.1z M407.9,791.9v110.7h7.3
	c27.9,0,47.8-0.1,59.9-0.3c12-0.2,23.2-2.8,33.3-7.7c10.3-5,17.4-11.5,21.2-19.7c4-8.4,5.9-17.9,5.9-28.6c0-14.1-2.4-25-7.2-32.5
	c-4.6-7.8-12.7-13.5-24.1-17.3c-7.7-2.6-18.4-4-32-4.2c-13.6-0.2-27.8-0.2-42.6-0.2L407.9,791.9z"/>
</svg>
