<?xml version="1.0" encoding="utf-8"?>
<!-- Generator: Adobe Illustrator 24.1.1, SVG Export Plug-In . SVG Version: 6.00 Build 0)  -->
<svg version="1.1" id="Capa_1" xmlns="http://www.w3.org/2000/svg" xmlns:xlink="http://www.w3.org/1999/xlink" x="0px" y="0px"
	 viewBox="0 0 1080 1080" style="enable-background:new 0 0 1080 1080;" xml:space="preserve">
<style type="text/css">
	.st0{fill:#004482;}
	.st1{fill:#FFFFFF;}
</style>
<path class="st0" d="M118.4,230.8L483,20.3c35.3-20.4,78.7-20.4,114,0l364.6,210.5c35.3,20.4,57,58,57,98.7l0,421
	c0,40.7-21.7,78.3-57,98.7L597,1059.7c-35.3,20.4-78.7,20.4-114,0L118.4,849.2c-35.3-20.4-57-58-57-98.7l0-421
	C61.4,288.8,83.1,251.1,118.4,230.8z"/>
<path class="st1" d="M562.1,869.6C379.9,869.6,232.2,722,232.2,540s147.7-329.6,329.9-329.6c118.2,0,226.5,64,285.6,162.4L705,456.4
	c-29.5-49.2-83.7-83.6-142.8-83.6c-88.7,0-162.5,73.8-162.5,162.4s73.9,162.4,162.5,162.4c59,0,113.2-29.5,142.8-83.6l142.8,83.6
	C788.6,805.7,680.2,869.6,562.1,869.6z"/>
</svg>
