<?xml version="1.0" encoding="utf-8"?>
<!-- Generator: Adobe Illustrator 24.1.1, SVG Export Plug-In . SVG Version: 6.00 Build 0)  -->
<svg version="1.1" id="Capa_1" xmlns="http://www.w3.org/2000/svg" xmlns:xlink="http://www.w3.org/1999/xlink" x="0px" y="0px"
	 viewBox="0 0 1080 1080" style="enable-background:new 0 0 1080 1080;" xml:space="preserve">
<style type="text/css">
	.st0{fill-rule:evenodd;clip-rule:evenodd;fill:#2D9BBD;}
	.st1{fill-rule:evenodd;clip-rule:evenodd;fill:#4A4BCD;}
	.st2{fill-rule:evenodd;clip-rule:evenodd;fill:#2E5BC1;}
</style>
<g transform="translate(0 -822.52)">
	<path class="st0" d="M634.4,828.6l-349.6,64.5c-28.8,5.3-37.8,28.5-20.2,51.8l341.7,452.9c17.6,23.3,55.2,38,83.9,32.7l349.6-64.5
		c28.8-5.3,37.8-28.5,20.2-51.8L718.3,861.3C700.7,837.9,663.1,823.3,634.4,828.6z"/>
	<path class="st1" d="M1032.7,1406.2l-368.6,63.9c-25,4.3-59.3,26.9-76.6,50.5L336.6,1862c-17.3,23.6-11.1,39.1,14,34.8l368.6-63.9
		c25-4.3,59.3-26.9,76.6-50.5l250.8-341.4C1063.9,1417.5,1057.7,1401.9,1032.7,1406.2z"/>
	<path class="st2" d="M121.8,1331.2C116,1346.3,8.7,1431.1,11,1448.4c2.4,17.3,128.2,68.9,137.8,81.8
		c9.6,12.9,45.4,179.1,58.5,182.7s81-134.4,92.7-141.5c11.7-7.1,141.1,10.8,146.9-4.3c5.8-15.1-78.2-151.9-80.5-169.3
		c-2.4-17.3,41.9-172.4,32.3-185.4c-9.6-12.9-129.3,40.5-142.5,36.9c-13.2-3.6-115.3-117.3-127-110.2
		C117.6,1146.2,127.5,1316.1,121.8,1331.2L121.8,1331.2z"/>
</g>
</svg>
