<?xml version="1.0" encoding="utf-8"?>
<!-- Generator: Adobe Illustrator 26.0.0, SVG Export Plug-In . SVG Version: 6.00 Build 0)  -->
<svg version="1.1" id="Capa_1" xmlns="http://www.w3.org/2000/svg" xmlns:xlink="http://www.w3.org/1999/xlink" x="0px" y="0px"
	 viewBox="0 0 1080 1080" style="enable-background:new 0 0 1080 1080;" xml:space="preserve">
<style type="text/css">
	.st0{fill-rule:evenodd;clip-rule:evenodd;fill:#4FC3F7;}
</style>
<g>
	<path class="st0" d="M1075,660L1075,660c0-295.5-239.5-535-535-535C244.5,125.1,5,364.6,5,660c-0.1,92.4,23.8,183.3,69.4,263.6
		v-33.5c0-66.8,50.3-122.8,116.6-130.1V586.1c0-206.7,129.4-316.7,343.8-313.9c104.3,1.4,188,26.6,247,76.8
		c63,53.8,95.7,134.5,95.7,240.4l-0.3,171.7c63,10.7,109.1,65.2,109.1,129.1v64.7C1044.3,867.5,1075.2,764.9,1075,660z"/>
	<path class="st0" d="M717.7,588.7c-1.3-15-4.1-29.8-8.3-44.2c-8.8-29.1-24-52.4-47.5-69.6c-28.9-21.1-70.1-32.7-126-32.7
		c-56.4,0-98.3,11.7-127.8,32.9c-24.1,17.4-39.7,40.9-48.6,70c-4.6,15.5-7.5,31.5-8.5,47.7c-0.9,13.3-1.1,26.7-0.6,40
		c0,0.3,0.1,3.5,0.1,4.4c0,1.6,0.1,2.9,0.1,4.1l0,0.3v117.6l369.6,0v-118c-0.2-3.5-0.3-7.2-0.5-13.9
		C719.2,607.9,718.9,600.3,717.7,588.7z"/>
</g>
</svg>
