<?xml version="1.0" encoding="utf-8"?>
<!-- Generator: Adobe Illustrator 26.0.0, SVG Export Plug-In . SVG Version: 6.00 Build 0)  -->
<svg version="1.1" id="Capa_1" xmlns="http://www.w3.org/2000/svg" xmlns:xlink="http://www.w3.org/1999/xlink" x="0px" y="0px"
	 viewBox="0 0 1080 1080" style="enable-background:new 0 0 1080 1080;" xml:space="preserve">
<style type="text/css">
	.st0{fill:#00E676;}
</style>
<g>
	<path class="st0" d="M445.5,729c0,51.7-42.8,94.5-94.5,94.5s-94.5-42.8-94.5-94.5c0-51.7,42.8-94.5,94.5-94.5h94.5V383.1H351
		C160.1,383.1,5,538.2,5,729s155.1,346,346,346s346-155.1,346-346v-94.5H445.5V729z"/>
	<path class="st0" d="M791.5,256.4H1075V5H791.5c-190.8,0-346,155.1-346,346v32.1h251.4v251.4h251.4V383H696.9V351
		C696.9,299.2,739.7,256.4,791.5,256.4z"/>
</g>
</svg>
