<?xml version="1.0" encoding="utf-8"?>
<!-- Generator: Adobe Illustrator 24.1.1, SVG Export Plug-In . SVG Version: 6.00 Build 0)  -->
<svg version="1.1" id="Capa_1" xmlns="http://www.w3.org/2000/svg" xmlns:xlink="http://www.w3.org/1999/xlink" x="0px" y="0px"
	 viewBox="0 0 1080 1080" style="enable-background:new 0 0 1080 1080;" xml:space="preserve">
<style type="text/css">
	.st0{fill:#FF7043;}
</style>
<path class="st0" d="M540,296.8c54,0,97.3-43.8,97.3-97.3c0-18.5-4.9-35.5-14.1-50.1L540,5l-83.2,144.4
	c-9.2,14.6-14.1,31.6-14.1,50.1C442.7,253.3,486.3,296.8,540,296.8 M763.9,783.2l-52.1-52.5l-52.6,52.5c-63.3,62.7-174.2,63.2-238,0
	l-51.6-52.5l-53.5,52.5c-31.6,31.1-74,48.6-118.7,48.6c-35.5,0-68.1-11.2-95.4-29.7v224.2c0,26.9,21.8,48.6,48.7,48.6c0,0,0,0,0,0
	h778.6c26.9,0,48.7-21.8,48.7-48.6c0,0,0,0,0,0V802.1c-27.3,18.5-59.9,29.7-95.4,29.7C837.8,831.8,795.5,814.3,763.9,783.2
	 M832,442.7H588.7v-97.3h-97.3v97.3H248c-80.6,0-146,65.3-146,145.9v74.9c0,52.5,42.8,95.3,95.4,95.3c26.3,0,50.6-9.7,67.2-27.7
	l105.1-103.6l102.7,103.6c36,36,98.8,36,134.8,0l103.2-103.6L815,731.1c17,18,41.4,27.7,67.2,27.7c52.6,0,95.9-42.8,95.9-95.3v-74.9
	C978,508.1,912.6,442.7,832,442.7C832,442.7,832,442.7,832,442.7z"/>
</svg>
