<?xml version="1.0" encoding="utf-8"?>
<!-- Generator: Adobe Illustrator 26.0.0, SVG Export Plug-In . SVG Version: 6.00 Build 0)  -->
<svg version="1.1" id="Capa_1" xmlns="http://www.w3.org/2000/svg" xmlns:xlink="http://www.w3.org/1999/xlink" x="0px" y="0px"
	 viewBox="0 0 1080 1080" style="enable-background:new 0 0 1080 1080;" xml:space="preserve">
<style type="text/css">
	.st0{fill:#FF5722;}
</style>
<path class="st0" d="M112,31.8c-59.4,0-107,47.6-107,107v535c0,59.1,47.9,107,107,107h428v267.5l160.5-160.5L861,1048.2V780.8h107
	c59.1,0,107-47.9,107-107v-535c0-59.1-47.9-107-107-107H112 M540,138.8l160.5,107l160.5-107V326l160.5,80.2L861,486.5v187.2
	l-160.5-107L540,673.8V486.5l-160.5-80.2L540,326V138.8 M112,138.8h267.5v107H112V138.8 M112,352.8h160.5v107H112V352.8 M112,566.8
	h267.5v107H112V566.8z"/>
</svg>
