<?xml version="1.0" encoding="utf-8"?>
<!-- Generator: Adobe Illustrator 24.1.1, SVG Export Plug-In . SVG Version: 6.00 Build 0)  -->
<svg version="1.1" id="Capa_1" xmlns="http://www.w3.org/2000/svg" xmlns:xlink="http://www.w3.org/1999/xlink" x="0px" y="0px"
	 viewBox="0 0 1080 1080" style="enable-background:new 0 0 1080 1080;" xml:space="preserve">
<style type="text/css">
	.st0{fill:#8BC34A;}
</style>
<path class="st0" d="M486.5,299.2v273.4l252,149.3l42.3-68.5l-214-126.8V299.3 M566.8,31.8c-188.9,0-352.6,102.7-440.3,255.2
	L5,165.5v347.8h347.7L205.6,366.1c64.7-134.8,200.6-227.4,361.1-227.4C788.4,138.8,968,318.4,968,540S788.4,941.3,566.8,941.3
	c-174.9,0-322.6-111.8-377.7-267.5H76.7c58.8,215.6,255.2,374.5,490.1,374.5c280.3,0,508.3-227.4,508.3-508.3
	C1075,259.3,847.4,31.7,566.8,31.8z"/>
</svg>
