<?xml version="1.0" encoding="utf-8"?>
<!-- Generator: Adobe Illustrator 24.1.1, SVG Export Plug-In . SVG Version: 6.00 Build 0)  -->
<svg version="1.1" id="Capa_1" xmlns="http://www.w3.org/2000/svg" xmlns:xlink="http://www.w3.org/1999/xlink" x="0px" y="0px"
	 viewBox="0 0 1080 1080" style="enable-background:new 0 0 1080 1080;" xml:space="preserve">
<style type="text/css">
	.st0{fill:#FAFAFA;}
</style>
<ellipse transform="matrix(1 -1.558862e-03 1.558862e-03 1 -0.8411 0.8424)" class="st0" cx="540" cy="540" rx="127.4" ry="127.4"/>
<path class="st0" d="M532,5C282.8,5,73.3,175.5,13.9,406.3c-0.5,2-0.9,4.2-0.9,6.4c0,14.1,11.4,25.5,25.5,25.5h215.7
	c10.3,0,19.1-6.1,23.1-14.9c0,0,0.3-0.6,0.4-0.9c44.5-96,141.6-162.5,254.3-162.5c154.8,0,280.2,125.5,280.2,280.2
	S686.8,820.2,532,820.2c-112.7,0-209.8-66.6-254.3-162.5c-0.1-0.3-0.4-0.9-0.4-0.9c-4.1-9.1-13.1-14.9-23.1-14.9H38.5
	c-14.1,0-25.5,11.4-25.5,25.5c0,2.2,0.4,4.3,0.9,6.4C73.3,904.5,282.7,1075,532,1075c295.5,0,535-239.5,535-535
	C1067,244.6,827.5,5,532,5L532,5z"/>
</svg>
