<?xml version="1.0" encoding="utf-8"?>
<!-- Generator: Adobe Illustrator 24.1.1, SVG Export Plug-In . SVG Version: 6.00 Build 0)  -->
<svg version="1.1" id="Capa_1" xmlns="http://www.w3.org/2000/svg" xmlns:xlink="http://www.w3.org/1999/xlink" x="0px" y="0px"
	 viewBox="0 0 1080 1080" style="enable-background:new 0 0 1080 1080;" xml:space="preserve">
<style type="text/css">
	.st0{fill:#64DD17;}
	.st1{fill:#7CB342;}
	.st2{fill:#29B6F6;}
	.st3{fill:#1E88E5;}
</style>
<g>
	<path class="st0" d="M517.9,549.6c-5.3,11.5-11.2,24.5-17.3,38.3c-21.5,48.7-45.3,107.9-54,145.8c-3.1,13.5-5.1,30.3-5,48.8
		c0,7.3,0.4,15.1,1,22.9c30.4,11.2,63.2,17.3,97.4,17.4c31.2-0.1,61.1-5.2,89.2-14.5c-6.6-6-12.9-12.4-18.6-19.7
		C572.6,740.1,551.4,669.1,517.9,549.6"/>
	<path class="st0" d="M377.5,308.8C304.9,360,257.4,444.3,257.2,540c0.2,94.2,46.3,177.5,117,228.9
		c17.4-72.3,60.9-138.5,126.1-271.3c-3.9-10.6-8.3-22.3-13.2-34.5c-18.1-45.4-44.2-98-67.5-121.9C407.8,328.7,393.4,318,377.5,308.8
		"/>
	<path class="st1" d="M786.4,864.4c-37.5-4.7-68.4-10.4-95.4-19.9c-45.5,22.6-96.7,35.3-151,35.3c-187.7,0-339.8-152.1-339.9-339.9
		c0-101.9,44.9-193.2,115.9-255.5c-19-4.6-38.8-7.3-59-7.2c-99.7,0.9-205,56.1-248.8,205.2c-4.1,21.7-3.1,38.1-3.1,57.5
		c0,295.5,239.5,535,534.9,535c180.9,0,340.8-89.9,437.5-227.4c-52.4,13-102.7,19.3-145.8,19.4C815.6,867,800.5,866.2,786.4,864.4"
		/>
	<path class="st2" d="M685.9,760.7c3.3,1.6,10.8,4.3,21.2,7.3c70.1-51.5,115.7-134.3,115.8-228h0
		c-0.3-156.2-126.7-282.6-282.9-282.9c-31.1,0.1-60.9,5.2-88.8,14.4c57.4,65.5,85.1,159,111.8,261.4c0,0,0,0.1,0,0.1
		c0.1,0.1,8.5,28.4,23.1,66c14.5,37.5,35.1,84,57.6,117.9C658.6,739.6,674.9,756,685.9,760.7"/>
	<path class="st3" d="M540.1,5C360.9,5,202.4,93.2,105.3,228.5c50.5-31.6,102.1-43.1,147.1-42.6c62.2,0.2,111.1,19.5,134.5,32.7
		c5.7,3.3,11,6.8,16.3,10.4c41.9-18.4,88.1-28.7,136.8-28.7c187.7,0,339.9,152.2,339.9,339.9h0c0,94.6-38.7,180.2-101.1,241.8
		c15.3,1.7,31.7,2.8,48.3,2.7c59.2,0,123.3-13,171.3-53.4c31.3-26.4,57.5-65,72.1-122.9c2.8-22.4,4.5-45.1,4.5-68.2
		C1075,244.6,835.5,5,540.1,5"/>
</g>
</svg>
