<?xml version="1.0" encoding="utf-8"?>
<!-- Generator: Adobe Illustrator 24.1.1, SVG Export Plug-In . SVG Version: 6.00 Build 0)  -->
<svg version="1.1" id="Capa_1" xmlns="http://www.w3.org/2000/svg" xmlns:xlink="http://www.w3.org/1999/xlink" x="0px" y="0px"
	 viewBox="0 0 1080 1080" style="enable-background:new 0 0 1080 1080;" xml:space="preserve">
<style type="text/css">
	.st0{fill:#0288D1;}
	.st1{fill:#78909C;}
	.st2{fill:url(#SVGID_1_);fill-opacity:0;}
</style>
<g transform="matrix(.93657 0 0 .93657 138.41 42.279)">
	<g transform="matrix(1.0073 0 0 1.0073 -2.0292 -2.7749)">
		<path class="st0" d="M548.5,422.4c34.3-27.9,55.5-67.4,55.1-111.2c-0.7-83.4-79.5-150.5-176-150.5s-175.2,67.2-176,150.5
			c-0.4,43.8,20.8,83.3,55.1,111.2c42.4,34.5,77.1,104.3,79.2,180.5c2.3,84.6-3.5,182.5-7.1,232.3c-45.3,6.4-77.2,21.6-77.2,39.2
			c0,23.5,56.4,50.6,125.9,50.6s125.9-27.1,125.9-50.6c0-17.6-31.8-32.8-77.2-39.2c-3.6-49.8-9.3-147.7-7.1-232.3
			C471.4,526.7,506.1,456.9,548.5,422.4L548.5,422.4z"/>
		<path class="st1" d="M761.7,914.5c6.7-2.7,13.7-4.8,20.9-6.1c7.9-1.7,16-2.7,24.1-2.9c0,0-0.4-2.7-0.9-6.8
			c-0.2-4-2.1-9.3-3.9-14.5c-0.9-2.6-1.8-5.2-2.7-7.5c-1.1-2.4-2.4-4.6-3.4-6.5l-3.4-6.1c-8.4-1.4-16.7-3.3-24.9-5.6
			c-7.6-2.1-15.1-4.7-22.5-7.7c-12.7-5.6-24.7-11.9-31-18.9c-7.6-6.7-9-13.3-8.8-19.3c0.5-3.2,1.9-6.1,4.1-8.5c2.5-3,5.5-5.4,9-7
			c0,0-3.1-1.7-7.5-4.2c-2.3-1.2-4.8-2.7-7.7-4.2c-2.9-1.5-6.3-3-9.5-4.5c-6.3-3-12.6-6-17.9-8l-8.4-3.4c-6.5,0.8-13,1.3-19.5,1.4
			c-7,0.1-14.1,0-21.1-0.6c-13.7-1.2-27.6-3.1-39.6-6.6c-5.5-1.4-10.9-3.3-16.1-5.6c-4.2-1.7-8.2-3.9-12.1-6.4
			c-6.3-4.6-10.6-9.3-10.6-14l-9.5-1.5c-5.9-0.9-18.6-2.6-26.6-3.7c-0.1,1.4-1,2.6-1.4,4.9l-2,9.8c-4.2,19.6,7.2,39.6,26.5,45.1
			c47.3,13.8,83,36.4,93.3,64.2c20.9,56.2-66.7,111.2-199.9,111.2s-220.7-55.1-200-111.3c10.1-27.1,44.4-49.3,89.9-63.2
			c20.2-6.3,32.2-26.8,27.8-47.5l-2.8-13.3c-5.3,0.6-11.5,1.4-17.8,2.2c-7.9,0.9-15.5,2.3-21.2,3.2c-5.8,0.9-9.7,1.6-9.7,1.6
			c0.4,4.6-2.9,9.7-9.1,14.1c-3.6,2.5-7.3,4.8-11.3,6.7c-5.1,2.3-10.3,4.2-15.6,5.8c-6.2,1.9-12.6,3.3-19,4.4
			c-6.8,1.3-13.6,2.2-20.5,2.7c-14.1,1.1-28.3,1.4-41.2-0.2l-2.3,0.9c-1.4,0.6-3.7,1.5-6,2.6c-4.7,2.2-11.1,5.3-17.5,8.4
			c-6.4,3.1-12,6.6-16.5,9.1l-5.4,3.1c-1.2,0.8-1.9,1.3-1.9,1.3c8.9,4.1,13.9,9.7,14.8,15.6c2.2,6.3-0.8,12.8-6.6,19.9
			c-3.8,3.8-8,7.3-12.5,10.3c-5.7,3.7-11.7,6.9-17.9,9.5c-15.1,6.9-31,11.8-47.3,14.6c-1.1,2-2.1,4.1-2.7,6.3c-1.4,3.8-3.2,9-5,14.3
			c-0.8,5.3-1.5,10.6-2.1,14.8c-0.5,2.3-0.6,4.6-0.4,6.9c18.4,0.2,34.8,3.3,47,8.2c14.2,4.7,22.9,11.8,29.5,20.3
			c5.3,9.3,7.3,19,2.7,30.2c-3.3,10.9-12.2,23.1-26.8,34.2l2.2,1.9c1.6,1.2,3.9,2.8,6.8,4.8c5.8,4,13.1,9.6,21.6,14.7
			c9,5,18.2,10,25.2,13.8c3.4,1.9,6.9,3.2,9.1,4.2c2.2,1,3.6,1.6,3.6,1.6c20.6-8.8,42.6-13.3,64.7-15.6c10.7-1.2,21.5-1.4,32.2-0.8
			c10.5,0.5,21.3,1.4,31.3,3.7c10,2.6,19.7,5.1,28.2,8.9c8.2,3.8,16.1,8.3,23.6,13.4c14.5,9.9,25.7,23.9,30.5,38.6l18.7,0.7
			c11.3,0.3,26.3,1.4,41.3,0.5c14.9-0.5,30-0.7,41.1-1.5c11-1.1,18.3-1.7,18.3-1.7c1.7-7.8,4.9-15.1,9.6-21.5c2.3-3.3,5-6.3,7.8-9.1
			c8.8-9.6,19.5-17.2,31.4-22.3c8.6-4.2,17.7-7.5,27-9.7c10.3-2,20-4.1,30.5-4.8c10.5-0.7,21.6-0.3,32.1,0.1
			c22.4,1.4,44.4,6.1,65.5,13.9l11.4-6.3c6.5-3.9,15.9-8.5,23.1-14.2c7.3-5.4,15.1-10.6,19.7-14.9c4.7-4.3,7.5-7.1,7.5-7.1
			c-15.3-10.5-24.1-21.9-29.7-33c-2.3-4.8-3.5-10.1-3.5-15.5c-0.5-5,0.8-10,3.5-14.1C739.8,926.3,750,919.7,761.7,914.5"/>
		<path class="st1" d="M311.5,638.2c0,0,19.8-74.9-66.1-171.6l-2.8-3c-36.2-42.9-56.1-97.2-56.1-153.3
			c0-131.3,107-238.2,238.5-238.2h5.5c131.5,0,238.5,106.8,238.5,238.2c-0.1,56.1-19.9,110.3-56.1,153.2c-0.4,0.5-1.4,1.5-2.9,3
			c-76.3,76.4-66.2,171.6-66.2,171.6c139.3-48,233.4-179,234.2-325.8C779,128.7,630.7-27.8,447.5-36.6c-2.3-0.1-4.5-0.1-6.8-0.1
			c-2.7,0-13.1,0.2-13,0.2c-0.3,0-10.2-0.2-13-0.2c-2.3,0-4.5,0-6.8,0.1c-183.3,8.8-331.6,165.3-330.6,349
			C78.1,459.3,172.2,590.2,311.5,638.2L311.5,638.2z"/>
		
			<linearGradient id="SVGID_1_" gradientUnits="userSpaceOnUse" x1="608.4385" y1="1002.5487" x2="436.6673" y2="-199.8791" gradientTransform="matrix(0.9434 0 0 -0.9434 -84.1605 924.3499)">
			<stop  offset="0" style="stop-color:#3B5CAD;stop-opacity:0"/>
			<stop  offset="0.13" style="stop-color:#3B5CAD;stop-opacity:0"/>
			<stop  offset="1" style="stop-color:#3B5CAD"/>
		</linearGradient>
		<path class="st2" d="M548.5,422.4c34.3-27.9,55.5-67.4,55.1-111.2c-0.7-83.4-79.5-150.5-176-150.5s-175.2,67.2-176,150.5
			c-0.4,43.8,20.8,83.3,55.1,111.2c42.4,34.5,77.1,104.3,79.2,180.5c2.3,84.6-3.5,182.5-7.1,232.3c-45.3,6.4-77.2,21.6-77.2,39.2
			c0,23.5,56.4,50.6,125.9,50.6s125.9-27.1,125.9-50.6c0-17.6-31.8-32.8-77.2-39.2c-3.6-49.8-9.3-147.7-7.1-232.3
			C471.4,526.7,506.1,456.9,548.5,422.4L548.5,422.4z"/>
	</g>
</g>
</svg>
