<?xml version="1.0" encoding="utf-8"?>
<!-- Generator: Adobe Illustrator 26.0.0, SVG Export Plug-In . SVG Version: 6.00 Build 0)  -->
<svg version="1.1" id="Capa_1" xmlns="http://www.w3.org/2000/svg" xmlns:xlink="http://www.w3.org/1999/xlink" x="0px" y="0px"
	 viewBox="0 0 1080 1080" style="enable-background:new 0 0 1080 1080;" xml:space="preserve">
<style type="text/css">
	.st0{fill:#90A4AE;}
	.st1{fill:#F8BBD0;}
	.st2{fill:#263238;}
</style>
<path class="st0" d="M1075,376.8c0-138.6-93.1-194.2-208.1-194.2c-48.1,0-97.9,10.7-139.1,30.5c-53.5-36.9-116.1-58.3-187.8-58.3
	s-134.3,21.9-187.8,58.3c-41.7-20.3-91-30.5-139.1-30.5C98.1,182.6,5,237.7,5,376.8c0,114.5,63.1,190.5,149.8,214
	c-1.1,16.1-2.1,32.1-2.1,47.6c0,170.1,134.3,227.9,255.2,247.7c32.6,24.1,79.7,39.1,132.1,39.1s99.5-15,132.1-39.1
	c120.9-19.3,255.2-77,255.2-247.7c0-16.1-0.5-32.1-2.1-47.6C1011.9,567.3,1075,490.8,1075,376.8"/>
<path class="st1" d="M289.1,267.1c-9.6-1.1-18.7-1.6-28.4-1.6c-92,0-166.4,44.4-166.4,155.2c0,64.2,25.1,113.4,63.7,143.4
	C171.9,451.2,217.4,343.7,289.1,267.1 M819.3,265.5c-9.6,0-18.7,0.5-28.4,1.6c71.7,76.5,117.2,184,131.1,296.9
	c38.5-30,63.7-79.2,63.7-143.4C985.7,310,911.3,265.5,819.3,265.5"/>
<path class="st2" d="M650.7,711.7c0,99.5-51.4,124.7-110.7,124.7s-110.7-25.1-110.7-124.7S480.6,532,540,532
	S650.7,612.8,650.7,711.7 M406.2,526.6c0,36.9-29.9,66.9-66.9,66.9s-66.9-29.9-66.9-66.9c0-36.9,29.9-66.9,66.9-66.9
	S406.2,489.7,406.2,526.6 M807.5,526.6c0,36.9-29.9,66.9-66.9,66.9c-36.9,0-66.9-29.9-66.9-66.9c0-36.9,29.9-66.9,66.9-66.9
	C777.6,459.8,807.5,489.7,807.5,526.6"/>
</svg>
