<?xml version="1.0" encoding="utf-8"?>
<!-- Generator: Adobe Illustrator 24.1.1, SVG Export Plug-In . SVG Version: 6.00 Build 0)  -->
<svg version="1.1" id="Capa_1" xmlns="http://www.w3.org/2000/svg" xmlns:xlink="http://www.w3.org/1999/xlink" x="0px" y="0px"
	 viewBox="0 0 1080 1080" style="enable-background:new 0 0 1080 1080;" xml:space="preserve">
<style type="text/css">
	.st0{fill-rule:evenodd;clip-rule:evenodd;fill:#0288D1;}
</style>
<g transform="matrix(.94546 0 0 .94546 .65453 .65453)">
	<path class="st0" d="M652.4,10.6c-54.3-8-109.6-8-163.9,0l-35.9,93.6c-45.2,11.4-88.6,29.4-128.7,53.3l-91.5-40.8
		c-44,32.8-83.1,71.8-115.8,115.8l40.8,91.5c-23.9,40.1-41.9,83.4-53.3,128.7l-93.6,35.9c-8,54.3-8,109.6,0,163.9l93.6,35.9
		c11.4,45.2,29.4,88.6,53.3,128.7l-40.8,91.5c32.8,44,71.8,83.1,115.8,115.8l91.5-40.8c40.1,23.9,83.4,41.9,128.7,53.3l35.9,93.6
		c54.3,8,109.6,8,163.9,0l35.9-93.6c45.2-11.4,88.6-29.4,128.7-53.3l91.5,40.8c44-32.8,83.1-71.8,115.8-115.8l-40.8-91.5
		c23.9-40.1,41.9-83.4,53.3-128.7l93.6-35.9c8-54.3,8-109.6,0-163.9l-93.6-35.9c-11.4-45.2-29.4-88.6-53.3-128.7l40.8-91.5
		c-32.8-44-71.8-83.1-115.8-115.8l-91.5,40.8c-40.1-23.9-83.4-41.9-128.7-53.3L652.4,10.6z M570.5,207.9
		c200.1,0,362.6,162.5,362.6,362.6S770.6,933.1,570.5,933.1S207.9,770.6,207.9,570.5S370.4,207.9,570.5,207.9z"/>
	<path class="st0" d="M716,715.8c-37.2,37.3-88.7,60.4-145.6,60.4c-113.6,0-205.8-92.2-205.8-205.8s92.2-205.8,205.8-205.8
		c56.8,0,108.3,23.1,145.6,60.4l-72.7,72.7c-18.6-18.7-44.4-30.2-72.8-30.2c-56.8,0-102.9,46.1-102.9,102.9
		c0,56.8,46.1,102.9,102.9,102.9c28.4,0,54.2-11.6,72.8-30.2L716,715.8z"/>
</g>
</svg>
