<?xml version="1.0" encoding="utf-8"?>
<!-- Generator: Adobe Illustrator 24.1.1, SVG Export Plug-In . SVG Version: 6.00 Build 0)  -->
<svg version="1.1" id="Capa_1" xmlns="http://www.w3.org/2000/svg" xmlns:xlink="http://www.w3.org/1999/xlink" x="0px" y="0px"
	 viewBox="0 0 1080 1080" style="enable-background:new 0 0 1080 1080;" xml:space="preserve">
<style type="text/css">
	.st0{fill:#8D6E63;}
</style>
<path class="st0" d="M315.2,31c-16.3,4.4-32.2,9.4-41.9,13.5c-29.9,12.5-55.8,27.9-78.6,46.8c-7.1,5.9-14.1,11.3-15.6,11.9
	c-7.2,3.1-39.8,37.2-57.2,59.7C23.6,290.5-16.7,475.9,16.3,649.3c4.3,22.5,19.2,77.3,26.4,96.8c43.4,118.4,121.3,211.1,223.1,265.3
	c80.2,42.7,175.1,60.2,273.8,50.4c19.8-2,29.7-3.6,61.6-9.4c13.3-2.4,78.5-21.8,94.2-28.1c135.8-53.8,247.9-146.6,316.4-262.2
	c28.8-48.6,45.2-94.7,58.4-163.6c21-109.2-28.5-242-132-353.7C788.2,82.7,552.8-8.4,360.2,20.9C348.4,22.7,331.5,26.6,315.2,31
	L315.2,31z M339.1,116.6c15.9-4.3,32.7-7.9,46.2-9.5c37-4.4,74-3.9,113.2,1.3c177.8,23.9,358.2,141.3,443.2,288.3
	c28.3,48.9,44.8,101.6,45.6,146.4c0.7,36-7.3,67-24.5,95.3c-8.8,14.5-17.3,24.6-31.1,36.8c-34.8,30.6-82.6,49.8-142.1,57.1
	c-31.1,3.8-52.2,11.7-69.8,26.1c-3.9,3.2-36.5,33.4-72.6,67.1c-70.9,66.2-70.3,65.7-80.6,62.6c-2.7-0.8-6.6-3-8.6-4.9
	c-7.4-7-7.1-9.2,4.5-69.5c6-30.9,10.7-59.8,10.7-64.3c-0.2-15.4-6.4-31.1-16.9-42.6c-6.4-7.1-17-13.8-31-19.8
	c-134-57.2-246.6-157.6-300.7-268.1c-11.6-23.7-16.6-37.1-23.4-61.8c-16.4-60.3-12.5-108.6,12.4-152.3
	c18.3-32.1,44.2-54.7,84.5-73.9C308.2,126,323.2,120.9,339.1,116.6L339.1,116.6z"/>
</svg>
