<?xml version="1.0" encoding="utf-8"?>
<!-- Generator: Adobe Illustrator 24.1.1, SVG Export Plug-In . SVG Version: 6.00 Build 0)  -->
<svg version="1.1" id="Capa_1" xmlns="http://www.w3.org/2000/svg" xmlns:xlink="http://www.w3.org/1999/xlink" x="0px" y="0px"
	 viewBox="0 0 1080 1080" style="enable-background:new 0 0 1080 1080;" xml:space="preserve">
<style type="text/css">
	.st0{fill-rule:evenodd;clip-rule:evenodd;fill:#EC407A;}
</style>
<path class="st0" d="M540.3,26C245.3,26.2,5.2,264.8,5,557.8v1.3l91,53.2l1.2-0.8c56.8-38.8,126.6-53.6,194.3-41.3
	c47.9,8.5,92.3,30.6,128,63.7l15.6,14.6l8.8-19.4c8.6-18.7,18.4-36.3,29.4-52.3c4.4-6.4,9.3-12.9,14.8-19.9l9.1-11.5l-11.3-9.4
	c-49.8-41.6-109.5-69.5-173.3-81c-59.7-10.8-121.2-7.2-179.2,10.5C176.8,275.6,343.7,143.2,540.7,143c111.2,0,215.7,43,294.3,121
	c56,55.6,94.6,125,111.8,200.7c-36.1-11.1-73.7-16.8-111.5-16.9l-6.8,0c-14.8,0.2-29.6,1.3-44.2,3.3l-1.9,0.3
	c-6.5,0.9-12.2,1.7-17.4,2.7c-2.5,0.4-5.1,1-7.6,1.5c-6,1.2-11.9,2.5-17.5,4l-6.2,1.6c-7.2,1.9-14.4,4.1-21.5,6.4l-1.3,0.4
	c-15.8,5.4-31.6,12-46.9,19.6l-1.2,0.6c-6.8,3.4-13.6,7.1-20.9,11.4l-1.6,1c-35.9,21.3-67.9,48.7-94.5,81l-3.4,4.1
	c-6.8,8.4-12.1,15.6-16.8,22.4c-3.9,5.8-7.9,12-12.8,20.2l-2.7,4.6c-3.9,6.8-7.4,13.3-10.4,19.3l-0.7,1.3
	c-7.6,15.2-14.1,31.2-19.6,47.4l-0.8,2.4c-12.8,39-19,79.8-18.3,120.9l0.1,5c0.2,5.9,0.5,11.7,0.9,17.6c0.2,2.8,0.5,5.5,0.8,8.3
	c0.3,3.4,0.7,6.8,1.1,10.1l0.2,1.9l0.6,4.6c0.8,5.7,1.7,11.2,2.8,16.9c10.8,56.5,37.7,113,77.8,163.3l1.8,2.3l1.9-2.2
	c16-18.9,55.7-79,59.1-115l0.1-0.7l-0.3-0.6c-18.7-35.7-28.4-75.5-28.5-115.8c0-134.6,105.7-246.3,240.6-254.4l8.9-0.3
	c54.8-1.2,108.4,14.4,154.7,45.7l1.2,0.8l89.8-52.3l1.2-0.7v-1.3c0.1-142-55.5-275.5-156.5-375.9C817.5,81.2,683.3,26,540.3,26"/>
</svg>
