<?xml version="1.0" encoding="utf-8"?>
<!-- Generator: Adobe Illustrator 24.1.1, SVG Export Plug-In . SVG Version: 6.00 Build 0)  -->
<svg version="1.1" id="Capa_1" xmlns="http://www.w3.org/2000/svg" xmlns:xlink="http://www.w3.org/1999/xlink" x="0px" y="0px"
	 viewBox="0 0 1080 1080" style="enable-background:new 0 0 1080 1080;" xml:space="preserve">
<style type="text/css">
	.st0{fill:#0D3858;stroke:#4DD0E1;stroke-width:0.7;}
	.st1{fill:#4DD0E1;}
</style>
<path class="st0" d="M1009.7,5.3H70.8C34.6,5.3,5.3,34.6,5.3,70.8v939c0,36.2,29.3,65.5,65.5,65.5h939c36.2,0,65.5-29.4,65.5-65.5
	v-939C1075.3,34.7,1045.9,5.3,1009.7,5.3z"/>
<g>
	<path class="st1" d="M573.3,699.8c-6.3-3.5-14-3.4-20.2,0.3c-26.7,16.2-59.1,24.5-96.2,24.5c-38.8,0-69.2-12.4-92.8-37.8
		c-23.9-26.1-35.5-60.6-35.5-105.6c0-47.7,12.5-84.3,38.2-112.1c25.6-27.4,58.2-40.7,99.7-40.7c31.7,0,61.1,7.4,87.2,22
		c6.2,3.5,13.8,3.4,19.9-0.2c6.1-3.6,9.9-10.2,9.9-17.2v-51c0-7.9-4.7-15.1-11.9-18.3c-27.9-12.3-63-18.5-104.4-18.5
		c-65.8,0-120.9,22.4-164,66.5c-42.9,44-64.7,102-64.7,172.5c0,65.8,19.5,120,57.8,161.1c38.7,41.5,90.7,62.5,154.3,62.5
		c48.1,0,89.3-8.8,122.2-26.3c6.6-3.5,10.7-10.3,10.7-17.7l0-46.5C583.5,710,579.6,703.3,573.3,699.8z"/>
	<path class="st1" d="M829.1,279.6c-11.9-4.8-26.7-7.2-45.4-7.2c-34.8,0-64.4,12-87.8,35.7c-23.5,23.5-35.4,55.4-35.4,94.8v32.7H625
		c-11,0-20,9-20,20v44.5c0,11,9,20,20,20h35.6v260.7c0,11,9,20,20,20h51.8c11,0,20-9,20-20V520.1h56.2c11,0,20-9,20-20v-44.5
		c0-11-9-20-20-20h-56.2v-30.2c0-48.9,22.5-48.9,34.6-48.9c9.5,0,17.6,2,24.8,6c6.2,3.5,13.8,3.4,19.9-0.2
		c6.1-3.6,9.9-10.2,9.9-17.3v-47C841.5,290,836.6,282.7,829.1,279.6z"/>
</g>
</svg>
