<?xml version="1.0" encoding="utf-8"?>
<!-- Generator: Adobe Illustrator 24.1.1, SVG Export Plug-In . SVG Version: 6.00 Build 0)  -->
<svg version="1.1" id="Capa_1" xmlns="http://www.w3.org/2000/svg" xmlns:xlink="http://www.w3.org/1999/xlink" x="0px" y="0px"
	 viewBox="0 0 1080 1080" style="enable-background:new 0 0 1080 1080;" xml:space="preserve">
<style type="text/css">
	.st0{fill:#009688;}
</style>
<path class="st0" d="M51.5,74.8v279.2h93V74.8L51.5,74.8z M702.8,167.8c-167.5,0-309,110.6-355.9,262.8L237.6,540l109.3,109.3
	c47,152.1,188.5,262.8,355.9,262.8c205.6,0,372.2-166.5,372.2-372.2S908.5,167.9,702.8,167.8L702.8,167.8z M853.6,357.6l68.8,83.5
	L641,722.4L478.1,544.7l68.7-68.7l94.2,94.2L853.6,357.6L853.6,357.6z M98.1,446.9C46.9,446.9,5,488.8,5,540
	c0,51.6,41.9,93.1,93.1,93.1c51.6,0,93-41.4,93-93.1C191.1,488.8,149.7,446.9,98.1,446.9z M51.5,726.1v279.2h93V726.1L51.5,726.1z"
	/>
</svg>
