<?xml version="1.0" encoding="utf-8"?>
<!-- Generator: Adobe Illustrator 24.1.1, SVG Export Plug-In . SVG Version: 6.00 Build 0)  -->
<svg version="1.1" id="Capa_1" xmlns="http://www.w3.org/2000/svg" xmlns:xlink="http://www.w3.org/1999/xlink" x="0px" y="0px"
	 viewBox="0 0 1080 1080" style="enable-background:new 0 0 1080 1080;" xml:space="preserve">
<style type="text/css">
	.st0{fill:#90A4AE;}
</style>
<path class="st0" d="M219,5c118.2,0,214,95.8,214,214l0,0v107h214V219C647,100.8,742.8,5,861,5l0,0c118.2,0,214,95.8,214,214
	c0,0,0,0,0,0c0,118.2-95.8,214-214,214H754v214h107c118.2,0,214,95.8,214,214s-95.8,214-214,214l0,0c-118.2,0-214-95.8-214-214V754
	H433v107c0,118.2-95.8,214-214,214S5,979.2,5,861c0-118.2,95.8-214,214-214l0,0h107V433H219C100.8,433,5,337.2,5,219l0,0
	C5,100.8,100.8,5,219,5L219,5 M754,861c0,59.1,47.9,107,107,107c59.1,0,107-47.9,107-107s-47.9-107-107-107H754V861 M647,433H433
	v214h214V433 M219,754c-59.1,0-107,47.9-107,107c0,59.1,47.9,107,107,107s107-47.9,107-107V754H219 M326,219
	c0-59.1-47.9-107-107-107l0,0c-59.1,0-107,47.9-107,107l0,0c0,59.1,47.9,107,107,107h107V219 M861,326c59.1,0,107-47.9,107-107
	s-47.9-107-107-107c-59.1,0-107,47.9-107,107v107H861z"/>
</svg>
