<?xml version="1.0" encoding="utf-8"?>
<!-- Generator: Adobe Illustrator 24.1.1, SVG Export Plug-In . SVG Version: 6.00 Build 0)  -->
<svg version="1.1" id="Capa_1" xmlns="http://www.w3.org/2000/svg" xmlns:xlink="http://www.w3.org/1999/xlink" x="0px" y="0px"
	 viewBox="0 0 1080 1080" style="enable-background:new 0 0 1080 1080;" xml:space="preserve">
<style type="text/css">
	.st0{fill:#FF7043;}
</style>
<path class="st0" d="M968,914.5v-642H112v642H968 M968,58.5c59.1,0,107,47.9,107,107v749c0,59.1-47.9,107-107,107H112
	c-59.1,0-107-47.9-107-107v-749c0-59.4,48.2-107,107-107H968 M593.5,807.5v-107H861v107H593.5 M410.5,593.5L196,379.5h151.4L524,556
	c20.9,20.9,20.9,55.1,0,76L348.5,807.5H197.1L410.5,593.5z"/>
</svg>
