<?xml version="1.0" encoding="utf-8"?>
<!-- Generator: Adobe Illustrator 24.1.1, SVG Export Plug-In . SVG Version: 6.00 Build 0)  -->
<svg version="1.1" id="Capa_1" xmlns="http://www.w3.org/2000/svg" xmlns:xlink="http://www.w3.org/1999/xlink" x="0px" y="0px"
	 viewBox="0 0 1080 1080" style="enable-background:new 0 0 1080 1080;" xml:space="preserve">
<style type="text/css">
	.st0{fill:#FFCA28;}
</style>
<path class="st0" d="M807.5,433h-535V326h535 M807.5,647h-535V540h535 M647,861H272.5V754H647 M540,112c29.5,0,53.5,24,53.5,53.5
	S569.5,219,540,219c-29.5,0-53.5-24-53.5-53.5S510.5,112,540,112 M914.5,112H690.9C668.4,49.9,609.5,5,540,5S411.6,49.9,389.1,112
	H165.5c-59.1,0-107,47.9-107,107v749c0,59.1,47.9,107,107,107h749c59.1,0,107-47.9,107-107V219C1021.5,159.9,973.6,112,914.5,112z"
	/>
</svg>
