<?xml version="1.0" encoding="utf-8"?>
<!-- Generator: Adobe Illustrator 24.1.1, SVG Export Plug-In . SVG Version: 6.00 Build 0)  -->
<svg version="1.1" id="Capa_1" xmlns="http://www.w3.org/2000/svg" xmlns:xlink="http://www.w3.org/1999/xlink" x="0px" y="0px"
	 viewBox="0 0 1080 1080" style="enable-background:new 0 0 1080 1080;" xml:space="preserve">
<style type="text/css">
	.st0{fill:#004482;}
	.st1{fill:#FFFFFF;}
</style>
<path class="st0" d="M118.4,230.8L483,20.3c35.3-20.4,78.7-20.4,114,0l364.6,210.5c35.3,20.4,57,58,57,98.7l0,421
	c0,40.7-21.7,78.3-57,98.7L597,1059.7c-35.3,20.4-78.7,20.4-114,0L118.4,849.2c-35.3-20.4-57-58-57-98.7l0-421
	C61.4,288.8,83.1,251.1,118.4,230.8z"/>
<polygon class="st1" points="988.6,521.2 955.2,521.2 955.2,487.9 921.9,487.9 921.9,521.2 883.7,521.2 883.7,559.4 921.9,559.4 
	921.9,592.7 955.2,592.7 955.2,559.4 988.6,559.4 "/>
<polygon class="st1" points="859.8,521.2 821.7,521.2 821.7,487.9 788.3,487.9 788.3,521.2 750.1,521.2 750.1,559.4 788.3,559.4 
	788.3,592.7 821.7,592.7 821.7,559.4 859.8,559.4 "/>
<path class="st1" d="M540.3,859.6c-176.5,0-319.6-143-319.6-319.3S363.8,221,540.3,221c114.5,0,219.4,62,276.7,157.3l-138.3,81
	c-28.6-47.7-81.1-81-138.3-81c-85.9,0-157.4,71.5-157.4,157.3s71.6,157.3,157.4,157.3c57.2,0,109.7-28.6,138.3-81l138.3,81
	C759.7,797.7,654.7,859.6,540.3,859.6z"/>
</svg>
