<?xml version="1.0" encoding="utf-8"?>
<!-- Generator: Adobe Illustrator 24.1.1, SVG Export Plug-In . SVG Version: 6.00 Build 0)  -->
<svg version="1.1" id="Capa_1" xmlns="http://www.w3.org/2000/svg" xmlns:xlink="http://www.w3.org/1999/xlink" x="0px" y="0px"
	 viewBox="0 0 1080 1080" style="enable-background:new 0 0 1080 1080;" xml:space="preserve">
<style type="text/css">
	.st0{fill:#CFD8DC;}
</style>
<g transform="translate(3.5034 -2.3208)">
	<path class="st0" d="M1069.9,687.9l-387.3,386.5c-1.5,1.5-3.9,2.3-5.4,1.5l-529-141.8c-2.3-0.8-3.9-2.3-3.9-3.9L1.8,402.1
		c-0.8-2.3,0-3.9,1.5-5.4L390.6,10.2c1.5-1.5,3.9-2.3,5.4-1.5l529,141.8c2.3,0.8,3.9,2.3,3.9,3.9l141.7,528.3
		C1072.2,684.8,1071.4,686.4,1069.9,687.9L1069.9,687.9z M550.9,267.3L31.2,406c-0.8,0-1.5,1.5-0.8,2.3l380.3,379.5
		c0.8,0.8,2.3,0.8,2.3-0.8l139.4-519C553.3,268.1,551.7,266.6,550.9,267.3L550.9,267.3z"/>
</g>
</svg>
