<?xml version="1.0" encoding="utf-8"?>
<!-- Generator: Adobe Illustrator 24.1.1, SVG Export Plug-In . SVG Version: 6.00 Build 0)  -->
<svg version="1.1" id="Capa_1" xmlns="http://www.w3.org/2000/svg" xmlns:xlink="http://www.w3.org/1999/xlink" x="0px" y="0px"
	 viewBox="0 0 1080 1080" style="enable-background:new 0 0 1080 1080;" xml:space="preserve">
<style type="text/css">
	.st0{fill:#6A1577;}
	.st1{fill:#FFFFFF;}
</style>
<path class="st0" d="M118.4,230.8L483,20.3c35.3-20.4,78.7-20.4,114,0l364.6,210.5c35.3,20.4,57,58,57,98.7l0,421
	c0,40.7-21.7,78.3-57,98.7L597,1059.7c-35.3,20.4-78.7,20.4-114,0L118.4,849.2c-35.3-20.4-57-58-57-98.7l0-421
	C61.4,288.8,83.1,251.1,118.4,230.8z"/>
<path id="XMLID_9_" class="st1" d="M678.6,618.8c-28.6,47.6-76.3,80.8-138.3,80.8c-57.2,0-109.7-33.3-138.3-80.8
	c-14.3-23.8-19.1-47.6-19.1-76.1c0-85.6,71.5-156.9,157.4-156.9c57.2,0,109.7,33.3,138.3,80.8l138.3-80.8
	c-57.2-95.1-157.4-156.9-276.7-156.9c-176.5,0-314.8,142.7-314.8,313.9c0,57.1,14.3,109.4,42.9,156.9
	c52.5,95.1,157.4,156.9,276.7,156.9s219.4-61.8,276.7-161.7L678.6,618.8"/>
<path class="st1" d="M945.7,523.7v-33.3h-23.8v-23.8h-33.4v23.8h-33.4v-23.8h-33.4v23.8h-28.6v33.3h28.6v38h-28.6V595h28.6v23.8
	h33.4V595h33.4v23.8h33.4V595h23.8v-33.3h-23.8v-38H945.7z M888.5,561.7h-33.4v-38h33.4V561.7z"/>
</svg>
