<?xml version="1.0" encoding="utf-8"?>
<!-- Generator: Adobe Illustrator 24.1.1, SVG Export Plug-In . SVG Version: 6.00 Build 0)  -->
<svg version="1.1" id="Capa_1" xmlns="http://www.w3.org/2000/svg" xmlns:xlink="http://www.w3.org/1999/xlink" x="0px" y="0px"
	 viewBox="0 0 1080 1080" style="enable-background:new 0 0 1080 1080;" xml:space="preserve">
<style type="text/css">
	.st0{fill:#42A5F5;}
</style>
<g transform="translate(-.23339 -.5)">
	<path class="st0" d="M838.9,287.1v112.6h112.7v563.2H388.1V850.2H275.4v225.3h788.8V287.1H838.9z"/>
	<path class="st0" d="M16.2,5.5l73.2,698.3l321.2,90.1l321.2-90.1L805.1,5.5H16.2z M658.6,146.3l-11.3,84.5l-236.6,84.5l0,0h231
		l-28.2,259.1L410.6,625l-202.8-50.7l-11.3-129.5H298l5.6,67.6l107.1,22.5l112.7-28.2l5.6-107H185.3l0,0l0,0v-84.5l231-84.5h11.3
		H174l-11.3-84.5H658.6z"/>
</g>
</svg>
