<?xml version="1.0" encoding="utf-8"?>
<!-- Generator: Adobe Illustrator 24.1.1, SVG Export Plug-In . SVG Version: 6.00 Build 0)  -->
<svg version="1.1" id="Capa_1" xmlns="http://www.w3.org/2000/svg" xmlns:xlink="http://www.w3.org/1999/xlink" x="0px" y="0px"
	 viewBox="0 0 1080 1080" style="enable-background:new 0 0 1080 1080;" xml:space="preserve">
<style type="text/css">
	.st0{fill-rule:evenodd;clip-rule:evenodd;fill:#4CAF50;}
</style>
<path class="st0" d="M544.9,5C284.1,5,73,216.1,73,477c0,229.6,164.6,420.5,381.9,462.9V1075c282.4-42.6,532.5-266.8,551.2-561.1
	c11.2-177.1-77.1-358-226-445.8c-17.3-10.4-35.4-19.4-54-27l-9-3.6c-8.3-3.1-16.6-6.5-25.2-9C644.4,12.9,594.8,4.9,544.9,5L544.9,5z
	 M642.2,179.7c-17.1-1.9-34,4.9-45,18c-8.6,11.5-14.1,22.7-19.8,34.2c-17.3,40.3-11.5,83.6,14.4,115.3c40.3-8.6,74.6-34.4,91.9-74.8
	c5.8-11.5,9-26.3,9-37.8C694.4,204.1,669.1,182.5,642.2,179.7L642.2,179.7z M432.3,182.5C406,185,381,205.9,381,234.7
	c0,11.5,3.3,26.3,9,37.8c17.3,40.3,54.2,66.1,94.5,74.8c23.1-31.7,29-74.9,11.7-115.3c-5.8-11.5-11.2-22.9-19.8-31.5
	C465.7,187.5,449.1,180.7,432.3,182.5L432.3,182.5z M290.9,321.1c-45.4,2.3-65.7,59.5-27.9,89.2c11.5,8.6,22.7,15,34.2,20.7
	c40.3,17.3,87,11.4,121.6-11.7c-8.6-37.5-38-71.9-78.3-89.2c-14.4-5.8-26.1-9-40.5-9C296.7,320.8,294,321,290.9,321.1L290.9,321.1z
	 M734.9,495.8c-26.5-0.5-52.6,7.1-74.7,21.6c8.6,37.5,38,71.8,78.3,89.1c14.4,5.8,26.1,9,40.5,9c51.9,2.9,77.2-61.2,36.9-90.1
	c-11.5-8.6-22.7-14.1-34.2-19.8C766.9,499.4,751,496.1,734.9,495.8L734.9,495.8z M341.4,498.5c-15.9,0.3-31.7,3.5-46.8,9.9
	c-14.4,5.8-25.6,12.1-34.2,20.7c-37.5,31.7-12.2,92.1,39.6,89.2c14.4,0,29-3.3,40.5-9c40.3-17.3,69-51.7,74.8-89.1
	C393.4,505.6,367.6,498.1,341.4,498.5L341.4,498.5z M487.3,586.8c-40.3,8.6-74.6,34.4-91.9,74.8c-5.8,11.5-9,25.4-9,36.9
	c-2.9,49,64,75.3,92.8,37.8c8.6-11.5,14-22.7,19.8-34.2C516.3,664.6,510.3,621.4,487.3,586.8L487.3,586.8z M594.4,589.5
	c-23.1,31.7-29,74.9-11.7,115.3c5.8,11.5,11.2,22.9,19.8,31.5c31.7,34.6,98.3,9,95.5-34.2c0-11.5-3.3-26.3-9-37.8
	C671.7,623.9,634.8,598.2,594.4,589.5L594.4,589.5z"/>
</svg>
