<?xml version="1.0" encoding="utf-8"?>
<!-- Generator: Adobe Illustrator 24.1.1, SVG Export Plug-In . SVG Version: 6.00 Build 0)  -->
<svg version="1.1" id="Capa_1" xmlns="http://www.w3.org/2000/svg" xmlns:xlink="http://www.w3.org/1999/xlink" x="0px" y="0px"
	 viewBox="0 0 1080 1080" style="enable-background:new 0 0 1080 1080;" xml:space="preserve">
<style type="text/css">
	.st0{fill:#76B900;}
</style>
<path id="Eye_Mark" class="st0" d="M403.9,397.2v-63.8c6.3-0.4,12.6-0.8,18.9-0.8c174.9-5.5,289.5,150.5,289.5,150.5
	S588.6,654.8,455.9,654.8c-17.7,0-35.1-2.8-51.6-8.3V452.7c68.1,8.3,81.9,38.2,122.5,106.4l91-76.4c0,0-66.6-87.1-178.4-87.1
	C427.6,395.2,415.8,396,403.9,397.2 M403.9,186v95.3c6.3-0.4,12.6-0.8,18.9-1.2c243-8.3,401.7,199.4,401.7,199.4
	S642.6,700.9,453.2,700.9c-16.5,0-32.7-1.6-48.8-4.3v59.1c13.4,1.6,27.2,2.8,40.6,2.8c176.4,0,304-90.2,427.7-196.6
	c20.5,16.5,104.4,56.3,121.7,73.7C876.9,734,603.2,813.2,448.1,813.2c-15,0-29.1-0.8-43.3-2.4V894H1075V186L403.9,186z M403.9,646.6
	V697c-163-29.2-208.3-199-208.3-199s78.4-86.7,208.3-100.9v55.2h-0.4c-68.1-8.3-121.7,55.6-121.7,55.6S312.2,615.4,403.9,646.6
	 M114.5,490.9c0,0,96.5-142.6,289.9-157.6v-52C190.1,298.7,5,479.9,5,479.9s104.8,303.4,398.9,330.9v-55.2
	C188.1,728.9,114.5,491,114.5,490.9L114.5,490.9z"/>
</svg>
