<?xml version="1.0" encoding="utf-8"?>
<!-- Generator: Adobe Illustrator 26.0.0, SVG Export Plug-In . SVG Version: 6.00 Build 0)  -->
<svg version="1.1" id="Capa_1" xmlns="http://www.w3.org/2000/svg" xmlns:xlink="http://www.w3.org/1999/xlink" x="0px" y="0px"
	 viewBox="0 0 1080 1080" style="enable-background:new 0 0 1080 1080;" xml:space="preserve">
<style type="text/css">
	.st0{fill:#00BFA5;}
</style>
<path class="st0" d="M539.9,5C244.6,4.9,5.1,244.1,5,539.4c0,0.2,0,0.4,0,0.6c-0.2,295.3,239,534.8,534.3,535c0.2,0,0.5,0,0.7,0
	c295.7,0,535-239.3,535-535C1074.9,244.3,833.7,5,539.9,5z M289,654.8c17.5,23.3,40.8,33.1,73.9,33.1c15.6,0,31.2-2,44.8-7.8
	c13.6-5.8,29.2-13.6,48.6-25.3l54.5,77.8C466,769.6,415.4,787,357,787c-46.7,0-85.6-9.7-120.6-29.2c-33.9-20-61.1-49.9-77.8-85.5
	c-17.5-37-27.2-79.8-27.2-130.4c0-48.6,9.7-93.4,27.2-130.3c16.7-36.8,43.8-67.9,77.9-89.5c33-21.4,73.8-31.1,118.6-31.1
	c31.2,0,60.3,3.9,83.7,13.6c26.2,10.2,50.5,24.6,72,42.8l-54.5,73.9c-13.8-10.2-28.8-18.7-44.7-25.4c-13.6-5.8-31.1-7.8-46.7-7.8
	c-66.1,0-99.2,50.6-99.2,153.7c-1.9,52.6,7.8,89.5,23.4,112.9L289,654.8z M824,775.4c-19.4,60.3-48.6,105.1-89.5,138.1
	c-40.8,33.1-95.3,50.6-163.4,56.4l-13.6-91.4c44.7-5.9,77.8-15.6,99.2-31.2c7.8-5.8,23.4-23.3,23.4-23.3L518.5,306.6h134.2
	l93.4,387.1l99.2-387.1h130.3L824,775.4z"/>
</svg>
