<?xml version="1.0" encoding="utf-8"?>
<!-- Generator: Adobe Illustrator 24.1.1, SVG Export Plug-In . SVG Version: 6.00 Build 0)  -->
<svg version="1.1" id="Capa_1" xmlns="http://www.w3.org/2000/svg" xmlns:xlink="http://www.w3.org/1999/xlink" x="0px" y="0px"
	 viewBox="0 0 1080 1080" style="enable-background:new 0 0 1080 1080;" xml:space="preserve">
<style type="text/css">
	.st0{fill:#F44336;}
</style>
<g transform="translate(96.655 615.19)">
	<g transform="matrix(.93181 0 0 .97555 4.5775 -18.777)">
		<ellipse class="st0" cx="709.3" cy="-223.4" rx="193.8" ry="181.4"/>
		<ellipse class="st0" cx="975.6" cy="-423.4" rx="69.4" ry="66.5"/>
		<path class="st0" d="M-78.3-467.2c-14,1.9-24.9,14.5-25,29.7l0.9,775.7c0,11.7,2.8,36,32.2,36l264-1.2c75.5-0.2,126-1.6,156.1-5.9
			c0.2,0,0.5,0,0.7,0c28.8-4.5,59.3-12.8,92.5-24.9c57.7-20.3,108.8-50.3,152.8-90.3c43.1-38.8,76.4-84.7,99.9-136.4
			C719.2,63.9,731,9.2,730.9-47.4c-0.1-78.8-21.3-152.7-63.8-219.1c-42.5-66.4-100.6-117.3-172-151
			c-72.6-34.6-167.3-50.4-284.8-50.2l-285.1,0.5C-76-467.2-77.1-467.3-78.3-467.2L-78.3-467.2z M75.1-307.5l122.9-0.2
			c57.4-0.1,98.3,1.8,121.5,5.4c23.5,3.6,49.2,11.3,76.5,23.1c27,11.6,50.6,25.8,70.8,43.4c55.7,48.7,81.9,106.3,82,182.6
			c0.1,78.1-25.2,139-79.4,190c-16.7,15.5-35.2,28.6-55.7,39.5c-19.3,10.1-44.6,18.9-76.4,26.4c-30,6.8-75.6,10.6-135,10.7
			l-126.5,0.2L75.1-307.5z"/>
	</g>
</g>
</svg>
