<?xml version="1.0" encoding="utf-8"?>
<!-- Generator: Adobe Illustrator 26.0.0, SVG Export Plug-In . SVG Version: 6.00 Build 0)  -->
<svg version="1.1" id="Capa_1" xmlns="http://www.w3.org/2000/svg" xmlns:xlink="http://www.w3.org/1999/xlink" x="0px" y="0px"
	 viewBox="0 0 1080 1080" style="enable-background:new 0 0 1080 1080;" xml:space="preserve">
<style type="text/css">
	.st0{fill:#90A4AE;}
	.st1{fill:#455A64;}
</style>
<g>
	<path class="st0" d="M571.7,5c-13.1,0.1-25.7,5.2-35,14.4l-0.5,0.4L208.4,209.1l327,326.7v0.2l393,392.7l74.9-134.9L733.1,145.7
		l-126.1-126C597.7,10.3,585,5,571.7,5L571.7,5z"/>
	<path class="st1" d="M209.2,208.3L19.8,535.6l-0.4,0.5c-19.3,19.4-19.3,50.8,0.1,70.1c0.1,0.1,0.1,0.1,0.2,0.2l156.9,157
		l613.9,241.3l138.8-77l-3.7-3.7l-1,0.1L539.8,538.8h-0.5L209.2,208.3L209.2,208.3z"/>
	<path class="st1" d="M208.4,208.5L542.8,543h0.5l384.9,385.1l146.6-27.9L1075,467L920.3,315.5c-33.9-33.2-86-54.6-138.3-61.6
		l0.1-1.6L208.4,208.5L208.4,208.5z"/>
	<path class="st0" d="M208.8,208.9l334.7,334.4v0.5l385.2,384.9l-28,146.4H467L315.4,920.3c-33.2-33.8-54.5-85.9-61.6-138.2
		l-1.7,0.2L208.8,208.9z"/>
</g>
</svg>
