<?xml version="1.0" encoding="utf-8"?>
<!-- Generator: Adobe Illustrator 24.1.1, SVG Export Plug-In . SVG Version: 6.00 Build 0)  -->
<svg version="1.1" id="Capa_1" xmlns="http://www.w3.org/2000/svg" xmlns:xlink="http://www.w3.org/1999/xlink" x="0px" y="0px"
	 viewBox="0 0 1080 1080" style="enable-background:new 0 0 1080 1080;" xml:space="preserve">
<style type="text/css">
	.st0{fill:#66C3FA;}
	.st1{fill:#215896;}
	.st2{fill:#235997;}
	.st3{fill:#58B6F0;}
</style>
<g transform="translate(.13166 .18096)">
	<path class="st0" d="M571.6,4.8c-12.6,0-25.3,4.9-35,14.4c-0.1,0.1-0.3,0.2-0.5,0.4L208.3,208.9l326.9,326.7v0.2l393,392.7
		l74.9-134.9L733,145.6l-126.1-126C597.1,9.8,584.4,4.8,571.6,4.8L571.6,4.8z"/>
	<path class="st1" d="M209.1,208.1L19.7,535.4c-0.1,0.1-0.2,0.3-0.4,0.5C9.8,545.6,4.9,558.4,4.9,571c0,12.8,5,25.4,14.8,35.2
		l157,157l613.9,241.3l138.8-77l-3.7-3.7l-1,0.1L539.7,538.6l-0.5,0L209.1,208.1L209.1,208.1z"/>
	<path class="st2" d="M208.2,208.3l334.5,334.6l0.5,0l385,385.1l146.5-27.9l0.2-433.2L920.1,315.3c-33.9-33.2-86-54.6-138.3-61.6
		l0.1-1.7L208.2,208.3L208.2,208.3z"/>
	<path class="st3" d="M208.7,208.7l334.6,334.4v0.5l385.2,384.9l-28,146.4H466.9L315.3,920.1c-33.2-33.9-54.6-85.9-61.6-138.2
		l-1.7,0.1L208.7,208.7L208.7,208.7z"/>
</g>
</svg>
