<?xml version="1.0" encoding="utf-8"?>
<!-- Generator: Adobe Illustrator 24.1.1, SVG Export Plug-In . SVG Version: 6.00 Build 0)  -->
<svg version="1.1" id="Capa_1" xmlns="http://www.w3.org/2000/svg" xmlns:xlink="http://www.w3.org/1999/xlink" x="0px" y="0px"
	 viewBox="0 0 1080 1080" style="enable-background:new 0 0 1080 1080;" xml:space="preserve">
<style type="text/css">
	.st0{fill:#FFCA28;}
</style>
<path class="st0" d="M540,5C277.6,5,65,111.4,65,242.8s212.6,237.8,475,237.8s475-106.4,475-237.8S802.4,5,540,5 M65,361.7V540
	c0,131.4,212.6,237.8,475,237.8s475-106.4,475-237.8V361.7c0,131.4-212.6,237.8-475,237.8S65,493,65,361.7 M65,658.9v178.3
	C65,968.6,277.6,1075,540,1075s475-106.4,475-237.8V658.9c0,131.4-212.6,237.8-475,237.8S65,790.3,65,658.9z"/>
</svg>
