<?xml version="1.0" encoding="utf-8"?>
<!-- Generator: Adobe Illustrator 24.1.1, SVG Export Plug-In . SVG Version: 6.00 Build 0)  -->
<svg version="1.1" id="Capa_1" xmlns="http://www.w3.org/2000/svg" xmlns:xlink="http://www.w3.org/1999/xlink" x="0px" y="0px"
	 viewBox="0 0 1080 1080" style="enable-background:new 0 0 1080 1080;" xml:space="preserve">
<style type="text/css">
	.st0{fill:#FFD54F;}
</style>
<path class="st0" d="M953.5,297.3C930.1,229,896.1,171.1,851.3,124S752.8,43.9,690,25.4C643.3,11.8,575.4,5,486.3,5H91.5v1070H498
	c79.8,0,143.6-7.5,191.3-22.6c63.7-20.4,114.3-48.9,151.8-85.4c49.6-48.2,87.8-111.1,114.6-189c21.9-63.7,32.8-139.6,32.8-227.7
	C988.5,450,976.8,365.7,953.5,297.3z M743.2,736.7c-14.6,47.9-33.4,82.3-56.6,103.3c-23.1,20.9-52.2,35.8-87.2,44.5
	c-26.7,6.8-70.3,10.2-130.6,10.2H307.5V186h97.1c88.1,0,147.2,3.4,177.3,10.2c40.4,8.7,73.7,25.5,100,50.3
	c26.2,24.8,46.7,59.4,61.3,103.6c14.6,44.3,21.9,107.8,21.9,190.5C765.2,623.4,757.8,688.8,743.2,736.7z"/>
</svg>
