<?xml version="1.0" encoding="utf-8"?>
<!-- Generator: Adobe Illustrator 26.0.0, SVG Export Plug-In . SVG Version: 6.00 Build 0)  -->
<svg version="1.1" id="Capa_1" xmlns="http://www.w3.org/2000/svg" xmlns:xlink="http://www.w3.org/1999/xlink" x="0px" y="0px"
	 viewBox="0 0 1080 1080" style="enable-background:new 0 0 1080 1080;" xml:space="preserve">
<style type="text/css">
	.st0{fill:#448AFF;}
</style>
<path class="st0" d="M599.4,242.8v59.9H123.8c-32.6,0-58.8,26.7-58.8,58.8v238.1H24.8c-10.7,0-19.8,9.1-19.8,19.8v198
	c0,11.2,9.1,20.3,19.8,20.3h39.6v118.8c0,32.6,26.8,58.8,59.4,58.8h832.5c32.6,0,58.9-26.2,58.9-58.8V837.7h40.1
	c10.7,0,19.8-9.1,19.8-19.8V620c0-11.2-9.1-20.3-19.8-20.3h-39.6V362.1c0-33.2-26.8-59.4-59.4-59.4H658.8V84.4
	c0-10.7-8.6-19.8-19.8-19.8H499.9c-10.7,0-19.3,9.1-19.3,19.8v139.1c0,10.7,8.6,19.3,19.8,19.3H599.4z M859.9,646.2L735.3,770.9
	c-9.4,9.2-24.3,9.2-33.7,0L626.7,696c-9.2-9.4-9.2-24.3,0-33.7l25.1-25.7c9.4-9.2,24.3-9.2,33.7,0l32.6,32.1l82.4-81.9
	c9.4-9.2,24.3-9.2,33.7,0l25.7,25.7C869,621.6,869,637.1,859.9,646.2z M338.8,770.9c-9.4,9.2-24.3,9.2-33.7,0L230.2,696
	c-9.2-9.4-9.2-24.3,0-33.7l25.1-25.7c9.3-9.5,24.6-9.5,34-0.2c0.1,0.1,0.1,0.1,0.2,0.2l32.1,32.1l82.4-81.9c9.4-9.2,24.3-9.2,33.7,0
	l25.7,25.7c9.6,9.1,9.6,24.6,0,33.7L338.8,770.9z"/>
</svg>
