<?xml version="1.0" encoding="utf-8"?>
<!-- Generator: Adobe Illustrator 24.1.1, SVG Export Plug-In . SVG Version: 6.00 Build 0)  -->
<svg version="1.1" id="Capa_1" xmlns="http://www.w3.org/2000/svg" xmlns:xlink="http://www.w3.org/1999/xlink" x="0px" y="0px"
	 viewBox="0 0 1080 1080" style="enable-background:new 0 0 1080 1080;" xml:space="preserve">
<style type="text/css">
	.st0{fill:#42A5F5;}
</style>
<path class="st0" d="M106.9,5C50.3,5,5,50.3,5,106.9v560.5c0,56.6,45.3,101.9,101.9,101.9h101.9V667.4H106.9V106.9h560.5v101.9
	h101.9V106.9C769.3,50.3,723.9,5,667.4,5H106.9 M412.6,310.7c-56.6,0-101.9,45.3-101.9,101.9v101.9h101.9V412.6h101.9V310.7H412.6
	 M616.4,310.7v101.9h51v51h101.9V310.7H616.4 M871.2,310.7v101.9h101.9v560.5H412.6V871.2H310.7v101.9
	c0,56.6,45.3,101.9,101.9,101.9h560.5c56.6,0,101.9-45.3,101.9-101.9V412.6c0-56.6-45.3-101.9-101.9-101.9H871.2 M667.4,565.5v101.9
	H565.5v101.9h101.9c56.6,0,101.9-45.3,101.9-101.9V565.5H667.4 M310.7,616.4v152.9h152.9V667.4h-51v-51H310.7z"/>
</svg>
