<?xml version="1.0" encoding="utf-8"?>
<!-- Generator: Adobe Illustrator 26.0.0, SVG Export Plug-In . SVG Version: 6.00 Build 0)  -->
<svg version="1.1" id="Capa_1" xmlns="http://www.w3.org/2000/svg" xmlns:xlink="http://www.w3.org/1999/xlink" x="0px" y="0px"
	 viewBox="0 0 1080 1080" style="enable-background:new 0 0 1080 1080;" xml:space="preserve">
<style type="text/css">
	.st0{fill:#FF5252;}
</style>
<g>
	<path class="st0" d="M1073.1,245c-3.2-29.7-9.7-59-19.5-87.2c-10.5-29.7-21.3-59.7-48.1-87.9c-19.2-20.4-36.2-28.9-42.1-31.6
		c-16.9-7.9-31.2-9.9-40.6-11.3c-3-0.4-9.4-1.2-21-1l0,0c-11.6,0.3-28.3,1.6-52,5.5c-29.9,4.9-52.2,10.7-57.1,12
		c-36.4,9.7-62.7,20.6-86.4,30.4c-13.4,5.6-30.9,12.9-52.5,24.1l-0.7,0.4c-10.3,5.4-18.3,9.7-22.6,12l-2.2,1.2
		c-15.5,8.4-30.5,14.8-46.2,23c0,0-15,7.9-37.1,22.3c-6.4,4.2-12,8.4-12,8.4c-1.9,1.4-3.3,2.5-4.3,3.3c-5.3,4.2-10.1,8.9-14.5,14
		c-4.2,4.9-10.2,11.9-14.2,21.8c-6.5,15.9-4.4,30.5-3.4,37.1c1.4,8.5,4.2,26.6,18.4,38.7c10.9,9.5,23.8,11,31.4,11.8
		c46.5,4.3,91.1-5,119.8-8.7c38.5-4.9,67.8-2.1,91.2,0c42.7,4,89.7,8.4,138.2,39.1c11.5,7.3,42.4,28.3,69.1,66.9
		c11.7,16.9,29.5,42.7,36.4,79.8c6.7,37-0.8,67.6,7.2,69.6c3.8,1,8.1-5,16.6-16.6c11.2-15.4,20.1-32.4,26.3-50.3
		c2.4-7.1,4.9-17.7,9.7-39.1c5.4-23.2,8-34.8,9.7-45.8c1.5-9.5,3.2-23.2,3.8-59.4C1075.2,287.2,1075.5,266.9,1073.1,245z M760,170.9
		c-46.9,14.7-109,6.5-113.9-8.9c-4.9-15.4,38.5-29.1,85.4-43.9c29.3-9.2,58.2-15.7,76.9-15.5c11.2,0.1,18.8,2.6,20.7,8.4
		C834,126.4,806.9,156,760,170.9z"/>
	<path class="st0" d="M934.3,414.4c-24.8-40.2-57.8-62.8-79.6-74.4c-30.4-16.3-56-20.2-81.9-24.1c-9.2-1.4-32.9-5-34.6,0l0,0
		c-1.2,3.7,10.3,10.2,16.5,14.4c31.3,20,47.6,48.9,60.1,71.4c19,33.8,22.6,64.1,26.3,94.7c2,17.3,6,51.6-2.2,92.4
		c-2.3,11.5-6.5,31.8-17.8,53.7c-2.4,4.7-6.3,11.3-14.2,24.6c-10.9,18.3-13.4,21.3-16.6,24.3c-4.1,3.9-6.9,5.5-10.3,10.5
		c-3.6,5.4-4,9-6.4,15.4c-2.9,7.9-6.4,13.3-10.2,19c-6.6,10.4-15.1,19.5-25.1,26.8c-8.5,6.1-15.5,9-24.6,12.8
		c-12.6,5.4-25.9,9-39.5,10.9c-6,0.8-15.1,1-33.3,1.4c-19,0.4-22.5-0.1-30.3,1.9c-13.9,3.6-22,10.1-25.1,12.8
		c-6.5,5.7-10.8,9.4-10.2,12.5c1.9,9.8,52.1,10.6,89.9,6.2c73.8-8.6,128.3-40.3,149.5-53.8c31-19.8,95-61.9,129.5-143
		c8.2-19.3,23.8-57.2,21.1-108.2C962.2,460.7,939.2,422.2,934.3,414.4z"/>
	<path class="st0" d="M550.4,969.8c-4.3-4.4-7.3-6.2-10.5-7.2c-7.5-2.2-13.8,1.1-22.9,5c-11.4,4.9-23.6,10.1-36.5,12.4
		c-9.5,1.7-21.1,3.7-30.4-2.6c-6.5-4.5-9.5-11.1-12-18.8c-13.7-40.9-8.7-76.2-8.7-76.2c3-20.6,4.8-32.8,13.9-44.7
		c11.8-15.4,25.5-17.4,53.3-28.6c17.4-6.9,51.4-20.6,83.1-45.4c15.1-11.9,35.7-28.5,52.3-57.5c6-10.5,24.2-43.4,22.7-86.8
		c-0.4-12-1-26.7-7.6-44.2c-12.4-32.4-17.7-42.8-17.7-42.8c-3.7-7.1-7.1-13.1-4.7-18.6c2.7-6.2,11.9-9.7,19.3-8.3
		c1.7,0.3,6.2,1.6,13.7,10.5c4.9,5.8,7.4,10.6,18.6,35.9c4.3,9.8,5.7,12.9,7.1,17.5c2,6.5,3.5,13.2,4.5,19.9
		c3.9,25.4,5.8,38.3,4.1,54.5c-1.4,12.8-4.4,21.3-9.7,36c-13.8,39-20,52-20,52l0,0c-3.8,8.1-6.3,12.5-4.3,16.2
		c5.4,9.6,34.4,2,36.5,1.5c8.6-2.3,24.2-6.5,36.1-21.4c2.6-3.3,15.5-19.5,12.8-31.6c-0.3-1.4-1.3-4.7,0.2-8.1c2-4.7,7.5-6.4,8.7-6.9
		c10.5-4,28.4-35.2,38.5-79.3c3.2-14,9-39.7,7.5-74.4c-0.8-18.7-2.5-52.7-20.7-91c-11.3-23.8-23.5-49.7-51.1-60.8
		c-16.8-6.7-32-5.2-42.4-4.1c-16.6,1.7-37.6,7.4-72.9,32.3c-33.1,23.4-53.9,46.1-77.8,72.5c-23.7,26.2-42.7,47.2-62.8,80
		c-10,16.4-18.9,34.8-36.8,71.7c-5,10.3-9.7,20.4-14.2,34c-2.3,7.1-1.6,5.9-9.7,36.6c-10,37.9-10.1,35.7-10.2,38.6
		c-0.2,6.3,0.3,13.8-4.8,18.8c-3.1,2.9-7.2,4.7-11.6,5c-2.6,0.2-2.2-0.5-9-1.5c-5.1-0.8-8.5-0.9-15.4-1.2c-4.3-0.1-5.3-0.1-6.4,0.4
		c0,0-4.3,1.7-7.1,7.5c-8.7,18.1,4.1,72.9,4.1,72.9c6.5,34.2,9.4,51.7,10.5,61.2c0.8,6.6,1.9,13.4,3.4,19.9
		c1.7,7.4,2.7,9.8,4.3,16.8c1.7,7.2,2.8,14.5,3.6,21.9c4,33.5,5,30,6.4,47.7c2.3,27.3,0.6,39.3,8.7,44c3.3,1.9,9.2,3.1,14.2,3
		c4.4-0.1,8.2-0.2,11.3-2.6c5.3-4.2,2.5-10.8,6.7-15.4c3.7-4.1,9.7-2.8,22.1-2.2c9.1,0.4,19.7-0.1,40.9-1.2
		c8.1-0.4,16.3-0.5,24.4-1.2c9.7-0.9,13.9-1.7,19.5,0.4c7.2,2.6,7.5,6.6,13.9,10.5c9.4,5.7,24.8,7.1,31.6,0.4
		c6.3-6.2,3.3-17.6-2.2-37.9C565.6,992.4,560.3,980.1,550.4,969.8z"/>
	<polygon class="st0" points="432.5,564.9 432.5,564.9 432.5,564.9 	"/>
	<path class="st0" d="M352.4,734.7c17.3,0.4,21.6,5.5,27.3,1.9c5.2-3.2,5.1-9.5,7.6-23.3c2.1-11.7,5.9-22.9,8.9-34.4
		c4.6-18,10-30.5,19.3-51.9c8.5-19.5,15-31.2,16.7-50.9c0.3-3.8,0.5-7.5,0.4-11.3c-5,3.1-9.7,6.5-14.2,10.2
		c-9.9,8-15.1,14.3-22.5,22.1c-8.4,8.8-10.6,9.9-25.3,23.3c-18.9,17.2-23.5,22.8-38.9,37.5c-22.4,21.3-59.4,53.2-104.3,81.3
		c-2,1.3-4.5,2.7-7.5,4.5C194,758.8,170,770.1,140,768.9c-13.1-0.5-36.2-1.7-53.1-19.5c-15.9-16.6-16.5-37.3-16.6-40.6
		c-0.5-25.3,15.5-41.6,19.5-45.6c5.3-5.2,17.8-17.7,37.5-18c1.9,0,20.6,0,34,13.1c5.1,5,8,10.3,13.7,21.1c6.9,12.9,8.6,20,13.6,20.6
		c4.8,0.6,9.1-5.5,10.5-7.5c9.8-13.7,5.3-32.6,4.3-36.1c-8.3-30.7-46.5-51.9-80.4-54.4c-15.9-1.1-31.8,1.7-46.4,7.9
		c-27.4,11.8-41.5,32.5-49,43.9C16.4,670.9,9.2,690.5,6.6,711C5,723.1,2,747.9,13.1,775.8c16.1,40.5,50.3,58.9,60.1,64.1
		c23.4,12.6,45.7,15.6,61.6,17.7c13.7,1.9,27.5,2.4,41.3,1.9c20.1-0.6,34.3-3.2,53.1-6.6c31.7-5.8,48.4-11.7,54.9-14
		c16.6-6,27.5-8.7,30.8-13.7c2-3.1,2.5-10.2,1.3-60.1c-0.1-4.5,0.8-9,2.5-13.1c1.1-2.6,4.7-7.6,11-11.8
		C336.7,735.7,343.4,734.5,352.4,734.7z"/>
	<path class="st0" d="M875.8,974c-4.9-11.5-7.4-17.4-12.9-23.5c-7.4-8.4-13.4-9.7-16-10c-7.2-1.1-10,2.6-24.4,8.3
		c-10.7,4.2-20.1,7.8-31.7,7c-5.6-0.4-14.1-0.9-20-7c-4-4.2-5-9-6-14.8c-4.2-22.9-4.1-38.3-3.8-44.5c0.1-2.2,0.1-4.6,0-6.8
		c-0.1-2.7-0.1-5.6,0-8.4c0.3-6.4,0-12.2,0.1-17.8v-0.1c0-1.4-1.2-2.5-2.6-2.5c-3,0-7.4,0.1-10.5,0.2c-4.7,0.2-5.4,0.2-7.8,0.3
		c-5.2,0.1-6.5-0.1-15.5,0c-13,0.1-6.1,0-11.9,0.1c-8.2,0.1-12.1,0.1-13.9,1.5l0,0c-3.8,2.8-3.3,9.1-2.8,12.5
		c3.8,34.6,5.7,52,6.6,58c1.9,11.1,2.6,19.3,3.4,28.1c1.8,19.1,5.1,38,7.3,57.1c0.5,4.2,0.9,8.4,4.1,11.8c8.2,8.9,28.8,6.8,33.1-1.5
		c3-5.9-2.6-14.1,1.5-17.3c0.9-0.7,2.9-1,7-1.8c2.8-0.5,3.3-0.4,6.6-0.9c7.7-1.1,16.9-3,16.9-3l6.1-1.1c1.9-0.3,4-0.5,7.9-1
		c4-0.5,5.2-0.6,6.1-0.6h4.4c7,0.1,7.3-0.1,8.8,0.2c1.9,0.3,3.8,0.9,5.6,1.6c1.4,0.4,2.6,1,3.9,1.7c0.4,0.2,0.7,0.4,1,0.6
		c0.5,0.4,1.1,0.8,1.6,1.2c0.9,0.8,3.5,2.7,7.1,5.6c1,0.8,2.4,1.9,4.2,3.2c0,0,3,2.2,5.7,3.9c5.8,3.6,34.9,9.7,40.2-0.8
		c1.9-3.8,0.4-9.6-2.7-21.1C880.5,986,878.4,980,875.8,974z"/>
</g>
</svg>
