<?xml version="1.0" encoding="utf-8"?>
<!-- Generator: Adobe Illustrator 24.1.1, SVG Export Plug-In . SVG Version: 6.00 Build 0)  -->
<svg version="1.1" id="Capa_1" xmlns="http://www.w3.org/2000/svg" xmlns:xlink="http://www.w3.org/1999/xlink" x="0px" y="0px"
	 viewBox="0 0 1080 1080" style="enable-background:new 0 0 1080 1080;" xml:space="preserve">
<style type="text/css">
	.st0{fill:#43A047;}
</style>
<g transform="translate(0 147.5)">
	<g>
		<g transform="matrix(.99836 0 0 .99836 52.981 -18.25)">
			<path class="st0" d="M449.7-124.5h175.1v811.2c-89.8,17.1-155.8,23.9-227.5,23.9c-213.8,0-325.3-96.7-325.3-282.2
				c0-178.7,118.3-294.7,301.4-294.7c28.4,0,50,2.3,76.2,9.1L449.7-124.5z M449.7,283.9c-20.5-6.8-37.5-9.1-59.1-9.1
				c-88.7,0-139.9,54.6-139.9,150.2c0,93.3,48.9,144.5,138.8,144.5c19.3,0,35.3-1.1,60.3-4.5L449.7,283.9z"/>
			<path class="st0" d="M903.5,146.2v406.2c0,140-10.2,207.1-40.9,265.1c-28.4,55.8-66,91-143.3,129.7l-162.6-77.4
				c77.3-36.4,114.9-68.3,138.7-117.2c25-50.1,33-108.1,33-260.6V146.2L903.5,146.2z M728.4-123.5h175.1V56.3H728.4V-123.5z"/>
		</g>
	</g>
</g>
</svg>
