<?xml version="1.0" encoding="utf-8"?>
<!-- Generator: Adobe Illustrator 24.1.1, SVG Export Plug-In . SVG Version: 6.00 Build 0)  -->
<svg version="1.1" id="Capa_1" xmlns="http://www.w3.org/2000/svg" xmlns:xlink="http://www.w3.org/1999/xlink" x="0px" y="0px"
	 viewBox="0 0 1080 1080" style="enable-background:new 0 0 1080 1080;" xml:space="preserve">
<style type="text/css">
	.st0{fill:#0087C9;}
</style>
<path id="SVGID_1_" class="st0" d="M219.8,775.4c-30.4,0-58.1-24.9-58.1-55.4s24.9-55.4,58.1-55.4s58.1,24.9,58.1,55.4
	S250.2,775.4,219.8,775.4z M933.8,473.5c-5.5-44.3-33.2-80.3-69.2-108l-13.8-11.1l-11.1,13.8c-22.1,24.9-30.4,69.2-27.7,102.5
	c2.8,24.9,11.1,49.9,24.9,69.2c-11.1,5.5-24.9,11.1-36,16.6c-24.9,8.3-49.8,11.1-74.7,11.1H9.4l-2.8,16.6
	c-5.5,52.6,2.8,108,24.9,157.9l11.1,19.4v2.8C109.1,875.1,228.1,925,358.2,925c249.1,0,453.9-108,550.8-340.7
	c63.7,2.8,127.3-13.8,157.8-74.8l8.3-13.8l-13.8-8.3C1025.2,465.2,975.4,462.4,933.8,473.5z M576.8,429.2H468.9v108h107.9V429.2z
	 M576.8,293.5H468.9v108h107.9V293.5z M576.8,155H468.9v108h107.9V155z M709.7,429.2H601.7v108h107.9V429.2z M308.3,429.2H200.4v108
	h107.9V429.2z M444,429.2H336v108H444V429.2z M175.5,429.2H67.6v108h107.9V429.2z M444,293.5H336v108H444V293.5z M308.3,293.5H200.4
	v108h107.9V293.5z"/>
</svg>
