<?xml version="1.0" encoding="utf-8"?>
<!-- Generator: Adobe Illustrator 24.1.1, SVG Export Plug-In . SVG Version: 6.00 Build 0)  -->
<svg version="1.1" id="Capa_1" xmlns="http://www.w3.org/2000/svg" xmlns:xlink="http://www.w3.org/1999/xlink" x="0px" y="0px"
	 viewBox="0 0 1080 1080" style="enable-background:new 0 0 1080 1080;" xml:space="preserve">
<style type="text/css">
	.st0{fill:#42A5F5;}
</style>
<path class="st0" d="M210.8,1075h658.5c54.5,0,98.8-42.2,98.8-94V318.5H737.5c-54.5,0-98.8-42.2-98.8-94V5h-428
	C156.3,5,112,47.2,112,99V981C112,1032.8,156.3,1075,210.8,1075z M342.5,446h395.1c18.2,0,32.9,14,32.9,31.3s-14.7,31.3-32.9,31.3
	H342.5c-18.2,0-32.9-14-32.9-31.3S324.3,446,342.5,446z M342.5,571.3h395.1c18.2,0,32.9,14,32.9,31.3S755.7,634,737.5,634H342.5
	c-18.2,0-32.9-14-32.9-31.3S324.3,571.3,342.5,571.3z M342.5,696.7h395.1c18.2,0,32.9,14,32.9,31.3s-14.7,31.3-32.9,31.3H342.5
	c-18.2,0-32.9-14-32.9-31.3S324.3,696.7,342.5,696.7z M342.5,822.1h263.4c18.2,0,32.9,14,32.9,31.3s-14.7,31.3-32.9,31.3H342.5
	c-18.2,0-32.9-14-32.9-31.3S324.3,822.1,342.5,822.1z"/>
<path class="st0" d="M730.4,258.7h211.2L697.5,26.3v201.1C697.5,244.6,712.2,258.7,730.4,258.7z"/>
</svg>
