<?xml version="1.0" encoding="utf-8"?>
<!-- Generator: Adobe Illustrator 24.1.1, SVG Export Plug-In . SVG Version: 6.00 Build 0)  -->
<svg version="1.1" id="Capa_1" xmlns="http://www.w3.org/2000/svg" xmlns:xlink="http://www.w3.org/1999/xlink" x="0px" y="0px"
	 viewBox="0 0 1080 1080" style="enable-background:new 0 0 1080 1080;" xml:space="preserve">
<style type="text/css">
	.st0{fill:#FB8C00;}
</style>
<path class="st0" d="M1017.4,677.7h-170L688.2,402.3h11.1c31.8,0,57.6-25.8,57.6-57.5V97.5c0-31.8-25.8-57.5-57.6-57.5H380.7
	c-31.8,0-57.6,25.8-57.6,57.5v247.2c0,31.8,25.8,57.5,57.6,57.5h10.9L232.5,677.7H62.6C30.8,677.7,5,703.4,5,735.2v247.2
	c0,31.8,25.8,57.5,57.6,57.5h318.6c31.8,0,57.6-25.8,57.6-57.5V735.2c0-31.8-25.8-57.5-57.6-57.5H333l159.1-275.4H588l159.1,275.4
	h-48.4c-31.8,0-57.6,25.8-57.6,57.5v247.2c0,31.8,25.8,57.5,57.6,57.5h318.6c31.8,0,57.6-25.8,57.6-57.5V735.2
	C1075,703.4,1049.2,677.7,1017.4,677.7z"/>
</svg>
