<?xml version="1.0" encoding="utf-8"?>
<!-- Generator: Adobe Illustrator 24.1.1, SVG Export Plug-In . SVG Version: 6.00 Build 0)  -->
<svg version="1.1" id="Capa_1" xmlns="http://www.w3.org/2000/svg" xmlns:xlink="http://www.w3.org/1999/xlink" x="0px" y="0px"
	 viewBox="0 0 1080 1080" style="enable-background:new 0 0 1080 1080;" xml:space="preserve">
<style type="text/css">
	.st0{fill:#424242;}
</style>
<g transform="translate(9.063 22.346) scale(.71044)">
	<path class="st0" d="M748.7,87.9C181.4,87.9-5.7,582.7-5.7,763.6h459.9c0,0,65.2-235.7,294.5-235.7s294.5,235.7,294.5,235.7h457.2
		C1500.4,582.6,1315.9,87.9,748.7,87.9 M1331.8,881.3h-288.7c0,0-50.5,235.7-294.5,235.7c-244.1,0-294.5-235.7-294.5-235.7H170.5
		c0,60.5,222.6,488.1,581,488.1C1109.8,1369.4,1331.8,1017.7,1331.8,881.3"/>
	<circle class="st0" cx="747.4" cy="827.7" r="193.4"/>
</g>
</svg>
