<?xml version="1.0" encoding="utf-8"?>
<!-- Generator: Adobe Illustrator 24.1.1, SVG Export Plug-In . SVG Version: 6.00 Build 0)  -->
<svg version="1.1" id="Capa_1" xmlns="http://www.w3.org/2000/svg" xmlns:xlink="http://www.w3.org/1999/xlink" x="0px" y="0px"
	 viewBox="0 0 1080 1080" style="enable-background:new 0 0 1080 1080;" xml:space="preserve">
<style type="text/css">
	.st0{fill-rule:evenodd;clip-rule:evenodd;fill:#E3E3F8;}
	.st1{fill-rule:evenodd;clip-rule:evenodd;fill:#FDFDFD;}
	.st2{fill-rule:evenodd;clip-rule:evenodd;fill:#020202;}
	.st3{fill-rule:evenodd;clip-rule:evenodd;fill:#FDF2F2;}
	.st4{fill-rule:evenodd;clip-rule:evenodd;fill:#FEF3F3;}
	.st5{fill-rule:evenodd;clip-rule:evenodd;fill:#EFEFEF;}
	.st6{fill-rule:evenodd;clip-rule:evenodd;fill:#FAF1F1;}
</style>
<g transform="matrix(.89449 0 0 .89449 124.37 282.35)">
	<g>
		<path class="st0" d="M153.2,388.5c17.2-11.2,31.3-39.2,22.7-58.9C152.4,339.6,153.6,362.8,153.2,388.5z"/>
		<path class="st0" d="M418.7,452.7c18.6-6,36.5-26.9,26.5-48.5C430.6,414.2,421.3,428,418.7,452.7z"/>
	</g>
	<g>
		<path class="st1" d="M-103,761.5c0,23.5,6,48.9,22.4,57.8c60.4,33.9,272.2,7.5,344.2-8.6c37.7-8.6,68.2-36.6,103.7-51.8
			c79.8-34.7,137.6-62.7,201.4-109.3c46.2-33.9,119.7-129.4,127.5-186.5l-63-14.2c-1.5,64.2-16,78.7-73.1,93.6
			c-38.4,10.4-113.4,12.7-152.5,6c-51.8-8.6-75.3-35.8-98.8-66.8c-45.5-60.4,10.1-102.6-61.9-106.7C171.1,468,37.6,401.2-20.9,391.9
			c-25,36.2-83.5,271.2-82.8,324.9c36.2-12.3,58.9,1.1,91.4,13.8c114.8,44.4,14.5,83.6-31.3,72C-75,795.1-84.7,774.6-103,761.5z"/>
		<path class="st1" d="M47.3,225.5c46.6,9,88,28.3,127.5,48.1c64.5,32.1,76.1,27.6,82,72.4c0.7,8.2-0.7,12.7,22.7,20.1
			c39.5,12.3-22.7-9.7,83.2-9.3c63,0.4,207.3,25.7,253.9,55.2c19.4,12.3,15.7,28,81.3,26.1c-0.7-77.2-21.3-192.5-51.5-263.3
			C609.6,89,560.8,75.9,461.2,43.8c-58.2-18.7-229-39.2-281.9-6.3c-49.6,31-58.9,67.9-105.2,132.8C60.7,189.3,55.9,203.9,47.3,225.5
			z"/>
		<path class="st1" d="M457.8,384c37.3,15.3-1.9,114.1-53.7,90.3c-16.8-47.4,23.1-74.2,33.9-95.5c-22.4-3.4-86.1-13.4-105.2-6.3
			c-24.6,9.3-30.2,61.9-17.5,86.5c59.7,117.1,323.3,92.1,295.3,1.1c-11.2-36.9-21.6-42.9-59.3-55.6C521.2,394.5,491,384,457.8,384z"
			/>
		<path class="st1" d="M-10.9,371c29.8,28.7,97.3,33.2,140.9,35.4c5.6-57.8,10.4-101.1,56.7-97.7c22.7,31,10.8,67.5-13.1,91
			c40.6-0.4,64.1-31,58.2-75.3c-34.3-24.6-138.3-73.9-190.5-80.9C26.8,259.1-9,344.9-10.9,371z"/>
	</g>
	<path class="st2" d="M-81,740.3c24.6-2.2,88.7,16.4,94,37.3C-26.9,782.4-77.6,778.7-81,740.3z M-103,761.5
		c18.3,13.1,28,33.6,59.3,41c45.9,11.6,146.2-27.6,31.3-72c-32.4-12.7-55.2-26.1-91.4-13.8C-104.5,663-45.9,428-20.9,391.9
		c58.5,9.3,192,76.1,267.7-16.8c72,4.1,16.4,46.3,61.9,106.7c23.5,31,47,58.2,98.8,66.8c39.2,6.7,114.1,4.5,152.5-6
		c57.1-14.9,71.6-29.5,73.1-93.6l63,14.2c-7.8,57.1-81.3,152.6-127.5,186.5c-63.8,46.6-121.6,74.6-201.4,109.3
		c-35.4,15.3-66,43.3-103.7,51.8c-72,16-283.8,42.5-344.2,8.6C-97,810.4-103,785-103,761.5z M418.7,452.7
		c2.6-24.6,11.9-38.4,26.5-48.5C455.2,425.8,437.3,446.7,418.7,452.7z M457.8,384c33.2,0,63.4,10.4,93.6,20.5
		c37.7,12.7,48.1,18.7,59.3,55.6c28,91-235.7,116-295.3-1.1c-12.7-24.6-7.1-77.2,17.5-86.5c19-7.1,82.8,3,105.2,6.3
		c-10.8,21.3-50.7,48.1-33.9,95.5C456,498.2,495.1,399.3,457.8,384z M153.2,388.5c0.4-25.7-0.7-48.9,22.7-58.9
		C184.5,349.3,170.3,377.3,153.2,388.5z M-10.9,371c1.9-26.1,37.7-111.9,52.2-127.6c52.2,7.1,156.2,56.3,190.5,80.9
		c6,44.4-17.5,75-58.2,75.3c23.9-23.5,35.8-60.1,13.1-91c-46.2-3.4-51.1,39.9-56.7,97.7C86.4,404.2,19,399.7-10.9,371z M-48.2,341.1
		C-62,303.1-62,243.8-3.4,238.9l-29.8,83.2C-41.1,340-41.1,335.9-48.2,341.1z M47.3,225.5c8.6-21.6,13.4-36.2,26.8-55.2
		c46.2-64.9,55.6-101.8,105.2-132.8C232.2,4.7,403,25.2,461.2,43.8C560.8,75.9,609.6,89,646.5,174.8
		c30.2,70.9,50.7,186.1,51.5,263.3c-65.6,1.9-61.9-13.8-81.3-26.1c-46.6-29.5-190.9-54.8-253.9-55.2c-105.9-0.4-43.6,21.6-83.2,9.3
		c-23.5-7.5-22-11.9-22.7-20.1c-6-44.8-17.5-40.3-82-72.4C135.3,253.8,93.9,234.5,47.3,225.5z M707.3,207.2c-7.1-23.5,6-22,28.7-38
		c13.1-9.3,23.5-19,39.5-28c60-33.6,171.9-39.2,219.6,0.7c19.4,16,51.1,47.4,46.2,88.4c-10.1,81.7-66,126.4-111.9,163.8
		c-46.6,38-124.2,77.2-204.3,51.1c-6.7-16.4-1.5-120.5-9.3-158.9c-7.1-34.3-3.4-38,16.4-58.6c58.2-60.4,184.2-104.4,255.8-52.6
		c30.2,22.4,21.6,31,37.3,48.1c19.4-20.9-16.8-91-150.3-86.5C784.5,139.7,745.3,210.6,707.3,207.2z M164.4-5
		c1.9-51.8,49.6-159.3,97.3-196.6c57.8-44.8,118.2-86.9,207-36.6c22,12.3,20.9,18.7,23.1,49.2c1.9,29.5-0.7,40.3-8.2,64.2
		C424.7,65.5,375.4-43.8,186.8,1.3c7.1-61.9,60.8-117.1,90.6-145.8c51.1-49.6,88-81.7,164.8-71.2c21.3,35.4,23.5,57.8-2.2,99.2
		c-34.3,55.2-42.9,51.8-37.7,89.5c26.8-6.7,35.1-32.8,47.4-58.9c74.9-156.7-33.9-175.7-100.7-147c-44.7,19-124.5,107.1-150.6,160
		c-5.2,10.4-10.8,23.9-15.7,35.4L164.4-5z M459.7,2.8c7.8-46.6,54.1-58.2,54.1-201.8c0-61.9-76.1-117.5-175.6-76.1
		c-85.4,35.1-98.4,61.9-143.9,130.6C151.3-79.6,152.8-8.4,115.9,51.7C105.1,68.8,95.4,74.8,83.5,92c-8.6,12.7-14.9,28.7-23.5,43.6
		c-17.5,28.7-35.4,49.6-49.6,83.9c-44.7,1.1-82.4,1.9-86.9,48.1c-6,63.4,23.9,79.1,23.9,103C-53,396.3-157.4,656-128.3,810.7
		c8.2,42.5,36.2,42.9,80.9,48.1c107.8,13.1,247.6,8.6,344.2-30.2L472,744.7c44.4-25,118.9-72.4,152.1-107.1
		c23.5-24.2,35.8-44.8,55.9-73.5c27.6-40.3,28.3-39.5,34.3-94.4c36.5,6.7,104.8,22.8,127.5,42.5c-2.6,25.7-15.3,13.4-15.3,36.6
		c14.5,0.4,38.8-17.9,44.7-38c-15.3-22.4-31.3-18.7-53.3-36.6c17.5-13.8,49.2-20.1,73.5-30.2c52.2-21.6,141.3-87.3,163.3-147
		c17.5-48.1,4.5-128.3-23.9-159.6c-29.8-32.8-99.2-49.6-155.9-49.6c-67.5,0-137.2,48.5-191.7,69.4c-20.9-18.3-22.4-39.2-37.7-59.3
		C628.2,74.1,514.1,14.4,459.7,2.8z"/>
	<path class="st3" d="M707.3,207.2c38,3.4,77.2-67.5,167.8-70.5c133.5-4.5,169.7,65.6,150.3,86.5c-15.7-17.2-7.1-25.7-37.3-48.1
		c-71.6-51.8-197.6-7.8-255.8,52.6c-19.8,20.5-23.5,24.2-16.4,58.6c7.8,38.4,2.6,142.5,9.3,158.9c80.2,26.1,157.7-13.1,204.3-51.1
		c45.9-37.3,101.8-82.1,111.9-163.8c4.8-41-26.8-72.4-46.2-88.4c-47.7-39.9-159.6-34.3-219.6-0.7c-16,9-26.5,18.7-39.5,28
		C713.3,185.2,700.2,183.7,707.3,207.2z"/>
	<path class="st4" d="M164.4-5l18.3-32.5c4.8-11.6,10.4-25,15.7-35.4c26.1-53,105.9-141,150.6-160c66.7-28.7,175.6-9.7,100.7,147
		c-12.3,26.1-20.5,52.2-47.4,58.9c-5.2-37.7,3.4-34.3,37.7-89.5c25.7-41.4,23.5-63.8,2.2-99.2c-76.8-10.4-113.7,21.6-164.8,71.2
		c-29.8,28.7-83.5,83.9-90.6,145.8c188.7-45.1,237.9,64.2,296.8-126.1c7.5-23.9,10.1-34.7,8.2-64.2c-2.2-30.6-1.1-36.9-23.1-49.2
		c-88.7-50.4-149.2-8.2-207,36.6C214-164.3,166.2-56.9,164.4-5z"/>
	<path class="st5" d="M-48.2,341.1c7.1-5.2,7.1-1.1,14.9-19l29.8-83.2C-62,243.8-62,303.1-48.2,341.1z"/>
	<path class="st6" d="M13,777.6c-5.2-20.9-69.4-39.5-94-37.3C-77.6,778.7-26.9,782.4,13,777.6z"/>
</g>
</svg>
