<?xml version="1.0" encoding="utf-8"?>
<!-- Generator: Adobe Illustrator 24.1.1, SVG Export Plug-In . SVG Version: 6.00 Build 0)  -->
<svg version="1.1" id="Capa_1" xmlns="http://www.w3.org/2000/svg" xmlns:xlink="http://www.w3.org/1999/xlink" x="0px" y="0px"
	 viewBox="0 0 1080 1080" style="enable-background:new 0 0 1080 1080;" xml:space="preserve">
<style type="text/css">
	.st0{fill:#FFCA28;}
</style>
<g>
	<polygon class="st0" points="347.9,196.6 5,540 347.9,883.4 478.1,753.9 264.5,540 478.1,326.1 	"/>
	<path class="st0" d="M660.1,508.1c74.9,0,135.9-76.1,135.9-169.6s-61-169.6-135.9-169.6S524.2,245,524.2,338.5
		S585.2,508.1,660.1,508.1z M660.1,238.9c35.8,0,66,45.6,66,99.6s-30.2,99.6-66,99.6c-35.8,0-66-45.6-66-99.6
		S624.4,238.9,660.1,238.9z"/>
	<polygon class="st0" points="951.9,162.5 577.9,884.3 648.6,917.5 1022.5,195.7 	"/>
	<path class="st0" d="M939.1,572.3c-74.9,0-135.9,76.1-135.9,169.6s60.9,169.6,135.9,169.6S1075,835.5,1075,741.9
		S1014,572.3,939.1,572.3z M939.1,841.5c-35.8,0-66-45.6-66-99.6c0-54,30.2-99.6,66-99.6c35.8,0,66,45.6,66,99.6
		C1005.1,795.9,974.9,841.5,939.1,841.5z"/>
</g>
</svg>
