<?xml version="1.0" encoding="utf-8"?>
<!-- Generator: Adobe Illustrator 26.0.0, SVG Export Plug-In . SVG Version: 6.00 Build 0)  -->
<svg version="1.1" id="Capa_1" xmlns="http://www.w3.org/2000/svg" xmlns:xlink="http://www.w3.org/1999/xlink" x="0px" y="0px"
	 viewBox="0 0 1080 1080" style="enable-background:new 0 0 1080 1080;" xml:space="preserve">
<style type="text/css">
	.st0{fill:#FF5722;}
</style>
<path class="st0" d="M582.1,112c95.8-1.6,170.1,18.7,220.4,106.5C928.7,533,477.2,695.6,459,702.1h-0.5c0,0-13.4,85.6,116.1,82.4
	c159.4,0,326.3-123.6,390.5-176.5c15.5-12.3,38-11.2,51.9,3.2l47.6,49.8c13.4,14.4,13.9,36.9,1.1,51.9
	c-41.2,46.5-138.6,141.8-285.1,202.8c0,0-244.5,113.9-409.2,6.4C273.4,857.7,246.1,780.7,234.9,701c0,0-119.3-6.4-195.8-35.8
	c-77-30.5,0.5-120.9,0.5-120.9s23.5-38,68.5,0c44.4,38,128.4,20.9,128.4,20.9c7.5-59.4,19.8-137.5,56.7-219.9
	C369.7,173,486.9,114.1,582.1,112z M638.3,285.3C588,236.6,441.9,334,436,557.6c0,0,43.3,12.8,138-52.4
	c95.8-65.8,113.9-170.7,63.7-219.9L638.3,285.3z"/>
</svg>
