<?xml version="1.0" encoding="utf-8"?>
<!-- Generator: Adobe Illustrator 24.1.1, SVG Export Plug-In . SVG Version: 6.00 Build 0)  -->
<svg version="1.1" id="Capa_1" xmlns="http://www.w3.org/2000/svg" xmlns:xlink="http://www.w3.org/1999/xlink" x="0px" y="0px"
	 viewBox="0 0 1080 1080" style="enable-background:new 0 0 1080 1080;" xml:space="preserve">
<style type="text/css">
	.st0{fill:#F44336;}
</style>
<path class="st0" d="M1075,763.7l-160.6-54.1v2.2c-27.5,50.5-64.4,93.3-110.7,128.6c-46.3,35.3-100.6,52.9-162.8,52.9
	c-99.8,0-163.5-32.8-191-98.3c-27.5-65.6-42-138-43.4-217.2c0-5.7,0-11.5,0-17.3c0-5.8,0-12.2,0-19.5h666.3
	c-1.5-156.3-44.1-282.2-128.1-377.6c-14.9-17-31.1-32.5-48.5-46.4h-669c-17.8,11.2-35.1,23.5-51.9,36.7C61.8,242.7,5,368.9,5,532.4
	c0,170.7,54.3,301.3,162.8,391.8c16.4,13.6,33.4,26.3,51,37.8h686.8C975.2,913.5,1031.7,847.4,1075,763.7z M409.8,385
	c0.7-5.7,1.8-12.2,3.3-19.4c5.8-48.7,18.4-93.9,38-135.5c19.5-41.6,61.1-62.4,124.8-62.4c59.3,0,99.5,20.6,120.5,61.9
	c21,41.2,32.2,86.5,33.6,135.6c0,2.9,0,5.8,0,8.7c0,2.9,0,5.8,0,8.7c0,1.5,0,2.9,0,4.3c0,1.5,0,3.6,0,6.5c-1.5,1.5-2.2,2.9-2.2,4.3
	c0,1.5,0,2.9,0,4.3h-319C408.7,396.4,409,390.7,409.8,385z"/>
</svg>
