<?xml version="1.0" encoding="utf-8"?>
<!-- Generator: Adobe Illustrator 24.1.1, SVG Export Plug-In . SVG Version: 6.00 Build 0)  -->
<svg version="1.1" id="Capa_1" xmlns="http://www.w3.org/2000/svg" xmlns:xlink="http://www.w3.org/1999/xlink" x="0px" y="0px"
	 viewBox="0 0 1080 1080" style="enable-background:new 0 0 1080 1080;" xml:space="preserve">
<style type="text/css">
	.st0{fill:#7986CB;}
	.st1{fill:#3F51B5;}
</style>
<g transform="matrix(1.0344 0 0 1.0344 -2.8803 18.438)">
	<path class="st0" d="M320.4,380.6l196.5-113.4c4.9-2.8,11-2.8,15.9,0l196.5,113.4c4.9,2.8,7.9,8.1,7.9,13.8v226.9
		c0,5.7-3,10.9-7.9,13.8L532.8,748.4c-4.9,2.8-11,2.8-15.9,0L320.4,635c-4.9-2.8-7.9-8.1-7.9-13.8V394.3
		C312.5,388.7,315.5,383.4,320.4,380.6"/>
	<path class="st1" d="M1035.6,483.9L800.9,75.5c-8.5-14.8-24.3-25.7-41.3-25.7H290.1c-17.1,0-32.8,10.9-41.3,25.7L14,483
		c-8.5,14.8-8.5,33.4,0,48.2l234.7,405.1c8.5,14.8,24.3,22.3,41.3,22.3h469.5c17,0,32.8-7.3,41.3-22.1l234.7-405.7
		C1044.2,516,1044.2,498.7,1035.6,483.9 M841.3,680.3c0,6-3.6,11.6-8.8,14.6l-299,172.5c-5.2,3-11.7,3-16.9,0L217.3,694.9
		c-5.2-3-8.8-8.6-8.8-14.6V335.3c0-6,3.6-11.6,8.8-14.6l299-172.5c5.2-3,11.7-3,16.9,0l299.3,172.5c5.2,3,8.9,8.6,8.9,14.6V680.3z"
		/>
</g>
</svg>
