<?xml version="1.0" encoding="utf-8"?>
<!-- Generator: Adobe Illustrator 24.1.1, SVG Export Plug-In . SVG Version: 6.00 Build 0)  -->
<svg version="1.1" id="Capa_1" xmlns="http://www.w3.org/2000/svg" xmlns:xlink="http://www.w3.org/1999/xlink" x="0px" y="0px"
	 viewBox="0 0 1080 1080" style="enable-background:new 0 0 1080 1080;" xml:space="preserve">
<style type="text/css">
	.st0{fill:#E64A19;}
</style>
<path class="st0" d="M862.6,5H217.4C149.9,5,95,60,95,127.6v824.8c0,67.6,54.9,122.6,122.4,122.6h645.3c67.5,0,122.4-55,122.4-122.6
	V127.6C985,60,930.1,5,862.6,5z M373.1,729.5c18.4,0,33.4,15,33.4,33.4c0,18.5-15,33.4-33.4,33.4h-77.9v22.3c0,6.2,5,11.1,11.1,11.1
	h66.8c18.4,0,33.4,15,33.4,33.4c0,18.5-15,33.4-33.4,33.4h-66.8c-42.9,0-77.9-35-77.9-78V707.2c0-43,34.9-78,77.9-78h66.8
	c18.4,0,33.4,15,33.4,33.4c0,18.5-15,33.4-33.4,33.4h-66.8c-6.1,0-11.1,5-11.1,11.1v22.3H373.1z M624.8,847
	c8.9,16.1,3.2,36.5-13,45.5c-5.1,2.9-10.7,4.2-16.2,4.2c-11.7,0-23.1-6.2-29.2-17.2L540,831.8l-26.4,47.7
	c-6.1,11-17.5,17.2-29.2,17.2c-5.5,0-11.1-1.3-16.2-4.2c-16.1-9-21.9-29.3-13-45.5l46.6-84l-46.6-84.1c-8.9-16.1-3.2-36.5,13-45.5
	c16.1-9.1,36.4-3.2,45.4,13L540,694l26.4-47.7c8.9-16.2,29.3-22,45.4-13c16.1,9,21.9,29.3,13,45.5l-46.6,84.1L624.8,847z
	 M818.1,729.5c18.4,0,33.4,15,33.4,33.4c0,18.5-15,33.4-33.4,33.4h-77.9v22.3c0,6.2,5,11.1,11.1,11.1h66.8c18.4,0,33.4,15,33.4,33.4
	c0,18.5-15,33.4-33.4,33.4h-66.8c-42.9,0-77.9-35-77.9-78V707.2c0-43,34.9-78,77.9-78h66.8c18.4,0,33.4,15,33.4,33.4
	c0,18.5-15,33.4-33.4,33.4h-66.8c-6.1,0-11.1,5-11.1,11.1v22.3H818.1z"/>
</svg>
