<?xml version="1.0" encoding="utf-8"?>
<!-- Generator: Adobe Illustrator 24.1.1, SVG Export Plug-In . SVG Version: 6.00 Build 0)  -->
<svg version="1.1" id="Capa_1" xmlns="http://www.w3.org/2000/svg" xmlns:xlink="http://www.w3.org/1999/xlink" x="0px" y="0px"
	 viewBox="0 0 1080 1080" style="enable-background:new 0 0 1080 1080;" xml:space="preserve">
<style type="text/css">
	.st0{fill:#0A7BFF;}
	.st1{fill:#EB3D00;}
	.st2{fill:#00BCD4;}
	.st3{fill:#86C351;}
	.st4{fill:#9032E9;}
</style>
<g>
	<path class="st0" d="M909.6,298.8c-44.7,0-85.3,17.8-115,46.6L605.8,210.2c1.2-4.9,1.9-10.1,1.9-15.4c0-36.5-29.6-66.2-66.2-66.2
		c-36.5,0-66.2,29.6-66.2,66.2c0,36.5,29.6,66.2,66.2,66.2c12.8,0,24.7-3.7,34.8-10l231.1,168.2c18-37.6,57.7-66.8,102.2-66.8
		c61.7,0,111.8,50.1,111.8,111.8c0,49.3-32,91.2-76.3,106.1l15.2,51.5c66.6-21.4,114.7-83.8,114.7-157.5
		C1075,372.8,1001,298.8,909.6,298.8"/>
	<path class="st1" d="M379.4,138.1c-13.5,42.5-8.8,86.5,9.6,123.5L203.4,400.2c-4.3-2.6-9-4.8-14-6.4c-34.7-11-71.8,8.2-82.9,42.9
		c-11,34.7,8.2,71.8,42.9,82.9c34.7,11,71.8-8.2,82.9-42.9c3.9-12.2,3.9-24.6,1-36.1L463,271.6c-30.3-28.5-46.1-75.1-32.7-117.4
		c18.6-58.7,81.3-91.2,140-72.5c46.9,14.9,77.1,57.9,77.8,104.6l53.5,1.1c-0.2-69.8-45-134.4-115.1-156.7
		C499.7,3.2,406.9,51.2,379.4,138.1"/>
	<path class="st2" d="M73,585.2c36,26.3,79,35.9,119.7,30.3l73.2,218.7c-3.8,3.2-7.4,6.9-10.4,11.2c-21.3,29.2-14.7,70.2,14.7,91.7
		c29.4,21.5,70.5,15.2,91.8-14c21.3-29.2,14.7-70.2-14.7-91.7c-10.3-7.5-22-11.6-33.8-12.5l-88-269.9
		c-36.4,19.4-85.4,19.4-121.2-6.7c-49.7-36.3-60.8-105.6-24.9-154.9c28.7-39.4,78.8-54,123.1-39.8l17.8-50
		c-66-22-141.1-0.5-184,58.3C-17,429-0.5,531.6,73,585.2"/>
	<path class="st3" d="M919.7,842.3c-13.6-42.2-42.8-75-79.2-94.2l70.6-219.4c5-0.4,10.1-1.3,15.1-2.9c34.6-11.2,53.7-48.2,42.6-82.7
		c-11.1-34.5-48.2-53.3-82.9-42.1c-34.6,11.2-53.7,48.2-42.6,82.7c3.9,12.1,11,22.2,20.1,29.8l-89,269.4c41.1,5.5,80.9,34,94.5,75.9
		c18.8,58.2-13.4,120.8-71.9,139.7c-46.8,15.1-96.2-2.2-123.8-39.5L629.1,989c40.6,56.2,114.4,82.5,184.2,60
		C899.9,1021,947.6,928.4,919.7,842.3"/>
	<path class="st4" d="M407.4,1019.3c35.9-26.3,58-64.3,64.9-105l230.8-2.4c2,4.6,4.4,9.2,7.5,13.4c21.4,29.3,62.6,35.7,91.9,14.2
		c29.3-21.5,35.7-62.6,14.2-91.9c-21.4-29.3-62.6-35.7-91.9-14.2c-10.3,7.5-17.6,17.5-22.1,28.4l-284.1,0.7
		c7.6,40.7-7.1,87.5-42.8,113.6c-49.5,36.2-119.1,25.5-155.3-24.1c-29-39.6-27.9-91.9-1-129.9L177.2,790
		c-40.8,56.2-42.9,134.6,0.4,193.7C231.2,1057,334.1,1072.9,407.4,1019.3"/>
</g>
</svg>
