<?xml version="1.0" encoding="utf-8"?>
<!-- Generator: Adobe Illustrator 26.0.0, SVG Export Plug-In . SVG Version: 6.00 Build 0)  -->
<svg version="1.1" id="Capa_1" xmlns="http://www.w3.org/2000/svg" xmlns:xlink="http://www.w3.org/1999/xlink" x="0px" y="0px"
	 viewBox="0 0 1080 1080" style="enable-background:new 0 0 1080 1080;" xml:space="preserve">
<style type="text/css">
	.st0{fill:#00E676;}
	.st1{fill:#7C4DFF;}
	.st2{fill:#F4511E;}
	.st3{fill:#FF8A65;}
	.st4{fill:#29B6F6;}
</style>
<g transform="matrix(1.0116 0 0 1.0116 -.43277 -.64469)">
	<path class="st0" d="M359.1,1063.3c96.7,0,175.1-79,175.1-176.3V710.8H359.1C262.5,710.8,184,789.7,184,887
		S262.5,1063.3,359.1,1063.3z"/>
	<path class="st1" d="M184,534.4c0-97.3,78.5-176.3,175.1-176.3h175.1v352.6H359.1C262.5,710.8,184,631.8,184,534.4z"/>
	<path class="st2" d="M184,181.9C184,84.6,262.5,5.6,359.1,5.6h175.1v352.6H359.1C262.5,358.1,184,279.2,184,181.9z"/>
	<path class="st3" d="M534.2,5.6h175.1c96.6,0,175.1,79,175.1,176.3S806,358.1,709.3,358.1H534.2L534.2,5.6z"/>
	<path class="st4" d="M884.4,534.4c0,97.3-78.4,176.3-175.1,176.3s-175.1-79-175.1-176.3s78.5-176.3,175.1-176.3
		S884.4,437.1,884.4,534.4z"/>
</g>
</svg>
