<?xml version="1.0" encoding="utf-8"?>
<!-- Generator: Adobe Illustrator 24.1.1, SVG Export Plug-In . SVG Version: 6.00 Build 0)  -->
<svg version="1.1" id="Capa_1" xmlns="http://www.w3.org/2000/svg" xmlns:xlink="http://www.w3.org/1999/xlink" x="0px" y="0px"
	 viewBox="0 0 1080 1080" style="enable-background:new 0 0 1080 1080;" xml:space="preserve">
<style type="text/css">
	.st0{fill:#FBC02D;}
</style>
<path class="st0" d="M929,868.5l-355,197c-24.3,12.6-48.6,12.6-72.9,0L151,868.5l634.6-639.7l17-4.9c14.6,0,22.9,6.3,24.3,19.5
	L929,868.5 M411.1,238.5L189.9,605.8l92.4-581.3C283.7,11.3,292,5,306.6,5c9.7,0,16,2.9,19.4,12.2l104.5,192.2L411.1,238.5
	 M630,299.8L165.6,766.3L518.1,168c4.9-9.7,12.2-14.1,21.9-14.1s16,4.4,19.4,14.1L630,299.8z"/>
</svg>
