<?xml version="1.0" encoding="utf-8"?>
<!-- Generator: Adobe Illustrator 24.1.1, SVG Export Plug-In . SVG Version: 6.00 Build 0)  -->
<svg version="1.1" id="Capa_1" xmlns="http://www.w3.org/2000/svg" xmlns:xlink="http://www.w3.org/1999/xlink" x="0px" y="0px"
	 viewBox="0 0 1080 1080" style="enable-background:new 0 0 1080 1080;" xml:space="preserve">
<style type="text/css">
	.st0{fill:url(#SVGID_1_);}
	.st1{fill:#FFFFFF;}
</style>
<g>
	
		<linearGradient id="SVGID_1_" gradientUnits="userSpaceOnUse" x1="5.1167" y1="1595.973" x2="1075.1167" y2="1595.973" gradientTransform="matrix(6.123234e-17 1 1 -6.123234e-17 -1055.973 -0.1167)">
		<stop  offset="0" style="stop-color:#D92F3C"/>
		<stop  offset="1" style="stop-color:#791223"/>
	</linearGradient>
	<rect x="5" y="5" class="st0" width="1070" height="1070"/>
	<path class="st1" d="M790.4,210.5c-0.3,0-0.5,0.1-0.7,0.1c-23.4,2-45.6,5.1-64.9,10.5c-30.4,9.1-57.8,22.2-82,39.4
		c-23.5,17.7-44.9,39.6-64.2,65.4c-18.7,26.3-37.5,56.7-56.1,91.1c-6.6,12.6-12.8,23.3-19.3,35v0.1c0,0-0.2,0-0.2,0l-73.6,131.5
		l-0.3-0.1c-13.1,24.3-25.3,46.5-36.5,65.8c-11.8,20.3-24.8,37.4-39.3,51.6c-14.5,14.2-31.1,25-49.8,32.6c-4,1.5-8.9,2.3-13.3,3.5
		c0,0-0.1,0-0.1,0h-54.2v132.5h54.3v-0.1c23.5-2,45.7-5.1,65-10.5c30.4-9.1,57.8-22.2,82-39.4c23.5-17.7,45-39.6,64.3-65.4
		c18.7-26.3,37.4-56.7,56.1-91.1c6.6-12.5,12.9-23.4,19.3-35l0.4,0.1l0.2-0.3l2-3.6h138.9v0.1h61.8V492H762V492H653.4
		c12.1-22.4,23.7-43.3,34.1-61.2c11.8-20.3,24.8-37.4,39.3-51.6s31.1-25,49.8-32.6c3.9-1.5,8.7-2.3,13.1-3.4h54.5V343H844V210.6
		L790.4,210.5L790.4,210.5L790.4,210.5z"/>
</g>
</svg>
