<?xml version="1.0" encoding="utf-8"?>
<!-- Generator: Adobe Illustrator 24.1.1, SVG Export Plug-In . SVG Version: 6.00 Build 0)  -->
<svg version="1.1" id="Capa_1" xmlns="http://www.w3.org/2000/svg" xmlns:xlink="http://www.w3.org/1999/xlink" x="0px" y="0px"
	 viewBox="0 0 1080 1080" style="enable-background:new 0 0 1080 1080;" xml:space="preserve">
<style type="text/css">
	.st0{fill:#FBC02D;fill-opacity:0.9765;}
</style>
<g transform="matrix(.96472 0 0 .96472 33.145 27.704)">
	<path class="st0" d="M-5.9-23.5l369.6,369.7H68.9L360.7,638H-7.4l446,446.1V715.9l0,0V346.2h0V136.6h222.8l97.3,97.3H542v365.2
		h105.2L764,715.9h-75.4l0,0v0H537.4l0,0v0h-1.5l1.5,1.5v368.2h520.8L871.1,898.5v-75.4l40.4,40.4V494.3h-74.8l0.1-182.3
		l143.6,143.6V85.9H670.8L561.3-23.5H351.8L-5.9-23.5z"/>
</g>
</svg>
