<?xml version="1.0" encoding="utf-8"?>
<!-- Generator: Adobe Illustrator 24.1.1, SVG Export Plug-In . SVG Version: 6.00 Build 0)  -->
<svg version="1.1" id="Capa_1" xmlns="http://www.w3.org/2000/svg" xmlns:xlink="http://www.w3.org/1999/xlink" x="0px" y="0px"
	 viewBox="0 0 1080 1080" style="enable-background:new 0 0 1080 1080;" xml:space="preserve">
<style type="text/css">
	.st0{fill:#616161;}
	.st1{fill-rule:evenodd;clip-rule:evenodd;fill:#FFFFFF;}
	.st2{fill-rule:evenodd;clip-rule:evenodd;fill:#FFD180;}
</style>
<path class="st0" d="M885.6,261.6H520.8L418.5,149.4c-9.7-14.7-29.2-19.5-43.8-19.5H97.4C43.9,129.9,5,173.8,5,227.4v584.7
	c0,53.6,38.9,97.5,92.4,97.5h793c48.6,0,92.4-43.9,92.4-97.5V359C978,305.4,939.2,261.6,885.6,261.6z"/>
<g>
	<path class="st1" d="M443.7,462.1l-84.2,0.5v53.2v432.9h83.7V758.5c140.3,7.9,201.9-26.6,206.3-148.3
		C647.1,491.6,581.6,462.1,443.7,462.1z M442.7,691.5l-0.5-165.5c91.9-5.9,137.6,22,136.9,83.7C578.5,671.5,533,698.8,442.7,691.5z"
		/>
	<polygon class="st2" points="1073,553.6 885.4,737.5 692.8,560.6 691.9,949.1 1075,950.1 	"/>
	<polygon class="st2" points="1072.1,460.1 691.9,462.1 884.9,645.7 	"/>
</g>
</svg>
