<?xml version="1.0" encoding="utf-8"?>
<!-- Generator: Adobe Illustrator 24.1.1, SVG Export Plug-In . SVG Version: 6.00 Build 0)  -->
<svg version="1.1" id="Capa_1" xmlns="http://www.w3.org/2000/svg" xmlns:xlink="http://www.w3.org/1999/xlink" x="0px" y="0px"
	 viewBox="0 0 1080 1080" style="enable-background:new 0 0 1080 1080;" xml:space="preserve">
<style type="text/css">
	.st0{fill:#5C6BC0;}
	.st1{fill-rule:evenodd;clip-rule:evenodd;fill:#C5CAE9;}
</style>
<path class="st0" d="M885.6,268.5H520.8L418.5,156.4c-9.7-14.7-29.2-19.5-43.8-19.5H97.4C43.9,136.9,5,180.8,5,234.4v584.7
	c0,53.6,38.9,97.5,92.4,97.5h793c48.6,0,92.4-43.9,92.4-97.5V365.9C978,312.3,939.2,268.5,885.6,268.5z"/>
<path class="st1" d="M518.1,612h45.2V491.6c0-33.4,27.1-60.2,60.2-60.2h120.4v-45.2c0-41.6,33.7-75.3,75.3-75.3l0,0
	c41.6,0,75.3,33.7,75.3,75.3v45.2h120.4c33.3,0,60.2,27,60.2,60.2V606h-45.2c-45.2,0-81.3,36.1-81.3,81.3
	c0,45.2,36.1,81.3,81.3,81.3h45.2v114.4c0,33.3-27,60.2-60.2,60.2H900.4V898c0-45.2-36.1-81.3-81.3-81.3
	c-45.2,0-81.3,36.1-81.3,81.3v45.2H623.5c-33.3,0-60.2-27-60.2-60.2V762.5h-45.2c-41.6,0-75.3-33.7-75.3-75.3l0,0
	C442.8,645.7,476.5,612,518.1,612z"/>
</svg>
