<?xml version="1.0" encoding="utf-8"?>
<!-- Generator: Adobe Illustrator 24.1.1, SVG Export Plug-In . SVG Version: 6.00 Build 0)  -->
<svg version="1.1" id="Capa_1" xmlns="http://www.w3.org/2000/svg" xmlns:xlink="http://www.w3.org/1999/xlink" x="0px" y="0px"
	 viewBox="0 0 1080 1080" style="enable-background:new 0 0 1080 1080;" xml:space="preserve">
<style type="text/css">
	.st0{fill:#F9A825;}
	.st1{fill:#FFF9C4;}
</style>
<path class="st0" d="M885.6,234.6H520.7L418.5,122.5c-9.7-14.6-29.2-19.5-43.8-19.5H97.4C43.9,103,5,146.9,5,200.5v584.8
	c0,53.6,38.9,97.5,92.4,97.5h793c48.6,0,92.4-43.9,92.4-97.5V332.1C978,278.5,939.1,234.6,885.6,234.6z M885.6,785.3H97.4V200.5H365
	l102.2,112.1c9.7,14.6,29.2,19.5,43.8,19.5h379.5v453.2H885.6z"/>
<path class="st1" d="M852.3,643H702.3v-72.6h150.1 M852.3,793H702.3v-72.6h150.1 M1075,492.9H968.5c-14.5-29-38.7-53.2-67.8-72.6
	l58.1-58.1L905.6,309l-82.3,82.3c-19.4-4.8-33.9-4.8-53.2-4.8c-19.4,0-33.9,0-53.2,4.8L644.2,309l-53.2,53.2l58.1,58.1
	c-29,19.4-48.4,43.6-67.8,72.6H474.8v72.6h77.4c0,14.5-4.8,24.2-4.8,38.7V643h-72.6v72.6h72.6v38.7c0,14.5,0,24.2,4.8,38.7h-77.4
	v72.6h106.5C620,933.4,692.6,977,774.9,977s154.9-43.6,193.6-111.3H1075V793h-77.4c0-14.5,4.8-24.2,4.8-38.7v-38.7h72.6V643h-72.6
	v-38.7c0-14.5,0-24.2-4.8-38.7h77.4L1075,492.9z"/>
</svg>
