<?xml version="1.0" encoding="utf-8"?>
<!-- Generator: Adobe Illustrator 24.1.1, SVG Export Plug-In . SVG Version: 6.00 Build 0)  -->
<svg version="1.1" id="Capa_1" xmlns="http://www.w3.org/2000/svg" xmlns:xlink="http://www.w3.org/1999/xlink" x="0px" y="0px"
	 viewBox="0 0 1080 1080" style="enable-background:new 0 0 1080 1080;" xml:space="preserve">
<style type="text/css">
	.st0{fill:#E57373;}
	.st1{fill-rule:evenodd;clip-rule:evenodd;fill:#FFCDD2;}
</style>
<path class="st0" d="M885.6,261.7H520.7L418.5,149.6c-9.7-14.6-29.2-19.5-43.8-19.5H97.4C43.9,130.1,5,174,5,227.6v584.8
	c0,53.6,38.9,97.5,92.4,97.5h793c48.6,0,92.4-43.9,92.4-97.5V359.2C978,305.6,939.1,261.7,885.6,261.7z M885.6,812.4H97.4V227.6H365
	l102.2,112.1c9.7,14.6,29.2,19.5,43.8,19.5h379.5v453.2H885.6z"/>
<path class="st1" d="M825.9,476h-127v-63.5h127 M1011.5,476h-127v-63.5L821,349H698.8l-63.5,63.5V476h-127
	c-34.2,0-63.5,29.3-63.5,63.5v346.9c0,34.2,29.3,63.5,63.5,63.5h503.2c34.2,0,63.5-29.3,63.5-63.5V539.5
	C1075,505.3,1045.7,476,1011.5,476L1011.5,476z"/>
</svg>
