<?xml version="1.0" encoding="utf-8"?>
<!-- Generator: Adobe Illustrator 24.1.1, SVG Export Plug-In . SVG Version: 6.00 Build 0)  -->
<svg version="1.1" id="Capa_1" xmlns="http://www.w3.org/2000/svg" xmlns:xlink="http://www.w3.org/1999/xlink" x="0px" y="0px"
	 viewBox="0 0 1080 1080" style="enable-background:new 0 0 1080 1080;" xml:space="preserve">
<style type="text/css">
	.st0{fill:#8BC34A;}
	.st1{fill:#DCEDC8;stroke:#DCEDC8;stroke-width:5.051249e-02;stroke-linejoin:round;stroke-miterlimit:1.7228;}
</style>
<path class="st0" d="M880.7,241.4H515.8L413.7,128.2c-9.7-14.8-29.2-19.7-43.8-19.7H92.6C43.9,108.6,5,152.8,5,206.9v590.3
	c0,54.1,38.9,98.4,92.4,98.4h793c48.6,0,92.4-44.3,92.4-98.4V339.7C973.1,285.6,939.1,241.4,880.7,241.4z M880.7,797.2h-793V206.9
	h267.6l102.2,113.1c9.7,14.8,29.2,19.7,43.8,19.7h379.5V797.2z"/>
<g transform="matrix(.17228 0 0 .17228 8.378 6.4364)">
	<path class="st1" d="M5019.7,4499c140.8-14.7,247.6-137.2,242.7-284.2s-126.2-264.6-271.9-264.6h-9.7
		c-150.5,4.9-267,132.3-262.1,284.2c4.9,73.5,34,137.2,77.7,181.3c-165.1,328.3-417.5,568.4-796.1,769.3
		c-257.3,137.2-524.3,186.2-791.3,151.9c-218.5-29.4-388.4-127.4-495.2-289.1c-155.3-240.1-169.9-499.8-38.8-759.5
		c92.2-186.2,237.9-323.4,330.1-392c-19.4-63.7-48.5-171.5-63.1-249.9c-703.9,514.5-631.1,1210.3-417.5,1538.6
		c160.2,245,485.5,396.9,844.7,396.9c97.1,0,194.2-9.8,291.3-34.3C4281.8,5425,4752.7,5052.6,5019.7,4499z"/>
	<path class="st1" d="M5874.1,3891.4c-368.9-436.1-912.6-676.2-1534-676.2h-77.7c-43.7-88.2-135.9-147-237.9-147h-9.7
		c-150.5,4.9-267,132.3-262.1,284.2c4.9,147,126.2,264.6,271.9,264.6h9.7c106.8-4.9,199-73.5,237.9-166.6h87.4
		c368.9,0,718.5,107.8,1034,318.5c242.7,161.7,417.5,372.4,514.6,627.2c82.5,205.8,77.7,406.7-9.7,578.2
		c-135.9,259.7-364.1,401.8-665.1,401.8c-194.2,0-378.7-58.8-475.7-102.9c-53.4,49-150.5,127.4-218.5,176.4
		c208.7,98,422.3,151.9,626.2,151.9c466,0,810.7-259.7,941.8-519.4C6247.9,4797.8,6238.1,4307.9,5874.1,3891.4z"/>
	<path class="st1" d="M3408,4582.2c4.9,147,126.2,264.6,271.9,264.6h9.7c150.5-4.9,267-132.3,262.1-284.2
		c-4.9-147-126.2-264.6-271.9-264.6h-9.7c-9.7,0-24.3,0-34,4.9c-199-333.2-281.6-695.8-252.4-1087.8
		c19.4-294,116.5-548.8,286.4-759.5c140.8-181.3,412.6-269.5,597.1-274.4c514.6-9.8,733,637,747.6,896.7
		c63.1,14.7,169.9,49,242.7,73.5c-58.3-793.8-543.7-1205.4-1009.7-1205.4c-436.9,0-839.8,318.5-1000,788.9
		c-223.3,627.2-77.7,1229.9,194.2,1705.2C3417.7,4474.5,3403.1,4528.4,3408,4582.2z"/>
</g>
</svg>
