<?xml version="1.0" encoding="utf-8"?>
<!-- Generator: Adobe Illustrator 27.0.0, SVG Export Plug-In . SVG Version: 6.00 Build 0)  -->
<svg version="1.1" id="Capa_1" xmlns="http://www.w3.org/2000/svg" xmlns:xlink="http://www.w3.org/1999/xlink" x="0px" y="0px"
	 viewBox="0 0 1080 1080" style="enable-background:new 0 0 1080 1080;" xml:space="preserve">
<style type="text/css">
	.st0{fill:#8D6E63;}
	.st1{fill-rule:evenodd;clip-rule:evenodd;fill:#D7CCC8;}
</style>
<path class="st0" d="M891.45,226.02H497.47l-98.49-98.49H103.49C48.83,127.53,5,171.36,5,226.02v590.97
	c0,54.02,44.47,98.49,98.49,98.49h787.96c54.02,0,98.49-44.47,98.49-98.49V324.52C989.95,270.12,945.85,226.02,891.45,226.02z"/>
<path class="st1" d="M1033.44,763.56H482.41c-22.96,0-41.56,18.61-41.56,41.56v105.78c0,22.96,18.61,41.56,41.56,41.56h551.03
	c22.96,0,41.56-18.61,41.56-41.56V805.12C1075,782.17,1056.39,763.56,1033.44,763.56z"/>
</svg>
