<?xml version="1.0" encoding="utf-8"?>
<!-- Generator: Adobe Illustrator 24.1.1, SVG Export Plug-In . SVG Version: 6.00 Build 0)  -->
<svg version="1.1" id="Capa_1" xmlns="http://www.w3.org/2000/svg" xmlns:xlink="http://www.w3.org/1999/xlink" x="0px" y="0px"
	 viewBox="0 0 1080 1080" style="enable-background:new 0 0 1080 1080;" xml:space="preserve">
<style type="text/css">
	.st0{fill:#00BCD4;}
	.st1{fill-rule:evenodd;clip-rule:evenodd;fill:#B2EBF2;}
</style>
<path class="st0" d="M885.6,266.9H520.8L418.5,154.8c-9.7-14.7-29.2-19.5-43.8-19.5H97.4C43.9,135.3,5,179.2,5,232.8v584.7
	C5,871.1,43.9,915,97.4,915h793c48.6,0,92.4-43.9,92.4-97.5V364.3C978,310.7,939.2,266.9,885.6,266.9z"/>
<path class="st1" d="M793.1,654.2h197.3v48.4H793.1V654.2z M793.1,573.6h197.3V622H793.1V573.6z M793.1,734.9h197.3v48.4H793.1
	V734.9z M1018.6,396.1H511.1c-31,0-56.4,29.1-56.4,64.6v419.6c0,35.5,25.3,64.5,56.4,64.5h507.5c31,0,56.4-29,56.4-64.6V460.6
	C1075,425.1,1049.7,396.1,1018.6,396.1L1018.6,396.1z M1018.6,880.2H764.9V460.6h253.7V880.2z"/>
</svg>
