<?xml version="1.0" encoding="utf-8"?>
<!-- Generator: Adobe Illustrator 24.1.1, SVG Export Plug-In . SVG Version: 6.00 Build 0)  -->
<svg version="1.1" id="Capa_1" xmlns="http://www.w3.org/2000/svg" xmlns:xlink="http://www.w3.org/1999/xlink" x="0px" y="0px"
	 viewBox="0 0 1080 1080" style="enable-background:new 0 0 1080 1080;" xml:space="preserve">
<style type="text/css">
	.st0{fill:#009688;}
	.st1{fill-rule:evenodd;clip-rule:evenodd;fill:#B2DFDB;}
</style>
<path class="st0" d="M885.6,239.7H520.7L418.5,127.6c-9.7-14.6-29.2-19.5-43.8-19.5H97.4C43.9,108.1,5,151.9,5,205.5v584.8
	c0,53.6,38.9,97.5,92.4,97.5h793c48.6,0,92.4-43.9,92.4-97.5V337.1C978,283.5,939.1,239.7,885.6,239.7z M885.6,790.3H97.4V205.5H365
	l102.2,112.1c9.7,14.6,29.2,19.5,43.8,19.5h379.5v453.2H885.6z"/>
<path class="st1" d="M1008.7,411.3H575.5c-35.7,0-61.2,30.6-61.2,61.2v438.3c0,35.7,30.6,61.2,61.2,61.2h438.3
	c35.7,0,61.2-25.5,61.2-61.2V472.5C1069.9,436.8,1044.4,411.3,1008.7,411.3z M575.5,472.5h91.7c0,51-40.8,91.7-91.7,91.7V472.5z
	 M575.5,691.6v-61.2c86.6,0,158-71.4,158-158h61.2C789.6,594.8,692.8,691.6,575.5,691.6L575.5,691.6z M575.5,880.2l107-142.7
	l76.4,91.7l107-142.7l142.7,188.6H575.5V880.2z"/>
</svg>
