<?xml version="1.0" encoding="utf-8"?>
<!-- Generator: Adobe Illustrator 27.0.0, SVG Export Plug-In . SVG Version: 6.00 Build 0)  -->
<svg version="1.1" id="Capa_1" xmlns="http://www.w3.org/2000/svg" xmlns:xlink="http://www.w3.org/1999/xlink" x="0px" y="0px"
	 viewBox="0 0 1080 1080" style="enable-background:new 0 0 1080 1080;" xml:space="preserve">
<style type="text/css">
	.st0{fill:#448AFF;}
	.st1{fill:#BBDEFB;}
</style>
<path class="st0" d="M886.83,258.28H521.48L419.12,146.04c-9.7-14.6-29.19-19.5-43.88-19.5H97.56C43.99,126.54,5,170.42,5,224.11
	v585.64c0,53.68,38.99,97.56,92.56,97.56h794.16c48.68,0,92.56-43.88,92.56-97.56v-453.8C979.39,302.27,940.51,258.28,886.83,258.28
	L886.83,258.28z M886.83,809.74H97.56V224.11h267.98l102.36,112.25c9.7,14.6,29.19,19.5,43.88,19.5h380.03v453.91h-5L886.83,809.74z
	"/>
<path class="st1" d="M814.56,693.02c-13.04,12.21-13.71,32.68-1.49,45.72c0.48,0.51,0.98,1.01,1.49,1.49
	c13.06,12.97,34.15,12.97,47.21,0c64.84-64.94,64.84-170.13,0-235.07L744.09,387.43c-64.94-64.84-170.13-64.84-235.07,0
	c-64.84,64.94-64.84,170.13,0,235.07l49.48,49.58c-0.4-27.4,4.11-54.65,13.31-80.47l-15.57-15.97
	c-38.93-38.51-39.28-101.28-0.77-140.22c0.26-0.26,0.51-0.52,0.77-0.77c38.52-38.92,101.3-39.24,140.22-0.72
	c0.24,0.24,0.48,0.48,0.72,0.72l117.38,117.38c38.93,38.51,39.28,101.28,0.77,140.22C815.08,692.5,814.82,692.76,814.56,693.02
	 M720.78,552.02c-13.06-12.97-34.15-12.97-47.21,0c-64.84,64.94-64.84,170.13,0,235.07L791.3,904.83
	c64.94,64.84,170.13,64.84,235.07,0c64.84-64.94,64.84-170.13,0-235.07l-49.53-49.58c0.37,27.51-4.13,54.88-13.31,80.82l15.62,15.62
	c38.93,38.51,39.28,101.28,0.77,140.22c-0.26,0.26-0.51,0.52-0.77,0.77c-38.51,38.93-101.28,39.28-140.22,0.77
	c-0.26-0.26-0.52-0.51-0.77-0.77L720.78,740.23c-38.93-38.51-39.28-101.28-0.77-140.22c0.26-0.26,0.51-0.52,0.77-0.77
	c13.04-12.21,13.71-32.68,1.49-45.72C721.79,553,721.3,552.51,720.78,552.02z"/>
</svg>
