<?xml version="1.0" encoding="utf-8"?>
<!-- Generator: Adobe Illustrator 24.1.1, SVG Export Plug-In . SVG Version: 6.00 Build 0)  -->
<svg version="1.1" id="Capa_1" xmlns="http://www.w3.org/2000/svg" xmlns:xlink="http://www.w3.org/1999/xlink" x="0px" y="0px"
	 viewBox="0 0 1080 1080" style="enable-background:new 0 0 1080 1080;" xml:space="preserve">
<style type="text/css">
	.st0{fill:#757575;}
	.st1{fill-rule:evenodd;clip-rule:evenodd;fill:#FC6D26;}
	.st2{fill-rule:evenodd;clip-rule:evenodd;fill:#E24329;}
	.st3{fill-rule:evenodd;clip-rule:evenodd;fill:#FCA326;}
</style>
<path class="st0" d="M885.6,267.1H520.8L418.5,155c-9.7-14.7-29.2-19.5-43.8-19.5H97.4C43.9,135.4,5,179.3,5,232.9v584.7
	c0,53.6,38.9,97.5,92.4,97.5h793c48.6,0,92.4-43.9,92.4-97.5V364.5C978,310.9,939.2,267.1,885.6,267.1z"/>
<g transform="matrix(.027417 0 0 .027417 7.6895 5.6181)">
	<g id="logo-extra-whitespace">
		<g id="logo-no-bg" transform="translate(98,118)">
			<g id="gitlab_logo">
				<g transform="matrix(1 0 0 -1 0 457.33)">
					<g id="g18-Clipped">
						<g id="Group" transform="translate(.66666 .66666)">
							<g transform="translate(.532 .77493)">
								<path class="st1" d="M38784.8-24278.6l-1332.6,4101.1l-2640.9,8128.2c-135.8,418.2-727.5,418.2-863.4,0l-2641-8128.2H22537
									l-2641.1,8128.2c-135.8,418.2-727.5,418.2-863.4,0l-2640.9-8128.2l-1332.5-4101.1c-121.6-374.1,11.6-783.9,329.8-1015
									l11532.8-8379.2l11532.8,8379.2c318.2,231.2,451.3,641,329.8,1015"/>
							</g>
							<g transform="translate(156.2 1.1603)">
								<path class="st2" d="M26766.4-33673.3l4384.9,13495.5h-8769.9L26766.4-33673.3z"/>
							</g>
							<g transform="translate(28.531 1.1608)">
								<path class="st1" d="M26894.2-33673.3l-4384.9,13495H16364L26894.2-33673.3z"/>
							</g>
							<g transform="translate(.088533 .25587)">
								<path class="st3" d="M16392.2-20177.1l-1332.6-4101.1c-121.5-374.1,11.6-783.9,329.8-1015l11532.8-8379.2L16392.2-20177.1z"
									/>
							</g>
							<g transform="translate(29.422 280.26)">
								<path class="st2" d="M16362.9-20456.9h6145.2l-2641,8128.2c-135.9,418.2-727.6,418.2-863.4,0L16362.9-20456.9z"/>
							</g>
							<g transform="translate(247.2 1.1608)">
								<path class="st1" d="M26675.4-33673.3l4384.9,13495h6145.2L26675.4-33673.3z"/>
							</g>
							<g transform="translate(246.31 .25587)">
								<path class="st3" d="M37206.7-20177.1l1332.6-4101.1c121.5-374.1-11.6-783.9-329.8-1015l-11532.8-8379.2L37206.7-20177.1z"
									/>
							</g>
							<g transform="translate(336.97 280.26)">
								<path class="st2" d="M37115.6-20456.9h-6145.2l2641,8128.2c135.9,418.2,727.6,418.2,863.4,0L37115.6-20456.9z"/>
							</g>
						</g>
					</g>
				</g>
			</g>
		</g>
	</g>
</g>
</svg>
