<?xml version="1.0" encoding="utf-8"?>
<!-- Generator: Adobe Illustrator 24.1.1, SVG Export Plug-In . SVG Version: 6.00 Build 0)  -->
<svg version="1.1" id="Capa_1" xmlns="http://www.w3.org/2000/svg" xmlns:xlink="http://www.w3.org/1999/xlink" x="0px" y="0px"
	 viewBox="0 0 1080 1080" style="enable-background:new 0 0 1080 1080;" xml:space="preserve">
<style type="text/css">
	.st0{fill:#26A69A;}
	.st1{fill-rule:evenodd;clip-rule:evenodd;fill:#B2DFDB;}
</style>
<path class="st0" d="M885.6,262.7H520.8L418.5,150.5c-9.7-14.7-29.2-19.5-43.8-19.5H97.4C43.9,131,5,174.9,5,228.5v584.7
	c0,53.6,38.9,97.5,92.4,97.5h793c48.6,0,92.4-43.9,92.4-97.5V360.1C978,306.5,939.2,262.7,885.6,262.7z"/>
<path class="st1" d="M753.5,773.6L636.6,656.7l41.2-41.2l75.7,75.4l192.6-192.6l41.2,41.5 M812,306l-263,116.9v175.4
	c0,162.2,112.2,313.9,263,350.7c150.8-36.8,263-188.5,263-350.7V422.9L812,306z"/>
</svg>
