<?xml version="1.0" encoding="utf-8"?>
<!-- Generator: Adobe Illustrator 24.1.1, SVG Export Plug-In . SVG Version: 6.00 Build 0)  -->
<svg version="1.1" id="Capa_1" xmlns="http://www.w3.org/2000/svg" xmlns:xlink="http://www.w3.org/1999/xlink" x="0px" y="0px"
	 viewBox="0 0 1080 1080" style="enable-background:new 0 0 1080 1080;" xml:space="preserve">
<style type="text/css">
	.st0{fill:#1E88E5;}
	.st1{fill:#E3F2FD;stroke:#E3F2FD;stroke-width:1.577945e-02;stroke-linejoin:round;stroke-miterlimit:10;}
</style>
<path class="st0" d="M885.6,262H520.7L418.5,149.9c-9.7-14.6-29.2-19.5-43.8-19.5H97.4C43.9,130.4,5,174.3,5,227.9v584.8
	c0,53.6,38.9,97.5,92.4,97.5h793c48.6,0,92.4-43.9,92.4-97.5V359.5C978,305.9,939.1,262,885.6,262z M885.6,812.7H97.4V227.9H365
	L467.2,340c9.7,14.6,29.2,19.5,43.8,19.5h379.5v453.2H885.6z"/>
<g transform="matrix(.048702 0 0 .048702 11.105 8.6833)">
	<g>
		<path class="st1" d="M15342.2,7167.1c-752,68.8-1430.3,580-1671.2,1346.8c-157.3,501.3-103.2,1017.4,113,1450l-2182.3,1626.9
			c-49.2-29.5-108.1-59-167.1-73.7c-408-127.8-845.4,93.4-973.2,506.3c-127.8,408,98.3,845.4,506.3,973.2
			c408,127.8,845.4-93.4,973.2-506.3c44.2-142.5,44.2-290,9.8-422.7l2698.4-1985.7c-353.9-334.2-540.7-884.7-383.4-1381.2
			c221.2-688.1,958.5-1071.5,1646.6-855.2c550.5,176.9,904.4,683.2,914.2,1228.8l629.1,14.7c-4.9-820.8-530.8-1577.8-1351.7-1843.2
			C15848.5,7167.1,15592.9,7142.5,15342.2,7167.1L15342.2,7167.1z M15578.2,8400.8c-427.6,0-776.6,349-776.6,776.6
			c0,427.6,349,776.6,776.6,776.6c152.4,0,290-44.2,408-118l2718.1,1980.8c211.4-442.4,678.3-786.4,1199.3-786.4
			c727.4,0,1317.3,589.8,1317.3,1312.3c0,580-378.5,1071.5-899.5,1248.4l176.9,604.6c781.5-250.7,1346.8-987.9,1346.8-1853
			c0-1076.4-870-1946.4-1946.4-1946.4c-525.9,0-1002.7,211.4-1351.7,550.5l-2216.7-1587.6c14.7-59,19.7-118,19.7-181.9
			C16354.8,8749.8,16005.8,8400.8,15578.2,8400.8L15578.2,8400.8z M11203.7,10288.2c-599.6-4.9-1189.5,265.4-1567.9,781.5
			c-624.2,855.2-432.5,2064.4,432.5,2693.5c422.7,309.7,929,422.7,1410.6,358.8l860.2,2570.6c-44.2,39.3-88.5,78.6-122.9,132.7
			c-250.7,344.1-172,825.7,172,1076.4c344.1,250.7,830.7,176.9,1081.3-162.2c250.7-344.1,172-825.7-172-1076.4
			c-122.9-88.5-260.5-137.6-398.1-147.5l-1037.1-3175.2c-427.6,226.1-1002.7,231-1425.4-78.6
			c-584.9-427.6-717.6-1243.5-294.9-1823.5c339.1-462,929-634.1,1450-466.9l206.4-584.9
			C11601.8,10322.6,11405.2,10293.1,11203.7,10288.2L11203.7,10288.2z M19933,11566.1c-98.3-9.8-206.4,0-304.7,34.4
			c-408,132.7-629.1,565.2-501.3,973.2c44.2,142.5,127.8,260.5,235.9,349L18315.9,16093c481.7,63.9,953.5,398.1,1110.8,894.6
			c221.2,683.2-157.3,1420.5-845.4,1641.7c-550.5,176.9-1130.5-24.6-1454.9-462l-521,353.9c476.8,663.5,1346.8,968.3,2167.6,702.9
			c1017.4-329.3,1577.8-1415.6,1248.4-2428.1c-162.2-496.4-501.3-879.8-929-1110.8l830.7-2580.5c59-4.9,118-14.7,176.9-34.4
			c408-132.7,629.1-565.2,501.3-968.3C20503.2,11792.2,20232.8,11590.7,19933,11566.1L19933,11566.1z M11292.2,16176.6
			c-481.7,663.5-506.3,1582.7,4.9,2275.7c629.1,860.2,1838.3,1051.8,2703.3,417.8c422.7-309.7,683.2-756.9,761.8-1233.7l2713.2-24.6
			c24.6,54.1,54.1,108.1,88.5,157.3c250.7,344.1,737.3,417.8,1081.3,167.1c344.1-250.7,417.8-737.3,167.1-1081.3
			c-250.7-344.1-737.3-417.8-1081.3-167.1c-122.9,88.5-206.4,206.4-260.5,334.2l-3342.3,9.8c88.5,476.8-83.6,1032.2-501.3,1336.9
			c-584.9,427.6-1400.8,299.8-1828.4-285.1c-339.1-466.9-329.3-1081.3-9.8-1528.6L11292.2,16176.6z"/>
	</g>
</g>
</svg>
