<?xml version="1.0" encoding="utf-8"?>
<!-- Generator: Adobe Illustrator 24.1.1, SVG Export Plug-In . SVG Version: 6.00 Build 0)  -->
<svg version="1.1" id="Capa_1" xmlns="http://www.w3.org/2000/svg" xmlns:xlink="http://www.w3.org/1999/xlink" x="0px" y="0px"
	 viewBox="0 0 1080 1080" style="enable-background:new 0 0 1080 1080;" xml:space="preserve">
<style type="text/css">
	.st0{fill:#EC407A;}
	
		.st1{fill-rule:evenodd;clip-rule:evenodd;fill:#F8BBD0;stroke:#F8BBD0;stroke-width:0.3365;stroke-linejoin:round;stroke-miterlimit:10;}
</style>
<path class="st0" d="M885.6,256.2H520.8L418.5,144.1c-9.7-14.7-29.2-19.5-43.8-19.5H97.4C43.9,124.6,5,168.4,5,222v584.7
	c0,53.6,38.9,97.5,92.4,97.5h793c48.6,0,92.4-43.9,92.4-97.5V353.6C978,300,939.2,256.2,885.6,256.2z"/>
<path class="st1" d="M1045,706.6c-5-2.9-10.3-5-15.7-6.3v-159c5.4-1.3,10.8-3.4,15.9-6.3c28.5-16.6,38.3-53,21.9-81.5
	c-16.6-28.5-53-38.3-81.5-21.9c-5.1,3-9.7,6.6-13.5,10.7l-137.7-79.5c1.6-5.4,2.5-11.1,2.5-17c0-33-26.7-59.7-59.7-59.7
	c-33,0-59.7,26.7-59.7,59.7c0,5.9,0.9,11.6,2.5,17l-137.7,79.5c-3.9-4.1-8.4-7.7-13.5-10.7c-28.5-16.4-65.1-6.7-81.5,21.9
	c-16.4,28.5-6.7,65.1,21.9,81.5c5.1,2.9,10.4,5,15.9,6.3v159c-5.4,1.3-10.7,3.4-15.7,6.3c-28.5,16.6-38.3,53-21.9,81.5v0
	c16.4,28.5,52.8,38.3,81.5,21.9c5.1-2.9,9.5-6.5,13.3-10.5l137.6,79.5c-1.6,5.4-2.4,11-2.4,16.9c0,33,26.7,59.7,59.7,59.7
	s59.7-26.8,59.7-59.7c0-6.6-1.1-12.9-3-18.8l136.8-79c4.1,4.6,9.1,8.7,14.7,12c28.5,16.4,65.1,6.7,81.5-21.9
	C1083.4,759.5,1073.7,723.1,1045,706.6z M597.1,744.2c-1.3-5.4-3.4-10.7-6.3-15.7c-2.9-5-6.5-9.5-10.5-13.3L760.5,403
	c5.3,1.5,10.8,2.4,16.6,2.4c5.8,0,11.4-0.8,16.7-2.4l180.2,312.1c-4,3.8-7.6,8.3-10.5,13.4c-2.9,5-5,10.3-6.3,15.7H597.1z
	 M958,466.9c-4.3,15-2.7,31.6,5.7,46.1c8.4,14.6,22.1,24.3,37.3,28.1v159.2c-0.8,0.2-1.5,0.4-2.3,0.6L818.4,388.8
	c0.5-0.5,1.1-1,1.6-1.6L958,466.9z M734.2,387.2c0.6,0.6,1.1,1.1,1.7,1.7L555.7,701c-0.8-0.2-1.6-0.4-2.3-0.6V541.1
	c15.2-3.8,28.9-13.4,37.3-28.1c8.4-14.6,9.9-31.2,5.6-46.2L734.2,387.2z M821.2,855.6c-10.9-12-26.6-19.5-44.1-19.5
	c-16.9,0-32.1,7-43,18.3l-137.8-79.5c0.2-0.8,0.4-1.5,0.6-2.3h360.2c0.3,1.3,0.7,2.6,1.1,3.9L821.2,855.6z"/>
</svg>
