<?xml version="1.0" encoding="utf-8"?>
<!-- Generator: Adobe Illustrator 24.1.1, SVG Export Plug-In . SVG Version: 6.00 Build 0)  -->
<svg version="1.1" id="Capa_1" xmlns="http://www.w3.org/2000/svg" xmlns:xlink="http://www.w3.org/1999/xlink" x="0px" y="0px"
	 viewBox="0 0 1080 1080" style="enable-background:new 0 0 1080 1080;" xml:space="preserve">
<style type="text/css">
	.st0{fill:#FBC02D;}
	.st1{fill-rule:evenodd;clip-rule:evenodd;fill:#FFFDE7;}
</style>
<path class="st0" d="M885.6,250.8H520.7L418.6,138.7c-9.7-14.7-29.2-19.5-43.8-19.5H97.4C43.9,119.2,5,163.1,5,216.6v584.8
	c0,53.6,38.9,97.5,92.4,97.5h793c48.7,0,92.4-43.9,92.4-97.5V348.2C978,294.6,939.2,250.8,885.6,250.8z"/>
<path class="st1" d="M505.7,838.9h122v122H709V757.5H505.7L505.7,838.9z M627.7,513.6h-122v81.3H709V391.6h-81.3V513.6z
	 M871.7,960.8H953v-122h122v-81.3H871.7V960.8z M953,513.6v-122h-81.3v203.3H1075v-81.2L953,513.6z"/>
</svg>
