<?xml version="1.0" encoding="utf-8"?>
<!-- Generator: Adobe Illustrator 24.1.1, SVG Export Plug-In . SVG Version: 6.00 Build 0)  -->
<svg version="1.1" id="Capa_1" xmlns="http://www.w3.org/2000/svg" xmlns:xlink="http://www.w3.org/1999/xlink" x="0px" y="0px"
	 viewBox="0 0 1080 1080" style="enable-background:new 0 0 1080 1080;" xml:space="preserve">
<style type="text/css">
	.st0{fill:#5C6BC0;}
	.st1{fill:#C5CAE9;}
</style>
<path class="st0" d="M885.6,246H520.7L418.5,133.9c-9.7-14.6-29.2-19.5-43.8-19.5H97.4C43.9,114.4,5,158.3,5,211.9v584.8
	c0,53.6,38.9,97.5,92.4,97.5h793c48.6,0,92.4-43.9,92.4-97.5V343.4C978,289.8,939.1,246,885.6,246z M885.6,796.7H97.4V211.9H365
	L467.2,324c9.7,14.6,29.2,19.5,43.8,19.5h379.5v453.2H885.6z"/>
<path class="st1" d="M952.3,828.2c-9.8-24.5-29.4-39.3-58.9-39.3H864v-88.3c0-14.7-14.7-29.4-29.4-29.4l0,0H652.9v-58.9h58.9
	c14.7,0,29.4-14.7,29.4-29.4l0,0v-58.9h58.9c34.4,0,58.9-24.5,58.9-58.9v-9.8c88.3,34.4,147.2,122.7,147.2,220.9
	C1016.1,730,991.6,784,952.3,828.2 M746.2,901.8c-117.8-14.7-211-112.9-211-235.6c0-19.6,0-34.4,4.9-54l142.3,142.3V784
	c0,34.4,24.5,58.9,58.9,58.9 M775.6,366.8c-166.9,0-299.4,132.5-299.4,299.4l0,0c0,166.9,132.5,299.4,299.4,299.4
	S1075,833.1,1075,666.2S942.5,366.8,775.6,366.8z"/>
</svg>
