<?xml version="1.0" encoding="utf-8"?>
<!-- Generator: Adobe Illustrator 27.0.0, SVG Export Plug-In . SVG Version: 6.00 Build 0)  -->
<svg version="1.1" id="Capa_1" xmlns="http://www.w3.org/2000/svg" xmlns:xlink="http://www.w3.org/1999/xlink" x="0px" y="0px"
	 viewBox="0 0 1080 1080" style="enable-background:new 0 0 1080 1080;" xml:space="preserve">
<style type="text/css">
	.st0{fill:#41B883;}
	.st1{fill-rule:evenodd;clip-rule:evenodd;fill:#E8F5E9;}
	.st2{fill-rule:evenodd;clip-rule:evenodd;fill:#41B883;}
	.st3{fill-rule:evenodd;clip-rule:evenodd;fill:#35495E;}
</style>
<path class="st0" d="M886.97,260.37h-365.4L419.19,148.11c-9.7-14.6-29.19-19.5-43.88-19.5H97.58C43.99,128.61,5,172.49,5,226.19
	v585.73c0,53.68,38.99,97.58,92.58,97.58h794.29c48.68,0,92.58-43.88,92.58-97.58V358.05C979.55,304.36,940.66,260.37,886.97,260.37
	L886.97,260.37z M886.97,811.92H97.58V226.19H365.6l102.38,112.27c9.7,14.6,29.19,19.5,43.88,19.5h380.09v453.98h-5L886.97,811.92z"
	/>
<path class="st1" d="M656.49,360.56c-40.79,0-73.85,33.07-73.85,73.85v443.12c0,40.79,33.07,73.85,73.85,73.85h344.65
	c40.79,0,73.85-33.07,73.85-73.85V434.42c0-40.79-33.07-73.85-73.85-73.85L656.49,360.56z"/>
<path class="st2" d="M657.63,508.32l171.19,295.42L999.96,509.7v-1.48H933.5L829.85,686.21L726.71,508.27L657.63,508.32z"/>
<path class="st3" d="M726.66,508.32l103.15,177.99l103.64-177.99h-62.48l-40.82,70.01l-40.62-70.01H726.66z"/>
</svg>
