<?xml version="1.0" encoding="utf-8"?>
<!-- Generator: Adobe Illustrator 24.1.1, SVG Export Plug-In . SVG Version: 6.00 Build 0)  -->
<svg version="1.1" id="Capa_1" xmlns="http://www.w3.org/2000/svg" xmlns:xlink="http://www.w3.org/1999/xlink" x="0px" y="0px"
	 viewBox="0 0 1080 1080" style="enable-background:new 0 0 1080 1080;" xml:space="preserve">
<style type="text/css">
	.st0{fill:#FF7043;}
	.st1{fill:#FFCCBC;}
</style>
<path class="st0" d="M880.7,237.5H515.8L413.7,125.4c-9.7-14.6-29.2-19.5-43.8-19.5H92.6C43.9,105.9,5,149.8,5,203.4v584.8
	c0,53.6,38.9,97.5,92.4,97.5h793c48.6,0,92.4-43.9,92.4-97.5V335C973.1,281.4,939.1,237.5,880.7,237.5z M880.7,788.2h-793V203.4
	h267.6l102.2,112.1c9.7,14.6,29.2,19.5,43.8,19.5h379.5V788.2z"/>
<path class="st1" d="M769.3,362.7c167.6,0,305.7,138.1,305.7,305.7l0,0c0,167.6-138.1,305.7-305.7,305.7l0,0
	c-167.6,0-305.7-138.1-305.7-305.7l0,0C468.5,500.7,601.7,362.7,769.3,362.7L769.3,362.7 M769.3,624c-24.7,0-44.4,19.7-44.4,44.4
	l0,0c0,24.7,19.7,44.4,44.4,44.4l0,0c24.7,0,44.4-19.7,44.4-44.4l0,0C818.6,643.7,798.9,624,769.3,624L769.3,624 M601.7,624
	c-24.7,0-44.4,19.7-44.4,44.4l0,0c0,24.7,19.7,44.4,44.4,44.4l0,0c24.7,0,44.4-19.7,44.4-44.4l0,0C651,643.7,626.3,624,601.7,624
	L601.7,624 M936.9,624c-24.7,0-44.4,19.7-44.4,44.4l0,0c0,24.7,19.7,44.4,44.4,44.4l0,0c24.7,0,44.4-19.7,44.4-44.4l0,0
	C986.2,643.7,966.5,624,936.9,624L936.9,624z"/>
</svg>
