<?xml version="1.0" encoding="utf-8"?>
<!-- Generator: Adobe Illustrator 24.1.1, SVG Export Plug-In . SVG Version: 6.00 Build 0)  -->
<svg version="1.1" id="Capa_1" xmlns="http://www.w3.org/2000/svg" xmlns:xlink="http://www.w3.org/1999/xlink" x="0px" y="0px"
	 viewBox="0 0 1080 1080" style="enable-background:new 0 0 1080 1080;" xml:space="preserve">
<style type="text/css">
	.st0{fill:#FBC02D;}
	.st1{fill-rule:evenodd;clip-rule:evenodd;fill:#FFF9C4;}
</style>
<path class="st0" d="M885.6,247.7H520.8L418.5,135.6c-9.7-14.7-29.2-19.5-43.8-19.5H97.4C43.9,116.1,5,159.9,5,213.5v584.7
	c0,53.6,38.9,97.5,92.4,97.5h793c48.6,0,92.4-43.9,92.4-97.5V345.1C978,291.5,939.2,247.7,885.6,247.7z"/>
<path class="st1" d="M1075,835.5v32.1H497.1v-32.1l64.2-64.2V578.7c0-99.5,65.2-187.2,160.5-215.4v-9.3c0-35.5,28.7-64.2,64.2-64.2
	l0,0c35.5,0,64.2,28.7,64.2,64.2l0,0v9.3c95.4,28.3,160.5,115.9,160.5,215.4v192.6L1075,835.5 M850.3,899.7
	c0,35.5-28.7,64.2-64.2,64.2l0,0c-35.5,0-64.2-28.7-64.2-64.2l0,0"/>
</svg>
