<?xml version="1.0" encoding="utf-8"?>
<!-- Generator: Adobe Illustrator 24.1.1, SVG Export Plug-In . SVG Version: 6.00 Build 0)  -->
<svg version="1.1" id="Capa_1" xmlns="http://www.w3.org/2000/svg" xmlns:xlink="http://www.w3.org/1999/xlink" x="0px" y="0px"
	 viewBox="0 0 1080 1080" style="enable-background:new 0 0 1080 1080;" xml:space="preserve">
<style type="text/css">
	.st0{fill:#1976D2;}
	.st1{fill-rule:evenodd;clip-rule:evenodd;fill:#BBDEFB;}
</style>
<path class="st0" d="M885.6,266.3H520.8L418.5,154.1c-9.7-14.7-29.2-19.5-43.8-19.5H97.4C43.9,134.6,5,178.5,5,232.1v584.7
	c0,53.6,38.9,97.5,92.4,97.5h793c48.6,0,92.4-43.9,92.4-97.5V363.7C978,310.1,939.2,266.3,885.6,266.3z"/>
<path class="st1" d="M491.2,426.5h64.9v-64.9C520.4,361.6,491.2,390.8,491.2,426.5z M491.2,685.9h64.9v-64.8h-64.9V685.9z
	 M621,945.4h64.9v-64.9H621V945.4z M491.2,556.2h64.9v-64.8h-64.9V556.2z M815.6,361.6h-64.9v64.9h64.9L815.6,361.6z M1010.2,361.6
	v64.9h64.8C1075,390.8,1045.8,361.6,1010.2,361.6z M556.1,945.4v-64.9h-64.9C491.2,916.2,520.4,945.4,556.1,945.4z M491.2,815.6
	h64.9v-64.8h-64.9V815.6z M685.8,361.6H621v64.9h64.9V361.6z M750.7,945.4h64.9v-64.9h-64.9L750.7,945.4z M1010.2,685.9h64.8v-64.9
	h-64.8V685.9z M1010.2,945.4c35.6,0,64.8-29.2,64.8-64.9h-64.8V945.4z M1010.2,556.2h64.8v-64.8h-64.8V556.2z M1010.2,815.7h64.8
	v-64.8h-64.8V815.7z M880.4,945.4h64.9v-64.9h-64.9V945.4z M880.4,426.5h64.9v-64.9h-64.9V426.5z M621,815.6h324.3V491.4H620.9
	L621,815.6z M685.8,556.2h194.6v194.6H685.8L685.8,556.2z"/>
</svg>
