<?xml version="1.0" encoding="utf-8"?>
<!-- Generator: Adobe Illustrator 24.1.1, SVG Export Plug-In . SVG Version: 6.00 Build 0)  -->
<svg version="1.1" id="Capa_1" xmlns="http://www.w3.org/2000/svg" xmlns:xlink="http://www.w3.org/1999/xlink" x="0px" y="0px"
	 viewBox="0 0 1080 1080" style="enable-background:new 0 0 1080 1080;" xml:space="preserve">
<style type="text/css">
	.st0{fill:#0288D1;}
	.st1{fill-rule:evenodd;clip-rule:evenodd;fill:#90CAF9;}
</style>
<path class="st0" d="M880.7,252.4H515.8L413.7,140.3c-9.7-14.6-29.2-19.5-43.8-19.5H92.6C43.9,120.9,5,164.7,5,218.3v584.8
	c0,53.6,38.9,97.5,92.4,97.5h793c48.6,0,92.4-43.9,92.4-97.5V349.9C973.1,296.3,939.1,252.4,880.7,252.4z M880.7,803.1h-793V218.3
	h267.6l102.2,112.1c9.7,14.6,29.2,19.5,43.8,19.5h379.5V803.1z"/>
<g transform="matrix(.62324 0 0 .62325 3.8991 1.5791)">
	<g transform="matrix(1.5015 0 0 1.5015 -410.35 -353.44)">
		<path class="st1" d="M1238.5,758.2c-5,0-14.9,0-14.9,0c-34.9,5-69.8,19.9-94.7,44.8c-10,10-19.9,29.9-24.9,44.8
			c-5,14.9-5,14.9-5,44.8c0,34.9,0,44.8,14.9,64.8c10,24.9,29.9,39.9,54.8,59.8c10,5,39.9,19.9,64.8,29.9
			c49.8,24.9,69.8,34.9,74.7,49.8l5,5v14.9c0,14.9,0,14.9-5,19.9c-5,10-19.9,19.9-34.9,24.9c-5,0-10,0-24.9,0c-14.9,0-19.9,0-24.9,0
			c-10-5-19.9-5-29.9-10c-10-5-29.9-24.9-34.9-34.9c-5-5-5-10-5-10s-64.8,34.9-74.7,44.8c-5,0-5,5-5,5c0,5,14.9,24.9,24.9,39.9
			c24.9,29.9,69.8,54.8,114.6,59.8c14.9,0,44.8,5,64.8,0c14.9,0,24.9-5,39.9-5c49.8-14.9,84.7-44.8,94.7-89.7c5-14.9,5-39.9,5-54.8
			c-5-34.9-14.9-64.8-34.9-84.7c-19.9-19.9-49.8-39.9-104.6-64.8c-49.8-19.9-59.8-29.9-69.8-44.8c-5-14.9-5-29.9,5-39.9
			c10-14.9,24.9-19.9,49.8-14.9c19.9,5,29.9,10,44.8,24.9c5,10,10,14.9,14.9,14.9c0,0,10-5,39.9-24.9c29.9-19.9,34.9-24.9,34.9-24.9
			c0-5-5-10-14.9-24.9c-24.9-29.9-54.8-49.8-94.7-54.8C1263.4,758.2,1253.5,758.2,1238.5,758.2L1238.5,758.2z M929.6,763.2
			c-24.9,0-49.8,0-79.7,0c-149.5,0-184.4,0-189.3,0c0,0,0,10,0,44.8v44.8h69.8h69.8v194.3c0,109.6,0,194.3,0,199.3l0,0h49.8
			c44.8,0,49.8,0,49.8,0s0-89.7,0-199.3V852.8h69.8h69.8V808c0-39.9,0-44.8,0-44.8C1039.2,763.2,999.4,763.2,929.6,763.2
			L929.6,763.2z"/>
	</g>
</g>
</svg>
