<?xml version="1.0" encoding="utf-8"?>
<!-- Generator: Adobe Illustrator 24.1.1, SVG Export Plug-In . SVG Version: 6.00 Build 0)  -->
<svg version="1.1" id="Capa_1" xmlns="http://www.w3.org/2000/svg" xmlns:xlink="http://www.w3.org/1999/xlink" x="0px" y="0px"
	 viewBox="0 0 1080 1080" style="enable-background:new 0 0 1080 1080;" xml:space="preserve">
<style type="text/css">
	.st0{fill:#0277BD;}
	.st1{fill-rule:evenodd;clip-rule:evenodd;fill:#B3E5FC;}
</style>
<path class="st0" d="M880.7,234.1H515.8L413.7,122c-9.7-14.6-29.2-19.5-43.8-19.5H92.6C43.9,102.6,5,146.4,5,200v584.8
	c0,53.6,38.9,97.5,92.4,97.5h793c48.6,0,92.4-43.9,92.4-97.5V331.6C973.1,278,939.1,234.1,880.7,234.1z M880.7,784.8h-793V200h267.6
	l102.2,112.1c9.7,14.6,29.2,19.5,43.8,19.5h379.5V784.8z"/>
<g>
	<path class="st1" d="M730,947.4H605v-190l-95,120l-95-120v190h-130v-380h125l95,125l95-125h125v380H730z"/>
	<path class="st1" d="M920,977.4l-160-220h95v-190h125v190h95L920,977.4z"/>
</g>
</svg>
