<?xml version="1.0" encoding="utf-8"?>
<!-- Generator: Adobe Illustrator 24.1.1, SVG Export Plug-In . SVG Version: 6.00 Build 0)  -->
<svg version="1.1" id="Capa_1" xmlns="http://www.w3.org/2000/svg" xmlns:xlink="http://www.w3.org/1999/xlink" x="0px" y="0px"
	 viewBox="0 0 1080 1080" style="enable-background:new 0 0 1080 1080;" xml:space="preserve">
<style type="text/css">
	.st0{fill:#757575;}
	.st1{fill-rule:evenodd;clip-rule:evenodd;fill:#BDBDBD;}
</style>
<path class="st0" d="M885.6,241.1H520.7L418.5,129c-9.7-14.6-29.2-19.5-43.8-19.5H97.4C43.9,109.5,5,153.4,5,207v584.8
	c0,53.6,38.9,97.5,92.4,97.5h793c48.6,0,92.4-43.9,92.4-97.5V338.5C978,284.9,939.1,241.1,885.6,241.1z M885.6,791.7H97.4V207H365
	L467.2,319c9.7,14.6,29.2,19.5,43.8,19.5h379.5v453.2H885.6z"/>
<path class="st1" d="M947,381.6H552.6c-35.8,0-66.6,30.7-66.6,66.6v455.8c0,35.8,30.7,66.6,66.6,66.6h455.8
	c35.8,0,66.6-30.7,66.6-66.6V509.6L947,381.6z M783.1,903.9c-56.3,0-97.3-46.1-97.3-97.3l0,0c0-56.3,46.1-97.3,97.3-97.3
	c51.2,0,97.3,46.1,97.3,97.3C880.4,863,834.3,903.9,783.1,903.9z M880.4,576.2H552.6v-128h327.8V576.2z"/>
</svg>
