<?xml version="1.0" encoding="utf-8"?>
<!-- Generator: Adobe Illustrator 27.0.0, SVG Export Plug-In . SVG Version: 6.00 Build 0)  -->
<svg version="1.1" id="Capa_1" xmlns="http://www.w3.org/2000/svg" xmlns:xlink="http://www.w3.org/1999/xlink" x="0px" y="0px"
	 viewBox="0 0 1080 1080" style="enable-background:new 0 0 1080 1080;" xml:space="preserve">
<style type="text/css">
	.st0{fill:#FF7043;}
	.st1{fill-rule:evenodd;clip-rule:evenodd;fill:#FFCCBC;}
</style>
<path class="st0" d="M398.96,126.91H103.49C48.83,126.91,5,170.74,5,225.4v590.94c0,54.02,44.47,98.49,98.49,98.49H891.4
	c54.02,0,98.49-44.47,98.49-98.49V323.89c0-54.39-44.1-98.49-98.49-98.49H497.45L398.96,126.91z"/>
<g transform="matrix(.085405 0 0 .085405 8.141 6.1166)">
	<path class="st1" d="M4365.56,6697.35l4062.98-2666.99v1723.71L4365.56,8421.01V6697.35z"/>
	<path class="st1" d="M4365.56,8421.01l4062.98,2667.04V9364.34L4365.56,6697.31V8421.01z"/>
	<path class="st1" d="M12491.76,8421.01l-4062.98,2667.04V9364.34l4062.98-2667.04V8421.01z"/>
	<path class="st1" d="M12491.76,6697.35L8428.79,4030.36v1723.71l4062.98,2666.99V6697.35z"/>
</g>
</svg>
