<?xml version="1.0" encoding="utf-8"?>
<!-- Generator: Adobe Illustrator 24.1.1, SVG Export Plug-In . SVG Version: 6.00 Build 0)  -->
<svg version="1.1" id="Capa_1" xmlns="http://www.w3.org/2000/svg" xmlns:xlink="http://www.w3.org/1999/xlink" x="0px" y="0px"
	 viewBox="0 0 1080 1080" style="enable-background:new 0 0 1080 1080;" xml:space="preserve">
<style type="text/css">
	.st0{fill:#FF5252;}
	.st1{fill-rule:evenodd;clip-rule:evenodd;fill:#FFCDD2;}
</style>
<path class="st0" d="M885.6,266.9H520.8L418.5,154.7c-9.7-14.7-29.2-19.5-43.8-19.5H97.4C43.9,135.2,5,179.1,5,232.7v584.7
	c0,53.6,38.9,97.5,92.4,97.5h793c48.6,0,92.4-43.9,92.4-97.5V364.3C978,310.7,939.2,266.9,885.6,266.9z"/>
<path class="st1" d="M431.3,393h521.1c33.9,0,61.3,27.4,61.3,61.3v61.3H891.1v-61.3H492.5v367.9h275.9v61.3H431.2
	c-33.9,0-61.3-27.4-61.3-61.3V454.3C369.9,420.4,397.4,393,431.3,393L431.3,393 M860.4,576.9h183.9c16.9,0,30.7,13.7,30.7,30.7
	v306.6c0,16.9-13.7,30.7-30.7,30.7H860.4c-16.9,0-30.7-13.7-30.7-30.7V607.6C829.8,590.6,843.5,576.9,860.4,576.9 M891.1,638.2
	v214.6h122.6V638.2L891.1,638.2z"/>
</svg>
