<?xml version="1.0" encoding="utf-8"?>
<!-- Generator: Adobe Illustrator 24.1.1, SVG Export Plug-In . SVG Version: 6.00 Build 0)  -->
<svg version="1.1" id="Capa_1" xmlns="http://www.w3.org/2000/svg" xmlns:xlink="http://www.w3.org/1999/xlink" x="0px" y="0px"
	 viewBox="0 0 1080 1080" style="enable-background:new 0 0 1080 1080;" xml:space="preserve">
<style type="text/css">
	.st0{fill:#8D6E63;}
	.st1{fill-rule:evenodd;clip-rule:evenodd;fill:#D7CCC8;}
</style>
<path class="st0" d="M885.6,265.8H520.8L418.5,153.6c-9.7-14.7-29.2-19.5-43.8-19.5H97.4C43.9,134.1,5,178,5,231.6v584.7
	c0,53.6,38.9,97.5,92.4,97.5h793c48.6,0,92.4-43.9,92.4-97.5V363.1C978,309.5,939.2,265.8,885.6,265.8z"/>
<path class="st1" d="M457.5,812.1h272.7v-66.9H457.5V812.1z M457.5,945.9h272.7V879H457.5V945.9z M457.5,683.5h272.7v-66.9H457.5
	V683.5z M457.5,482.8v66.9h272.7v-66.9H457.5z M802.3,482.8H1075v463.1H802.3V482.8z"/>
</svg>
