<?xml version="1.0" encoding="utf-8"?>
<!-- Generator: Adobe Illustrator 24.1.1, SVG Export Plug-In . SVG Version: 6.00 Build 0)  -->
<svg version="1.1" id="Capa_1" xmlns="http://www.w3.org/2000/svg" xmlns:xlink="http://www.w3.org/1999/xlink" x="0px" y="0px"
	 viewBox="0 0 1080 1080" style="enable-background:new 0 0 1080 1080;" xml:space="preserve">
<style type="text/css">
	.st0{fill:#EC407A;}
	.st1{fill:#F8BBD0;}
</style>
<path class="st0" d="M885.6,257.3H520.7L418.5,145.2c-9.7-14.6-29.2-19.5-43.8-19.5H97.4C43.9,125.7,5,169.6,5,223.2V808
	c0,53.6,38.9,97.5,92.4,97.5h793c48.6,0,92.4-43.9,92.4-97.5V354.8C978,301.2,939.1,257.3,885.6,257.3z M885.6,808H97.4V223.2H365
	l102.2,112.1c9.7,14.6,29.2,19.5,43.8,19.5h379.5V808H885.6z"/>
<path class="st1" d="M1004.2,540.4c94.5,94.5,94.5,248.6,0,343l0,0c-64.6,64.6-159.1,84.5-243.6,59.7c-49.7,14.9-99.4,14.9-149.1,0
	c-84.5,24.9-179,5-243.6-59.7c-94.5-94.5-94.5-248.6,0-343l0,0c64.6-64.6,159.1-84.5,243.6-59.7c49.7-14.9,99.4-14.9,149.1,0
	C845.1,451,939.5,470.8,1004.2,540.4 M517,883.4c-94.5-94.5-89.5-248.6,0-343c-34.8,5-69.6,19.9-99.4,49.7
	c-74.6,59.7-94.5,159.1-34.8,233.6c5,9.9,14.9,14.9,34.8,14.9C447.4,858.6,482.2,878.5,517,883.4 M666.1,883.4
	c-94.5-94.5-94.5-248.6,0-343l0,0c-34.8,5-69.6,19.9-99.4,49.7c-69.6,69.6-69.6,179,0,243.6C591.6,858.6,626.4,878.5,666.1,883.4
	 M959.4,590.1c-29.8-29.8-59.7-44.7-99.4-49.7c94.5,94.5,94.5,248.6,0,343l0,0c34.8-5,69.6-19.9,99.4-49.7
	C1024,764.1,1024,654.8,959.4,590.1 M710.9,590.1c-69.6,69.6-64.6,179,0,243.6c14.9,14.9,29.8,24.9,49.7,34.8
	c19.9-9.9,34.8-19.9,49.7-34.8c69.6-69.6,69.6-179,0-243.6c-14.9-14.9-29.8-24.9-49.7-34.8C745.7,560.3,725.8,575.2,710.9,590.1z"/>
</svg>
