<?xml version="1.0" encoding="utf-8"?>
<!-- Generator: Adobe Illustrator 27.0.0, SVG Export Plug-In . SVG Version: 6.00 Build 0)  -->
<svg version="1.1" id="Capa_1" xmlns="http://www.w3.org/2000/svg" xmlns:xlink="http://www.w3.org/1999/xlink" x="0px" y="0px"
	 viewBox="0 0 1080 1080" style="enable-background:new 0 0 1080 1080;" xml:space="preserve">
<style type="text/css">
	.st0{fill:#5603AD;}
	.st1{fill:#8367C7;}
</style>
<path class="st0" d="M890.13,243.86H523.42L420.67,131.2c-9.74-14.65-29.29-19.58-44.04-19.58H97.91C44.13,111.62,5,155.67,5,209.55
	v587.83c0,53.88,39.13,97.93,92.91,97.93h797.14c48.86,0,92.91-44.04,92.91-97.93v-455.5C983.05,288.01,944.02,243.86,890.13,243.86
	L890.13,243.86z M890.13,797.38H97.91V209.55H366.9l102.75,112.68c9.74,14.65,29.29,19.58,44.04,19.58h381.46v455.61h-5.01
	L890.13,797.38z"/>
<path class="st1" d="M495.93,386.16c-41.7,0-72.56,36.5-71.18,76.08c1.33,38.03-0.4,87.28-12.8,127.45
	c-12.44,40.28-33.47,65.8-67.83,69.08v36.99c34.36,3.28,55.39,28.8,67.83,69.08c12.4,40.17,14.12,89.42,12.8,127.45
	c-1.38,39.58,29.48,76.08,71.19,76.08h427.31c41.7,0,72.55-36.5,71.17-76.08c-1.33-38.03,0.4-87.28,12.8-127.45
	c12.44-40.28,33.42-65.8,67.78-69.08v-36.99c-34.36-3.28-55.34-28.8-67.78-69.08c-12.4-40.16-14.12-89.42-12.8-127.45
	c1.38-39.58-29.47-76.08-71.17-76.08H495.93L495.93,386.16z M839.64,744.55c0,54.51-40.66,87.56-108.13,87.56H616.66
	c-6.84,0-12.39-5.55-12.39-12.39V534.81c0-6.84,5.55-12.39,12.39-12.39h114.2c56.26,0,93.18,30.47,93.18,77.26
	c0,32.84-24.84,62.24-56.48,67.39v1.72C810.63,673.51,839.64,703.34,839.64,744.55z M718.99,561.69H653.5v92.5h55.16
	c42.64,0,66.15-17.17,66.15-47.86C774.8,577.57,754.59,561.69,718.99,561.69L718.99,561.69z M653.5,690.89v101.94h67.9
	c44.39,0,67.91-17.81,67.91-51.29c0-33.48-24.17-50.65-70.76-50.65L653.5,690.89L653.5,690.89z"/>
</svg>
