<?xml version="1.0" encoding="utf-8"?>
<!-- Generator: Adobe Illustrator 24.1.1, SVG Export Plug-In . SVG Version: 6.00 Build 0)  -->
<svg version="1.1" id="Capa_1" xmlns="http://www.w3.org/2000/svg" xmlns:xlink="http://www.w3.org/1999/xlink" x="0px" y="0px"
	 viewBox="0 0 1080 1080" style="enable-background:new 0 0 1080 1080;" xml:space="preserve">
<style type="text/css">
	.st0{fill:#616161;}
	.st1{fill-rule:evenodd;clip-rule:evenodd;fill:#FFA726;}
</style>
<path class="st0" d="M880.7,238.6H515.8L413.7,126.5c-9.7-14.6-29.2-19.5-43.8-19.5H92.6C43.9,107,5,150.9,5,204.5v584.8
	c0,53.6,38.9,97.5,92.4,97.5h793c48.6,0,92.4-43.9,92.4-97.5V336.1C973.1,282.5,939.1,238.6,880.7,238.6z M880.7,789.3h-793V204.5
	h267.6l102.2,112.1c9.7,14.6,29.2,19.5,43.8,19.5h379.5V789.3z"/>
<path class="st1" d="M814.9,742.3l-186.5-58.9c-4.9,0-9.8-9.8-9.8-14.7V526.3c0-4.9,4.9-9.8,9.8-14.7l436.8-142.3
	c4.9,0,9.8,0,9.8,4.9v142.3c0,4.9-4.9,9.8-9.8,14.7l-181.6,63.8l181.6,58.9c4.9,0,9.8,4.9,9.8,14.7V811c0,4.9-4.9,9.8-9.8,14.7
	L623.5,973c-4.9,0-9.8,0-9.8-4.9V820.8c0-4.9,4.9-9.8,9.8-14.7L814.9,742.3z"/>
</svg>
