<?xml version="1.0" encoding="utf-8"?>
<!-- Generator: Adobe Illustrator 24.1.1, SVG Export Plug-In . SVG Version: 6.00 Build 0)  -->
<svg version="1.1" id="Capa_1" xmlns="http://www.w3.org/2000/svg" xmlns:xlink="http://www.w3.org/1999/xlink" x="0px" y="0px"
	 viewBox="0 0 1080 1080" style="enable-background:new 0 0 1080 1080;" xml:space="preserve">
<style type="text/css">
	.st0{fill:#1E88E5;}
	.st1{fill-rule:evenodd;clip-rule:evenodd;fill:#BBDEFB;}
</style>
<path class="st0" d="M880.7,257.7H515.8L413.7,145.6c-9.7-14.6-29.2-19.5-43.8-19.5H92.6C43.9,126.1,5,169.9,5,223.5v584.8
	c0,53.6,38.9,97.5,92.4,97.5h793c48.6,0,92.4-43.9,92.4-97.5V355.1C973.1,301.5,939.1,257.7,880.7,257.7z M880.7,808.3h-793V223.5
	h267.6l102.2,112.1c9.7,14.6,29.2,19.5,43.8,19.5h379.5V808.3z"/>
<path class="st1" d="M1060.1,456.2l-44.8-54.7c-10-10-24.9-14.9-34.8-14.9H602.2c-14.9,0-29.9,5-34.8,14.9l-44.8,54.7
	c-10,10-14.9,24.9-14.9,39.8v393.2c0,34.8,29.9,64.7,64.7,64.7h438c34.8,0,64.7-29.9,64.7-64.7V496
	C1075,481.1,1070,466.2,1060.1,456.2L1060.1,456.2z M791.3,590.6l174.2,174.2H856v64.7H731.6v-64.7H622.1L791.3,590.6z M577.3,446.3
	l24.9-29.9h378.2l29.9,29.9H577.3z"/>
</svg>
