<?xml version="1.0" encoding="utf-8"?>
<!-- Generator: Adobe Illustrator 27.0.0, SVG Export Plug-In . SVG Version: 6.00 Build 0)  -->
<svg version="1.1" id="Capa_1" xmlns="http://www.w3.org/2000/svg" xmlns:xlink="http://www.w3.org/1999/xlink" x="0px" y="0px"
	 viewBox="0 0 1080 1080" style="enable-background:new 0 0 1080 1080;" xml:space="preserve">
<style type="text/css">
	.st0{fill:#607D8B;}
	.st1{fill-rule:evenodd;clip-rule:evenodd;fill:#CFD8DC;}
</style>
<path class="st0" d="M398.87,127.17h-295.4C48.82,127.17,5,170.99,5,225.64v590.81c0,54.01,44.46,98.47,98.47,98.47h787.74
	c54.01,0,98.47-44.46,98.47-98.47V324.1c0-54.38-44.09-98.47-98.47-98.47H497.34L398.87,127.17z"/>
<path class="st1" d="M808.05,353.69c32.99,13.19,46.03,65.14,28.8,116.44c-17.08,51.06-57.41,82.17-90.59,69.22
	c-32.84-12.8-46.13-64.89-29.15-116.34C733.91,371.81,774.72,341.04,808.05,353.69 M992.58,460.24
	c27.92,22.65,21.42,73.26-14.03,113.73c-36.33,40.27-87.78,54.94-115.6,32.74c-28.01-22.4-21.22-72.87,14.67-113.04
	C913.46,453.1,964.91,438.43,992.58,460.24 M601.42,392.74c36.73,4.33,63.51,50.37,61.3,102.46c-3.94,52.14-35.4,91.08-71.88,86.9
	c-36.43-4.18-63.07-49.87-60.07-102.16c3-52.29,35.1-91.23,70.65-87.24 M1066.04,660.96c21.22,28.75,3.54,76.02-40.22,104.77
	c-43.82,28.75-96.65,28.56-118.51-0.98c-21.86-29.44-3.84-76.16,39.34-105.66C990.61,631.18,1043.88,631.32,1066.04,660.96
	 M862.26,914.27c-12.95,24.86-47.02,41.01-75.03,38.25c-58.44-5.51-87.83-80.99-139.18-110.63
	c-51.35-29.69-132.93-15.85-165.13-65.09c-18.51-27.57-16.94-71.39,2.46-97.29c26.88-35.79,85.03-29.79,128.6-42.09
	c57.41-15.41,122.69-68.93,174.58-38.89c51.65,29.74,40.08,112.89,53.32,170.45C852.36,817.03,884.76,871.19,862.26,914.27z"/>
</svg>
