<?xml version="1.0" encoding="utf-8"?>
<!-- Generator: Adobe Illustrator 24.1.1, SVG Export Plug-In . SVG Version: 6.00 Build 0)  -->
<svg version="1.1" id="Capa_1" xmlns="http://www.w3.org/2000/svg" xmlns:xlink="http://www.w3.org/1999/xlink" x="0px" y="0px"
	 viewBox="0 0 1080 1080" style="enable-background:new 0 0 1080 1080;" xml:space="preserve">
<style type="text/css">
	.st0{fill:#AB47BC;}
	.st1{fill-rule:evenodd;clip-rule:evenodd;fill:#E1BEE7;}
</style>
<path class="st0" d="M880.7,263.2H515.8L413.7,151.1c-9.7-14.6-29.2-19.5-43.8-19.5H92.6C43.9,131.6,5,175.4,5,229v584.8
	c0,53.6,38.9,97.5,92.4,97.5h793c48.6,0,92.4-43.9,92.4-97.5V360.6C973.1,307,939.1,263.2,880.7,263.2z M880.7,813.8h-793V229h267.6
	l102.2,112.1c9.7,14.6,29.2,19.5,43.8,19.5h379.5V813.8z"/>
<path class="st1" d="M967,894.4c29.4,0,54-24.5,54-54V570.5c0-29.4-24.5-54-54-54H530.2c-29.4,0-54,24.5-54,54v269.9
	c0,29.4,24.5,54,54,54h-108v54H1075v-54H967z M775.6,796.3v-58.9c-73.6,0-127.6,24.5-162,73.6c14.7-73.6,58.9-147.2,162-162v-58.9
	l108,103.1L775.6,796.3z"/>
</svg>
