<?xml version="1.0" encoding="utf-8"?>
<!-- Generator: Adobe Illustrator 24.1.1, SVG Export Plug-In . SVG Version: 6.00 Build 0)  -->
<svg version="1.1" id="Capa_1" xmlns="http://www.w3.org/2000/svg" xmlns:xlink="http://www.w3.org/1999/xlink" x="0px" y="0px"
	 viewBox="0 0 1080 1080" style="enable-background:new 0 0 1080 1080;" xml:space="preserve">
<style type="text/css">
	.st0{fill:#EF5350;}
	.st1{fill-rule:evenodd;clip-rule:evenodd;fill:#FFCDD2;}
</style>
<path class="st0" d="M880.7,261.7H515.8L413.7,149.6c-9.7-14.6-29.2-19.5-43.8-19.5H92.6C43.9,130.1,5,174,5,227.6v584.8
	c0,53.6,38.9,97.5,92.4,97.5h793c48.6,0,92.4-43.9,92.4-97.5V359.2C973.1,305.6,939.1,261.7,880.7,261.7z M880.7,812.4h-793V227.6
	h267.6l102.2,112.1c9.7,14.6,29.2,19.5,43.8,19.5h379.5V812.4z"/>
<path class="st1" d="M781.9,769.1h58.6L698.8,407.6H650L508.3,769.1h58.6l29.3-83h156.3L781.9,769.1z M615.8,627.5L674.4,476
	L733,627.5C733,627.5,615.8,627.5,615.8,627.5z M1035.9,647L811.2,871.7L708.6,769.1l-39.1,39.1l141.7,141.7L1075,686.1L1035.9,647z
	"/>
</svg>
