<?xml version="1.0" encoding="utf-8"?>
<!-- Generator: Adobe Illustrator 27.0.0, SVG Export Plug-In . SVG Version: 6.00 Build 0)  -->
<svg version="1.1" id="Capa_1" xmlns="http://www.w3.org/2000/svg" xmlns:xlink="http://www.w3.org/1999/xlink" x="0px" y="0px"
	 viewBox="0 0 1080 1080" style="enable-background:new 0 0 1080 1080;" xml:space="preserve">
<style type="text/css">
	.st0{fill:#546E7A;}
	.st1{fill:#CFD8DC;}
</style>
<path class="st0" d="M886.97,262.32h-365.4L419.19,150.06c-9.7-14.6-29.19-19.5-43.88-19.5H97.58C43.99,130.56,5,174.44,5,228.13
	v585.73c0,53.68,38.99,97.58,92.58,97.58h794.29c48.68,0,92.58-43.88,92.58-97.58V360C979.55,306.31,940.66,262.32,886.97,262.32
	L886.97,262.32z M886.97,813.87H97.58V228.13H365.6L467.98,340.4c9.7,14.6,29.19,19.5,43.88,19.5h380.09v453.98h-5L886.97,813.87z"
	/>
<g transform="matrix(.61203 0 0 .61203 10.266 7.3081)">
	<path class="st1" d="M1498.08,622.8c-325.74-191.56-739.63,42.4-743.28,420.04c-3.45,368.83,386.76,606.97,711.76,444.67
		l-379.17-537.44l-2.46,394.73c0,35.8-84.7,35.8-84.7,0l0.74-544.87c0-28.46,71.45-30.78,86.42-6.06l428.07,665.77
		C1819.29,1264,1815.15,809.24,1498.08,622.8z M1494.23,1269.76l-82.33-118.68V799.93c0-26.84,82.33-26.84,82.33,0v469.78V1269.76z"
		/>
</g>
</svg>
