<?xml version="1.0" encoding="utf-8"?>
<!-- Generator: Adobe Illustrator 24.1.1, SVG Export Plug-In . SVG Version: 6.00 Build 0)  -->
<svg version="1.1" id="Capa_1" xmlns="http://www.w3.org/2000/svg" xmlns:xlink="http://www.w3.org/1999/xlink" x="0px" y="0px"
	 viewBox="0 0 1080 1080" style="enable-background:new 0 0 1080 1080;" xml:space="preserve">
<style type="text/css">
	.st0{fill:#FF8A65;}
	.st1{fill-rule:evenodd;clip-rule:evenodd;fill:#FBE9E7;fill-opacity:0.949;}
</style>
<path class="st0" d="M885.6,251.9H520.7L418.5,139.8c-9.7-14.6-29.2-19.5-43.8-19.5H97.4C43.9,120.4,5,164.2,5,217.8v584.8
	c0,53.6,38.9,97.5,92.4,97.5h793c48.6,0,92.4-43.9,92.4-97.5V349.4C978,295.8,939.1,251.9,885.6,251.9z M885.6,802.6H97.4V217.8H365
	l102.2,112.1c9.7,14.6,29.2,19.5,43.8,19.5h379.5v453.2H885.6z"/>
<path class="st1" d="M923.6,691h-298v-58.6h298 M777,363.7c-166.1,0-298,131.9-298,298s131.9,298,298,298s298-131.9,298-298
	S938.2,363.7,777,363.7z"/>
</svg>
