<?xml version="1.0" encoding="utf-8"?>
<!-- Generator: Adobe Illustrator 27.0.0, SVG Export Plug-In . SVG Version: 6.00 Build 0)  -->
<svg version="1.1" id="Capa_1" xmlns="http://www.w3.org/2000/svg" xmlns:xlink="http://www.w3.org/1999/xlink" x="0px" y="0px"
	 viewBox="0 0 1080 1080" style="enable-background:new 0 0 1080 1080;" xml:space="preserve">
<style type="text/css">
	.st0{fill:#FFCA28;}
	.st1{fill:#FFECB3;}
</style>
<path class="st0" d="M399.6,110.3h-296C49.4,110.3,5,154.7,5,209v591.9c0,54.3,44.4,98.7,98.7,98.7h789.2
	c54.3,0,98.7-44.4,98.7-98.7V307.6c0-54.3-44.4-98.7-98.7-98.7H498.2L399.6,110.3z"/>
<path class="st1" d="M1061.9,858.3c-16-6.6-29.1-16.8-28.2-36.7c0.9-19.7-14.1-32.8-14.1-32.8s13.2-43.3,0.9-79
	c-12.2-35.8-52.6-93.1-83.7-136.3c-30.9-43.3-4.6-93.1-32.8-157c-28.3-63.8-101.6-60.1-141.1-32.8c-39.6,27.2-27.3,94.9-25.4,126.9
	c1.9,31.9,0.9,54.7-2.8,62.9c-3.8,8.3-29.1,38.6-46,63.9c-16.9,25.4-29.1,78-41.4,99.6c-12.2,21.7-3.8,41.3-3.8,41.3
	s-8.5,2.8-15.1,17c-6.6,14-19.7,20.6-43.2,25.2c-23.5,4.7-23.5,19.8-17.9,36.8c5.7,16.8,0,26.3-6.6,47.9
	c-6.6,21.6,26.3,28.2,58.3,31.9c32,3.8,67.7,24.5,97.8,28.2c30.1,3.8,39.5-20.7,39.5-20.7s33.8-7.5,69.5-8.5
	c35.7-1,69.5,7.5,69.5,7.5s6.6,15.1,18.8,21.6c12.3,6.6,38.6,7.5,55.5-10.3c16.9-17.9,62.1-40.4,87.4-54.5
	C1082.5,886.3,1077.9,864.7,1061.9,858.3z M841.9,443.7c16.2,0,29.1,16,29.1,35.7c0,14-6.5,26-16.1,31.9c-2.4-1.1-4.9-2.1-7.7-3.3
	c5.7-2.8,9.8-10.2,9.8-18.7c0-11.1-6.9-20.1-15.4-20.1c-8.4,0-15.3,9.1-15.3,20.1c0,4.1,1,8,2.7,11.3c-5-2-9.6-3.9-13.3-5.2
	c-1.9-4.8-3.1-10.2-3.1-16C812.8,459.7,825.8,443.7,841.9,443.7z M839.8,519c8,2.8,17,8,16.1,13.2c-1,5.2-5.2,5.2-16.1,11.9
	c-10.9,6.6-34.6,21.3-42.1,22.2c-7.6,1-11.8-3.3-19.9-8.5c-8-5.2-23.2-17.6-19.4-24.2c0,0,11.8-9.1,17-13.8
	c5.2-4.8,18.5-16.1,26.5-14.6C809.9,506.6,831.8,516.2,839.8,519z M767.2,449.4c12.7,0,23,15.1,23,33.8c0,3.5-0.4,6.6-1,9.7
	c-3.1,1.1-6.2,2.8-9.3,5.3c-1.5,1.3-2.9,2.5-4.3,3.6c2-3.8,2.8-9.1,1.9-14.8c-1.7-10.2-8.5-17.6-15.2-16.5
	c-6.7,1.2-10.7,10.3-9.1,20.6c1.7,10.3,8.5,17.7,15.2,16.5c0.4-0.1,0.7-0.2,1.2-0.3c-3.3,3.1-6.3,5.9-9.4,8.1
	c-9.3-4.3-16.2-17.2-16.2-32.3C744.2,464.5,754.4,449.4,767.2,449.4z M742.4,924.3c-3,13.5-18.8,23.3-18.8,23.3
	c-14.3,4.4-54.1-12.8-72.1-20.3c-18-7.5-63.8-9.8-69.9-16.5c-6-6.8,3-21.8,5.3-36c2.2-14.3-4.4-23.3-2.3-33.1
	c2.3-9.7,31.5-9.7,42.8-16.5c11.3-6.8,13.5-26.3,22.5-31.5c9-5.3,25.5,13.5,32.3,24.1c6.8,10.4,32.3,55.5,42.8,66.8
	C735.6,895.7,745.3,910.8,742.4,924.3z M908.6,793.3c-2.7,13.3-2.7,61.1-2.7,61.1s-29.1,40.4-74.3,47c-45.1,6.6-67.7,1.9-67.7,1.9
	l-25.4-29.1c0,0,19.7-2.8,16.9-22.6c-2.8-19.7-60.2-47-70.5-71.5c-10.3-24.4-1.9-65.8,11.3-86.5c13.1-20.7,21.6-65.8,34.7-80.8
	c13.2-15,23.4-47,18.8-61c0,0,28.2,33.9,47.9,28.2c19.7-5.7,63.9-38.6,70.5-32.9c6.6,5.7,63,129.7,68.6,169.2
	c5.7,39.5-3.8,69.5-3.8,69.5S911.4,780.1,908.6,793.3z M1052.9,881.9c-8.8,8-57.6,27.8-72.3,43.1c-14.6,15.3-33.6,27.7-45.3,24.1
	c-11.7-3.7-22-19.7-16.8-43.1c5.1-23.3,9.5-48.9,8.8-63.5c-0.7-14.6-3.7-34.4,0-37.3c3.6-2.8,9.4-1.4,9.4-1.4s-2.8,27.7,13.9,35
	c16.7,7.3,40.9-2.9,48.2-10.3c7.3-7.3,12.5-18.2,12.5-18.2s7.3,3.7,6.6,15.4c-0.7,11.7,5.1,28.5,16.1,34.3
	C1044.8,865.8,1061.6,873.8,1052.9,881.9z"/>
</svg>
