<?xml version="1.0" encoding="utf-8"?>
<!-- Generator: Adobe Illustrator 24.1.1, SVG Export Plug-In . SVG Version: 6.00 Build 0)  -->
<svg version="1.1" id="Capa_1" xmlns="http://www.w3.org/2000/svg" xmlns:xlink="http://www.w3.org/1999/xlink" x="0px" y="0px"
	 viewBox="0 0 1080 1080" style="enable-background:new 0 0 1080 1080;" xml:space="preserve">
<style type="text/css">
	.st0{fill:#616161;}
	.st1{fill:#FFEE58;}
</style>
<path class="st0" d="M880.7,205H515.8L413.7,92.9c-9.7-14.6-29.2-19.5-43.8-19.5H92.6C43.9,73.5,5,117.3,5,170.9v584.8
	c0,53.6,38.9,97.5,92.4,97.5h793c48.6,0,92.4-43.9,92.4-97.5V302.5C973.1,248.9,939.1,205,880.7,205z M880.7,755.7h-793V170.9h267.6
	L457.4,283c9.7,14.6,29.2,19.5,43.8,19.5h379.5V755.7z"/>
<path class="st1" d="M705.8,400v332.3h110.8v274.3L1075,642.6H927.3L1075,400C1075,400,705.8,400,705.8,400z"/>
</svg>
