<?xml version="1.0" encoding="utf-8"?>
<!-- Generator: Adobe Illustrator 27.0.0, SVG Export Plug-In . SVG Version: 6.00 Build 0)  -->
<svg version="1.1" id="Capa_1" xmlns="http://www.w3.org/2000/svg" xmlns:xlink="http://www.w3.org/1999/xlink" x="0px" y="0px"
	 viewBox="0 0 1080 1080" style="enable-background:new 0 0 1080 1080;" xml:space="preserve">
<style type="text/css">
	.st0{fill:#EF5350;}
	.st1{fill-rule:evenodd;clip-rule:evenodd;fill:#FFCDD2;}
</style>
<path class="st0" d="M398.47,127.48H103.37C48.77,127.48,5,171.26,5,225.85v590.21c0,53.96,44.41,98.37,98.37,98.37h786.95
	c53.96,0,98.37-44.41,98.37-98.37V324.22c0-54.33-44.04-98.37-98.37-98.37H496.84L398.47,127.48z"/>
<path class="st1" d="M755.11,616.03c-7.76,24.98-18.89,51.46-33.97,80.51c-6.59,12.67-13.01,24.58-16.48,34.64l3.65-1.4v0.03
	c42.43-16.38,82.56-25.75,111.71-30.93c-5.08-3.58-9.8-7.22-13.98-10.83C786.27,671.03,768.82,646.29,755.11,616.03L755.11,616.03z
	 M971.58,743.53c-5.42,6.49-15.68,10-30.06,10c-25.61,0-66.14-7.66-99.81-24.71c-58.35,6.05-101.38,14.01-135.35,25.08
	c-1.77,0.67-3.91,1.47-6.15,2.37c-41.56,70.95-72.26,102.62-99.44,102.62c-5.12,0-10.06-1.17-14.68-3.48l-16.05-10.53l-0.77-1.74
	c-2.64-5.78-3.11-11.54-1.77-18.02c3.54-17.69,21.87-45.64,62.93-70.82c6.35-4.65,16.22-10.13,29.76-16.38
	c9.9-17.45,20.6-37.72,31.83-60.35c17.12-34.27,27.75-68.35,36.35-97.77l-0.13-0.4c-12.3-40.49-19.73-64.83-7.32-109.17
	c3.64-12.91,13.98-25.95,26.58-25.95l7.89,0.07c7.82,0,14.88,2.81,20.3,8.16c22.03,22.03,11.94,75.8,0.74,120.21
	c-0.54,2.17-0.9,3.65-1.17,4.72c13.17,37.72,32.07,68.05,53.36,85.5c8.53,6.75,18.22,13.34,28.82,19.56
	c15.25-1.67,29.83-2.47,43.4-2.47c41.46,0,66.37,7.49,76.17,22.97c3.54,5.52,4.98,11.9,4.11,18.42
	C980.84,729.88,977.6,737.5,971.58,743.53L971.58,743.53z M1008.12,350.64H540c-36.95,0-66.88,29.93-66.88,66.88v468.12
	c0,36.91,29.93,66.88,66.88,66.88h468.12c36.91,0,66.88-29.96,66.88-66.88V417.52C1075,380.57,1045.04,350.64,1008.12,350.64z
	 M958.4,719.92c-3.71-3.58-17.42-11.9-64.1-11.9c-2.31,0-4.65,0-7.66,3.34c24.68,10.73,48.38,17.12,63.6,17.12
	c2.34,0,4.51-0.17,6.52-0.47l1.14-0.24c1.6-0.54,2.68-1.04,3.01-4.31C960.41,722.63,959.64,721.33,958.4,719.92L958.4,719.92z
	 M651.35,768.54c-7.09,4.15-12.57,7.76-15.92,10.53c-23.94,21.7-38.79,43.64-40.63,56.61C609.99,830.44,629.68,808.5,651.35,768.54
	L651.35,768.54z M752.2,537.66l1.81-1.27c2.44-10.83,4.05-20.09,5.38-27.52l1-5.45c3.24-18.09,2.81-28.52-3.24-36.61l-4.95-1.67
	c-0.64,0.97-1.6,2.41-2.24,3.95C744.38,482.95,744.58,507.5,752.2,537.66L752.2,537.66z"/>
</svg>
