<?xml version="1.0" encoding="utf-8"?>
<!-- Generator: Adobe Illustrator 24.1.1, SVG Export Plug-In . SVG Version: 6.00 Build 0)  -->
<svg version="1.1" id="Capa_1" xmlns="http://www.w3.org/2000/svg" xmlns:xlink="http://www.w3.org/1999/xlink" x="0px" y="0px"
	 viewBox="0 0 1080 1080" style="enable-background:new 0 0 1080 1080;" xml:space="preserve">
<style type="text/css">
	.st0{fill:#1976D2;}
	.st1{fill-rule:evenodd;clip-rule:evenodd;fill:#BBDEFB;}
</style>
<path class="st0" d="M885.6,261.8H520.7L418.5,149.8c-9.7-14.6-29.2-19.5-43.8-19.5H97.4C43.9,130.3,5,174.1,5,227.7v584.8
	C5,866.1,43.9,910,97.4,910h793c48.6,0,92.4-43.9,92.4-97.5V359.3C978,305.7,939.1,261.8,885.6,261.8z M885.6,812.5H97.4V227.7H365
	l102.2,112.1c9.7,14.6,29.2,19.5,43.8,19.5h379.5v453.2H885.6z"/>
<g transform="translate(-40.252 111.06)">
	<path class="st1" d="M865.5,304.3c-24.5-34.3-29.4-39.2-78.4-39.2l0,0c-49,0-53.9,4.9-78.4,39.2C684.3,338.6,464,749.9,464,759.7
		c0,14.7,4.9,34.3,19.6,53.9c14.7,24.5,44.1,34.3,63.7,14.7c14.7-14.7,156.7-259.5,225.3-352.6c9.8-9.8,24.5-9.8,34.3,0
		c68.6,93,210.6,342.8,225.3,352.6c19.6,19.6,49,9.8,63.7-14.7c14.7-24.5,19.6-39.2,19.6-53.9C1115.3,745,890,338.6,865.5,304.3
		L865.5,304.3z"/>
</g>
</svg>
