<?xml version="1.0" encoding="utf-8"?>
<!-- Generator: Adobe Illustrator 24.1.1, SVG Export Plug-In . SVG Version: 6.00 Build 0)  -->
<svg version="1.1" id="Capa_1" xmlns="http://www.w3.org/2000/svg" xmlns:xlink="http://www.w3.org/1999/xlink" x="0px" y="0px"
	 viewBox="0 0 1080 1080" style="enable-background:new 0 0 1080 1080;" xml:space="preserve">
<style type="text/css">
	.st0{fill:#C0CA33;}
	.st1{fill-rule:evenodd;clip-rule:evenodd;fill:#F0F4C3;}
</style>
<path class="st0" d="M885.6,262.9H520.8L418.5,150.8c-9.7-14.7-29.2-19.5-43.8-19.5H97.4C43.9,131.3,5,175.2,5,228.8v584.7
	C5,867.1,43.9,911,97.4,911h793c48.6,0,92.4-43.9,92.4-97.5V360.3C978,306.7,939.2,262.9,885.6,262.9z"/>
<path class="st1" d="M952.8,852.6c55-65.7,61.4-133.6,18.9-259.7c-26.9-79.7-71.6-141.1-38.8-190.7c35-52.8,109.4-1.6,47.4,69
	l12.3,8.6c74.4,8.6,111-93.2,55.6-122.3C901.7,281,773.5,428.1,830,598.3c24.3,72.2,58.2,148.7,30.7,209.6
	c-23.7,52.2-69.5,83-100.2,84c-64.1,3.2-21.6-143.8,52.2-180.4c6.4-3.2,15.7-7.6,7-18.3c-91-10.2-144.3,31.8-175,90.5
	C555.3,954.4,814.4,1017.4,952.8,852.6L952.8,852.6z"/>
</svg>
