<?xml version="1.0" encoding="utf-8"?>
<!-- Generator: Adobe Illustrator 24.1.1, SVG Export Plug-In . SVG Version: 6.00 Build 0)  -->
<svg version="1.1" id="Capa_1" xmlns="http://www.w3.org/2000/svg" xmlns:xlink="http://www.w3.org/1999/xlink" x="0px" y="0px"
	 viewBox="0 0 1080 1080" style="enable-background:new 0 0 1080 1080;" xml:space="preserve">
<style type="text/css">
	.st0{fill:#039BE5;}
	.st1{fill-rule:evenodd;clip-rule:evenodd;fill:#B3E5FC;}
</style>
<path class="st0" d="M885.6,272.4H520.8L418.5,160.2c-9.7-14.7-29.2-19.5-43.8-19.5H97.4C43.9,140.7,5,184.6,5,238.2v584.7
	c0,53.6,38.9,97.5,92.4,97.5h793c48.6,0,92.4-43.9,92.4-97.5V369.8C978,316.2,939.2,272.4,885.6,272.4z"/>
<path class="st1" d="M1023.7,888V503.1H510.5V888h-51.4v51.3H1075V888L1023.7,888z M818.4,888H715.8v-25.6h102.6V888z M972.4,811
	H561.8V554.4h410.5V811z"/>
</svg>
