<?xml version="1.0" encoding="utf-8"?>
<!-- Generator: Adobe Illustrator 27.0.0, SVG Export Plug-In . SVG Version: 6.00 Build 0)  -->
<svg version="1.1" id="Capa_1" xmlns="http://www.w3.org/2000/svg" xmlns:xlink="http://www.w3.org/1999/xlink" x="0px" y="0px"
	 viewBox="0 0 1080 1080" style="enable-background:new 0 0 1080 1080;" xml:space="preserve">
<style type="text/css">
	.st0{fill:#4DB6AC;}
	.st1{fill:#A7FFEB;}
</style>
<path class="st0" d="M399,111.5H103.5C49.3,111.5,5,155.8,5,210v590.9c0,54.2,44.3,98.5,98.5,98.5h787.9c54.2,0,98.5-44.3,98.5-98.5
	V308.5c0-54.2-44.3-98.5-98.5-98.5h-394L399,111.5z"/>
<path class="st1" d="M490.8,655.4c26-104.3,90.9-156.5,194.8-156.5c155.8,0,175.3,117.4,253.1,136.9c52,13.1,97.4-6.5,136.3-58.7
	c-25.9,104.3-90.9,156.5-194.8,156.5c-155.8,0-175.3-117.4-253.1-136.9C575.2,583.6,529.8,603.2,490.8,655.4z M296.1,890.2
	c26-104.3,90.9-156.5,194.8-156.5c155.8,0,175.3,117.4,253.2,136.9c51.9,13.1,97.3-6.5,136.3-58.7c-26,104.3-90.9,156.5-194.8,156.5
	c-155.8,0-175.3-117.4-253.2-136.9C380.4,818.4,335,838,296.1,890.2z"/>
</svg>
