<?xml version="1.0" encoding="utf-8"?>
<!-- Generator: Adobe Illustrator 24.1.1, SVG Export Plug-In . SVG Version: 6.00 Build 0)  -->
<svg version="1.1" id="Capa_1" xmlns="http://www.w3.org/2000/svg" xmlns:xlink="http://www.w3.org/1999/xlink" x="0px" y="0px"
	 viewBox="0 0 1080 1080" style="enable-background:new 0 0 1080 1080;" xml:space="preserve">
<style type="text/css">
	.st0{fill:#0277BD;}
	.st1{fill:#B3E5FC;}
</style>
<path class="st0" d="M885.6,236.1H520.7L418.5,124c-9.7-14.6-29.2-19.5-43.8-19.5H97.4C43.9,104.5,5,148.4,5,202v584.8
	c0,53.6,38.9,97.5,92.4,97.5h793c48.6,0,92.4-43.9,92.4-97.5V333.5C978,279.9,939.1,236.1,885.6,236.1z M885.6,786.7H97.4V202H365
	L467.2,314c9.7,14.6,29.2,19.5,43.8,19.5h379.5v453.2H885.6z"/>
<g>
	<path class="st1" d="M931.6,505.3c-33.9,0-61.4-26.3-61.4-58.5V310.5H604.3c-33.8,0-61.3,26.3-61.3,58.5V917
		c0,32.2,27.5,58.5,61.4,58.5h409.2c33.9,0,61.4-26.3,61.4-58.5V505.3H931.6z M849.9,857.2H686.2c-11.3,0-20.4-8.7-20.4-19.4
		c0-10.8,9.1-19.4,20.4-19.4h163.7c11.3,0,20.4,8.7,20.4,19.4C870.3,848.5,861.2,857.2,849.9,857.2z M931.7,779.2H686.2
		c-11.3,0-20.4-8.7-20.4-19.4c0-10.8,9.1-19.4,20.4-19.4h245.5c11.3,0,20.4,8.7,20.4,19.4C952.1,770.5,943,779.2,931.7,779.2z
		 M931.6,701.4H686.2c-11.3,0-20.4-8.7-20.4-19.4c0-10.8,9.1-19.5,20.4-19.5h245.5c11.3,0,20.4,8.7,20.4,19.4S943,701.4,931.6,701.4
		z M931.7,623.5H686.2c-11.3,0-20.4-8.7-20.4-19.4c0-10.8,9.1-19.4,20.4-19.4h245.5c11.3,0,20.4,8.7,20.4,19.4
		C952.1,614.8,943,623.5,931.7,623.5z"/>
	<path class="st1" d="M927.3,468.1h131.3L906.8,323.8v124.9C906.8,459.4,916,468.1,927.3,468.1z"/>
</g>
</svg>
