<?xml version="1.0" encoding="utf-8"?>
<!-- Generator: Adobe Illustrator 24.1.1, SVG Export Plug-In . SVG Version: 6.00 Build 0)  -->
<svg version="1.1" id="Capa_1" xmlns="http://www.w3.org/2000/svg" xmlns:xlink="http://www.w3.org/1999/xlink" x="0px" y="0px"
	 viewBox="0 0 1080 1080" style="enable-background:new 0 0 1080 1080;" xml:space="preserve">
<style type="text/css">
	.st0{fill:#00BCD4;}
	.st1{fill-rule:evenodd;clip-rule:evenodd;fill:#B2EBF2;}
</style>
<path class="st0" d="M885.6,260.1H520.8L418.5,148c-9.7-14.7-29.2-19.5-43.8-19.5H97.4C43.9,128.5,5,172.3,5,225.9v584.7
	c0,53.6,38.9,97.5,92.4,97.5h793c48.6,0,92.4-43.9,92.4-97.5V357.5C978,303.9,939.2,260.1,885.6,260.1z"/>
<path class="st1" d="M711.6,562.5c34.8,0,63.2,28.4,63.2,63.9c0,33.8-28.4,62.5-63.2,62.5c-34.8,0-63.2-28.7-63.2-62.5
	C648.4,590.9,676.8,562.5,711.6,562.5 M555.1,896.9c21.3,12.8,67.9-6.8,121.7-57.5c-17.6-19.9-34.8-41.6-51-64.2
	c-27.7-2.7-55.1-6.8-81.1-12.2C527.3,835.4,533.8,885.1,555.1,896.9 M579.1,702.8l-9.8-17.2c-3.7,9.8-7.4,19.6-9.8,29.1
	c9.1,2,19.3,3.7,29.7,5.4C585.8,714.3,582.4,708.6,579.1,702.8 M800.2,677.1l27.4-50.7l-27.4-50.7c-10.1-17.9-21-33.8-30.8-49.7
	c-18.3-1-37.5-1-57.8-1c-20.3,0-39.6,0-57.8,1c-9.8,15.9-20.6,31.8-30.8,49.7l-27.4,50.7l27.4,50.7c10.1,17.9,21,33.8,30.8,49.7
	c18.3,1,37.5,1,57.8,1c20.3,0,39.6,0,57.8-1C779.2,711,790,695.1,800.2,677.1 M711.6,450c-6.4,7.4-13.2,15.2-19.9,24.3h19.9h19.9
	C724.8,465.2,718,457.4,711.6,450 M711.6,802.9c6.4-7.4,13.2-15.2,19.9-24.3h-19.9h-19.9C698.4,787.7,705.2,795.5,711.6,802.9
	 M867.8,356c-21-12.8-67.6,6.8-121.4,57.5c17.6,19.9,34.8,41.6,51,64.2c27.7,2.7,55.1,6.8,81.1,12.2
	C895.8,417.5,889.4,367.8,867.8,356 M844.1,550l9.8,17.2c3.7-9.8,7.4-19.6,9.8-29.1c-9.1-2-19.3-3.7-29.7-5.4
	C837.3,538.5,840.7,544.3,844.1,550 M893.1,311.7c49.7,28.4,55.1,103.1,34.1,190.3c85.9,25.4,147.7,67.3,147.7,124.4
	c0,57.1-61.9,99.1-147.7,124.4c21,87.2,15.6,161.9-34.1,190.3c-49.4,28.4-116.6-4.1-181.5-65.9c-64.9,61.9-132.2,94.3-181.9,65.9
	c-49.4-28.4-54.8-103.1-33.8-190.3c-85.9-25.4-147.7-67.3-147.7-124.4c0-57.1,61.9-99.1,147.7-124.4c-21-87.2-15.6-161.9,33.8-190.3
	c49.7-28.4,117,4.1,181.9,65.9C776.5,315.8,843.8,283.3,893.1,311.7 M883.3,626.4c11.5,25.4,21.6,50.7,30.1,76.4
	c71-21.3,110.9-51.7,110.9-76.4c0-24.7-39.9-55.1-110.9-76.4C905,575.7,894.8,601.1,883.3,626.4 M539.9,626.4
	c-11.5-25.4-21.6-50.7-30.1-76.4c-71,21.3-110.9,51.7-110.9,76.4c0,24.7,39.9,55.1,110.9,76.4C518.2,677.2,528.4,651.8,539.9,626.4
	 M844.1,702.8c-3.4,5.7-6.8,11.5-10.1,17.2c10.5-1.7,20.6-3.4,29.7-5.4c-2.4-9.5-6.1-19.3-9.8-29.1L844.1,702.8 M746.4,839.4
	c53.7,50.7,100.4,70.3,121.4,57.5c21.6-11.8,28.1-61.5,10.8-133.9c-26,5.4-53.4,9.5-81.1,12.2C781.2,797.8,764,819.5,746.4,839.4
	 M579.1,550c3.4-5.7,6.8-11.5,10.1-17.2c-10.5,1.7-20.6,3.4-29.7,5.4c2.4,9.5,6.1,19.3,9.8,29.1L579.1,550 M676.8,413.5
	C623,362.8,576.4,343.2,555.1,356c-21.3,11.8-27.7,61.5-10.5,133.9c26-5.4,53.4-9.5,81.1-12.2C641.9,455.1,659.2,433.4,676.8,413.5
	L676.8,413.5z"/>
</svg>
