<?xml version="1.0" encoding="utf-8"?>
<!-- Generator: Adobe Illustrator 27.0.0, SVG Export Plug-In . SVG Version: 6.00 Build 0)  -->
<svg version="1.1" id="Capa_1" xmlns="http://www.w3.org/2000/svg" xmlns:xlink="http://www.w3.org/1999/xlink" x="0px" y="0px"
	 viewBox="0 0 1080 1080" style="enable-background:new 0 0 1080 1080;" xml:space="preserve">
<style type="text/css">
	.st0{fill:#4DB6AC;}
	.st1{fill:#A7FFEB;}
</style>
<path class="st0" d="M887.8,246H522.1L419.6,133.6c-9.7-14.6-29.2-19.5-43.9-19.5h-278C44,114.1,5,158,5,211.8v586.3
	c0,53.7,39,97.7,92.7,97.7h795c48.7,0,92.7-43.9,92.7-97.7V343.8C980.5,290,941.6,246,887.8,246L887.8,246z M887.8,798.1H97.7V211.8
	h268.3l102.5,112.4c9.7,14.6,29.2,19.5,43.9,19.5h380.5v454.4L887.8,798.1L887.8,798.1z"/>
<path class="st1" d="M490.8,652.8c26-104.3,90.9-156.5,194.8-156.5c155.8,0,175.3,117.4,253.1,136.9c52,13.1,97.4-6.5,136.3-58.7
	c-25.9,104.3-90.9,156.5-194.8,156.5c-155.8,0-175.3-117.4-253.1-136.9C575.2,581,529.8,600.6,490.8,652.8z M296.1,887.6
	c26-104.3,90.9-156.5,194.8-156.5c155.8,0,175.3,117.4,253.2,136.9c51.9,13.1,97.3-6.5,136.3-58.7c-26,104.3-90.9,156.5-194.8,156.5
	c-155.8,0-175.3-117.4-253.2-136.9C380.4,815.8,335,835.4,296.1,887.6z"/>
</svg>
