<?xml version="1.0" encoding="utf-8"?>
<!-- Generator: Adobe Illustrator 24.1.1, SVG Export Plug-In . SVG Version: 6.00 Build 0)  -->
<svg version="1.1" id="Capa_1" xmlns="http://www.w3.org/2000/svg" xmlns:xlink="http://www.w3.org/1999/xlink" x="0px" y="0px"
	 viewBox="0 0 1080 1080" style="enable-background:new 0 0 1080 1080;" xml:space="preserve">
<style type="text/css">
	.st0{fill:#5C6BC0;}
	.st1{fill:#C5CAE9;}
</style>
<path class="st0" d="M885.6,230.1H520.7L418.5,118c-9.7-14.6-29.2-19.5-43.8-19.5H97.4C43.9,98.5,5,142.4,5,196v584.8
	c0,53.6,38.9,97.5,92.4,97.5h793c48.6,0,92.4-43.9,92.4-97.5V327.6C978,274,939.1,230.1,885.6,230.1z M885.6,780.8H97.4V196H365
	l102.2,112.1c9.7,14.6,29.2,19.5,43.8,19.5h379.5v453.2H885.6z"/>
<path class="st1" d="M769.3,774.4l-74-74l0,0c49.3-59.2,88.8-123.3,108.5-192.3h88.8v-59.2H685.5v-64.1h-59.2V444H419.2v59.2h330.4
	c-19.7,59.2-49.3,113.4-93.7,157.8c-29.6-29.6-49.3-64.1-69-98.6h-59.2c19.7,49.3,49.3,93.7,88.8,133.1L463.6,843.4l44.4,44.4
	l147.9-147.9l93.7,93.7L769.3,774.4 M936.9,621.5h-59.2L744.6,981.5h59.2l34.5-88.8h143l34.5,88.8h59.2L936.9,621.5 M858.1,828.6
	l49.3-128.2l49.3,128.2H858.1z"/>
</svg>
