<?xml version="1.0" encoding="utf-8"?>
<!-- Generator: Adobe Illustrator 27.0.0, SVG Export Plug-In . SVG Version: 6.00 Build 0)  -->
<svg version="1.1" id="Capa_1" xmlns="http://www.w3.org/2000/svg" xmlns:xlink="http://www.w3.org/1999/xlink" x="0px" y="0px"
	 viewBox="0 0 1080 1080" style="enable-background:new 0 0 1080 1080;" xml:space="preserve">
<style type="text/css">
	.st0{fill:#FF5252;}
	.st1{fill-rule:evenodd;clip-rule:evenodd;fill:#FFCDD2;}
</style>
<path class="st0" d="M399,112.36H103.5c-54.67,0-98.5,43.83-98.5,98.5v591c0,54.03,44.47,98.5,98.5,98.5h788
	c54.03,0,98.5-44.47,98.5-98.5v-492.5c0-54.4-44.1-98.5-98.5-98.5h-394L399,112.36z"/>
<path class="st1" d="M794.67,365.11L1075,465l-42.49,371.03L794.67,967.64L556.83,836.03l-42.49-371.03L794.67,365.11
	 M794.67,431.71L619.31,824.93h65.32l35.2-88.16h149.04l35.2,88.16h65.01L794.67,431.71 M846.04,682.23H743.61l51.06-122.73
	L846.04,682.23z"/>
</svg>
