<?xml version="1.0" encoding="utf-8"?>
<!-- Generator: Adobe Illustrator 24.1.1, SVG Export Plug-In . SVG Version: 6.00 Build 0)  -->
<svg version="1.1" id="Capa_1" xmlns="http://www.w3.org/2000/svg" xmlns:xlink="http://www.w3.org/1999/xlink" x="0px" y="0px"
	 viewBox="0 0 1080 1080" style="enable-background:new 0 0 1080 1080;" xml:space="preserve">
<style type="text/css">
	.st0{fill:#FFB300;}
	.st1{fill:#FFECB3;}
</style>
<path class="st0" d="M885.6,260.8H520.7L418.5,148.7c-9.7-14.6-29.2-19.5-43.8-19.5H97.4C43.9,129.2,5,173.1,5,226.7v584.8
	c0,53.6,38.9,97.5,92.4,97.5h793c48.6,0,92.4-43.9,92.4-97.5V358.3C978,304.7,939.1,260.8,885.6,260.8z M885.6,811.5H97.4V226.7H365
	l102.2,112.1c9.7,14.6,29.2,19.5,43.8,19.5h379.5v453.2H885.6z"/>
<path class="st1" d="M921.5,634.2c-19.2-110.3-115.1-191.9-230.2-191.9c-91.1,0-172.7,52.8-211.1,129.5
	c-95.9,9.6-167.9,91.1-167.9,187.1c0,105.5,86.3,191.9,191.9,191.9h412.5c86.3,0,158.3-72,158.3-158.3
	C1070.2,710.9,1003,639,921.5,634.2L921.5,634.2z"/>
</svg>
