<?xml version="1.0" encoding="utf-8"?>
<!-- Generator: Adobe Illustrator 24.1.1, SVG Export Plug-In . SVG Version: 6.00 Build 0)  -->
<svg version="1.1" id="Capa_1" xmlns="http://www.w3.org/2000/svg" xmlns:xlink="http://www.w3.org/1999/xlink" x="0px" y="0px"
	 viewBox="0 0 1080 1080" style="enable-background:new 0 0 1080 1080;" xml:space="preserve">
<style type="text/css">
	.st0{fill:#42A5F5;}
	.st1{fill:#BBDEFB;}
</style>
<path class="st0" d="M885.6,269.5H520.8L418.5,157.4c-9.7-14.7-29.2-19.5-43.8-19.5H97.4C43.9,137.9,5,181.8,5,235.4v584.7
	c0,53.6,38.9,97.5,92.4,97.5h793c48.6,0,92.4-43.9,92.4-97.5V366.9C978,313.3,939.2,269.5,885.6,269.5z"/>
<path class="st1" d="M593.1,378.4l43.4,496.3l197.6,67.5l197.6-67.5l43.4-496.3H593.1z M988.3,479.5l-9.6,57.8L834.1,600l0,0h139.7
	l-14.5,183.1l-125.3,38.5l-125.3-38.5l-4.8-91.6h62.6l4.8,48.2l67.5,14.5l67.5-19.3l4.8-77.1H704l0,0l0,0l-4.8-57.8l139.7-57.8
	l9.6-4.8h-159l-9.6-57.8C679.9,479.5,988.3,479.5,988.3,479.5z"/>
</svg>
