<?xml version="1.0" encoding="utf-8"?>
<!-- Generator: Adobe Illustrator 24.1.1, SVG Export Plug-In . SVG Version: 6.00 Build 0)  -->
<svg version="1.1" id="Capa_1" xmlns="http://www.w3.org/2000/svg" xmlns:xlink="http://www.w3.org/1999/xlink" x="0px" y="0px"
	 viewBox="0 0 1080 1080" style="enable-background:new 0 0 1080 1080;" xml:space="preserve">
<style type="text/css">
	.st0{fill:#616161;}
	.st1{fill:#848992;}
	.st2{fill:#FFFFFF;}
</style>
<path class="st0" d="M885.6,243H520.7L418.5,130.9c-9.7-14.6-29.2-19.5-43.8-19.5H97.4C43.9,111.4,5,155.3,5,208.9v584.8
	c0,53.6,38.9,97.5,92.4,97.5h793c48.6,0,92.4-43.9,92.4-97.5V340.5C978,286.9,939.1,243,885.6,243z M885.6,793.7H97.4V208.9H365
	L467.2,321c9.7,14.6,29.2,19.5,43.8,19.5h379.5v453.2H885.6z"/>
<g transform="matrix(.93781 0 0 .93781 6.3843 4.1861)">
	<g transform="matrix(.061679 0 0 .061679 2.5631 2.568)">
		<path class="st1" d="M18432.8,11441c0,2847.6-2342.2,5189.8-5189.8,5189.8S8053.3,14288.6,8053.3,11441
			s2342.2-5189.8,5189.8-5189.8l0,0C16090.6,6251.3,18432.8,8593.5,18432.8,11441L18432.8,11441"/>
	</g>
	<g transform="matrix(.061679 0 0 .061679 2.5631 2.568)">
		<path class="st2" d="M13330.5,9497.3l1341.2,3314.1l-2026.3-1598.7C12645.4,11212.6,13330.5,9497.3,13330.5,9497.3z
			 M15716.4,13574.3l-2065.2-4971.1c-48.6-136.1-179.8-223.5-320.7-218.7c-145.8-4.9-277,82.6-330.4,218.7l-2269.3,5452.2h777.5
			l899-2249.9l2677.5,2162.4c106.9,87.5,184.7,126.3,286.7,126.3c4.9,0,4.9,0,9.7,0c204.1,0,369.3-165.2,369.3-369.3l0,0
			C15750.5,13676.3,15735.9,13622.8,15716.4,13574.3"/>
	</g>
</g>
</svg>
