<?xml version="1.0" encoding="utf-8"?>
<!-- Generator: Adobe Illustrator 27.0.0, SVG Export Plug-In . SVG Version: 6.00 Build 0)  -->
<svg version="1.1" id="Capa_1" xmlns="http://www.w3.org/2000/svg" xmlns:xlink="http://www.w3.org/1999/xlink" x="0px" y="0px"
	 viewBox="0 0 1080 1080" style="enable-background:new 0 0 1080 1080;" xml:space="preserve">
<style type="text/css">
	.st0{fill:#AA47BB;}
	.st1{fill:#E0BDE6;}
</style>
<path class="st0" d="M889.45,245.41H523.02L420.35,132.84c-9.73-14.64-29.27-19.56-44.01-19.56H97.84C44.1,113.28,5,157.29,5,211.13
	v587.38c0,53.84,39.1,97.85,92.84,97.85h796.52c48.82,0,92.84-44.01,92.84-97.85V343.36C982.29,289.53,943.29,245.41,889.45,245.41
	L889.45,245.41z M889.45,798.51H97.84V211.13h268.78l102.67,112.59c9.73,14.64,29.27,19.56,44.01,19.56h381.16v455.26h-5.01
	L889.45,798.51z"/>
<g>
	<path class="st1" d="M819.6,863.06c-4.92-20.48-1.04-41.06,0.58-61.57c2.09-26.31,2.43-52.53-5.98-77.98
		c-10.5-31.76-34.01-51.65-62.25-67.05c-15.7-8.55-32.17-15.41-48.69-22.11c-54.71-22.18-86.68-80.36-78.14-138.64
		c9.63-65.68,69.2-113.01,132.69-109.73c81.3,4.2,132.66,75.65,122.54,147.28c-4.03,28.52-5.2,57.34,1.46,85.8
		c8.64,36.96,33.16,60.64,65.49,77.68c12.74,6.71,25.53,13.33,39.18,18.04c11.36,3.92,21.63,10.01,32.12,15.67
		c3.75,2.03,7.15,4.65,10.04,7.79c2.93,3.2,5.86,6.39,9,9.36c47.72,45.02,49.01,123.24,7.85,172.8
		c-44.98,54.17-128.71,62.93-183.4,15.11c-10.06-8.8-18.36-18.6-25.41-29.67C833.57,900.93,822.28,874.2,819.6,863.06z"/>
	<circle class="st1" cx="590.6" cy="838.25" r="128.37"/>
</g>
</svg>
