<?xml version="1.0" encoding="utf-8"?>
<!-- Generator: Adobe Illustrator 24.1.1, SVG Export Plug-In . SVG Version: 6.00 Build 0)  -->
<svg version="1.1" id="Capa_1" xmlns="http://www.w3.org/2000/svg" xmlns:xlink="http://www.w3.org/1999/xlink" x="0px" y="0px"
	 viewBox="0 0 1080 1080" style="enable-background:new 0 0 1080 1080;" xml:space="preserve">
<style type="text/css">
	.st0{fill:#43A047;}
	.st1{fill-rule:evenodd;clip-rule:evenodd;fill:#C8E6C9;}
</style>
<path class="st0" d="M885.6,265.6H520.8L418.5,153.5c-9.7-14.7-29.2-19.5-43.8-19.5H97.4C43.9,133.9,5,177.8,5,231.4v584.7
	c0,53.6,38.9,97.5,92.4,97.5h793c48.6,0,92.4-43.9,92.4-97.5V363C978,309.4,939.2,265.6,885.6,265.6z"/>
<path class="st1" d="M1075,598.6H858.5l87.5-90.1c-87.2-86.2-228.3-89.4-315.5-3.2c-87.2,86.5-87.2,226.1,0,313
	c87.2,86.2,228.3,86.2,315.5,0c43.4-43.1,65.1-93.2,65.1-156.5h63.9c0,63.2-28.1,145.3-84.3,200.9c-112.1,111.1-294.1,111.1-406.2,0
	C472.7,751.9,471.8,571.8,583.8,461c112.1-110.8,291.9-110.8,404,0l87.2-89.7L1075,598.6 M803.6,530.9v135.7l111.8,66.4l-23,38.6
	l-136.7-81.1V530.9L803.6,530.9z"/>
</svg>
