<?xml version="1.0" encoding="utf-8"?>
<!-- Generator: Adobe Illustrator 27.0.0, SVG Export Plug-In . SVG Version: 6.00 Build 0)  -->
<svg version="1.1" id="Capa_1" xmlns="http://www.w3.org/2000/svg" xmlns:xlink="http://www.w3.org/1999/xlink" x="0px" y="0px"
	 viewBox="0 0 1080 1080" style="enable-background:new 0 0 1080 1080;" xml:space="preserve">
<style type="text/css">
	.st0{fill:#00897B;}
	.st1{fill:#B2DFDB;}
</style>
<path class="st0" d="M886.89,261.97H521.51L419.15,149.71c-9.7-14.6-29.19-19.5-43.88-19.5H97.57C43.99,130.21,5,174.1,5,227.78
	v585.69c0,53.68,38.99,97.57,92.57,97.57h794.22c48.68,0,92.57-43.88,92.57-97.57V359.64C979.46,305.95,940.57,261.97,886.89,261.97
	L886.89,261.97z M886.89,813.47H97.57V227.78h268.01l102.37,112.26c9.7,14.6,29.19,19.5,43.88,19.5h380.06v453.94L886.89,813.47
	L886.89,813.47z"/>
<path class="st1" d="M412.11,863.32c-0.39-47.79-0.79-88.19-0.39-90.17l0.39-3.5l29.76-0.59c16.26-0.39,29.91-0.79,30.06-0.99
	c0,0,0.25-22.17,0.25-48.78c0-38.43,0.39-50.16,1.72-54.99c5.42-20.4,21.19-36.76,41.98-43.56c3.7-1.13,26.26-1.53,100.86-2.12
	l96.23-0.59l0.39-44.49l0.2-44.69h-60.6V348.09h180.68v180.77h-59.47v89.57l96.08,0.39c106.08,0.59,100.41,0,114.21,8.18
	c7.59,4.43,10.35,6.8,16.75,15.13c6.6,8.77,10.69,17.74,12.02,27.59c0.59,4.29,1.18,28.58,1.18,54.2v46.31h60.6v179.54H894.87
	l-0.79-180.72h27.79c15.37,0,28.97-0.39,30.55-0.79l2.46-0.59v-88.39H774.25v89.77h59.47v180.72H652.95V769.06h27.79
	c15.18,0,28.77-0.39,30.35-0.79l2.46-0.59v-88.39H532.83v89.77h59.47v180.72H412.9L412.11,863.32z"/>
</svg>
