<?xml version="1.0" encoding="utf-8"?>
<!-- Generator: Adobe Illustrator 24.1.1, SVG Export Plug-In . SVG Version: 6.00 Build 0)  -->
<svg version="1.1" id="Capa_1" xmlns="http://www.w3.org/2000/svg" xmlns:xlink="http://www.w3.org/1999/xlink" x="0px" y="0px"
	 viewBox="0 0 1080 1080" style="enable-background:new 0 0 1080 1080;" xml:space="preserve">
<style type="text/css">
	.st0{fill:#AFB42B;}
	.st1{fill:#F0F4C3;}
</style>
<path class="st0" d="M885.6,241.9H520.7L418.5,129.8c-9.7-14.6-29.2-19.5-43.8-19.5H97.4C43.9,110.3,5,154.2,5,207.8v584.8
	C5,846.2,43.9,890,97.4,890h793c48.6,0,92.4-43.9,92.4-97.5V339.4C978,285.7,939.1,241.9,885.6,241.9z M885.6,792.6H97.4V207.8H365
	l102.2,112.1c9.7,14.6,29.2,19.5,43.8,19.5h379.5v453.2H885.6z"/>
<path class="st1" d="M929.5,373c-14.7,0-29.3,4.9-44,19.6L709.4,568.6l171.2,171.2l176.1-176.1c24.5-24.5,24.5-58.7,0-83.1
	l-83.1-83.1C958.8,382.8,944.2,373,929.5,373 M680.1,593.1L504,774.1c-24.5,24.5-24.5,58.7,0,83.1c-34.2,39.1-73.4,73.4-112.5,112.5
	h171.2l24.5-24.5c24.5,24.5,58.7,24.5,83.1,0l176.1-181"/>
</svg>
