<?xml version="1.0" encoding="utf-8"?>
<!-- Generator: Adobe Illustrator 24.1.1, SVG Export Plug-In . SVG Version: 6.00 Build 0)  -->
<svg version="1.1" id="Capa_1" xmlns="http://www.w3.org/2000/svg" xmlns:xlink="http://www.w3.org/1999/xlink" x="0px" y="0px"
	 viewBox="0 0 1080 1080" style="enable-background:new 0 0 1080 1080;" xml:space="preserve">
<style type="text/css">
	.st0{fill:#78909C;}
	.st1{fill:#CFD8DC;}
</style>
<path class="st0" d="M885.6,261.2H520.7L418.5,149.1c-9.7-14.6-29.2-19.5-43.8-19.5H97.4C43.9,129.6,5,173.4,5,227v584.8
	c0,53.6,38.9,97.5,92.4,97.5h793c48.6,0,92.4-43.9,92.4-97.5V358.6C978,305,939.1,261.2,885.6,261.2z M885.6,811.8H97.4V227H365
	l102.2,112.1c9.7,14.6,29.2,19.5,43.8,19.5h379.5v453.2H885.6z"/>
<path class="st1" d="M1075,593.7v-89.2H896.7c-49.5,0-89.2,39.6-89.2,89.2v89.2c0,49.5,39.6,89.2,89.2,89.2l0,0h89.2v89.2H807.5
	v89.2h178.3c49.5,0,89.2-39.6,89.2-89.2v-89.2c0-49.5-39.6-89.2-89.2-89.2h-89.2v-89.2 M673.8,861.2h-89.2V593.7h89.2 M673.8,504.6
	h-89.2c-49.5,0-89.2,39.6-89.2,89.2v267.5c0,49.5,39.6,89.2,89.2,89.2h89.2c49.5,0,89.2-39.6,89.2-89.2V593.7
	C762.9,544.2,723.3,504.6,673.8,504.6 M361.7,950.4h89.2V682.9h-89.2 M361.7,593.7h89.2v-89.2h-89.2V593.7z"/>
</svg>
