<?xml version="1.0" encoding="utf-8"?>
<!-- Generator: Adobe Illustrator 24.1.1, SVG Export Plug-In . SVG Version: 6.00 Build 0)  -->
<svg version="1.1" id="Capa_1" xmlns="http://www.w3.org/2000/svg" xmlns:xlink="http://www.w3.org/1999/xlink" x="0px" y="0px"
	 viewBox="0 0 1080 1080" style="enable-background:new 0 0 1080 1080;" xml:space="preserve">
<style type="text/css">
	.st0{fill:#5C6BC0;}
	.st1{fill-rule:evenodd;clip-rule:evenodd;fill:#C5CAE9;}
</style>
<path class="st0" d="M885.6,267.1H520.8L418.5,155c-9.7-14.7-29.2-19.5-43.8-19.5H97.4C43.9,135.5,5,179.3,5,232.9v584.7
	c0,53.6,38.9,97.5,92.4,97.5h793c48.6,0,92.4-43.9,92.4-97.5V364.5C978,310.9,939.2,267.1,885.6,267.1z"/>
<path class="st1" d="M1013.4,883H582.6V544.5h430.9 M1013.4,390.6h-30.8V329h-61.5v61.5H674.9V329h-61.5v61.5h-30.8
	c-34.2,0-61.5,27.7-61.5,61.5V883c0,34,27.6,61.5,61.5,61.5h430.9c34,0,61.5-27.6,61.5-61.5V452.1
	C1075,418.1,1047.4,390.6,1013.4,390.6 M937.4,638.6L904.8,606L754.6,756.2L689.4,691l-32.6,32.6l97.9,97.9L937.4,638.6z"/>
</svg>
