<?xml version="1.0" encoding="utf-8"?>
<!-- Generator: Adobe Illustrator 24.1.1, SVG Export Plug-In . SVG Version: 6.00 Build 0)  -->
<svg version="1.1" id="Capa_1" xmlns="http://www.w3.org/2000/svg" xmlns:xlink="http://www.w3.org/1999/xlink" x="0px" y="0px"
	 viewBox="0 0 1080 1080" style="enable-background:new 0 0 1080 1080;" xml:space="preserve">
<style type="text/css">
	.st0{fill:#00BCD4;}
	.st1{fill:#B2EBF2;}
</style>
<path class="st0" d="M885.6,255.6H520.7L418.5,143.5c-9.7-14.6-29.2-19.5-43.8-19.5H97.4C43.9,124,5,167.9,5,221.5v584.8
	c0,53.6,38.9,97.5,92.4,97.5h793c48.6,0,92.4-43.9,92.4-97.5V353.1C978,299.4,939.1,255.6,885.6,255.6z M885.6,806.3H97.4V221.5H365
	l102.2,112.1c9.7,14.6,29.2,19.5,43.8,19.5h379.5v453.2H885.6z"/>
<path class="st1" d="M793.6,659.6h195.9v50.2H793.6V659.6z M793.6,579.2h195.9v50.2H793.6V579.2z M793.6,740h195.9v50.2H793.6V740z
	 M1019.7,403.3H512.3c-30.1,0-55.3,30.1-55.3,65.3v422c0,35.2,25.1,65.3,55.3,65.3h507.4c30.1,0,55.3-30.1,55.3-65.3v-422
	C1075,433.5,1049.9,403.3,1019.7,403.3L1019.7,403.3z M1019.7,885.7H763.5v-422h256.2V885.7z"/>
</svg>
