<?xml version="1.0" encoding="utf-8"?>
<!-- Generator: Adobe Illustrator 24.1.1, SVG Export Plug-In . SVG Version: 6.00 Build 0)  -->
<svg version="1.1" id="Capa_1" xmlns="http://www.w3.org/2000/svg" xmlns:xlink="http://www.w3.org/1999/xlink" x="0px" y="0px"
	 viewBox="0 0 1080 1080" style="enable-background:new 0 0 1080 1080;" xml:space="preserve">
<style type="text/css">
	.st0{fill:#546E7A;}
	.st1{fill:#FAFAFA;}
</style>
<path class="st0" d="M885.6,253.7H520.7L418.5,141.6c-9.7-14.6-29.2-19.5-43.8-19.5H97.4C43.9,122.1,5,165.9,5,219.5v584.8
	c0,53.6,38.9,97.5,92.4,97.5h793c48.6,0,92.4-43.9,92.4-97.5V351.1C978,297.5,939.1,253.7,885.6,253.7z M885.6,804.3H97.4V219.5H365
	l102.2,112.1c9.7,14.6,29.2,19.5,43.8,19.5h379.5v453.2H885.6z"/>
<g transform="matrix(.049538 0 0 .049538 9.9952 7.3779)">
	<circle class="st1" cx="15369.1" cy="12965.4" r="1480.9"/>
	<path class="st1" d="M15275.9,6742.6c-2898.1,0-5335.2,1981.1-6026.7,4668.3c-4.9,24.5-9.8,49-9.8,73.6
		c0,161.8,132.4,294.2,294.2,294.2h2510.7c117.7,0,220.7-68.7,269.7-171.6c0,0,4.9-4.9,4.9-9.8
		c519.8-1118,1647.6-1892.8,2956.9-1892.8c1799.7,0,3261,1461.3,3261,3261s-1461.3,3261-3261,3261
		c-1309.3,0-2442.1-774.8-2956.9-1892.8c0-4.9-4.9-9.8-4.9-9.8c-49-103-152-171.6-269.7-171.6H9533.7
		c-161.8,0-294.2,132.4-294.2,294.2c0,24.5,4.9,49,9.8,73.6c691.4,2682.3,3128.6,4668.3,6026.7,4668.3
		c3437.5,0,6222.8-2785.3,6222.8-6222.8S18713.4,6742.6,15275.9,6742.6L15275.9,6742.6z"/>
</g>
</svg>
