<?xml version="1.0" encoding="utf-8"?>
<!-- Generator: Adobe Illustrator 24.1.1, SVG Export Plug-In . SVG Version: 6.00 Build 0)  -->
<svg version="1.1" id="Capa_1" xmlns="http://www.w3.org/2000/svg" xmlns:xlink="http://www.w3.org/1999/xlink" x="0px" y="0px"
	 viewBox="0 0 1080 1080" style="enable-background:new 0 0 1080 1080;" xml:space="preserve">
<style type="text/css">
	.st0{fill:#8BC34A;}
	.st1{fill-rule:evenodd;clip-rule:evenodd;fill:#DCEDC8;}
</style>
<path class="st0" d="M885.6,251.8H520.7L418.6,139.7c-9.7-14.7-29.2-19.5-43.8-19.5H97.4C43.9,120.2,5,164,5,217.6v584.8
	c0,53.6,38.9,97.5,92.4,97.5h793c48.7,0,92.4-43.9,92.4-97.5V349.2C978,295.6,939.2,251.8,885.6,251.8z"/>
<path class="st1" d="M871.1,406.5H842v-29.1h29.1 M725.5,406.5h-29.1v-29.1h29.1 M886.6,323.7l38.2-38.2c5.5-5.5,5.5-14.9,0-20.7
	c-5.8-5.5-15.1-5.5-20.7,0L860.9,308c-23.3-11.4-49.5-18.1-77.2-18.1c-28,0-54.2,6.7-77.5,18.3l-43.4-43.4c-5.5-5.5-14.9-5.5-20.4,0
	c-5.8,5.8-5.8,15.1,0,20.7l38.2,38.2c-43.4,32-71.6,82.7-71.6,141h349.5C958.5,406.5,929.4,355.5,886.6,323.7 M1031.3,493.8
	c-24.1,0-43.7,19.6-43.7,43.7v203.9c0,24.1,19.6,43.7,43.7,43.7c24.1,0,43.7-19.6,43.7-43.7V537.5
	C1075,513.4,1055.4,493.8,1031.3,493.8 M536.2,493.8c-24.1,0-43.7,19.6-43.7,43.7v203.9c0,24.1,19.6,43.7,43.7,43.7
	s43.7-19.6,43.7-43.7V537.5C579.8,513.4,560.3,493.8,536.2,493.8 M609,785.1c0,16.1,13,29.1,29.1,29.1h0h29.1v101.9
	c0,24.1,19.6,43.7,43.7,43.7s43.7-19.6,43.7-43.7V814.2h58.2v101.9c0,24.1,19.6,43.7,43.7,43.7c24.1,0,43.7-19.6,43.7-43.7V814.2
	h29.1c16.1,0,29.1-13,29.1-29.1l0,0V493.8H609L609,785.1z"/>
</svg>
