<?xml version="1.0" encoding="utf-8"?>
<!-- Generator: Adobe Illustrator 24.1.1, SVG Export Plug-In . SVG Version: 6.00 Build 0)  -->
<svg version="1.1" id="Capa_1" xmlns="http://www.w3.org/2000/svg" xmlns:xlink="http://www.w3.org/1999/xlink" x="0px" y="0px"
	 viewBox="0 0 1080 1080" style="enable-background:new 0 0 1080 1080;" xml:space="preserve">
<style type="text/css">
	.st0{fill:#EF5350;}
	.st1{fill-rule:evenodd;clip-rule:evenodd;fill:#FFCDD2;}
</style>
<path class="st0" d="M885.6,272.2H520.8L418.5,160c-9.7-14.7-29.2-19.5-43.8-19.5H97.4C43.9,140.5,5,184.4,5,238v584.7
	c0,53.6,38.9,97.5,92.4,97.5h793c48.6,0,92.4-43.9,92.4-97.5V369.6C978,316,939.2,272.2,885.6,272.2z"/>
<path class="st1" d="M763.7,826.3L650.5,713.1l39.9-39.9l73.3,73l186.5-186.5l39.9,40.2 M820.3,430.1c15.6,0,28.3,12.7,28.3,28.3
	c0,0,0,0,0,0c0,15.6-12.7,28.3-28.3,28.3l0,0c-15.6,0-28.3-12.7-28.3-28.3c0,0,0,0,0,0C792,442.8,804.7,430.1,820.3,430.1
	L820.3,430.1 M1018.4,430.1H900.1c-11.9-32.8-43-56.6-79.8-56.6c-36.8,0-67.9,23.8-79.8,56.6H622.2c-31.3,0-56.6,25.3-56.6,56.6
	v396.2c0,31.3,25.3,56.6,56.6,56.6l0,0h396.2c31.3,0,56.6-25.3,56.6-56.6c0,0,0,0,0,0V486.7C1075,455.4,1049.7,430.1,1018.4,430.1
	C1018.4,430.1,1018.4,430.1,1018.4,430.1z"/>
</svg>
