<?xml version="1.0" encoding="utf-8"?>
<!-- Generator: Adobe Illustrator 27.0.0, SVG Export Plug-In . SVG Version: 6.00 Build 0)  -->
<svg version="1.1" id="Capa_1" xmlns="http://www.w3.org/2000/svg" xmlns:xlink="http://www.w3.org/1999/xlink" x="0px" y="0px"
	 viewBox="0 0 1080 1080" style="enable-background:new 0 0 1080 1080;" xml:space="preserve">
<style type="text/css">
	.st0{fill:#8D6E63;}
	.st1{fill:#D7CCC8;}
</style>
<path class="st0" d="M886.89,261.1L886.89,261.1H521.51L419.15,148.85c-9.7-14.6-29.19-19.5-43.88-19.5H97.57
	C43.99,129.35,5,173.23,5,226.92V812.6c0,53.68,38.99,97.57,92.57,97.57h794.22c48.68,0,92.57-43.88,92.57-97.57V358.77
	C979.46,305.09,940.57,261.1,886.89,261.1z M891.89,812.61h-5v-0.01H97.57V226.92h268.01l102.37,112.26
	c9.7,14.6,29.19,19.5,43.88,19.5h380.06V812.61z"/>
<path class="st1" d="M1033.44,761.76H482.48c-22.95,0-41.56,18.61-41.56,41.56v105.77c0,22.95,18.61,41.56,41.56,41.56h550.96
	c22.95,0,41.56-18.61,41.56-41.56V803.32C1075,780.37,1056.39,761.76,1033.44,761.76z"/>
</svg>
