<?xml version="1.0" encoding="utf-8"?>
<!-- Generator: Adobe Illustrator 24.1.1, SVG Export Plug-In . SVG Version: 6.00 Build 0)  -->
<svg version="1.1" id="Capa_1" xmlns="http://www.w3.org/2000/svg" xmlns:xlink="http://www.w3.org/1999/xlink" x="0px" y="0px"
	 viewBox="0 0 1080 1080" style="enable-background:new 0 0 1080 1080;" xml:space="preserve">
<style type="text/css">
	.st0{fill:#1E88E5;}
	.st1{fill:#BBDEFB;}
</style>
<path class="st0" d="M880.7,241.1H515.8L413.7,129c-9.7-14.6-29.2-19.5-43.8-19.5H92.6C43.9,109.5,5,153.4,5,207v584.8
	c0,53.6,38.9,97.5,92.4,97.5h793c48.6,0,92.4-43.9,92.4-97.5V338.5C973.1,284.9,939.1,241.1,880.7,241.1z M880.7,791.7h-793V207
	h267.6L457.4,319c9.7,14.6,29.2,19.5,43.8,19.5h379.5V791.7z"/>
<path class="st1" d="M947.4,661.3c-29.4,0-54-24.5-54-54c0-29.4,24.5-54,54-54l0,0c29.4,0,54,24.5,54,54l0,0
	C1001.4,636.8,976.8,661.3,947.4,661.3L947.4,661.3 M844.3,519c-29.4,0-54-24.5-54-54l0,0c0-29.4,24.5-54,54-54l0,0
	c29.4,0,54,24.5,54,54l0,0C898.3,494.4,873.8,519,844.3,519L844.3,519 M667.6,519c-29.4,0-54-24.5-54-54c0-29.4,24.5-54,54-54l0,0
	c29.4,0,54,24.5,54,54l0,0C721.6,494.4,697.1,519,667.6,519L667.6,519 M564.6,661.3c-29.4,0-54-24.5-54-54c0-29.4,24.5-54,54-54l0,0
	c29.4,0,54,24.5,54,54l0,0C618.6,636.8,594,661.3,564.6,661.3L564.6,661.3 M756,342.3c-171.8,0-314.1,142.3-314.1,314.1l0,0
	c0,171.8,142.3,314.1,314.1,314.1l0,0c29.4,0,54-24.5,54-54l0,0c0-14.7-4.9-24.5-14.7-34.4c-9.8-9.8-14.7-19.6-14.7-34.4
	c0-29.4,24.5-54,54-54l0,0h63.8c98.2,0,176.7-78.5,176.7-176.7l0,0C1070.1,469.9,932.7,342.3,756,342.3L756,342.3z"/>
</svg>
