<?xml version="1.0" encoding="utf-8"?>
<!-- Generator: Adobe Illustrator 27.0.0, SVG Export Plug-In . SVG Version: 6.00 Build 0)  -->
<svg version="1.1" id="Capa_1" xmlns="http://www.w3.org/2000/svg" xmlns:xlink="http://www.w3.org/1999/xlink" x="0px" y="0px"
	 viewBox="0 0 1080 1080" style="enable-background:new 0 0 1080 1080;" xml:space="preserve">
<style type="text/css">
	.st0{fill:#009688;}
	.st1{fill:#B2DFDB;}
</style>
<path class="st0" d="M891.56,217.45H497.53l-98.5-98.5H103.5c-54.67,0-98.5,43.84-98.5,98.5v591.04c0,54.03,44.48,98.5,98.5,98.5
	h788.05c54.03,0,98.5-44.48,98.5-98.5V315.97C990.07,261.56,945.96,217.45,891.56,217.45z"/>
<path class="st1" d="M798.87,408.88c-152.37-0.09-275.96,123.35-276.05,275.72c0,0.12,0,0.24,0,0.37
	c-0.11,152.37,123.31,275.97,275.68,276.09c0.14,0,0.27,0,0.41,0c152.39,0.09,276-123.37,276.09-275.76c0-0.11,0-0.22,0-0.33
	C1075,532.38,950.51,408.88,798.87,408.88z M669.37,744.21c9.04,12.04,21.08,17.05,38.13,17.05c8.05,0,16.1-1.03,23.13-4.03
	c6.98-2.96,15.04-7.03,25.06-13.07l28.1,40.14c-22.16,18.66-50.33,28.66-79.29,28.14c-24.12,0-44.17-5.05-62.24-15.08
	c-17.51-10.33-31.5-25.71-40.14-44.12c-9.04-19.1-14.05-41.17-14.05-67.29c0-25.06,5.01-48.15,14.01-67.25
	c8.63-18.98,22.6-35.05,40.26-46.14c17.01-11.09,38.09-16.1,61.22-16.1c16.06,0,31.1,2.01,43.14,7.03
	c13.56,5.26,26.09,12.74,37.14,22.1l-28.1,38.13c-7.14-5.27-14.89-9.66-23.09-13.06c-7.7-2.86-15.87-4.23-24.08-4.03
	c-34.14,0-51.19,26.13-51.19,79.29c-0.99,27.16,4.03,46.22,12.04,58.26L669.37,744.21z M945.46,806.45
	c-10.02,31.14-25.06,54.23-46.18,71.28c-21.08,17.09-49.22,26.13-84.34,29.13l-6.98-47.16c23.05-3.04,40.14-8.05,51.19-16.1
	c3.99-2.96,12.04-12.04,12.04-12.04L787.86,564.5h69.23l48.19,199.79l51.23-199.79h67.25L945.46,806.45z"/>
</svg>
