<?xml version="1.0" encoding="utf-8"?>
<!-- Generator: Adobe Illustrator 27.0.0, SVG Export Plug-In . SVG Version: 6.00 Build 0)  -->
<svg version="1.1" id="Capa_1" xmlns="http://www.w3.org/2000/svg" xmlns:xlink="http://www.w3.org/1999/xlink" x="0px" y="0px"
	 viewBox="0 0 1080 1080" style="enable-background:new 0 0 1080 1080;" xml:space="preserve">
<style type="text/css">
	.st0{fill:#FF7043;}
	.st1{fill:#FFCCBC;}
</style>
<path class="st0" d="M886.97,260.74h-365.4L419.19,148.48c-9.7-14.6-29.19-19.5-43.88-19.5H97.58C43.99,128.98,5,172.86,5,226.56
	v585.73c0,53.68,38.99,97.58,92.58,97.58h794.29c48.68,0,92.58-43.88,92.58-97.58V358.42C979.55,304.73,940.66,260.74,886.97,260.74
	L886.97,260.74z M886.97,812.29H97.58V226.56H365.6l102.38,112.27c9.7,14.6,29.19,19.5,43.88,19.5h380.09v453.98h-5L886.97,812.29z"
	/>
<g transform="matrix(.085405 0 0 .085405 8.141 6.1166)">
	<path class="st1" d="M4364.85,6672.74l4063.33-2667.22v1723.86L4364.85,8396.55V6672.74z"/>
	<path class="st1" d="M4364.85,8396.55l4063.33,2667.27V9339.97L4364.85,6672.69V8396.55z"/>
	<path class="st1" d="M12491.76,8396.55l-4063.33,2667.27V9339.97l4063.33-2667.27V8396.55z"/>
	<path class="st1" d="M12491.76,6672.74L8428.43,4005.52v1723.86l4063.33,2667.22V6672.74z"/>
</g>
</svg>
