<?xml version="1.0" encoding="utf-8"?>
<!-- Generator: Adobe Illustrator 24.1.1, SVG Export Plug-In . SVG Version: 6.00 Build 0)  -->
<svg version="1.1" id="Capa_1" xmlns="http://www.w3.org/2000/svg" xmlns:xlink="http://www.w3.org/1999/xlink" x="0px" y="0px"
	 viewBox="0 0 1080 1080" style="enable-background:new 0 0 1080 1080;" xml:space="preserve">
<style type="text/css">
	.st0{fill:#FF7043;}
	.st1{fill:#FFCCBC;}
</style>
<path class="st0" d="M885.6,258.5H520.8L418.5,146.4c-9.7-14.7-29.2-19.5-43.8-19.5H97.4C43.9,126.8,5,170.7,5,224.3v584.7
	c0,53.6,38.9,97.5,92.4,97.5h793c48.6,0,92.4-43.9,92.4-97.5V355.9C978,302.3,939.2,258.5,885.6,258.5z"/>
<g transform="matrix(.69978 0 0 .69978 8.6102 6.7292)">
	<path class="st1" d="M589.5,803L868,524l81.4,81.9c-11.6,41,7.2,85.8,44.8,107.5v266.9c-28.9,16.4-48.2,47.7-48.2,83.4
		c0,52.9,43.5,96.4,96.4,96.4c52.9,0,96.4-43.5,96.4-96.4c0-35.7-19.3-67-48.2-83.4V746.2l99.7,100.7c-3.4,7.2-3.4,15.4-3.4,24.1
		c0,52.9,43.5,96.4,96.4,96.4c52.9,0,96.4-43.5,96.4-96.4c0-52.9-43.5-96.4-96.4-96.4c-8.7,0-16.9,0-24.1,3.4l-123.8-123.8
		c12.5-44.8-10.6-94-55.4-112.8c-20.7-7.7-42.4-9.6-61.7-4.3l-81.9-81.4l38.1-37.6c37.6-38.1,98.3-38.1,135.9,0l385,385
		c38.1,37.6,38.1,98.3,0,135.9l-385,385c-37.6,38.1-98.3,38.1-135.9,0l-385-385C551.4,901.3,551.4,840.6,589.5,803z"/>
</g>
</svg>
