<?xml version="1.0" encoding="utf-8"?>
<!-- Generator: Adobe Illustrator 27.0.0, SVG Export Plug-In . SVG Version: 6.00 Build 0)  -->
<svg version="1.1" id="Capa_1" xmlns="http://www.w3.org/2000/svg" xmlns:xlink="http://www.w3.org/1999/xlink" x="0px" y="0px"
	 viewBox="0 0 1080 1080" style="enable-background:new 0 0 1080 1080;" xml:space="preserve">
<style type="text/css">
	.st0{fill:#0288D1;}
	.st1{fill:#B3E5FC;}
</style>
<path class="st0" d="M886.97,261.77h-365.4L419.19,149.51c-9.7-14.6-29.19-19.5-43.88-19.5H97.58C43.99,130.01,5,173.89,5,227.59
	v585.73C5,867,43.99,910.9,97.58,910.9h794.29c48.68,0,92.58-43.88,92.58-97.58V359.45C979.55,305.76,940.66,261.77,886.97,261.77
	L886.97,261.77z M886.97,813.32H97.58V227.59H365.6l102.38,112.27c9.7,14.6,29.19,19.5,43.88,19.5h380.09v453.98h-5L886.97,813.32z"
	/>
<path class="st1" d="M1055.67,815.93c-34.6,8.23-52.1,15.8-94.93,43.67c-67.01,43.23-140.09,63.32-140.09,63.32
	s-6.03,9.12-23.58,13.21c-30.26,7.38-144.18,13.61-154.55,13.86c-27.92,0.2-44.97-7.13-49.76-18.6
	c-14.46-34.6,20.79-49.76,20.79-49.76s-7.83-4.74-12.36-9.07c-4.09-4.09-8.43-12.31-9.72-9.27c-5.38,13.16-8.23,45.37-22.68,59.88
	c-19.89,20.09-57.53,13.41-79.77,1.74c-24.43-12.96,1.7-43.47,1.7-43.47s-13.16,7.78-23.78-8.23c-9.47-14.71-18.35-39.78-15.95-70.7
	c2.99-35.65,42.38-69.8,42.38-69.8s-6.98-52.15,15.75-105.54c20.54-48.66,75.88-87.75,75.88-87.75s-46.47-51.25-29.17-97.72
	c11.22-30.31,15.75-30.06,19.44-31.41c12.96-4.99,25.53-10.32,34.8-20.49c46.52-50.15,105.69-40.68,105.69-40.68
	s27.72-84.95,53.64-68.3c7.98,5.18,36.74,69.2,36.74,69.2s30.71-17.95,34.2-11.27c18.6,36.1,20.74,105.1,12.51,147.07
	c-13.81,69.15-48.41,106.34-62.27,129.68c-3.24,5.38,37.19,22.48,62.72,93.23c23.58,64.61,2.59,118.86,6.28,124.94l0.85,1.5
	c0,0,27.02,2.14,81.26-31.36c29.02-17.95,63.37-38.04,102.5-38.49C1082.04,764.67,1083.99,809.2,1055.67,815.93z"/>
</svg>
