<?xml version="1.0" encoding="utf-8"?>
<!-- Generator: Adobe Illustrator 24.1.1, SVG Export Plug-In . SVG Version: 6.00 Build 0)  -->
<svg version="1.1" id="Capa_1" xmlns="http://www.w3.org/2000/svg" xmlns:xlink="http://www.w3.org/1999/xlink" x="0px" y="0px"
	 viewBox="0 0 1080 1080" style="enable-background:new 0 0 1080 1080;" xml:space="preserve">
<style type="text/css">
	.st0{fill:#8BC34A;}
	
		.st1{fill-rule:evenodd;clip-rule:evenodd;fill:#DCEDC8;stroke:#DCEDC8;stroke-width:0.2932;stroke-linejoin:round;stroke-miterlimit:10;}
</style>
<path class="st0" d="M885.6,263.4H520.8L418.5,151.3c-9.7-14.7-29.2-19.5-43.8-19.5H97.4C43.9,131.8,5,175.7,5,229.2V814
	c0,53.6,38.9,97.5,92.4,97.5h793c48.6,0,92.4-43.9,92.4-97.5V360.8C978,307.2,939.2,263.4,885.6,263.4z"/>
<g transform="matrix(.17228 0 0 .17228 8.3783 6.4361)">
	<path class="st1" d="M5019.7,4374.4c140.8-14.6,247.6-135.9,242.7-281.6s-126.2-262.1-271.8-262.1h-9.7
		c-150.5,4.9-267,131.1-262.1,281.6c4.9,72.8,34,135.9,77.7,179.6c-165.1,325.2-417.5,563.1-796.1,762.1
		C3743,5190,3476,5238.5,3209,5204.6c-218.5-29.1-388.4-126.2-495.2-286.4c-155.3-237.9-169.9-495.2-38.8-752.4
		c92.2-184.5,237.9-320.4,330.1-388.4c-19.4-63.1-48.5-169.9-63.1-247.6c-703.9,509.7-631.1,1199-417.5,1524.3
		c160.2,242.7,485.4,393.2,844.7,393.2c97.1,0,194.2-9.7,291.3-34C4281.8,5291.9,4752.7,4923,5019.7,4374.4z"/>
	<path class="st1" d="M5874.1,3772.5c-368.9-432-912.6-669.9-1534-669.9h-77.7c-43.7-87.4-135.9-145.6-237.9-145.6h-9.7
		c-150.5,4.9-267,131.1-262.1,281.6c4.9,145.6,126.2,262.1,271.8,262.1h9.7c106.8-4.9,199-72.8,237.9-165.1h87.4
		c368.9,0,718.5,106.8,1034,315.5c242.7,160.2,417.5,368.9,514.6,621.4c82.5,203.9,77.7,402.9-9.7,572.8
		c-135.9,257.3-364.1,398.1-665.1,398.1c-194.2,0-378.6-58.3-475.7-101.9c-53.4,48.5-150.5,126.2-218.5,174.8
		c208.7,97.1,422.3,150.5,626.2,150.5c466,0,810.7-257.3,941.8-514.6C6247.9,4670.6,6238.1,4185.1,5874.1,3772.5z"/>
	<path class="st1" d="M3408,4457c4.9,145.6,126.2,262.1,271.8,262.1h9.7c150.5-4.9,267-131.1,262.1-281.6
		c-4.9-145.6-126.2-262.1-271.8-262.1h-9.7c-9.7,0-24.3,0-34,4.9c-199-330.1-281.6-689.3-252.4-1077.7
		c19.4-291.3,116.5-543.7,286.4-752.4c140.8-179.6,412.6-267,597.1-271.8c514.6-9.7,733,631.1,747.6,888.4
		c63.1,14.6,169.9,48.5,242.7,72.8c-58.3-786.4-543.7-1194.2-1009.7-1194.2c-436.9,0-839.8,315.5-1000,781.6
		c-223.3,621.4-77.7,1218.5,194.2,1689.3C3417.7,4350.2,3403.1,4403.6,3408,4457z"/>
</g>
</svg>
