<?xml version="1.0" encoding="utf-8"?>
<!-- Generator: Adobe Illustrator 24.1.1, SVG Export Plug-In . SVG Version: 6.00 Build 0)  -->
<svg version="1.1" id="Capa_1" xmlns="http://www.w3.org/2000/svg" xmlns:xlink="http://www.w3.org/1999/xlink" x="0px" y="0px"
	 viewBox="0 0 1080 1080" style="enable-background:new 0 0 1080 1080;" xml:space="preserve">
<style type="text/css">
	.st0{fill:#C0CA33;}
	.st1{fill-rule:evenodd;clip-rule:evenodd;fill:#F0F4C3;}
</style>
<path class="st0" d="M885.6,264.2H520.8L418.5,152.1c-9.7-14.7-29.2-19.5-43.8-19.5H97.4C43.9,132.6,5,176.5,5,230.1v584.7
	c0,53.6,38.9,97.5,92.4,97.5h793c48.6,0,92.4-43.9,92.4-97.5V361.6C978,308,939.2,264.2,885.6,264.2z"/>
<path class="st1" d="M453.3,367.9h257.6v139.7l182.2-181.9L1075,507.6L893.1,689.9h139.7v257.6H775.2V689.9h117.8L710.8,507.6v117.8
	H453.3V367.9 M453.3,689.9h257.6v257.6H453.3V689.9z"/>
</svg>
