<?xml version="1.0" encoding="utf-8"?>
<!-- Generator: Adobe Illustrator 27.0.0, SVG Export Plug-In . SVG Version: 6.00 Build 0)  -->
<svg version="1.1" id="Capa_1" xmlns="http://www.w3.org/2000/svg" xmlns:xlink="http://www.w3.org/1999/xlink" x="0px" y="0px"
	 viewBox="0 0 1080 1080" style="enable-background:new 0 0 1080 1080;" xml:space="preserve">
<style type="text/css">
	.st0{fill:#546E7A;}
	.st1{fill:#CFD8DC;}
</style>
<path class="st0" d="M399.8,110.6H103.7C49.4,110.6,5,155,5,209.3v592.2c0,54.3,44.4,98.7,98.7,98.7h789.6
	c54.3,0,98.7-44.4,98.7-98.7V308.1c0-54.3-44.4-98.7-98.7-98.7H498.5L399.8,110.6z"/>
<path class="st1" d="M1059.9,585.7c-3.4,2.6-63,36.2-63,110.9c0,86.4,75.9,117,78.1,117.7c-0.3,1.9-12.1,41.9-40,82.6
	c-24.9,35.9-50.9,71.7-90.5,71.7s-49.8-23-95.5-23c-44.5,0-60.4,23.8-96.6,23.8s-61.5-33.2-90.5-73.9
	c-33.6-47.9-60.8-122.2-60.8-192.8c0-113.2,73.6-173.2,146-173.2c38.5,0,70.6,25.3,94.7,25.3c23,0,58.9-26.8,102.6-26.8
	C961,528,1020.6,529.5,1059.9,585.7L1059.9,585.7z M923.6,480.1c18.1-21.5,30.9-51.3,30.9-81.1c0-4.1-0.3-8.3-1.1-11.7
	c-29.5,1.1-64.5,19.6-85.6,44.1c-16.6,18.9-32.1,48.7-32.1,78.9c0,4.5,0.8,9.1,1.1,10.5c1.9,0.3,4.9,0.8,7.9,0.8
	C871.2,521.6,904.4,503.9,923.6,480.1L923.6,480.1z"/>
</svg>
