<?xml version="1.0" encoding="utf-8"?>
<!-- Generator: Adobe Illustrator 24.1.1, SVG Export Plug-In . SVG Version: 6.00 Build 0)  -->
<svg version="1.1" id="Capa_1" xmlns="http://www.w3.org/2000/svg" xmlns:xlink="http://www.w3.org/1999/xlink" x="0px" y="0px"
	 viewBox="0 0 1080 1080" style="enable-background:new 0 0 1080 1080;" xml:space="preserve">
<style type="text/css">
	.st0{fill:#009688;}
	.st1{fill:#B2DFDB;}
</style>
<path class="st0" d="M880.7,261.8H515.8L413.7,149.7c-9.7-14.6-29.2-19.5-43.8-19.5H92.6C43.9,130.2,5,174.1,5,227.7v584.8
	C5,866.1,43.9,910,97.4,910h793c48.6,0,92.4-43.9,92.4-97.5V359.3C973.1,305.7,939.1,261.8,880.7,261.8z M880.7,812.5h-793V227.7
	h267.6l102.2,112.1c9.7,14.6,29.2,19.5,43.8,19.5h379.5V812.5z"/>
<g transform="translate(-5.4624e-5 -.00038619)">
	<g transform="matrix(.055876 0 0 .055876 7.9902 6.9458)">
		<path class="st1" d="M13561.5,9916l-443,764.4L11604.3,8061l-4644.7,8043h3145.2c0,423.6,340.8,764.4,764.4,764.4H6959.6
			c-272.6,0-525.8-146.1-662.1-384.6s-136.3-530.7,0-764.4l4644.7-8043c136.3-238.6,389.5-384.6,662.1-384.6
			c272.6,0,525.8,146.1,662.1,384.6L13561.5,9916z"/>
		<path class="st1" d="M16916.1,15719.4l-2911.5-5039.1l-443-764.4l-443,764.4L10207,15719.4c-136.3,238.6-136.3,530.7,0,764.4
			c136.3,238.6,389.5,384.6,662.1,384.6H16249c272.6,0,525.8-146.1,662.1-384.6C17047.5,16250.1,17047.5,15958,16916.1,15719.4
			L16916.1,15719.4z M10874,16104.1l2687.5-4659.3l2687.5,4659.3H10874z"/>
		<path class="st1" d="M18995,16488.7c-136.3,238.6-389.5,384.6-662.1,384.6H16249c423.6,0,764.4-340.8,764.4-764.4H18328
			l-3729.4-6460.7l-598.8,1037l-443-764.4l374.9-652.4c136.3-238.6,389.5-384.6,662.1-384.6c272.6,0,525.8,146.1,662.1,384.6
			l3729.4,6455.9C19131.3,15958,19131.3,16250.1,18995,16488.7L18995,16488.7z"/>
	</g>
</g>
</svg>
