<?xml version="1.0" encoding="utf-8"?>
<!-- Generator: Adobe Illustrator 24.1.1, SVG Export Plug-In . SVG Version: 6.00 Build 0)  -->
<svg version="1.1" id="Capa_1" xmlns="http://www.w3.org/2000/svg" xmlns:xlink="http://www.w3.org/1999/xlink" x="0px" y="0px"
	 viewBox="0 0 1080 1080" style="enable-background:new 0 0 1080 1080;" xml:space="preserve">
<style type="text/css">
	.st0{fill:#AFB42B;}
	.st1{fill:#F0F4C3;}
</style>
<path class="st0" d="M880.7,249.5H515.8L413.7,137.4c-9.7-14.6-29.2-19.5-43.8-19.5H92.6C43.9,117.9,5,161.8,5,215.4v584.8
	c0,53.6,38.9,97.5,92.4,97.5h793c48.6,0,92.4-43.9,92.4-97.5V346.9C973.1,293.3,939.1,249.5,880.7,249.5z M880.7,800.2h-793V215.4
	h267.6l102.2,112.1c9.7,14.6,29.2,19.5,43.8,19.5h379.5V800.2z"/>
<path class="st1" d="M845.4,830.2H615.8v-63.5h229.6 M948,698.3H620.7v-63.5H948 M948,566.4H620.7v-63.5H948 M1011.5,371H552.3
	c-34.2,0-63.5,29.3-63.5,63.5v464.1c0,34.2,29.3,63.5,63.5,63.5l0,0h459.2c34.2,0,63.5-29.3,63.5-63.5l0,0V439.4
	C1075,400.3,1045.7,371,1011.5,371z"/>
</svg>
