<?xml version="1.0" encoding="utf-8"?>
<!-- Generator: Adobe Illustrator 24.1.1, SVG Export Plug-In . SVG Version: 6.00 Build 0)  -->
<svg version="1.1" id="Capa_1" xmlns="http://www.w3.org/2000/svg" xmlns:xlink="http://www.w3.org/1999/xlink" x="0px" y="0px"
	 viewBox="0 0 1080 1080" style="enable-background:new 0 0 1080 1080;" xml:space="preserve">
<style type="text/css">
	.st0{fill:#EF5350;}
	.st1{fill:#FFCDD2;stroke:#FFCDD2;stroke-width:0.29;stroke-linejoin:round;stroke-miterlimit:1.4142;}
</style>
<path class="st0" d="M885.6,209.1H520.7L418.5,97c-9.7-14.6-29.2-19.5-43.8-19.5H97.4C43.9,77.5,5,121.4,5,175v584.8
	c0,53.6,38.9,97.5,92.4,97.5h793c48.6,0,92.4-43.9,92.4-97.5V306.6C978,253,939.1,209.1,885.6,209.1z M885.6,759.8H97.4V175H365
	l102.2,112.1c9.7,14.6,29.2,19.5,43.8,19.5h379.5v453.2H885.6z"/>
<path class="st1" d="M812.5,447.2v101l131.2-131.2L812.5,285.7v101C666.1,386.6,550,502.7,550,649.1l0,0c0,50.5,15.1,101,40.4,141.3
	l45.4-45.4c-15.1-25.2-25.2-60.6-25.2-90.9C615.6,533,706.5,447.2,812.5,447.2 M1034.6,502.7l-45.4,45.4
	c15.1,25.2,25.2,60.6,25.2,90.9c0,111.1-85.8,196.9-196.9,196.9v-101L681.3,871.2l131.2,131.2v-101c146.4,0,262.5-116.1,262.5-262.5
	C1075,593.6,1059.9,543.1,1034.6,502.7L1034.6,502.7z"/>
</svg>
