<?xml version="1.0" encoding="utf-8"?>
<!-- Generator: Adobe Illustrator 24.1.1, SVG Export Plug-In . SVG Version: 6.00 Build 0)  -->
<svg version="1.1" id="Capa_1" xmlns="http://www.w3.org/2000/svg" xmlns:xlink="http://www.w3.org/1999/xlink" x="0px" y="0px"
	 viewBox="0 0 1080 1080" style="enable-background:new 0 0 1080 1080;" xml:space="preserve">
<style type="text/css">
	.st0{fill:#FF7043;}
	.st1{fill-rule:evenodd;clip-rule:evenodd;fill:#FFCCBC;}
</style>
<path class="st0" d="M880.7,199.5H515.8L413.7,87.5C403.9,72.8,384.5,68,369.9,68H92.6C43.9,68,5,111.8,5,165.4v584.8
	c0,53.6,38.9,97.5,92.4,97.5h793c48.6,0,92.4-43.9,92.4-97.5V297C973.1,243.4,939.1,199.5,880.7,199.5z M880.7,750.2h-793V165.4
	h267.6l102.2,112.1c9.7,14.6,29.2,19.5,43.8,19.5h379.5V750.2z"/>
<g transform="matrix(.65434 0 0 .65434 3.2169 2.9566)">
	<path class="st1" d="M809.7,1438.6l-83.8-931.8H1638l-83.8,931.8l-374.7,103.5L809.7,1438.6z M1144.9,1197l-295.8-177.5v-64.1
		l295.8-177.5v98.6L957.6,985l187.4,113.4V1197z M1218.9,1197v-98.6l192.3-108.5l-192.3-108.5v-98.6l295.8,177.5v64.1
		C1514.7,1019.5,1218.9,1197,1218.9,1197z"/>
</g>
</svg>
