<?xml version="1.0" encoding="utf-8"?>
<!-- Generator: Adobe Illustrator 24.1.1, SVG Export Plug-In . SVG Version: 6.00 Build 0)  -->
<svg version="1.1" id="Capa_1" xmlns="http://www.w3.org/2000/svg" xmlns:xlink="http://www.w3.org/1999/xlink" x="0px" y="0px"
	 viewBox="0 0 1080 1080" style="enable-background:new 0 0 1080 1080;" xml:space="preserve">
<style type="text/css">
	.st0{fill:#FF5252;}
	.st1{fill-rule:evenodd;clip-rule:evenodd;fill:#FFCDD2;}
</style>
<path class="st0" d="M885.6,251.2H520.8L418.5,139.1c-9.7-14.7-29.2-19.5-43.8-19.5H97.4C43.9,119.6,5,163.5,5,217.1v584.7
	c0,53.6,38.9,97.5,92.4,97.5h793c48.6,0,92.4-43.9,92.4-97.5V348.6C978,295,939.2,251.2,885.6,251.2z"/>
<path class="st1" d="M733.6,760.3C722.7,650.2,713.9,558.7,714,557c0.1-1.7-9.2-3.1-20.6-3.1h-20.7v-78.8h161.8v-153l76.3-45.9
	c46.5-27.9,80.7-45.9,87.4-45.9c16.3,0,35.3,20.6,35.3,38.3c0,7.7-2.3,17.2-5.2,21.1c-2.9,3.9-29.5,21.6-59.1,39.4l-53.9,32.3
	l-1.2,56.8l-1.2,56.8h162v78.8h-40l-20.2,203.3l-20.2,203.3H753.4L733.6,760.3L733.6,760.3z"/>
</svg>
