<?xml version="1.0" encoding="utf-8"?>
<!-- Generator: Adobe Illustrator 24.1.1, SVG Export Plug-In . SVG Version: 6.00 Build 0)  -->
<svg version="1.1" id="Capa_1" xmlns="http://www.w3.org/2000/svg" xmlns:xlink="http://www.w3.org/1999/xlink" x="0px" y="0px"
	 viewBox="0 0 1080 1080" style="enable-background:new 0 0 1080 1080;" xml:space="preserve">
<style type="text/css">
	.st0{fill:#0288D1;}
	.st1{fill-rule:evenodd;clip-rule:evenodd;fill:#B3E5FC;}
</style>
<path class="st0" d="M885.6,259.6H520.8L418.5,147.5c-9.7-14.7-29.2-19.5-43.8-19.5H97.4C43.9,128,5,171.9,5,225.5v584.7
	c0,53.6,38.9,97.5,92.4,97.5h793c48.6,0,92.4-43.9,92.4-97.5V357C978,303.4,939.2,259.6,885.6,259.6z"/>
<g transform="matrix(.61246 0 0 .61246 10.008 8.0792)">
	<g transform="matrix(.94546 0 0 .94546 .65453 .65453)">
		<path class="st1" d="M1379.5,561.7c-51.5-7.6-103.9-7.6-155.4,0l-34,88.8c-42.9,10.8-84,27.9-122,50.5l-86.8-38.7
			c-41.8,31.1-78.8,68.1-109.9,109.9L910,859c-22.7,38-39.7,79.1-50.5,122l-88.8,34c-7.6,51.5-7.6,103.9,0,155.4l88.8,34
			c10.8,42.9,27.9,84,50.5,122l-38.7,86.8c31.1,41.8,68.1,78.8,109.9,109.9l86.8-38.7c38,22.7,79.1,39.7,122,50.5l34,88.8
			c51.5,7.6,103.9,7.6,155.4,0l34-88.8c42.9-10.8,84-27.9,122-50.5l86.8,38.7c41.8-31.1,78.8-68.1,109.9-109.9l-38.7-86.8
			c22.7-38,39.7-79.1,50.5-122l88.8-34c7.6-51.5,7.6-103.9,0-155.4l-88.8-34c-10.8-42.9-27.9-84-50.5-122l38.7-86.8
			c-31.1-41.8-68.1-78.8-109.9-109.9l-86.8,38.7c-38-22.7-79.1-39.7-122-50.5L1379.5,561.7z M1301.8,748.8
			c189.8,0,343.9,154.1,343.9,343.9s-154.1,343.9-343.9,343.9s-343.9-154.1-343.9-343.9S1112,748.8,1301.8,748.8z"/>
		<path class="st1" d="M1439.9,1230.6c-35.3,35.4-84.2,57.3-138.1,57.3c-107.7,0-195.2-87.4-195.2-195.2s87.4-195.2,195.2-195.2
			c53.9,0,102.8,21.9,138.1,57.3l-69,68.9c-17.7-17.7-42.1-28.7-69.1-28.7c-53.9,0-97.6,43.7-97.6,97.6s43.7,97.6,97.6,97.6
			c27,0,51.4-11,69.1-28.7L1439.9,1230.6z"/>
	</g>
</g>
</svg>
