<?xml version="1.0" encoding="utf-8"?>
<!-- Generator: Adobe Illustrator 24.1.1, SVG Export Plug-In . SVG Version: 6.00 Build 0)  -->
<svg version="1.1" id="Capa_1" xmlns="http://www.w3.org/2000/svg" xmlns:xlink="http://www.w3.org/1999/xlink" x="0px" y="0px"
	 viewBox="0 0 1080 1080" style="enable-background:new 0 0 1080 1080;" xml:space="preserve">
<style type="text/css">
	.st0{fill:#FFA726;}
	.st1{fill-rule:evenodd;clip-rule:evenodd;fill:#FFE0B2;}
</style>
<path class="st0" d="M885.6,271.7H520.8L418.5,159.6c-9.7-14.7-29.2-19.5-43.8-19.5H97.4C43.9,140.1,5,184,5,237.6v584.7
	c0,53.6,38.9,97.5,92.4,97.5h793c48.6,0,92.4-43.9,92.4-97.5V369.1C978,315.5,939.2,271.7,885.6,271.7z"/>
<path class="st1" d="M1075,580.9V521h-58.8v-59.8c0-32.9-26.4-59.8-58.8-59.8H546.2c-32.3,0-58.8,26.9-58.8,59.8v418.9
	c0,32.9,26.4,59.8,58.8,59.8h411.3c32.3,0,58.8-26.9,58.8-59.8v-59.8h58.8v-59.9h-58.8v-59.8h58.8v-59.8h-58.8v-59.8L1075,580.9z
	 M957.5,880.1H546.2V461.2h411.3V880.1z M605,700.6h146.9v119.7H605L605,700.6z M781.2,521h117.5v89.8H781.2V521z M605,521h146.9
	v149.6H605V521z M781.2,640.7h117.5v179.5H781.2V640.7z"/>
</svg>
