<?xml version="1.0" encoding="utf-8"?>
<!-- Generator: Adobe Illustrator 24.1.1, SVG Export Plug-In . SVG Version: 6.00 Build 0)  -->
<svg version="1.1" id="Capa_1" xmlns="http://www.w3.org/2000/svg" xmlns:xlink="http://www.w3.org/1999/xlink" x="0px" y="0px"
	 viewBox="0 0 1080 1080" style="enable-background:new 0 0 1080 1080;" xml:space="preserve">
<style type="text/css">
	.st0{fill:#039BE5;}
	.st1{fill-rule:evenodd;clip-rule:evenodd;fill:#B3E5FC;}
</style>
<path class="st0" d="M885.6,258.9H520.8L418.5,146.7c-9.7-14.7-29.2-19.5-43.8-19.5H97.4C43.9,127.2,5,171.1,5,224.7v584.7
	c0,53.6,38.9,97.5,92.4,97.5h793c48.6,0,92.4-43.9,92.4-97.5V356.3C978,302.7,939.2,258.9,885.6,258.9z"/>
<path class="st1" d="M903.2,709.1c2.4-20.1,4.3-40.2,4.3-60.9c0-20.7-1.8-40.8-4.3-60.9h103c4.9,19.5,7.9,39.9,7.9,60.9
	c0,21-3,41.4-7.9,60.9 M849.2,878.5c18.3-33.8,32.3-70.4,42-108.5h89.9C951.9,820.3,905.3,859.3,849.2,878.5 M841.6,709.1H699
	c-3-20.1-4.9-40.2-4.9-60.9c0-20.7,1.8-41.1,4.9-60.9h142.6c2.7,19.8,4.9,40.2,4.9,60.9C846.5,668.8,844.4,689,841.6,709.1
	 M770.3,890.6c-25.3-36.6-45.7-77.1-58.2-120.7h116.4C816,813.6,795.6,854.1,770.3,890.6 M648.5,526.3h-89
	c28.9-50.6,75.9-89.6,131.6-108.5C672.8,451.6,659.1,488.2,648.5,526.3 M559.5,770h89c10.7,38.1,24.4,74.6,42.7,108.5
	C635.4,859.3,588.4,820.3,559.5,770 M534.5,709.1c-4.9-19.5-7.9-39.9-7.9-60.9c0-21,3-41.4,7.9-60.9h103
	c-2.4,20.1-4.3,40.2-4.3,60.9s1.8,40.8,4.3,60.9 M770.3,405.3c25.3,36.6,45.7,77.4,58.2,121H712.1
	C724.6,482.7,745,441.9,770.3,405.3 M981.2,526.3h-89.9c-9.7-38.1-23.8-74.6-42-108.5C905.3,437,951.9,475.7,981.2,526.3
	 M770.3,343.4c-168.5,0-304.7,137.1-304.7,304.7c0,168.3,136.4,304.7,304.7,304.7S1075,816.4,1075,648.1S938.6,343.4,770.3,343.4z"
	/>
</svg>
