<?xml version="1.0" encoding="utf-8"?>
<!-- Generator: Adobe Illustrator 24.1.1, SVG Export Plug-In . SVG Version: 6.00 Build 0)  -->
<svg version="1.1" id="Capa_1" xmlns="http://www.w3.org/2000/svg" xmlns:xlink="http://www.w3.org/1999/xlink" x="0px" y="0px"
	 viewBox="0 0 1080 1080" style="enable-background:new 0 0 1080 1080;" xml:space="preserve">
<style type="text/css">
	.st0{fill:#FF5252;}
	.st1{fill-rule:evenodd;clip-rule:evenodd;fill:#FFCDD2;}
</style>
<path class="st0" d="M880.7,256.6H515.8L413.7,144.5c-9.7-14.6-29.2-19.5-43.8-19.5H92.6C43.9,125.1,5,168.9,5,222.5v584.8
	c0,53.6,38.9,97.5,92.4,97.5h793c48.6,0,92.4-43.9,92.4-97.5V354.1C973.1,300.5,939.1,256.6,880.7,256.6z M880.7,807.3h-793V222.5
	h267.6l102.2,112.1c9.7,14.6,29.2,19.5,43.8,19.5h379.5V807.3z"/>
<path class="st1" d="M1015,469.9H530c-35,0-60,25-60,60v365c0,35,25,60,60,60h485c35,0,60-25,60-60v-365
	C1075,494.9,1050,469.9,1015,469.9z M1015,589.9l-240,150l-240-150v-60l240,150l240-150V589.9z"/>
</svg>
