<?xml version="1.0" encoding="utf-8"?>
<!-- Generator: Adobe Illustrator 27.0.0, SVG Export Plug-In . SVG Version: 6.00 Build 0)  -->
<svg version="1.1" id="Capa_1" xmlns="http://www.w3.org/2000/svg" xmlns:xlink="http://www.w3.org/1999/xlink" x="0px" y="0px"
	 viewBox="0 0 1080 1080" style="enable-background:new 0 0 1080 1080;" xml:space="preserve">
<style type="text/css">
	.st0{fill:#1E88E5;}
	.st1{fill-rule:evenodd;clip-rule:evenodd;fill:#BBDEFB;}
</style>
<path class="st0" d="M398.87,126.95h-295.4C48.82,126.95,5,170.77,5,225.42v590.81c0,54.01,44.46,98.47,98.47,98.47h787.74
	c54.01,0,98.47-44.46,98.47-98.47V323.89c0-54.38-44.09-98.47-98.47-98.47H497.34L398.87,126.95z"/>
<path class="st1" d="M905.14,684.23L1075,852.86l-100.19,98.96L806.18,783.19v-27.77l71.19-71.19H905.14 M932.62,607.92
	l-29.29-28.95l-144.5,144.75v59.47L588.96,953.05l-98.91-100.19l168.63-168.63h59.43l23.53-23.53L625.79,544.55H586.6l-84.78-85.67
	l79.02-79.02l84.49,84.44v39.53l117.32,115.85l80.25-80.25l-28.95-30.48l39.19-39.53h-80.25l-19.6-19.6l99.85-100.14l19.94,19.89
	v80.25L932.62,410l98.96,98.96c32.84,33.18,32.84,87.14,0,120.08l-59.47-60.66L932.62,607.92z"/>
</svg>
