<?xml version="1.0" encoding="utf-8"?>
<!-- Generator: Adobe Illustrator 24.1.1, SVG Export Plug-In . SVG Version: 6.00 Build 0)  -->
<svg version="1.1" id="Capa_1" xmlns="http://www.w3.org/2000/svg" xmlns:xlink="http://www.w3.org/1999/xlink" x="0px" y="0px"
	 viewBox="0 0 1080 1080" style="enable-background:new 0 0 1080 1080;" xml:space="preserve">
<style type="text/css">
	.st0{fill:#546E7A;}
	.st1{fill-rule:evenodd;clip-rule:evenodd;fill:#ECEFF1;}
</style>
<path class="st0" d="M885.6,266.1H520.8L418.5,153.9c-9.7-14.7-29.2-19.5-43.8-19.5H97.4C43.9,134.4,5,178.3,5,231.9v584.7
	c0,53.6,38.9,97.5,92.4,97.5h793c48.6,0,92.4-43.9,92.4-97.5V363.4C978,309.8,939.2,266.1,885.6,266.1z"/>
<path class="st1" d="M739.8,291.4c-185.1,0-335.2,150.1-335.2,335.2l0,0c0,148.2,96.2,273.9,229.3,318.4
	c16.8,2.7,22.1-7.7,22.1-16.8v-56.6c-92.9,20.1-112.6-44.9-112.6-44.9c-15.4-38.9-37.2-49.3-37.2-49.3c-30.5-20.8,2.3-20.1,2.3-20.1
	c33.5,2.3,51.3,34.5,51.3,34.5c29.2,51,78.4,35.9,97.5,27.8c3-21.8,11.7-36.5,21.1-44.9c-74.4-8.4-152.5-37.2-152.5-164.9
	c0-37.2,12.7-67,34.5-90.8c-3.4-8.4-15.1-43.2,3.4-88.5c0,0,28.2-9.1,92.2,34.2c26.5-7.4,55.3-11.1,83.8-11.1s57.3,3.7,83.8,11.1
	c64-43.2,92.2-34.2,92.2-34.2c18.4,45.3,6.7,80.1,3.4,88.5c21.8,23.8,34.5,53.6,34.5,90.8c0,128-78.4,156.2-153.2,164.6
	c12.1,10.4,23.1,30.8,23.1,62v91.8c0,9.1,5.4,19.8,22.5,16.8C979.1,900.2,1075,774.8,1075,626.7C1075,441.5,924.9,291.5,739.8,291.4
	L739.8,291.4L739.8,291.4z"/>
</svg>
