<?xml version="1.0" encoding="utf-8"?>
<!-- Generator: Adobe Illustrator 27.0.0, SVG Export Plug-In . SVG Version: 6.00 Build 0)  -->
<svg version="1.1" id="Capa_1" xmlns="http://www.w3.org/2000/svg" xmlns:xlink="http://www.w3.org/1999/xlink" x="0px" y="0px"
	 viewBox="0 0 1080 1080" style="enable-background:new 0 0 1080 1080;" xml:space="preserve">
<style type="text/css">
	.st0{fill:#039BE5;}
	.st1{fill:#B3E5FC;}
</style>
<path class="st0" d="M886.97,253.79h-365.4L419.19,141.53c-9.7-14.6-29.19-19.5-43.88-19.5H97.58C43.99,122.03,5,165.91,5,219.6
	v585.73c0,53.68,38.99,97.58,92.58,97.58h794.29c48.68,0,92.58-43.88,92.58-97.58V351.47C979.55,297.78,940.66,253.79,886.97,253.79
	L886.97,253.79z M886.97,805.34H97.58V219.6H365.6l102.38,112.27c9.7,14.6,29.19,19.5,43.88,19.5h380.09v453.98h-5L886.97,805.34z"
	/>
<g>
	<path class="st1" d="M438.44,564.47c2.62,5.59,5.23,10.05,10.88,14.21c0.02,0.02,0.05,0.04,0.07,0.05c2.08,1.51,1.95,1.2,2.74,1.6
		c0.78,0.4,1.72,0.86,2.88,1.42c2.31,1.12,5.47,2.61,9.39,4.43c7.84,3.66,18.74,8.67,31.7,14.59
		c25.93,11.84,60.14,27.33,94.53,42.81c34.4,15.48,68.97,30.96,95.65,42.79c13.34,5.91,24.7,10.92,33.1,14.56
		c4.2,1.82,7.66,3.3,10.29,4.41c2.6,1.09,3.79,1.65,5.83,2.29c5.28,1.73,10.88,2.54,16.59,2.53l0,0c7.37-0.02,14.91-1.4,22.17-3.96
		c3.28-1.15,7.63-3.12,15.99-6.77c8.37-3.66,19.64-8.64,32.85-14.52c26.41-11.75,60.54-27.05,94.43-42.32
		c33.89-15.27,67.54-30.5,93-42.12c12.73-5.81,23.4-10.71,31.06-14.27c3.83-1.78,6.9-3.22,9.14-4.3c1.12-0.54,2.02-0.98,2.77-1.36
		c0.75-0.38,0.34,0.16,2.76-1.62c0.01-0.01,0.02-0.01,0.03-0.02c9.83-7.28,14.03-19.45,14.6-32.88c0.7-14.97-3.73-28.52-13.79-37.24
		c-0.06-0.05-0.11-0.1-0.17-0.14c-1.85-1.54-1.88-1.34-2.65-1.81c-0.78-0.47-1.71-1.01-2.85-1.66c-2.28-1.3-5.38-3.02-9.22-5.13
		c-7.69-4.23-18.35-10.01-31.03-16.84c-25.37-13.66-58.81-31.51-92.5-49.39c-33.69-17.88-67.62-35.8-93.96-49.58
		c-13.17-6.89-24.43-12.74-32.84-17.06c-8.41-4.31-12.82-6.66-16.37-8.1c-0.01,0-0.02-0.01-0.02-0.01
		c-9.85-3.97-20.57-5.41-31.07-3.6c-6,0.9-11.79,3.13-17.14,5.33c-0.06,0.03-0.13,0.05-0.19,0.08c-3.1,1.33-7.96,3.85-16.35,8.16
		c-8.39,4.31-19.57,10.13-32.59,16.94c-26.05,13.63-59.5,31.26-92.66,48.83c-33.16,17.57-66.03,35.06-90.93,48.42
		c-12.45,6.68-22.91,12.32-30.44,16.44c-3.77,2.06-6.8,3.73-9.02,4.98c-1.11,0.63-2.02,1.14-2.76,1.59s-0.73,0.24-2.51,1.66
		c-0.06,0.05-0.13,0.1-0.19,0.15c-16.19,13.52-20.14,37.17-11.19,56.4C438.43,564.45,438.43,564.46,438.44,564.47z M515.93,540.98
		c5.14-2.98,10.94-6.33,18.04-10.36c22.61-12.85,54.4-30.55,90.92-50.2c0.01,0,0.01-0.01,0.02-0.01
		c70.13-37.91,123.13-66.5,127.7-68.97c12.52,6.46,59.96,31.02,123.19,65.03c0,0,0,0,0.01,0c36.64,19.68,69.99,38.58,94.16,52.61
		c8.37,4.86,15.13,8.85,21.04,12.36c-5,2.33-10.63,4.93-17.34,7.99c-22.85,10.4-54.9,24.63-91.5,40.09l-129.19,54.35l-128.58-54.1
		l-0.01-0.01c-36.43-15.38-68.22-29.8-90.88-40.42C526.65,546.13,520.98,543.41,515.93,540.98z M1003.53,542.62
		c0,0.94,0.12,1.88,0.34,2.8c-0.1-0.41-0.18-0.79-0.25-1.17C1003.57,543.75,1003.53,543.23,1003.53,542.62z"/>
	<path class="st1" d="M431.71,656.55c1.83,18.65,5.64,33.21,15.17,43.12c0.05,0.05,0.11,0.11,0.16,0.16
		c3.87,3.87,5.8,4.22,10.84,6.81c5.04,2.59,12.36,6.11,23.03,11.08c21.35,9.95,56.08,25.68,111.72,50.65
		c37.95,17.03,73.01,32.67,98.95,44.15c12.97,5.74,23.64,10.44,31.28,13.76c3.82,1.66,6.87,2.98,9.1,3.92
		c1.12,0.47,2.02,0.85,2.76,1.15c0.74,0.3,0.56,0.36,2.49,0.89c0.03,0.01,0.06,0.02,0.08,0.02c4.22,1.12,8.62,1.69,13.09,1.76l0,0
		c7.45,0.13,15.1-1.13,22.36-3.55c1.9-0.63,2.96-1.14,5.46-2.2c2.5-1.06,5.83-2.5,9.89-4.26c8.12-3.54,19.18-8.41,32.19-14.17
		c26.03-11.53,59.89-26.63,93.66-41.76c33.77-15.13,67.44-30.29,93.1-41.92c12.83-5.82,23.64-10.75,31.49-14.37
		c3.92-1.81,7.1-3.29,9.44-4.4c2.32-1.1,2.73-1.11,5.15-2.61c6.88-4.18,9.87-9.95,12.89-16.59c3.03-6.66,5.35-14.4,6.66-22.57
		l-0.02,0.11c0.79-4.64,1.51-8.05,1.89-11.46c0.19-1.71,0.41-3.39-0.03-6.06c-0.44-2.67-2.59-7.56-6.96-9.8
		c-4.37-2.24-7.8-1.49-9.94-0.97c-2.13,0.52-3.66,1.18-5.32,1.93c-3.3,1.48-6.98,3.43-12,5.94c-9.1,4.44-79.54,37.23-154.86,71.98
		l-132.47,61.03l-132.35-61.03c0,0,0,0,0,0c-75.49-34.77-146.48-67.79-155.04-72.07c-0.01,0-0.02-0.01-0.03-0.01l-18.06-8.97
		c-1.93-0.96-4.09-1.36-6.24-1.15c-6.35,0.61-11.01,6.25-10.4,12.6l0.85,8.85C431.71,656.54,431.71,656.54,431.71,656.55z"/>
	<path class="st1" d="M1073.79,765.05c-2.84-5.71-9.77-8.04-15.48-5.2l-20.97,10.42c-0.02,0.01-0.05,0.02-0.07,0.03
		c-9.6,4.85-82.61,38.89-151.98,70.96c-34.69,16.04-68.75,31.73-94.23,43.4c-12.74,5.84-23.34,10.67-30.79,14.03
		c-3.14,1.42-5.38,2.42-7.3,3.27c-2.07-0.92-4.58-2.04-8.03-3.6c-7.9-3.57-19.15-8.7-32.64-14.88
		c-26.97-12.36-62.92-28.92-99.23-45.69c-36.3-16.77-72.96-33.76-101.36-46.99c-28.39-13.22-49.83-23.37-51.4-24.19l-12.4-6.62
		c-1.99-1.06-4.24-1.52-6.48-1.31c-6.35,0.58-11.04,6.19-10.46,12.55l0.85,9.33c0,0.01,0,0.02,0,0.03
		c0.93,9.93,2.93,19.13,5.87,27.03c2.94,7.9,6.41,14.7,12.97,19.65c0.08,0.06,0.16,0.12,0.24,0.18c2.29,1.64,1.93,1.17,2.68,1.54
		c0.75,0.38,1.67,0.82,2.8,1.37c2.27,1.09,5.39,2.55,9.29,4.36c7.79,3.61,18.64,8.59,31.57,14.48
		c25.86,11.79,60.01,27.24,94.3,42.68s68.73,30.88,95.16,42.63c13.22,5.88,24.43,10.84,32.65,14.42c4.11,1.79,7.47,3.25,9.98,4.31
		c2.51,1.06,3.33,1.51,5.59,2.22c5.56,1.76,11.53,2.56,17.53,2.5l0,0c5.97-0.07,11.97-0.99,17.63-2.65
		c2.77-0.79,3.22-1.16,5.69-2.19c2.49-1.04,5.81-2.46,9.88-4.22c8.15-3.52,19.3-8.41,32.46-14.22
		c26.33-11.62,60.7-26.92,94.98-42.27c34.28-15.34,68.47-30.73,94.43-42.51c12.98-5.89,23.9-10.88,31.78-14.53
		c3.94-1.82,7.11-3.31,9.44-4.43c1.17-0.56,2.12-1.02,2.9-1.42c0.78-0.4,0.78-0.21,2.63-1.5c6.99-4.86,10.58-11.81,13.62-19.89
		c3.04-8.08,5.13-17.57,6.18-27.93c0-0.02,0-0.05,0.01-0.07l0.85-8.85C1075.15,769.15,1074.75,766.99,1073.79,765.05z
		 M756.43,903.49c-0.2-0.08-0.66-0.29-0.96-0.42C756.57,903.2,756.39,903.4,756.43,903.49z M750.43,903.09
		c-0.28,0.12-0.67,0.29-0.85,0.37C749.62,903.37,749.6,903.2,750.43,903.09z"/>
</g>
</svg>
