<?xml version="1.0" encoding="utf-8"?>
<!-- Generator: Adobe Illustrator 24.1.1, SVG Export Plug-In . SVG Version: 6.00 Build 0)  -->
<svg version="1.1" id="Capa_1" xmlns="http://www.w3.org/2000/svg" xmlns:xlink="http://www.w3.org/1999/xlink" x="0px" y="0px"
	 viewBox="0 0 1080 1080" style="enable-background:new 0 0 1080 1080;" xml:space="preserve">
<style type="text/css">
	.st0{fill:#7CB342;}
	.st1{fill:#DCEDC8;}
</style>
<path class="st0" d="M880.7,258.7H515.8L413.7,146.6c-9.7-14.6-29.2-19.5-43.8-19.5H92.6C43.9,127.1,5,171,5,224.6v584.8
	c0,53.6,38.9,97.5,92.4,97.5h793c48.6,0,92.4-43.9,92.4-97.5V356.1C973.1,302.5,939.1,258.7,880.7,258.7z M880.7,809.4h-793V224.6
	h267.6l102.2,112.1c9.7,14.6,29.2,19.5,43.8,19.5h379.5V809.4z"/>
<path class="st1" d="M574.7,507.1h-54.5v391.3c0,29.7,24.8,54.5,54.5,54.5H966v-54.5H574.7C574.7,898.4,574.7,507.1,574.7,507.1z
	 M1020.5,393.1H688.6c-29.7,0-54.5,24.8-54.5,54.5v331.9c0,29.7,24.8,54.5,54.5,54.5h331.9c29.7,0,54.5-24.8,54.5-54.5V447.6
	C1075,417.9,1050.2,393.1,1020.5,393.1z M990.8,645.8H713.4v-54.5h277.4V645.8z M881.8,754.7H713.4v-54.5h168.4V754.7z M990.8,531.8
	H713.4v-54.5h277.4V531.8z"/>
</svg>
