<?xml version="1.0" encoding="utf-8"?>
<!-- Generator: Adobe Illustrator 27.0.0, SVG Export Plug-In . SVG Version: 6.00 Build 0)  -->
<svg version="1.1" id="Capa_1" xmlns="http://www.w3.org/2000/svg" xmlns:xlink="http://www.w3.org/1999/xlink" x="0px" y="0px"
	 viewBox="0 0 1080 1080" style="enable-background:new 0 0 1080 1080;" xml:space="preserve">
<style type="text/css">
	.st0{fill:#0078D4;}
	.st1{fill:#89CDEF;}
</style>
<path class="st0" d="M887.8,246.1H522.1L419.6,133.7c-9.7-14.6-29.2-19.5-43.9-19.5h-278C44,114.2,5,158.1,5,211.9v586.3
	c0,53.7,39,97.7,92.7,97.7h795c48.7,0,92.7-43.9,92.7-97.7V343.8C980.5,290,941.6,246.1,887.8,246.1L887.8,246.1z M887.8,798.1H97.7
	V211.9H366l102.5,112.4c9.7,14.6,29.2,19.5,43.9,19.5h380.5v454.4H887.8L887.8,798.1z"/>
<path class="st1" d="M575,465.8h237v236.9H575V465.8z M838,465.8h237v236.9H838V465.8z M575,728.8h237v237H575V728.8z M838,728.8
	h237v237H838"/>
</svg>
