<?xml version="1.0" encoding="utf-8"?>
<!-- Generator: Adobe Illustrator 24.1.1, SVG Export Plug-In . SVG Version: 6.00 Build 0)  -->
<svg version="1.1" id="Capa_1" xmlns="http://www.w3.org/2000/svg" xmlns:xlink="http://www.w3.org/1999/xlink" x="0px" y="0px"
	 viewBox="0 0 1080 1080" style="enable-background:new 0 0 1080 1080;" xml:space="preserve">
<style type="text/css">
	.st0{fill:#616161;}
	.st1{fill-rule:evenodd;clip-rule:evenodd;fill:#FFA726;}
</style>
<path class="st0" d="M885.6,261.7H520.8L418.5,149.6c-9.7-14.7-29.2-19.5-43.8-19.5H97.4C43.9,130.1,5,174,5,227.6v584.7
	c0,53.6,38.9,97.5,92.4,97.5h793c48.6,0,92.4-43.9,92.4-97.5V359.1C978,305.5,939.2,261.7,885.6,261.7z"/>
<path class="st1" d="M813.1,723.2l-185.4-60.2c-5.1-1.7-9.3-7.4-9.4-12.8l-1.8-142.5c0-5.4,4.1-11.1,9.2-12.8l437-139.8
	c5.2-1.7,9.3,1.4,9.3,6.8v142.5c0,5.4-4.2,11.2-9.3,12.9l-180.3,60.1l183.3,57.2c5.2,1.6,9.3,7.3,9.3,12.7v140.5
	c0,5.4-4.1,11.2-9.2,12.9L627.7,949.4c-5.1,1.8-9.3-1.2-9.3-6.6l-0.9-146.6c0-5.4,4.1-11.1,9.2-12.8L813.1,723.2z"/>
</svg>
