<?xml version="1.0" encoding="utf-8"?>
<!-- Generator: Adobe Illustrator 24.1.1, SVG Export Plug-In . SVG Version: 6.00 Build 0)  -->
<svg version="1.1" id="Capa_1" xmlns="http://www.w3.org/2000/svg" xmlns:xlink="http://www.w3.org/1999/xlink" x="0px" y="0px"
	 viewBox="0 0 1080 1080" style="enable-background:new 0 0 1080 1080;" xml:space="preserve">
<style type="text/css">
	.st0{fill:#FBC02D;}
	.st1{fill-rule:evenodd;clip-rule:evenodd;fill:#FFF9C4;}
</style>
<path class="st0" d="M885.6,273.9H520.8L418.5,161.7c-9.7-14.7-29.2-19.5-43.8-19.5H97.4C43.9,142.2,5,186.1,5,239.7v584.7
	c0,53.6,38.9,97.5,92.4,97.5h793c48.6,0,92.4-43.9,92.4-97.5V371.3C978,317.7,939.2,273.9,885.6,273.9z"/>
<path class="st1" d="M489.5,383.1h61.6v61.6h-61.6v154.1c0,34-27.6,61.6-61.6,61.6c34,0,61.6,27.6,61.6,61.6v154.1h61.6v61.6h-61.6
	c-33-8.3-61.6-27.7-61.6-61.6V752.9c0-34-27.6-61.6-61.6-61.6h-30.8v-61.6h30.8c34,0,61.6-27.6,61.6-61.6V444.7
	C427.9,410.7,455.5,383.1,489.5,383.1 M920.9,383.1c34,0,61.6,27.6,61.6,61.6V568c0,34,27.6,61.6,61.6,61.6h30.8v61.6h-30.8
	c-34,0-61.6,27.6-61.6,61.6v123.3c0,34-27.6,61.6-61.6,61.6h-61.6v-61.6h61.6V722.1c0-34,27.6-61.6,61.6-61.6
	c-34,0-61.6-27.6-61.6-61.6V444.7h-61.6v-61.6L920.9,383.1 M705.2,752.9c17,0,30.8,13.8,30.8,30.8c0,17-13.8,30.8-30.8,30.8
	s-30.8-13.8-30.8-30.8C674.4,766.7,688.2,752.9,705.2,752.9 M582,752.9c17,0,30.8,13.8,30.8,30.8c0,17-13.8,30.8-30.8,30.8
	c-17,0-30.8-13.8-30.8-30.8C551.1,766.7,564.9,752.9,582,752.9 M828.5,752.9c17,0,30.8,13.8,30.8,30.8c0,17-13.8,30.8-30.8,30.8
	c-17,0-30.8-13.8-30.8-30.8C797.7,766.7,811.5,752.9,828.5,752.9z"/>
</svg>
