<?xml version="1.0" encoding="utf-8"?>
<!-- Generator: Adobe Illustrator 24.1.1, SVG Export Plug-In . SVG Version: 6.00 Build 0)  -->
<svg version="1.1" id="Capa_1" xmlns="http://www.w3.org/2000/svg" xmlns:xlink="http://www.w3.org/1999/xlink" x="0px" y="0px"
	 viewBox="0 0 1080 1080" style="enable-background:new 0 0 1080 1080;" xml:space="preserve">
<style type="text/css">
	.st0{fill:#EF5350;}
	.st1{fill-rule:evenodd;clip-rule:evenodd;fill:#FFCDD2;}
</style>
<path class="st0" d="M885.6,270.8H520.7L418.6,158.7c-9.7-14.7-29.2-19.5-43.8-19.5H97.4C43.9,139.1,5,183,5,236.6v584.8
	c0,53.6,38.9,97.5,92.4,97.5h793c48.7,0,92.4-43.9,92.4-97.5V368.2C978,314.6,939.2,270.8,885.6,270.8z"/>
<path class="st1" d="M472.9,489.3h150.5V338.8H472.9V489.3z M698.7,940.9h150.5V790.3H698.7V940.9z M472.9,940.9h150.5V790.3H472.9
	V940.9z M472.9,715.1h150.5V564.5H472.9V715.1z M698.7,715.1h150.5V564.5H698.7V715.1z M924.5,338.8v150.5H1075V338.8H924.5z
	 M698.7,489.3h150.5V338.8H698.7V489.3z M924.5,715.1H1075V564.5H924.5V715.1z M924.5,940.9H1075V790.3H924.5V940.9z"/>
</svg>
