<?xml version="1.0" encoding="utf-8"?>
<!-- Generator: Adobe Illustrator 27.0.0, SVG Export Plug-In . SVG Version: 6.00 Build 0)  -->
<svg version="1.1" id="Capa_1" xmlns="http://www.w3.org/2000/svg" xmlns:xlink="http://www.w3.org/1999/xlink" x="0px" y="0px"
	 viewBox="0 0 1080 1080" style="enable-background:new 0 0 1080 1080;" xml:space="preserve">
<style type="text/css">
	.st0{fill:#42A5F5;}
	.st1{fill:#B3E5FC;}
	.st2{fill-rule:evenodd;clip-rule:evenodd;fill:#B3E5FC;}
</style>
<path class="st0" d="M403.19,99.54H104.55C49.8,99.54,5,144.34,5,199.09v597.29c0,54.75,44.8,99.55,99.55,99.55h796.39
	c54.75,0,99.55-44.8,99.55-99.55V298.64c0-54.75-44.8-99.55-99.55-99.55H502.74L403.19,99.54z"/>
<g transform="translate(-.203 -.102)">
	<path class="st1" d="M766.59,363.34c-170.18,0-308.59,138.43-308.59,308.61s138.41,308.61,308.59,308.61
		s308.61-138.43,308.61-308.61S936.77,363.34,766.59,363.34z M766.59,930.79c-142.71,0-258.81-116.12-258.81-258.84
		s116.1-258.84,258.81-258.84s258.84,116.12,258.84,258.84S909.31,930.79,766.59,930.79z"/>
	<path class="st2" d="M771.58,497.74c-99.55,0-179.19,79.64-179.19,174.21c0,99.55,79.64,174.21,179.19,174.21
		s179.19-79.64,179.19-174.21C950.76,577.38,871.13,497.74,771.58,497.74L771.58,497.74z M821.35,552.49
		c34.84,0,64.71,29.86,64.71,64.71l0,0c0,34.84-29.86,64.71-64.71,64.71c-34.84,0-64.71-29.86-64.71-64.71
		C756.64,577.38,786.51,552.49,821.35,552.49L821.35,552.49L821.35,552.49z"/>
	<ellipse class="st2" cx="975.65" cy="467.87" rx="64.71" ry="64.71"/>
</g>
</svg>
