<?xml version="1.0" encoding="utf-8"?>
<!-- Generator: Adobe Illustrator 24.1.1, SVG Export Plug-In . SVG Version: 6.00 Build 0)  -->
<svg version="1.1" id="Capa_1" xmlns="http://www.w3.org/2000/svg" xmlns:xlink="http://www.w3.org/1999/xlink" x="0px" y="0px"
	 viewBox="0 0 1080 1080" style="enable-background:new 0 0 1080 1080;" xml:space="preserve">
<style type="text/css">
	.st0{fill:#1E88E5;}
	.st1{fill:#BBDEFB;}
</style>
<path class="st0" d="M885.6,252H520.7L418.5,139.9c-9.7-14.6-29.2-19.5-43.8-19.5H97.4C43.9,120.4,5,164.3,5,217.9v584.8
	c0,53.6,38.9,97.5,92.4,97.5h793c48.6,0,92.4-43.9,92.4-97.5V349.5C978,295.9,939.1,252,885.6,252z M885.6,802.7H97.4V217.9H365
	L467.2,330c9.7,14.6,29.2,19.5,43.8,19.5h379.5v453.2H885.6z"/>
<path id="Flame" class="st1" d="M842.8,358.8c-15.1,0-30.3,10.1-40.4,20.2l-85.8,131.2H514.7c-15.1,0-25.2,10.1-25.2,25.2v136.3
	l85.8,90.9l30.3-30.3l35.3,35.3L610.6,798l35.3,35.3l30.3-30.3l35.3,35.3l-30.3,30.3l85.8,85.8h136.3c15.1,0,25.2-10.1,25.2-25.2
	V727.4l126.2-85.8c15.1-10.1,20.2-25.2,20.2-40.4V384.1c0-15.1-10.1-25.2-25.2-25.2H842.8z M943.8,434.6c25.2,0,50.5,15.1,60.6,35.3
	c10.1,10.1,15.1,25.2,15.1,40.4s-5,30.3-15.1,40.4c-5,5-5,10.1-10.1,10.1c-5,5-15.1,10.1-25.2,15.1s-20.2,5-30.3,5
	c-5,0-10.1,0-15.1,0c-5,0-10.1,0-15.1-5l0,0c-10.1-5-15.1-10.1-25.2-15.1c-5-5-10.1-15.1-15.1-25.2l0,0c0-5-5-10.1-5-15.1l0,0
	c0-5,0-10.1,0-15.1c0-30.3,20.2-55.5,45.4-70.7C923.6,434.6,933.7,434.6,943.8,434.6L943.8,434.6z M494.5,808.1v151.4h151.4v-45.4
	h-106v-106H494.5z"/>
</svg>
