<?xml version="1.0" encoding="utf-8"?>
<!-- Generator: Adobe Illustrator 27.0.0, SVG Export Plug-In . SVG Version: 6.00 Build 0)  -->
<svg version="1.1" id="Capa_1" xmlns="http://www.w3.org/2000/svg" xmlns:xlink="http://www.w3.org/1999/xlink" x="0px" y="0px"
	 viewBox="0 0 1080 1080" style="enable-background:new 0 0 1080 1080;" xml:space="preserve">
<style type="text/css">
	.st0{fill:#448AFF;}
	.st1{fill-rule:evenodd;clip-rule:evenodd;fill:#BBDEFB;}
</style>
<path class="st0" d="M406.86,114.91H105.46C49.71,114.91,5,159.61,5,215.37v602.79c0,55.1,45.36,100.46,100.46,100.46h803.71
	c55.1,0,100.46-45.36,100.46-100.46V315.84c0-55.48-44.98-100.46-100.46-100.46H507.32L406.86,114.91z"/>
<path class="st1" d="M814.54,704.63c-13.04,12.21-13.71,32.69-1.49,45.72c0.48,0.51,0.98,1.01,1.49,1.49
	c13.07,12.98,34.15,12.98,47.22,0c64.84-64.95,64.84-170.14,0-235.09L744.06,399.02c-64.95-64.84-170.14-64.84-235.09,0
	c-64.84,64.95-64.84,170.14,0,235.09l49.48,49.58c-0.4-27.4,4.11-54.66,13.31-80.47l-15.57-15.97
	c-38.94-38.51-39.28-101.29-0.77-140.23c0.26-0.26,0.51-0.52,0.77-0.77c38.52-38.92,101.31-39.25,140.23-0.72
	c0.24,0.24,0.48,0.48,0.72,0.72l117.39,117.39c38.94,38.51,39.28,101.29,0.77,140.23C815.06,704.12,814.8,704.38,814.54,704.63
	 M720.76,563.63c-13.07-12.97-34.15-12.97-47.22,0c-64.84,64.95-64.84,170.14,0,235.09l117.74,117.74
	c64.95,64.84,170.14,64.84,235.09,0c64.84-64.95,64.84-170.14,0-235.09l-49.53-49.58c0.37,27.52-4.13,54.88-13.31,80.82l15.62,15.57
	c38.95,38.5,39.32,101.28,0.82,140.23c-0.27,0.28-0.55,0.55-0.82,0.82c-38.51,38.94-101.29,39.28-140.23,0.77
	c-0.26-0.26-0.52-0.51-0.77-0.77L720.76,751.85c-38.94-38.51-39.28-101.29-0.77-140.23c0.26-0.26,0.51-0.52,0.77-0.77
	c13.04-12.21,13.71-32.69,1.49-45.72C721.77,564.61,721.27,564.11,720.76,563.63z"/>
</svg>
