<?xml version="1.0" encoding="utf-8"?>
<!-- Generator: Adobe Illustrator 24.1.1, SVG Export Plug-In . SVG Version: 6.00 Build 0)  -->
<svg version="1.1" id="Capa_1" xmlns="http://www.w3.org/2000/svg" xmlns:xlink="http://www.w3.org/1999/xlink" x="0px" y="0px"
	 viewBox="0 0 1080 1080" style="enable-background:new 0 0 1080 1080;" xml:space="preserve">
<style type="text/css">
	.st0{fill:#EF5350;}
	.st1{fill:#FFCDD2;}
</style>
<path class="st0" d="M887.2,258.7H521.7L419.3,146.4c-9.7-14.6-29.2-19.5-43.9-19.5H97.6C44,126.9,5,170.8,5,224.5v585.9
	c0,53.7,39,97.6,92.6,97.6h794.5c48.7,0,92.6-43.9,92.6-97.6V356.4C979.8,302.7,940.9,258.7,887.2,258.7z M887.2,810.4H97.6V224.5
	h268.1l102.4,112.3c9.7,14.6,29.2,19.5,43.9,19.5h380.2v454.1H887.2z"/>
<path class="st1" d="M473,497.9h151.7V346.2H473V497.9z M698.1,953.1h151.7V801.4H698.1V953.1z M473,953.1h151.7V801.4H473V953.1z
	 M473,723.1h151.7V571.3H473V723.1z M698.1,723.1h151.7V571.3H698.1V723.1z M923.3,346.2v151.7H1075V346.2H923.3z M698.1,497.9
	h151.7V346.2H698.1V497.9z M923.3,723.1H1075V571.3H923.3V723.1z M923.3,953.1H1075V801.4H923.3V953.1z"/>
</svg>
