<?xml version="1.0" encoding="utf-8"?>
<!-- Generator: Adobe Illustrator 24.1.1, SVG Export Plug-In . SVG Version: 6.00 Build 0)  -->
<svg version="1.1" id="Capa_1" xmlns="http://www.w3.org/2000/svg" xmlns:xlink="http://www.w3.org/1999/xlink" x="0px" y="0px"
	 viewBox="0 0 1080 1080" style="enable-background:new 0 0 1080 1080;" xml:space="preserve">
<style type="text/css">
	.st0{fill:#03A9F4;}
	.st1{fill-rule:evenodd;clip-rule:evenodd;fill:#B3E5FC;}
</style>
<path class="st0" d="M885.6,233.8H520.8L418.5,121.6c-9.7-14.7-29.2-19.5-43.8-19.5H97.4C43.9,102.1,5,146,5,199.6v584.7
	c0,53.6,38.9,97.5,92.4,97.5h793c48.6,0,92.4-43.9,92.4-97.5V331.2C978,277.6,939.2,233.8,885.6,233.8z"/>
<path class="st1" d="M1016.5,393.3H548.9c-32.2,0-58.1,26.3-58.1,58.5l-0.3,526.1L607.4,861h409.2c32.1,0,58.5-26.3,58.5-58.5V451.8
	C1075,419.6,1048.7,393.3,1016.5,393.3z M812,744.1h-58.5v-58.5H812V744.1z M812,627.2h-58.5V510.3H812V627.2z"/>
</svg>
