<?xml version="1.0" encoding="utf-8"?>
<!-- Generator: Adobe Illustrator 24.1.1, SVG Export Plug-In . SVG Version: 6.00 Build 0)  -->
<svg version="1.1" id="Capa_1" xmlns="http://www.w3.org/2000/svg" xmlns:xlink="http://www.w3.org/1999/xlink" x="0px" y="0px"
	 viewBox="0 0 1080 1080" style="enable-background:new 0 0 1080 1080;" xml:space="preserve">
<style type="text/css">
	.st0{fill:#00ACC1;}
	.st1{fill:#80DEEA;}
</style>
<path class="st0" d="M885.6,232.9H520.7L418.5,120.8c-9.7-14.6-29.2-19.5-43.8-19.5H97.4C43.9,101.3,5,145.1,5,198.7v584.8
	C5,837.1,43.9,881,97.4,881h793c48.6,0,92.4-43.9,92.4-97.5V330.3C978,276.7,939.1,232.9,885.6,232.9z M885.6,783.5H97.4V198.7H365
	l102.2,112.1c9.7,14.6,29.2,19.5,43.8,19.5h379.5v453.2H885.6z"/>
<path class="st1" d="M760.9,773.9c-63.4,0-112.1-48.8-112.1-112.1s48.8-112.1,112.1-112.1s112.1,48.8,112.1,112.1
	S824.3,773.9,760.9,773.9 M999.8,691c0-9.8,0-19.5,0-29.3c0-9.8,0-19.5,0-34.1l68.3-53.6c4.9-4.9,9.8-14.6,4.9-19.5l-68.3-112.1
	c-4.9-4.9-14.6-9.8-19.5-4.9l-78,34.1c-14.6-14.6-34.1-24.4-53.6-29.3l-9.8-82.9c0-9.8-9.8-14.6-14.6-14.6H697.5
	c-9.8,0-14.6,4.9-14.6,14.6l-9.8,82.9c-19.5,9.8-39,19.5-53.6,29.3l-78-34.1c-4.9-4.9-14.6,0-19.5,4.9l-63.4,112.1
	c-4.9,4.9,0,14.6,4.9,19.5l68.3,53.6c0,9.8,0,19.5,0,34.1s0,19.5,0,29.3l-78,53.6c-4.9,4.9-9.8,14.6-4.9,19.5l63.4,112.1
	c4.9,4.9,14.6,9.8,19.5,4.9l78-34.1c14.6,14.6,34.1,24.4,53.6,34.1l9.8,82.9c0,9.8,9.8,14.6,14.6,14.6h126.8
	c9.8,0,14.6-4.9,14.6-14.6l9.8-82.9c19.5-9.8,39-19.5,53.6-34.1l78,34.1c4.9,4.9,14.6,0,19.5-4.9l63.4-112.1
	c4.9-4.9,0-14.6-4.9-19.5L999.8,691z"/>
</svg>
