<?xml version="1.0" encoding="utf-8"?>
<!-- Generator: Adobe Illustrator 24.1.1, SVG Export Plug-In . SVG Version: 6.00 Build 0)  -->
<svg version="1.1" id="Capa_1" xmlns="http://www.w3.org/2000/svg" xmlns:xlink="http://www.w3.org/1999/xlink" x="0px" y="0px"
	 viewBox="0 0 1080 1080" style="enable-background:new 0 0 1080 1080;" xml:space="preserve">
<style type="text/css">
	.st0{fill:#AFB42B;}
	.st1{fill-rule:evenodd;clip-rule:evenodd;fill:#F0F4C3;}
</style>
<path class="st0" d="M885.6,261H520.8L418.5,148.9c-9.7-14.7-29.2-19.5-43.8-19.5H97.4C43.9,129.4,5,173.3,5,226.9v584.7
	c0,53.6,38.9,97.5,92.4,97.5h793c48.6,0,92.4-43.9,92.4-97.5V358.4C978,304.8,939.2,261,885.6,261z"/>
<path class="st1" d="M930.6,354.3c-15.9,0-31.2,5.7-43,17.4L713.1,546.6l169.7,169.7l174.8-174.5c23.1-23.4,23.1-61.3,0-85l-85.3-85
	C960.6,360,945.6,354.3,930.6,354.3 M684.3,575.1l-179,179c-23.4,23.4-23.4,61.3,0.6,85.6c-36.6,37-73.9,73.9-110.9,110.9h170
	l25.8-25.8c23.4,22.8,61,22.5,84.4-0.6l178.7-179"/>
</svg>
