<?xml version="1.0" encoding="utf-8"?>
<!-- Generator: Adobe Illustrator 24.1.1, SVG Export Plug-In . SVG Version: 6.00 Build 0)  -->
<svg version="1.1" id="Capa_1" xmlns="http://www.w3.org/2000/svg" xmlns:xlink="http://www.w3.org/1999/xlink" x="0px" y="0px"
	 viewBox="0 0 1080 1080" style="enable-background:new 0 0 1080 1080;" xml:space="preserve">
<style type="text/css">
	.st0{fill:#0277BD;}
	.st1{fill-rule:evenodd;clip-rule:evenodd;fill:#B3E5FC;}
</style>
<path class="st0" d="M885.6,268.5H520.8L418.5,156.3c-9.7-14.7-29.2-19.5-43.8-19.5H97.4C43.9,136.8,5,180.7,5,234.3V819
	c0,53.6,38.9,97.5,92.4,97.5h793c48.6,0,92.4-43.9,92.4-97.5V365.9C978,312.3,939.2,268.5,885.6,268.5z"/>
<g transform="matrix(.052005 0 0 .052002 16.891 -16.072)">
	<g transform="translate(-40.058,5e-6)">
		<path class="st1" d="M12793.6,6997.2v1.3c-117.5-0.6-223.9-1.1-308.9-0.9c-368-3.2-676,197.9-943.9,407.5
			c-292.4,229.6-542.6,529.3-621,930.8c-44.7,235.4-35.2,441.2-35.2,646.8v1620.1c0,572.1-212.9,997.2-501.6,1275.4
			c-162.6,161.1-509.8,308.2-904.6,441.2v731.9c349.9,96.5,686.8,227.1,873.6,392.9c309.3,270.2,532.3,659.1,532.3,1167.1v1892.1
			c0,628.6,150,1107.4,586.2,1435.8c436.3,328.2,944.8,491.5,1525.4,507.4l388.6-2.6v-943.5c-303.1-88.7-471.5-191.6-592.9-308.1
			c-218.5-197.9-342.2-519.2-342.2-965.6v-1527.8c-8.4-519.6-92.1-926.1-281.4-1220.2c-189.2-293.4-558.5-550.8-1108-772.5
			c606.4-277.8,1013.3-640,1220.8-1086.8c122.2-265.7,168.6-624.1,168.6-1074.7V9144.2c0-462.7,107.4-786.9,293.4-972
			c101-100.5,280.5-183.2,530-250.2l394.4,2.8v-927.5L12793.6,6997.2L12793.6,6997.2L12793.6,6997.2z"/>
		<path class="st1" d="M17071,6997.2v1.3c117.5-0.6,223.9-1.1,308.9-0.9c368-3.2,676,197.9,943.9,407.5
			c292.4,229.6,542.6,529.3,621,930.8c44.7,235.4,35.2,441.2,35.2,646.8v1620.1c0,572.1,212.9,997.2,501.6,1275.4
			c162.6,161.1,509.8,308.2,904.6,441.2v731.9c-349.9,96.5-686.8,227.1-873.6,392.9c-309.3,270.2-532.3,659.1-532.3,1167.1v1892.1
			c0,628.6-150,1107.4-586.3,1435.8c-436.3,328.2-944.8,491.5-1525.4,507.4l-388.6-2.6v-943.5c303.1-88.7,471.5-191.6,592.9-308.1
			c218.5-197.9,342.2-519.2,342.2-965.6v-1527.8c8.4-519.6,92.2-926.1,281.4-1220.2c189.2-293.4,558.5-550.8,1108-772.5
			c-606.4-277.8-1013.3-640-1220.8-1086.8c-122.2-265.7-168.6-624.1-168.6-1074.7V9144.2c0-462.7-107.4-786.9-293.4-972
			c-101-100.5-280.5-183.2-530-250.2l-394.4,2.8v-927.5L17071,6997.2L17071,6997.2L17071,6997.2z"/>
	</g>
</g>
</svg>
