<?xml version="1.0" encoding="utf-8"?>
<!-- Generator: Adobe Illustrator 24.1.1, SVG Export Plug-In . SVG Version: 6.00 Build 0)  -->
<svg version="1.1" id="Capa_1" xmlns="http://www.w3.org/2000/svg" xmlns:xlink="http://www.w3.org/1999/xlink" x="0px" y="0px"
	 viewBox="0 0 1080 1080" style="enable-background:new 0 0 1080 1080;" xml:space="preserve">
<style type="text/css">
	.st0{fill:#8D6E63;}
	.st1{fill-rule:evenodd;clip-rule:evenodd;fill:#D7CCC8;}
</style>
<path class="st0" d="M880.7,264.6H515.8L413.7,152.5c-9.7-14.6-29.2-19.5-43.8-19.5H92.6C43.9,133.1,5,176.9,5,230.5v584.8
	c0,53.6,38.9,97.5,92.4,97.5h793c48.6,0,92.4-43.9,92.4-97.5V362.1C973.1,308.5,939.1,264.6,880.7,264.6z M880.7,815.3h-793V230.5
	h267.6l102.2,112.1c9.7,14.6,29.2,19.5,43.8,19.5h379.5V815.3z"/>
<path class="st1" d="M512.1,830v117h117l346.1-346.1l-117-117L512.1,830z M1067.7,513.2c9.7-9.7,9.7-34.1,0-43.9l-73.1-73.1
	c-9.7-9.7-34.1-9.7-43.9,0l-58.5,58.5l117,117L1067.7,513.2z"/>
</svg>
