<?xml version="1.0" encoding="utf-8"?>
<!-- Generator: Adobe Illustrator 24.1.1, SVG Export Plug-In . SVG Version: 6.00 Build 0)  -->
<svg version="1.1" id="Capa_1" xmlns="http://www.w3.org/2000/svg" xmlns:xlink="http://www.w3.org/1999/xlink" x="0px" y="0px"
	 viewBox="0 0 1080 1080" style="enable-background:new 0 0 1080 1080;" xml:space="preserve">
<style type="text/css">
	.st0{fill:#EC407A;}
	.st1{fill:#F8BBD0;stroke:#F8BBD0;stroke-width:1.169506e-02;stroke-linejoin:round;stroke-miterlimit:10;}
</style>
<path class="st0" d="M885.6,232.3H520.7L418.5,120.2c-9.7-14.6-29.2-19.5-43.8-19.5H97.4C43.9,100.7,5,144.6,5,198.2V783
	c0,53.6,38.9,97.5,92.4,97.5h793c48.6,0,92.4-43.9,92.4-97.5V329.7C978,276.1,939.1,232.3,885.6,232.3z M885.6,783H97.4V198.2H365
	l102.2,112.1c9.7,14.6,29.2,19.5,43.8,19.5h379.5V783H885.6z"/>
<path class="st1" d="M1045,730.4c-5-2.9-10.3-5-15.7-6.3v-159c5.4-1.3,10.8-3.4,15.9-6.3c28.5-16.6,38.3-53,21.9-81.5
	c-16.6-28.5-53-38.3-81.5-21.9c-5.1,3-9.6,6.6-13.5,10.7l-137.7-79.5c1.6-5.4,2.5-11.1,2.5-17c0-33-26.7-59.7-59.7-59.7
	c-33,0-59.7,26.7-59.7,59.7c0,5.9,0.9,11.5,2.4,16.9L582.1,466c-3.8-4.1-8.3-7.6-13.4-10.6c-28.5-16.4-65.1-6.7-81.5,21.9
	c-16.4,28.5-6.7,65.1,21.9,81.5c5.1,2.9,10.4,5,15.9,6.3v159c-5.4,1.3-10.7,3.4-15.7,6.3c-28.5,16.6-38.3,53-21.9,81.5
	c16.4,28.5,52.8,38.3,81.5,21.9c5.1-2.9,9.5-6.5,13.3-10.5l137.6,79.5c-1.6,5.4-2.4,11-2.4,16.9c0,33,26.7,59.7,59.7,59.7
	c33,0,59.7-26.8,59.7-59.7c0-6.6-1.1-12.9-3.1-18.9l136.8-79c4.1,4.7,9.1,8.8,14.8,12.1c28.5,16.4,65.1,6.7,81.5-21.9
	C1083.4,783.4,1073.7,747,1045,730.4z M597.1,768c-1.3-5.4-3.4-10.7-6.3-15.7c-2.9-5.1-6.5-9.5-10.5-13.3l180.2-312.1
	c5.3,1.5,10.9,2.4,16.6,2.4c5.8,0,11.4-0.8,16.7-2.4L974,738.9c-4,3.8-7.6,8.3-10.5,13.4c-2.9,5-5,10.3-6.3,15.7H597.1z M958,490.7
	c-4.3,15-2.7,31.6,5.6,46.2c8.4,14.6,22.1,24.3,37.3,28.1v159.2c-0.8,0.2-1.5,0.4-2.3,0.6L818.4,412.7c0.5-0.5,1.1-1.1,1.6-1.6
	L958,490.7z M734.2,411c0.6,0.6,1.1,1.2,1.7,1.7L555.7,724.8c-0.8-0.2-1.5-0.4-2.3-0.6V565c15.2-3.8,28.9-13.4,37.3-28.1
	c8.4-14.6,9.9-31.3,5.6-46.3L734.2,411z M821.2,879.4c-10.9-11.9-26.6-19.4-44.1-19.4c-16.9,0-32.1,7-43,18.3l-137.8-79.6
	c0.2-0.8,0.4-1.5,0.6-2.3h360.2c0.3,1.3,0.7,2.6,1.1,3.8L821.2,879.4z"/>
</svg>
