<?xml version="1.0" encoding="utf-8"?>
<!-- Generator: Adobe Illustrator 24.1.1, SVG Export Plug-In . SVG Version: 6.00 Build 0)  -->
<svg version="1.1" id="Capa_1" xmlns="http://www.w3.org/2000/svg" xmlns:xlink="http://www.w3.org/1999/xlink" x="0px" y="0px"
	 viewBox="0 0 1080 1080" style="enable-background:new 0 0 1080 1080;" xml:space="preserve">
<style type="text/css">
	.st0{fill:#21759B;}
	.st1{fill-rule:evenodd;clip-rule:evenodd;fill:#E1F5FE;}
</style>
<path class="st0" d="M885.6,258.7H520.8L418.5,146.5c-9.7-14.7-29.2-19.5-43.8-19.5H97.4C43.9,127,5,170.9,5,224.5v584.7
	c0,53.6,38.9,97.5,92.4,97.5h793c48.6,0,92.4-43.9,92.4-97.5V356.1C978,302.5,939.2,258.7,885.6,258.7z"/>
<path class="st1" d="M748.7,300.3c-114.1,0-214.1,58.6-272.7,147.2l20.9,0.4c34.2,0,87.1-4.1,87.1-4.1c17.5-1.1,19.8,24.6,2.3,26.9
	l-37.7,3.9l119.1,352.5L739.1,613l-50.9-138.4l-34.6-3.9c-17.1-1.1-15.2-28.1,2.3-26.9l85.9,4.1c34.2,0,87.1-4.1,87.1-4.1
	c17.5-1.1,19.9,24.6,2,26.9l-37.3,3.9l117.9,349.9l32.6-108.7c13.7-45.3,24.8-77.6,24.8-105.4c0-40.7-14.5-68.5-27-90.2
	c-16.4-26.6-32-49.3-32-76.3c0-30.1,22.9-57.8,54.9-57.8h4.1C911.1,333.1,833.5,300.3,748.7,300.3L748.7,300.3z M1035.2,470
	l2.3,33.8c0,33.1-6.5,70.3-25.2,116.7l-99.7,287.9c97-56.3,162.4-161.6,162.4-281.8C1075,569.6,1060.6,516.8,1035.2,470L1035.2,470z
	 M450.4,493.6c-17.9,41.1-28.1,85.9-28.1,133.1c0,129.3,75,240.8,184.1,293.6L450.4,493.6z M754.4,655.2l-97.8,284.6
	c29.3,8.7,60.1,13.2,92.1,13.2c38,0,74.6-6.3,108.5-18.5l-2.4-4.7L754.4,655.2z"/>
</svg>
