<?xml version="1.0" encoding="utf-8"?>
<!-- Generator: Adobe Illustrator 24.1.1, SVG Export Plug-In . SVG Version: 6.00 Build 0)  -->
<svg version="1.1" id="Capa_1" xmlns="http://www.w3.org/2000/svg" xmlns:xlink="http://www.w3.org/1999/xlink" x="0px" y="0px"
	 viewBox="0 0 1080 1080" style="enable-background:new 0 0 1080 1080;" xml:space="preserve">
<style type="text/css">
	.st0{fill:#FF9800;}
	.st1{fill:#FFE0B2;}
</style>
<path class="st0" d="M885.6,272.8H520.8L418.5,160.6c-9.7-14.7-29.2-19.5-43.8-19.5H97.4C43.9,141.1,5,185,5,238.6v584.7
	c0,53.6,38.9,97.5,92.4,97.5h793c48.6,0,92.4-43.9,92.4-97.5V370.2C978,316.6,939.2,272.8,885.6,272.8z"/>
<path class="st1" d="M811.2,513.9H493.7c-29.3,0-53.7,24.4-53.7,53.7v317.5c0,29.3,24.4,53.7,53.7,53.7h317.5
	c29.3,0,53.7-24.4,53.7-53.7V567.6C864.9,538.3,840.5,513.9,811.2,513.9L811.2,513.9z M1021.3,557.8l-122.1,83v175.9l122.1,83
	c24.4,14.7,53.7,0,53.7-29.3V587.2C1075,557.8,1045.7,538.3,1021.3,557.8z"/>
</svg>
