<?xml version="1.0" encoding="utf-8"?>
<!-- Generator: Adobe Illustrator 24.1.1, SVG Export Plug-In . SVG Version: 6.00 Build 0)  -->
<svg version="1.1" id="Capa_1" xmlns="http://www.w3.org/2000/svg" xmlns:xlink="http://www.w3.org/1999/xlink" x="0px" y="0px"
	 viewBox="0 0 1080 1080" style="enable-background:new 0 0 1080 1080;" xml:space="preserve">
<style type="text/css">
	.st0{fill:#FBC02D;}
	.st1{fill:#FFF9C4;}
</style>
<path class="st0" d="M880.7,248.8H515.8L413.7,136.7c-9.7-14.6-29.2-19.5-43.8-19.5H92.6C43.9,117.2,5,161.1,5,214.7v584.8
	c0,53.6,38.9,97.5,92.4,97.5h793c48.6,0,92.4-43.9,92.4-97.5V346.2C973.1,292.6,939.1,248.8,880.7,248.8z M880.7,799.5h-793V214.7
	h267.6l102.2,112.1c9.7,14.6,29.2,19.5,43.8,19.5h379.5V799.5z"/>
<path class="st1" d="M985.8,512H683.7v-59.4h302.2 M866.9,749.8H683.7v-59.4h183.3 M985.8,630.9H683.7v-59.4h302.2 M1015.6,358.4
	H653.9c-34.7,0-59.4,24.8-59.4,59.4v361.6c0,34.7,24.8,59.4,59.4,59.4h361.6c34.7,0,59.4-24.8,59.4-59.4V417.9
	C1075,388.2,1050.2,358.4,1015.6,358.4 M535,482.3h-59.4v421.1c0,34.7,24.8,59.4,59.4,59.4h421.1v-59.4H535V482.3z"/>
</svg>
