<?xml version="1.0" encoding="utf-8"?>
<!-- Generator: Adobe Illustrator 24.1.1, SVG Export Plug-In . SVG Version: 6.00 Build 0)  -->
<svg version="1.1" id="Capa_1" xmlns="http://www.w3.org/2000/svg" xmlns:xlink="http://www.w3.org/1999/xlink" x="0px" y="0px"
	 viewBox="0 0 1080 1080" style="enable-background:new 0 0 1080 1080;" xml:space="preserve">
<style type="text/css">
	.st0{fill:#C0CA33;}
	.st1{fill:#F0F4C3;}
</style>
<path class="st0" d="M880.7,219H515.8L413.7,106.9c-9.7-14.6-29.2-19.5-43.8-19.5H92.6C43.9,87.4,5,131.3,5,184.9v584.8
	c0,53.6,38.9,97.5,92.4,97.5h793c48.6,0,92.4-43.9,92.4-97.5V316.5C973.1,262.8,939.1,219,880.7,219z M880.7,769.7h-793V184.9h267.6
	L457.4,297c9.7,14.6,29.2,19.5,43.8,19.5h379.5V769.7z"/>
<path class="st1" d="M770.7,501.8c54,0,103.1-44.2,103.1-103.1l0,0c0-54-44.2-103.1-103.1-103.1l0,0c-54,0-103.1,44.2-103.1,103.1
	l0,0C667.6,457.6,716.7,501.8,770.7,501.8L770.7,501.8 M770.7,624.5c-78.5-73.6-186.5-117.8-304.3-117.8v368.1
	c117.8,0,220.9,44.2,304.3,117.8C849.2,919,957.2,874.8,1075,874.8V506.7C957.2,501.8,849.2,550.9,770.7,624.5z"/>
</svg>
