<?xml version="1.0" encoding="utf-8"?>
<!-- Generator: Adobe Illustrator 24.1.1, SVG Export Plug-In . SVG Version: 6.00 Build 0)  -->
<svg version="1.1" id="Capa_1" xmlns="http://www.w3.org/2000/svg" xmlns:xlink="http://www.w3.org/1999/xlink" x="0px" y="0px"
	 viewBox="0 0 1080 1080" style="enable-background:new 0 0 1080 1080;" xml:space="preserve">
<style type="text/css">
	.st0{fill:#21759B;}
	.st1{fill:#E1F5FE;}
</style>
<path class="st0" d="M880.7,243.6H515.8L413.7,131.5c-9.7-14.6-29.2-19.5-43.8-19.5H92.6C43.9,112.1,5,155.9,5,209.5v584.8
	c0,53.6,38.9,97.5,92.4,97.5h793c48.6,0,92.4-43.9,92.4-97.5V341.1C973.1,287.5,939.1,243.6,880.7,243.6z M880.7,794.3h-793V209.5
	h267.6l102.2,112.1c9.7,14.6,29.2,19.5,43.8,19.5h379.5V794.3z"/>
<path class="st1" d="M752.4,312.4c-112.7,0-215.1,56.3-271.4,148.5h20.5c35.8,0,87.1-5.1,87.1-5.1c15.4,0,20.5,25.6,0,25.6
	l-35.8,5.1l117.8,353.4l71.7-215.1l-51.2-138.3l-35.8-5.1c-15.4,0-15.4-25.6,0-25.6l87.1,5.1c35.8,0,87.1-5.1,87.1-5.1
	c15.4,0,20.5,25.6,0,25.6l-35.8,5.1l117.8,348.2l30.7-107.5c15.4-46.1,25.6-76.8,25.6-107.5c0-41-15.4-66.6-25.6-92.2
	c-15.4-25.6-30.7-51.2-30.7-76.8c0-30.7,20.5-56.3,56.3-56.3h5.1C911.1,343.2,834.3,312.4,752.4,312.4L752.4,312.4z M1039.2,481.4
	v35.8c0,30.7-5.1,71.7-25.6,117.8L911.1,921.9C1008.4,865.5,1075,758,1075,640.2C1075,583.9,1064.8,527.5,1039.2,481.4L1039.2,481.4
	z M450.2,507c-15.4,41-30.7,87.1-30.7,133.2c0,128,76.8,240.7,184.4,291.9L450.2,507z M757.5,665.8l-97.3,286.8
	c30.7,10.2,61.5,15.4,92.2,15.4c35.8,0,76.8-5.1,107.5-20.5v-5.1L757.5,665.8z"/>
</svg>
