<?xml version="1.0" encoding="utf-8"?>
<!-- Generator: Adobe Illustrator 24.1.1, SVG Export Plug-In . SVG Version: 6.00 Build 0)  -->
<svg version="1.1" id="Capa_1" xmlns="http://www.w3.org/2000/svg" xmlns:xlink="http://www.w3.org/1999/xlink" x="0px" y="0px"
	 viewBox="0 0 1080 1080" style="enable-background:new 0 0 1080 1080;" xml:space="preserve">
<style type="text/css">
	.st0{fill:#616161;}
	.st1{fill-rule:evenodd;clip-rule:evenodd;fill:#F5F5F5;}
</style>
<path class="st0" d="M885.6,235.7H520.7L418.5,123.6c-9.7-14.6-29.2-19.5-43.8-19.5H97.4C43.9,104.1,5,148,5,201.6v584.8
	c0,53.6,38.9,97.5,92.4,97.5h793c48.6,0,92.4-43.9,92.4-97.5V333.2C978,279.6,939.1,235.7,885.6,235.7z M885.6,786.4H97.4V201.6H365
	l102.2,112.1c9.7,14.6,29.2,19.5,43.8,19.5h379.5v453.2H885.6z"/>
<path class="st1" d="M1075,559.9v-86.2c-126.8,15.2-233.3,25.4-324.6,25.4c-96.4,0-202.9-10.1-334.8-25.4v86.2
	c51.1,5.9,99.2,11,144.2,15.1l-7.6,81.3H410.5V707h136.9l-25.3,268.8h96.4L628.6,707h223.3L862,975.9h96.4L929.9,707h140.1v-50.7
	H924.5l-8.4-79.4C965.3,572.6,1018.1,566.8,1075,559.9z M633.3,580.9c28.6,1.9,55.8,3.3,81.6,3.9v71.5h-84.4L633.3,580.9z
	 M850,656.3h-84.4v-71.1c26-0.3,53.1-1.4,81.6-3.1L850,656.3z"/>
</svg>
