<?xml version="1.0" encoding="utf-8"?>
<!-- Generator: Adobe Illustrator 24.1.1, SVG Export Plug-In . SVG Version: 6.00 Build 0)  -->
<svg version="1.1" id="Capa_1" xmlns="http://www.w3.org/2000/svg" xmlns:xlink="http://www.w3.org/1999/xlink" x="0px" y="0px"
	 viewBox="0 0 1080 1080" style="enable-background:new 0 0 1080 1080;" xml:space="preserve">
<style type="text/css">
	.st0{fill:#F9A825;}
	.st1{fill-rule:evenodd;clip-rule:evenodd;fill:#FFF9C4;}
</style>
<path class="st0" d="M885.6,258.7H520.8L418.5,146.5c-9.7-14.7-29.2-19.5-43.8-19.5H97.4C43.9,127,5,170.9,5,224.5v584.7
	c0,53.6,38.9,97.5,92.4,97.5h793c48.6,0,92.4-43.9,92.4-97.5V356.1C978,302.5,939.2,258.7,885.6,258.7z"/>
<path class="st1" d="M852.2,618.7H703.6v-74.3h148.6 M852.2,767.3H703.6V693h148.6 M1075,470.2H970.6c-16.7-29-39.7-53.9-67.6-72.8
	l60.5-60.5l-52.4-52.4l-80.6,80.6c-17.1-4.1-34.2-6.3-52.7-6.3c-18.6,0-35.7,2.2-52.4,6.3l-81-80.6l-52.4,52.4l60.2,60.5
	c-27.5,18.9-50.5,43.8-67.2,72.8H480.8v74.3h77.6c-1.9,12.3-3.3,24.5-3.3,37.1v37.1h-74.3V693H555v37.1c0,12.6,1.5,24.9,3.3,37.1
	h-77.6v74.3h104.4C623.8,908.1,695.4,953,777.9,953S932,908.1,970.6,841.6H1075v-74.3h-77.6c1.9-12.3,3.3-24.5,3.3-37.1V693h74.3
	v-74.3h-74.3v-37.1c0-12.6-1.5-24.9-3.3-37.1h77.6L1075,470.2z"/>
</svg>
