<?xml version="1.0" encoding="utf-8"?>
<!-- Generator: Adobe Illustrator 24.1.1, SVG Export Plug-In . SVG Version: 6.00 Build 0)  -->
<svg version="1.1" id="Capa_1" xmlns="http://www.w3.org/2000/svg" xmlns:xlink="http://www.w3.org/1999/xlink" x="0px" y="0px"
	 viewBox="0 0 1080 1080" style="enable-background:new 0 0 1080 1080;" xml:space="preserve">
<style type="text/css">
	.st0{fill:#FBC02D;}
	.st1{fill-rule:evenodd;clip-rule:evenodd;fill:#FFF9C4;}
</style>
<path class="st0" d="M885.6,272.2H520.7L418.6,160c-9.7-14.7-29.2-19.5-43.8-19.5H97.4C43.9,140.5,5,184.4,5,238v584.8
	c0,53.6,38.9,97.5,92.4,97.5h793c48.7,0,92.4-43.9,92.4-97.5V369.6C978,316,939.2,272.2,885.6,272.2z"/>
<path class="st1" d="M1075,820.2L869.8,934c-14.1,7.3-28.1,7.3-42.2,0L625.3,820.2l366.8-369.6l9.8-2.8c8.4,0,13.2,3.7,14.1,11.2
	L1075,820.2 M775.7,456.2L647.8,668.4l53.4-335.9c0.8-7.6,5.6-11.2,14.1-11.2c5.6,0,9.3,1.7,11.2,7l60.4,111L775.7,456.2
	 M902.2,491.6L633.8,761.1l203.8-345.7c2.8-5.6,7-8.2,12.6-8.2c5.6,0,9.3,2.5,11.2,8.2L902.2,491.6z"/>
</svg>
