<?xml version="1.0" encoding="utf-8"?>
<!-- Generator: Adobe Illustrator 24.1.1, SVG Export Plug-In . SVG Version: 6.00 Build 0)  -->
<svg version="1.1" id="Capa_1" xmlns="http://www.w3.org/2000/svg" xmlns:xlink="http://www.w3.org/1999/xlink" x="0px" y="0px"
	 viewBox="0 0 1080 1080" style="enable-background:new 0 0 1080 1080;" xml:space="preserve">
<style type="text/css">
	.st0{fill:#1E88E5;}
	.st1{fill-rule:evenodd;clip-rule:evenodd;fill:#BBDEFB;}
</style>
<path class="st0" d="M885.6,269.7H520.7L418.6,157.5c-9.7-14.7-29.2-19.5-43.8-19.5H97.4C43.9,138,5,181.9,5,235.5v584.8
	c0,53.6,38.9,97.5,92.4,97.5h793c48.7,0,92.4-43.9,92.4-97.5V367.1C978,313.5,939.2,269.7,885.6,269.7z"/>
<path class="st1" d="M729.9,791.7c-57.2,0-103.5-46.4-103.5-103.5l0,0c0-38.7,21.1-72.5,51.8-90.1l335.1-194L822.4,734.8
	C805.1,768.6,770.2,791.7,729.9,791.7 M729.9,343c62.5,0,120.8,17.3,171.5,45.6l-72.5,41.8c-30-11.7-64.5-18.3-99.1-18.3
	c-152.5,0-276.1,123.6-276.1,276.1c0,0,0,0,0,0c0,76.3,30.7,145.3,80.8,195h0.3c13.5,13.5,13.5,35.2,0,48.7
	c-13.5,13.5-35.5,13.5-49,0.3c-62.5-62.5-101.1-148.8-101.1-244C384.7,497.6,539.2,343,729.9,343 M1075,688.2
	c0,95.3-38.7,181.5-101.1,244c-13.5,13.1-35.2,13.1-48.7-0.3c-13.5-13.5-13.5-35.2,0-48.7c50-50,80.8-118.7,80.8-195
	c0-34.5-6.6-69-18.6-100.1l41.8-72.5C1057.7,567.4,1075,625.3,1075,688.2L1075,688.2z"/>
</svg>
