<?xml version="1.0" encoding="utf-8"?>
<!-- Generator: Adobe Illustrator 27.0.0, SVG Export Plug-In . SVG Version: 6.00 Build 0)  -->
<svg version="1.1" id="Capa_1" xmlns="http://www.w3.org/2000/svg" xmlns:xlink="http://www.w3.org/1999/xlink" x="0px" y="0px"
	 viewBox="0 0 1080 1080" style="enable-background:new 0 0 1080 1080;" xml:space="preserve">
<style type="text/css">
	.st0{fill:#00897B;}
	.st1{fill:#B2DFDB;}
</style>
<path class="st0" d="M399.22,127.28H103.55C48.86,127.28,5,171.14,5,225.83v591.32c0,54.06,44.5,98.55,98.55,98.55h788.43
	c54.06,0,98.55-44.5,98.55-98.55V324.39c0-54.43-44.12-98.55-98.55-98.55H497.77L399.22,127.28z"/>
<path class="st1" d="M412.03,866.24c-0.39-47.8-0.79-88.21-0.39-90.18l0.39-3.5l29.76-0.59c16.26-0.39,29.91-0.79,30.06-0.99
	c0,0,0.25-22.17,0.25-48.78c0-38.44,0.39-50.16,1.72-54.99c5.42-20.4,21.19-36.76,41.98-43.56c3.7-1.13,26.26-1.53,100.87-2.12
	l96.24-0.59l0.39-44.5l0.2-44.69h-60.61v-180.8h180.7v180.8h-59.48v89.59l96.09,0.39c106.09,0.59,100.43,0,114.22,8.18
	c7.59,4.43,10.35,6.8,16.75,15.13c6.6,8.77,10.69,17.74,12.02,27.6c0.59,4.29,1.18,28.58,1.18,54.2v46.32H1075v179.57H894.84
	l-0.79-180.75h27.79c15.37,0,28.97-0.39,30.55-0.79l2.46-0.59v-88.4H774.21v89.78h59.48v180.75h-180.8V771.97h27.79
	c15.18,0,28.78-0.39,30.35-0.79l2.46-0.59v-88.4H532.76v89.78h59.48v180.75H412.82L412.03,866.24z"/>
</svg>
