<?xml version="1.0" encoding="utf-8"?>
<!-- Generator: Adobe Illustrator 24.1.1, SVG Export Plug-In . SVG Version: 6.00 Build 0)  -->
<svg version="1.1" id="Capa_1" xmlns="http://www.w3.org/2000/svg" xmlns:xlink="http://www.w3.org/1999/xlink" x="0px" y="0px"
	 viewBox="0 0 1080 1080" style="enable-background:new 0 0 1080 1080;" xml:space="preserve">
<style type="text/css">
	.st0{fill:#00897B;}
	.st1{fill:#B2DFDB;}
</style>
<path class="st0" d="M880.7,225.3H515.8L413.7,113.2c-9.7-14.6-29.2-19.5-43.8-19.5H92.6C43.9,93.7,5,137.6,5,191.2V776
	c0,53.6,38.9,97.5,92.4,97.5h793c48.6,0,92.4-43.9,92.4-97.5V322.8C973.1,269.2,939.1,225.3,880.7,225.3z M880.7,776h-793V191.2
	h267.6l102.2,112.1c9.7,14.6,29.2,19.5,43.8,19.5h379.5V776z"/>
<path class="st1" d="M1075,732.4h-64.7v64.7H816.2v-94.6h64.7v-69.7h-64.7V473.6c0-34.8-29.9-64.7-64.7-64.7H492.7v-64.7H428V603
	h64.7v-64.7h194.1v94.6h-64.7v64.7h64.7v159.3c0,34.8,29.9,64.7,64.7,64.7h258.8v64.7h64.7"/>
</svg>
