<?xml version="1.0" encoding="utf-8"?>
<!-- Generator: Adobe Illustrator 24.1.1, SVG Export Plug-In . SVG Version: 6.00 Build 0)  -->
<svg version="1.1" id="Capa_1" xmlns="http://www.w3.org/2000/svg" xmlns:xlink="http://www.w3.org/1999/xlink" x="0px" y="0px"
	 viewBox="0 0 1080 1080" style="enable-background:new 0 0 1080 1080;" xml:space="preserve">
<style type="text/css">
	.st0{fill:#7E57C2;}
	.st1{fill-rule:evenodd;clip-rule:evenodd;fill:#D1C4E9;}
</style>
<path class="st0" d="M885.6,262.1H520.8L418.5,150c-9.7-14.7-29.2-19.5-43.8-19.5H97.4C43.9,130.5,5,174.4,5,228v584.7
	c0,53.6,38.9,97.5,92.4,97.5h793c48.6,0,92.4-43.9,92.4-97.5V359.5C978,305.9,939.2,262.1,885.6,262.1z"/>
<path class="st1" d="M761.6,542.1c-173,0-313.4,70.2-313.4,156.7c0,70.2,92.2,129.4,219.4,149.5v101.2l125.4-125.4L667.5,698.8v85.6
	c-98.7-17.6-156.7-59.6-156.7-85.6c0-33.2,95.3-94,250.7-94s250.7,60.8,250.7,94c0,22.9-45.8,59.2-125.4,79.3v64.3
	c110.6-24.1,188.1-79.3,188.1-143.5C1075,612.3,934.6,542.1,761.6,542.1z"/>
</svg>
