<?xml version="1.0" encoding="utf-8"?>
<!-- Generator: Adobe Illustrator 24.1.1, SVG Export Plug-In . SVG Version: 6.00 Build 0)  -->
<svg version="1.1" id="Capa_1" xmlns="http://www.w3.org/2000/svg" xmlns:xlink="http://www.w3.org/1999/xlink" x="0px" y="0px"
	 viewBox="0 0 1080 1080" style="enable-background:new 0 0 1080 1080;" xml:space="preserve">
<style type="text/css">
	.st0{fill:#2196F3;}
	.st1{fill-rule:evenodd;clip-rule:evenodd;fill:#BBDEFB;}
</style>
<path class="st0" d="M885.6,270.8H520.8L418.5,158.6c-9.7-14.7-29.2-19.5-43.8-19.5H97.4C43.9,139.1,5,183,5,236.6v584.7
	c0,53.6,38.9,97.5,92.4,97.5h793c48.6,0,92.4-43.9,92.4-97.5V368.2C978,314.6,939.2,270.8,885.6,270.8z"/>
<path class="st1" d="M758.7,639c-47.6,0-86.3,38.6-86.3,86.3c0,0,0,0,0,0c0,47.6,38.6,86.3,86.3,86.3c0,0,0,0,0,0
	c47.6,0,86.3-38.6,86.3-86.3c0,0,0,0,0,0C845,677.6,806.3,639,758.7,639C758.7,639,758.7,639,758.7,639 M758.7,869
	c-79.4,0-143.8-64.4-143.8-143.8l0,0c0-79.4,64.4-143.8,143.8-143.8l0,0c79.4,0,143.8,64.4,143.8,143.8l0,0
	C902.5,804.6,838.1,869,758.7,869L758.7,869 M758.7,509.6c-143.8,0-266.5,89.4-316.3,215.7c49.7,126.2,172.5,215.7,316.3,215.7
	s266.5-89.4,316.3-215.7C1025.3,599,902.5,509.6,758.7,509.6z"/>
</svg>
