<?xml version="1.0" encoding="utf-8"?>
<!-- Generator: Adobe Illustrator 24.1.1, SVG Export Plug-In . SVG Version: 6.00 Build 0)  -->
<svg version="1.1" id="Capa_1" xmlns="http://www.w3.org/2000/svg" xmlns:xlink="http://www.w3.org/1999/xlink" x="0px" y="0px"
	 viewBox="0 0 1080 1080" style="enable-background:new 0 0 1080 1080;" xml:space="preserve">
<style type="text/css">
	.st0{fill:#42A5F5;}
	.st1{fill:#BBDEFB;}
</style>
<path class="st0" d="M885.6,256.4H520.7L418.5,144.3c-9.7-14.6-29.2-19.5-43.8-19.5H97.4C43.9,124.8,5,168.7,5,222.3v584.8
	c0,53.6,38.9,97.5,92.4,97.5h793c48.6,0,92.4-43.9,92.4-97.5V353.9C978,300.3,939.1,256.4,885.6,256.4z M885.6,807.1H97.4V222.3H365
	l102.2,112.1c9.7,14.6,29.2,19.5,43.8,19.5h379.5v453.2H885.6z"/>
<path class="st1" d="M590.9,388.8l43.6,498.6L833,955.2l198.5-67.8l43.6-498.6C1075,388.8,590.9,388.8,590.9,388.8z M987.9,490.5
	l-4.8,58.1l-145.2,62.9l0,0h140.4l-14.5,183.9l-125.9,38.7L712,795.4l-9.7-92h62.9l4.8,48.4l67.8,14.5l67.8-19.4l4.8-77.4H702.3l0,0
	l0,0l-9.7-58.1L833,553.4l9.7-4.8H687.8l-9.7-58.1H987.9z"/>
</svg>
