<?xml version="1.0" encoding="utf-8"?>
<!-- Generator: Adobe Illustrator 24.1.1, SVG Export Plug-In . SVG Version: 6.00 Build 0)  -->
<svg version="1.1" id="Capa_1" xmlns="http://www.w3.org/2000/svg" xmlns:xlink="http://www.w3.org/1999/xlink" x="0px" y="0px"
	 viewBox="0 0 1080 1080" style="enable-background:new 0 0 1080 1080;" xml:space="preserve">
<style type="text/css">
	.st0{fill:#FF7043;}
	.st1{fill:#FFCCBC;}
</style>
<path class="st0" d="M877.4,235.6H515.9l-101.2-111c-9.6-14.5-28.9-19.3-43.4-19.3H96.6c-53,0-91.6,43.5-91.6,96.6v579.4
	c0,53.1,38.6,96.6,91.6,96.6h785.6c48.2,0,91.6-43.5,91.6-96.6v-449C969,279.1,930.4,235.6,877.4,235.6z M877.4,781.2H96.6V201.8
	h265.1l101.2,111c9.6,14.5,28.9,19.3,43.4,19.3h375.9v449H877.4z"/>
<g transform="matrix(.69978 0 0 .69978 8.6102 6.7292)">
	<path class="st1" d="M598,839.2l276.8-276.8l81.1,81.1c-14.3,38.2,4.8,85.9,43,105V1011c-28.6,14.3-47.7,47.7-47.7,81.1
		c0,52.5,43,95.5,95.5,95.5c52.5,0,95.5-43,95.5-95.5c0-33.4-19.1-66.8-47.7-81.1V781.9l100.2,100.2c-4.8,4.8-4.8,14.3-4.8,23.9
		c0,52.5,43,95.5,95.5,95.5c52.5,0,95.5-43,95.5-95.5s-43-95.5-95.5-95.5c-9.5,0-19.1,0-23.9,4.8l-124.1-124.1
		c14.3-43-9.5-90.7-52.5-109.8c-19.1-9.5-43-9.5-62-4.8l-81.1-81.1l38.2-38.2c38.2-38.2,95.5-38.2,133.6,0l381.8,381.8
		c38.2,38.2,38.2,95.5,0,133.6l-381.8,381.8c-38.2,38.2-95.5,38.2-133.6,0L598,972.8C559.8,934.6,559.8,877.4,598,839.2z"/>
</g>
</svg>
