<?xml version="1.0" encoding="utf-8"?>
<!-- Generator: Adobe Illustrator 24.1.1, SVG Export Plug-In . SVG Version: 6.00 Build 0)  -->
<svg version="1.1" id="Capa_1" xmlns="http://www.w3.org/2000/svg" xmlns:xlink="http://www.w3.org/1999/xlink" x="0px" y="0px"
	 viewBox="0 0 1080 1080" style="enable-background:new 0 0 1080 1080;" xml:space="preserve">
<style type="text/css">
	.st0{fill:#FFCA28;}
	.st1{fill:#FFECB3;}
</style>
<path class="st0" d="M885.6,237.5H520.7L418.5,125.4c-9.7-14.6-29.2-19.5-43.8-19.5H97.4C43.9,105.9,5,149.8,5,203.4v584.8
	c0,53.6,38.9,97.5,92.4,97.5h793c48.6,0,92.4-43.9,92.4-97.5V335C978,281.4,939.1,237.5,885.6,237.5z M885.6,788.2H97.4V203.4H365
	l102.2,112.1c9.7,14.6,29.2,19.5,43.8,19.5h379.5v453.2H885.6z"/>
<path class="st1" d="M794,342.9c-157.8,0-281,64.1-281,143s128.2,143,281,143s281-64.1,281-143S946.8,342.9,794,342.9 M512.9,550
	v103.5c0,78.9,128.2,143,281,143s281-64.1,281-143V550c0,78.9-128.2,143-281,143S512.9,628.9,512.9,550 M512.9,727.5v103.5
	c0,78.9,128.2,143,281,143s281-64.1,281-143V727.5c0,78.9-128.2,143-281,143S512.9,806.4,512.9,727.5z"/>
</svg>
