<?xml version="1.0" encoding="utf-8"?>
<!-- Generator: Adobe Illustrator 24.1.1, SVG Export Plug-In . SVG Version: 6.00 Build 0)  -->
<svg version="1.1" id="Capa_1" xmlns="http://www.w3.org/2000/svg" xmlns:xlink="http://www.w3.org/1999/xlink" x="0px" y="0px"
	 viewBox="0 0 1080 1080" style="enable-background:new 0 0 1080 1080;" xml:space="preserve">
<style type="text/css">
	.st0{fill:#1E88E5;}
	.st1{fill-rule:evenodd;clip-rule:evenodd;fill:#BBDEFB;}
</style>
<path class="st0" d="M885.6,268.4H520.8L418.5,156.2c-9.7-14.7-29.2-19.5-43.8-19.5H97.4C43.9,136.7,5,180.6,5,234.2v584.7
	c0,53.6,38.9,97.5,92.4,97.5h793c48.6,0,92.4-43.9,92.4-97.5V365.7C978,312.1,939.2,268.4,885.6,268.4z"/>
<path class="st1" d="M1060.9,447.5l-43.7-52.8c-9-10.8-22.4-17-36.5-17h-377c-14.8,0-27.6,6.6-36.2,17.3l-43.7,52.5
	c-9.4,11.3-14.5,25.5-14.5,40.2v392.8c0,34.6,28,62.9,62.9,62.9h439.9c34.6,0,62.9-28.3,62.9-62.9V487.7
	C1075,472.3,1069.6,458.5,1060.9,447.5L1060.9,447.5z M792.2,581.9L965,754.7h-110v62.9H729.3v-62.9h-110L792.2,581.9z M576.1,440.5
	l25.7-31.4h377.1l29.2,31.4H576.1z"/>
</svg>
