<?xml version="1.0" encoding="utf-8"?>
<!-- Generator: Adobe Illustrator 24.1.1, SVG Export Plug-In . SVG Version: 6.00 Build 0)  -->
<svg version="1.1" id="Capa_1" xmlns="http://www.w3.org/2000/svg" xmlns:xlink="http://www.w3.org/1999/xlink" x="0px" y="0px"
	 viewBox="0 0 1080 1080" style="enable-background:new 0 0 1080 1080;" xml:space="preserve">
<style type="text/css">
	.st0{fill:#42A5F5;}
	.st1{fill-rule:evenodd;clip-rule:evenodd;fill:#BBDEFB;}
</style>
<path class="st0" d="M880.7,227H515.8L413.7,113.9c-9.7-14.8-29.2-19.7-43.8-19.7H92.6C43.9,94.2,5,138.5,5,192.6v590.3
	c0,54.1,38.9,98.4,92.4,98.4h793c48.6,0,92.4-44.3,92.4-98.4V325.4C973.1,271.3,939.1,227,880.7,227z M880.7,782.9h-793V192.6h267.6
	l102.2,113.1c9.7,14.8,29.2,19.7,43.8,19.7h379.5V782.9z"/>
<path class="st1" d="M933.3,315.2L640.2,586.4L479,463.1l-68.4,39.4l161.2,147.9L410.6,798.4l68.4,39.4l161.2-123.3l293.1,271.2
	l141.7-69V384.2L933.3,315.2z M933.3,492.7v315.6L728.1,650.5L933.3,492.7z"/>
</svg>
