<?xml version="1.0" encoding="utf-8"?>
<!-- Generator: Adobe Illustrator 24.1.1, SVG Export Plug-In . SVG Version: 6.00 Build 0)  -->
<svg version="1.1" id="Capa_1" xmlns="http://www.w3.org/2000/svg" xmlns:xlink="http://www.w3.org/1999/xlink" x="0px" y="0px"
	 viewBox="0 0 1080 1080" style="enable-background:new 0 0 1080 1080;" xml:space="preserve">
<style type="text/css">
	.st0{fill:#26A69A;}
	.st1{fill:#B2DFDB;}
</style>
<path class="st0" d="M885.6,243.8H520.7L418.5,131.7c-9.7-14.6-29.2-19.5-43.8-19.5H97.4C43.9,112.2,5,156.1,5,209.7v584.8
	C5,848.1,43.9,892,97.4,892h793c48.6,0,92.4-43.9,92.4-97.5V341.3C978,287.7,939.1,243.8,885.6,243.8z M885.6,794.5H97.4V209.7H365
	l102.2,112.1c9.7,14.6,29.2,19.5,43.8,19.5h379.5v453.2H885.6z"/>
<path class="st1" d="M758,789.4L639.1,670.5l39.6-39.6l74.3,74.3L946.2,512l39.6,39.6 M812.5,318.8L549.9,437.7V616
	c0,163.5,113.9,317,262.5,351.7C966,933.1,1075,779.5,1075,616V437.7L812.5,318.8z"/>
</svg>
