<?xml version="1.0" encoding="utf-8"?>
<!-- Generator: Adobe Illustrator 24.1.1, SVG Export Plug-In . SVG Version: 6.00 Build 0)  -->
<svg version="1.1" id="Capa_1" xmlns="http://www.w3.org/2000/svg" xmlns:xlink="http://www.w3.org/1999/xlink" x="0px" y="0px"
	 viewBox="0 0 1080 1080" style="enable-background:new 0 0 1080 1080;" xml:space="preserve">
<style type="text/css">
	.st0{fill:#26A69A;}
	.st1{fill-rule:evenodd;clip-rule:evenodd;fill:#B2DFDB;}
</style>
<path class="st0" d="M880.7,250.6H515.8L413.7,138.5c-9.7-14.6-29.2-19.5-43.8-19.5H92.6C43.9,119,5,162.8,5,216.4v584.8
	c0,53.6,38.9,97.5,92.4,97.5h793c48.6,0,92.4-43.9,92.4-97.5V348C973.1,294.4,939.1,250.6,880.7,250.6z M880.7,801.2h-793V216.4
	h267.6l102.2,112.1c9.7,14.6,29.2,19.5,43.8,19.5h379.5V801.2z"/>
<path class="st1" d="M763.5,729.9c-25.1-70.3-90.4-120.6-165.8-120.6c-100.5,0-175.8,80.4-175.8,175.8
	c0,100.5,80.4,175.8,175.8,175.8c75.4,0,140.7-45.2,165.8-120.6h130.6V961h120.6V840.4h60.3V719.9L763.5,729.9z M597.7,850.5
	c-30.1,0-60.3-25.1-60.3-60.3c0-35.2,25.1-60.3,60.3-60.3S658,755,658,790.2C658,825.4,627.9,850.5,597.7,850.5z"/>
</svg>
