<?xml version="1.0" encoding="utf-8"?>
<!-- Generator: Adobe Illustrator 24.1.1, SVG Export Plug-In . SVG Version: 6.00 Build 0)  -->
<svg version="1.1" id="Capa_1" xmlns="http://www.w3.org/2000/svg" xmlns:xlink="http://www.w3.org/1999/xlink" x="0px" y="0px"
	 viewBox="0 0 1080 1080" style="enable-background:new 0 0 1080 1080;" xml:space="preserve">
<style type="text/css">
	.st0{fill:#5C6BC0;}
	.st1{fill-rule:evenodd;clip-rule:evenodd;fill:#C5CAE9;}
</style>
<path class="st0" d="M885.6,263.6H520.8L418.5,151.5c-9.7-14.7-29.2-19.5-43.8-19.5H97.4C43.9,132,5,175.9,5,229.5v584.7
	c0,53.6,38.9,97.5,92.4,97.5h793c48.6,0,92.4-43.9,92.4-97.5V361C978,307.4,939.2,263.6,885.6,263.6z"/>
<path class="st1" d="M952.7,810.5c-7.8-23.9-30.1-41.5-56.7-41.5h-29.8v-89.5c0-16.5-13.4-29.8-29.8-29.8l0,0h-179v-59.6h59.6
	c16.5,0,29.8-13.4,29.8-29.8c0,0,0,0,0,0v-59.7h59.7c32.9,0,59.6-26.7,59.6-59.6v-12.2c87.4,35.2,149.1,120.8,149.1,221
	C1015.4,711.8,991.5,768.2,952.7,810.5 M746.9,886.3c-117.8-14.6-208.8-114.8-208.8-236.5c0-18.5,2.4-36.4,6.3-53.4l142.9,142.9
	v29.8c0,32.9,26.7,59.6,59.6,59.6 M776.7,351.5c-164.7,0-298.3,133.5-298.3,298.3l0,0C478.5,814.5,612,948,776.7,948
	S1075,814.5,1075,649.8S941.5,351.5,776.7,351.5z"/>
</svg>
