<?xml version="1.0" encoding="utf-8"?>
<!-- Generator: Adobe Illustrator 24.1.1, SVG Export Plug-In . SVG Version: 6.00 Build 0)  -->
<svg version="1.1" id="Capa_1" xmlns="http://www.w3.org/2000/svg" xmlns:xlink="http://www.w3.org/1999/xlink" x="0px" y="0px"
	 viewBox="0 0 1080 1080" style="enable-background:new 0 0 1080 1080;" xml:space="preserve">
<style type="text/css">
	.st0{fill:#EC407A;}
	.st1{fill-rule:evenodd;clip-rule:evenodd;fill:#F8BBD0;}
</style>
<path class="st0" d="M885.6,268.6H520.7L418.6,156.5c-9.7-14.7-29.2-19.5-43.8-19.5H97.4C43.9,137,5,180.9,5,234.5v584.8
	c0,53.6,38.9,97.5,92.4,97.5h793c48.7,0,92.4-43.9,92.4-97.5V366C978,312.4,939.2,268.6,885.6,268.6z"/>
<g transform="matrix(1.417 0 0 1.417 -1.6462 -2.1101)">
	<path class="st1" d="M709.9,376c66.6,66.6,66.6,174.5,0,241c0,0,0,0,0,0c-46.7,46.7-113.5,60.4-172.2,42
		c-33.6,10.5-69.7,10.5-103.3,0c-58.7,18.4-125.5,4.6-172.2-42c-60.6-65.4-55.7-171,0-241c46.7-46.7,113.5-60.4,172.2-42
		c33.6-10.5,69.7-10.5,103.3,0C596.4,315.6,663.2,329.4,709.9,376 M365.5,617.1c-60.6-65.4-55.7-171,0-241
		c-25.3,3.6-49.4,15-68.9,34.4c-47.5,47.5-47.5,124.6,0,172.2c0,0,0,0,0,0C316.1,602.1,340.2,613.5,365.5,617.1 M468.8,617.1
		c-66.6-66.6-66.6-174.5,0-241c0,0,0,0,0,0c-25.3,3.6-49.4,15-68.9,34.4c-47.5,47.5-47.5,124.6,0,172.2c0,0,0,0,0,0
		C419.4,602.1,443.5,613.5,468.8,617.1 M675.4,410.5C656,391,631.9,379.7,606.6,376c64,66.1,62,173,0,241
		c25.3-3.6,49.4-15,68.9-34.4C723,535.1,723,458,675.4,410.5C675.5,410.5,675.5,410.5,675.4,410.5 M503.3,410.5
		c-48.2,46.9-50.5,122.7-3.7,170.9c0.8,0.8,1.6,1.7,3.7,1.2c10.3,10.3,21.9,18.4,34.4,24.1c12.6-5.7,24.1-13.8,34.4-24.1
		c47.5-47.5,47.5-124.6,0-172.2c0,0,0,0,0,0c-10.3-10.3-21.9-18.4-34.4-24.1C525.1,392.1,513.6,400.2,503.3,410.5z"/>
</g>
</svg>
