<?xml version="1.0" encoding="utf-8"?>
<!-- Generator: Adobe Illustrator 24.1.1, SVG Export Plug-In . SVG Version: 6.00 Build 0)  -->
<svg version="1.1" id="Capa_1" xmlns="http://www.w3.org/2000/svg" xmlns:xlink="http://www.w3.org/1999/xlink" x="0px" y="0px"
	 viewBox="0 0 1080 1080" style="enable-background:new 0 0 1080 1080;" xml:space="preserve">
<style type="text/css">
	.st0{fill:#FBC02D;}
	.st1{fill:#FFF9C4;}
</style>
<path class="st0" d="M885.6,264.8H520.7L418.5,152.7c-9.7-14.6-29.2-19.5-43.8-19.5H97.4C43.9,133.2,5,177,5,230.6v584.8
	c0,53.6,38.9,97.5,92.4,97.5h793c48.6,0,92.4-43.9,92.4-97.5V362.2C978,308.6,939.1,264.8,885.6,264.8z M885.6,815.4H97.4V230.6H365
	l102.2,112.1c9.7,14.6,29.2,19.5,43.8,19.5h379.5v453.2H885.6z"/>
<path class="st1" d="M1075,830.8L869.8,943.2c-14.7,4.9-29.3,4.9-44,0L625.6,830.8L992,459.5l9.8-4.9c9.8,0,14.7,4.9,14.7,9.8
	L1075,830.8 M777,469.3L650,679.4l53.7-337.1c0-9.8,4.9-9.8,14.7-9.8c4.9,0,9.8,0,9.8,4.9l58.6,112.4L777,469.3 M904,503.5
	L635.3,772.2l205.2-346.9c4.9-4.9,4.9-9.8,14.7-9.8s9.8,4.9,9.8,9.8L904,503.5z"/>
</svg>
