<?xml version="1.0" encoding="utf-8"?>
<!-- Generator: Adobe Illustrator 24.1.1, SVG Export Plug-In . SVG Version: 6.00 Build 0)  -->
<svg version="1.1" id="Capa_1" xmlns="http://www.w3.org/2000/svg" xmlns:xlink="http://www.w3.org/1999/xlink" x="0px" y="0px"
	 viewBox="0 0 1080 1080" style="enable-background:new 0 0 1080 1080;" xml:space="preserve">
<style type="text/css">
	.st0{fill:#8D6E63;}
	.st1{fill:#D7CCC8;}
</style>
<path class="st0" d="M880.7,260.5H515.8L413.7,148.4c-9.7-14.6-29.2-19.5-43.8-19.5H92.6C43.9,128.9,5,172.8,5,226.4v584.8
	c0,53.6,38.9,97.5,92.4,97.5h793c48.6,0,92.4-43.9,92.4-97.5V358C973.1,304.4,939.1,260.5,880.7,260.5z M880.7,811.2h-793V226.4
	h267.6l102.2,112.1c9.7,14.6,29.2,19.5,43.8,19.5h379.5V811.2z"/>
<path class="st1" d="M457.5,817.3h272.7v-66.9H457.5V817.3z M457.5,951.1h272.7v-66.9H457.5V951.1z M457.5,688.6h272.7v-66.9H457.5
	V688.6z M457.5,487.9v66.9h272.7v-66.9H457.5z M802.3,487.9H1075v463.1H802.3V487.9z"/>
</svg>
