<?xml version="1.0" encoding="utf-8"?>
<!-- Generator: Adobe Illustrator 27.0.0, SVG Export Plug-In . SVG Version: 6.00 Build 0)  -->
<svg version="1.1" id="Capa_1" xmlns="http://www.w3.org/2000/svg" xmlns:xlink="http://www.w3.org/1999/xlink" x="0px" y="0px"
	 viewBox="0 0 1080 1080" style="enable-background:new 0 0 1080 1080;" xml:space="preserve">
<style type="text/css">
	.st0{fill:#26A69A;}
	.st1{fill:#A7FFEB;}
</style>
<path class="st0" d="M398.96,126.93H103.49C49.32,126.93,5,171.25,5,225.42v590.94c0,54.17,44.32,98.49,98.49,98.49h787.93
	c54.17,0,98.49-44.32,98.49-98.49V323.91c0-54.17-44.32-98.49-98.49-98.49H497.45L398.96,126.93z"/>
<path class="st1" d="M898.61,534.23l-0.23-0.09c-0.14-0.05-0.28-0.09-0.37-0.23c-0.41-0.41-0.6-0.99-0.5-1.56l12.97-79.03
	l60.62,60.66l-63.04,26.8c-0.17,0.09-0.36,0.13-0.55,0.14h-0.28l-0.32-0.32C904.55,538,901.74,535.84,898.61,534.23L898.61,534.23z
	 M986.57,529.42l64.83,64.83c13.47,13.52,20.2,20.2,22.68,28.04c0.37,1.15,0.69,2.29,0.92,3.48l-154.99-65.61l-0.23-0.14
	c-0.64-0.23-1.33-0.5-1.33-1.15s0.73-0.96,1.33-1.19l0.23-0.09L986.57,529.42z M1072.34,646.57c-3.34,6.28-9.85,12.83-20.89,23.87
	l-73.12,73.08l-94.57-19.65l-0.5-0.14c-0.82-0.09-1.7-0.28-1.7-1.01c-0.74-7.88-4.7-15.11-10.95-19.98
	c-0.41-0.37-0.32-0.96-0.18-1.51l0.05-0.23l17.78-109.18l0.05-0.37c0.09-0.87,0.28-1.83,1.01-1.83c7.71-0.95,14.71-4.96,19.43-11.13
	c0.14-0.14,0.23-0.32,0.46-0.41c0.5-0.28,1.15,0,1.7,0.23L1072.34,646.57z M961.51,760.34L841.28,880.56l20.57-126.45l0.05-0.18
	l0.09-0.46c0.18-0.41,0.6-0.6,1.05-0.73l0.18-0.09c4.5-1.94,8.49-4.91,11.64-8.66c0.37-0.46,0.87-0.92,1.51-1.01
	c0.15-0.05,0.31-0.05,0.46,0l84.67,17.41L961.51,760.34z M815.86,906.03l-13.56,13.52L652.48,703.07l-0.14-0.23
	c-0.23-0.32-0.5-0.64-0.46-1.01c0.06-0.27,0.18-0.52,0.37-0.73l0.18-0.18c0.44-0.67,0.85-1.36,1.24-2.06l0.37-0.6l0.05-0.05
	c0.18-0.4,0.47-0.75,0.82-1.01c0.37-0.18,0.87-0.09,1.24,0l165.95,34.22c0.5,0.05,0.92,0.23,1.28,0.55
	c0.23,0.23,0.28,0.46,0.32,0.69c2.33,8.88,8.69,16.15,17.18,19.66c0.5,0.28,0.28,0.78,0.09,1.33c-0.13,0.23-0.22,0.48-0.28,0.73
	L815.86,906.03z M787.54,934.3c-9.99,9.9-15.85,15.12-22.54,17.23c-6.56,2.06-13.6,2.06-20.16,0c-7.79-2.47-14.52-9.21-27.99-22.68
	L566.39,778.39l39.31-60.94c0.18-0.28,0.37-0.55,0.64-0.78c0.46-0.32,1.05-0.18,1.56,0c9.02,2.72,18.7,2.23,27.4-1.37
	c0.46-0.18,0.87-0.28,1.24,0c0.17,0.17,0.32,0.36,0.46,0.55L787.54,934.3z M551.91,763.91l-34.55-34.5l68.18-29.09
	c0.17-0.09,0.36-0.14,0.55-0.14c0.55,0,0.92,0.6,1.19,1.1c0.68,1.06,1.41,2.08,2.2,3.07l0.18,0.28c0.23,0.28,0.09,0.6-0.14,0.82
	L551.91,763.91z M502.11,714.11l-43.66-43.66c-7.42-7.42-12.83-12.78-16.59-17.46l132.78,27.54l0.5,0.09
	c0.82,0.14,1.74,0.28,1.74,1.05c0,0.82-1.01,1.24-1.83,1.56l-0.41,0.14L502.11,714.11z M434.25,630.54c0.14-2.8,0.64-5.58,1.51-8.25
	c2.47-7.83,9.21-14.52,22.68-28.04l55.85-55.85c25.75,37.34,51.55,74.64,77.43,111.88c0.41,0.6,0.92,1.24,0.41,1.74
	c-2.55,2.67-4.76,5.64-6.6,8.84c-0.2,0.41-0.48,0.77-0.82,1.05c-0.23,0.14-0.46,0.05-0.73,0h-0.05L434.25,630.54z M529.28,523.42
	l75.14-75.09c7.06,3.07,32.76,13.93,55.71,23.64l38.26,16.22c0.5,0.23,0.96,0.41,1.19,0.92c0.07,0.33,0.07,0.68,0,1.01
	c-2.41,11,0.86,22.48,8.71,30.56c0.5,0.5,0,1.24-0.41,1.83l-0.23,0.37l-76.29,118.16c-0.18,0.33-0.43,0.61-0.73,0.82
	c-0.41,0.28-0.96,0.14-1.42,0.05c-2.96-0.77-6.01-1.19-9.07-1.24c-2.75,0-5.73,0.5-8.75,1.05c-0.37,0.05-0.64,0.09-0.92-0.09
	c-0.3-0.26-0.56-0.55-0.78-0.87L529.28,523.42z M619.58,433.17l97.27-97.27c13.47-13.47,20.2-20.2,27.99-22.68
	c6.56-2.06,13.6-2.06,20.16,0c7.79,2.47,14.57,9.21,27.99,22.68l21.12,21.08l-69.18,107.12c-0.18,0.31-0.41,0.59-0.69,0.82
	c-0.41,0.28-1.01,0.14-1.51,0c-11.07-3.38-23.1-1.07-32.12,6.19c-0.46,0.46-1.15,0.18-1.69-0.05
	C699.89,467.11,629.61,437.42,619.58,433.17L619.58,433.17z M828.77,371.63l63.87,63.87l-15.39,95.34v0.23
	c0,0.23-0.05,0.46-0.14,0.64c-0.14,0.37-0.5,0.41-0.82,0.5c-3.42,1.06-6.62,2.71-9.48,4.86c-0.18,0.18-0.37,0.37-0.69,0.41
	c-0.25-0.01-0.49-0.04-0.73-0.09l-97.31-41.37l-0.18-0.09c-0.6-0.23-1.37-0.55-1.37-1.19c-0.57-5.42-2.33-10.65-5.18-15.3
	c-0.46-0.78-0.96-1.56-0.6-2.34L828.77,371.63z M762.98,515.63l91.27,38.62c0.5,0.23,1.05,0.46,1.28,0.96
	c0.05,0.32,0.05,0.64,0,0.96c-0.32,1.45-0.49,2.92-0.5,4.4v2.57c0,0.64-0.69,0.92-1.28,1.15l-0.18,0.09
	c-14.43,6.14-202.92,86.5-203.2,86.5c-0.28,0-0.6,0-0.87-0.28c-0.5-0.5,0-1.19,0.46-1.83l0.23-0.32l75-116.1l0.09-0.23
	c0.46-0.69,0.96-1.47,1.74-1.47l0.78,0.09c12.87,1.88,25.68-3.76,32.99-14.52c0.16-0.26,0.36-0.49,0.6-0.69
	C761.79,515.23,762.47,515.4,762.98,515.63L762.98,515.63z M658.52,669.25l205.44-87.6c0,0,0.28,0,0.55,0.28
	c1.15,1.15,2.11,1.88,3.02,2.61l0.46,0.28c0.41,0.23,0.82,0.5,0.87,0.92l-0.05,0.41l-17.59,108.13l-0.09,0.41
	c-0.09,0.87-0.23,1.79-1.01,1.79c-9.53,0.64-18.13,5.96-22.95,14.2l-0.09,0.14c-0.23,0.37-0.46,0.73-0.82,0.92
	c-0.37,0.18-0.82,0.14-1.19,0.05l-163.84-33.81C661.09,677.92,658.71,669.3,658.52,669.25L658.52,669.25z"/>
</svg>
