<?xml version="1.0" encoding="utf-8"?>
<!-- Generator: Adobe Illustrator 24.1.1, SVG Export Plug-In . SVG Version: 6.00 Build 0)  -->
<svg version="1.1" id="Capa_1" xmlns="http://www.w3.org/2000/svg" xmlns:xlink="http://www.w3.org/1999/xlink" x="0px" y="0px"
	 viewBox="0 0 1080 1080" style="enable-background:new 0 0 1080 1080;" xml:space="preserve">
<style type="text/css">
	.st0{fill:#FFB300;}
	.st1{fill-rule:evenodd;clip-rule:evenodd;fill:#FFF9C4;}
</style>
<path class="st0" d="M885.6,263.6H520.8L418.5,151.4c-9.7-14.7-29.2-19.5-43.8-19.5H97.4C43.9,131.9,5,175.8,5,229.4v584.7
	c0,53.6,38.9,97.5,92.4,97.5h793c48.6,0,92.4-43.9,92.4-97.5V361C978,307.4,939.2,263.6,885.6,263.6z"/>
<path class="st1" d="M546.8,594.6h117.1l-83-83c-31.6,0-57.3-25.7-57.3-57.6c0-31.6,25.7-57.3,57.3-57.3c31.9,0,57.6,25.7,57.6,57.3
	l83,83V419.9c-22.2-22.5-22.2-58.9,0-81.1c22.2-22.5,58.6-22.5,80.8,0c22.2,22.2,22.2,58.6,0,81.1V537l83.3-83
	c0-31.6,25.4-57.3,57.3-57.3c31.6,0,57.3,25.7,57.3,57.3c0,31.9-25.7,57.6-57.3,57.6l-83,83H977c22.5-22.2,58.9-22.2,81.1,0
	c22.5,22.2,22.5,58.6,0,80.8c-22.2,22.2-58.6,22.2-81.1,0H859.9l83,83.3c31.6,0,57.3,25.4,57.3,57.3c0,31.6-25.7,57.3-57.3,57.3
	c0,0,0,0,0,0c-31.9,0-57.3-25.7-57.3-57.3l-83.3-83v117.1c22.2,22.5,22.2,58.9,0,81.1c-22.2,22.5-58.6,22.5-80.8,0
	c-22.2-22.2-22.2-58.6,0-81.1V733l-83,83c0,31.6-25.7,57.3-57.6,57.3c-31.6,0-57.3-25.7-57.3-57.3c0-31.9,25.7-57.3,57.3-57.3
	l83-83.3H546.8c-22.5,22.2-58.9,22.2-81.1,0c-22.5-22.2-22.5-58.6,0-80.8C487.9,572.4,524.2,572.4,546.8,594.6z"/>
</svg>
