<?xml version="1.0" encoding="utf-8"?>
<!-- Generator: Adobe Illustrator 24.1.1, SVG Export Plug-In . SVG Version: 6.00 Build 0)  -->
<svg version="1.1" id="Capa_1" xmlns="http://www.w3.org/2000/svg" xmlns:xlink="http://www.w3.org/1999/xlink" x="0px" y="0px"
	 viewBox="0 0 1080 1080" style="enable-background:new 0 0 1080 1080;" xml:space="preserve">
<style type="text/css">
	.st0{fill:#4CAF50;}
	.st1{fill:#C8E6C9;}
</style>
<path class="st0" d="M885.6,263.5H520.8L418.5,151.4c-9.7-14.7-29.2-19.5-43.8-19.5H97.4C43.9,131.9,5,175.7,5,229.3v584.7
	c0,53.6,38.9,97.5,92.4,97.5h793c48.6,0,92.4-43.9,92.4-97.5V360.9C978,307.3,939.2,263.5,885.6,263.5z"/>
<g>
	<g transform="matrix(.70678 0 0 .70678 2.0647 -.2245)">
		<path class="st1" d="M946.3,1341.8c-3.4,0-6.7-0.4-10-1.2c-25-7.3-40.4-33-35-58.5L1032,585.9c2.4-13.5,10.1-25.3,21.4-33
			c9.9-6.6,22.2-8.7,33.8-5.9c25,7.3,40.4,33,35.1,58.5l-131,696.3c-2.3,13.4-10,25.3-21.3,32.9
			C962.9,1339.3,954.7,1341.8,946.3,1341.8z"/>
	</g>
	<g transform="matrix(.70678 0 0 .70678 2.0647 -.2245)">
		<path class="st1" d="M1208.4,1243.2h-3.3c-12.8-1.2-24.6-7.8-32.2-18.2c-15.3-20.8-13.2-50,4.8-68.5l224.7-219.7l-223.8-204.5
			c-18.6-17.9-21.5-47-6.8-68.3c7.3-10.7,19-17.8,31.9-19.3c12.5-1.4,25,2.8,34.2,11.4l263.9,241.2c18.6,17.9,21.6,47,6.9,68.3
			c-2,2.8-4.3,5.5-6.9,7.9l-262.8,256.9C1230.9,1238.5,1219.9,1243.1,1208.4,1243.2z"/>
	</g>
	<g transform="matrix(.70678 0 0 .70678 2.0647 -.2245)">
		<path class="st1" d="M814.9,1243.3c-11.6-0.1-22.6-4.7-30.8-12.9l-263-257c-2.4-2.2-4.5-4.7-6.4-7.4
			c-14.8-21.2-11.9-50.3,6.8-68.2l263.9-241.2c9-8.6,21.4-12.8,33.8-11.5c13,1.5,24.7,8.5,32.1,19.3c14.7,21.3,11.9,50.4-6.8,68.4
			L620.8,937.1l224.8,219.6c18.2,18.4,20.3,47.7,4.8,68.5c-7.6,10.4-19.4,17.1-32.3,18.2H814.9z"/>
	</g>
</g>
</svg>
