<?xml version="1.0" encoding="utf-8"?>
<!-- Generator: Adobe Illustrator 24.1.1, SVG Export Plug-In . SVG Version: 6.00 Build 0)  -->
<svg version="1.1" id="Capa_1" xmlns="http://www.w3.org/2000/svg" xmlns:xlink="http://www.w3.org/1999/xlink" x="0px" y="0px"
	 viewBox="0 0 1080 1080" style="enable-background:new 0 0 1080 1080;" xml:space="preserve">
<style type="text/css">
	.st0{fill:#F44336;}
	.st1{fill-rule:evenodd;clip-rule:evenodd;fill:#FFCDD2;}
</style>
<path class="st0" d="M885.6,251.1H520.8L418.5,138.9c-9.7-14.7-29.2-19.5-43.8-19.5H97.4C43.9,119.4,5,163.3,5,216.9v584.7
	c0,53.6,38.9,97.5,92.4,97.5h793c48.6,0,92.4-43.9,92.4-97.5V348.5C978,294.9,939.2,251.1,885.6,251.1z"/>
<g transform="translate(.027858 .028)">
	<path class="st1" d="M1074.9,324.5c0,0,0.1,139.1,0.1,147.9c0,1.2-0.4,2.4-1.2,3.4c-2.3,4.4-8,13-20.6,18.6
		c-8,3.6-45.8,25.7-165.7,42.1c-103.7,14.2-159.9,21.7-186.5,25.8c-23.7,3.7-21.7,7-21.7,7v-145c0-2.4,1.6-4.6,4.1-5.2
		c7.2-2,25.4-6.1,65.3-10.9c80.5-9.5,178.1-24.6,254.5-43.3C1075.4,347.3,1074.9,324.5,1074.9,324.5z"/>
	<path class="st1" d="M1074.9,523.9c0,0,0.1,139.1,0.1,147.9c0,1.2-0.4,2.4-1.2,3.3c-2.3,4.4-8,13-20.6,18.6
		c-8,3.6-45.8,25.7-165.7,42.1c-103.7,14.2-159.9,21.7-186.5,25.8c-23.7,3.7-21.7,7-21.7,7v-145c0-2.5,1.6-4.6,4.1-5.2
		c7.2-2,25.4-6.1,65.3-10.9c80.5-9.5,178.1-24.6,254.5-43.3C1075.4,546.7,1074.9,523.9,1074.9,523.9z"/>
	<path class="st1" d="M1074.9,715.7c0,0,0.1,139.1,0.1,147.9c0,1.2-0.4,2.4-1.2,3.3c-2.3,4.4-8,13-20.6,18.6
		c-8,3.6-45.8,25.7-165.7,42.1c-103.7,14.3-159.9,21.7-186.5,25.8c-23.7,3.7-21.7,7-21.7,7v-145c0-2.4,1.6-4.6,4.1-5.2
		c7.2-2,25.4-6.1,65.3-10.9c80.5-9.5,178.1-24.6,254.5-43.3C1075.4,738.5,1074.9,715.7,1074.9,715.7z"/>
</g>
</svg>
