<?xml version="1.0" encoding="utf-8"?>
<!-- Generator: Adobe Illustrator 27.0.0, SVG Export Plug-In . SVG Version: 6.00 Build 0)  -->
<svg version="1.1" id="Capa_1" xmlns="http://www.w3.org/2000/svg" xmlns:xlink="http://www.w3.org/1999/xlink" x="0px" y="0px"
	 viewBox="0 0 1080 1080" style="enable-background:new 0 0 1080 1080;" xml:space="preserve">
<style type="text/css">
	.st0{fill:#4CAF50;}
	.st1{fill-rule:evenodd;clip-rule:evenodd;fill:#C8E6C9;}
	.st2{fill-rule:evenodd;clip-rule:evenodd;fill:#A5D6A7;}
</style>
<path class="st0" d="M895.21,210.8H499.56l-98.91-98.91H103.91C49.02,111.89,5,155.91,5,210.8v593.48
	c0,54.25,44.66,98.91,98.91,98.91h791.31c54.25,0,98.91-44.66,98.91-98.91V309.72C994.13,255.09,949.85,210.8,895.21,210.8z"/>
<path class="st1" d="M662.31,656.54v206.35L455.96,761.76V555.42C455.96,555.42,662.31,656.54,662.31,656.54z M870.7,761.76V555.42
	L1075,656.54L870.7,761.76z"/>
<path class="st2" d="M662.31,656.54v206.35l208.4-101.12V555.42L662.31,656.54z M870.7,761.76v206.35L1075,862.89V656.54
	L870.7,761.76z"/>
</svg>
