<?xml version="1.0" encoding="utf-8"?>
<!-- Generator: Adobe Illustrator 24.1.1, SVG Export Plug-In . SVG Version: 6.00 Build 0)  -->
<svg version="1.1" id="Capa_1" xmlns="http://www.w3.org/2000/svg" xmlns:xlink="http://www.w3.org/1999/xlink" x="0px" y="0px"
	 viewBox="0 0 1080 1080" style="enable-background:new 0 0 1080 1080;" xml:space="preserve">
<style type="text/css">
	.st0{fill:#FFA000;}
	.st1{fill-rule:evenodd;clip-rule:evenodd;fill:#FFECB3;}
</style>
<path class="st0" d="M885.6,272.8H520.8L418.5,160.7c-9.7-14.7-29.2-19.5-43.8-19.5H97.4C43.9,141.2,5,185.1,5,238.6v584.7
	c0,53.6,38.9,97.5,92.4,97.5h793c48.6,0,92.4-43.9,92.4-97.5V370.2C978,316.6,939.2,272.8,885.6,272.8z"/>
<path class="st1" d="M1012.8,472.6H888.5v-62.2c0-17.1-6.9-32.7-18.4-43.8c-11.5-11.8-27.3-18.4-43.8-18.4H702
	c-34.2,0-62.2,28-62.2,62.2v62.2H515.5c-34.2,0-62.2,28-62.2,62.2v342c0,34.2,27.9,62.2,62.2,62.2h497.4c34.2,0,62.2-28,62.2-62.2
	V534.7C1075,500.5,1047,472.6,1012.8,472.6L1012.8,472.6z M702,410.4h124.3v62.2H702V410.4z M733,830l-31.1-31.1l93.3-93.3
	l-93.3-93.3l31.1-31.1l124.3,124.3L733,830z"/>
</svg>
