<?xml version="1.0" encoding="utf-8"?>
<!-- Generator: Adobe Illustrator 24.1.1, SVG Export Plug-In . SVG Version: 6.00 Build 0)  -->
<svg version="1.1" id="Capa_1" xmlns="http://www.w3.org/2000/svg" xmlns:xlink="http://www.w3.org/1999/xlink" x="0px" y="0px"
	 viewBox="0 0 1080 1080" style="enable-background:new 0 0 1080 1080;" xml:space="preserve">
<style type="text/css">
	.st0{fill:#009688;}
	.st1{fill-rule:evenodd;clip-rule:evenodd;fill:#41B883;}
	.st2{fill-rule:evenodd;clip-rule:evenodd;fill:#35495E;}
</style>
<path class="st0" d="M885.6,265.2H520.8L418.5,153c-9.7-14.7-29.2-19.5-43.8-19.5H97.4C43.9,133.5,5,177.4,5,231v584.7
	c0,53.6,38.9,97.5,92.4,97.5h793c48.6,0,92.4-43.9,92.4-97.5V362.6C978,309,939.2,265.2,885.6,265.2z"/>
<g transform="matrix(.69572 0 0 .69572 8.4585 6.3619)">
	<path class="st1" d="M546,499.7l493.6,851.6L1533,503.8v-4.1h-191.9l-298.7,513.1L745.1,499.8L546,499.7L546,499.7z"/>
	<path class="st2" d="M744.9,499.7l297.4,513.2l298.8-513.2h-180l-117.6,202l-117.1-202L744.9,499.7z"/>
</g>
</svg>
