<?xml version="1.0" encoding="utf-8"?>
<!-- Generator: Adobe Illustrator 24.1.1, SVG Export Plug-In . SVG Version: 6.00 Build 0)  -->
<svg version="1.1" id="Capa_1" xmlns="http://www.w3.org/2000/svg" xmlns:xlink="http://www.w3.org/1999/xlink" x="0px" y="0px"
	 viewBox="0 0 1080 1080" style="enable-background:new 0 0 1080 1080;" xml:space="preserve">
<style type="text/css">
	.st0{fill:#546E7A;}
	.st1{fill-rule:evenodd;clip-rule:evenodd;fill:#FBC02D;fill-opacity:0.976;}
</style>
<path class="st0" d="M885.6,255.4H520.7L418.5,143.3c-9.7-14.6-29.2-19.5-43.8-19.5H97.4C43.9,123.8,5,167.7,5,221.3v584.8
	c0,53.6,38.9,97.5,92.4,97.5h793c48.6,0,92.4-43.9,92.4-97.5V352.9C978,299.2,939.1,255.4,885.6,255.4z M885.6,806.1H97.4V221.3H365
	l102.2,112.1c9.7,14.6,29.2,19.5,43.8,19.5h379.5v453.2H885.6z"/>
<path class="st1" d="M535.2,387.2l189.6,189.6H574.1l150.7,150.7H535.2l228.6,228.6V465h111.8l48.6,48.6H812.4v184.8h53.5l58.4,58.4
	H807.5l0,0v194.5H1075l-97.3-97.3v-38.9l19.5,19.5V645h-38.9v-92.4l72.9,72.9V435.9H870.8l-58.4-58.4h-107H535.2V387.2z"/>
</svg>
