<?xml version="1.0" encoding="utf-8"?>
<!-- Generator: Adobe Illustrator 24.1.1, SVG Export Plug-In . SVG Version: 6.00 Build 0)  -->
<svg version="1.1" id="Capa_1" xmlns="http://www.w3.org/2000/svg" xmlns:xlink="http://www.w3.org/1999/xlink" x="0px" y="0px"
	 viewBox="0 0 1080 1080" style="enable-background:new 0 0 1080 1080;" xml:space="preserve">
<style type="text/css">
	.st0{fill:#AFB42B;}
	.st1{fill-rule:evenodd;clip-rule:evenodd;fill:#F0F4C3;}
</style>
<path class="st0" d="M880.7,264.3H515.8L413.7,152.2c-9.7-14.6-29.2-19.5-43.8-19.5H92.6C43.9,132.7,5,176.6,5,230.2V815
	c0,53.6,38.9,97.5,92.4,97.5h793c48.6,0,92.4-43.9,92.4-97.5V361.8C973.1,308.2,939.1,264.3,880.7,264.3z M880.7,815h-793V230.2
	h267.6l102.2,112.1c9.7,14.6,29.2,19.5,43.8,19.5h379.5V815z"/>
<path class="st1" d="M1017.7,466.3V891H593.1V466.3L1017.7,466.3 M1048.4,404.9H557.2c-15.3,0-25.6,10.2-25.6,25.6l0,0v491.2
	c0,10.2,10.2,25.6,25.6,25.6h491.2c10.2,0,25.6-15.3,25.6-25.6V430.5C1079.1,420.3,1063.8,404.9,1048.4,404.9z M777.2,527.7h179.1
	v61.4H777.2V527.7z M777.2,650.5h179.1v61.4H777.2V650.5z M777.2,768.2h179.1v61.4H777.2V768.2z M654.5,527.7h61.4v61.4h-61.4V527.7
	z M654.5,650.5h61.4v61.4h-61.4V650.5z M654.5,768.2h61.4v61.4h-61.4V768.2z"/>
</svg>
