<?xml version="1.0" encoding="utf-8"?>
<!-- Generator: Adobe Illustrator 24.1.1, SVG Export Plug-In . SVG Version: 6.00 Build 0)  -->
<svg version="1.1" id="Capa_1" xmlns="http://www.w3.org/2000/svg" xmlns:xlink="http://www.w3.org/1999/xlink" x="0px" y="0px"
	 viewBox="0 0 1080 1080" style="enable-background:new 0 0 1080 1080;" xml:space="preserve">
<style type="text/css">
	.st0{fill:#4CAF50;}
	.st1{fill:#C8E6C9;}
</style>
<path class="st0" d="M885.6,252.8H520.7L418.5,140.7c-9.7-14.6-29.2-19.5-43.8-19.5H97.4C43.9,121.2,5,165.1,5,218.7v584.8
	c0,53.6,38.9,97.5,92.4,97.5h793c48.6,0,92.4-43.9,92.4-97.5V350.3C978,296.7,939.1,252.8,885.6,252.8z M885.6,803.5H97.4V218.7H365
	l102.2,112.1c9.7,14.6,29.2,19.5,43.8,19.5h379.5v453.2H885.6z"/>
<path class="st1" d="M545,958.8h530v-77.2H545 M1075,542H925.8V315.5H699.3V542H550.1l262.5,262.5L1075,542z"/>
</svg>
