<?xml version="1.0" encoding="utf-8"?>
<!-- Generator: Adobe Illustrator 27.0.0, SVG Export Plug-In . SVG Version: 6.00 Build 0)  -->
<svg version="1.1" id="Capa_1" xmlns="http://www.w3.org/2000/svg" xmlns:xlink="http://www.w3.org/1999/xlink" x="0px" y="0px"
	 viewBox="0 0 1080 1080" style="enable-background:new 0 0 1080 1080;" xml:space="preserve">
<style type="text/css">
	.st0{fill:#FF4081;}
	.st1{fill:#FFCDD2;}
</style>
<path class="st0" d="M968.51,214.28H569.32L457.48,91.64c-10.6-15.95-31.89-21.3-47.94-21.3h-303.4C47.6,70.33,5,118.27,5,176.93
	v639.88c0,58.65,42.6,106.6,101.14,106.6h867.73c53.19,0,101.14-47.94,101.14-106.6V320.99
	C1069.65,262.34,1027.17,214.28,968.51,214.28L968.51,214.28z M968.51,816.82H106.14V176.93h292.8l111.84,122.65
	c10.6,15.95,31.89,21.3,47.94,21.3h415.23v495.95h-5.46L968.51,816.82z"/>
<path class="st1" d="M881.26,540.55c0,20.94,142.75,11.02,162.04-3.86c0-144.41-77.71-220.47-219.92-220.47
	c-141.65,0-221.02,77.16-221.02,192.91c0,201.18,271.73,205.03,271.73,314.72c0,30.87-15.43,49.61-48.5,49.61
	c-43.54,0-60.63-22.05-58.42-97.56c0-16.54-165.35-21.5-170.31,0c-12.68,181.89,100.86,234.8,230.94,234.8
	c125.12,0,224.33-67.24,224.33-188.5c0-216.06-275.58-210-275.58-316.92c0-43.54,31.97-49.61,51.26-49.61
	c19.84,0,56.22,3.86,52.91,84.88H881.26z M197.81,203.24l5.51-133.93h104.72l4.41,129.52c0,4.57-3.7,8.27-8.27,8.27
	c-1.79,0-3.53-0.58-4.96-1.65l-40.24-31.97l-47.95,36.38c-3.65,2.74-8.83,2-11.57-1.65C198.39,206.77,197.81,205.02,197.81,203.24z"
	/>
</svg>
