<?xml version="1.0" encoding="utf-8"?>
<!-- Generator: Adobe Illustrator 24.1.1, SVG Export Plug-In . SVG Version: 6.00 Build 0)  -->
<svg version="1.1" id="Capa_1" xmlns="http://www.w3.org/2000/svg" xmlns:xlink="http://www.w3.org/1999/xlink" x="0px" y="0px"
	 viewBox="0 0 1080 1080" style="enable-background:new 0 0 1080 1080;" xml:space="preserve">
<style type="text/css">
	.st0{fill:#F06292;}
	.st1{fill-rule:evenodd;clip-rule:evenodd;fill:url(#SVGID_1_);}
	.st2{fill-rule:evenodd;clip-rule:evenodd;fill:url(#SVGID_2_);}
	.st3{fill-rule:evenodd;clip-rule:evenodd;fill:url(#SVGID_3_);}
	.st4{fill-rule:evenodd;clip-rule:evenodd;fill:url(#SVGID_4_);}
	.st5{fill-rule:evenodd;clip-rule:evenodd;fill:url(#SVGID_5_);}
	.st6{fill-rule:evenodd;clip-rule:evenodd;fill:url(#SVGID_6_);}
	.st7{fill-rule:evenodd;clip-rule:evenodd;fill:url(#SVGID_7_);}
	.st8{fill-rule:evenodd;clip-rule:evenodd;fill:#714896;}
	.st9{fill-rule:evenodd;clip-rule:evenodd;fill:#6F4795;}
	.st10{fill-rule:evenodd;clip-rule:evenodd;fill:#88519F;}
	.st11{fill-rule:evenodd;clip-rule:evenodd;fill:#85509E;}
	.st12{fill-rule:evenodd;clip-rule:evenodd;fill:#8D166A;}
	.st13{fill-rule:evenodd;clip-rule:evenodd;fill:#A70D6F;}
	.st14{fill-rule:evenodd;clip-rule:evenodd;fill:#9E61AD;}
	.st15{fill-rule:evenodd;clip-rule:evenodd;fill:#8053A3;}
	.st16{fill-rule:evenodd;clip-rule:evenodd;fill:url(#SVGID_8_);}
</style>
<path class="st0" d="M885.6,242H520.7L418.5,129.9c-9.7-14.6-29.2-19.5-43.8-19.5H97.4C43.9,110.4,5,154.3,5,207.9v584.8
	c0,53.6,38.9,97.5,92.4,97.5h793c48.6,0,92.4-43.9,92.4-97.5V339.5C978,285.9,939.1,242,885.6,242z M885.6,792.7H97.4V207.9H365
	L467.2,320c9.7,14.6,29.2,19.5,43.8,19.5h379.5v453.2H885.6z"/>
<g id="Main-Navigation" transform="translate(-150.2 -137.06)">
	<g id="Main-Navigation---Home" transform="translate(-7.4835 -32.744)">
		<g id="Icon" transform="matrix(.31022 .061897 -.061897 .31022 169.49 177.35)">
			<g id="Group" transform="rotate(-11.284 17.839 -78.732)">
				
					<linearGradient id="SVGID_1_" gradientUnits="userSpaceOnUse" x1="23912.0566" y1="14168.7227" x2="26434.7676" y2="16484.8984" gradientTransform="matrix(9.588107e-02 0 0 0.1044 -1137.2308 -1449.0457)">
					<stop  offset="0" style="stop-color:#C06FBB"/>
					<stop  offset="1" style="stop-color:#6E4D9B"/>
				</linearGradient>
				<path class="st1" d="M2642.6,1407.3l-191,127.3l-195.9-293.9l191-127.3L2642.6,1407.3z"/>
			</g>
			<g transform="rotate(-11.284 129.49 -99.884)">
				
					<linearGradient id="SVGID_2_" gradientUnits="userSpaceOnUse" x1="42115.582" y1="41619.2344" x2="40757" y2="39764.1992" gradientTransform="matrix(9.629230e-02 0 0 0.104 -1134.1992 -1454.9402)">
					<stop  offset="0" style="stop-color:#6E4D9B"/>
					<stop  offset="0.14" style="stop-color:#77327A"/>
					<stop  offset="0.29" style="stop-color:#B31777"/>
					<stop  offset="0.84" style="stop-color:#CD0F7E"/>
					<stop  offset="1" style="stop-color:#ED2C89"/>
				</linearGradient>
				<path class="st2" d="M2796.4,2269.4l323.3,484.9l-386.9,259.6L2409.5,2529l-58.8-88.2l386.9-254.7L2796.4,2269.4z"/>
			</g>
			<g transform="rotate(-11.284 167.2 -62.32)">
				
					<linearGradient id="SVGID_3_" gradientUnits="userSpaceOnUse" x1="12412.9258" y1="17146.4082" x2="14730.6689" y2="20372.2852" gradientTransform="matrix(0.1044 0 0 9.594433e-02 -1093.4105 -1472.4124)">
					<stop  offset="0" style="stop-color:#C06FBB"/>
					<stop  offset="1" style="stop-color:#6E4D9B"/>
				</linearGradient>
				<path class="st3" d="M2315.7,2588.6l73.5,107.8l-293.9,195.9l-132.2-191l63.7-44.1l230.2-151.8L2315.7,2588.6z"/>
			</g>
			<g transform="rotate(-11.284 104.37 -149.22)">
				
					<linearGradient id="SVGID_4_" gradientUnits="userSpaceOnUse" x1="16428.6055" y1="15767.0176" x2="19372.3496" y2="18181.7852" gradientTransform="matrix(9.996179e-02 0 0 0.1002 -1109.8105 -1461.8113)">
					<stop  offset="0" style="stop-color:#C06FBB"/>
					<stop  offset="1" style="stop-color:#6E4D9B"/>
				</linearGradient>
				<path class="st4" d="M2944.9,2040.2l83.3-53.9l127.3,191l-186.1,127.3l-73.5-107.8l107.8-73.5L2944.9,2040.2z M2896,2196.9
					l-58.8-83.3l107.8-73.5l58.8,83.3L2896,2196.9z"/>
			</g>
			<g transform="rotate(-11.284 81.819 7.6453)">
				
					<linearGradient id="SVGID_5_" gradientUnits="userSpaceOnUse" x1="15328.8496" y1="22657.3125" x2="18073.0078" y2="25075.4043" gradientTransform="matrix(0.1001 0 0 0.1 -1121.6833 -1460.3953)">
					<stop  offset="0" style="stop-color:#C06FBB"/>
					<stop  offset="1" style="stop-color:#6E4D9B"/>
				</linearGradient>
				<path class="st5" d="M1640.1,2079.7l-63.7,39.2L1380.5,1825l293.9-195.9l137.1,205.7l-230.2,156.7l230.2-151.8l58.8,83.3
					L1640.1,2079.7z"/>
			</g>
			<g transform="rotate(-11.284 17.141 -7.8246)">
				
					<linearGradient id="SVGID_6_" gradientUnits="userSpaceOnUse" x1="43957.918" y1="43866.0039" x2="42595.9609" y2="42002.8398" gradientTransform="matrix(9.632394e-02 0 0 0.1039 -1140.3948 -1449.6553)">
					<stop  offset="0" style="stop-color:#6E4D9B"/>
					<stop  offset="0.14" style="stop-color:#77327A"/>
					<stop  offset="0.29" style="stop-color:#B31777"/>
					<stop  offset="0.84" style="stop-color:#CD0F7E"/>
					<stop  offset="1" style="stop-color:#ED2C89"/>
				</linearGradient>
				<path class="st6" d="M2295.9,1521.1l58.8,88.2l-386.9,259.6l-58.8-88.2l-318.4-480l386.9-259.6L2295.9,1521.1z"/>
			</g>
			<g transform="rotate(-11.284 18.188 -79.174)">
				
					<linearGradient id="SVGID_7_" gradientUnits="userSpaceOnUse" x1="24956.0625" y1="12775.252" x2="27478.6797" y2="15568.293" gradientTransform="matrix(9.588107e-02 0 0 0.1044 -1137.1719 -1449.063)">
					<stop  offset="0" style="stop-color:#C06FBB"/>
					<stop  offset="1" style="stop-color:#6E4D9B"/>
				</linearGradient>
				<path class="st7" d="M2558.3,1464.9l-107.8,68.6l-58.8-88.2l-137.1-205.7l191-127.3l195.9,293.9L2558.3,1464.9z"/>
			</g>
			<g transform="rotate(-11.284 166.49 -69.536)">
				<path class="st8" d="M2085.4,2740.5l-58.8-83.3l230.2-151.8l58.8,83.3L2085.4,2740.5z"/>
			</g>
			<g transform="rotate(-11.284 109.99 -149.77)">
				<path class="st9" d="M2895.9,2196.3l-58.8-83.3l107.8-73.5l58.8,83.3L2895.9,2196.3z"/>
			</g>
			<g transform="rotate(-11.284 100.61 -15.26)">
				<path class="st10" d="M1636.9,2071.6l-58.8-88.2l230.2-151.8l58.8,88.2L1636.9,2071.6z"/>
			</g>
			<g transform="rotate(-11.284 43.301 -95.418)">
				<path class="st11" d="M2447.5,1529.6l-58.8-88.2l107.8-73.5l58.8,88.2L2447.5,1529.6z"/>
			</g>
			<g transform="rotate(-11.284 129.49 -99.884)">
				<path class="st12" d="M2796.4,2269.4L2409.5,2529l-58.8-88.2l386.9-254.7L2796.4,2269.4z"/>
			</g>
			<g transform="rotate(-11.284 63.604 -45.609)">
				<path class="st13" d="M2289.2,1512.4l58.8,88.2L1961,1860.1l-58.8-88.2L2289.2,1512.4z"/>
			</g>
			<g transform="rotate(45 -13.019 8.751)">
				
					<rect id="Rectangle-path" x="2049.6" y="-470.6" transform="matrix(1.076619e-05 1 -1 1.076619e-05 1711.1857 -2520.1489)" class="st14" width="132.2" height="132.2"/>
			</g>
			<g transform="rotate(45 -36.276 36.979)">
				
					<rect x="3334.1" y="-78.3" transform="matrix(1.076619e-05 1 -1 1.076619e-05 3388.0134 -3412.3074)" class="st15" width="132.2" height="132.2"/>
			</g>
			<g transform="translate(1.8225 1.5477)">
				
					<linearGradient id="SVGID_8_" gradientUnits="userSpaceOnUse" x1="35870.1289" y1="35109.4648" x2="37350.9219" y2="33645.1992" gradientTransform="matrix(0.1003 0 0 9.986754e-02 -1478.6919 -1094.4003)">
					<stop  offset="0" style="stop-color:#6E4D9B"/>
					<stop  offset="0.14" style="stop-color:#77327A"/>
					<stop  offset="0.53" style="stop-color:#B31777"/>
					<stop  offset="0.79" style="stop-color:#CD0F7E"/>
					<stop  offset="1" style="stop-color:#ED2C89"/>
				</linearGradient>
				<path class="st16" d="M2167.3,2502.4L1755.9,2091L3210.6,631.4l421.2,401.6L2167.3,2502.4z"/>
			</g>
		</g>
	</g>
</g>
</svg>
