<?xml version="1.0" encoding="utf-8"?>
<!-- Generator: Adobe Illustrator 24.1.1, SVG Export Plug-In . SVG Version: 6.00 Build 0)  -->
<svg version="1.1" id="Capa_1" xmlns="http://www.w3.org/2000/svg" xmlns:xlink="http://www.w3.org/1999/xlink" x="0px" y="0px"
	 viewBox="0 0 1080 1080" style="enable-background:new 0 0 1080 1080;" xml:space="preserve">
<style type="text/css">
	.st0{fill:#8BC34A;}
	.st1{fill:#DCEDC8;}
</style>
<path class="st0" d="M885.6,248.1H520.8L418.5,136c-9.7-14.7-29.2-19.5-43.8-19.5H97.4C43.9,116.5,5,160.4,5,214v584.7
	c0,53.6,38.9,97.5,92.4,97.5h793c48.6,0,92.4-43.9,92.4-97.5V345.5C978,291.9,939.2,248.1,885.6,248.1z"/>
<path class="st1" d="M778.6,963.5c-10,0-20.1,0-25.1-5L668,908.3c-10-5-5-10,0-10c15.1-5,20.1-5,35.2-15.1h5l65.3,40.2c0,0,5,0,10,0
	l251.2-145.7l5-5V486.2c0-5,0-5-5-5L783.6,335.5c0,0-5,0-10,0L522.3,481.2l-5,5v286.4c0,5,0,5,5,5l70.3,40.2
	c35.2,20.1,60.3-5,60.3-25.1V501.3c0-5,5-5,5-5h30.1c5,0,5,5,5,5v286.4c0,50.2-25.1,75.4-75.4,75.4c-15.1,0-25.1,0-55.3-15.1
	l-65.3-35.2c-15.1-10-25.1-25.1-25.1-45.2V481.2c0-20.1,10-35.2,25.1-45.2l251.2-145.7c15.1-10,35.2-10,50.2,0L1049.9,436
	c15.1,10,25.1,25.1,25.1,45.2v286.4c0,20.1-10,35.2-25.1,45.2L798.7,958.5C798.7,958.5,788.6,963.5,778.6,963.5z M979.5,677.2
	c0-55.3-35.2-70.3-110.5-80.4c-75.4-10-85.4-15.1-85.4-35.2c0-15.1,5-35.2,65.3-35.2c50.2,0,70.3,10,75.4,45.2c0,5,5,5,5,5h30.1h5
	v-5c-5-60.3-45.2-85.4-125.6-85.4c-70.3,0-115.6,30.1-115.6,80.4c0,55.3,40.2,70.3,110.5,75.4c80.4,10,90.4,20.1,90.4,35.2
	c0,30.1-20.1,40.2-75.4,40.2c-65.3,0-80.4-15.1-85.4-50.2c0-5-5-5-5-5h-30.1c-5,0-5,5-5,5c0,40.2,25.1,90.4,130.6,90.4
	C934.3,762.6,979.5,732.4,979.5,677.2L979.5,677.2z"/>
</svg>
