<?xml version="1.0" encoding="utf-8"?>
<!-- Generator: Adobe Illustrator 24.1.1, SVG Export Plug-In . SVG Version: 6.00 Build 0)  -->
<svg version="1.1" id="Capa_1" xmlns="http://www.w3.org/2000/svg" xmlns:xlink="http://www.w3.org/1999/xlink" x="0px" y="0px"
	 viewBox="0 0 1080 1080" style="enable-background:new 0 0 1080 1080;" xml:space="preserve">
<style type="text/css">
	.st0{fill:#FFB300;}
	.st1{fill:#FFF9C4;}
</style>
<path class="st0" d="M880.7,242.2H515.8L413.7,130.1c-9.7-14.6-29.2-19.5-43.8-19.5H92.6C43.9,110.6,5,154.5,5,208.1v584.8
	c0,53.6,38.9,97.5,92.4,97.5h793c48.6,0,92.4-43.9,92.4-97.5V339.7C973.1,286.1,939.1,242.2,880.7,242.2z M880.7,792.9h-793V208.1
	h267.6l102.2,112.1c9.7,14.6,29.2,19.5,43.8,19.5h379.5V792.9z"/>
<path class="st1" d="M543.1,607.1h116.3l-82.4-82.4c-29.1,0-58.2-24.2-58.2-58.2c0-29.1,24.2-58.2,58.2-58.2
	c33.9,0,58.2,24.2,58.2,58.2l82.4,82.4V432.7c-24.2-19.4-24.2-58.2,0-77.5c24.2-24.2,58.2-24.2,82.4,0c24.2,24.2,24.2,58.2,0,82.4
	v116.3l82.4-82.4c0-29.1,24.2-58.2,58.2-58.2c29.1,0,58.2,24.2,58.2,58.2s-24.2,58.2-58.2,58.2L858.1,612h116.3
	c24.2-24.2,58.2-24.2,82.4,0c24.2,24.2,24.2,58.2,0,82.4c-24.2,24.2-58.2,24.2-82.4,0H858.1l82.4,82.4c29.1,0,58.2,24.2,58.2,58.2
	c0,29.1-24.2,58.2-58.2,58.2l0,0c-33.9,0-58.2-24.2-58.2-58.2L800,752.5v116.3c24.2,24.2,24.2,58.2,0,82.4
	c-24.2,24.2-58.2,24.2-82.4,0c-24.2-24.2-24.2-58.2,0-82.4V752.5l-82.4,82.4c0,29.1-24.2,58.2-58.2,58.2
	c-29.1,0-58.2-24.2-58.2-58.2c0-33.9,24.2-58.2,58.2-58.2l82.4-82.4H543.1c-24.2,24.2-58.2,24.2-82.4,0c-24.2-24.2-24.2-58.2,0-82.4
	C485,587.7,518.9,587.7,543.1,607.1z"/>
</svg>
