<?xml version="1.0" encoding="utf-8"?>
<!-- Generator: Adobe Illustrator 24.1.1, SVG Export Plug-In . SVG Version: 6.00 Build 0)  -->
<svg version="1.1" id="Capa_1" xmlns="http://www.w3.org/2000/svg" xmlns:xlink="http://www.w3.org/1999/xlink" x="0px" y="0px"
	 viewBox="0 0 1080 1080" style="enable-background:new 0 0 1080 1080;" xml:space="preserve">
<style type="text/css">
	.st0{fill:#5C6BC0;}
	.st1{fill:#C5CAE9;}
</style>
<path class="st0" d="M880.7,255.8H515.8L413.7,143.7c-9.7-14.6-29.2-19.5-43.8-19.5H92.6C43.9,124.2,5,168.1,5,221.7v584.8
	c0,53.6,38.9,97.5,92.4,97.5h793c48.6,0,92.4-43.9,92.4-97.5V353.3C973.1,299.7,939.1,255.8,880.7,255.8z M880.7,806.5h-793V221.7
	h267.6l102.2,112.1c9.7,14.6,29.2,19.5,43.8,19.5h379.5V806.5z"/>
<path class="st1" d="M520.4,622h44.2V499.4c0-34.4,29.4-58.9,58.9-58.9h122.7v-44.2c0-39.3,34.4-73.6,73.6-73.6l0,0
	c39.3,0,73.6,34.4,73.6,73.6v44.2h122.7c34.4,0,58.9,29.4,58.9,58.9v112.9h-44.2c-44.2,0-83.4,34.4-83.4,83.4
	c0,44.2,34.4,83.4,83.4,83.4h44.2V892c0,34.4-29.4,58.9-58.9,58.9H903.2v-44.2c0-44.2-34.4-83.4-83.4-83.4
	c-44.2,0-83.4,34.4-83.4,83.4v49.1H623.5c-34.4,0-58.9-29.4-58.9-58.9V774.2h-44.2c-39.3,0-73.6-34.4-73.6-73.6l0,0
	C441.9,656.4,476.2,622,520.4,622z"/>
</svg>
