<?xml version="1.0" encoding="utf-8"?>
<!-- Generator: Adobe Illustrator 27.0.0, SVG Export Plug-In . SVG Version: 6.00 Build 0)  -->
<svg version="1.1" id="Capa_1" xmlns="http://www.w3.org/2000/svg" xmlns:xlink="http://www.w3.org/1999/xlink" x="0px" y="0px"
	 viewBox="0 0 1080 1080" style="enable-background:new 0 0 1080 1080;" xml:space="preserve">
<style type="text/css">
	.st0{fill:#546E7A;}
	.st1{fill-rule:evenodd;clip-rule:evenodd;fill:#CFD8DC;}
</style>
<path class="st0" d="M886.97,261.85h-365.4L419.19,149.59c-9.7-14.6-29.19-19.5-43.88-19.5H97.58C43.99,130.09,5,173.97,5,227.67
	V813.4c0,53.68,38.99,97.58,92.58,97.58h794.29c48.68,0,92.58-43.88,92.58-97.58V359.53C979.55,305.84,940.66,261.85,886.97,261.85
	L886.97,261.85z M886.97,813.4H97.58V227.67H365.6l102.38,112.27c9.7,14.6,29.19,19.5,43.88,19.5h380.09v453.98h-5L886.97,813.4z"/>
<path class="st1" d="M775.18,350.33c-165.58,0-299.82,134.23-299.82,299.82l0,0c0.03,165.56,134.25,299.77,299.82,299.77
	c165.58,0,299.82-134.23,299.82-299.82c-0.03-34.69-6.23-69.1-18.29-101.62l-47.98,47.98c4.19,17.68,6.29,35.68,6.29,53.65
	c0,132.46-107.38,239.83-239.83,239.83S535.35,782.55,535.35,650.1l0,0c0-132.46,107.38-239.83,239.83-239.83l0,0
	c18.01,0,35.97,2.14,53.65,6.34l48.31-48.26C844.44,356.53,809.95,350.44,775.18,350.33 M985.06,350.33L865.14,470.25v44.97
	l-76.51,76.42c-4.48-1.48-8.96-1.48-13.48-1.48c-33.1,0-59.93,26.83-59.93,59.93c0,0.02,0,0.03,0,0.05
	c0,33.1,26.83,59.93,59.93,59.93c0,0,0,0,0,0c33.1,0.03,59.96-26.78,59.98-59.88c0-0.02,0-0.03,0-0.05c0-4.53,0-9.05-1.52-13.53
	l76.46-76.42h44.97l119.92-119.92h-89.95v-89.95 M775.14,470.25c-99.32,0.03-179.82,80.53-179.85,179.85
	c0,99.34,80.51,179.87,179.85,179.9c99.36,0,179.9-80.54,179.9-179.9h-59.98c0,66.23-53.69,119.92-119.92,119.92
	S655.22,716.33,655.22,650.1s53.69-119.92,119.92-119.92V470.25z"/>
</svg>
