<?xml version="1.0" encoding="utf-8"?>
<!-- Generator: Adobe Illustrator 24.1.1, SVG Export Plug-In . SVG Version: 6.00 Build 0)  -->
<svg version="1.1" id="Capa_1" xmlns="http://www.w3.org/2000/svg" xmlns:xlink="http://www.w3.org/1999/xlink" x="0px" y="0px"
	 viewBox="0 0 1080 1080" style="enable-background:new 0 0 1080 1080;" xml:space="preserve">
<style type="text/css">
	.st0{fill:#43A047;}
	.st1{fill:#C8E6C9;}
</style>
<path class="st0" d="M885.6,232.6H520.7L418.5,120.5c-9.7-14.6-29.2-19.5-43.8-19.5H97.4C43.9,101,5,144.9,5,198.5v584.8
	c0,53.6,38.9,97.5,92.4,97.5h793c48.6,0,92.4-43.9,92.4-97.5V330C978,276.4,939.1,232.6,885.6,232.6z M885.6,783.3H97.4V198.5H365
	l102.2,112.1c9.7,14.6,29.2,19.5,43.8,19.5h379.5v453.2H885.6z"/>
<path class="st1" d="M798.9,303.5L522.8,426.8v182.4c0,167.6,118.3,330.4,276.1,369.8C956.7,939.6,1075,781.8,1075,609.2V426.8
	L798.9,303.5 M798.9,485.9c44.4,0,83.8,34.5,83.8,78.9v44.4c19.7,0,34.5,19.7,34.5,39.4v108.5c0,19.7-19.7,34.5-39.4,34.5H710.1
	c-19.7,0-34.5-19.7-34.5-39.4V643.7c0-19.7,19.7-34.5,34.5-34.5v-44.4C710.1,520.4,754.5,485.9,798.9,485.9 M798.9,525.4
	c-24.7,0-44.4,14.8-44.4,39.4v44.4h93.7v-44.4C843.3,540.2,823.5,525.4,798.9,525.4z"/>
</svg>
