<?xml version="1.0" encoding="utf-8"?>
<!-- Generator: Adobe Illustrator 24.1.1, SVG Export Plug-In . SVG Version: 6.00 Build 0)  -->
<svg version="1.1" id="Capa_1" xmlns="http://www.w3.org/2000/svg" xmlns:xlink="http://www.w3.org/1999/xlink" x="0px" y="0px"
	 viewBox="0 0 1080 1080" style="enable-background:new 0 0 1080 1080;" xml:space="preserve">
<style type="text/css">
	.st0{fill:#00BCD4;}
	.st1{fill-rule:evenodd;clip-rule:evenodd;fill:#B2EBF2;}
</style>
<path class="st0" d="M885.6,262.7H520.8L418.5,150.5c-9.7-14.7-29.2-19.5-43.8-19.5H97.4C43.9,131,5,174.9,5,228.5v584.7
	c0,53.6,38.9,97.5,92.4,97.5h793c48.6,0,92.4-43.9,92.4-97.5V360.1C978,306.5,939.2,262.7,885.6,262.7z"/>
<path class="st1" d="M776,306.2L476.9,412.8l45.3,395.8L775.9,949l253.7-140.4l45.3-395.8L776,306.2z M713.8,406.6
	c11.4-0.2,23.7,3.4,37.4,10.8c6,3.2,24.2,7.8,40.4,10.2c57.5,8.3,125.7,52.2,147.3,94.8c14.8,29.3,11.8,45.1-11,56.9
	c-19.6,10.2-59.8,5.2-118.1-14.5l-49.2-16.6l-17.5,6.7c-25.4,9.7-50.7,33.7-61.1,57.9c-7.5,17.4-8.6,25.6-7.3,54.2
	c1.4,28.7,3.4,37,13.6,55c11.6,20.5,38.2,46.7,42.8,42.1c1.2-1.2-1.5-9.6-6-18.5c-4.5-8.9-7.2-17.9-5.9-19.9
	c1.3-2,13.2,5.6,26.6,16.9c29.7,25.2,64.5,41.2,96.3,44.6c26.2,2.7,32.1-2.1,12.5-10.3c-6.3-2.6-14.5-8.1-18.2-12.2
	c-7.6-8.4-8-8.2,24.5-15.5c20.3-4.5,60.3-25.8,62.7-33.3c0.8-2.4-5.8-3.4-16.4-2.5c-9.7,0.8-17.6-0.2-17.6-2.2c0-2,7.9-11.8,17.6-22
	c36.4-38,48.8-66.3,52.7-120.3l2.7-37.2l8.5,17.7c9.4,19.5,11.2,47.7,4.5,71.9c-5.6,20.2-1.9,22.4,8.4,5
	c12.7-21.5,16.7-18.1,14.5,12.2c-2.4,33-13.7,57.7-39.3,85.6c-20.8,22.8-18.3,26.9,6.9,11.3c24.3-15,27.5-12.6,15,10.9
	c-23.7,44.4-73.7,82.1-125.6,94.7c-31.5,7.6-53.8,9.1-82.6,5.3C697.4,836.6,626,785.8,592,717.8c-8.8-17.7-21.4-39.3-27.8-48.1
	c-13.3-18.1-14.5-26.3-5.5-40c4.5-6.9,5.5-13.9,3.7-24.4c-8.6-48.5-8.3-50.1,11.2-69.8c16.9-17.2,18-19.5,18-39.5
	c0-17.4,1.8-23.1,9.6-30.9c5.3-5.3,13.7-9.7,18.7-9.7c14.4-0.1,39.2-13.5,53.9-28.9C686.1,413.4,699.2,406.9,713.8,406.6
	L713.8,406.6z"/>
</svg>
