<?xml version="1.0" encoding="utf-8"?>
<!-- Generator: Adobe Illustrator 27.0.0, SVG Export Plug-In . SVG Version: 6.00 Build 0)  -->
<svg version="1.1" id="Capa_1" xmlns="http://www.w3.org/2000/svg" xmlns:xlink="http://www.w3.org/1999/xlink" x="0px" y="0px"
	 viewBox="0 0 1080 1080" style="enable-background:new 0 0 1080 1080;" xml:space="preserve">
<style type="text/css">
	.st0{fill:#607D8B;}
	.st1{fill:#CFD8DC;}
</style>
<path class="st0" d="M886.83,261.93H521.48L419.12,149.68c-9.7-14.6-29.19-19.5-43.88-19.5H97.56C43.99,130.19,5,174.06,5,227.75
	v585.64c0,53.68,38.99,97.56,92.56,97.56h794.16c48.68,0,92.56-43.88,92.56-97.56v-453.8C979.39,305.91,940.51,261.93,886.83,261.93
	L886.83,261.93z M886.83,813.39H97.56V227.75h267.98L467.91,340c9.7,14.6,29.19,19.5,43.88,19.5h380.03v453.91h-5L886.83,813.39z"/>
<path class="st1" d="M808.07,350.72c32.98,13.24,46.03,65.18,28.8,116.48c-17.08,51-57.4,82.12-90.58,69.17
	c-32.84-12.8-46.13-64.84-29.14-116.28c16.79-51.2,57.6-82.02,90.93-69.32 M992.59,457.3c27.91,22.65,21.42,73.25-14.03,113.72
	c-36.33,40.27-87.78,54.94-115.59,32.69c-28.01-22.35-21.22-72.86,14.67-112.98C913.47,450.17,964.92,435.49,992.59,457.3
	 M601.45,389.76c36.73,4.33,63.51,50.41,61.29,102.5c-3.94,52.09-35.4,91.08-71.88,86.84c-36.43-4.18-63.06-49.82-60.06-102.1
	C533.81,424.66,565.91,385.77,601.45,389.76 M1066.04,657.97c21.22,28.8,3.54,76.06-40.22,104.81
	c-43.81,28.75-96.64,28.55-118.5-0.98c-21.86-29.49-3.84-76.21,39.33-105.65C990.62,628.23,1043.89,628.33,1066.04,657.97
	 M862.27,911.31c-12.95,24.86-47.01,40.96-75.03,38.2c-58.44-5.51-87.83-80.93-139.17-110.62
	c-51.35-29.64-132.92-15.85-165.12-65.03c-18.51-27.57-16.94-71.38,2.46-97.33c26.88-35.74,85.02-29.74,128.59-42.09
	c57.4-15.36,122.68-68.87,174.57-38.89c51.64,29.78,40.07,112.93,53.32,170.48C852.38,814.03,884.77,868.18,862.27,911.31z"/>
</svg>
