<?xml version="1.0" encoding="utf-8"?>
<!-- Generator: Adobe Illustrator 24.1.1, SVG Export Plug-In . SVG Version: 6.00 Build 0)  -->
<svg version="1.1" id="Capa_1" xmlns="http://www.w3.org/2000/svg" xmlns:xlink="http://www.w3.org/1999/xlink" x="0px" y="0px"
	 viewBox="0 0 1080 1080" style="enable-background:new 0 0 1080 1080;" xml:space="preserve">
<style type="text/css">
	.st0{fill:#009688;}
	.st1{fill:#41B883;}
	.st2{fill:#35495E;}
</style>
<path class="st0" d="M880.7,262.4H515.8L413.7,150.4c-9.7-14.6-29.2-19.5-43.8-19.5H92.6C43.9,130.9,5,174.7,5,228.3v584.8
	c0,53.6,38.9,97.5,92.4,97.5h793c48.6,0,92.4-43.9,92.4-97.5V359.9C973.1,306.3,939.1,262.4,880.7,262.4z M880.7,813.1h-793V228.3
	h267.6l102.2,112.1c9.7,14.6,29.2,19.5,43.8,19.5h379.5V813.1z"/>
<g transform="matrix(.73408 0 0 .73408 12.08 9.0017)">
	<path class="st1" d="M680.5,1275.8l306-621.7l77.7,150.6V965l-150.6,310.9H680.5z M1448,1275.8L1142,659l-77.7,150.6v160.3
		l150.6,310.9H1448V1275.8z"/>
	<path class="st2" d="M680.5,498.7l194.3,388.6l116.6-233.1l-82.6-155.4H680.5z M1448,498.7l-189.4,388.6L1142,654.1l77.7-155.4
		H1448z"/>
</g>
</svg>
