<?xml version="1.0" encoding="utf-8"?>
<!-- Generator: Adobe Illustrator 24.1.1, SVG Export Plug-In . SVG Version: 6.00 Build 0)  -->
<svg version="1.1" id="Capa_1" xmlns="http://www.w3.org/2000/svg" xmlns:xlink="http://www.w3.org/1999/xlink" x="0px" y="0px"
	 viewBox="0 0 1080 1080" style="enable-background:new 0 0 1080 1080;" xml:space="preserve">
<style type="text/css">
	.st0{fill:#757575;}
	.st1{fill-rule:evenodd;clip-rule:evenodd;fill:#BDBDBD;}
</style>
<path class="st0" d="M885.6,256.9H520.8L418.5,144.7c-9.7-14.7-29.2-19.5-43.8-19.5H97.4C43.9,125.2,5,169.1,5,222.7v584.7
	c0,53.6,38.9,97.5,92.4,97.5h793c48.6,0,92.4-43.9,92.4-97.5V354.3C978,300.7,939.2,256.9,885.6,256.9z"/>
<path class="st1" d="M944.4,366.9H552.4c-36.3,0-65.3,29.4-65.3,65.3v457.3c0,35.9,29.1,65.3,65.3,65.3h457.3
	c35.9,0,65.3-29.4,65.3-65.3V497.6L944.4,366.9z M781.1,889.5c-54,0.1-97.9-43.7-97.9-97.7c0-0.1,0-0.2,0-0.3
	c0-54.2,43.8-98,97.9-98c54.2,0,98,43.8,98,98C879.1,845.7,835.3,889.5,781.1,889.5z M879.1,562.8H552.4V432.2h326.6V562.8z"/>
</svg>
