<?xml version="1.0" encoding="utf-8"?>
<!-- Generator: Adobe Illustrator 24.1.1, SVG Export Plug-In . SVG Version: 6.00 Build 0)  -->
<svg version="1.1" id="Capa_1" xmlns="http://www.w3.org/2000/svg" xmlns:xlink="http://www.w3.org/1999/xlink" x="0px" y="0px"
	 viewBox="0 0 1080 1080" style="enable-background:new 0 0 1080 1080;" xml:space="preserve">
<style type="text/css">
	.st0{fill:#EF5350;}
	.st1{fill:#FFCDD2;}
</style>
<path class="st0" d="M885.6,237.4H520.7L418.5,124.3c-9.7-14.8-29.2-19.7-43.8-19.7H97.4C43.9,104.6,5,148.9,5,203v590.3
	c0,54.1,38.9,98.4,92.4,98.4h793c48.6,0,92.4-44.3,92.4-98.4V335.8C978,281.7,939.1,237.4,885.6,237.4z M885.6,793.3H97.4V203H365
	l102.2,113.1c9.7,14.8,29.2,19.7,43.8,19.7h379.5v457.4H885.6z"/>
<path class="st1" d="M602.2,332.4c-34.8,0-69.7,30.1-69.7,65.3l0,0v512.4c0,35.2,29.9,65.3,69.7,65.3l0,0h403.1
	c34.8,0,69.7-30.1,69.7-65.3l0,0V397.7c0-35.2-29.9-65.3-69.7-65.3l0,0H602.2z M602.2,558.4h403.1v160.8H602.2L602.2,558.4z
	 M602.2,779.4h403.1V905H602.2L602.2,779.4L602.2,779.4z"/>
</svg>
