<?xml version="1.0" encoding="utf-8"?>
<!-- Generator: Adobe Illustrator 24.1.1, SVG Export Plug-In . SVG Version: 6.00 Build 0)  -->
<svg version="1.1" id="Capa_1" xmlns="http://www.w3.org/2000/svg" xmlns:xlink="http://www.w3.org/1999/xlink" x="0px" y="0px"
	 viewBox="0 0 1080 1080" style="enable-background:new 0 0 1080 1080;" xml:space="preserve">
<style type="text/css">
	.st0{fill:#FF5252;}
	.st1{fill:#FFCDD2;}
</style>
<path class="st0" d="M885.6,258H520.7L418.5,144.9c-9.7-14.8-29.2-19.7-43.8-19.7H97.4C43.9,125.2,5,169.5,5,223.6v590.3
	c0,54.1,38.9,98.4,92.4,98.4h793c48.6,0,92.4-44.3,92.4-98.4V356.4C978,302.3,939.1,258,885.6,258z M885.6,813.8H97.4V223.6H365
	l102.2,113.1c9.7,14.8,29.2,19.7,43.8,19.7h379.5v457.4H885.6z"/>
<path class="st1" d="M683.1,736.7l105.5-278.9l105.5,278.9 M743.4,341.2L502.2,954.8h100.5L653,823h271.3l50.2,131.8H1075
	L833.8,341.2H743.4z"/>
</svg>
