<?xml version="1.0" encoding="utf-8"?>
<!-- Generator: Adobe Illustrator 24.1.1, SVG Export Plug-In . SVG Version: 6.00 Build 0)  -->
<svg version="1.1" id="Capa_1" xmlns="http://www.w3.org/2000/svg" xmlns:xlink="http://www.w3.org/1999/xlink" x="0px" y="0px"
	 viewBox="0 0 1080 1080" style="enable-background:new 0 0 1080 1080;" xml:space="preserve">
<style type="text/css">
	.st0{fill:#FFA726;}
	.st1{fill:#FFE0B2;}
</style>
<path class="st0" d="M880.7,261.7H515.8L413.7,149.6c-9.7-14.6-29.2-19.5-43.8-19.5H92.6C43.9,130.1,5,174,5,227.6v584.8
	c0,53.6,38.9,97.5,92.4,97.5h793c48.6,0,92.4-43.9,92.4-97.5V359.2C973.1,305.6,939.1,261.7,880.7,261.7z M880.7,812.4h-793V227.6
	h267.6l102.2,112.1c9.7,14.6,29.2,19.5,43.8,19.5h379.5V812.4z"/>
<path class="st1" d="M1075,588.4v-58.6h-58.6v-58.6c0-34.2-24.4-58.6-58.6-58.6H547.4c-34.2,0-58.6,29.3-58.6,58.6v420.1
	c0,34.2,24.4,58.6,58.6,58.6h410.4c34.2,0,58.6-24.4,58.6-58.6v-58.6h58.6V774h-58.6v-58.6h58.6v-58.6h-58.6v-58.6L1075,588.4z
	 M957.8,886.4H547.4V471.1h410.4V886.4z M606,710.5h146.6v117.2H606V710.5z M781.9,529.7h117.2v87.9H781.9V529.7z M606,529.7h146.6
	v151.4H606V529.7z M781.9,647h117.2v180.8H781.9V647z"/>
</svg>
