<?xml version="1.0" encoding="utf-8"?>
<!-- Generator: Adobe Illustrator 24.1.1, SVG Export Plug-In . SVG Version: 6.00 Build 0)  -->
<svg version="1.1" id="Capa_1" xmlns="http://www.w3.org/2000/svg" xmlns:xlink="http://www.w3.org/1999/xlink" x="0px" y="0px"
	 viewBox="0 0 1080 1080" style="enable-background:new 0 0 1080 1080;" xml:space="preserve">
<style type="text/css">
	.st0{fill:#616161;}
	.st1{fill:#E8E8E8;}
	.st2{fill:#FFD180;}
</style>
<path class="st0" d="M880.7,241.4H515.8L413.7,129.3c-9.7-14.6-29.2-19.5-43.8-19.5H92.6C43.9,109.8,5,153.6,5,207.2V792
	c0,53.6,38.9,97.5,92.4,97.5h793c48.6,0,92.4-43.9,92.4-97.5V338.8C973.1,285.2,939.1,241.4,880.7,241.4z M880.7,792h-793V207.2
	h267.6l102.2,112.1c9.7,14.6,29.2,19.5,43.8,19.5h379.5V792z"/>
<g>
	<path class="st1" d="M443.9,479.9H360v54.2V968c0,0,83.8,0,83.8,0V775.7c143,9.9,202.1-24.7,207.1-147.9
		C650.9,509.5,581.9,479.9,443.9,479.9z M443.9,711.6V544c93.7-4.9,138.1,19.7,138.1,83.8S537.5,716.6,443.9,711.6z"/>
	<path class="st2" d="M1075,568.7L887.6,756L695.3,578.5V968c0,0,384.6,4.9,379.6,0V568.7z"/>
	<path class="st2" d="M1074.6,475.3c-13.7,4.6-379.3,4.6-379.3,4.6l192.3,182.4L1074.6,475.3z"/>
</g>
</svg>
