<?xml version="1.0" encoding="utf-8"?>
<!-- Generator: Adobe Illustrator 24.1.1, SVG Export Plug-In . SVG Version: 6.00 Build 0)  -->
<svg version="1.1" id="Capa_1" xmlns="http://www.w3.org/2000/svg" xmlns:xlink="http://www.w3.org/1999/xlink" x="0px" y="0px"
	 viewBox="0 0 1080 1080" style="enable-background:new 0 0 1080 1080;" xml:space="preserve">
<style type="text/css">
	.st0{fill:#8D6E63;}
	.st1{fill:#543729;}
	.st2{fill:#00ACEE;}
	.st3{fill:#2BAF2B;}
	.st4{fill:#FFCC2F;}
	.st5{fill:#CECECE;}
	.st6{fill:#EF5734;}
	.st7{fill:#FFFFFF;}
</style>
<path class="st0" d="M883.1,235.3H519.2L417.4,123.6c-9.7-14.6-29.1-19.4-43.7-19.4H97.2C43.8,104.1,5,147.9,5,201.3v583.1
	c0,53.5,38.8,97.2,92.2,97.2h790.8c48.5,0,92.2-43.7,92.2-97.2V332.5C975.3,279.1,936.5,235.3,883.1,235.3z M883.1,784.5H97.2V201.3
	H364l101.9,111.8c9.7,14.6,29.1,19.4,43.7,19.4h378.4v451.9H883.1z"/>
<g transform="matrix(.033264 0 0 .033264 8.7499 8.6323)">
	<path id="outline" class="st1" d="M31639.6,19324.5c-1113.8-1070.4-6697.2-1740.6-8457.1-1938.3c86.8-202.5,159.1-409.8,217-622
		c241.1-106.1,501.4-202.5,766.6-284.5c33.8,96.4,188,462.9,274.8,641.3c3539,96.4,3722.3-2632.6,3866.9-3379.9
		c139.8-732.9,135-1436.8,1350-2729c-1808.1-525.6-4411.7,819.7-5284.5,2820.6c-327.9-120.5-655.7-212.1-978.8-270
		c-231.4-940.2-1441.7-3553.5-4623.9-3553.5c-4021.2,0-8408.8,3322.1-8408.8,8939.2c0,4725.1,3225.6,8862.1,5048.2,8862.1
		c795.6,0,1480.2-597.9,1639.3-1128.3c135,366.4,549.7,1504.3,684.7,1793.6c202.5,429.1,1128.3,800.4,1533.3,356.8
		c520.7,289.3,1480.2,462.9,2001-308.6c1007.7,212.2,1894.9-385.7,1914.2-1104.1c491.8-24.1,737.7-718.4,626.8-1272.9
		c-77.1-405-925.7-1866-1258.4-2367.4c655.7,535.2,2314.4,684.7,2516.9,0c1055.9,829.3,2704.9,395.4,2835.1-279.7
		c1282.5,332.7,2757.9-400.2,2512-1287.4C32483.4,22072.8,32218.2,19879,31639.6,19324.5L31639.6,19324.5z"/>
	<g id="leaf" transform="matrix(.97265 0 0 .97265 6.324 6.9029)">
		<path class="st2" d="M26621.9,15047.4c458-906.5,1031.8-1894.9,1755.1-2507.2c-795.6,323-1586.3,1282.5-2049.2,2309.5
			c-236.3-149.5-477.3-284.5-723.2-405c650.9-1388.6,2160.1-2545.8,3823.5-2637.4c-1113.8,1012.5-718.4,3109.9-1634.5,4223.7
			C27528.4,15770.7,26925.7,15264.4,26621.9,15047.4z M25898.7,16522.9c0-33.8,14.5-303.8,38.6-424.3
			c-62.7-14.5-462.9-91.6-670.2-86.8c-14.5,260.4,110.9,704,231.4,969.1c848.6-19.3,1456.1-270,1817.7-506.3
			c-308.6-144.6-829.3-270-1224.7-347.2C26048.1,16223.9,25937.2,16455.3,25898.7,16522.9z"/>
	</g>
	<g>
		<path id="wingtip" class="st3" d="M22136.2,23051.6C22136.2,23051.6,22141.1,23051.6,22136.2,23051.6
			c-101.3-221.8-212.1-491.8-347.2-848.6c515.9,752.2,2131.1,361.6,2044.3-308.6c790.7,593.1,2415.6-101.3,2049.2-935.4
			c790.7,371.3,1697.2-371.3,1494.7-699.1c1350,260.4,2642.2,520.7,3052.1,622c-270,438.8-882.3,752.2-1808.1,535.2
			c501.4,679.8-472.5,1499.5-1822.6,1051.1c298.9,670.2-906.5,1272.9-2275.8,573.8C24532.6,23712.2,22816.1,23789.3,22136.2,23051.6
			L22136.2,23051.6z M24817,19666.9c1567,120.5,4156.2,352,5761.8,578.6c-101.3-520.7-376.1-670.2-1248.8-906.5
			C28394.7,19440.2,26017.6,19671.7,24817,19666.9L24817,19666.9z"/>
		<path id="body" class="st4" d="M23838.3,21894.4c790.7,593.1,2415.6-101.3,2049.2-935.4c790.7,371.3,1697.2-371.3,1494.7-699.1
			c-1595.9-308.6-3269-617.2-3649.9-670.2c231.4,14.5,612.3,38.6,1089.7,77.1c1200.6,4.8,3577.6-226.6,4513-327.9
			c-1518.8-385.7-4614.3-945-6750.2-1084.9c-101.3,144.6-279.7,390.5-597.9,650.9c-935.4,1981.7-2632.6,3293.1-4508.2,3293.1
			c-544.8,0-1157.2-91.6-1841.8-313.4c-429.1,458-2251.7,805.2-3727.1,77.1c1171.6,2748.3,3891,4580.5,6904.5,4580.5
			c2536.2,0,3659.6-2589.2,3413.7-3273.9c-57.9-168.8-294.1-718.4-429.1-1075.2C22305,22950.4,23920.2,22564.6,23838.3,21894.4
			L23838.3,21894.4z"/>
		<path id="beak" class="st5" d="M22300.2,16682.3c221.8-120.5,998.1-593.1,1735.8-766.6c-9.6-82-19.3-163.9-24.1-245.9
			c-482.2,115.7-1393.4,506.3-1919-33.8c1104.1,332.7,1653.8-294.1,2463.8-294.1c482.2,0,1171.6,135,1716.5,347.2
			c-438.8-405-1870.8-1620.1-3645.1-1624.9C22232.7,14541.5,21803.6,15583,22300.2,16682.3L22300.2,16682.3z"/>
		<path id="head" class="st6" d="M15631.9,21889.6c684.7,217,1297,313.4,1841.8,313.4c1875.6,0,3572.8-1316.3,4508.2-3293.1
			c-694.3,578.6-1894.9,1070.4-3770.5,1070.4c1673.1-380.9,3114.7-1215,3847.6-2430.1c-515.9-819.7-1075.2-2632.6,342.3-4064.6
			c-217-699.1-1277.7-2545.8-3621-2545.8c-4093.5,0-7483.1,3423.3-7483.1,8008.6c0,1084.9,217,2102.2,612.3,3023.1
			C13380.3,22694.8,15202.8,22347.7,15631.9,21889.6L15631.9,21889.6z"/>
		<path id="eye_rim" class="st4" d="M16856.6,14908c0,1041.5,843.8,1890.1,1890.1,1890.1s1890.1-843.8,1890.1-1890.1
			c0-1041.5-843.8-1890.1-1890.1-1890.1S16856.6,13861.7,16856.6,14908z"/>
		<path id="eye" class="st1" d="M17618.4,14908c0,626.8,506.3,1133.1,1133.1,1133.1c626.8,0,1133.1-506.3,1133.1-1133.1
			s-506.3-1133.1-1133.1-1133.1C18124.7,13774.9,17618.4,14281.1,17618.4,14908z"/>
		<ellipse id="pupil_highlight" class="st7" cx="18746.7" cy="14401.7" rx="660.6" ry="409.8"/>
	</g>
</g>
</svg>
