<?xml version="1.0" encoding="utf-8"?>
<!-- Generator: Adobe Illustrator 24.1.1, SVG Export Plug-In . SVG Version: 6.00 Build 0)  -->
<svg version="1.1" id="Capa_1" xmlns="http://www.w3.org/2000/svg" xmlns:xlink="http://www.w3.org/1999/xlink" x="0px" y="0px"
	 viewBox="0 0 1080 1080" style="enable-background:new 0 0 1080 1080;" xml:space="preserve">
<style type="text/css">
	.st0{fill:#EF5350;}
	.st1{fill:#FFCDD2;}
</style>
<path class="st0" d="M885.6,260.7H520.8L418.5,148.6c-9.7-14.7-29.2-19.5-43.8-19.5H97.4C43.9,129,5,172.9,5,226.5v584.7
	c0,53.6,38.9,97.5,92.4,97.5h793c48.6,0,92.4-43.9,92.4-97.5V358.1C978,304.5,939.2,260.7,885.6,260.7z"/>
<path class="st1" d="M808.2,684.2h-59.3V506.3h59.3 M808.2,802.8h-59.3v-59.3h59.3 M778.6,358.1c-163.7,0-296.4,132.7-296.4,296.4
	S614.9,951,778.6,951S1075,818.3,1075,654.5S942.3,358.1,778.6,358.1z"/>
</svg>
