<?xml version="1.0" encoding="utf-8"?>
<!-- Generator: Adobe Illustrator 24.1.1, SVG Export Plug-In . SVG Version: 6.00 Build 0)  -->
<svg version="1.1" id="Capa_1" xmlns="http://www.w3.org/2000/svg" xmlns:xlink="http://www.w3.org/1999/xlink" x="0px" y="0px"
	 viewBox="0 0 1080 1080" style="enable-background:new 0 0 1080 1080;" xml:space="preserve">
<style type="text/css">
	.st0{fill:#546E7A;}
	.st1{fill:#CFD8DC;}
</style>
<path class="st0" d="M889,240.7H522.7L420.1,128.2c-9.8-14.7-29.3-19.6-44-19.6H97.8c-53.7,0-92.8,44-92.8,97.8v587.2
	c0,53.8,39.1,97.8,92.8,97.8h796.1c48.8,0,92.8-44,92.8-97.8v-455C981.8,284.8,942.7,240.7,889,240.7z M889,793.6H97.8V206.5h268.6
	L469,319c9.8,14.7,29.3,19.6,44,19.6h380.9v455H889z"/>
<path class="st1" d="M809.2,314.5L543.4,434.8v180.5c0,165.5,115.3,321,265.8,356.1C964.7,936.3,1075,780.8,1075,615.3V434.8
	L809.2,314.5 M809.2,434.8c50.2,0,90.3,40.1,90.3,90.3s-40.1,90.3-90.3,90.3s-90.3-40.2-90.3-90.3S764.1,434.8,809.2,434.8
	 M964.7,790.9c-35.1,55.2-90.3,95.3-150.5,115.3C754,886.1,698.9,846,663.7,790.9c-10-15-20.1-30.1-25.1-45.1
	c0-50.2,80.2-90.3,180.5-90.3s180.5,40.1,180.5,90.3C979.7,760.8,974.7,775.9,964.7,790.9L964.7,790.9z"/>
</svg>
