<?xml version="1.0" encoding="utf-8"?>
<!-- Generator: Adobe Illustrator 24.1.1, SVG Export Plug-In . SVG Version: 6.00 Build 0)  -->
<svg version="1.1" id="Capa_1" xmlns="http://www.w3.org/2000/svg" xmlns:xlink="http://www.w3.org/1999/xlink" x="0px" y="0px"
	 viewBox="0 0 1080 1080" style="enable-background:new 0 0 1080 1080;" xml:space="preserve">
<style type="text/css">
	.st0{fill:#42A5F5;}
	.st1{fill-rule:evenodd;clip-rule:evenodd;fill:#BBDEFB;}
</style>
<path class="st0" d="M885.6,255.3H520.8L418.5,143.1c-9.7-14.7-29.2-19.5-43.8-19.5H97.4C43.9,123.6,5,167.5,5,221.1v584.7
	c0,53.6,38.9,97.5,92.4,97.5h793c48.6,0,92.4-43.9,92.4-97.5V352.7C978,299.1,939.2,255.3,885.6,255.3z"/>
<path class="st1" d="M932.5,291.1L640.4,559.6l-163.2-123l-67.5,39.3l160.9,147.9L409.7,771.6l67.5,39.4l163.2-123l292.1,268.4
	l142.5-69.2V360.3L932.5,291.1z M932.5,467.7v312l-207-156L932.5,467.7z"/>
</svg>
