<?xml version="1.0" encoding="utf-8"?>
<!-- Generator: Adobe Illustrator 24.1.1, SVG Export Plug-In . SVG Version: 6.00 Build 0)  -->
<svg version="1.1" id="Capa_1" xmlns="http://www.w3.org/2000/svg" xmlns:xlink="http://www.w3.org/1999/xlink" x="0px" y="0px"
	 viewBox="0 0 1080 1080" style="enable-background:new 0 0 1080 1080;" xml:space="preserve">
<style type="text/css">
	.st0{fill:#2196F3;}
	.st1{fill:#BBDEFB;}
</style>
<path class="st0" d="M880.7,261.7H515.8L413.7,149.6c-9.7-14.6-29.2-19.5-43.8-19.5H92.6C43.9,130.1,5,174,5,227.6v584.8
	c0,53.6,38.9,97.5,92.4,97.5h793c48.6,0,92.4-43.9,92.4-97.5V359.2C973.1,305.6,939.1,261.7,880.7,261.7z M880.7,812.4h-793V227.6
	h267.6l102.2,112.1c9.7,14.6,29.2,19.5,43.8,19.5h379.5V812.4z"/>
<path class="st1" d="M757.5,651.9c-48.9,0-87.9,39.1-87.9,87.9l0,0c0,48.9,39.1,87.9,87.9,87.9l0,0c48.9,0,87.9-39.1,87.9-87.9l0,0
	C845.4,691,806.3,651.9,757.5,651.9L757.5,651.9 M757.5,881.5c-78.2,0-141.7-63.5-141.7-141.7l0,0c0-78.2,63.5-141.7,141.7-141.7
	l0,0c78.2,0,141.7,63.5,141.7,141.7l0,0C904,818,835.6,881.5,757.5,881.5L757.5,881.5 M757.5,520c-141.7,0-268.7,87.9-317.5,214.9
	c48.9,127,171,214.9,317.5,214.9s268.7-87.9,317.5-214.9C1026.1,612.8,904,520,757.5,520z"/>
</svg>
