<?xml version="1.0" encoding="utf-8"?>
<!-- Generator: Adobe Illustrator 24.1.1, SVG Export Plug-In . SVG Version: 6.00 Build 0)  -->
<svg version="1.1" id="Capa_1" xmlns="http://www.w3.org/2000/svg" xmlns:xlink="http://www.w3.org/1999/xlink" x="0px" y="0px"
	 viewBox="0 0 1080 1080" style="enable-background:new 0 0 1080 1080;" xml:space="preserve">
<style type="text/css">
	.st0{fill:#1E88E5;}
	.st1{fill:#BBDEFB;}
</style>
<path class="st0" d="M880.7,245.4H515.8L413.7,133.3c-9.7-14.6-29.2-19.5-43.8-19.5H92.6C43.9,113.8,5,157.6,5,211.2V796
	c0,53.6,38.9,97.5,92.4,97.5h793c48.6,0,92.4-43.9,92.4-97.5V342.8C973.1,289.2,939.1,245.4,880.7,245.4z M880.7,796h-793V211.2
	h267.6l102.2,112.1c9.7,14.6,29.2,19.5,43.8,19.5h379.5V796z"/>
<path class="st1" d="M665.4,966.2c-226.5,0-409.6-91.6-409.6-207.2s183.1-207.2,409.6-207.2S1075,648.2,1075,759
	S891.9,966.2,665.4,966.2 M487.1,696.4c19.3,0,28.9,4.8,38.5,9.6c4.8,4.8,9.6,19.3,4.8,33.7c-4.8,19.3-9.6,28.9-19.3,38.5
	c-9.6,9.6-24.1,9.6-43.4,9.6h-28.9l19.3-96.4L487.1,696.4 M371.5,884.3h48.2l9.6-57.8h43.4c19.3,0,33.7,0,43.4-4.8
	c9.6-4.8,24.1-9.6,33.7-19.3c9.6-9.6,14.5-14.5,19.3-24.1c4.8-9.6,9.6-19.3,9.6-28.9c4.8-28.9,0-48.2-9.6-62.6
	c-14.5-14.5-33.7-24.1-62.6-24.1H410L371.5,884.3 M617.2,600l-43.4,226.5h48.2l24.1-130.1h38.5c14.5,0,19.3,0,24.1,4.8
	c4.8,4.8,4.8,9.6,0,24.1l-19.3,101.2h48.2l19.3-106c4.8-19.3,0-38.5-9.6-48.2c-9.6-9.6-28.9-14.5-57.8-14.5h-43.4l14.5-57.8H617.2
	 M872.6,696.4c19.3,0,28.9,4.8,38.5,9.6c4.8,4.8,9.6,19.3,4.8,33.7c-4.8,19.3-9.6,28.9-19.3,38.5c-14.5,9.6-28.9,14.5-48.2,14.5
	h-28.9l19.3-96.4H872.6 M752.2,884.3h48.2l9.6-57.8h43.4c19.3,0,33.7,0,48.2-4.8c9.6-4.8,24.1-9.6,33.7-19.3
	c9.6-9.6,14.5-14.5,19.3-24.1c4.8-9.6,9.6-19.3,9.6-28.9c4.8-28.9,0-48.2-9.6-62.6c-14.5-14.5-33.7-24.1-62.6-24.1h-91.6
	L752.2,884.3z"/>
</svg>
