<?xml version="1.0" encoding="utf-8"?>
<!-- Generator: Adobe Illustrator 24.1.1, SVG Export Plug-In . SVG Version: 6.00 Build 0)  -->
<svg version="1.1" id="Capa_1" xmlns="http://www.w3.org/2000/svg" xmlns:xlink="http://www.w3.org/1999/xlink" x="0px" y="0px"
	 viewBox="0 0 1080 1080" style="enable-background:new 0 0 1080 1080;" xml:space="preserve">
<style type="text/css">
	.st0{fill:#EF5350;}
	.st1{fill:#FFCDD2;}
</style>
<path class="st0" d="M887.5,241.2H521.8L419.4,128.9c-9.8-14.7-29.3-19.5-43.9-19.5H97.6C44,109.3,5,153.3,5,207v586.1
	c0,53.7,39,97.7,92.6,97.7h794.8c48.8,0,92.6-44,92.6-97.7V338.9C980.2,285.2,941.2,241.2,887.5,241.2z M887.5,793.1H97.6V207h268.2
	l102.4,112.3c9.8,14.7,29.3,19.5,43.9,19.5h380.3v454.2H887.5z"/>
<path class="st1" d="M880.9,558.3v-63.1H750v179.5c-14.6-9.7-29.1-14.6-48.5-14.6c-43.7,0-82.5,34-82.5,82.5l0,0
	c0,43.7,34,82.5,82.5,82.5c48.5,0,82.5-34,82.5-82.5V563.1h97 M754.8,330.3c179.5,0,320.2,145.5,320.2,320.2l0,0
	c0,179.5-145.5,320.2-320.2,320.2l0,0c-179.5,0-320.2-145.5-320.2-320.2l0,0C429.8,475.8,575.3,330.3,754.8,330.3L754.8,330.3z"/>
</svg>
