<?xml version="1.0" encoding="utf-8"?>
<!-- Generator: Adobe Illustrator 24.1.1, SVG Export Plug-In . SVG Version: 6.00 Build 0)  -->
<svg version="1.1" id="Capa_1" xmlns="http://www.w3.org/2000/svg" xmlns:xlink="http://www.w3.org/1999/xlink" x="0px" y="0px"
	 viewBox="0 0 1080 1080" style="enable-background:new 0 0 1080 1080;" xml:space="preserve">
<style type="text/css">
	.st0{fill:#00ACC1;}
	.st1{fill:#B2EBF2;}
</style>
<path class="st0" d="M891.2,262.4H524L421.2,149.6c-9.8-14.7-29.4-19.6-44.1-19.6H98c-53.9,0-93,44.1-93,98.1v588.6
	c0,54,39.2,98.1,93,98.1h798.1c49,0,93-44.1,93-98.1V360.5C984.3,306.5,945.1,262.4,891.2,262.4z M891.2,816.6H98V228h269.3
	l102.8,112.8c9.8,14.7,29.4,19.6,44.1,19.6h381.9v456.1H891.2z"/>
<path class="st1" d="M1040.6,527.2c24.6,24.6,24.6,59,0,78.7l-78.7,78.7L745.6,463.3l78.7-78.7c24.6-24.6,59-24.6,78.7,0l49.2,49.2
	l83.6-83.6l39.3,39.3l-83.6,88.5L1040.6,527.2 M878.3,689.5L839,650.1l-78.7,78.7l-59-59l78.7-78.7l-39.3-39.3L662,630.5l-44.3-39.3
	L544,669.8c-24.6,24.6-24.6,59,0,78.7l49.2,49.2L480.1,910.7l39.3,39.3L632.5,837l49.2,49.2c24.6,24.6,59,24.6,78.7,0l78.7-78.7
	l-39.3-39.3L878.3,689.5z"/>
</svg>
