<?xml version="1.0" encoding="utf-8"?>
<!-- Generator: Adobe Illustrator 24.1.1, SVG Export Plug-In . SVG Version: 6.00 Build 0)  -->
<svg version="1.1" id="Capa_1" xmlns="http://www.w3.org/2000/svg" xmlns:xlink="http://www.w3.org/1999/xlink" x="0px" y="0px"
	 viewBox="0 0 1080 1080" style="enable-background:new 0 0 1080 1080;" xml:space="preserve">
<style type="text/css">
	.st0{fill:#0097A7;}
	.st1{fill:#B2EBF2;}
</style>
<path class="st0" d="M885.6,268.1H520.7L418.5,156c-9.7-14.6-29.2-19.5-43.8-19.5H97.4C43.9,136.5,5,180.4,5,234v584.8
	c0,53.6,38.9,97.5,92.4,97.5h793c48.6,0,92.4-43.9,92.4-97.5V365.6C978,312,939.1,268.1,885.6,268.1z M885.6,818.8H97.4V234H365
	l102.2,112.1c9.7,14.6,29.2,19.5,43.8,19.5h379.5v453.2H885.6z"/>
<path class="st1" d="M1052.7,439.1c-24.2-43.6-67.9-58.2-101.8-58.2c-38.8,0-72.7,19.4-63,33.9c0,4.8,9.7,19.4,14.5,24.2
	c4.8,9.7,19.4,0,24.2,0c14.5-4.8,24.2-9.7,38.8-4.8c14.5,0,33.9,9.7,43.6,33.9c29.1,58.2-63,174.6-174.6,92.1
	c-116.4-82.4-227.9-53.3-276.4-38.8c-48.5,14.5-72.7,33.9-53.3,72.7c29.1,53.3,19.4,33.9,43.6,77.6c43.6,67.9,135.8-29.1,135.8-29.1
	c-67.9,101.8-126.1,77.6-150.3,38.8c-19.4-33.9-33.9-67.9-33.9-67.9c-174.6,63-126.1,329.8-126.1,329.8h77.6
	c24.2-97,101.8-97,111.5,0h67.9c58.2-194,203.7,0,203.7,0h87.3c-24.2-130.9,48.5-174.6,92.1-252.2
	C1062.4,618.5,1101.2,521.5,1052.7,439.1L1052.7,439.1z M834.5,696.1c-43.6-14.5-29.1-58.2-29.1-58.2s38.8,14.5,92.1,29.1
	C897.5,681.6,868.4,705.8,834.5,696.1L834.5,696.1z"/>
</svg>
