<?xml version="1.0" encoding="utf-8"?>
<!-- Generator: Adobe Illustrator 27.0.0, SVG Export Plug-In . SVG Version: 6.00 Build 0)  -->
<svg version="1.1" id="Capa_1" xmlns="http://www.w3.org/2000/svg" xmlns:xlink="http://www.w3.org/1999/xlink" x="0px" y="0px"
	 viewBox="0 0 1080 1080" style="enable-background:new 0 0 1080 1080;" xml:space="preserve">
<style type="text/css">
	.st0{fill:#42A5F5;}
	.st1{fill:#B3E5FC;}
	.st2{fill-rule:evenodd;clip-rule:evenodd;fill:#B3E5FC;}
</style>
<path class="st0" d="M886.83,239.1H521.48L419.12,126.86c-9.7-14.6-29.19-19.5-43.88-19.5H97.56C43.99,107.36,5,151.24,5,204.92
	v585.64c0,53.68,38.99,97.56,92.56,97.56h794.16c48.68,0,92.56-43.88,92.56-97.56v-453.8C979.39,283.09,940.51,239.1,886.83,239.1
	L886.83,239.1z M886.83,790.56H97.56V204.92h267.98l102.36,112.25c9.7,14.6,29.19,19.5,43.88,19.5h380.03v453.91h-5L886.83,790.56z"
	/>
<g transform="translate(-.203 -.102)">
	<path class="st1" d="M766.62,355.57c-170.16,0-308.56,138.42-308.56,308.59s138.4,308.59,308.56,308.59
		s308.59-138.42,308.59-308.59S936.78,355.57,766.62,355.57z M766.62,922.97c-142.7,0-258.79-116.12-258.79-258.82
		s116.09-258.82,258.79-258.82s258.82,116.12,258.82,258.82S909.32,922.97,766.62,922.97z"/>
	<path class="st2" d="M771.6,489.95c-99.54,0-179.17,79.63-179.17,174.2c0,99.54,79.63,174.2,179.17,174.2
		s179.17-79.63,179.17-174.2S871.14,489.95,771.6,489.95L771.6,489.95z M821.37,539.72c34.84,0,64.7,29.86,64.7,64.7l0,0
		c0,34.84-29.86,64.7-64.7,64.7c-34.84,0-64.7-29.86-64.7-64.7C761.64,569.59,786.53,539.72,821.37,539.72L821.37,539.72
		L821.37,539.72z"/>
	<ellipse class="st2" cx="975.66" cy="460.09" rx="64.7" ry="64.7"/>
</g>
</svg>
