<?xml version="1.0" encoding="utf-8"?>
<!-- Generator: Adobe Illustrator 24.1.1, SVG Export Plug-In . SVG Version: 6.00 Build 0)  -->
<svg version="1.1" id="Capa_1" xmlns="http://www.w3.org/2000/svg" xmlns:xlink="http://www.w3.org/1999/xlink" x="0px" y="0px"
	 viewBox="0 0 1080 1080" style="enable-background:new 0 0 1080 1080;" xml:space="preserve">
<style type="text/css">
	.st0{fill:#FF5722;}
	.st1{fill-rule:evenodd;clip-rule:evenodd;fill:#FFCCBC;}
</style>
<path class="st0" d="M885.6,272.3H520.8L418.5,160.2c-9.7-14.7-29.2-19.5-43.8-19.5H97.4C43.9,140.7,5,184.5,5,238.1v584.7
	c0,53.6,38.9,97.5,92.4,97.5h793c48.6,0,92.4-43.9,92.4-97.5V369.7C978,316.1,939.2,272.3,885.6,272.3z"/>
<path class="st1" d="M520.1,365.5c-40.3,0-73,32.6-73,72.9c0,40.3,32.7,73,73,73h288.4c40.3,0,72.9-32.7,72.9-73
	s-32.6-72.9-72.9-72.9C808.6,365.5,520.1,365.5,520.1,365.5z M996.8,365.5c-41.1,0-74.5,32.6-74.5,72.9c0,40.3,33.3,73,74.5,73
	c0,0,0,0,0.1,0c41.1,0,74.5-32.7,74.4-73C1071.2,398.2,1037.9,365.5,996.8,365.5z M521.6,581.9c-41.3,0-74.4,33.3-74.4,74.5
	c0,40.8,33.2,74,74.4,74.5c41.3,0,74.5-33.3,74.5-74.5C596.1,615.2,562.8,581.9,521.6,581.9z M701.8,583.4c-40.3,3-71,37.8-68,78.1
	c3,40.3,37.8,71,78.1,68h287.9h7.1c40.3-3,71-37.8,68-78.1c-3-40.3-37.7-71-78-68H711.9h-3.1L701.8,583.4L701.8,583.4z M520.1,793.4
	c-40.3,0-73,32.6-73,72.9c0,40.3,32.7,73,73,73h288.4c40.3,0,72.9-32.7,72.9-73c0-40.3-32.6-72.9-72.9-72.9H520.1z M996.8,793.4
	c-41.1,0-74.5,32.6-74.5,72.9c0,40.3,33.3,73,74.5,73c0,0,0,0,0.1,0c41.1,0,74.5-32.7,74.4-73
	C1071.2,826.1,1037.9,793.4,996.8,793.4z"/>
</svg>
