<?xml version="1.0" encoding="utf-8"?>
<!-- Generator: Adobe Illustrator 24.1.1, SVG Export Plug-In . SVG Version: 6.00 Build 0)  -->
<svg version="1.1" id="Capa_1" xmlns="http://www.w3.org/2000/svg" xmlns:xlink="http://www.w3.org/1999/xlink" x="0px" y="0px"
	 viewBox="0 0 1080 1080" style="enable-background:new 0 0 1080 1080;" xml:space="preserve">
<style type="text/css">
	.st0{fill:#64B5F6;}
	.st1{fill-rule:evenodd;clip-rule:evenodd;fill:#326DE6;}
	.st2{fill-rule:evenodd;clip-rule:evenodd;fill:#FFFFFF;}
</style>
<path class="st0" d="M885.6,269.4H520.8L418.5,157.3c-9.7-14.7-29.2-19.5-43.8-19.5H97.4C43.9,137.7,5,181.6,5,235.2V820
	c0,53.6,38.9,97.5,92.4,97.5h793c48.6,0,92.4-43.9,92.4-97.5V366.8C978,313.2,939.2,269.4,885.6,269.4z"/>
<g transform="matrix(.8608 0 0 .8608 -202.35 -28.956)">
	<path class="st1" d="M1419.7,576.7c-4.2-13.4-14.3-24.3-26.9-31l-255.9-122.5c-6.7-3.4-14.3-4.2-21-4.2c-6.7,0-14.3,0-21,1.7
		L839,544c-12.6,5.9-21.8,16.8-25.2,31l-63.8,276.1c-2.5,14.3,0.8,28.5,9.2,40.3l177.1,219c10.1,10.1,24.3,16.8,38.6,17.6h282.8
		c15.1,1.7,29.4-5,38.6-17.6l177.1-219c8.4-11.7,11.7-26,10.1-40.3L1419.7,576.7z"/>
	<path class="st2" d="M1379.2,840.2c-0.8,0-0.8,0-0.8-0.8c0-0.8-2.5-0.8-3.4-0.8c-3.4-0.8-6.7-0.8-10.1-0.8c-1.7,0-3.4,0-5-0.8h-0.8
		c-9.2-0.8-19.3-2.5-28.5-5c-2.5-0.8-5-3.4-5.9-5.9c0-0.8-0.8-0.8-0.8-0.8l-6.7-1.7c3.4-24.3,1.7-49.5-3.4-73.8
		c-5.9-24.3-15.9-47.8-29.4-68.8l5-5v-0.8c0-2.5,0.8-5.9,2.5-7.6c7.6-5.9,15.1-11.7,23.5-15.9c1.7-0.8,3.4-1.7,5-2.5
		c3.4-1.7,5.9-3.4,9.2-5c0.8-0.8,1.7-0.8,2.5-1.7l0.8-0.8c7.6-5.9,9.2-15.9,3.4-23.5c-2.5-3.4-7.6-5.9-11.7-5.9
		c-4.2,0-8.4,1.7-11.7,4.2l-0.8,0.8c-0.8,0.8-1.7,1.7-2.5,1.7c-2.5,2.5-5,5-6.7,7.6c-0.8,1.7-2.5,2.5-3.4,3.4
		c-6.7,6.7-13.4,13.4-21,18.5c-1.7,0.8-3.4,1.7-5,1.7c-0.8,0-2.5,0-3.4-0.8l-6.7,5c-6.7-6.7-14.3-13.4-21-20.1
		c-31-24.3-69.6-39.4-109.1-43.6l-0.8-6.7l-0.8-0.8c-2.5-1.7-3.4-4.2-4.2-6.7c0-9.2,0-18.5,1.7-28.5v-0.8c0-1.7,0.8-3.4,0.8-5
		c0.8-3.4,0.8-6.7,1.7-10.1v-5c0.8-8.4-5.9-16.8-14.3-16.8c-5,0-10.1,1.7-13.4,5c-3.4,3.4-5,7.6-5,11.7v4.2c0,3.4,0.8,6.7,1.7,10.1
		c0.8,1.7,0.8,3.4,0.8,5v0.8c1.7,9.2,1.7,18.5,1.7,28.5c-0.8,2.5-1.7,5-4.2,6.7l-0.8,0.8l-0.8,6.7c-9.2,0.8-18.5,2.5-28.5,4.2
		c-39.4,8.4-75.5,29.4-103.2,58.7l-5-3.4h-0.8c-0.8,0-1.7,0.8-3.4,0.8s-4.2-0.8-5-1.7c-7.6-5.9-14.3-12.6-21-19.3
		c-0.8-1.7-2.5-2.5-3.4-3.4c-2.5-2.5-4.2-5-6.7-7.6c-0.8-0.8-1.7-0.8-2.5-1.7l-0.8-0.8c-3.4-2.5-7.6-4.2-11.7-4.2
		c-5,0-9.2,1.7-12.6,5.9c-5,7.6-3.4,17.6,3.4,23.5c0.8,0,0.8,0.8,0.8,0.8s1.7,1.7,2.5,1.7c2.5,1.7,5.9,3.4,9.2,5
		c1.7,0.8,3.4,1.7,5,2.5c8.4,5,15.9,10.1,23.5,15.9c1.7,1.7,3.4,5,2.5,7.6v0.8l5,5c-0.8,1.7-1.7,2.5-2.5,4.2
		c-26,41.1-36.1,89.8-28.5,137.6l-6.7,1.7c0,0.8-0.8,0.8-0.8,0.8c-0.8,2.5-3.4,4.2-5.9,5.9c-9.2,2.5-18.5,4.2-28.5,5h-0.8
		c-1.7,0-3.4,0-5,0.8c-3.4,0-6.7,0.8-10.1,0.8c-0.8,0-1.7,0.8-3.4,0.8c-0.8,0-0.8,0-1.7,0.8c-9.2,1.7-15.1,10.1-13.4,19.3
		c1.7,7.6,9.2,12.6,16.8,11.7c1.7,0,2.5,0,4.2-0.8c0.8,0,0.8,0,0.8-0.8c0-0.8,1.7-0.8,3.4-0.8c3.4-0.8,6.7-2.5,9.2-3.4
		c1.7-0.8,3.4-1.7,5-1.7h0.8c8.4-3.4,17.6-5.9,26.9-7.6h0.8c2.5,0,5,0.8,6.7,2.5c0.8,0,0.8,0.8,0.8,0.8l7.6-0.8
		c12.6,38.6,36.1,73,68.8,98.2c7.6,5.9,14.3,10.9,22.7,15.1l-3.4,6.7c0,0.8,0.8,0.8,0.8,0.8c1.7,2.5,1.7,5.9,0.8,8.4
		c-3.4,8.4-8.4,16.8-13.4,24.3v0.8c-0.8,1.7-1.7,2.5-3.4,4.2c-1.7,1.7-3.4,5-5.9,8.4c-0.8,0.8-0.8,1.7-1.7,2.5c0,0,0,0.8-0.8,0.8
		c-4.2,8.4-0.8,18.5,6.7,22.7c1.7,0.8,4.2,1.7,6.7,1.7c6.7,0,12.6-4.2,15.9-10.1c0,0,0-0.8,0.8-0.8c0-0.8,0.8-1.7,1.7-2.5
		c0.8-3.4,2.5-5.9,3.4-9.2l1.7-5c2.5-9.2,6.7-17.6,10.9-26c1.7-2.5,4.2-4.2,6.7-5c0.8,0,0.8,0,0.8-0.8l3.4-6.7
		c23.5,9.2,47.8,13.4,73,13.4c15.1,0,30.2-1.7,45.3-5c9.2-1.7,18.5-5,26.9-7.6l3.4,5.9c0.8,0,0.8,0,0.8,0.8c2.5,0.8,5,2.5,6.7,5
		c4.2,8.4,7.6,16.8,10.9,25.2v0.8l1.7,5c0.8,3.4,1.7,6.7,3.4,9.2c0.8,0.8,0.8,1.7,1.7,2.5c0,0,0,0.8,0.8,0.8
		c3.4,5.9,9.2,10.1,15.9,10.1c2.5,0,4.2-0.8,6.7-1.7c3.4-1.7,6.7-5,7.6-9.2c0.8-4.2,0.8-9.2-0.8-13.4c0-0.8-0.8-0.8-0.8-0.8
		c0-0.8-0.8-1.7-1.7-2.5c-1.7-3.4-3.4-5.9-5.9-8.4c-0.8-1.7-1.7-2.5-3.4-4.2v-0.8c-5.9-7.6-10.1-15.9-13.4-24.3
		c-0.8-2.5-0.8-5.9,0.8-8.4c0-0.8,0.8-0.8,0.8-0.8l-2.5-6.7c43.6-26,75.5-66.3,91.5-114.1l6.7,0.8c0.8,0,0.8-0.8,0.8-0.8
		c1.7-1.7,4.2-2.5,6.7-2.5h0.8c9.2,1.7,18.5,4.2,26.9,7.6h0.8c1.7,0.8,3.4,1.7,5,1.7c3.4,1.7,5.9,2.5,9.2,3.4c0.8,0,1.7,0.8,3.4,0.8
		c0.8,0,0.8,0,1.7,0.8c1.7,0.8,2.5,0.8,4.2,0.8c7.6,0,14.3-5,16.8-11.7C1393.5,848.6,1387.6,841.8,1379.2,840.2L1379.2,840.2z
		 M1137.6,814.2l-22.7,10.9l-22.7-10.9l-6.7-24.3l15.9-20.1h26l15.9,20.1L1137.6,814.2z M1274.3,759.6c4.2,17.6,5,35.2,3.4,52.9
		l-79.7-22.7c-7.6-1.7-11.7-9.2-10.1-16.8c0.8-2.5,1.7-4.2,3.4-5.9l62.9-57.1C1263.4,725.2,1270.1,742,1274.3,759.6L1274.3,759.6z
		 M1229,679.1l-68,48.7c-5.9,3.4-14.3,2.5-18.5-3.4c-1.7-1.7-2.5-3.4-2.5-5.9l-5-84.7C1170.3,637.9,1203.8,653.9,1229,679.1
		L1229,679.1z M1077.1,636.3l16.8-3.4l-5,83.9c0,7.6-6.7,13.4-14.3,13.4c-2.5,0-4.2-0.8-6.7-1.7l-68-49.5
		C1020.9,658.1,1047.8,643,1077.1,636.3L1077.1,636.3z M974.8,710.1l62.1,55.4c5.9,5,6.7,13.4,1.7,19.3c-1.7,2.5-3.4,3.4-6.7,4.2
		l-80.6,23.5C947.9,777.2,956.3,741.2,974.8,710.1L974.8,710.1z M960.5,851.9l83.1-14.3c6.7,0,13.4,4.2,14.3,10.9
		c0.8,2.5,0.8,5.9-0.8,8.4l-31.9,77.2C995.7,914.9,972.2,885.5,960.5,851.9L960.5,851.9z M1151,956c-11.7,2.5-24.3,4.2-36.9,4.2
		c-17.6,0-36.1-3.4-52.9-8.4l41.1-74.7c4.2-5,10.9-6.7,16.8-3.4c2.5,1.7,4.2,3.4,6.7,5.9l40.3,73
		C1161.9,953.5,1156.9,954.3,1151,956L1151,956z M1253.4,883c-12.6,20.1-30.2,37.8-50.3,50.3l-32.7-78c-1.7-6.7,0.8-13.4,7.6-16.8
		c2.5-0.8,5-1.7,7.6-1.7l83.9,14.3C1265.1,862.8,1260.1,873.7,1253.4,883L1253.4,883z"/>
</g>
</svg>
