<?xml version="1.0" encoding="utf-8"?>
<!-- Generator: Adobe Illustrator 24.1.1, SVG Export Plug-In . SVG Version: 6.00 Build 0)  -->
<svg version="1.1" id="Capa_1" xmlns="http://www.w3.org/2000/svg" xmlns:xlink="http://www.w3.org/1999/xlink" x="0px" y="0px"
	 viewBox="0 0 1080 1080" style="enable-background:new 0 0 1080 1080;" xml:space="preserve">
<style type="text/css">
	.st0{fill:#0288D1;}
	.st1{fill:#B3E5FC;}
</style>
<path class="st0" d="M885.6,237.8H520.7L418.5,125.7c-9.7-14.6-29.2-19.5-43.8-19.5H97.4C43.9,106.2,5,150,5,203.6v584.8
	c0,53.6,38.9,97.5,92.4,97.5h793c48.6,0,92.4-43.9,92.4-97.5V335.2C978,281.6,939.1,237.8,885.6,237.8z M885.6,788.4H97.4V203.6H365
	l102.2,112.1c9.7,14.6,29.2,19.5,43.8,19.5h379.5v453.2H885.6z"/>
<path class="st1" d="M1075,794.7c0,10-5,24.9-14.9,29.9L806.2,968.8c-5,5-10,5-19.9,5s-14.9,0-19.9-5L512.6,824.5
	c-10-5-14.9-14.9-14.9-29.9V501c0-10,5-24.9,14.9-29.9l253.8-144.3c5-5,10-5,19.9-5s14.9,0,19.9,5l253.8,144.3
	c10,5,14.9,14.9,14.9,29.9V794.7 M781.4,396.5L587.3,506l194.1,109.5L975.5,506L781.4,396.5 M557.4,774.7l194.1,109.5v-219
	L557.4,555.8V774.7 M1010.3,774.7v-219L816.2,665.3v219L1010.3,774.7z"/>
</svg>
