<?xml version="1.0" encoding="utf-8"?>
<!-- Generator: Adobe Illustrator 24.1.1, SVG Export Plug-In . SVG Version: 6.00 Build 0)  -->
<svg version="1.1" id="Capa_1" xmlns="http://www.w3.org/2000/svg" xmlns:xlink="http://www.w3.org/1999/xlink" x="0px" y="0px"
	 viewBox="0 0 1080 1080" style="enable-background:new 0 0 1080 1080;" xml:space="preserve">
<style type="text/css">
	.st0{fill:#5C6BC0;}
	.st1{fill-rule:evenodd;clip-rule:evenodd;fill:#C5CAE9;}
</style>
<path class="st0" d="M885.6,248.3H520.8L418.5,136.2c-9.7-14.7-29.2-19.5-43.8-19.5H97.4C43.9,116.6,5,160.5,5,214.1v584.7
	c0,53.6,38.9,97.5,92.4,97.5h793c48.6,0,92.4-43.9,92.4-97.5V345.7C978,292.1,939.2,248.3,885.6,248.3z"/>
<g transform="matrix(.23307 0 0 .23307 11.419 8.7057)">
	<path class="st1" d="M3763.1,3070.3l800.3-461.6V1684l-800.3,462.6"/>
	<path class="st1" d="M2875,1684l800.3,462.6v923.7L2875,2608.2"/>
	<path class="st1" d="M1986.9,2092.4l800.3,462.1v-924.2l-800.3-462.1 M2875,3633.9l800.3,462.1v-924.2L2875,2709.7"/>
</g>
</svg>
