<?xml version="1.0" encoding="utf-8"?>
<!-- Generator: Adobe Illustrator 24.1.1, SVG Export Plug-In . SVG Version: 6.00 Build 0)  -->
<svg version="1.1" id="Capa_1" xmlns="http://www.w3.org/2000/svg" xmlns:xlink="http://www.w3.org/1999/xlink" x="0px" y="0px"
	 viewBox="0 0 1080 1080" style="enable-background:new 0 0 1080 1080;" xml:space="preserve">
<style type="text/css">
	.st0{fill:#546E7A;}
	.st1{fill:url(#XMLID_2_);}
	.st2{fill:url(#XMLID_3_);}
	.st3{fill:url(#XMLID_4_);}
	.st4{fill:url(#XMLID_5_);}
</style>
<path class="st0" d="M885.6,196H520.7L418.5,84c-9.7-14.6-29.2-19.5-43.8-19.5H97.4C43.9,64.5,5,108.3,5,161.9v584.8
	c0,53.6,38.9,97.5,92.4,97.5h793c48.6,0,92.4-43.9,92.4-97.5V293.5C978,239.9,939.1,196,885.6,196z M885.6,746.7H97.4V161.9H365
	L467.2,274c9.7,14.6,29.2,19.5,43.8,19.5h379.5v453.2H885.6z"/>
<g transform="matrix(.11021 0 0 .11021 10.126 8.976)">
	
		<linearGradient id="XMLID_2_" gradientUnits="userSpaceOnUse" x1="782789.9375" y1="1070952.625" x2="786678.4375" y2="1068605.5" gradientTransform="matrix(1.214514e-02 0 0 1.214514e-02 -4234.5752 -4346.8198)">
		<stop  offset="0" style="stop-color:#FDD835"/>
		<stop  offset="1" style="stop-color:#F57C00"/>
	</linearGradient>
	<path id="XMLID_3041_" class="st1" d="M9582.9,6241.2c44.6-39.7,69.4-94.2,74.4-158.7c5-129-89.3-233.1-218.2-243
		c-59.5-5-119,19.8-163.7,54.6L5119,8170.6c-94.2,39.7-178.6,109.1-233.1,203.4c-143.8,238.1-64.5,545.6,178.6,689.4
		c168.6,99.2,372,89.3,530.7-9.9c9.9-9.9,24.8-14.9,34.7-24.8l3868.7-2718C9518.4,6295.8,9572.9,6256.1,9582.9,6241.2z"/>
	
		<linearGradient id="XMLID_3_" gradientUnits="userSpaceOnUse" x1="849249.75" y1="605218.5" x2="852799" y2="608325.5625" gradientTransform="matrix(1.214514e-02 0 0 1.214514e-02 -4234.5752 -4346.8198)">
		<stop  offset="0" style="stop-color:#EF5350"/>
		<stop  offset="0.57" style="stop-color:#FF6E40"/>
		<stop  offset="1" style="stop-color:#F57C00"/>
	</linearGradient>
	<path id="XMLID_3049_" class="st2" d="M9592.8,5908.9L6428.4,2804c-69.4-74.4-168.6-124-282.7-124
		c-213.3,0-381.9,173.6-381.9,381.9c0,104.2,39.7,193.4,104.2,262.9c19.8,19.8,39.7,34.7,59.5,49.6l3343,2861.9
		c39.7,34.7,89.3,59.5,148.8,64.5c129,5,233.1-89.3,243-218.2C9662.2,6018,9637.4,5953.6,9592.8,5908.9z"/>
	
		<linearGradient id="XMLID_4_" gradientUnits="userSpaceOnUse" x1="867636.375" y1="837432.9375" x2="865532.875" y2="836119.3125" gradientTransform="matrix(1.214514e-02 0 0 1.214514e-02 -4234.5752 -4346.8198)">
		<stop  offset="0" style="stop-color:#8E24AA"/>
		<stop  offset="0.3852" style="stop-color:#AB47BC"/>
		<stop  offset="0.7654" style="stop-color:#EC407A"/>
		<stop  offset="0.957" style="stop-color:#EC407A"/>
	</linearGradient>
	<path id="XMLID_3042_" class="st3" d="M6532.5,5631.2c-5,0-1954.2-1537.6-1993.9-1562.4l-89.3-44.6
		c-287.7-109.1-605.1,39.7-714.2,327.4c-94.2,253,9.9,530.7,228.2,664.6c34.7,19.8,64.5,34.7,99.2,44.6
		c19.8,9.9,2251.8,932.5,2251.8,932.5c89.3,39.7,193.4,14.9,253-59.5C6641.6,5839.5,6626.8,5705.6,6532.5,5631.2z"/>
	
		<linearGradient id="XMLID_5_" gradientUnits="userSpaceOnUse" x1="866192.125" y1="593773" x2="864138.5625" y2="595468.8125" gradientTransform="matrix(1.214514e-02 0 0 1.214514e-02 -4234.5752 -4346.8198)">
		<stop  offset="0" style="stop-color:#EF5350"/>
		<stop  offset="0.364" style="stop-color:#EE4E72"/>
		<stop  offset="1" style="stop-color:#EC407A"/>
	</linearGradient>
	<path id="XMLID_3057_" class="st4" d="M6145.7,2680c-84.3,0-163.7,29.8-228.2,74.4l-1974,1329.3c-5,5-9.9,5-9.9,9.9h-5
		c-84.3,59.5-153.8,148.8-193.4,253c-109.1,287.7,39.7,610.1,327.4,714.2c178.6,69.4,372,34.7,515.8-69.4
		c34.7-24.8,64.5-49.6,89.3-79.4l1716.1-1547.5c89.3-69.4,148.8-178.6,148.8-302.6C6532.5,2853.6,6358.9,2680,6145.7,2680z"/>
</g>
</svg>
