<?xml version="1.0" encoding="utf-8"?>
<!-- Generator: Adobe Illustrator 24.1.1, SVG Export Plug-In . SVG Version: 6.00 Build 0)  -->
<svg version="1.1" id="Capa_1" xmlns="http://www.w3.org/2000/svg" xmlns:xlink="http://www.w3.org/1999/xlink" x="0px" y="0px"
	 viewBox="0 0 1080 1080" style="enable-background:new 0 0 1080 1080;" xml:space="preserve">
<style type="text/css">
	.st0{fill:#7E57C2;}
	.st1{fill-rule:evenodd;clip-rule:evenodd;fill:#D1C4E9;}
</style>
<path class="st0" d="M885.6,264.7H520.7L418.6,152.6c-9.7-14.7-29.2-19.5-43.8-19.5H97.4C43.9,133.1,5,176.9,5,230.5v584.8
	c0,53.6,38.9,97.5,92.4,97.5h793c48.7,0,92.4-43.9,92.4-97.5V362.1C978,308.5,939.2,264.7,885.6,264.7z"/>
<path class="st1" d="M760.7,318.4c-173.6,0-314.3,140.7-314.3,314.3c0,173.6,140.7,314.3,314.3,314.3
	c173.6,0,314.3-140.7,314.3-314.3c0-29.4-4-57.8-11.5-84.7h-0.1c-0.2-1-0.4-1.9-0.8-2.8c-0.1-0.3-0.4-0.9-0.4-0.9
	c-2.6-5.6-8.1-9.1-14.2-9.1c-8.7,0-15.7,7-15.8,15.7c0,0,0,0,0,0c0,1.8,0.3,3.5,0.9,5l-0.1,0.1c7,25,10.5,50.9,10.5,76.8
	c0,75.6-29.4,146.6-82.8,200c-53.4,53.4-124.5,82.8-200,82.8c-75.6,0-146.6-29.4-200-82.8c-53.4-53.4-82.9-124.5-82.9-200
	c0-75.6,29.4-146.6,82.9-200c53.4-53.4,124.5-82.8,200-82.8c67.5,0,131.3,23.5,182.2,66.5c-1.8,4.5-2.6,9.2-2.6,14.1
	c0,21.2,17.2,38.4,38.4,38.4c21.2,0,38.4-17.2,38.4-38.4S999.9,392,978.7,392c-4.6,0-9.1,0.8-13.2,2.3
	C910.5,347,839,318.4,760.7,318.4L760.7,318.4z M721,464.9L605.2,765.4h72.6l18.9-50.9h109.4l-19.8-56.3h-72l46.8-129.2l83.3,236.5
	h72.5L801.2,464.9L721,464.9z"/>
</svg>
