<?xml version="1.0" encoding="utf-8"?>
<!-- Generator: Adobe Illustrator 24.1.1, SVG Export Plug-In . SVG Version: 6.00 Build 0)  -->
<svg version="1.1" id="Capa_1" xmlns="http://www.w3.org/2000/svg" xmlns:xlink="http://www.w3.org/1999/xlink" x="0px" y="0px"
	 viewBox="0 0 1080 1080" style="enable-background:new 0 0 1080 1080;" xml:space="preserve">
<style type="text/css">
	.st0{fill:#F06292;}
	
		.st1{fill-rule:evenodd;clip-rule:evenodd;fill:#FCE4EC;stroke:#FCE4EC;stroke-width:0.5015;stroke-linejoin:round;stroke-miterlimit:10;}
</style>
<path class="st0" d="M885.6,260.9H520.8L418.5,148.7c-9.7-14.7-29.2-19.5-43.8-19.5H97.4C43.9,129.2,5,173.1,5,226.7v584.7
	c0,53.6,38.9,97.5,92.4,97.5h793c48.6,0,92.4-43.9,92.4-97.5V358.3C978,304.7,939.2,260.9,885.6,260.9z"/>
<g transform="matrix(.040368 0 0 .040368 5.3434 -1.2037)">
	<path class="st1" d="M26416.2,9782.7c-470.8-1847.3-3533.6-2454.3-6432.4-1424.6c-1725.3,613.1-3592.3,1574.9-4935.4,2830.9
		c-1596.7,1493.4-1851.4,2793-1746.1,3336.2c370.1,1916.2,2996,3169.1,4075.3,4098.1v5.6c-318.4,156.4-2647.7,1335.5-3192.9,2540.9
		c-575.1,1271.7,91.6,2184,533.1,2307c1367.9,380.7,2771.2-303.8,3526-1429.1c728-1085.9,667.2-2487.7,350.8-3185.3
		c436.4-114.9,945.2-166.6,1591.6-91.1c1824.5,213.1,2182.4,1352.2,2114.1,1829.1c-68.3,476.9-451.1,739.1-579.2,818.1
		c-128.1,79-167.1,106.8-156.4,165.5c15.7,85.6,74.9,82.5,183.8,63.8c150.4-25.3,957.8-387.8,992.8-1267.6
		c44-1117.3-1026.7-2367.2-2922.6-2334.3c-780.6,13.7-1271.7,87.6-1626.6,219.7c-26.3-29.9-52.7-59.7-80.5-89.1
		c-1172-1250.4-3338.7-2134.9-3247.1-3816.1c33.4-611,246-2220.4,4163.4-4172.5c3209.1-1599.2,5778.3-1158.8,6222.3-183.8
		c634.3,1393.2-1372.9,3982.7-4705.6,4356.3c-1269.7,142.3-1938.4-349.8-2104.5-533.1c-175.2-192.9-201-201.5-266.8-165.5
		c-106.3,59.2-39,229.3,0,331.1c99.7,259.2,507.8,718.4,1203.9,946.7c612.6,201,2103,311.3,3906.2-385.8
		C25302.5,13771.5,26879.5,11598.7,26416.2,9782.7z M17825.7,19195.9c151.4,559.9,134.7,1081.9-21.8,1554.2
		c-17.2,52.7-36.5,104.3-57.2,155.9c-20.8,51.1-43,101.8-67.3,151.9c-120.5,250.1-282.5,484-480.4,700.1
		c-604.5,659.1-1448.4,908.7-1810.3,698.6c-390.8-226.8-194.9-1156.3,505.2-1896.4c753.8-796.8,1838.2-1309.2,1838.2-1309.2l-1.5-3
		C17761.9,19230.9,17793.3,19213.7,17825.7,19195.9z"/>
</g>
</svg>
