<?xml version="1.0" encoding="utf-8"?>
<!-- Generator: Adobe Illustrator 24.1.1, SVG Export Plug-In . SVG Version: 6.00 Build 0)  -->
<svg version="1.1" id="Capa_1" xmlns="http://www.w3.org/2000/svg" xmlns:xlink="http://www.w3.org/1999/xlink" x="0px" y="0px"
	 viewBox="0 0 1080 1080" style="enable-background:new 0 0 1080 1080;" xml:space="preserve">
<style type="text/css">
	.st0{fill:#00BCD4;}
	.st1{fill:#B2EBF2;}
</style>
<path class="st0" d="M880.7,232.9H515.8L413.7,120.8c-9.7-14.6-29.2-19.5-43.8-19.5H92.6C43.9,101.3,5,145.2,5,198.8v584.8
	C5,837.2,43.9,881,97.4,881h793c48.6,0,92.4-43.9,92.4-97.5V330.4C973.1,276.8,939.1,232.9,880.7,232.9z M880.7,783.6h-793V198.8
	h267.6l102.2,112.1c9.7,14.6,29.2,19.5,43.8,19.5h379.5V783.6z"/>
<path class="st1" d="M713.6,582.7c33.7,0,62.6,28.9,62.6,62.6c0,33.7-28.9,62.6-62.6,62.6c-33.7,0-62.6-28.9-62.6-62.6
	C651,611.6,675.1,582.7,713.6,582.7 M554.6,920c19.3,14.5,67.5-4.8,120.5-57.8c-19.3-19.3-33.7-43.4-53-62.6
	c-28.9-4.8-53-4.8-81.9-14.5C525.7,857.4,535.3,905.6,554.6,920 M578.7,722.5l-9.6-19.3c-4.8,9.6-9.6,19.3-9.6,28.9
	c9.6,0,19.3,4.8,28.9,4.8C588.3,736.9,583.5,732.1,578.7,722.5 M800.3,698.4l28.9-53l-28.9-53c-9.6-19.3-19.3-33.7-28.9-48.2
	c-19.3,0-38.5,0-57.8,0c-19.3,0-38.5,0-57.8,0c-9.6,14.5-19.3,33.7-28.9,48.2l-28.9,53l28.9,53c9.6,19.3,19.3,33.7,28.9,48.2
	c19.3,0,38.5,0,57.8,0c19.3,0,38.5,0,57.8,0C781.1,732.1,790.7,717.6,800.3,698.4 M713.6,471.9c-4.8,9.6-14.5,14.5-19.3,24.1h19.3
	h19.3C723.2,486.4,718.4,476.7,713.6,471.9 M713.6,823.7c4.8-9.6,14.5-14.5,19.3-24.1h-19.3h-19.3
	C699.1,809.2,704,818.8,713.6,823.7 M867.8,375.5c-19.3-14.5-67.5,4.8-120.5,57.8c19.3,19.3,33.7,43.4,53,62.6
	c28.9,4.8,53,4.8,81.9,14.5C896.7,438.2,891.9,390,867.8,375.5 M843.7,573.1l9.6,19.3c4.8-9.6,9.6-19.3,9.6-28.9
	c-9.6,0-19.3-4.8-28.9-4.8C838.9,558.6,843.7,563.5,843.7,573.1 M891.9,332.2c48.2,28.9,53,101.2,33.7,192.7
	c86.7,24.1,149.4,67.5,149.4,125.3c0,57.8-62.6,101.2-149.4,125.3c19.3,86.7,14.5,163.8-33.7,192.7s-115.6-4.8-183.1-67.5
	c-62.6,62.6-130.1,96.4-183.1,67.5c-48.2-28.9-53-101.2-33.7-192.7c-86.7-24.1-149.4-67.5-149.4-125.3
	c0-57.8,62.6-101.2,149.4-125.3c-19.3-86.7-14.5-163.8,33.7-192.7c48.2-28.9,115.6,4.8,183.1,67.5
	C776.2,337,843.7,303.2,891.9,332.2 M882.3,650.2c9.6,24.1,19.3,53,28.9,77.1c72.3-19.3,110.8-53,110.8-77.1s-38.5-53-110.8-77.1
	C906.3,597.2,896.7,621.3,882.3,650.2 M540.1,650.2c-9.6-24.1-19.3-53-28.9-77.1c-72.3,19.3-110.8,53-110.8,77.1s38.5,53,110.8,77.1
	C520.9,698.4,530.5,674.3,540.1,650.2 M843.7,722.5c-4.8,4.8-4.8,9.6-9.6,19.3c9.6,0,19.3-4.8,28.9-4.8c0-9.6-4.8-19.3-9.6-28.9
	L843.7,722.5 M747.3,862.2c53,53,101.2,72.3,120.5,57.8c19.3-9.6,28.9-62.6,9.6-134.9c-24.1,4.8-53,9.6-81.9,14.5
	C781.1,818.8,766.6,842.9,747.3,862.2 M578.7,573.1c4.8-4.8,4.8-9.6,9.6-19.3c-9.6,0-19.3,4.8-28.9,4.8c0,9.6,4.8,19.3,9.6,28.9
	L578.7,573.1 M675.1,433.4c-53-53-101.2-72.3-120.5-57.8c-19.3,9.6-28.9,62.6-9.6,134.9c24.1-4.8,53-9.6,81.9-14.5
	C641.3,476.7,660.6,452.6,675.1,433.4L675.1,433.4z"/>
</svg>
