<?xml version="1.0" encoding="utf-8"?>
<!-- Generator: Adobe Illustrator 24.1.1, SVG Export Plug-In . SVG Version: 6.00 Build 0)  -->
<svg version="1.1" id="Capa_1" xmlns="http://www.w3.org/2000/svg" xmlns:xlink="http://www.w3.org/1999/xlink" x="0px" y="0px"
	 viewBox="0 0 1080 1080" style="enable-background:new 0 0 1080 1080;" xml:space="preserve">
<style type="text/css">
	.st0{fill:#009688;}
	.st1{fill:#B2DFDB;}
</style>
<path class="st0" d="M885.6,259H520.8L418.5,146.8c-9.7-14.7-29.2-19.5-43.8-19.5H97.4C43.9,127.3,5,171.2,5,224.8v584.7
	C5,863.2,43.9,907,97.4,907h793c48.6,0,92.4-43.9,92.4-97.5V356.4C978,302.8,939.2,259,885.6,259z"/>
<g>
	<path class="st1" d="M1005.3,360.4H542.5c-34.8,0-69.7,29.9-69.7,69.7V883c0,39.8,29.9,69.7,69.7,69.7h462.9
		c34.8,0,69.7-29.9,69.7-69.7V430.1C1075,390.3,1045.1,360.4,1005.3,360.4z M866,464.9c34.8,0,64.7,29.9,64.7,69.7
		s-29.9,69.7-64.7,69.7c-34.8,0-64.7-29.9-64.7-69.7S826.2,464.9,866,464.9z M985.4,888h-209H577.3c-19.9,0-24.9-14.9-19.9-29.9
		l109.5-238.9c10-14.9,24.9-19.9,34.8-5l114.5,159.3c10,14.9,29.9,14.9,44.8,5l29.9-29.9c14.9-14.9,29.9-10,39.8,5l69.7,109.5
		C1010.3,878,1005.3,888,985.4,888z"/>
</g>
</svg>
