<?xml version="1.0" encoding="utf-8"?>
<!-- Generator: Adobe Illustrator 27.0.0, SVG Export Plug-In . SVG Version: 6.00 Build 0)  -->
<svg version="1.1" id="Capa_1" xmlns="http://www.w3.org/2000/svg" xmlns:xlink="http://www.w3.org/1999/xlink" x="0px" y="0px"
	 viewBox="0 0 1080 1080" style="enable-background:new 0 0 1080 1080;" xml:space="preserve">
<style type="text/css">
	.st0{fill:#546E7A;}
	.st1{fill:#78909C;}
</style>
<path class="st0" d="M899.4,242.9H528.9L425,129c-9.8-14.8-29.6-19.8-44.5-19.8H98.9c-54.4,0-93.9,44.5-93.9,99v594
	c0,54.4,39.5,99,93.9,99h805.4c49.3,0,93.9-44.5,93.9-99V342C993.3,287.5,953.9,242.9,899.4,242.9L899.4,242.9z M899.4,802.2H98.9
	v-594h271.8l103.8,113.9c9.8,14.8,29.6,19.8,44.5,19.8h385.5v460.3H899.4L899.4,802.2z"/>
<path class="st1" d="M1059.7,582.9c-3.4,2.6-63.7,36.6-63.7,112.1c0,87.3,76.7,118.2,79,119c-0.4,1.9-12.2,42.3-40.4,83.5
	c-25.2,36.3-51.5,72.4-91.5,72.4c-40,0-50.3-23.2-96.5-23.2c-45,0-61,24-97.6,24s-62.1-33.5-91.5-74.7
	c-34-48.4-61.5-123.5-61.5-194.9c0-114.4,74.4-175.1,147.6-175.1c38.9,0,71.3,25.5,95.8,25.5c23.2,0,59.5-27.1,103.8-27.1
	C959.8,524.5,1020,526.1,1059.7,582.9L1059.7,582.9z M922,476.1c18.3-21.7,31.3-51.8,31.3-82c0-4.2-0.4-8.4-1.1-11.8
	c-29.8,1.1-65.2,19.8-86.6,44.6c-16.8,19.1-32.4,49.2-32.4,79.7c0,4.6,0.8,9.2,1.1,10.7c1.9,0.4,4.9,0.8,8,0.8
	C869,518,902.6,500.2,922,476.1L922,476.1z"/>
</svg>
