<?xml version="1.0" encoding="utf-8"?>
<!-- Generator: Adobe Illustrator 24.1.1, SVG Export Plug-In . SVG Version: 6.00 Build 0)  -->
<svg version="1.1" id="Capa_1" xmlns="http://www.w3.org/2000/svg" xmlns:xlink="http://www.w3.org/1999/xlink" x="0px" y="0px"
	 viewBox="0 0 1080 1080" style="enable-background:new 0 0 1080 1080;" xml:space="preserve">
<style type="text/css">
	.st0{fill:#26A69A;}
	.st1{fill-rule:evenodd;clip-rule:evenodd;fill:#B2DFDB;}
</style>
<path class="st0" d="M885.6,260.8H520.8L418.5,148.6c-9.7-14.7-29.2-19.5-43.8-19.5H97.4C43.9,129.1,5,173,5,226.6v584.7
	c0,53.6,38.9,97.5,92.4,97.5h793c48.6,0,92.4-43.9,92.4-97.5V358.2C978,304.6,939.2,260.8,885.6,260.8z"/>
<path class="st1" d="M767,712.8c-25.1-71.3-92.5-119-168.1-119c-98.6,0.1-178.4,80-178.5,178.5c0.1,98.6,79.9,178.5,178.5,178.6
	c75.6,0,143-47.7,168.1-119h129.4v119h119v-119h59.5v-119L767,712.8z M598.9,831.8c-32.7,0-59.5-26.8-59.5-59.5
	c0-32.7,26.8-59.5,59.5-59.5c32.7,0,59.5,26.8,59.5,59.5C658.4,805,631.6,831.8,598.9,831.8z"/>
</svg>
