<?xml version="1.0" encoding="utf-8"?>
<!-- Generator: Adobe Illustrator 24.1.1, SVG Export Plug-In . SVG Version: 6.00 Build 0)  -->
<svg version="1.1" id="Capa_1" xmlns="http://www.w3.org/2000/svg" xmlns:xlink="http://www.w3.org/1999/xlink" x="0px" y="0px"
	 viewBox="0 0 1080 1080" style="enable-background:new 0 0 1080 1080;" xml:space="preserve">
<style type="text/css">
	.st0{fill:#039BE5;}
	.st1{fill:#B3E5FC;}
</style>
<path class="st0" d="M880.7,237.5H515.8L413.7,125.4c-9.7-14.6-29.2-19.5-43.8-19.5H92.6C43.9,105.9,5,149.8,5,203.4v584.8
	c0,53.6,38.9,97.5,92.4,97.5h793c48.6,0,92.4-43.9,92.4-97.5V335C973.1,281.4,939.1,237.5,880.7,237.5z M880.7,788.2h-793V203.4
	h267.6l102.2,112.1c9.7,14.6,29.2,19.5,43.8,19.5h379.5V788.2z"/>
<path class="st1" d="M902.4,727.5c0-19.7,4.9-39.4,4.9-59.2s0-39.4-4.9-59.2H1006c4.9,19.7,9.9,39.4,9.9,59.2s-4.9,39.4-9.9,59.2
	 M848.2,900.1c19.7-34.5,34.5-69,44.4-108.5h88.8C951.7,840.9,907.4,880.4,848.2,900.1 M843.3,727.5h-143
	c-4.9-19.7-4.9-39.4-4.9-59.2s0-39.4,4.9-59.2h143c4.9,19.7,4.9,39.4,4.9,59.2S843.3,707.8,843.3,727.5 M769.3,910
	c-24.7-34.5-44.4-78.9-59.2-118.3h118.3C818.6,836,798.9,875.5,769.3,910 M651,545.1h-88.8c29.6-49.3,74-88.8,133.1-108.5
	C675.6,471.1,660.8,510.6,651,545.1 M562.2,791.6H651c9.9,39.4,24.7,74,44.4,108.5C636.2,880.4,586.9,840.9,562.2,791.6
	 M537.6,727.5c-4.9-19.7-9.9-39.4-9.9-59.2s4.9-39.4,9.9-59.2h103.5c0,19.7-4.9,39.4-4.9,59.2s0,39.4,4.9,59.2 M769.3,426.8
	c24.7,34.5,44.4,78.9,59.2,123.3H710.1C724.9,500.7,744.6,461.3,769.3,426.8 M981.3,545.1h-88.8c-9.9-39.4-24.7-74-44.4-108.5
	C907.4,456.3,951.7,495.8,981.3,545.1 M769.3,362.7c-167.6,0-305.7,138.1-305.7,305.7s138.1,305.7,305.7,305.7l0,0
	c167.6,0,305.7-138.1,305.7-305.7l0,0C1075,500.7,941.9,362.7,769.3,362.7L769.3,362.7z"/>
</svg>
