<?xml version="1.0" encoding="utf-8"?>
<!-- Generator: Adobe Illustrator 24.1.1, SVG Export Plug-In . SVG Version: 6.00 Build 0)  -->
<svg version="1.1" id="Capa_1" xmlns="http://www.w3.org/2000/svg" xmlns:xlink="http://www.w3.org/1999/xlink" x="0px" y="0px"
	 viewBox="0 0 1080 1080" style="enable-background:new 0 0 1080 1080;" xml:space="preserve">
<style type="text/css">
	.st0{fill:#00ACC1;}
	.st1{fill-rule:evenodd;clip-rule:evenodd;fill:#80DEEA;}
</style>
<path class="st0" d="M885.6,256.1H520.8L418.5,143.9c-9.7-14.7-29.2-19.5-43.8-19.5H97.4C43.9,124.4,5,168.3,5,221.9v584.7
	c0,53.6,38.9,97.5,92.4,97.5h793c48.6,0,92.4-43.9,92.4-97.5V353.5C978,299.9,939.2,256.1,885.6,256.1z"/>
<path class="st1" d="M761.8,746.3c-62.2,0-112.7-50.5-112.7-112.7s50.5-112.7,112.7-112.7s112.7,50.5,112.7,112.7
	S824.1,746.3,761.8,746.3 M1001.1,664.8c1.3-10.3,2.3-20.6,2.3-31.2c0-10.6-1-21.3-2.3-32.2l67.9-52.5c6.1-4.8,7.7-13.5,3.9-20.6
	l-64.4-111.4c-3.9-7.1-12.6-10-19.6-7.1L908.7,442c-16.7-12.6-34.1-23.5-54.4-31.6l-11.9-85.3c-1.3-7.7-8.1-13.5-16.1-13.5H697.4
	c-8.1,0-14.8,5.8-16.1,13.5l-11.9,85.3c-20.3,8.1-37.7,19-54.4,31.6l-80.2-32.2c-7.1-2.9-15.8,0-19.6,7.1l-64.4,111.4
	c-4.2,7.1-2.3,15.8,3.9,20.6l67.9,52.5c-1.3,10.9-2.3,21.6-2.3,32.2s1,20.9,2.3,31.2l-67.9,53.5c-6.1,4.8-8.1,13.5-3.9,20.6
	l64.4,111.4c3.9,7.1,12.6,9.7,19.6,7.1l80.2-32.5c16.7,12.9,34.1,23.8,54.4,31.9l11.9,85.3c1.3,7.7,8.1,13.5,16.1,13.5h128.8
	c8.1,0,14.8-5.8,16.1-13.5l11.9-85.3c20.3-8.4,37.7-19,54.4-31.9l80.2,32.5c7.1,2.6,15.8,0,19.6-7.1l64.4-111.4
	c3.9-7.1,2.3-15.8-3.9-20.6L1001.1,664.8z"/>
</svg>
