<?xml version="1.0" encoding="utf-8"?>
<!-- Generator: Adobe Illustrator 24.1.1, SVG Export Plug-In . SVG Version: 6.00 Build 0)  -->
<svg version="1.1" id="Capa_1" xmlns="http://www.w3.org/2000/svg" xmlns:xlink="http://www.w3.org/1999/xlink" x="0px" y="0px"
	 viewBox="0 0 1080 1080" style="enable-background:new 0 0 1080 1080;" xml:space="preserve">
<style type="text/css">
	.st0{fill:#0097A7;}
	.st1{fill:#B2EBF2;stroke:#B2EBF2;stroke-width:0.271;stroke-linejoin:round;}
</style>
<path class="st0" d="M880.7,251.9H515.8L413.7,139.8c-9.7-14.6-29.2-19.5-43.8-19.5H92.6C43.9,120.4,5,164.2,5,217.8v584.8
	c0,53.6,38.9,97.5,92.4,97.5h793c48.6,0,92.4-43.9,92.4-97.5V349.4C973.1,295.8,939.1,251.9,880.7,251.9z M880.7,802.6h-793V217.8
	h267.6l102.2,112.1c9.7,14.6,29.2,19.5,43.8,19.5h379.5V802.6z"/>
<path class="st1" d="M781.9,896.1c127,0,234.5-102.6,234.5-234.5S913.8,427.2,781.9,427.2S547.4,529.7,547.4,661.6
	S650,896.1,781.9,896.1 M781.9,373.4c161.2,0,293.1,131.9,293.1,293.1S943.1,959.6,781.9,959.6l0,0
	c-161.2,0-293.1-131.9-293.1-293.1C488.8,500.4,620.7,373.4,781.9,373.4 M791.7,520v151.4l131.9,78.2L904,783.8L752.6,691V515.1
	L791.7,520z"/>
</svg>
