<?xml version="1.0" encoding="utf-8"?>
<!-- Generator: Adobe Illustrator 24.1.1, SVG Export Plug-In . SVG Version: 6.00 Build 0)  -->
<svg version="1.1" id="Capa_1" xmlns="http://www.w3.org/2000/svg" xmlns:xlink="http://www.w3.org/1999/xlink" x="0px" y="0px"
	 viewBox="0 0 1080 1080" style="enable-background:new 0 0 1080 1080;" xml:space="preserve">
<style type="text/css">
	.st0{fill:#8D6E63;}
	.st1{fill-rule:evenodd;clip-rule:evenodd;fill:#D7CCC8;}
</style>
<path class="st0" d="M885.6,272.7H520.8L418.5,160.6c-9.7-14.7-29.2-19.5-43.8-19.5H97.4C43.9,141,5,184.9,5,238.5v584.7
	c0,53.6,38.9,97.5,92.4,97.5h793c48.6,0,92.4-43.9,92.4-97.5V370.1C978,316.5,939.2,272.7,885.6,272.7z"/>
<g transform="matrix(.64045 0 0 .64045 10.292 7.29)">
	<path class="st1" d="M784.7,1271.9v182.8h182.8l539.2-539.2L1324,732.6L784.7,1271.9z M1648.2,774.1c19-19,19-49.7,0-68.7
		l-114.1-114.1c-19-19-49.7-19-68.7,0l-89.2,89.2L1559,863.3L1648.2,774.1z"/>
</g>
</svg>
