<?xml version="1.0" encoding="utf-8"?>
<!-- Generator: Adobe Illustrator 24.1.1, SVG Export Plug-In . SVG Version: 6.00 Build 0)  -->
<svg version="1.1" id="Capa_1" xmlns="http://www.w3.org/2000/svg" xmlns:xlink="http://www.w3.org/1999/xlink" x="0px" y="0px"
	 viewBox="0 0 1080 1080" style="enable-background:new 0 0 1080 1080;" xml:space="preserve">
<style type="text/css">
	.st0{fill:#7E57C2;}
	.st1{fill:#D1C4E9;}
</style>
<path class="st0" d="M885.6,249.5H520.7L418.5,137.4c-9.7-14.6-29.2-19.5-43.8-19.5H97.4C43.9,117.9,5,161.8,5,215.4v584.8
	c0,53.6,38.9,97.5,92.4,97.5h793c48.6,0,92.4-43.9,92.4-97.5V346.9C978,293.3,939.1,249.5,885.6,249.5z M885.6,800.2H97.4V215.4H365
	l102.2,112.1c9.7,14.6,29.2,19.5,43.8,19.5h379.5v453.2H885.6z"/>
<path class="st1" d="M762.3,336.8c-175.9,0-312.7,141.7-312.7,312.7c0,175.9,141.7,312.7,312.7,312.7
	c175.9,0,312.7-141.7,312.7-312.7c0-29.3-4.9-58.6-9.8-83l0,0c0,0,0,0,0-4.9l0,0c-4.9-4.9-9.8-9.8-14.7-9.8
	c-9.8,0-14.7,4.9-14.7,14.7l0,0v4.9l0,0c4.9,24.4,9.8,48.9,9.8,78.2c0,73.3-29.3,146.6-83,200.3c-53.7,53.7-122.1,83-200.3,83
	c-73.3,0-146.6-29.3-200.3-83c-53.7-53.7-83-122.1-83-200.3c0-73.3,29.3-146.6,83-200.3s122.1-83,200.3-83
	c68.4,0,131.9,24.4,180.8,68.4c0,4.9-4.9,9.8-4.9,14.7c0,19.5,19.5,39.1,39.1,39.1c19.5,0,39.1-19.5,39.1-39.1
	c0-19.5-14.7-39.1-39.1-39.1c-4.9,0-9.8,0-14.7,0C908.9,366.1,840.5,336.8,762.3,336.8L762.3,336.8z M723.3,483.3L606,786.2h73.3
	l19.5-48.9h107.5l-19.5-58.6h-73.3l48.9-127l83,234.5h73.3L801.4,483.3L723.3,483.3z"/>
</svg>
