<?xml version="1.0" encoding="utf-8"?>
<!-- Generator: Adobe Illustrator 24.1.1, SVG Export Plug-In . SVG Version: 6.00 Build 0)  -->
<svg version="1.1" id="Capa_1" xmlns="http://www.w3.org/2000/svg" xmlns:xlink="http://www.w3.org/1999/xlink" x="0px" y="0px"
	 viewBox="0 0 1080 1080" style="enable-background:new 0 0 1080 1080;" xml:space="preserve">
<style type="text/css">
	.st0{fill:#0277BD;}
	.st1{fill:#B3E5FC;}
</style>
<path class="st0" d="M880.7,255.5H515.8L413.7,143.4c-9.7-14.6-29.2-19.5-43.8-19.5H92.6C43.9,123.9,5,167.8,5,221.4v584.8
	c0,53.6,38.9,97.5,92.4,97.5h793c48.6,0,92.4-43.9,92.4-97.5V352.9C973.1,299.3,939.1,255.5,880.7,255.5z M880.7,806.1h-793V221.4
	h267.6l102.2,112.1c9.7,14.6,29.2,19.5,43.8,19.5h379.5V806.1z"/>
<g transform="matrix(.052005 0 0 .052003 16.891 -16.073)">
	<g transform="translate(-40.058,5e-6)">
		<path class="st1" d="M12796.8,7246.7L12796.8,7246.7c-117.2,0-224.7,0-307.7,0c-366.3-4.9-674,200.2-942.6,405.4
			c-293,229.5-542.1,527.5-620.3,932.8c-44,234.4-34.2,439.6-34.2,644.7V10851c0,571.4-214.9,996.3-503,1274.7
			c-161.2,161.2-507.9,307.7-903.5,439.6v732.6c351.6,97.7,688.6,229.5,874.2,390.7c307.7,268.6,532.3,659.3,532.3,1167.3v1895
			c0,630,151.4,1108.6,586.1,1435.9c434.7,327.2,947.5,493.3,1523.8,507.9l390.7-4.9v-942.6c-302.8-87.9-473.7-190.5-591-307.7
			c-219.8-200.2-341.9-517.7-341.9-967v-1528.7c-9.8-517.7-92.8-927.9-283.3-1221c-190.5-293-556.8-551.9-1108.6-771.7
			c605.6-278.4,1015.9-639.8,1221-1089.1c122.1-263.7,170.9-625.1,170.9-1074.5V9385.8c0-464,107.4-786.3,293-971.9
			c102.6-102.6,278.4-185.6,532.3-249.1l395.6,4.9v-927.9L12796.8,7246.7L12796.8,7246.7L12796.8,7246.7z"/>
		<path class="st1" d="M17075.1,7246.7L17075.1,7246.7c117.2,0,224.7,0,307.7,0c366.3-4.9,674,200.2,942.6,405.4
			c293,229.5,542.1,527.5,620.3,932.8c44,234.4,34.2,439.6,34.2,644.7V10851c0,571.4,214.9,996.3,503,1274.7
			c161.2,161.2,507.9,307.7,903.5,439.6v732.6c-351.6,97.7-688.6,229.5-874.2,390.7c-307.7,268.6-532.3,659.3-532.3,1167.3v1895
			c0,630-151.4,1108.6-586.1,1435.9s-947.5,493.3-1523.8,507.9l-390.7-4.9v-942.6c302.8-87.9,473.7-190.5,591-307.7
			c219.8-200.2,341.9-517.7,341.9-967v-1528.7c9.8-517.7,92.8-927.9,283.3-1221s556.8-551.9,1108.6-771.7
			c-605.6-278.4-1015.9-639.8-1221-1089.1c-122.1-263.7-170.9-625.1-170.9-1074.5V9385.8c0-464-107.4-786.3-293-971.9
			c-102.6-102.6-278.4-185.6-532.3-249.1l-395.6,4.9v-927.9L17075.1,7246.7L17075.1,7246.7L17075.1,7246.7z"/>
	</g>
</g>
</svg>
