<?xml version="1.0" encoding="utf-8"?>
<!-- Generator: Adobe Illustrator 24.1.1, SVG Export Plug-In . SVG Version: 6.00 Build 0)  -->
<svg version="1.1" id="Capa_1" xmlns="http://www.w3.org/2000/svg" xmlns:xlink="http://www.w3.org/1999/xlink" x="0px" y="0px"
	 viewBox="0 0 1080 1080" style="enable-background:new 0 0 1080 1080;" xml:space="preserve">
<style type="text/css">
	.st0{fill:#03A9F4;}
	.st1{fill:#FFFFFF;fill-opacity:0.785;}
	.st2{fill:#8ED6FB;}
	.st3{fill:#1C78C0;}
</style>
<path class="st0" d="M880.7,226.2H515.8L413.7,114.1c-9.7-14.6-29.2-19.5-43.8-19.5H92.6C43.9,94.7,5,138.5,5,192.1v584.8
	c0,53.6,38.9,97.5,92.4,97.5h793c48.6,0,92.4-43.9,92.4-97.5V323.7C973.1,270.1,939.1,226.2,880.7,226.2z M880.7,776.9h-793V192.1
	h267.6l102.2,112.1c9.7,14.6,29.2,19.5,43.8,19.5h379.5V776.9z"/>
<g transform="matrix(.66328 0 0 .66328 9.1925 7.4807)">
	<path class="st1" d="M1512.4,1176l-382.9,223.7L746.7,1176V733.4l382.9-223.7l382.9,223.7V1176z"/>
	<path class="st2" d="M1159.4,479.9c-9.9,0-19.9,5-29.8,9.9L736.7,708.6c-14.9,9.9-24.9,24.9-24.9,44.7v447.5
		c0,19.9,9.9,34.8,24.9,44.7l392.8,218.8c9.9,5,19.9,9.9,29.8,9.9s19.9-5,29.8-9.9l392.8-218.8c14.9-9.9,24.9-24.9,24.9-44.7V753.3
		c0-19.9-9.9-34.8-24.9-44.7l-392.8-218.8C1179.3,479.9,1169.3,479.9,1159.4,479.9z M1159.4,584.3l348.1,193.9v104.4l0,0v258.6l0,0
		v24.9l-348.1,193.9L811.3,1166V783.2L1159.4,584.3z M1159.4,688.7L915.7,827.9l243.6,139.2L1403,827.9L1159.4,688.7z M910.8,942.3
		v179l198.9,114.4v-179L910.8,942.3z M1408,942.3l-198.9,114.4v179l198.9-114.4V942.3z"/>
	<path class="st3" d="M1159.4,688.7L915.7,827.9l243.6,139.2L1403,827.9L1159.4,688.7z M910.8,942.3v179l198.9,114.4v-179
		L910.8,942.3z M1408,942.3l-198.9,114.4v179l198.9-114.4V942.3z"/>
</g>
</svg>
