<?xml version="1.0" encoding="utf-8"?>
<!-- Generator: Adobe Illustrator 27.0.0, SVG Export Plug-In . SVG Version: 6.00 Build 0)  -->
<svg version="1.1" id="Capa_1" xmlns="http://www.w3.org/2000/svg" xmlns:xlink="http://www.w3.org/1999/xlink" x="0px" y="0px"
	 viewBox="0 0 1080 1080" style="enable-background:new 0 0 1080 1080;" xml:space="preserve">
<style type="text/css">
	.st0{fill:#FF6E40;}
	.st1{fill-rule:evenodd;clip-rule:evenodd;fill:#FFCCBC;stroke:#FFCCBC;stroke-width:0.2932;stroke-linejoin:round;}
</style>
<path class="st0" d="M396.98,109.31H103c-54.39,0-98,43.61-98,98v587.97c0,53.75,44.24,98,98,98h783.96c53.75,0,98-44.24,98-98
	V305.3c0-54.12-43.87-98-98-98H494.98L396.98,109.31z"/>
<g>
	<path class="st1" d="M871.28,780.73c26.06-2.33,45.3-25.35,42.97-51.42c-2.22-24.75-23.17-43.58-48.01-43.15h-1.71
		c-26.07,0.9-46.48,22.77-45.57,48.84c0,0.05,0,0.11,0.01,0.16c0.58,11.69,5.36,22.77,13.47,31.21
		c-28.66,56.59-72.57,97.95-138.42,132.54c-44.73,23.67-91.14,32.09-137.59,26.16c-37.97-5.05-67.52-21.95-86.09-49.78
		c-27.05-41.35-29.55-86.14-6.76-130.82c13.79-26.56,33.41-49.65,57.38-67.57c-4.36-14.15-8.02-28.51-10.98-43.02
		c-122.4,88.59-109.76,208.49-72.57,265.08c27.83,42.14,84.37,68.35,146.85,68.35c16.9,0,33.81-1.71,50.66-5.93
		C742.96,940.31,824.83,876.12,871.28,780.73z"/>
	<path class="st1" d="M1019.84,676.07c-64.19-75.11-158.7-116.52-266.74-116.52h-13.52c-7.94-15.53-23.91-25.3-41.35-25.28h-1.67
		c-26.11,0.46-46.91,22-46.45,48.12c0.46,26.11,22,46.91,48.12,46.45h1.71c18.15-0.89,34.2-12.06,41.35-28.76h15.19
		c64.19,0,124.94,18.62,179.82,54.88c42.14,27.88,72.57,64.19,89.47,108.04c14.31,35.47,13.47,70.07-1.71,99.61
		c-23.62,44.73-63.31,69.23-115.63,69.23c-33.81,0-65.85-10.14-82.71-17.74c-9.31,8.48-26.21,21.95-38.02,30.38
		c36.31,16.9,73.5,26.21,108.92,26.21c81.04,0,140.97-44.78,163.75-89.52C1084.86,832.22,1083.15,747.8,1019.84,676.07z"/>
	<path class="st1" d="M591.01,795.08c0.83,25.33,21.95,45.57,47.28,45.57h1.67c26.11-0.46,46.91-22,46.45-48.12
		c-0.46-26.11-22-46.91-48.12-46.45l0,0h-1.71c-1.67,0-4.21,0-5.88,0.88c-34.59-57.38-49-119.85-43.9-187.42
		c3.38-50.61,20.29-94.57,49.78-130.82c24.5-31.21,71.78-46.4,103.88-47.28c89.47-1.67,127.44,109.76,129.99,154.49
		c10.98,2.55,29.55,8.43,42.19,12.69c-10.14-136.75-94.57-207.7-175.56-207.7c-75.95,0-146.01,54.88-173.94,135.92
		c-38.81,108.04-13.47,211.87,33.81,293.74c-4.69,7.26-6.77,15.9-5.88,24.5L591.01,795.08z"/>
</g>
</svg>
