<?xml version="1.0" encoding="utf-8"?>
<!-- Generator: Adobe Illustrator 24.1.1, SVG Export Plug-In . SVG Version: 6.00 Build 0)  -->
<svg version="1.1" id="Capa_1" xmlns="http://www.w3.org/2000/svg" xmlns:xlink="http://www.w3.org/1999/xlink" x="0px" y="0px"
	 viewBox="0 0 1080 1080" style="enable-background:new 0 0 1080 1080;" xml:space="preserve">
<style type="text/css">
	.st0{fill:#FFCA28;}
	.st1{fill:#FFECB3;}
</style>
<path class="st0" d="M885.6,260H520.8L418.5,147.9c-9.7-14.7-29.2-19.5-43.8-19.5H97.4C43.9,128.4,5,172.3,5,225.9v584.7
	c0,53.6,38.9,97.5,92.4,97.5h793c48.6,0,92.4-43.9,92.4-97.5V357.4C978,303.8,939.2,260,885.6,260z"/>
<g transform="matrix(.66602 0 0 .66602 2.6082 .73828)">
	<path class="st1" d="M1212.3,1203c27.7,56,85.2,91.5,147.7,90.9c62.1,0,101.4-31,101.4-73.9c0-51.1-40.7-69.5-108.8-99.2
		l-37.6-16.2c-107.5-45.9-180.1-103.2-180.1-225.1c0-112.4,87.4-197.6,218.6-197.6c88.4-6.4,172.5,40.9,212.9,119.8l-116.3,74.8
		c-15.6-39.4-54.2-65.1-96.6-64.3c-2.2-0.2-4.4-0.3-6.6-0.3c-33.2,0-61.4,25.5-64.8,58.6c-0.2,2-0.3,4-0.3,6c0,43.7,28,63,91.8,90.9
		l37.6,16.2c127.2,54.9,198.9,110.2,198.9,235.2c0,134.7-105.8,208.5-247.8,208.5c-112.4,6.6-218.7-53.5-271.1-153.3L1212.3,1203z
		 M684.3,1216.2c23.6,43.7,43.7,76.9,96.2,76.9c52.4,0,79.8-19.2,79.8-94V691.6h149.7v509.7c0,154.7-90.9,225.6-223.4,225.6
		c-95.7,5.1-185.1-49.4-224.2-136.8L684.3,1216.2z"/>
</g>
</svg>
