<?xml version="1.0" encoding="utf-8"?>
<!-- Generator: Adobe Illustrator 24.1.1, SVG Export Plug-In . SVG Version: 6.00 Build 0)  -->
<svg version="1.1" id="Capa_1" xmlns="http://www.w3.org/2000/svg" xmlns:xlink="http://www.w3.org/1999/xlink" x="0px" y="0px"
	 viewBox="0 0 1080 1080" style="enable-background:new 0 0 1080 1080;" xml:space="preserve">
<style type="text/css">
	.st0{fill:#FFCA28;}
	.st1{fill:#FFECB3;}
</style>
<path class="st0" d="M885.6,244.9H520.7L418.5,132.8c-9.7-14.6-29.2-19.5-43.8-19.5H97.4C43.9,113.3,5,157.2,5,210.8v584.8
	C5,849.2,43.9,893,97.4,893h793c48.6,0,92.4-43.9,92.4-97.5V342.4C978,288.7,939.1,244.9,885.6,244.9z M885.6,795.6H97.4V210.8H365
	l102.2,112.1c9.7,14.6,29.2,19.5,43.8,19.5h379.5v453.2H885.6z"/>
<g transform="matrix(.66602 0 0 .66602 2.6081 .73833)">
	<path class="st1" d="M1207.4,1231.2c29.8,54.7,84.5,89.5,149.2,89.5c59.7,0,99.4-29.8,99.4-74.6c0-49.7-39.8-69.6-109.4-99.4
		l-39.8-14.9c-109.4-44.7-179-104.4-179-223.7c0-114.4,89.5-198.9,218.8-198.9c89.5-5,174,39.8,213.8,119.3l-114.4,74.6
		c-14.9-39.8-54.7-64.6-94.5-64.6h-5c-34.8,0-59.7,24.9-64.6,59.7v5c0,44.7,29.8,64.6,89.5,89.5l39.8,14.9
		c124.3,54.7,198.9,109.4,198.9,233.7c0,134.2-104.4,208.8-248.6,208.8c-114.4,5-218.8-54.7-268.5-154.1L1207.4,1231.2z
		 M680.4,1241.2c24.9,44.7,44.7,74.6,94.5,74.6c49.7,0,79.6-19.9,79.6-94.5V719.1h149.2v507.1c0,154.1-89.5,223.7-223.7,223.7
		c-94.5,5-184-49.7-223.7-134.2L680.4,1241.2z"/>
</g>
</svg>
