<?xml version="1.0" encoding="utf-8"?>
<!-- Generator: Adobe Illustrator 24.1.1, SVG Export Plug-In . SVG Version: 6.00 Build 0)  -->
<svg version="1.1" id="Capa_1" xmlns="http://www.w3.org/2000/svg" xmlns:xlink="http://www.w3.org/1999/xlink" x="0px" y="0px"
	 viewBox="0 0 1080 1080" style="enable-background:new 0 0 1080 1080;" xml:space="preserve">
<style type="text/css">
	.st0{fill:#616161;}
	.st1{fill:#848992;}
	.st2{fill:#FFFFFF;}
</style>
<path class="st0" d="M885.6,262.7H520.7L418.6,150.6c-9.7-14.7-29.2-19.5-43.8-19.5H97.4C43.9,131.1,5,174.9,5,228.5v584.8
	c0,53.6,38.9,97.5,92.4,97.5h793c48.7,0,92.4-43.9,92.4-97.5V360.1C978,306.5,939.2,262.7,885.6,262.7z"/>
<g transform="matrix(.93781 0 0 .93781 6.3843 4.1861)">
	<g transform="matrix(.061679 0 0 .061679 2.5631 2.568)">
		<path class="st1" d="M18432.5,11102.2c0,2846.9-2342.6,5189.3-5189.3,5189.3s-5189.3-2342.6-5189.3-5189.3
			s2342.6-5189.3,5189.3-5189.3h0.3c2846.7,0,5189.3,2342.5,5189.3,5189.3v0.3"/>
	</g>
	<g transform="matrix(.061679 0 0 .061679 2.5631 2.568)">
		<path class="st2" d="M13330.7,9156.9l1343.1,3314.5l-2028.6-1597.8C12645.1,10873.7,13330.7,9156.9,13330.7,9156.9z
			 M15716.4,13235l-2065.7-4971.1c-48.6-133.7-177.8-222.3-320-219.3c-144.5-3.3-276.3,84.7-328.7,219.3l-2267.2,5452.7h775.6
			l897.4-2248.3l2678.3,2163.9c107.8,87.2,185.4,126.6,286.6,126.6c2.9,0,5.8,0.1,8.7,0.1c203.2,0,370.5-167.3,370.5-370.5v-0.3
			C15748.3,13335.4,15736.3,13283.8,15716.4,13235"/>
	</g>
</g>
</svg>
