<?xml version="1.0" encoding="utf-8"?>
<!-- Generator: Adobe Illustrator 24.1.1, SVG Export Plug-In . SVG Version: 6.00 Build 0)  -->
<svg version="1.1" id="Capa_1" xmlns="http://www.w3.org/2000/svg" xmlns:xlink="http://www.w3.org/1999/xlink" x="0px" y="0px"
	 viewBox="0 0 1080 1080" style="enable-background:new 0 0 1080 1080;" xml:space="preserve">
<style type="text/css">
	.st0{fill:#1976D2;}
	.st1{fill-rule:evenodd;clip-rule:evenodd;fill:#BBDEFB;}
</style>
<path class="st0" d="M885.6,271.5H520.8L418.5,159.4c-9.7-14.7-29.2-19.5-43.8-19.5H97.4C43.9,139.8,5,183.7,5,237.3v584.7
	c0,53.6,38.9,97.5,92.4,97.5h793c48.6,0,92.4-43.9,92.4-97.5V368.9C978,315.3,939.2,271.5,885.6,271.5z"/>
<g transform="translate(-40.252 111.06)">
	<path class="st1" d="M868.5,293.5c-24-36.6-29.7-41.4-78.6-41.4h-1.1c-48.8,0-54.3,4.9-78.6,41.4
		C687.6,327.8,463.7,738,463.7,749.4c0,16.6,4.3,32.3,19.7,54.6c15.7,22.6,42.8,35.1,62.6,15.1c13.4-13.4,157.1-261.1,226.5-354.8
		c8.3-11.7,25.4-11.7,34,0c69.4,93.7,213.1,341.3,226.5,354.8c19.7,20,46.8,7.4,62.6-15.1c15.4-22.3,19.7-38,19.7-54.6
		C1115,738,891,327.5,868.5,293.5L868.5,293.5z"/>
</g>
</svg>
