<?xml version="1.0" encoding="utf-8"?>
<!-- Generator: Adobe Illustrator 24.1.1, SVG Export Plug-In . SVG Version: 6.00 Build 0)  -->
<svg version="1.1" id="Capa_1" xmlns="http://www.w3.org/2000/svg" xmlns:xlink="http://www.w3.org/1999/xlink" x="0px" y="0px"
	 viewBox="0 0 1080 1080" style="enable-background:new 0 0 1080 1080;" xml:space="preserve">
<style type="text/css">
	.st0{fill:#FF8A65;}
	.st1{fill-rule:evenodd;clip-rule:evenodd;fill:#FBE9E7;fill-opacity:0.949;}
</style>
<path class="st0" d="M885.6,266.5H520.8L418.5,154.4c-9.7-14.7-29.2-19.5-43.8-19.5H97.4C43.9,134.9,5,178.8,5,232.4v584.7
	c0,53.6,38.9,97.5,92.4,97.5h793c48.6,0,92.4-43.9,92.4-97.5V363.9C978,310.3,939.2,266.5,885.6,266.5z"/>
<path class="st1" d="M926.1,677.2H628.4v-59.6h297.8 M777.2,349.6c-164.4,0-297.8,133.3-297.8,297.8s133.3,297.8,297.8,297.8
	S1075,811.8,1075,647.4S941.7,349.6,777.2,349.6z"/>
</svg>
