<?xml version="1.0" encoding="utf-8"?>
<!-- Generator: Adobe Illustrator 24.1.1, SVG Export Plug-In . SVG Version: 6.00 Build 0)  -->
<svg version="1.1" id="Capa_1" xmlns="http://www.w3.org/2000/svg" xmlns:xlink="http://www.w3.org/1999/xlink" x="0px" y="0px"
	 viewBox="0 0 1080 1080" style="enable-background:new 0 0 1080 1080;" xml:space="preserve">
<style type="text/css">
	.st0{fill:#42A5F5;}
	.st1{fill:#3C78AA;}
	.st2{fill:#FDD835;}
</style>
<path class="st0" d="M880.7,247.1H515.8L413.7,135c-9.7-14.6-29.2-19.5-43.8-19.5H92.6C43.9,115.5,5,159.4,5,213v584.8
	c0,53.6,38.9,97.5,92.4,97.5h793c48.6,0,92.4-43.9,92.4-97.5V344.6C973.1,291,939.1,247.1,880.7,247.1z M880.7,797.8h-793V213h267.6
	l102.2,112.1c9.7,14.6,29.2,19.5,43.8,19.5h379.5V797.8z"/>
<g transform="matrix(.6453 0 0 .64533 9.5434 7.2458)">
	<g>
		<path class="st1" d="M1058,511c-77.8,0-141,63.2-141,141v82.7H1126c19.4,0,34,29.2,34,48.6H814.9c-77.8-4.9-141,58.3-141,136.1
			v184.7c0,72.9,63.2,136.1,141,136.1h53.5V1109c0-77.8,63.2-141,141-141H1267c77.8,0,141-63.2,141-141V652
			c-4.9-77.8-68.1-141-145.9-141H1058z M1019.1,588.8c19.4,0,34,4.9,34,34c0,29.2-14.6,43.8-34,43.8s-34-14.6-34-43.8
			C985,593.6,1004.5,588.8,1019.1,588.8z"/>
		<path class="st2" d="M1451.8,754.1v131.3c0,77.8-63.2,141-136.1,141H1058c-77.8,0-141,63.2-141,136.1v179.9
			c0,77.8,63.2,141,141,141l0,0H1267c77.8,0,141-63.2,141-141l0,0v-82.7H1199c-19.4,0-34-29.2-34-48.6h345.2
			c77.8,0,141-63.2,141-141l0,0V895c-4.9-77.8-68.1-141-145.9-141H1451.8z M980.2,972.8L980.2,972.8L980.2,972.8L980.2,972.8z
			 M1301.1,1327.7c19.4,0,34,14.6,34,43.8c0,19.4-14.6,34-34,34c-19.4,0-34-4.9-34-34C1267,1342.3,1281.6,1327.7,1301.1,1327.7z"/>
	</g>
</g>
</svg>
