<?xml version="1.0" encoding="utf-8"?>
<!-- Generator: Adobe Illustrator 24.1.1, SVG Export Plug-In . SVG Version: 6.00 Build 0)  -->
<svg version="1.1" id="Capa_1" xmlns="http://www.w3.org/2000/svg" xmlns:xlink="http://www.w3.org/1999/xlink" x="0px" y="0px"
	 viewBox="0 0 1080 1080" style="enable-background:new 0 0 1080 1080;" xml:space="preserve">
<style type="text/css">
	.st0{fill:#00BFA5;}
	.st1{fill-rule:evenodd;clip-rule:evenodd;fill:#A7FFEB;}
</style>
<path class="st0" d="M880.7,226.1H515.8L413.7,114c-9.7-14.6-29.2-19.5-43.8-19.5H92.6C43.9,94.5,5,138.4,5,192v584.8
	c0,53.6,38.9,97.5,92.4,97.5h793c48.6,0,92.4-43.9,92.4-97.5V323.6C973.1,269.9,939.1,226.1,880.7,226.1z M880.7,776.8h-793V192
	h267.6l102.2,112.1c9.7,14.6,29.2,19.5,43.8,19.5h379.5V776.8z"/>
<g id="prisma" transform="translate(-1.4437)">
	<path class="st1" d="M1016.4,842.3l-311.9,92c-10.2,5.1-20.5-5.1-15.3-15.3l112.5-521.6c0-10.2,15.3-10.2,20.5,0L1031.7,827
		C1031.7,827,1026.6,837.2,1016.4,842.3z M1072.6,821.9l-240.3-496c-5.1-10.2-20.5-20.5-30.7-20.5c-15.3,0-25.6,5.1-35.8,15.3
		L505,729.8c-10.2,15.3-10.2,30.7,0,40.9L632.8,965c5.1,10.2,20.5,20.5,35.8,20.5c5.1,0,10.2,0,10.2,0L1047,878.1
		c10.2-5.1,20.5-10.2,25.6-20.5C1077.7,842.3,1077.7,832.1,1072.6,821.9z"/>
</g>
</svg>
