<?xml version="1.0" encoding="utf-8"?>
<!-- Generator: Adobe Illustrator 24.1.1, SVG Export Plug-In . SVG Version: 6.00 Build 0)  -->
<svg version="1.1" id="Capa_1" xmlns="http://www.w3.org/2000/svg" xmlns:xlink="http://www.w3.org/1999/xlink" x="0px" y="0px"
	 viewBox="0 0 1080 1080" style="enable-background:new 0 0 1080 1080;" xml:space="preserve">
<style type="text/css">
	.st0{fill:#43A047;}
	.st1{fill-rule:evenodd;clip-rule:evenodd;fill:#C8E6C9;}
</style>
<path class="st0" d="M885.6,256.1H520.8L418.5,143.9c-9.7-14.7-29.2-19.5-43.8-19.5H97.4C43.9,124.4,5,168.3,5,221.9v584.7
	c0,53.6,38.9,97.5,92.4,97.5h793c48.6,0,92.4-43.9,92.4-97.5V353.5C978,299.9,939.2,256.1,885.6,256.1z"/>
<path class="st1" d="M798.8,280.3L522.5,403.1v184.2c0,170.4,117.9,329.7,276.2,368.3c158.4-38.7,276.2-198,276.2-368.3V403.1
	L798.8,280.3 M798.8,464.5c43,0,85.9,33.8,85.9,76.7v46c18.4,0,36.8,18.4,36.8,39.9v107.4c0,18.4-18.4,36.8-39.9,36.8H712.8
	c-18.4,0-36.8-18.4-36.8-39.9V624.1c0-18.4,18.4-36.8,36.8-36.8v-46C712.8,498.3,755.8,464.5,798.8,464.5 M798.8,501.3
	c-24.6,0-46,15.3-46,39.9v46h92.1v-46C844.8,516.7,823.3,501.3,798.8,501.3z"/>
</svg>
