<?xml version="1.0" encoding="utf-8"?>
<!-- Generator: Adobe Illustrator 24.1.1, SVG Export Plug-In . SVG Version: 6.00 Build 0)  -->
<svg version="1.1" id="Capa_1" xmlns="http://www.w3.org/2000/svg" xmlns:xlink="http://www.w3.org/1999/xlink" x="0px" y="0px"
	 viewBox="0 0 1080 1080" style="enable-background:new 0 0 1080 1080;" xml:space="preserve">
<style type="text/css">
	.st0{fill:#EF5350;}
	.st1{fill:#FFCDD2;stroke:#FFCDD2;stroke-width:5.051249e-02;stroke-linejoin:round;stroke-miterlimit:1.7228;}
</style>
<path class="st0" d="M880.7,244.1H515.8L413.7,132c-9.7-14.6-29.2-19.5-43.8-19.5H92.6C43.9,112.5,5,156.4,5,210v584.8
	c0,53.6,38.9,97.5,92.4,97.5h793c48.6,0,92.4-43.9,92.4-97.5V341.6C973.1,288,939.1,244.1,880.7,244.1z M880.7,794.8h-793V210h267.6
	l102.2,112.1c9.7,14.6,29.2,19.5,43.8,19.5h379.5V794.8z"/>
<g transform="matrix(.17228 0 0 .17228 8.378 6.4364)">
	<path class="st1" d="M5019.7,4486c140.8-14.6,247.6-135.9,242.7-281.6c-4.9-145.6-126.2-262.1-271.9-262.1h-9.7
		c-150.5,4.9-267,131.1-262.1,281.6c4.9,72.8,34,135.9,77.7,179.6c-165.1,325.3-417.5,563.1-796.1,762.2
		c-257.3,135.9-524.3,184.5-791.3,150.5c-218.5-29.1-388.4-126.2-495.2-286.4c-155.3-237.9-169.9-495.2-38.8-752.4
		c92.2-184.5,237.9-320.4,330.1-388.4c-19.4-63.1-48.5-169.9-63.1-247.6C2238,4151,2310.8,4840.4,2524.4,5165.6
		c160.2,242.7,485.5,393.2,844.7,393.2c97.1,0,194.2-9.7,291.3-34C4281.8,5403.5,4752.7,5034.5,5019.7,4486z"/>
	<path class="st1" d="M5874.1,3884c-368.9-432.1-912.6-669.9-1534-669.9h-77.7c-43.7-87.4-135.9-145.6-237.9-145.6h-9.7
		c-150.5,4.9-267,131.1-262.1,281.6c4.9,145.6,126.2,262.1,271.9,262.1h9.7c106.8-4.9,199-72.8,237.9-165.1h87.4
		c368.9,0,718.5,106.8,1034,315.5c242.7,160.2,417.5,368.9,514.6,621.4c82.5,203.9,77.7,402.9-9.7,572.8
		c-135.9,257.3-364.1,398.1-665.1,398.1c-194.2,0-378.7-58.3-475.7-101.9c-53.4,48.5-150.5,126.2-218.5,174.8
		c208.7,97.1,422.3,150.5,626.2,150.5c466,0,810.7-257.3,941.8-514.6C6247.9,4782.1,6238.1,4296.6,5874.1,3884z"/>
	<path class="st1" d="M3408,4568.5c4.9,145.6,126.2,262.1,271.9,262.1h9.7c150.5-4.9,267-131.1,262.1-281.6
		c-4.9-145.6-126.2-262.1-271.9-262.1h-9.7c-9.7,0-24.3,0-34,4.9c-199-330.1-281.6-689.3-252.4-1077.7
		c19.4-291.3,116.5-543.7,286.4-752.4c140.8-179.6,412.6-267,597.1-271.9c514.6-9.7,733,631.1,747.6,888.4
		c63.1,14.6,169.9,48.5,242.7,72.8c-58.3-786.4-543.7-1194.2-1009.7-1194.2c-436.9,0-839.8,315.5-1000,781.6
		c-223.3,621.4-77.7,1218.5,194.2,1689.4C3417.7,4461.7,3403.1,4515.1,3408,4568.5z"/>
</g>
</svg>
