<?xml version="1.0" encoding="utf-8"?>
<!-- Generator: Adobe Illustrator 24.1.1, SVG Export Plug-In . SVG Version: 6.00 Build 0)  -->
<svg version="1.1" id="Capa_1" xmlns="http://www.w3.org/2000/svg" xmlns:xlink="http://www.w3.org/1999/xlink" x="0px" y="0px"
	 viewBox="0 0 1080 1080" style="enable-background:new 0 0 1080 1080;" xml:space="preserve">
<style type="text/css">
	.st0{fill:#F06292;}
	.st1{fill-rule:evenodd;clip-rule:evenodd;fill:url(#SVGID_1_);}
	.st2{fill-rule:evenodd;clip-rule:evenodd;fill:url(#SVGID_2_);}
	.st3{fill-rule:evenodd;clip-rule:evenodd;fill:url(#SVGID_3_);}
	.st4{fill-rule:evenodd;clip-rule:evenodd;fill:url(#SVGID_4_);}
	.st5{fill-rule:evenodd;clip-rule:evenodd;fill:url(#SVGID_5_);}
	.st6{fill-rule:evenodd;clip-rule:evenodd;fill:url(#SVGID_6_);}
	.st7{fill-rule:evenodd;clip-rule:evenodd;fill:url(#SVGID_7_);}
	.st8{fill-rule:evenodd;clip-rule:evenodd;fill:#714896;}
	.st9{fill-rule:evenodd;clip-rule:evenodd;fill:#6F4795;}
	.st10{fill-rule:evenodd;clip-rule:evenodd;fill:#88519F;}
	.st11{fill-rule:evenodd;clip-rule:evenodd;fill:#85509E;}
	.st12{fill-rule:evenodd;clip-rule:evenodd;fill:#8D166A;}
	.st13{fill-rule:evenodd;clip-rule:evenodd;fill:#A70D6F;}
	.st14{fill-rule:evenodd;clip-rule:evenodd;fill:#9E61AD;}
	.st15{fill-rule:evenodd;clip-rule:evenodd;fill:#8053A3;}
	.st16{fill-rule:evenodd;clip-rule:evenodd;fill:url(#SVGID_8_);}
</style>
<path class="st0" d="M885.6,261.7H520.7L418.6,149.5c-9.7-14.7-29.2-19.5-43.8-19.5H97.4C43.9,130,5,173.9,5,227.5v584.8
	c0,53.6,38.9,97.5,92.4,97.5h793c48.7,0,92.4-43.9,92.4-97.5V359.1C978,305.5,939.2,261.7,885.6,261.7z"/>
<g id="Main-Navigation" transform="translate(-150.2 -137.06)">
	<g id="Main-Navigation---Home" transform="translate(-7.4835 -32.744)">
		<g id="Icon" transform="matrix(.31022 .061897 -.061897 .31022 169.49 177.35)">
			<g id="Group" transform="rotate(-11.284 17.839 -78.732)">
				
					<linearGradient id="SVGID_1_" gradientUnits="userSpaceOnUse" x1="3754.821" y1="3474.2861" x2="6274.3223" y2="1161.0663" gradientTransform="matrix(0.3031 0 0 -0.3301 18.0776 1121.7634)">
					<stop  offset="0" style="stop-color:#C06FBB"/>
					<stop  offset="1" style="stop-color:#6E4D9B"/>
				</linearGradient>
				<path class="st1" d="M2639.3,1348.3l-190,126.8l-195.7-293.3l190-126.8L2639.3,1348.3z"/>
			</g>
			<g transform="rotate(-11.284 129.49 -99.884)">
				
					<linearGradient id="SVGID_2_" gradientUnits="userSpaceOnUse" x1="9531.2168" y1="-5183.6089" x2="8174.3667" y2="-3330.9397" gradientTransform="matrix(0.3044 0 0 -0.3287 18.7441 1109.731)">
					<stop  offset="0" style="stop-color:#6E4D9B"/>
					<stop  offset="0.14" style="stop-color:#77327A"/>
					<stop  offset="0.29" style="stop-color:#B31777"/>
					<stop  offset="0.84" style="stop-color:#CD0F7E"/>
					<stop  offset="1" style="stop-color:#ED2C89"/>
				</linearGradient>
				<path class="st2" d="M2791.8,2207.3l324.6,486.5l-386.7,258.1l-324.6-486.5l-56.6-84.9l386.7-258.1L2791.8,2207.3z"/>
			</g>
			<g transform="rotate(-11.284 167.2 -62.32)">
				
					<linearGradient id="SVGID_3_" gradientUnits="userSpaceOnUse" x1="566.0077" y1="2988.9448" x2="2880.7925" y2="-232.8189" gradientTransform="matrix(0.3299 0 0 -0.3033 17.3851 1022.1436)">
					<stop  offset="0" style="stop-color:#C06FBB"/>
					<stop  offset="1" style="stop-color:#6E4D9B"/>
				</linearGradient>
				<path class="st3" d="M2312.8,2525.7l71.5,107.1l-294.4,196.4l-128.1-192l64.3-42.9l230.1-153.5L2312.8,2525.7z"/>
			</g>
			<g transform="rotate(-11.284 104.37 -149.22)">
				
					<linearGradient id="SVGID_4_" gradientUnits="userSpaceOnUse" x1="1598.3647" y1="3196.3115" x2="4538.3535" y2="784.6226" gradientTransform="matrix(0.316 0 0 -0.3167 22.5431 1070.3091)">
					<stop  offset="0" style="stop-color:#C06FBB"/>
					<stop  offset="1" style="stop-color:#6E4D9B"/>
				</linearGradient>
				<path class="st4" d="M2942.5,1981.3l82.6-55.1l128.1,192l-190,126.8l-71.5-107.1l107.5-71.7L2942.5,1981.3z M2891.7,2137.9
					l-56.6-84.9l107.5-71.7l56.6,84.9L2891.7,2137.9z"/>
			</g>
			<g transform="rotate(-11.284 81.819 7.6453)">
				
					<linearGradient id="SVGID_5_" gradientUnits="userSpaceOnUse" x1="1277.2395" y1="1014.563" x2="4017.8928" y2="-1400.4524" gradientTransform="matrix(0.3164 0 0 -0.3162 12.9941 1071.224)">
					<stop  offset="0" style="stop-color:#C06FBB"/>
					<stop  offset="1" style="stop-color:#6E4D9B"/>
				</linearGradient>
				<path class="st5" d="M1640.3,2016.3l-64.3,42.9l-195.8-293.3l294.4-196.4l137.2,205.6l-230.1,153.5l230.1-153.5l58.5,87.7
					L1640.3,2016.3z"/>
			</g>
			<g transform="rotate(-11.284 17.141 -7.8246)">
				
					<linearGradient id="SVGID_6_" gradientUnits="userSpaceOnUse" x1="10108.1113" y1="-5883.7012" x2="8747.8857" y2="-4022.907" gradientTransform="matrix(0.3045 0 0 -0.3286 13.925 1117.2211)">
					<stop  offset="0" style="stop-color:#6E4D9B"/>
					<stop  offset="0.14" style="stop-color:#77327A"/>
					<stop  offset="0.29" style="stop-color:#B31777"/>
					<stop  offset="0.84" style="stop-color:#CD0F7E"/>
					<stop  offset="1" style="stop-color:#ED2C89"/>
				</linearGradient>
				<path class="st6" d="M2294.6,1462.3l58.5,87.7l-386.7,258.1l-58.5-87.7l-321.6-481.9L1973,980.4L2294.6,1462.3z"/>
			</g>
			<g transform="rotate(-11.284 18.188 -79.174)">
				
					<linearGradient id="SVGID_7_" gradientUnits="userSpaceOnUse" x1="4088.7007" y1="3908.7886" x2="6608.104" y2="1119.3164" gradientTransform="matrix(0.3031 0 0 -0.3301 18.1026 1121.7382)">
					<stop  offset="0" style="stop-color:#C06FBB"/>
					<stop  offset="1" style="stop-color:#6E4D9B"/>
				</linearGradient>
				<path class="st7" d="M2556.7,1403.3l-107.5,71.7l-58.5-87.7l-137.2-205.6l190-126.8l195.8,293.3L2556.7,1403.3z"/>
			</g>
			<g transform="rotate(-11.284 166.49 -69.536)">
				<path class="st8" d="M2081.3,2679.3l-56.6-84.9l230.1-153.5l56.6,84.9L2081.3,2679.3z"/>
			</g>
			<g transform="rotate(-11.284 109.99 -149.77)">
				<path class="st9" d="M2891.6,2136.8l-56.6-84.9l107.5-71.7l56.6,84.9L2891.6,2136.8z"/>
			</g>
			<g transform="rotate(-11.284 100.61 -15.26)">
				<path class="st10" d="M1636.1,2012.2l-58.5-87.7l230.1-153.5l58.5,87.7L1636.1,2012.2z"/>
			</g>
			<g transform="rotate(-11.284 43.301 -95.418)">
				<path class="st11" d="M2446.5,1469.8l-58.5-87.7l107.5-71.7l58.5,87.7L2446.5,1469.8z"/>
			</g>
			<g transform="rotate(-11.284 129.49 -99.884)">
				<path class="st12" d="M2791.8,2207.3l-386.7,258.1l-56.6-84.9l386.7-258.1L2791.8,2207.3z"/>
			</g>
			<g transform="rotate(-11.284 63.604 -45.609)">
				<path class="st13" d="M2288.1,1452.5l58.5,87.7l-386.7,258.1l-58.5-87.7L2288.1,1452.5z"/>
			</g>
			<g transform="rotate(45 -13.019 8.751)">
				
					<rect id="Rectangle-path" x="1998.8" y="-502.5" transform="matrix(5.383094e-06 1 -1 5.383094e-06 1627.824 -2501.3225)" class="st14" width="131.5" height="131.5"/>
			</g>
			<g transform="rotate(45 -36.276 36.979)">
				
					<rect x="3281.7" y="-110.7" transform="matrix(5.383092e-06 1 -1 5.383092e-06 3302.4758 -3392.3171)" class="st15" width="131.5" height="131.5"/>
			</g>
			<g transform="translate(1.8225 1.5477)">
				
					<linearGradient id="SVGID_8_" gradientUnits="userSpaceOnUse" x1="5229.9683" y1="-4788.7627" x2="6708.875" y2="-3326.3555" gradientTransform="matrix(0.3108 -6.177073e-02 -6.202079e-02 -0.3096 15.0173 1073.1539)">
					<stop  offset="0" style="stop-color:#6E4D9B"/>
					<stop  offset="0.14" style="stop-color:#77327A"/>
					<stop  offset="0.53" style="stop-color:#B31777"/>
					<stop  offset="0.79" style="stop-color:#CD0F7E"/>
					<stop  offset="1" style="stop-color:#ED2C89"/>
				</linearGradient>
				<path class="st16" d="M2151.8,2441.5l-408.7-411.8L3197.5,572.2l422.5,401.2L2151.8,2441.5z"/>
			</g>
		</g>
	</g>
</g>
</svg>
