<?xml version="1.0" encoding="utf-8"?>
<!-- Generator: Adobe Illustrator 24.1.1, SVG Export Plug-In . SVG Version: 6.00 Build 0)  -->
<svg version="1.1" id="Capa_1" xmlns="http://www.w3.org/2000/svg" xmlns:xlink="http://www.w3.org/1999/xlink" x="0px" y="0px"
	 viewBox="0 0 1080 1080" style="enable-background:new 0 0 1080 1080;" xml:space="preserve">
<style type="text/css">
	.st0{fill:#8D6E63;}
	.st1{fill:#D7CCC8;stroke:#D7CCC8;stroke-width:0.271;stroke-linejoin:round;}
</style>
<path class="st0" d="M887.2,251.4H521.7L419.3,139.1c-9.7-14.6-29.2-19.5-43.9-19.5H97.6C44,119.6,5,163.5,5,217.2v585.9
	c0,53.7,39,97.6,92.6,97.6h794.5c48.7,0,92.6-43.9,92.6-97.6V349C979.8,295.3,940.9,251.4,887.2,251.4z M887.2,803.1H97.6V217.2
	h268.1l102.4,112.3c9.7,14.6,29.2,19.5,43.9,19.5h380.2v454.1H887.2z"/>
<path class="st1" d="M781.3,896.8c127.3,0,234.9-102.8,234.9-234.9S913.5,426.9,781.3,426.9S546.4,529.7,546.4,661.9
	S649.2,896.8,781.3,896.8 M781.3,373.1c161.5,0,293.7,132.2,293.7,293.7S942.8,960.4,781.3,960.4l0,0
	c-161.5,0-293.7-132.2-293.7-293.7C487.7,500.4,619.8,373.1,781.3,373.1 M791.1,519.9v151.7L923.3,750l-19.6,34.3l-151.7-93V515
	L791.1,519.9z"/>
</svg>
