<?xml version="1.0" encoding="utf-8"?>
<!-- Generator: Adobe Illustrator 27.0.0, SVG Export Plug-In . SVG Version: 6.00 Build 0)  -->
<svg version="1.1" id="Capa_1" xmlns="http://www.w3.org/2000/svg" xmlns:xlink="http://www.w3.org/1999/xlink" x="0px" y="0px"
	 viewBox="0 0 1080 1080" style="enable-background:new 0 0 1080 1080;" xml:space="preserve">
<style type="text/css">
	.st0{fill:#0288D1;}
	.st1{fill:#B3E5FC;}
</style>
<path class="st0" d="M403.81,121.97H104.7c-55.34,0-99.7,44.37-99.7,99.7v598.22c0,54.69,45.02,99.7,99.7,99.7h797.62
	c54.69,0,99.7-45.02,99.7-99.7V321.37c0-55.06-44.64-99.7-99.7-99.7H503.51L403.81,121.97z"/>
<path class="st1" d="M1055.67,823.98c-34.6,8.23-52.09,15.8-94.92,43.67c-67,43.22-140.08,63.31-140.08,63.31
	s-6.03,9.12-23.58,13.21c-30.26,7.38-144.17,13.61-154.54,13.86c-27.92,0.2-44.97-7.13-49.75-18.59
	c-14.46-34.6,20.79-49.75,20.79-49.75s-7.83-4.74-12.36-9.07c-4.09-4.09-8.42-12.31-9.72-9.27c-5.38,13.16-8.23,45.36-22.68,59.87
	c-19.89,20.09-57.53,13.41-79.76,1.74c-24.43-12.96,1.69-43.47,1.69-43.47s-13.16,7.78-23.78-8.23
	c-9.47-14.71-18.35-39.78-15.95-70.69c2.99-35.64,42.37-69.79,42.37-69.79s-6.98-52.14,15.75-105.54
	c20.54-48.66,75.87-87.74,75.87-87.74s-46.46-51.25-29.16-97.71c11.22-30.31,15.75-30.06,19.44-31.41
	c12.96-4.99,25.52-10.32,34.8-20.49c46.51-50.15,105.69-40.68,105.69-40.68s27.72-84.95,53.64-68.3
	c7.98,5.18,36.74,69.19,36.74,69.19s30.71-17.95,34.2-11.27c18.59,36.09,20.74,105.09,12.51,147.06
	c-13.81,69.14-48.41,106.33-62.26,129.66c-3.24,5.38,37.19,22.48,62.71,93.22c23.58,64.61,2.59,118.85,6.28,124.93l0.85,1.5
	c0,0,27.02,2.14,81.26-31.36c29.01-17.95,63.36-38.04,102.49-38.49C1082.04,772.73,1083.99,817.25,1055.67,823.98z"/>
</svg>
