<?xml version="1.0" encoding="utf-8"?>
<!-- Generator: Adobe Illustrator 24.1.1, SVG Export Plug-In . SVG Version: 6.00 Build 0)  -->
<svg version="1.1" id="Capa_1" xmlns="http://www.w3.org/2000/svg" xmlns:xlink="http://www.w3.org/1999/xlink" x="0px" y="0px"
	 viewBox="0 0 1080 1080" style="enable-background:new 0 0 1080 1080;" xml:space="preserve">
<style type="text/css">
	.st0{fill:#0277BD;}
	.st1{fill:#B3E5FC;}
</style>
<path class="st0" d="M885.6,257.4H520.8L418.5,145.3c-9.7-14.7-29.2-19.5-43.8-19.5H97.4C43.9,125.8,5,169.7,5,223.3V808
	c0,53.6,38.9,97.5,92.4,97.5h793c48.6,0,92.4-43.9,92.4-97.5V354.8C978,301.2,939.2,257.4,885.6,257.4z"/>
<g>
	<path class="st1" d="M930.4,479.7c-34.2,0-62-26.5-62-59V283.1H599.9c-34.1,0-61.9,26.5-61.9,59v553.2c0,32.5,27.8,59,62,59h413
		c34.2,0,62-26.5,62-59V479.7H930.4z M847.8,834.9H682.6c-11.4,0-20.6-8.8-20.6-19.6c0-10.9,9.2-19.6,20.6-19.6h165.2
		c11.4,0,20.6,8.8,20.6,19.6C868.4,826.1,859.2,834.9,847.8,834.9z M930.4,756.2H682.6c-11.4,0-20.6-8.8-20.6-19.6
		c0-10.9,9.2-19.6,20.6-19.6h247.8c11.4,0,20.6,8.8,20.6,19.6C951.1,747.4,941.8,756.2,930.4,756.2z M930.4,677.6H682.6
		c-11.4,0-20.6-8.8-20.6-19.6s9.2-19.7,20.6-19.7h247.8c11.4,0,20.6,8.8,20.6,19.6S941.8,677.6,930.4,677.6z M930.4,599H682.6
		c-11.4,0-20.6-8.8-20.6-19.6s9.2-19.6,20.6-19.6h247.8c11.4,0,20.6,8.8,20.6,19.6S941.8,599,930.4,599z"/>
	<path class="st1" d="M925.9,442.2h132.5L905.3,296.4v126.1C905.3,433.4,914.5,442.2,925.9,442.2z"/>
</g>
</svg>
