<?xml version="1.0" encoding="utf-8"?>
<!-- Generator: Adobe Illustrator 24.1.1, SVG Export Plug-In . SVG Version: 6.00 Build 0)  -->
<svg version="1.1" id="Capa_1" xmlns="http://www.w3.org/2000/svg" xmlns:xlink="http://www.w3.org/1999/xlink" x="0px" y="0px"
	 viewBox="0 0 1080 1080" style="enable-background:new 0 0 1080 1080;" xml:space="preserve">
<style type="text/css">
	.st0{fill:#607D8B;}
	.st1{fill-rule:evenodd;clip-rule:evenodd;fill:#CFD8DC;}
</style>
<path class="st0" d="M885.6,273H520.8L418.5,160.8c-9.7-14.7-29.2-19.5-43.8-19.5H97.4C43.9,141.3,5,185.2,5,238.8v584.7
	C5,877.1,43.9,921,97.4,921h793c48.6,0,92.4-43.9,92.4-97.5V370.4C978,316.8,939.2,273,885.6,273z"/>
<path class="st1" d="M581.3,477.9h-98.7c-18.1,0.1-32.8,14.8-32.9,32.9v395c0,18.1,14.8,32.9,32.9,32.9h98.7
	c18.1-0.1,32.8-14.8,32.9-32.9v-395C614.2,492.6,599.5,477.9,581.3,477.9L581.3,477.9z M1042.1,477.9h-98.7
	c-18.1,0.1-32.8,14.8-32.9,32.9v395c0,18.1,14.8,32.9,32.9,32.9h98.7c18.1-0.1,32.8-14.8,32.9-32.9v-395
	C1074.9,492.6,1060.2,477.9,1042.1,477.9z M811.7,477.9H713c-18.1,0.1-32.8,14.8-32.9,32.9v395c0,18.1,14.8,32.9,32.9,32.9h98.7
	c18.1-0.1,32.8-14.8,32.9-32.9v-395C844.5,492.6,829.9,477.9,811.7,477.9z"/>
</svg>
