<?xml version="1.0" encoding="utf-8"?>
<!-- Generator: Adobe Illustrator 24.1.1, SVG Export Plug-In . SVG Version: 6.00 Build 0)  -->
<svg version="1.1" id="Capa_1" xmlns="http://www.w3.org/2000/svg" xmlns:xlink="http://www.w3.org/1999/xlink" x="0px" y="0px"
	 viewBox="0 0 1080 1080" style="enable-background:new 0 0 1080 1080;" xml:space="preserve">
<style type="text/css">
	.st0{fill:#FF5252;}
	.st1{fill-rule:evenodd;clip-rule:evenodd;fill:#FFCDD2;}
</style>
<path class="st0" d="M885.6,266.5H520.8L418.5,154.3c-9.7-14.7-29.2-19.5-43.8-19.5H97.4C43.9,134.8,5,178.7,5,232.3V817
	c0,53.6,38.9,97.5,92.4,97.5h793c48.6,0,92.4-43.9,92.4-97.5V363.9C978,310.3,939.2,266.5,885.6,266.5z"/>
<path class="st1" d="M686.6,726.5l104.1-276.8l103.7,276.8 M747,332.9L506.4,945.2h98.4l49-131.2h273.3l49.4,131.2h98.4L834.5,332.9
	L747,332.9z"/>
</svg>
