<?xml version="1.0" encoding="utf-8"?>
<!-- Generator: Adobe Illustrator 24.1.1, SVG Export Plug-In . SVG Version: 6.00 Build 0)  -->
<svg version="1.1" id="Capa_1" xmlns="http://www.w3.org/2000/svg" xmlns:xlink="http://www.w3.org/1999/xlink" x="0px" y="0px"
	 viewBox="0 0 1080 1080" style="enable-background:new 0 0 1080 1080;" xml:space="preserve">
<style type="text/css">
	.st0{fill:#8D6E63;}
	.st1{fill-rule:evenodd;clip-rule:evenodd;fill:#543729;}
	.st2{fill-rule:evenodd;clip-rule:evenodd;fill:#00ACEE;}
	.st3{fill-rule:evenodd;clip-rule:evenodd;fill:#2BAF2B;}
	.st4{fill-rule:evenodd;clip-rule:evenodd;fill:#FFCC2F;}
	.st5{fill-rule:evenodd;clip-rule:evenodd;fill:#CECECE;}
	.st6{fill-rule:evenodd;clip-rule:evenodd;fill:#EF5734;}
	.st7{fill-rule:evenodd;clip-rule:evenodd;fill:#FFFFFF;}
</style>
<path class="st0" d="M885.6,259H520.7L418.6,146.8c-9.7-14.7-29.2-19.5-43.8-19.5H97.4C43.9,127.3,5,171.2,5,224.8v584.8
	C5,863.1,43.9,907,97.4,907h793c48.7,0,92.4-43.9,92.4-97.5V356.3C978,302.7,939.2,259,885.6,259z"/>
<g transform="matrix(.033264 0 0 .033264 8.7498 8.6323)">
	<path id="outline" class="st1" d="M31639.2,18598.1c-1118.8-1075.1-6713.6-1746.2-8479-1941.5c85.5-201.9,158.3-410.8,218.4-625.9
		c240.7-105.4,500.4-203.5,769-285.3c32.7,96.6,186.9,466.5,274.7,642.1c3549.7,97.9,3732-2637.9,3876.4-3387.4
		c141.2-732.9,134-1441,1351.6-2735.5c-1814-528.6-4422.6,819.3-5296.5,2825.5c-328.4-123-657.4-213.9-982.9-270.1
		c-233.3-940.9-1447.8-3562.2-4635.1-3562.2c-4035.5,0-8434,3329.2-8434,8964.9c0,4737.3,3234.3,8889,5061.5,8889
		c798,0,1484.5-597.6,1645.7-1133.3c135.1,367.3,549.7,1509.2,685.8,1799.8c201.2,429.9,1131.9,801.8,1539.2,355.7
		c523.7,290.9,1484.5,466.2,2008.2-309.7c1008.6,213.3,1900.2-388.1,1919.7-1105.7c494.9-26.4,737.7-721.3,629.6-1274.7
		c-79.7-407.4-930.7-1869.3-1262.6-2374c657.1,534.5,2321.5,685.8,2523.7,0.3c1059.4,831.6,2710.5,395.1,2841.4-281.2
		c1287.3,334.5,2763.8-400.1,2521.4-1289.8c2068.1-143,1803.3-2343.3,1223.1-2900.9L31639.2,18598.1z"/>
	<g id="leaf" transform="matrix(.97265 0 0 .97265 6.324 6.9029)">
		<path class="st2" d="M26602,14289.2c457.9-908.6,1033.4-1900.7,1760.2-2514.4c-800,322.4-1589.8,1286.2-2056.8,2316.3
			c-238-151.3-479.7-286.2-723.4-404.3c651.4-1390.5,2165.1-2551.8,3833.3-2642.5c-1117.4,1013.4-720.7,3119.6-1639.4,4234.6
			C27513,15014.9,26909.4,14505.3,26602,14289.2z M25879.7,15768.7c0.5-34.8,13.5-303,37.9-425.4c-64.1-15.1-462.3-93-669.9-88.1
			c-15.1,260.8,109.6,704.4,232.8,971.4c848.8-17.8,1461.9-272,1822.8-505.7c-307.2-143.2-831.5-270.5-1230.1-346.7
			C26028.7,15466.3,25919.2,15700.8,25879.7,15768.7z"/>
	</g>
	<g>
		<path id="wingtip" class="st3" d="M22110.5,22336.2c0.2,1.2,0.7,2.8,0.8,3.9c-104.6-225.2-215.8-498.7-348.5-856.2
			c516.8,752.2,2136.4,364.2,2051.4-309.8c792.7,596.5,2424.5-99.4,2053.5-935.8c794.1,370,1700.4-374.5,1497.2-698.9
			c1353.8,261.1,2651.2,521.4,3058.5,625.6c-270.6,441.1-886.7,752.6-1815.6,536.2c501.9,683.7-472.6,1504-1829.8,1052.2
			c298.8,671.2-909.7,1275.5-2283.2,575.9C24512.4,23000.7,22791.1,23078.1,22110.5,22336.2L22110.5,22336.2z M24796.1,18942.2
			c1571.3,120.6,4169.8,354.9,5778.5,580.1c-101.6-523.6-379.2-673.1-1252.6-907.7C28382.9,18714.7,26000,18948.8,24796.1,18942.2
			L24796.1,18942.2z"/>
		<path id="body" class="st4" d="M23814.4,21174.3c792.7,596.5,2424.5-99.4,2053.5-935.8c794.1,370,1700.4-374.5,1497.2-698.9
			c-1600.6-308.6-3280.2-618.3-3661.1-672.5c231.1,12.3,614.2,38.5,1092.3,75.2c1203.9,6.6,3586.7-227.4,4525.9-327.6
			c-1520.8-385.6-4625.6-948.3-6769.7-1086.9c-99.4,145.2-282,391.5-600.2,653.2c-938.2,1985-2637.9,3304.4-4518.7,3304.4
			c-548.1,0-1161.3-92.5-1848.6-312.2c-428.6,459.2-2256.1,807.2-3739,79.3c1176.2,2754.2,3903.9,4592.6,6923.5,4592.6
			c2542.9,0,3670.5-2596.7,3423.7-3283.8c-59.9-166.8-297.1-719.9-429.9-1077.4c516.8,752.2,2136.4,364.2,2051.5-309.8
			L23814.4,21174.3z"/>
		<path id="beak" class="st5" d="M22273.5,15947.9c224.5-122.1,1000.4-592.5,1739.7-769.2c-11.7-81.9-20.5-164.5-25.9-247.5
			c-485.1,116.2-1399.5,508.1-1923.6-32c1105.6,333.6,1657.6-297.3,2470.3-297.3c484.2,0,1175.2,135.3,1719.8,349.1
			c-438.1-404.7-1874.6-1626.1-3653.3-1630.3C22203.4,13802.2,21774.1,14845.1,22273.5,15947.9L22273.5,15947.9z"/>
		<path id="head" class="st6" d="M15585,21172.8c687.3,219.7,1300.6,312.2,1848.6,312.2c1880.7,0,3580.5-1319.5,4518.7-3304.4
			c-693.9,579.2-1899.8,1074.8-3783.1,1074.8c1677.5-380.4,3121.6-1216.3,3856.2-2438.2c-516.4-821.9-1076.5-2640.2,341.9-4077.6
			c-218.2-700.9-1280.1-2551.3-3631-2551.3c-4102.7,0-7502.7,3433-7502.7,8033.6c0,1089.1,219.9,2110.6,612.6,3029.9
			c1482.8,727.9,3310.3,379.9,3738.9-79.3L15585,21172.8z"/>
		<path id="eye_rim" class="st4" d="M16815.5,14167.6c0,1046.5,848.4,1895,1894.9,1895s1895-848.5,1895-1895
			c0-1046.5-848.5-1895-1895-1895S16815.5,13121.1,16815.5,14167.6z"/>
		<path id="eye" class="st1" d="M17576.1,14167.6c0,626.5,508,1134.5,1134.5,1134.5c626.6,0,1134.5-508,1134.5-1134.5
			c0-626.6-507.9-1134.5-1134.5-1134.5C18084.1,13033.1,17576.1,13541.1,17576.1,14167.6z"/>
		<ellipse id="pupil_highlight" class="st7" cx="18710.4" cy="13664.5" rx="661.1" ry="411"/>
	</g>
</g>
</svg>
