<?xml version="1.0" encoding="utf-8"?>
<!-- Generator: Adobe Illustrator 24.1.1, SVG Export Plug-In . SVG Version: 6.00 Build 0)  -->
<svg version="1.1" id="Capa_1" xmlns="http://www.w3.org/2000/svg" xmlns:xlink="http://www.w3.org/1999/xlink" x="0px" y="0px"
	 viewBox="0 0 1080 1080" style="enable-background:new 0 0 1080 1080;" xml:space="preserve">
<style type="text/css">
	.st0{fill:#EF5350;}
	.st1{fill:#FFCDD2;}
</style>
<path class="st0" d="M880.7,263.7H515.8L413.7,151.6c-9.7-14.6-29.2-19.5-43.8-19.5H92.6C43.9,132.1,5,175.9,5,229.5v584.8
	c0,53.6,38.9,97.5,92.4,97.5h793c48.6,0,92.4-43.9,92.4-97.5V361.1C973.1,307.5,939.1,263.7,880.7,263.7z M880.7,814.3h-793V229.5
	h267.6l102.2,112.1c9.7,14.6,29.2,19.5,43.8,19.5h379.5V814.3z"/>
<path class="st1" d="M755.5,831.7L644.2,720.4l38.7-38.7l72.6,72.6l183.9-183.9l38.7,38.7 M813.6,439.7c14.5,0,29,14.5,29,29l0,0
	c0,14.5-14.5,29-29,29l0,0c-14.5,0-29-14.5-29-29l0,0C784.6,454.2,799.1,439.7,813.6,439.7L813.6,439.7 M1012.1,439.7H895.9
	c-9.7-33.9-43.6-58.1-77.4-58.1s-67.8,24.2-77.4,58.1H624.8c-29,0-58.1,24.2-58.1,58.1v392.1c0,29,24.2,58.1,58.1,58.1l0,0h392.1
	c29,0,58.1-24.2,58.1-58.1l0,0V497.7C1065.3,463.9,1041.1,439.7,1012.1,439.7L1012.1,439.7z"/>
</svg>
