<?xml version="1.0" encoding="utf-8"?>
<!-- Generator: Adobe Illustrator 24.1.1, SVG Export Plug-In . SVG Version: 6.00 Build 0)  -->
<svg version="1.1" id="Capa_1" xmlns="http://www.w3.org/2000/svg" xmlns:xlink="http://www.w3.org/1999/xlink" x="0px" y="0px"
	 viewBox="0 0 1080 1080" style="enable-background:new 0 0 1080 1080;" xml:space="preserve">
<style type="text/css">
	.st0{fill:#FF9800;}
	.st1{fill-rule:evenodd;clip-rule:evenodd;fill:#FFF9C4;}
</style>
<path class="st0" d="M885.6,234.1H520.8L418.5,121.9c-9.7-14.7-29.2-19.5-43.8-19.5H97.4C43.9,102.4,5,146.3,5,199.9v584.7
	c0,53.6,38.9,97.5,92.4,97.5h793c48.6,0,92.4-43.9,92.4-97.5V331.4C978,277.9,939.2,234.1,885.6,234.1z"/>
<path class="st1" d="M667.7,977.6c-17.3,0-31.3-14-31.3-31.3l0,0v-94H511c-34.6,0-62.7-28.1-62.7-62.7v-376
	c0-34.8,28.2-62.7,62.7-62.7h501.3c34.6,0,62.7,28.1,62.7,62.7v376c0,34.6-28.1,62.7-62.7,62.7H821.2L705.3,968.5
	c-6.3,6-14.1,9.1-21.9,9.1L667.7,977.6 M542.4,445v62.7H981V445H542.4 M542.4,570.3V633H793v-62.7L542.4,570.3 M542.4,695.7v62.7
	h313.3v-62.7H542.4z"/>
</svg>
