<?xml version="1.0" encoding="utf-8"?>
<!-- Generator: Adobe Illustrator 24.1.1, SVG Export Plug-In . SVG Version: 6.00 Build 0)  -->
<svg version="1.1" id="Capa_1" xmlns="http://www.w3.org/2000/svg" xmlns:xlink="http://www.w3.org/1999/xlink" x="0px" y="0px"
	 viewBox="0 0 1080 1080" style="enable-background:new 0 0 1080 1080;" xml:space="preserve">
<style type="text/css">
	.st0{fill:#039BE5;}
	.st1{fill-rule:evenodd;clip-rule:evenodd;fill:#B3E5FC;}
</style>
<path class="st0" d="M885.6,277.9H520.8L418.5,165.8c-9.7-14.7-29.2-19.5-43.8-19.5H97.4C43.9,146.2,5,190.1,5,243.7v584.7
	C5,882.1,43.9,926,97.4,926h793c48.6,0,92.4-43.9,92.4-97.5V375.3C978,321.7,939.2,277.9,885.6,277.9z"/>
<g id="g9">
	<path id="SVGID_1_" class="st1" d="M485.8,830.8c-21,0-40-17.2-40-38.1c0-21,17.2-38.1,40-38.1c22.9,0,40,17.2,40,38.1
		C525.9,813.6,506.8,830.8,485.8,830.8z M977.8,623c-3.8-30.5-22.9-55.3-47.7-74.4l-9.5-7.6l-7.6,9.5c-15.3,17.2-21,47.7-19.1,70.5
		c1.9,17.2,7.6,34.3,17.2,47.7c-7.6,3.8-17.2,7.6-24.8,11.4c-17.2,5.7-34.3,7.6-51.5,7.6H340.9l-1.9,11.4
		c-3.8,36.2,1.9,74.4,17.2,108.7l7.6,13.3v1.9c45.8,76.3,127.7,110.6,217.4,110.6c171.6,0,312.7-74.4,379.4-234.5
		c43.9,1.9,87.7-9.5,108.7-51.5l5.7-9.5l-9.5-5.7C1040.7,617.3,1006.4,615.3,977.8,623z M731.8,592.5h-74.4v74.4h74.4V592.5z
		 M731.8,499h-74.4v74.4h74.4V499z M731.8,403.7h-74.4v74.4h74.4V403.7z M823.3,592.5H749v74.4h74.4V592.5z M546.9,592.5h-74.4v74.4
		h74.4V592.5z M640.3,592.5h-74.4v74.4h74.4V592.5z M455.3,592.5H381v74.4h74.4V592.5z M640.3,499h-74.4v74.4h74.4V499z M546.9,499
		h-74.4v74.4h74.4V499z"/>
</g>
</svg>
