<?xml version="1.0" encoding="utf-8"?>
<!-- Generator: Adobe Illustrator 27.0.0, SVG Export Plug-In . SVG Version: 6.00 Build 0)  -->
<svg version="1.1" id="Capa_1" xmlns="http://www.w3.org/2000/svg" xmlns:xlink="http://www.w3.org/1999/xlink" x="0px" y="0px"
	 viewBox="0 0 1080 1080" style="enable-background:new 0 0 1080 1080;" xml:space="preserve">
<style type="text/css">
	.st0{fill:#FF5252;}
	.st1{fill:#FFCDD2;}
</style>
<path class="st0" d="M887,246.04H521.58L419.2,133.76c-9.7-14.6-29.19-19.5-43.89-19.5H97.58C43.99,114.27,5,158.16,5,211.85v585.77
	c0,53.69,38.99,97.58,92.58,97.58H891.9c48.69,0,92.58-43.89,92.58-97.58v-453.9C979.58,290.03,940.68,246.04,887,246.04z
	 M887,797.61H97.58V211.85h268.04l102.38,112.27c9.7,14.6,29.19,19.5,43.89,19.5H892v454H887z"/>
<path class="st1" d="M794.73,363.34L1075,463.21l-42.48,370.94L794.73,965.73L556.95,834.16l-42.48-370.94L794.73,363.34
	 M794.73,429.92L619.41,823.06h65.31l35.19-88.14h149.01l35.19,88.14h64.99L794.73,429.92 M846.1,680.39H743.69l51.05-122.7
	L846.1,680.39z"/>
</svg>
