<?xml version="1.0" encoding="utf-8"?>
<!-- Generator: Adobe Illustrator 24.1.1, SVG Export Plug-In . SVG Version: 6.00 Build 0)  -->
<svg version="1.1" id="Capa_1" xmlns="http://www.w3.org/2000/svg" xmlns:xlink="http://www.w3.org/1999/xlink" x="0px" y="0px"
	 viewBox="0 0 1080 1080" style="enable-background:new 0 0 1080 1080;" xml:space="preserve">
<style type="text/css">
	.st0{fill:#009688;}
	.st1{fill-rule:evenodd;clip-rule:evenodd;fill:#B2DFDB;}
</style>
<path class="st0" d="M885.6,255.7H520.8L418.5,143.6c-9.7-14.7-29.2-19.5-43.8-19.5H97.4C43.9,124.1,5,168,5,221.6v584.7
	c0,53.6,38.9,97.5,92.4,97.5h793c48.6,0,92.4-43.9,92.4-97.5V353.1C978,299.5,939.2,255.7,885.6,255.7z"/>
<path class="st1" d="M1012.6,393.8H575.4c-34.3,0-62.4,28.1-62.4,62.4v437.2c0,34.3,28.1,62.4,62.4,62.4h437.2
	c34.3,0,62.4-28.1,62.4-62.4V456.3C1075,421.9,1046.9,393.8,1012.6,393.8z M575.4,456h93.7c0,51.9-41.9,94-93.7,94V456z
	 M575.4,674.9v-62.4c86.3-0.2,156.2-70.2,156.2-156.5H794c0.1,120.8-97.7,218.8-218.5,218.9C575.4,674.9,575.4,674.9,575.4,674.9z
	 M575.4,862.3l109.4-140.5l78,94L872,674.9l140.5,187.4H575.4z"/>
</svg>
