<?xml version="1.0" encoding="utf-8"?>
<!-- Generator: Adobe Illustrator 24.1.1, SVG Export Plug-In . SVG Version: 6.00 Build 0)  -->
<svg version="1.1" id="Capa_1" xmlns="http://www.w3.org/2000/svg" xmlns:xlink="http://www.w3.org/1999/xlink" x="0px" y="0px"
	 viewBox="0 0 1080 1080" style="enable-background:new 0 0 1080 1080;" xml:space="preserve">
<style type="text/css">
	.st0{fill:#E57373;}
	.st1{fill-rule:evenodd;clip-rule:evenodd;fill:#FFCDD2;}
</style>
<path class="st0" d="M885.6,272.1H520.8L418.5,160c-9.7-14.7-29.2-19.5-43.8-19.5H97.4C43.9,140.5,5,184.4,5,238v584.7
	c0,53.6,38.9,97.5,92.4,97.5h793c48.6,0,92.4-43.9,92.4-97.5V369.5C978,315.9,939.2,272.1,885.6,272.1z"/>
<path class="st1" d="M823.6,468.2H697.9v-62.8h125.7 M1012.2,468.2H886.5v-62.8l-62.8-62.8H697.9l-62.8,62.8v62.8H509.4
	c-34.9,0-62.8,28-62.8,62.8v345.7c0,34.7,28.1,62.8,62.8,62.8h502.8c34.7,0,62.8-28.1,62.8-62.8V531
	C1075,496.1,1046.7,468.2,1012.2,468.2L1012.2,468.2z"/>
</svg>
