<?xml version="1.0" encoding="utf-8"?>
<!-- Generator: Adobe Illustrator 24.1.1, SVG Export Plug-In . SVG Version: 6.00 Build 0)  -->
<svg version="1.1" id="Capa_1" xmlns="http://www.w3.org/2000/svg" xmlns:xlink="http://www.w3.org/1999/xlink" x="0px" y="0px"
	 viewBox="0 0 1080 1080" style="enable-background:new 0 0 1080 1080;" xml:space="preserve">
<style type="text/css">
	.st0{fill:#C0CA33;}
	.st1{fill:#F0F4C3;}
</style>
<path class="st0" d="M885.6,245.4H520.7L418.5,133.3c-9.7-14.6-29.2-19.5-43.8-19.5H97.4C43.9,113.8,5,157.6,5,211.2V796
	c0,53.6,38.9,97.5,92.4,97.5h793c48.6,0,92.4-43.9,92.4-97.5V342.8C978,289.2,939.1,245.4,885.6,245.4z M885.6,796H97.4V211.2H365
	l102.2,112.1c9.7,14.6,29.2,19.5,43.8,19.5h379.5V796H885.6z"/>
<path class="st1" d="M453.4,388h255.4v139.7l183.1-183.1L1075,527.7L891.9,710.8h139.7v255.4H776.2V710.8h115.6L708.8,527.7v120.5
	H453.4L453.4,388 M453.4,710.8h255.4v255.4H453.4C453.4,966.2,453.4,710.8,453.4,710.8z"/>
</svg>
