<?xml version="1.0" encoding="utf-8"?>
<!-- Generator: Adobe Illustrator 27.0.0, SVG Export Plug-In . SVG Version: 6.00 Build 0)  -->
<svg version="1.1" id="Capa_1" xmlns="http://www.w3.org/2000/svg" xmlns:xlink="http://www.w3.org/1999/xlink" x="0px" y="0px"
	 viewBox="0 0 1080 1080" style="enable-background:new 0 0 1080 1080;" xml:space="preserve">
<style type="text/css">
	.st0{fill:#009688;}
	.st1{fill:#B2DFDB;}
</style>
<path class="st0" d="M889.31,251.49H522.94L420.28,138.94c-9.73-14.64-29.27-19.55-44-19.55H97.82c-53.73,0-92.82,44-92.82,97.84
	V804.5c0,53.83,39.1,97.84,92.82,97.84h796.4c48.81,0,92.82-44,92.82-97.84V349.43C982.13,295.6,943.14,251.49,889.31,251.49
	L889.31,251.49z M889.31,804.5H97.82V217.22h268.73l102.65,112.57c9.73,14.64,29.27,19.55,44,19.55h381.1v455.18h-5.01L889.31,804.5
	z"/>
<path class="st1" d="M798.11,406.92C645.33,406.83,521.4,530.61,521.31,683.4c0,0.12,0,0.24,0,0.37
	C521.2,836.56,644.95,960.5,797.74,960.62c0.14,0,0.27,0,0.41,0c152.81,0.09,276.76-123.71,276.85-276.52c0-0.11,0-0.22,0-0.33
	C1075,530.76,950.17,406.92,798.11,406.92z M668.26,743.17c9.06,12.07,21.14,17.1,38.23,17.1c8.07,0,16.14-1.03,23.19-4.04
	c7-2.97,15.08-7.05,25.13-13.11l28.18,40.25c-22.22,18.71-50.47,28.74-79.51,28.22c-24.19,0-44.29-5.06-62.41-15.12
	c-17.56-10.36-31.59-25.78-40.25-44.24c-9.06-19.15-14.09-41.28-14.09-67.47c0-25.13,5.02-48.28,14.05-67.43
	c8.65-19.03,22.66-35.15,40.37-46.27c17.06-11.12,38.19-16.14,61.39-16.14c16.1,0,31.19,2.02,43.26,7.05
	c13.6,5.27,26.16,12.77,37.24,22.16l-28.18,38.23c-7.16-5.28-14.93-9.69-23.15-13.1c-7.72-2.87-15.91-4.24-24.15-4.04
	c-34.23,0-51.33,26.2-51.33,79.51c-0.99,27.23,4.04,46.35,12.07,58.42L668.26,743.17z M945.11,805.58
	c-10.05,31.23-25.13,54.38-46.31,71.48c-21.14,17.14-49.35,26.2-84.57,29.21l-7-47.29c23.11-3.05,40.25-8.07,51.33-16.14
	c4-2.97,12.07-12.07,12.07-12.07l-83.56-267.79h69.42l48.32,200.34l51.37-200.34h67.43L945.11,805.58z"/>
</svg>
