<?xml version="1.0" encoding="utf-8"?>
<!-- Generator: Adobe Illustrator 24.1.1, SVG Export Plug-In . SVG Version: 6.00 Build 0)  -->
<svg version="1.1" id="Capa_1" xmlns="http://www.w3.org/2000/svg" xmlns:xlink="http://www.w3.org/1999/xlink" x="0px" y="0px"
	 viewBox="0 0 1080 1080" style="enable-background:new 0 0 1080 1080;" xml:space="preserve">
<style type="text/css">
	.st0{fill:#FBC02D;}
	.st1{fill-rule:evenodd;clip-rule:evenodd;fill:#FFF9C4;}
</style>
<path class="st0" d="M885.6,264.1H520.8L418.5,152c-9.7-14.7-29.2-19.5-43.8-19.5H97.4C43.9,132.5,5,176.4,5,230v584.7
	c0,53.6,38.9,97.5,92.4,97.5h793c48.6,0,92.4-43.9,92.4-97.5V361.5C978,307.9,939.2,264.1,885.6,264.1z"/>
<path class="st1" d="M984.7,495.9H683.6v-60.2h301.1 M864.2,736.8H683.6v-60.2h180.6 M984.7,616.3H683.6v-60.2h301.1 M1014.8,345.4
	H653.5c-33.3,0-60.2,27-60.2,60.2v361.3c0,33.3,27,60.2,60.2,60.2h361.3c33.3,0,60.2-27,60.2-60.2V405.6
	C1075,372.3,1048,345.4,1014.8,345.4 M533.1,465.8h-60.2v421.5c0,33.3,27,60.2,60.2,60.2h421.5v-60.2H533.1V465.8z"/>
</svg>
