<?xml version="1.0" encoding="utf-8"?>
<!-- Generator: Adobe Illustrator 24.1.1, SVG Export Plug-In . SVG Version: 6.00 Build 0)  -->
<svg version="1.1" id="Capa_1" xmlns="http://www.w3.org/2000/svg" xmlns:xlink="http://www.w3.org/1999/xlink" x="0px" y="0px"
	 viewBox="0 0 1080 1080" style="enable-background:new 0 0 1080 1080;" xml:space="preserve">
<style type="text/css">
	.st0{fill:#FF7043;}
	.st1{fill-rule:evenodd;clip-rule:evenodd;fill:#FFCCBC;}
</style>
<path class="st0" d="M885.6,275.3H520.8L418.5,163.2c-9.7-14.7-29.2-19.5-43.8-19.5H97.4C43.9,143.7,5,187.6,5,241.2v584.7
	c0,53.6,38.9,97.5,92.4,97.5h793c48.6,0,92.4-43.9,92.4-97.5V372.7C978,319.1,939.2,275.3,885.6,275.3z"/>
<path class="st1" d="M832.7,453.3c-6.5,0-12.9,2.6-18,7.7L465,810.7v125.6h125.6L940.8,587c10.2-10.2,10.2-25.9,0-36.1l-90-90
	C845.7,455.9,839.2,453.3,832.7,453.3L832.7,453.3z M795.4,834.6L693.7,936.3H1075V834.6H795.4z"/>
</svg>
