<?xml version="1.0" encoding="utf-8"?>
<!-- Generator: Adobe Illustrator 24.1.1, SVG Export Plug-In . SVG Version: 6.00 Build 0)  -->
<svg version="1.1" id="Capa_1" xmlns="http://www.w3.org/2000/svg" xmlns:xlink="http://www.w3.org/1999/xlink" x="0px" y="0px"
	 viewBox="0 0 1080 1080" style="enable-background:new 0 0 1080 1080;" xml:space="preserve">
<style type="text/css">
	.st0{fill:#FF7043;}
	.st1{fill-rule:evenodd;clip-rule:evenodd;fill:#FFCCBC;}
</style>
<path class="st0" d="M885.6,266.6H520.7L418.5,154.5c-9.7-14.6-29.2-19.5-43.8-19.5H97.4C43.9,135,5,178.9,5,232.5v584.8
	c0,53.6,38.9,97.5,92.4,97.5h793c48.6,0,92.4-43.9,92.4-97.5V364C978,310.4,939.1,266.6,885.6,266.6z M885.6,817.3H97.4V232.5H365
	l102.2,112.1c9.7,14.6,29.2,19.5,43.8,19.5h379.5v453.2H885.6z"/>
<path class="st1" d="M835.6,456.5c-4.9,0-14.7,4.9-19.5,9.8L464.3,818v127h127l351.7-351.7c9.8-9.8,9.8-24.4,0-34.2l-87.9-87.9
	C845.4,461.4,840.5,456.5,835.6,456.5L835.6,456.5z M796.5,837.5L694,940.1h381V837.5H796.5z"/>
</svg>
