<?xml version="1.0" encoding="utf-8"?>
<!-- Generator: Adobe Illustrator 24.1.1, SVG Export Plug-In . SVG Version: 6.00 Build 0)  -->
<svg version="1.1" id="Capa_1" xmlns="http://www.w3.org/2000/svg" xmlns:xlink="http://www.w3.org/1999/xlink" x="0px" y="0px"
	 viewBox="0 0 1080 1080" style="enable-background:new 0 0 1080 1080;" xml:space="preserve">
<style type="text/css">
	.st0{fill:#43A047;}
	.st1{fill:#C8E6C9;}
</style>
<path class="st0" d="M880.7,255H515.8L413.7,142.9c-9.7-14.6-29.2-19.5-43.8-19.5H92.6C43.9,123.4,5,167.3,5,220.9v584.8
	c0,53.6,38.9,97.5,92.4,97.5h793c48.6,0,92.4-43.9,92.4-97.5V352.4C973.1,298.8,939.1,255,880.7,255z M880.7,805.6h-793V220.9h267.6
	l102.2,112.1c9.7,14.6,29.2,19.5,43.8,19.5h379.5V805.6z"/>
<path class="st1" d="M1070,612.3H857l89.2-89.2c-89.2-84.2-227.9-89.2-312.1-5c-89.2,84.2-89.2,222.9,0,312.1
	c89.2,84.2,227.9,84.2,312.1,0c44.6-44.6,64.4-94.1,64.4-153.6h64.4c0,64.4-29.7,143.7-84.2,198.1c-113.9,109-292.3,109-406.2,0
	c-109-109-113.9-287.3,0-401.3c113.9-109,292.3-109,401.3,0l89.2-89.2L1070,612.3 M797.6,543v133.8l109,64.4l-24.8,39.6l-133.8-79.3
	V543L797.6,543z"/>
</svg>
