<?xml version="1.0" encoding="utf-8"?>
<!-- Generator: Adobe Illustrator 24.1.1, SVG Export Plug-In . SVG Version: 6.00 Build 0)  -->
<svg version="1.1" id="Capa_1" xmlns="http://www.w3.org/2000/svg" xmlns:xlink="http://www.w3.org/1999/xlink" x="0px" y="0px"
	 viewBox="0 0 1080 1080" style="enable-background:new 0 0 1080 1080;" xml:space="preserve">
<style type="text/css">
	.st0{fill:#0288D1;}
	.st1{fill-rule:evenodd;clip-rule:evenodd;fill:#B3E5FC;}
</style>
<path class="st0" d="M885.6,258H520.8L418.5,145.8c-9.7-14.7-29.2-19.5-43.8-19.5H97.4C43.9,126.3,5,170.2,5,223.8v584.7
	C5,862.1,43.9,906,97.4,906h793c48.6,0,92.4-43.9,92.4-97.5V355.3C978,301.7,939.2,258,885.6,258z"/>
<path class="st1" d="M1075,775.5c0,12.3-6.8,23-17.2,28.5L801.9,947.9c-5.2,3.9-11.7,5.8-18.5,5.8c-6.8,0-13.3-1.9-18.5-5.8L509,804
	c-10.4-5.5-17.2-16.2-17.2-28.5V484c0-12.3,6.8-23,17.2-28.5L765,311.6c5.2-3.9,11.7-5.8,18.5-5.8c6.8,0,13.3,1.9,18.5,5.8
	l255.9,143.8c10.4,5.5,17.2,16.2,17.2,28.5L1075,775.5 M783.4,375.4L590.3,484l193.1,108.5L976.5,484L783.4,375.4 M556.7,756.4
	L751,865.9V648.5L556.7,539.4L556.7,756.4 M1010.2,756.4V539.4L815.8,648.5v217.4L1010.2,756.4z"/>
</svg>
