<?xml version="1.0" encoding="utf-8"?>
<!-- Generator: Adobe Illustrator 27.0.0, SVG Export Plug-In . SVG Version: 6.00 Build 0)  -->
<svg version="1.1" id="Capa_1" xmlns="http://www.w3.org/2000/svg" xmlns:xlink="http://www.w3.org/1999/xlink" x="0px" y="0px"
	 viewBox="0 0 1080 1080" style="enable-background:new 0 0 1080 1080;" xml:space="preserve">
<style type="text/css">
	.st0{fill:#FF5252;}
	.st1{fill:#FFCDD2;}
</style>
<path class="st0" d="M886.83,261.88H521.48L419.12,149.64c-9.7-14.6-29.19-19.5-43.88-19.5H97.56C43.99,130.14,5,174.02,5,227.71
	v585.64c0,53.68,38.99,97.56,92.56,97.56h794.16c48.68,0,92.56-43.88,92.56-97.56v-453.8C979.39,305.87,940.51,261.88,886.83,261.88
	L886.83,261.88z M886.83,813.34H97.56V227.71h267.98l102.36,112.25c9.7,14.6,29.19,19.5,43.88,19.5h380.03v453.91h-5L886.83,813.34z
	"/>
<path class="st1" d="M698.23,949.86V761.5h125.59v188.36h157V698.68H1075L761,416.09L447.05,698.68h94.18v251.18H698.23z"/>
</svg>
