<?xml version="1.0" encoding="utf-8"?>
<!-- Generator: Adobe Illustrator 24.1.1, SVG Export Plug-In . SVG Version: 6.00 Build 0)  -->
<svg version="1.1" id="Capa_1" xmlns="http://www.w3.org/2000/svg" xmlns:xlink="http://www.w3.org/1999/xlink" x="0px" y="0px"
	 viewBox="0 0 1080 1080" style="enable-background:new 0 0 1080 1080;" xml:space="preserve">
<style type="text/css">
	.st0{fill:#00838F;}
	.st1{fill-rule:evenodd;clip-rule:evenodd;fill:#41B883;}
	.st2{fill-rule:evenodd;clip-rule:evenodd;fill:#35495E;}
</style>
<path class="st0" d="M880.7,246.1H515.8L413.7,134c-9.7-14.6-29.2-19.5-43.8-19.5H92.6C43.9,114.5,5,158.3,5,211.9v584.8
	c0,53.6,38.9,97.5,92.4,97.5h793c48.6,0,92.4-43.9,92.4-97.5V343.5C973.1,289.9,939.1,246.1,880.7,246.1z M880.7,796.7h-793V211.9
	h267.6L457.4,324c9.7,14.6,29.2,19.5,43.8,19.5h379.5V796.7z"/>
<g transform="translate(.54032 2.7763)">
	<g transform="matrix(.69572 0 0 .69572 7.9184 3.586)">
		<path class="st1" d="M545.7,526.9l493.7,851.8L1533,526.9l0,0h-193.6l-300.1,513l-295.2-513H545.7L545.7,526.9z"/>
		<path class="st2" d="M744.1,526.9l300.1,513l300.1-513h-179.1L1049,730.1L928,526.9H744.1z"/>
	</g>
</g>
</svg>
