<?xml version="1.0" encoding="utf-8"?>
<!-- Generator: Adobe Illustrator 24.1.1, SVG Export Plug-In . SVG Version: 6.00 Build 0)  -->
<svg version="1.1" id="Capa_1" xmlns="http://www.w3.org/2000/svg" xmlns:xlink="http://www.w3.org/1999/xlink" x="0px" y="0px"
	 viewBox="0 0 1080 1080" style="enable-background:new 0 0 1080 1080;" xml:space="preserve">
<style type="text/css">
	.st0{fill:#616161;}
	.st1{fill-rule:evenodd;clip-rule:evenodd;fill:#BDBDBD;}
</style>
<path class="st0" d="M885.6,248.3H520.7L418.6,136.1c-9.7-14.7-29.2-19.5-43.8-19.5H97.4C43.9,116.6,5,160.5,5,214.1v584.8
	c0,53.6,38.9,97.5,92.4,97.5h793c48.7,0,92.4-43.9,92.4-97.5V345.6C978,292.1,939.2,248.3,885.6,248.3z"/>
<path class="st1" d="M527.5,598.4h438v73h-438V598.4z M527.5,452.4h438v73h-438V452.4z M527.5,744.4h292v73h-292V744.4z
	 M892.5,744.4v219L1075,853.9L892.5,744.4z"/>
</svg>
