<?xml version="1.0" encoding="utf-8"?>
<!-- Generator: Adobe Illustrator 24.1.1, SVG Export Plug-In . SVG Version: 6.00 Build 0)  -->
<svg version="1.1" id="Capa_1" xmlns="http://www.w3.org/2000/svg" xmlns:xlink="http://www.w3.org/1999/xlink" x="0px" y="0px"
	 viewBox="0 0 1080 1080" style="enable-background:new 0 0 1080 1080;" xml:space="preserve">
<style type="text/css">
	.st0{fill:#FF5722;}
	.st1{fill:#FFCCBC;}
</style>
<path class="st0" d="M880.7,263.9H515.8L413.7,151.8c-9.7-14.6-29.2-19.5-43.8-19.5H92.6C43.9,132.3,5,176.2,5,229.8v584.8
	C5,868.1,43.9,912,97.4,912h793c48.6,0,92.4-43.9,92.4-97.5V361.3C973.1,307.7,939.1,263.9,880.7,263.9z M880.7,814.5h-793V229.8
	h267.6l102.2,112.1c9.7,14.6,29.2,19.5,43.8,19.5h379.5V814.5z"/>
<path id="back" class="st1" d="M884.2,349.3c-29.6,0-64.2,9.9-88.9,24.7l-143.2,88.9c-39.5,24.7-64.2,64.2-74.1,108.7
	c-4.9,39.5,0,74.1,14.8,108.7c-9.9,19.8-19.8,39.5-24.7,59.3c-9.9,44.5,4.9,93.8,29.6,128.4c54.3,79,167.9,103.7,247,54.3
	l143.2-88.9c39.5-24.7,64.2-64.2,74.1-108.7c4.9-39.5,0-74.1-14.8-108.7c9.9-19.8,19.8-39.5,24.7-59.3c9.9-44.5-4.9-93.8-29.6-128.4
	l0,0C1002.8,374,943.5,349.3,884.2,349.3L884.2,349.3z M894.1,418.4c34.6,0,69.1,19.8,88.9,49.4c14.8,24.7,24.7,49.4,19.8,79
	c0,4.9,0,9.9-4.9,14.8l-4.9,9.9l-4.9-4.9c-14.8-9.9-34.6-19.8-54.3-29.6h-4.9V532c0-9.9,0-14.8-4.9-19.8
	c-9.9-9.9-24.7-14.8-34.6-14.8c-4.9,0-4.9,0-9.9,4.9L736,591.3c-4.9,4.9-9.9,9.9-14.8,19.8c0,9.9,0,14.8,4.9,24.7
	c9.9,9.9,24.7,14.8,34.6,14.8c4.9,0,4.9,0,9.9-4.9l54.3-34.6c9.9-4.9,19.8-9.9,29.6-14.8c44.5-9.9,93.8,4.9,118.5,44.5
	c14.8,24.7,24.7,49.4,19.8,79c-4.9,24.7-19.8,49.4-44.5,64.2l-143.2,84c-9.9,4.9-19.8,9.9-29.6,14.8c-44.5,9.9-93.8-4.9-118.5-44.5
	c-14.8-24.7-24.7-49.4-19.8-79c0-4.9,0-9.9,4.9-14.8l4.9-9.9l4.9,4.9c14.8,9.9,34.6,19.8,54.3,29.6h4.9v4.9c0,9.9,0,14.8,4.9,19.8
	c9.9,9.9,24.7,14.8,34.6,14.8c4.9,0,4.9,0,9.9-4.9l143.2-84c4.9-4.9,9.9-9.9,14.8-19.8c0-9.9,0-14.8-4.9-24.7
	c-9.9-9.9-24.7-14.8-34.6-14.8c-4.9,0-4.9,0-9.9,4.9L815.1,700c-9.9,4.9-19.8,9.9-29.6,14.8c-44.5,9.9-93.8-4.9-118.5-44.5
	c-14.8-24.7-24.7-49.4-19.8-79c4.9-24.7,19.8-49.4,44.5-64.2l143.2-88.9c9.9-4.9,19.8-9.9,29.6-14.8
	C874.3,418.4,884.2,418.4,894.1,418.4L894.1,418.4z"/>
</svg>
