<?xml version="1.0" encoding="utf-8"?>
<!-- Generator: Adobe Illustrator 24.1.1, SVG Export Plug-In . SVG Version: 6.00 Build 0)  -->
<svg version="1.1" id="Capa_1" xmlns="http://www.w3.org/2000/svg" xmlns:xlink="http://www.w3.org/1999/xlink" x="0px" y="0px"
	 viewBox="0 0 1080 1080" style="enable-background:new 0 0 1080 1080;" xml:space="preserve">
<style type="text/css">
	.st0{fill:#039BE5;}
	.st1{fill-rule:evenodd;clip-rule:evenodd;fill:#B3E5FC;}
</style>
<path class="st0" d="M880.7,263.2H515.8L413.7,151.1c-9.7-14.6-29.2-19.5-43.8-19.5H92.6C43.9,131.6,5,175.4,5,229v584.8
	c0,53.6,38.9,97.5,92.4,97.5h793c48.6,0,92.4-43.9,92.4-97.5V360.6C973.1,307,939.1,263.2,880.7,263.2z M880.7,813.8h-793V229h267.6
	l102.2,112.1c9.7,14.6,29.2,19.5,43.8,19.5h379.5V813.8z"/>
<path class="st1" d="M1025.9,899.3V511.6H510.6v387.7h-54v49.1H1075v-49.1H1025.9z M819.8,899.3H716.7v-24.5h103.1V899.3z
	 M976.8,820.8H564.6V565.6h412.3V820.8z"/>
</svg>
