<?xml version="1.0" encoding="utf-8"?>
<!-- Generator: Adobe Illustrator 24.1.1, SVG Export Plug-In . SVG Version: 6.00 Build 0)  -->
<svg version="1.1" id="Capa_1" xmlns="http://www.w3.org/2000/svg" xmlns:xlink="http://www.w3.org/1999/xlink" x="0px" y="0px"
	 viewBox="0 0 1080 1080" style="enable-background:new 0 0 1080 1080;" xml:space="preserve">
<style type="text/css">
	.st0{fill:#F44336;}
	.st1{fill-rule:evenodd;clip-rule:evenodd;fill:#FFCDD2;}
</style>
<path class="st0" d="M880.7,235.9H515.8L413.7,123.8c-9.7-14.6-29.2-19.5-43.8-19.5H92.6C43.9,104.4,5,148.2,5,201.8v584.8
	c0,53.6,38.9,97.5,92.4,97.5h793c48.6,0,92.4-43.9,92.4-97.5V333.4C973.1,279.8,939.1,235.9,880.7,235.9z M880.7,786.6h-793V201.8
	h267.6l102.2,112.1c9.7,14.6,29.2,19.5,43.8,19.5h379.5V786.6z"/>
<g transform="translate(.028235 .028235)">
	<path class="st1" d="M1075,337.5c0,0,0,137.1,0,147.7c0,0,0,0,0,5.3s-10.5,10.5-21.1,21.1c-5.3,5.3-47.5,26.4-163.5,42.2
		c-105.5,15.8-158.2,21.1-184.6,26.4c-21.1,5.3-21.1,5.3-21.1,5.3V442.9c0,0,0-5.3,5.3-5.3s26.4-5.3,63.3-10.5
		c79.1-10.5,179.3-26.4,253.2-42.2C1075,358.5,1075,337.5,1075,337.5z"/>
	<path class="st1" d="M1075,537.9c0,0,0,137.1,0,147.7c0,0,0,0,0,5.3s-10.5,10.5-21.1,21.1c-5.3,5.3-47.5,26.4-163.5,42.2
		c-105.5,15.8-158.2,21.1-184.6,26.4c-21.1,5.3-21.1,5.3-21.1,5.3V643.3c0,0,0-5.3,5.3-5.3s26.4-5.3,63.3-10.5
		c79.1-10.5,179.3-26.4,253.2-42.2C1075,559,1075,537.9,1075,537.9z"/>
	<path class="st1" d="M1075,727.7c0,0,0,137.1,0,147.7c0,0,0,0,0,5.3s-10.5,10.5-21.1,21.1c-5.3,5.3-47.5,26.4-163.5,42.2
		c-105.5,15.8-158.2,21.1-184.6,26.4c-21.1,5.3-21.1,5.3-21.1,5.3V833.2c0,0,0-5.3,5.3-5.3s26.4-5.3,63.3-10.5
		c79.1-10.5,179.3-26.4,253.2-42.2C1075,748.8,1075,727.7,1075,727.7z"/>
</g>
</svg>
