<?xml version="1.0" encoding="utf-8"?>
<!-- Generator: Adobe Illustrator 24.1.1, SVG Export Plug-In . SVG Version: 6.00 Build 0)  -->
<svg version="1.1" id="Capa_1" xmlns="http://www.w3.org/2000/svg" xmlns:xlink="http://www.w3.org/1999/xlink" x="0px" y="0px"
	 viewBox="0 0 1080 1080" style="enable-background:new 0 0 1080 1080;" xml:space="preserve">
<style type="text/css">
	.st0{fill:#1E88E5;}
	.st1{fill-rule:evenodd;clip-rule:evenodd;fill:#BBDEFB;}
</style>
<path class="st0" d="M885.6,267H520.7L418.6,154.8c-9.7-14.7-29.2-19.5-43.8-19.5H97.4C43.9,135.3,5,179.2,5,232.8v584.8
	C5,871.2,43.9,915,97.4,915h793c48.7,0,92.4-43.9,92.4-97.5V364.4C978,310.8,939.2,267,885.6,267z"/>
<path id="Flame" class="st1" d="M831.1,355c-16.4,0-31.7,8.2-40.8,21.8l-83.8,125.6H510c-13.6,0-24.6,11-24.6,24.6v135.1l86,88.6
	l29.7-31.7l36.9,36.9l-30,30l36.3,36.3l30-30l37.1,37.1l-29.4,29.4l86,86h135.1c13.6,0,24.6-11,24.6-24.6V723.7l125.5-83.8
	c13.7-9.1,21.8-24.5,21.8-40.9V379.6c0-13.6-11-24.6-24.6-24.6L831.1,355z M927.6,428.7c25.4,0,47.9,12.9,61.1,32.5
	c8,11.8,12.6,26,12.6,41.2c0,15.3-4.7,29.4-12.6,41.2c-2.6,3.9-5.7,7.6-9,10.9c-6.7,6.7-14.6,12.1-23.4,15.8
	c-8.8,3.7-18.5,5.8-28.7,5.8c-5.1,0-10.1-0.5-14.9-1.5c-4.8-1-9.4-2.4-13.8-4.3h0c-8.8-3.7-16.7-9.1-23.4-15.8
	c-6.7-6.7-12.1-14.6-15.8-23.4v0c-1.9-4.4-3.3-9-4.3-13.8v0c-1-4.8-1.5-9.7-1.5-14.8c0-30.5,18.6-56.7,45-67.9
	C907.7,430.8,917.5,428.7,927.6,428.7L927.6,428.7z M485.4,797.2v147.4h147.4v-44.2H529.6V797.2L485.4,797.2z"/>
</svg>
