<?xml version="1.0" encoding="utf-8"?>
<!-- Generator: Adobe Illustrator 24.1.1, SVG Export Plug-In . SVG Version: 6.00 Build 0)  -->
<svg version="1.1" id="Capa_1" xmlns="http://www.w3.org/2000/svg" xmlns:xlink="http://www.w3.org/1999/xlink" x="0px" y="0px"
	 viewBox="0 0 1080 1080" style="enable-background:new 0 0 1080 1080;" xml:space="preserve">
<style type="text/css">
	.st0{fill:#00BFA5;}
	.st1{fill-rule:evenodd;clip-rule:evenodd;fill:#A7FFEB;}
</style>
<path class="st0" d="M885.6,249.9H520.8L418.5,137.8c-9.7-14.7-29.2-19.5-43.8-19.5H97.4C43.9,118.2,5,162.1,5,215.7v584.7
	C5,854.1,43.9,898,97.4,898h793c48.6,0,92.4-43.9,92.4-97.5V347.3C978,293.7,939.2,249.9,885.6,249.9z"/>
<g id="prisma" transform="translate(-1.4436)">
	<path class="st1" d="M1018.8,820.9L705,911.4c-9.6,2.8-18.8-5.3-16.8-14.7l112.1-523.2c2.1-9.8,16-11.4,20.4-2.3l207.6,429.5
		C1032.2,808.8,1027.7,818.3,1018.8,820.9z M1072.6,799.6L832.2,302.2c-6-12.4-18.6-20.6-32.8-21.4c-14.6-0.8-27.7,6-35.2,17.8
		L503.5,710c-8.1,12.8-7.9,28.7,0.5,41.3l127.5,192.3c7.6,11.5,20.8,18.1,34.4,18.1c3.9,0,7.8-0.5,11.6-1.6l369.9-106.6
		c11.3-3.3,20.6-11.1,25.4-21.4C1077.7,821.7,1077.6,809.8,1072.6,799.6z"/>
</g>
</svg>
