<?xml version="1.0" encoding="utf-8"?>
<!-- Generator: Adobe Illustrator 27.0.0, SVG Export Plug-In . SVG Version: 6.00 Build 0)  -->
<svg version="1.1" id="Capa_1" xmlns="http://www.w3.org/2000/svg" xmlns:xlink="http://www.w3.org/1999/xlink" x="0px" y="0px"
	 viewBox="0 0 1080 1080" style="enable-background:new 0 0 1080 1080;" xml:space="preserve">
<style type="text/css">
	.st0{fill:#1976D2;}
	.st1{fill-rule:evenodd;clip-rule:evenodd;fill:#BBDEFB;}
</style>
<path class="st0" d="M406.97,101.22H105.49C49.72,101.22,5,145.94,5,201.72v602.96c0,55.12,45.37,100.49,100.49,100.49h803.94
	c55.12,0,100.49-45.37,100.49-100.49V302.21c0-55.5-44.99-100.49-100.49-100.49H507.47L406.97,101.22z"/>
<path class="st1" d="M598.61,337.88c-37.57-0.03-68.06,28.64-68.08,64.02c0,0.03,0,0.07,0,0.1v512.56
	c-0.09,35.38,30.3,64.13,67.87,64.21c0.07,0,0.14,0,0.21,0h408.3c37.57,0.03,68.06-28.64,68.08-64.02c0-0.07,0-0.13,0-0.2V402.05
	c0.06-35.38-30.35-64.11-67.93-64.16c-0.05,0-0.1,0-0.16,0H598.61z M598.61,562.23h408.3v160.19h-408.3V562.23z M598.61,786.43
	h408.3v128.13h-408.3V786.43z"/>
</svg>
