<?xml version="1.0" encoding="utf-8"?>
<!-- Generator: Adobe Illustrator 24.1.1, SVG Export Plug-In . SVG Version: 6.00 Build 0)  -->
<svg version="1.1" id="Capa_1" xmlns="http://www.w3.org/2000/svg" xmlns:xlink="http://www.w3.org/1999/xlink" x="0px" y="0px"
	 viewBox="0 0 1080 1080" style="enable-background:new 0 0 1080 1080;" xml:space="preserve">
<style type="text/css">
	.st0{fill:#EC407A;}
	.st1{fill-rule:evenodd;clip-rule:evenodd;fill:#F8BBD0;}
</style>
<path class="st0" d="M885.6,256.8H520.7L418.5,144.7c-9.7-14.6-29.2-19.5-43.8-19.5H97.4C43.9,125.2,5,169.1,5,222.7v584.8
	c0,53.6,38.9,97.5,92.4,97.5h793c48.6,0,92.4-43.9,92.4-97.5V354.3C978,300.7,939.1,256.8,885.6,256.8z M885.6,807.5H97.4V222.7H365
	l102.2,112.1c9.7,14.6,29.2,19.5,43.8,19.5h379.5v453.2H885.6z"/>
<path class="st1" d="M781.9,598.1l185.6,298H591.4L781.9,598.1 M781.9,485.8l-293.1,469H1075L781.9,485.8z"/>
</svg>
