<?xml version="1.0" encoding="utf-8"?>
<!-- Generator: Adobe Illustrator 24.1.1, SVG Export Plug-In . SVG Version: 6.00 Build 0)  -->
<svg version="1.1" id="Capa_1" xmlns="http://www.w3.org/2000/svg" xmlns:xlink="http://www.w3.org/1999/xlink" x="0px" y="0px"
	 viewBox="0 0 1080 1080" style="enable-background:new 0 0 1080 1080;" xml:space="preserve">
<style type="text/css">
	.st0{fill:#66BB6A;}
	.st1{fill-rule:evenodd;clip-rule:evenodd;fill:#C8E6C9;}
</style>
<path class="st0" d="M885.6,261.2H520.7L418.5,149.1c-9.7-14.6-29.2-19.5-43.8-19.5H97.4C43.9,129.6,5,173.4,5,227v584.8
	c0,53.6,38.9,97.5,92.4,97.5h793c48.6,0,92.4-43.9,92.4-97.5V358.6C978,305,939.1,261.2,885.6,261.2z M885.6,811.8H97.4V227H365
	l102.2,112.1c9.7,14.6,29.2,19.5,43.8,19.5h379.5v453.2H885.6z"/>
<path class="st1" d="M758,529.3L624.2,707.7l99.1,133.8L668.8,886l-158.5-218l-213,282.4H1075L758,529.3z"/>
</svg>
