<?xml version="1.0" encoding="utf-8"?>
<!-- Generator: Adobe Illustrator 24.1.1, SVG Export Plug-In . SVG Version: 6.00 Build 0)  -->
<svg version="1.1" id="Capa_1" xmlns="http://www.w3.org/2000/svg" xmlns:xlink="http://www.w3.org/1999/xlink" x="0px" y="0px"
	 viewBox="0 0 1080 1080" style="enable-background:new 0 0 1080 1080;" xml:space="preserve">
<style type="text/css">
	.st0{fill:#009688;}
	.st1{fill:#B2DFDB;}
</style>
<path class="st0" d="M885.6,250.2H520.7L418.5,138.1c-9.7-14.6-29.2-19.5-43.8-19.5H97.4C43.9,118.6,5,162.5,5,216.1v584.8
	c0,53.6,38.9,97.5,92.4,97.5h793c48.6,0,92.4-43.9,92.4-97.5V347.6C978,294,939.1,250.2,885.6,250.2z M885.6,800.8H97.4V216.1H365
	l102.2,112.1c9.7,14.6,29.2,19.5,43.8,19.5h379.5v453.2H885.6z"/>
<g>
	<path class="st1" d="M1007.5,388H559.4c-33.7,0-67.5,28.9-67.5,67.5v438.5c0,38.5,28.9,67.5,67.5,67.5h448.1
		c33.7,0,67.5-28.9,67.5-67.5V460.3C1075,421.7,1046.1,388,1007.5,388z M867.8,494c33.7,0,62.6,28.9,62.6,67.5
		c0,38.5-28.9,67.5-62.6,67.5c-33.7,0-62.6-28.9-62.6-67.5C805.2,522.9,834.1,494,867.8,494z M988.3,903.6H785.9H593.1
		c-19.3,0-24.1-14.5-19.3-28.9l106-231.3c9.6-14.5,24.1-19.3,33.7-4.8l110.8,154.2c9.6,14.5,28.9,14.5,43.4,4.8l28.9-28.9
		c14.5-14.5,28.9-9.6,38.5,4.8l67.5,106C1012.4,889.1,1007.5,903.6,988.3,903.6z"/>
</g>
</svg>
