<?xml version="1.0" encoding="utf-8"?>
<!-- Generator: Adobe Illustrator 24.1.1, SVG Export Plug-In . SVG Version: 6.00 Build 0)  -->
<svg version="1.1" id="Capa_1" xmlns="http://www.w3.org/2000/svg" xmlns:xlink="http://www.w3.org/1999/xlink" x="0px" y="0px"
	 viewBox="0 0 1080 1080" style="enable-background:new 0 0 1080 1080;" xml:space="preserve">
<style type="text/css">
	.st0{fill:#FFA000;}
	.st1{fill-rule:evenodd;clip-rule:evenodd;fill:#FFECB3;}
</style>
<path class="st0" d="M885.6,262.7H520.7L418.5,150.6c-9.7-14.6-29.2-19.5-43.8-19.5H97.4C43.9,131.1,5,175,5,228.6v584.8
	c0,53.6,38.9,97.5,92.4,97.5h793c48.6,0,92.4-43.9,92.4-97.5V360.1C978,306.5,939.1,262.7,885.6,262.7z M885.6,813.4H97.4V228.6H365
	l102.2,112.1c9.7,14.6,29.2,19.5,43.8,19.5h379.5v453.2H885.6z"/>
<path class="st1" d="M1006.9,477.2H885.4v-58.4c0-19.5-4.9-34-19.5-43.8c-9.7-9.7-29.2-19.5-43.8-19.5H700.6
	c-34,0-63.2,29.2-63.2,63.2v63.2H515.8c-34,0-63.2,29.2-63.2,63.2v340.4c0,34,29.2,63.2,63.2,63.2h496c34,0,63.2-29.2,63.2-63.2
	V545.3C1070.1,506.4,1041,477.2,1006.9,477.2L1006.9,477.2z M700.6,418.8h121.6v63.2H700.6V418.8z M729.7,837l-34-34l92.4-92.4
	l-92.4-92.4l29.2-29.2l121.6,121.6L729.7,837z"/>
</svg>
