<?xml version="1.0" encoding="utf-8"?>
<!-- Generator: Adobe Illustrator 24.1.1, SVG Export Plug-In . SVG Version: 6.00 Build 0)  -->
<svg version="1.1" id="Capa_1" xmlns="http://www.w3.org/2000/svg" xmlns:xlink="http://www.w3.org/1999/xlink" x="0px" y="0px"
	 viewBox="0 0 1080 1080" style="enable-background:new 0 0 1080 1080;" xml:space="preserve">
<style type="text/css">
	.st0{fill:#FF7043;}
	.st1{fill:#FFCCBC;}
</style>
<path class="st0" d="M880.7,252.8H515.8L413.7,140.7c-9.7-14.6-29.2-19.5-43.8-19.5H92.6C43.9,121.2,5,165.1,5,218.7v584.8
	c0,53.6,38.9,97.5,92.4,97.5h793c48.6,0,92.4-43.9,92.4-97.5V350.3C973.1,296.7,939.1,252.8,880.7,252.8z M880.7,803.5h-793V218.7
	h267.6l102.2,112.1c9.7,14.6,29.2,19.5,43.8,19.5h379.5V803.5z"/>
<path class="st1" d="M694.2,809.5V583.1H545l262.5-262.5l262.5,262.5H920.6v226.4H694.2 M545,958.8v-77.2h530v77.2H545z"/>
</svg>
