<?xml version="1.0" encoding="utf-8"?>
<!-- Generator: Adobe Illustrator 27.0.0, SVG Export Plug-In . SVG Version: 6.00 Build 0)  -->
<svg version="1.1" id="Capa_1" xmlns="http://www.w3.org/2000/svg" xmlns:xlink="http://www.w3.org/1999/xlink" x="0px" y="0px"
	 viewBox="0 0 1080 1080" style="enable-background:new 0 0 1080 1080;" xml:space="preserve">
<style type="text/css">
	.st0{fill:#00897B;}
	.st1{fill:#B2DFDB;}
	.st2{fill:#FFCDD2;}
</style>
<path class="st0" d="M886.97,262.59h-365.4L419.19,150.33c-9.7-14.6-29.19-19.5-43.88-19.5H97.58C43.99,130.83,5,174.71,5,228.4
	v585.73c0,53.68,38.99,97.58,92.58,97.58h794.29c48.68,0,92.58-43.88,92.58-97.58V360.27C979.55,306.58,940.66,262.59,886.97,262.59
	L886.97,262.59z M886.97,814.14H97.58V228.4H365.6l102.38,112.27c9.7,14.6,29.19,19.5,43.88,19.5h380.09v453.98h-5L886.97,814.14z"
	/>
<g>
	<path class="st1" d="M855.2,400.49v0.48h192.85v-0.48H855.2z M440.55,401.94l273.68,547.24h89.4l171-342H821.72l-62.74,125.58
		L593.46,401.92H440.55L440.55,401.94z M927.95,539.06l78.53,0.38l0.19-0.38C1006.67,539.06,927.96,539.06,927.95,539.06z"/>
	<path class="st2" d="M855.2,400.47v31.66h61.01l-10.01,20.02h-99.88v31.56h83.82l-11.93,23.77H758.59v31.56h248.08L1075,400.95
		h-26.94v-0.48L855.2,400.47z"/>
</g>
</svg>
