<?xml version="1.0" encoding="utf-8"?>
<!-- Generator: Adobe Illustrator 24.1.1, SVG Export Plug-In . SVG Version: 6.00 Build 0)  -->
<svg version="1.1" id="Capa_1" xmlns="http://www.w3.org/2000/svg" xmlns:xlink="http://www.w3.org/1999/xlink" x="0px" y="0px"
	 viewBox="0 0 1080 1080" style="enable-background:new 0 0 1080 1080;" xml:space="preserve">
<style type="text/css">
	.st0{fill:#EF5350;}
	.st1{fill-rule:evenodd;clip-rule:evenodd;fill:#FFCDD2;}
</style>
<path class="st0" d="M885.6,261.7H520.7L418.6,149.5c-9.7-14.7-29.2-19.5-43.8-19.5H97.4C43.9,130,5,173.9,5,227.5v584.8
	c0,53.6,38.9,97.5,92.4,97.5h793c48.7,0,92.4-43.9,92.4-97.5V359.1C978,305.5,939.2,261.7,885.6,261.7z"/>
<path class="st1" d="M882.3,532.5v-64.2H753.9v176.6c-13.5-10-29.9-16.1-48.2-16.1c-44.3,0-80.3,35.9-80.3,80.3l0,0
	c0,44.3,35.9,80.3,80.3,80.3c44.3,0,80.3-35.9,80.3-80.3V532.5H882.3 M753.9,307.7c177.4,0,321.1,143.8,321.1,321.1l0,0
	C1075,806.2,931.2,950,753.9,950l0,0c-177.4,0-321.1-143.8-321.1-321.1l0,0C432.7,451.5,576.5,307.7,753.9,307.7L753.9,307.7z"/>
</svg>
