<?xml version="1.0" encoding="utf-8"?>
<!-- Generator: Adobe Illustrator 27.0.0, SVG Export Plug-In . SVG Version: 6.00 Build 0)  -->
<svg version="1.1" id="Capa_1" xmlns="http://www.w3.org/2000/svg" xmlns:xlink="http://www.w3.org/1999/xlink" x="0px" y="0px"
	 viewBox="0 0 1080 1080" style="enable-background:new 0 0 1080 1080;" xml:space="preserve">
<style type="text/css">
	.st0{fill:#FF6E40;}
	.st1{fill:#FFCCBC;stroke:#FFCCBC;stroke-width:0.2932;stroke-linejoin:round;}
</style>
<path class="st0" d="M886.97,241.94h-365.4L419.19,129.68c-9.7-14.6-29.19-19.5-43.88-19.5H97.58C43.99,110.18,5,154.06,5,207.75
	v585.73c0,53.68,38.99,97.58,92.58,97.58h794.29c48.68,0,92.58-43.88,92.58-97.58V339.62C979.55,285.93,940.66,241.94,886.97,241.94
	L886.97,241.94z M886.97,793.49H97.58V207.75H365.6l102.38,112.27c9.7,14.6,29.19,19.5,43.88,19.5h380.09v453.98h-5L886.97,793.49z"
	/>
<g>
	<path class="st1" d="M871.26,779.89c24.5-2.55,43.02-23.67,42.19-49c-0.83-25.33-21.95-45.57-47.29-45.57h-1.67
		c-26.07,0.9-46.48,22.77-45.58,48.84c0,0.05,0,0.11,0.01,0.16c0.58,11.69,5.37,22.78,13.48,31.21
		c-28.72,56.55-72.62,97.91-138.43,132.5c-44.74,23.67-91.14,32.1-137.6,26.17c-38.03-5.05-67.57-21.9-86.15-49.79
		c-27-41.36-29.55-86.1-6.76-130.84c13.81-26.56,33.44-49.66,57.43-67.57c-4.36-14.15-8.02-28.51-10.98-43.02
		c-122.41,88.64-109.76,208.5-72.62,265.1c27.88,42.14,84.43,68.36,146.91,68.36c16.91,0,33.81-1.72,50.67-5.88
		C742.93,939.44,824.81,875.3,871.26,779.89z"/>
	<path class="st1" d="M1019.84,675.17C955.64,600.05,861.07,558.7,753.07,558.7h-13.52c-7.92-15.55-23.9-25.34-41.36-25.33h-1.72
		c-26.12,0.47-46.9,22.03-46.43,48.14s22.03,46.9,48.14,46.43h1.67c18.14-0.88,34.19-12.03,41.36-28.72h15.19
		c64.19,0,124.96,18.57,179.84,54.88c42.24,27.83,72.62,64.14,89.48,108.05c14.36,35.43,13.52,70.07-1.67,99.62
		c-23.67,44.74-63.31,69.19-115.64,69.19c-33.81,0-65.86-10.09-82.76-17.69c-9.31,8.43-26.17,21.9-37.98,30.38
		c36.26,16.86,73.45,26.17,108.88,26.17c81.05,0,140.98-44.74,163.81-89.48C1084.86,831.34,1083.15,746.96,1019.84,675.17z"/>
	<path class="st1" d="M590.97,794.2c0.83,25.33,21.95,45.57,47.29,45.57h1.67c26.1-0.46,46.89-21.99,46.43-48.1
		c-0.46-26.1-21.99-46.89-48.1-46.43l0,0h-1.72c-1.67,0-4.21,0-5.88,0.83c-34.64-57.38-49-119.86-43.91-187.38
		c3.38-50.67,20.24-94.57,49.79-130.84c24.5-31.26,71.79-46.45,103.88-47.29c89.43-1.72,127.41,109.76,129.95,154.45
		c10.98,2.55,29.55,8.48,42.24,12.69C902.48,410.96,818.05,340.05,737,340.05c-75.95,0-146.03,54.88-173.91,135.88
		c-38.81,108.1-13.48,211.93,33.81,293.82c-4.71,7.25-6.8,15.9-5.93,24.5V794.2z"/>
</g>
</svg>
