<?xml version="1.0" encoding="utf-8"?>
<!-- Generator: Adobe Illustrator 27.0.0, SVG Export Plug-In . SVG Version: 6.00 Build 0)  -->
<svg version="1.1" id="Capa_1" xmlns="http://www.w3.org/2000/svg" xmlns:xlink="http://www.w3.org/1999/xlink" x="0px" y="0px"
	 viewBox="0 0 1080 1080" style="enable-background:new 0 0 1080 1080;" xml:space="preserve">
<style type="text/css">
	.st0{fill:#5603AD;}
	.st1{fill:#8367C7;}
</style>
<path class="st0" d="M893.07,208.64h-394.7l-98.67-98.67H103.67C48.91,109.97,5,153.87,5,208.64v592.06
	c0,54.12,44.55,98.67,98.67,98.67h789.4c54.12,0,98.67-44.55,98.67-98.67V307.32C991.75,252.82,947.57,208.64,893.07,208.64z"/>
<path class="st1" d="M495.49,387.36c-41.74,0-72.62,36.53-71.23,76.14c1.33,38.06-0.4,87.35-12.81,127.55
	c-12.45,40.32-33.5,65.85-67.88,69.13v37.02c34.38,3.28,55.43,28.82,67.88,69.13c12.41,40.2,14.13,89.49,12.81,127.55
	c-1.38,39.61,29.5,76.14,71.24,76.14h427.64c41.74,0,72.61-36.53,71.23-76.14c-1.33-38.06,0.4-87.35,12.81-127.55
	c12.45-40.32,33.45-65.85,67.83-69.13v-37.02c-34.38-3.28-55.38-28.82-67.83-69.13c-12.41-40.19-14.13-89.49-12.81-127.55
	c1.38-39.61-29.49-76.14-71.23-76.14H495.49L495.49,387.36z M839.45,746.04c0,54.55-40.69,87.63-108.21,87.63H616.3
	c-6.85,0-12.4-5.55-12.4-12.4V536.13c0-6.85,5.55-12.4,12.4-12.4h114.28c56.3,0,93.25,30.5,93.25,77.32
	c0,32.87-24.86,62.29-56.53,67.44v1.72C810.42,674.94,839.45,704.8,839.45,746.04z M718.71,563.03h-65.54v92.57h55.2
	c42.67,0,66.2-17.18,66.2-47.9C774.57,578.93,754.34,563.03,718.71,563.03L718.71,563.03z M653.17,692.34v102.02h67.95
	c44.43,0,67.96-17.83,67.96-51.33c0-33.51-24.19-50.69-70.82-50.69L653.17,692.34L653.17,692.34z"/>
</svg>
