<?xml version="1.0" encoding="utf-8"?>
<!-- Generator: Adobe Illustrator 24.1.1, SVG Export Plug-In . SVG Version: 6.00 Build 0)  -->
<svg version="1.1" id="Capa_1" xmlns="http://www.w3.org/2000/svg" xmlns:xlink="http://www.w3.org/1999/xlink" x="0px" y="0px"
	 viewBox="0 0 1080 1080" style="enable-background:new 0 0 1080 1080;" xml:space="preserve">
<style type="text/css">
	.st0{fill:#1E88E5;}
	
		.st1{fill-rule:evenodd;clip-rule:evenodd;fill:#E3F2FD;stroke:#E3F2FD;stroke-width:0.324;stroke-linejoin:round;stroke-miterlimit:1.3548;}
</style>
<path class="st0" d="M885.6,271.2H520.7L418.6,159.1c-9.7-14.7-29.2-19.5-43.8-19.5H97.4C43.9,139.6,5,183.5,5,237.1v584.8
	c0,53.6,38.9,97.5,92.4,97.5h793c48.7,0,92.4-43.9,92.4-97.5V368.6C978,315,939.2,271.2,885.6,271.2z"/>
<g transform="matrix(.048702 0 0 .048702 11.105 8.6832)">
	<g>
		<path class="st1" d="M15337.2,6985.1c-752.6,69.9-1427.6,578.5-1670.9,1344.2c-158.8,499.9-103.4,1016.7,113.3,1451.9
			L11599,11410.5c-51-30.7-106.9-56.7-166.1-75.5c-408.4-129.7-844.5,95.7-974.2,504.1c-129.7,408.4,97.7,844.5,506,974.2
			c408.4,129.7,844.5-95.7,974.2-504.1c45.4-143,45.7-289.4,11.3-424.8L14650,9900.1c-356-334.8-541.1-883.2-383.3-1380.1
			c219.2-690.1,956.3-1072.6,1646.3-853.4c551.4,175.1,905.4,680.8,913.8,1229.1l628.7,13.2c-2.8-819.9-530.2-1579.2-1353.7-1840.8
			C15846.6,6987.1,15588,6961.8,15337.2,6985.1L15337.2,6985.1z M15573.2,8218c-429.5,0-777.9,348.3-777.9,777.9
			c0,429.6,348.3,777.9,777.9,777.9c150.4,0,290.7-43.1,409.7-117.1l2716.8,1976.7c211.8-441.8,678.1-785.4,1200.8-785.4
			c725.9,0,1315.9,588.2,1315.9,1314.1c0,580.1-377.3,1073.6-898.7,1247.9l179.4,604.2c782.6-251.5,1348-985.9,1348-1852.1
			c0-1073.9-870.7-1944.6-1944.6-1944.6c-525.9,0-1001.8,210.3-1351.8,549.4l-2218.4-1589.7c13.9-58,20.8-118.9,20.8-181.2
			C16351,8566.3,16002.8,8218,15573.2,8218L15573.2,8218z M11200.7,10107.9c-599.5-5.6-1190.6,265.1-1568.9,783.5
			c-625.3,857-431.8,2063.6,432.4,2694.1c423.1,308.8,929.3,421.9,1408.4,356.8l860.9,2571.5c-44.9,38.2-86.4,80.6-122.7,130.3
			c-250.1,342.8-173.9,825.8,171.8,1078c345.7,252.2,829.8,178.6,1079.9-164.3c250.2-342.8,172-823.9-173.7-1076.2
			c-121-88.3-259.6-136.4-398.4-147.3l-1034.6-3173.7c-427.7,228.2-1002.9,229.5-1423.6-77.4c-584-426.2-715.3-1242.6-292.6-1821.9
			c337.8-462.9,927-635.2,1448-468.2l207.7-587.2C11601.3,10141.3,11400.4,10109.7,11200.7,10107.9L11200.7,10107.9z
			 M19928.8,11384.1c-100.2-8.6-204.1,1.1-305.9,34c-407.2,131.5-631.2,567.2-500.3,972.4c45.8,141.8,129.7,259.7,236,349.3
			l-1045.9,3168c483.3,64.4,950.9,400.1,1110.1,893c221.1,684.5-157.8,1418.4-845.8,1640.7c-549.8,177.7-1129.6-24.3-1453.7-462.6
			l-519.2,353.1c476.8,661,1344.4,969.5,2165.5,704.2c1018-328.9,1577-1415.3,1249.9-2427.9c-160.2-495.8-502.8-882-930.8-1108.3
			l830.7-2579c59.2-4.7,118.5-16.8,177.5-35.9c407.2-131.6,631.1-565.4,500.3-970.4C20499,11610.8,20229.4,11410,19928.8,11384.1
			L19928.8,11384.1z M11291.3,15992.7c-480.2,661.1-504.6,1582,3.8,2276.9c630.3,861.6,1840.1,1049.5,2701.7,419.1
			c421.8-308.7,681-757.2,762.7-1234.7l2713-26.4c23,54.6,52.2,106.7,88.7,156.7c252.2,344.6,735.3,420.1,1079.9,168
			c344.6-252.2,420.1-737.2,168-1081.8c-252.2-344.6-735.3-418.3-1079.9-166.1c-120.6,88.3-208.4,205-260.5,334.2l-3339.9,7.5
			c89.4,478.7-82.9,1029.9-502.2,1336.7c-582.3,426.1-1399.6,299.1-1825.7-283.2c-340.5-465.4-327.2-1081.5-11.3-1527.4
			L11291.3,15992.7z"/>
	</g>
</g>
</svg>
