<?xml version="1.0" encoding="utf-8"?>
<!-- Generator: Adobe Illustrator 24.1.1, SVG Export Plug-In . SVG Version: 6.00 Build 0)  -->
<svg version="1.1" id="Capa_1" xmlns="http://www.w3.org/2000/svg" xmlns:xlink="http://www.w3.org/1999/xlink" x="0px" y="0px"
	 viewBox="0 0 1080 1080" style="enable-background:new 0 0 1080 1080;" xml:space="preserve">
<style type="text/css">
	.st0{fill:#AFB42B;}
	.st1{fill-rule:evenodd;clip-rule:evenodd;fill:#F0F4C3;}
</style>
<path class="st0" d="M885.6,267.7H520.8L418.5,155.5c-9.7-14.7-29.2-19.5-43.8-19.5H97.4C43.9,136,5,179.9,5,233.5v584.7
	c0,53.6,38.9,97.5,92.4,97.5h793c48.6,0,92.4-43.9,92.4-97.5V365C978,311.4,939.2,267.7,885.6,267.7z"/>
<path class="st1" d="M1014.6,461.1v422.5H592.1V461.1L1014.6,461.1 M1047.8,400.7H558.9c-14.9-0.1-27.1,12-27.2,27
	c0,0.1,0,0.1,0,0.2v488.9c0,12.1,12.1,27.2,27.2,27.2h488.9c12.1,0,27.2-15.1,27.2-27.2V427.9C1075,412.8,1059.9,400.7,1047.8,400.7
	z M773.1,521.5h181.1v60.4H773.1L773.1,521.5z M773.1,642.2h181.1v60.3H773.1L773.1,642.2z M773.1,762.9h181.1v60.4H773.1
	L773.1,762.9z M652.4,521.5h60.4v60.4h-60.4V521.5z M652.4,642.2h60.4v60.3h-60.4V642.2z M652.4,762.9h60.4v60.4h-60.4V762.9z"/>
</svg>
