<?xml version="1.0" encoding="utf-8"?>
<!-- Generator: Adobe Illustrator 24.1.1, SVG Export Plug-In . SVG Version: 6.00 Build 0)  -->
<svg version="1.1" id="Capa_1" xmlns="http://www.w3.org/2000/svg" xmlns:xlink="http://www.w3.org/1999/xlink" x="0px" y="0px"
	 viewBox="0 0 1080 1080" style="enable-background:new 0 0 1080 1080;" xml:space="preserve">
<style type="text/css">
	.st0{fill:#03A9F4;}
	.st1{fill-rule:evenodd;clip-rule:evenodd;fill:#B3E5FC;}
</style>
<path class="st0" d="M885.6,194.5H520.7L418.5,81.3c-9.7-14.8-29.2-19.7-43.8-19.7H97.4C43.9,61.7,5,105.9,5,160v590.3
	c0,54.1,38.9,98.4,92.4,98.4h793c48.6,0,92.4-44.3,92.4-98.4V292.9C978,238.7,939.1,194.5,885.6,194.5z M885.6,750.3H97.4V160H365
	l102.2,113.1c9.7,14.8,29.2,19.7,43.8,19.7h379.5v457.4H885.6z"/>
<path class="st1" d="M1014.1,434.7H547.5c-30.4,0-55.8,25.6-55.8,56.3v527.3l116.7-117.8h410.8c30.4,0,55.8-25.6,55.8-56.3V491
	C1075,460.3,1044.6,434.7,1014.1,434.7z M811.2,787.9h-55.8v-56.3h55.8V787.9z M811.2,670.2h-55.8V552.4h55.8V670.2z"/>
</svg>
