<?xml version="1.0" encoding="utf-8"?>
<!-- Generator: Adobe Illustrator 24.1.1, SVG Export Plug-In . SVG Version: 6.00 Build 0)  -->
<svg version="1.1" id="Capa_1" xmlns="http://www.w3.org/2000/svg" xmlns:xlink="http://www.w3.org/1999/xlink" x="0px" y="0px"
	 viewBox="0 0 1080 1080" style="enable-background:new 0 0 1080 1080;" xml:space="preserve">
<style type="text/css">
	.st0{fill:#FF5252;}
	.st1{fill:#FFCDD2;}
</style>
<path class="st0" d="M885.6,236.5H520.7L418.5,123.4c-9.7-14.8-29.2-19.7-43.8-19.7H97.4C43.9,103.7,5,148,5,202.1v590.3
	c0,54.1,38.9,98.4,92.4,98.4h793c48.6,0,92.4-44.3,92.4-98.4V334.9C978,280.8,939.1,236.5,885.6,236.5z M885.6,792.3H97.4V202.1H365
	l102.2,113.1c9.7,14.8,29.2,19.7,43.8,19.7h379.5v457.4H885.6z"/>
<path class="st1" d="M732.2,774c-10.5-111.8-21.1-202.3-21.1-202.3s-10.5-5.3-21.1-5.3h-21.1v-79.9h163.5V337.5l73.8-47.9
	c47.5-26.6,79.1-47.9,84.4-47.9c15.8,0,36.9,21.3,36.9,37.3c0,5.3,0,16-5.3,21.3c-5.3,5.3-31.6,21.3-58,37.3l-52.7,31.9V428v58.6
	H1075v79.9h-42.2l-42.2,409.9H748L732.2,774L732.2,774z"/>
</svg>
