<?xml version="1.0" encoding="utf-8"?>
<!-- Generator: Adobe Illustrator 27.0.0, SVG Export Plug-In . SVG Version: 6.00 Build 0)  -->
<svg version="1.1" id="Capa_1" xmlns="http://www.w3.org/2000/svg" xmlns:xlink="http://www.w3.org/1999/xlink" x="0px" y="0px"
	 viewBox="0 0 1080 1080" style="enable-background:new 0 0 1080 1080;" xml:space="preserve">
<style type="text/css">
	.st0{fill:#26A69A;}
	.st1{fill:#A7FFEB;}
</style>
<path class="st0" d="M886.83,261.79H521.48L419.12,149.55c-9.7-14.6-29.19-19.5-43.88-19.5H97.56C43.99,130.05,5,173.93,5,227.61
	v585.64c0,53.68,38.99,97.56,92.56,97.56h794.16c48.68,0,92.56-43.88,92.56-97.56v-453.8C979.39,305.78,940.51,261.79,886.83,261.79
	L886.83,261.79z M886.83,813.25H97.56V227.61h267.98l102.36,112.25c9.7,14.6,29.19,19.5,43.88,19.5h380.03v453.91h-5L886.83,813.25z
	"/>
<path class="st1" d="M898.62,531.14l-0.23-0.09c-0.14-0.05-0.28-0.09-0.37-0.23c-0.41-0.41-0.6-0.99-0.5-1.56l12.96-79.03
	l60.61,60.66l-63.04,26.8c-0.17,0.09-0.36,0.14-0.55,0.14h-0.28l-0.32-0.32C904.56,534.91,901.75,532.75,898.62,531.14
	L898.62,531.14z M986.58,526.33l64.83,64.83c13.47,13.51,20.2,20.2,22.68,28.04c0.37,1.15,0.69,2.29,0.92,3.48l-154.98-65.6
	l-0.23-0.14c-0.64-0.23-1.33-0.5-1.33-1.15c0-0.64,0.73-0.96,1.33-1.19l0.23-0.09L986.58,526.33z M1072.34,643.47
	c-3.34,6.28-9.85,12.83-20.89,23.87l-73.12,73.07l-94.56-19.65l-0.5-0.14c-0.82-0.09-1.69-0.28-1.69-1.01
	c-0.74-7.88-4.7-15.11-10.95-19.97c-0.41-0.37-0.32-0.96-0.18-1.51l0.05-0.23l17.78-109.17l0.05-0.37c0.09-0.87,0.28-1.83,1.01-1.83
	c7.71-0.95,14.71-4.96,19.42-11.13c0.14-0.14,0.23-0.32,0.46-0.41c0.5-0.28,1.15,0,1.7,0.23L1072.34,643.47z M961.52,757.22
	L841.3,877.44l20.57-126.44l0.05-0.18l0.09-0.46c0.18-0.41,0.6-0.6,1.05-0.73l0.18-0.09c4.5-1.94,8.49-4.9,11.64-8.66
	c0.37-0.46,0.87-0.92,1.51-1.01c0.15-0.05,0.31-0.05,0.46,0l84.66,17.41L961.52,757.22z M815.88,902.91l-13.56,13.51L652.51,699.96
	l-0.14-0.23c-0.23-0.32-0.5-0.64-0.46-1.01c0.06-0.27,0.18-0.52,0.37-0.73l0.18-0.18c0.44-0.67,0.85-1.36,1.24-2.06l0.37-0.6
	l0.05-0.05c0.18-0.4,0.47-0.75,0.82-1.01c0.37-0.18,0.87-0.09,1.24,0l165.94,34.22c0.5,0.05,0.92,0.23,1.28,0.55
	c0.23,0.23,0.28,0.46,0.32,0.69c2.33,8.88,8.69,16.15,17.18,19.65c0.5,0.28,0.28,0.78,0.09,1.33c-0.13,0.23-0.22,0.48-0.28,0.73
	L815.88,902.91z M787.57,931.18c-9.99,9.9-15.85,15.12-22.54,17.23c-6.56,2.06-13.6,2.06-20.16,0c-7.79-2.47-14.52-9.21-27.99-22.68
	L566.43,775.28l39.31-60.93c0.18-0.28,0.37-0.55,0.64-0.78c0.46-0.32,1.05-0.18,1.56,0c9.02,2.72,18.7,2.23,27.4-1.37
	c0.46-0.18,0.87-0.28,1.24,0c0.17,0.17,0.32,0.36,0.46,0.55L787.57,931.18z M551.95,760.8l-34.54-34.5l68.17-29.09
	c0.17-0.09,0.36-0.14,0.55-0.14c0.55,0,0.92,0.6,1.19,1.1c0.68,1.06,1.41,2.08,2.2,3.07l0.18,0.28c0.23,0.28,0.09,0.6-0.14,0.82
	L551.95,760.8z M502.15,711l-43.66-43.66c-7.42-7.42-12.83-12.78-16.58-17.45l132.77,27.53l0.5,0.09c0.82,0.14,1.74,0.28,1.74,1.05
	c0,0.82-1.01,1.24-1.83,1.56l-0.41,0.14L502.15,711z M434.3,627.44c0.14-2.8,0.64-5.58,1.51-8.25c2.47-7.83,9.21-14.52,22.68-28.04
	l55.85-55.85c25.75,37.34,51.54,74.63,77.42,111.87c0.41,0.6,0.92,1.24,0.41,1.74c-2.55,2.67-4.76,5.64-6.6,8.84
	c-0.2,0.41-0.48,0.77-0.82,1.05c-0.23,0.14-0.46,0.05-0.73,0h-0.05L434.3,627.44z M529.32,520.33l75.13-75.09
	c7.06,3.07,32.76,13.93,55.71,23.64l38.25,16.22c0.5,0.23,0.96,0.41,1.19,0.92c0.07,0.33,0.07,0.68,0,1.01
	c-2.41,11,0.86,22.48,8.7,30.56c0.5,0.5,0,1.24-0.41,1.83l-0.23,0.37l-76.28,118.15c-0.18,0.33-0.43,0.61-0.73,0.82
	c-0.41,0.28-0.96,0.14-1.42,0.05c-2.96-0.77-6.01-1.19-9.07-1.24c-2.75,0-5.73,0.5-8.75,1.05c-0.37,0.05-0.64,0.09-0.92-0.09
	c-0.3-0.26-0.56-0.55-0.78-0.87L529.32,520.33z M619.61,430.08l97.26-97.26c13.47-13.47,20.2-20.2,27.99-22.68
	c6.56-2.06,13.6-2.06,20.16,0c7.79,2.47,14.57,9.21,27.99,22.68l21.12,21.07L744.95,461c-0.18,0.31-0.41,0.59-0.69,0.82
	c-0.41,0.28-1.01,0.14-1.51,0c-11.07-3.38-23.09-1.07-32.11,6.18c-0.46,0.46-1.15,0.18-1.69-0.05
	C699.92,464.02,629.64,434.34,619.61,430.08L619.61,430.08z M828.79,368.55l63.86,63.86l-15.39,95.34v0.23
	c0,0.23-0.05,0.46-0.14,0.64c-0.14,0.37-0.5,0.41-0.82,0.5c-3.42,1.06-6.62,2.71-9.48,4.86c-0.18,0.18-0.37,0.37-0.69,0.41
	c-0.25-0.01-0.49-0.04-0.73-0.09l-97.31-41.37l-0.18-0.09c-0.6-0.23-1.37-0.55-1.37-1.19c-0.57-5.42-2.33-10.65-5.18-15.3
	c-0.46-0.78-0.96-1.56-0.6-2.34L828.79,368.55z M763,512.54l91.26,38.62c0.5,0.23,1.05,0.46,1.28,0.96c0.05,0.32,0.05,0.64,0,0.96
	c-0.32,1.45-0.49,2.92-0.5,4.4v2.57c0,0.64-0.69,0.92-1.28,1.15l-0.18,0.09c-14.43,6.14-202.91,86.49-203.18,86.49s-0.6,0-0.87-0.28
	c-0.5-0.5,0-1.19,0.46-1.83l0.23-0.32l75-116.09l0.09-0.23c0.46-0.69,0.96-1.47,1.74-1.47l0.78,0.09
	c12.87,1.88,25.68-3.76,32.99-14.52c0.16-0.26,0.36-0.49,0.6-0.69C761.81,512.13,762.49,512.31,763,512.54L763,512.54z
	 M658.55,666.15l205.43-87.6c0,0,0.28,0,0.55,0.28c1.15,1.15,2.11,1.88,3.02,2.61l0.46,0.28c0.41,0.23,0.82,0.5,0.87,0.92
	l-0.05,0.41l-17.59,108.12l-0.09,0.41c-0.09,0.87-0.23,1.79-1.01,1.79c-9.53,0.64-18.13,5.96-22.95,14.2l-0.09,0.14
	c-0.23,0.37-0.46,0.73-0.82,0.92c-0.37,0.18-0.82,0.14-1.19,0.05l-163.83-33.81C661.12,674.81,658.74,666.2,658.55,666.15
	L658.55,666.15z"/>
</svg>
