<?xml version="1.0" encoding="utf-8"?>
<!-- Generator: Adobe Illustrator 24.1.1, SVG Export Plug-In . SVG Version: 6.00 Build 0)  -->
<svg version="1.1" id="Capa_1" xmlns="http://www.w3.org/2000/svg" xmlns:xlink="http://www.w3.org/1999/xlink" x="0px" y="0px"
	 viewBox="0 0 1080 1080" style="enable-background:new 0 0 1080 1080;" xml:space="preserve">
<style type="text/css">
	.st0{fill:#FF5252;}
	.st1{fill:#FFCDD2;}
</style>
<path class="st0" d="M880.7,248.1H515.8L413.7,136c-9.7-14.6-29.2-19.5-43.8-19.5H92.6C43.9,116.5,5,160.4,5,214v584.8
	c0,53.6,38.9,97.5,92.4,97.5h793c48.6,0,92.4-43.9,92.4-97.5V345.5C973.1,291.9,939.1,248.1,880.7,248.1z M880.7,798.8h-793V214
	h267.6l102.2,112.1c9.7,14.6,29.2,19.5,43.8,19.5h379.5V798.8z"/>
<path class="st1" d="M778.5,370.7c-165.8,0-296.4,135.6-296.4,296.4s135.6,296.4,296.4,296.4s296.4-135.6,296.4-296.4
	C1079.9,501.3,944.3,370.7,778.5,370.7z M778.5,908.2c-130.6,0-241.1-105.5-241.1-241.1c0-55.3,20.1-105.5,50.2-145.7L924.2,858
	C889,888.1,833.7,908.2,778.5,908.2L778.5,908.2z M969.4,812.8L632.8,476.2C673,446.1,723.2,426,778.5,426
	c130.6,0,241.1,105.5,241.1,241.1C1019.6,722.4,999.5,772.6,969.4,812.8L969.4,812.8z"/>
</svg>
