<?xml version="1.0" encoding="utf-8"?>
<!-- Generator: Adobe Illustrator 27.0.0, SVG Export Plug-In . SVG Version: 6.00 Build 0)  -->
<svg version="1.1" id="Capa_1" xmlns="http://www.w3.org/2000/svg" xmlns:xlink="http://www.w3.org/1999/xlink" x="0px" y="0px"
	 viewBox="0 0 1080 1080" style="enable-background:new 0 0 1080 1080;" xml:space="preserve">
<style type="text/css">
	.st0{fill:#1976D2;}
	.st1{fill-rule:evenodd;clip-rule:evenodd;fill:#BBDEFB;}
</style>
<path class="st0" d="M411.87,113.49H106.72C50.26,113.49,5,158.76,5,215.21v610.31c0,55.79,45.93,101.72,101.72,101.72h813.75
	c55.79,0,101.72-45.93,101.72-101.72V316.93c0-56.18-45.54-101.72-101.72-101.72H513.59L411.87,113.49z"/>
<path class="st1" d="M730.2,828.17h-90.26l-169.8-172.92l169.8-172.92h90.26l45.3-78.16L1010.33,344L1075,577.09l-45.3,78.16
	l45.3,78.16l-64.67,233.09l-234.82-60.18L730.2,828.17 M735.04,819.52l177.41,47.73L810.09,689.84H605.36L735.04,819.52
	 M972.63,832.66l47.73-177.41l-47.73-177.41L869.92,655.25L972.63,832.66 M735.04,490.98L605.36,620.67h204.73l102.36-177.41
	L735.04,490.98z"/>
</svg>
