<?xml version="1.0" encoding="utf-8"?>
<!-- Generator: Adobe Illustrator 24.1.1, SVG Export Plug-In . SVG Version: 6.00 Build 0)  -->
<svg version="1.1" id="Capa_1" xmlns="http://www.w3.org/2000/svg" xmlns:xlink="http://www.w3.org/1999/xlink" x="0px" y="0px"
	 viewBox="0 0 1080 1080" style="enable-background:new 0 0 1080 1080;" xml:space="preserve">
<style type="text/css">
	.st0{fill:#1976D2;}
	.st1{fill:#BBDEFB;}
</style>
<path class="st0" d="M880.7,262.7H515.8L413.7,150.6c-9.7-14.6-29.2-19.5-43.8-19.5H92.6C43.9,131.1,5,175,5,228.6v584.8
	c0,53.6,38.9,97.5,92.4,97.5h793c48.6,0,92.4-43.9,92.4-97.5V360.1C973.1,306.5,939.1,262.7,880.7,262.7z M880.7,813.4h-793V228.6
	h267.6l102.2,112.1c9.7,14.6,29.2,19.5,43.8,19.5h379.5V813.4z"/>
<path class="st1" d="M841.6,647.4c0,34-24.3,58.4-58.4,58.4l0,0c-34,0-58.4-24.3-58.4-58.4l0,0c0-34,24.3-58.4,58.4-58.4l0,0
	C817.3,589,841.6,618.2,841.6,647.4L841.6,647.4z M1041,501.5c-14.6-19.5-29.2-43.8-43.8-58.4l-68.1,38.9
	c-19.5-19.5-43.8-34-68.1-38.9c-24.3,24.3-38.9,48.6-53.5,77.8c72.9-4.9,150.7,24.3,223.7,77.8l43.8-24.3
	C1065.3,545.3,1055.5,521,1041,501.5L1041,501.5z M1041,798.1c14.6-19.5,24.3-43.8,29.2-68.1l-68.1-38.9c4.9-29.2,4.9-53.5,0-82.7
	c-34-9.7-63.2-9.7-92.4-9.7c43.8,63.2,58.4,141,43.8,233.4l43.8,24.3C1016.6,841.9,1031.2,817.6,1041,798.1L1041,798.1z
	 M783.2,948.9c24.3,0,48.6-4.9,72.9-9.7v-77.8c24.3-9.7,48.6-24.3,68.1-38.9c-9.7-29.2-24.3-58.4-38.9-87.5
	c-34,68.1-97.3,121.6-179.9,155.6v48.6C734.6,944,758.9,948.9,783.2,948.9L783.2,948.9z M525.5,798.1c14.6,19.5,29.2,43.8,43.8,58.4
	l68.1-38.9c19.5,19.5,43.8,34,68.1,38.9c24.3-24.3,38.9-48.6,53.5-77.8c-72.9,4.9-150.7-24.3-223.7-77.8l-43.8,24.3
	C501.2,754.4,510.9,773.8,525.5,798.1L525.5,798.1z M525.5,501.5c-14.6,19.5-24.3,43.8-29.2,68.1l68.1,38.9
	c-4.9,29.2-4.9,53.5,0,82.7c34,9.7,63.2,9.7,92.4,9.7c-43.8-63.2-58.4-141-43.8-233.4l-43.8-24.3
	C554.7,457.7,540.1,477.2,525.5,501.5L525.5,501.5z M783.2,350.8c-24.3,0-48.6,4.9-72.9,9.7v77.8c-24.3,9.7-48.6,24.3-68.1,38.9
	c9.7,29.2,24.3,58.4,38.9,87.5c34-68.1,97.3-121.6,179.9-155.6v-48.6C836.7,355.6,807.5,350.8,783.2,350.8L783.2,350.8z"/>
</svg>
