<?xml version="1.0" encoding="utf-8"?>
<!-- Generator: Adobe Illustrator 24.1.1, SVG Export Plug-In . SVG Version: 6.00 Build 0)  -->
<svg version="1.1" id="Capa_1" xmlns="http://www.w3.org/2000/svg" xmlns:xlink="http://www.w3.org/1999/xlink" x="0px" y="0px"
	 viewBox="0 0 1080 1080" style="enable-background:new 0 0 1080 1080;" xml:space="preserve">
<style type="text/css">
	.st0{fill:#FF9800;}
	.st1{fill:#FFF9C4;}
</style>
<path class="st0" d="M880.7,190.5H515.8L413.7,78.4c-9.7-14.6-29.2-19.5-43.8-19.5H92.6C43.9,58.9,5,102.8,5,156.4v584.8
	c0,53.6,38.9,97.5,92.4,97.5h793c48.6,0,92.4-43.9,92.4-97.5V287.9C973.1,234.3,939.1,190.5,880.7,190.5z M880.7,741.1h-793V156.4
	h267.6l102.2,112.1c9.7,14.6,29.2,19.5,43.8,19.5h379.5V741.1z"/>
<path class="st1" d="M666.9,1021.1c-14.9,0-29.9-14.9-29.9-29.9l0,0v-94.6H512.6c-34.8,0-64.7-29.9-64.7-64.7V453.7
	c0-34.8,29.9-64.7,64.7-64.7h497.7c34.8,0,64.7,29.9,64.7,64.7V832c0,34.8-29.9,64.7-64.7,64.7H821.2l-114.5,114.5
	c-5,5-14.9,10-19.9,10H666.9 M542.5,488.6v64.7h438v-64.7H542.5 M542.5,613v64.7h248.8V613H542.5 M542.5,737.4v64.7H856v-64.7H542.5
	z"/>
</svg>
