<?xml version="1.0" encoding="utf-8"?>
<!-- Generator: Adobe Illustrator 24.1.1, SVG Export Plug-In . SVG Version: 6.00 Build 0)  -->
<svg version="1.1" id="Capa_1" xmlns="http://www.w3.org/2000/svg" xmlns:xlink="http://www.w3.org/1999/xlink" x="0px" y="0px"
	 viewBox="0 0 1080 1080" style="enable-background:new 0 0 1080 1080;" xml:space="preserve">
<style type="text/css">
	.st0{fill:#42A5F5;}
	.st1{fill-rule:evenodd;clip-rule:evenodd;fill:#3C78AA;}
	.st2{fill-rule:evenodd;clip-rule:evenodd;fill:#FDD835;}
</style>
<path class="st0" d="M885.6,264.1H520.8L418.5,151.9c-9.7-14.7-29.2-19.5-43.8-19.5H97.4C43.9,132.4,5,176.3,5,229.9v584.7
	c0,53.6,38.9,97.5,92.4,97.5h793c48.6,0,92.4-43.9,92.4-97.5V361.5C978,307.9,939.2,264.1,885.6,264.1z"/>
<g transform="matrix(.6453 0 0 .64533 9.5434 7.2458)">
	<g>
		<path class="st1" d="M1059.1,481.9c-77,0-139.4,62.4-139.4,139.4v81.9h209.1c19,0,34.7,27.8,34.7,46.9H815.3
			c-77,0-139.4,62.4-139.4,139.4v184.4c0,77,62.4,139.4,139.4,139.4h57.5v-130.7c0-77,62-139.4,139.1-139.4h256
			c77,0,139.4-62,139.4-139.1V621.3c0-77-62.4-139.4-139.4-139.4L1059.1,481.9z M1024.1,560.4c19.5,0,35,5.9,35,34.7
			c0,28.8-15.5,43.4-35,43.4c-19,0-34.7-14.7-34.7-43.4C989.4,566.3,1005,560.4,1024.1,560.4z"/>
		<path class="st2" d="M1454.1,725.7v130.7c0,77-61.9,139.4-139,139.4h-256c-77,0-139.4,61.9-139.4,139v182.9
			c0,77,62.4,139.5,139.4,139.5c0,0,0,0,0,0h208.8c77,0,139.4-62.5,139.4-139.5c0,0,0,0,0,0v-81.9h-209.2c-19,0-34.6-27.7-34.6-46.8
			h348.2c77,0,139.4-62.5,139.4-139.5c0,0,0,0,0,0V865.1c0-77-62.4-139.4-139.4-139.4L1454.1,725.7z M984,945.8l-0.2,0.2
			c0.6-0.1,1.2-0.1,1.8-0.2H984z M1302.9,1300.5c19,0,34.7,14.7,34.7,43.4c0,19.1-15.5,34.6-34.7,34.6c-19.5,0-35-5.8-35-34.6
			C1267.9,1315.2,1283.4,1300.5,1302.9,1300.5z"/>
	</g>
</g>
</svg>
