<?xml version="1.0" encoding="utf-8"?>
<!-- Generator: Adobe Illustrator 24.1.1, SVG Export Plug-In . SVG Version: 6.00 Build 0)  -->
<svg version="1.1" id="Capa_1" xmlns="http://www.w3.org/2000/svg" xmlns:xlink="http://www.w3.org/1999/xlink" x="0px" y="0px"
	 viewBox="0 0 1080 1080" style="enable-background:new 0 0 1080 1080;" xml:space="preserve">
<style type="text/css">
	.st0{fill:#FBC02D;}
	.st1{fill:#FFFDE7;}
</style>
<path class="st0" d="M880.7,243.8H515.8L413.7,131.7c-9.7-14.6-29.2-19.5-43.8-19.5H92.6C43.9,112.2,5,156.1,5,209.7v584.8
	C5,848.1,43.9,892,97.4,892h793c48.6,0,92.4-43.9,92.4-97.5V341.3C973.1,287.7,939.1,243.8,880.7,243.8z M880.7,794.5h-793V209.7
	h267.6l102.2,112.1c9.7,14.6,29.2,19.5,43.8,19.5h379.5V794.5z"/>
<path class="st1" d="M579.6,328.7h465.6c14.9,0,29.7,14.9,29.7,29.7v113.9c0,14.9-14.9,29.7-29.7,29.7H579.6
	c-14.9,0-29.7-14.9-29.7-29.7V358.4C549.9,343.6,564.8,328.7,579.6,328.7 M579.6,561.5h465.6c14.9,0,29.7,14.9,29.7,29.7v113.9
	c0,14.9-14.9,29.7-29.7,29.7H579.6c-14.9,0-29.7-14.9-29.7-29.7V591.3C549.9,576.4,564.8,561.5,579.6,561.5 M579.6,794.4h465.6
	c14.9,0,29.7,14.9,29.7,29.7l0,0V938c0,14.9-14.9,29.7-29.7,29.7H579.6c-14.9,0-29.7-14.9-29.7-29.7V824.1
	C549.9,809.2,564.8,794.4,579.6,794.4L579.6,794.4 M728.2,447.6H758v-59.4h-29.7V447.6 M728.2,680.4H758V621h-29.7V680.4
	 M728.2,913.3H758v-59.4h-29.7V913.3 M609.4,388.2v59.4h59.4v-59.4H609.4 M609.4,621v59.4h59.4V621H609.4 M609.4,853.8v59.4h59.4
	v-59.4H609.4z"/>
</svg>
