<?xml version="1.0" encoding="utf-8"?>
<!-- Generator: Adobe Illustrator 24.1.1, SVG Export Plug-In . SVG Version: 6.00 Build 0)  -->
<svg version="1.1" id="Capa_1" xmlns="http://www.w3.org/2000/svg" xmlns:xlink="http://www.w3.org/1999/xlink" x="0px" y="0px"
	 viewBox="0 0 1080 1080" style="enable-background:new 0 0 1080 1080;" xml:space="preserve">
<style type="text/css">
	.st0{fill:#43A047;}
	.st1{fill:#C8E6C9;}
</style>
<path class="st0" d="M880.7,261.2H515.8L413.7,149.2c-9.7-14.6-29.2-19.5-43.8-19.5H92.6C43.9,129.7,5,173.5,5,227.1v584.8
	c0,53.6,38.9,97.5,92.4,97.5h793c48.6,0,92.4-43.9,92.4-97.5V358.7C973.1,305.1,939.1,261.2,880.7,261.2z M880.7,811.9h-793V227.1
	h267.6l102.2,112.1c9.7,14.6,29.2,19.5,43.8,19.5h379.5V811.9z"/>
<path class="st1" d="M469.9,379.1v285.6l101.7-101.7l101.7,116.2c33.9,33.9,33.9,67.8,33.9,67.8v203.3h130.7V713.1
	c0,0,0-33.9-19.4-67.8c-19.4-33.9-48.4-67.8-48.4-67.8L668.4,461.4l82.3-87.1 M973.3,379.1L823.3,529.2l14.5,19.4
	c0,0,29,33.9,48.4,67.8c4.8,14.5,9.7,29,14.5,38.7L1075,480.8"/>
</svg>
