<?xml version="1.0" encoding="utf-8"?>
<!-- Generator: Adobe Illustrator 24.1.1, SVG Export Plug-In . SVG Version: 6.00 Build 0)  -->
<svg version="1.1" id="Capa_1" xmlns="http://www.w3.org/2000/svg" xmlns:xlink="http://www.w3.org/1999/xlink" x="0px" y="0px"
	 viewBox="0 0 1080 1080" style="enable-background:new 0 0 1080 1080;" xml:space="preserve">
<style type="text/css">
	.st0{fill:#FF7043;}
	.st1{fill-rule:evenodd;clip-rule:evenodd;fill:#FFCCBC;}
</style>
<path class="st0" d="M885.6,258.9H520.8L418.5,146.7c-9.7-14.7-29.2-19.5-43.8-19.5H97.4C43.9,127.2,5,171.1,5,224.7v584.7
	c0,53.6,38.9,97.5,92.4,97.5h793c48.6,0,92.4-43.9,92.4-97.5V356.3C978,302.7,939.2,258.9,885.6,258.9z"/>
<path class="st1" d="M770.3,343.4c168.3,0,304.7,136.4,304.7,304.7l0,0c0,168.3-136.4,304.7-304.7,304.7c0,0,0,0,0,0
	c-168.3,0-304.7-136.4-304.7-304.7v0C465.6,479.8,602,343.4,770.3,343.4L770.3,343.4 M770.3,602.4c-25.2,0-45.7,20.5-45.7,45.7l0,0
	c0,25.2,20.5,45.7,45.7,45.7c0,0,0,0,0,0c25.2,0,45.7-20.5,45.7-45.7c0,0,0,0,0,0C816,622.9,795.6,602.4,770.3,602.4
	C770.3,602.4,770.3,602.4,770.3,602.4 M602.7,602.4c-25.2,0-45.7,20.5-45.7,45.7c0,0,0,0,0,0c0,25.2,20.5,45.7,45.7,45.7
	c0,0,0,0,0,0c25.2,0,45.7-20.5,45.7-45.7c0,0,0,0,0,0C648.4,622.9,628,602.4,602.7,602.4C602.7,602.4,602.7,602.4,602.7,602.4
	 M937.9,602.4c-25.2,0-45.7,20.5-45.7,45.7c0,0,0,0,0,0c0,25.2,20.5,45.7,45.7,45.7c0,0,0,0,0,0c25.2,0,45.7-20.5,45.7-45.7
	c0,0,0,0,0,0C983.6,622.9,963.1,602.4,937.9,602.4C937.9,602.4,937.9,602.4,937.9,602.4z"/>
</svg>
