<?xml version="1.0" encoding="utf-8"?>
<!-- Generator: Adobe Illustrator 24.1.1, SVG Export Plug-In . SVG Version: 6.00 Build 0)  -->
<svg version="1.1" id="Capa_1" xmlns="http://www.w3.org/2000/svg" xmlns:xlink="http://www.w3.org/1999/xlink" x="0px" y="0px"
	 viewBox="0 0 1080 1080" style="enable-background:new 0 0 1080 1080;" xml:space="preserve">
<style type="text/css">
	.st0{fill:#FBC02D;}
	.st1{fill-rule:evenodd;clip-rule:evenodd;fill:#FFFDE7;}
</style>
<path class="st0" d="M885.6,260.7H520.8L418.5,148.6c-9.7-14.7-29.2-19.5-43.8-19.5H97.4C43.9,129,5,172.9,5,226.5v584.7
	c0,53.6,38.9,97.5,92.4,97.5h793c48.6,0,92.4-43.9,92.4-97.5V358.1C978,304.5,939.2,260.7,885.6,260.7z"/>
<path class="st1" d="M581.3,312.1H1046c16,0,29,13,29,29v116.2c0,16-13,29-29,29H581.3c-16,0-29-13-29-29V341.1
	C552.3,325.1,565.3,312.1,581.3,312.1 M581.3,544.4H1046c16,0,29,13,29,29v116.2c0,16-13,29-29,29H581.3c-16,0-29-13-29-29V573.4
	C552.3,557.4,565.3,544.4,581.3,544.4 M581.3,776.7H1046c16,0,29,13,29,29c0,0,0,0,0,0v116.2c0,16-13,29-29,29H581.3
	c-16,0-29-13-29-29V805.8C552.3,789.7,565.3,776.7,581.3,776.7C581.3,776.7,581.3,776.7,581.3,776.7 M726.5,428.3h29v-58.1h-29
	V428.3 M726.5,660.6h29v-58.1h-29V660.6 M726.5,892.9h29v-58.1h-29V892.9 M610.4,370.2v58.1h58.1v-58.1H610.4 M610.4,602.5v58.1
	h58.1v-58.1H610.4 M610.4,834.8v58.1h58.1v-58.1H610.4z"/>
</svg>
