<?xml version="1.0" encoding="utf-8"?>
<!-- Generator: Adobe Illustrator 27.0.0, SVG Export Plug-In . SVG Version: 6.00 Build 0)  -->
<svg version="1.1" id="Capa_1" xmlns="http://www.w3.org/2000/svg" xmlns:xlink="http://www.w3.org/1999/xlink" x="0px" y="0px"
	 viewBox="0 0 1080 1080" style="enable-background:new 0 0 1080 1080;" xml:space="preserve">
<style type="text/css">
	.st0{fill:#1E88E5;}
	.st1{fill:#BBDEFB;}
</style>
<path class="st0" d="M886.97,262.26h-365.4L419.19,150c-9.7-14.6-29.19-19.5-43.88-19.5H97.58C43.99,130.5,5,174.38,5,228.08v585.73
	c0,53.68,38.99,97.58,92.58,97.58h794.29c48.68,0,92.58-43.88,92.58-97.58V359.94C979.55,306.25,940.66,262.26,886.97,262.26
	L886.97,262.26z M886.97,813.81H97.58V228.08H365.6l102.38,112.27c9.7,14.6,29.19,19.5,43.88,19.5h380.09v453.98h-5L886.97,813.81z"
	/>
<path class="st1" d="M905.13,680.66L1075,849.3l-100.2,98.97L806.16,779.63v-27.77l71.2-71.2H905.13 M932.6,604.34l-29.3-28.95
	L758.79,720.15v59.48L588.92,949.5L490,849.3l168.64-168.64h59.43l23.54-23.54L625.75,540.97h-39.19l-84.79-85.67l79.03-79.03
	l84.49,84.44v39.54l117.33,115.86l80.26-80.26l-28.95-30.48l39.19-39.54h-80.26l-19.6-19.6l99.86-100.15l19.94,19.89v80.26
	l39.54-39.83l98.97,98.97c32.84,33.19,32.84,87.15,0,120.09l-59.48-60.66L932.6,604.34z"/>
</svg>
