<?xml version="1.0" encoding="utf-8"?>
<!-- Generator: Adobe Illustrator 24.1.1, SVG Export Plug-In . SVG Version: 6.00 Build 0)  -->
<svg version="1.1" id="Capa_1" xmlns="http://www.w3.org/2000/svg" xmlns:xlink="http://www.w3.org/1999/xlink" x="0px" y="0px"
	 viewBox="0 0 1080 1080" style="enable-background:new 0 0 1080 1080;" xml:space="preserve">
<style type="text/css">
	.st0{fill:#009688;}
	.st1{fill-rule:evenodd;clip-rule:evenodd;fill:#B2DFDB;}
</style>
<path class="st0" d="M885.6,272H520.8L418.5,159.8c-9.7-14.7-29.2-19.5-43.8-19.5H97.4C43.9,140.3,5,184.2,5,237.8v584.7
	C5,876.2,43.9,920,97.4,920h793c48.6,0,92.4-43.9,92.4-97.5V369.4C978,315.8,939.2,272,885.6,272z"/>
<g>
	<g transform="matrix(.055876 0 0 .055876 7.9902 6.9458)">
		<path class="st1" d="M13560.3,9737.7l-442.4,766l-1512.9-2620.4L6961,15926.4h3144.4c0,423,343,766,766,766H6960.9
			c-273.6,0-526.5-146.1-663.3-383.1c-136.8-237-136.8-529,0-765.9l4644.1-8043.1c136.8-237,389.7-383,663.4-383
			c273.7,0,526.6,146,663.4,383L13560.3,9737.7z"/>
		<path class="st1" d="M16912.7,15543.7L14002.5,10504l-442.4-766l-442.4,766l-2909.8,5039.8c-136.8,237-136.8,529,0,765.9
			c136.8,237,389.6,383.1,663.3,383.1h5377.1c273.7,0,526.6-145.9,663.5-382.9c136.9-237,136.9-529,0-766.1L16912.7,15543.7z
			 M10871,15926.7l2689-4656.7l2688.4,4656.7H10871z"/>
		<path class="st1" d="M18993.4,16309.5c-136.8,237-389.6,383-663.2,383h-2081.6c423,0,766-342.9,766-766h1314L14600,9468.6
			l-597.5,1035.1l-442.4-766l376.6-652.1c136.8-237,389.7-383,663.4-383c273.7,0,526.6,146,663.4,383l3729.9,6457.9
			C19130.2,15780.6,19130.2,16072.5,18993.4,16309.5L18993.4,16309.5z"/>
	</g>
</g>
</svg>
