<?xml version="1.0" encoding="utf-8"?>
<!-- Generator: Adobe Illustrator 24.1.1, SVG Export Plug-In . SVG Version: 6.00 Build 0)  -->
<svg version="1.1" id="Capa_1" xmlns="http://www.w3.org/2000/svg" xmlns:xlink="http://www.w3.org/1999/xlink" x="0px" y="0px"
	 viewBox="0 0 1080 1080" style="enable-background:new 0 0 1080 1080;" xml:space="preserve">
<style type="text/css">
	.st0{fill:#039BE5;}
	.st1{fill:#B3E5FC;}
</style>
<path class="st0" d="M885.6,256.6H520.7L418.5,144.5c-9.7-14.6-29.2-19.5-43.8-19.5H97.4C43.9,125.1,5,168.9,5,222.5v584.8
	c0,53.6,38.9,97.5,92.4,97.5h793c48.6,0,92.4-43.9,92.4-97.5V354.1C978,300.5,939.1,256.6,885.6,256.6z M885.6,807.3H97.4V222.5H365
	l102.2,112.1c9.7,14.6,29.2,19.5,43.8,19.5h379.5v453.2H885.6z"/>
<path class="st1" d="M1015,864.9H890v-215h125 M1045,584.9H860c-15,0-30,15-30,30v310c0,15,15,30,30,30h185c15,0,30-15,30-30v-310
	C1075,599.9,1060,584.9,1045,584.9 M459.9,524.9h555v-60h-555c-35,0-60,30-60,60v340h-65v90h430v-90h-310L459.9,524.9z"/>
</svg>
