<?xml version="1.0" encoding="utf-8"?>
<!-- Generator: Adobe Illustrator 24.1.1, SVG Export Plug-In . SVG Version: 6.00 Build 0)  -->
<svg version="1.1" id="Capa_1" xmlns="http://www.w3.org/2000/svg" xmlns:xlink="http://www.w3.org/1999/xlink" x="0px" y="0px"
	 viewBox="0 0 1080 1080" style="enable-background:new 0 0 1080 1080;" xml:space="preserve">
<style type="text/css">
	.st0{fill:#1E88E5;}
	.st1{fill-rule:evenodd;clip-rule:evenodd;fill:#BBDEFB;}
</style>
<path class="st0" d="M885.6,259.6H520.8L418.5,147.4c-9.7-14.7-29.2-19.5-43.8-19.5H97.4C43.9,127.9,5,171.8,5,225.4v584.7
	c0,53.6,38.9,97.5,92.4,97.5h793c48.6,0,92.4-43.9,92.4-97.5V357C978,303.4,939.2,259.6,885.6,259.6z"/>
<path class="st1" d="M829.7,599.2L476.5,952.1l-43.8-43.8l352.9-353.2L829.7,599.2 M969.9,508.7l18.5-18.5l-24.7-24.7l20-20
	l-44.4-44.4l-20,20l-24.7-24.7L876,414.9c-54.4-44.4-115.8-80.1-181.5-105.1l-26,56c54.7,28.8,105.1,63.5,152,104.5L805,485.9
	l93.9,93.9l15.6-15.6c41,46.9,75.7,97.3,104.5,152l56-26C1050,624.5,1014.3,563.2,969.9,508.7L969.9,508.7z"/>
</svg>
