<?xml version="1.0" encoding="utf-8"?>
<!-- Generator: Adobe Illustrator 24.1.1, SVG Export Plug-In . SVG Version: 6.00 Build 0)  -->
<svg version="1.1" id="Capa_1" xmlns="http://www.w3.org/2000/svg" xmlns:xlink="http://www.w3.org/1999/xlink" x="0px" y="0px"
	 viewBox="0 0 1080 1080" style="enable-background:new 0 0 1080 1080;" xml:space="preserve">
<style type="text/css">
	.st0{fill:#FF5252;}
	.st1{fill-rule:evenodd;clip-rule:evenodd;fill:#FFCDD2;}
</style>
<path class="st0" d="M885.6,262.3H520.8L418.5,150.2c-9.7-14.7-29.2-19.5-43.8-19.5H97.4C43.9,130.6,5,174.5,5,228.1v584.7
	c0,53.6,38.9,97.5,92.4,97.5h793c48.6,0,92.4-43.9,92.4-97.5V359.7C978,306.1,939.2,262.3,885.6,262.3z"/>
<path class="st1" d="M777.7,354.8c-164.1,0-297.3,133.2-297.3,297.3s133.2,297.3,297.3,297.3c164.1,0,297.3-133.2,297.3-297.3
	C1075,488,941.8,354.8,777.7,354.8z M777.7,889.9c-131.4,0-237.8-106.4-237.8-237.8c0-55,18.7-105.5,50.2-145.7l333.3,333.3
	C883.3,871.1,832.7,889.9,777.7,889.9L777.7,889.9z M965.3,797.7L632,464.4c40.1-31.5,90.7-50.2,145.7-50.2
	c131.4,0,237.8,106.4,237.8,237.8C1015.5,707,996.8,757.6,965.3,797.7L965.3,797.7z"/>
</svg>
