<?xml version="1.0" encoding="utf-8"?>
<!-- Generator: Adobe Illustrator 24.1.1, SVG Export Plug-In . SVG Version: 6.00 Build 0)  -->
<svg version="1.1" id="Capa_1" xmlns="http://www.w3.org/2000/svg" xmlns:xlink="http://www.w3.org/1999/xlink" x="0px" y="0px"
	 viewBox="0 0 1080 1080" style="enable-background:new 0 0 1080 1080;" xml:space="preserve">
<style type="text/css">
	.st0{fill:#AB47BC;}
	.st1{fill-rule:evenodd;clip-rule:evenodd;fill:#E1BEE7;}
</style>
<path class="st0" d="M885.6,271.4H520.8L418.5,159.3c-9.7-14.7-29.2-19.5-43.8-19.5H97.4C43.9,139.8,5,183.6,5,237.2V822
	c0,53.6,38.9,97.5,92.4,97.5h793c48.6,0,92.4-43.9,92.4-97.5V368.8C978,315.2,939.2,271.4,885.6,271.4z"/>
<path class="st1" d="M966.1,885.7c30,0,54.2-24.5,54.2-54.4l0.3-272.3c0-30.2-24.5-54.4-54.5-54.4H530.3
	c-30.2,0-54.4,24.2-54.4,54.4v272.3c0,30,24.2,54.4,54.4,54.4H421.4v54.5H1075v-54.5H966.1z M775.4,789.6V730
	c-75.7,0-125.5,23.1-163.4,74.1c15.2-72.7,57.5-145.2,163.4-159.9v-58l108.9,101.6L775.4,789.6z"/>
</svg>
