<?xml version="1.0" encoding="utf-8"?>
<!-- Generator: Adobe Illustrator 24.1.1, SVG Export Plug-In . SVG Version: 6.00 Build 0)  -->
<svg version="1.1" id="Capa_1" xmlns="http://www.w3.org/2000/svg" xmlns:xlink="http://www.w3.org/1999/xlink" x="0px" y="0px"
	 viewBox="0 0 1080 1080" style="enable-background:new 0 0 1080 1080;" xml:space="preserve">
<style type="text/css">
	.st0{fill:#8D6E63;}
	.st1{fill-rule:evenodd;clip-rule:evenodd;fill:#D7CCC8;stroke:#D7CCC8;stroke-width:0.271;stroke-linejoin:round;}
</style>
<path class="st0" d="M885.6,267.2H520.7L418.6,155c-9.7-14.7-29.2-19.5-43.8-19.5H97.4C43.9,135.5,5,179.4,5,233v584.8
	c0,53.6,38.9,97.5,92.4,97.5h793c48.7,0,92.4-43.9,92.4-97.5V364.5C978,311,939.2,267.2,885.6,267.2z"/>
<path class="st1" d="M782.9,886.1c129,0,233.6-104.6,233.6-233.6S912,418.8,782.9,418.8S549.3,523.4,549.3,652.4
	S653.9,886.1,782.9,886.1 M782.9,360.4c161.3,0,292.1,130.8,292.1,292.1S944.2,944.5,782.9,944.5l0,0
	c-161.5,0-292.1-131.4-292.1-292.1C490.9,491.1,621.6,360.4,782.9,360.4 M797.5,506.4v153.3l131.4,78l-21.9,35.9l-153.3-92V506.4
	L797.5,506.4z"/>
</svg>
