<?xml version="1.0" encoding="utf-8"?>
<!-- Generator: Adobe Illustrator 24.1.1, SVG Export Plug-In . SVG Version: 6.00 Build 0)  -->
<svg version="1.1" id="Capa_1" xmlns="http://www.w3.org/2000/svg" xmlns:xlink="http://www.w3.org/1999/xlink" x="0px" y="0px"
	 viewBox="0 0 1080 1080" style="enable-background:new 0 0 1080 1080;" xml:space="preserve">
<style type="text/css">
	.st0{fill:#546E7A;}
	.st1{fill:#ECEFF1;}
</style>
<path class="st0" d="M885.6,245.7H520.7L418.5,133.6c-9.7-14.6-29.2-19.5-43.8-19.5H97.4C43.9,114.1,5,158,5,211.6v584.8
	c0,53.6,38.9,97.5,92.4,97.5h793c48.6,0,92.4-43.9,92.4-97.5V343.1C978,289.5,939.1,245.7,885.6,245.7z M885.6,796.3H97.4V211.6H365
	l102.2,112.1c9.7,14.6,29.2,19.5,43.8,19.5h379.5v453.2H885.6z"/>
<path class="st1" d="M743,295.9c-188.2,0-336.8,148.6-336.8,336.8l0,0c0,148.6,99.1,277.4,227.8,322c14.9,5,19.8-9.9,19.8-14.9
	v-54.5c-94.1,19.8-113.9-44.6-113.9-44.6c-14.9-39.6-39.6-49.5-39.6-49.5c-29.7-19.8,0-19.8,0-19.8c34.7,0,49.5,34.7,49.5,34.7
	c29.7,49.5,79.3,34.7,99.1,29.7c5-19.8,9.9-34.7,19.8-44.6c-74.3-9.9-153.5-39.6-153.5-163.5c0-39.6,14.9-69.3,34.7-89.2
	c-5-9.9-14.9-44.6,5-89.2c0,0,29.7-9.9,94.1,34.7c24.8-5,54.5-9.9,84.2-9.9c29.7,0,59.4,5,84.2,9.9c64.4-44.6,94.1-34.7,94.1-34.7
	c19.8,44.6,5,79.3,5,89.2c19.8,24.8,34.7,54.5,34.7,89.2c0,128.8-79.3,158.5-153.5,163.5c9.9,9.9,24.8,29.7,24.8,64.4v94.1
	c0,9.9,5,19.8,24.8,14.9c133.7-44.6,227.8-173.4,227.8-322C1079.8,449.5,931.2,295.9,743,295.9L743,295.9L743,295.9z"/>
</svg>
