<?xml version="1.0" encoding="utf-8"?>
<!-- Generator: Adobe Illustrator 24.1.1, SVG Export Plug-In . SVG Version: 6.00 Build 0)  -->
<svg version="1.1" id="Capa_1" xmlns="http://www.w3.org/2000/svg" xmlns:xlink="http://www.w3.org/1999/xlink" x="0px" y="0px"
	 viewBox="0 0 1080 1080" style="enable-background:new 0 0 1080 1080;" xml:space="preserve">
<style type="text/css">
	.st0{fill:#EF5350;}
	.st1{fill-rule:evenodd;clip-rule:evenodd;fill:#FFCDD2;}
</style>
<path class="st0" d="M885.6,272.1H520.8L418.5,160c-9.7-14.7-29.2-19.5-43.8-19.5H97.4C43.9,140.5,5,184.4,5,238v584.7
	c0,53.6,38.9,97.5,92.4,97.5h793c48.6,0,92.4-43.9,92.4-97.5V369.5C978,315.9,939.2,272.1,885.6,272.1z"/>
<path class="st1" d="M783.1,759.7H841L699.6,400.1h-51.4L506.8,759.7h57.8l31-83h156L783.1,759.7z M616.6,621.4l57.3-152.6
	l57.3,152.6L616.6,621.4z M1036,637.8L812.2,861.5L710.7,759.7l-39.1,39l140.8,140.8L1075,676.8L1036,637.8z"/>
</svg>
