<?xml version="1.0" encoding="utf-8"?>
<!-- Generator: Adobe Illustrator 24.1.1, SVG Export Plug-In . SVG Version: 6.00 Build 0)  -->
<svg version="1.1" id="Capa_1" xmlns="http://www.w3.org/2000/svg" xmlns:xlink="http://www.w3.org/1999/xlink" x="0px" y="0px"
	 viewBox="0 0 1080 1080" style="enable-background:new 0 0 1080 1080;" xml:space="preserve">
<style type="text/css">
	.st0{fill:#546E7A;}
	.st1{fill:#CFD8DC;}
</style>
<path class="st0" d="M880.7,242.4H515.8L413.7,130.4c-9.7-14.6-29.2-19.5-43.8-19.5H92.6C43.9,110.9,5,154.7,5,208.3v584.8
	c0,53.6,38.9,97.5,92.4,97.5h793c48.6,0,92.4-43.9,92.4-97.5V339.9C973.1,286.3,939.1,242.4,880.7,242.4z M880.7,793.1h-793V208.3
	h267.6l102.2,112.1c9.7,14.6,29.2,19.5,43.8,19.5h379.5V793.1z"/>
<g transform="matrix(.62922 0 0 .62922 9.657 7.657)">
	<path class="st1" d="M1298.7,1429.4c54.2,0,98.6-44.4,98.6-98.6v-641h-345.1c-24.7,0-49.3,24.7-49.3,49.3v493.1H854.9V689.8
		c0-78.9,69-147.9,147.9-147.9h542.4c78.9,0,147.9,69,147.9,147.9v49.3h-197.2v641c0,78.9-69,147.9-147.9,147.9H854.9
		c-78.9,0-147.9-69-147.9-147.9v-49.3H1200C1200,1385.1,1244.4,1429.4,1298.7,1429.4z"/>
</g>
</svg>
