<?xml version="1.0" encoding="utf-8"?>
<!-- Generator: Adobe Illustrator 24.1.1, SVG Export Plug-In . SVG Version: 6.00 Build 0)  -->
<svg version="1.1" id="Capa_1" xmlns="http://www.w3.org/2000/svg" xmlns:xlink="http://www.w3.org/1999/xlink" x="0px" y="0px"
	 viewBox="0 0 1080 1080" style="enable-background:new 0 0 1080 1080;" xml:space="preserve">
<style type="text/css">
	.st0{fill:#039BE5;}
	.st1{fill:#B3E5FC;}
</style>
<path class="st0" d="M885.6,245.7H520.7L418.5,133.6c-9.7-14.6-29.2-19.5-43.8-19.5H97.4C43.9,114.1,5,157.9,5,211.6v584.8
	c0,53.6,38.9,97.5,92.4,97.5h793c48.6,0,92.4-43.9,92.4-97.5V343.1C978,289.5,939.1,245.7,885.6,245.7z M885.6,796.3H97.4V211.6H365
	l102.2,112.1c9.7,14.6,29.2,19.5,43.8,19.5h379.5v453.2H885.6z"/>
<path class="st1" d="M929.1,698.5H812.4v116.7h-58.4V698.5H637.3v-58.4h116.7V523.4h58.4v116.7h116.7 M778.4,372.6
	c-165.3,0-296.6,131.3-296.6,296.6S613,965.9,778.4,965.9S1075,834.6,1075,669.3S943.7,372.6,778.4,372.6z"/>
</svg>
