<?xml version="1.0" encoding="utf-8"?>
<!-- Generator: Adobe Illustrator 24.1.1, SVG Export Plug-In . SVG Version: 6.00 Build 0)  -->
<svg version="1.1" id="Capa_1" xmlns="http://www.w3.org/2000/svg" xmlns:xlink="http://www.w3.org/1999/xlink" x="0px" y="0px"
	 viewBox="0 0 1080 1080" style="enable-background:new 0 0 1080 1080;" xml:space="preserve">
<style type="text/css">
	.st0{fill:#F9A825;}
	.st1{fill:#FFF9C4;}
</style>
<path class="st0" d="M880.7,262.7H515.8L413.7,150.6c-9.7-14.6-29.2-19.5-43.8-19.5H92.6C43.9,131.1,5,175,5,228.6v584.8
	c0,53.6,38.9,97.5,92.4,97.5h793c48.6,0,92.4-43.9,92.4-97.5V360.1C973.1,306.5,939.1,262.7,880.7,262.7z M880.7,813.4h-793V228.6
	h267.6l102.2,112.1c9.7,14.6,29.2,19.5,43.8,19.5h379.5V813.4z"/>
<path class="st1" d="M841.6,803c34,0,58.4-24.3,58.4-58.4s-24.3-58.4-58.4-58.4c-34,0-58.4,24.3-58.4,58.4
	C783.2,773.8,812.4,803,841.6,803 M1016.6,540.4c34,0,58.4,24.3,58.4,58.4v291.8c0,34-24.3,58.4-58.4,58.4H666.5
	c-34,0-58.4-24.3-58.4-58.4V598.8c0-34,24.3-58.4,58.4-58.4h29.2v-58.4c0-82.7,63.2-145.9,145.9-145.9s145.9,63.2,145.9,145.9v58.4
	H1016.6 M841.6,394.5c-48.6,0-87.5,38.9-87.5,87.5l0,0v58.4h175.1v-58.4C929.1,433.4,890.2,394.5,841.6,394.5L841.6,394.5
	L841.6,394.5z"/>
</svg>
