<?xml version="1.0" encoding="utf-8"?>
<!-- Generator: Adobe Illustrator 24.1.1, SVG Export Plug-In . SVG Version: 6.00 Build 0)  -->
<svg version="1.1" id="Capa_1" xmlns="http://www.w3.org/2000/svg" xmlns:xlink="http://www.w3.org/1999/xlink" x="0px" y="0px"
	 viewBox="0 0 1080 1080" style="enable-background:new 0 0 1080 1080;" xml:space="preserve">
<style type="text/css">
	.st0{fill:#039BE5;}
	.st1{fill:#B3E5FC;}
</style>
<path class="st0" d="M885.6,254.6H520.7L418.5,142.5c-9.7-14.6-29.2-19.5-43.8-19.5H97.4C43.9,123,5,166.9,5,220.5v584.8
	c0,53.6,38.9,97.5,92.4,97.5h793c48.6,0,92.4-43.9,92.4-97.5V352.1C978,298.5,939.1,254.6,885.6,254.6z M885.6,805.3H97.4V220.5H365
	l102.2,112.1c9.7,14.6,29.2,19.5,43.8,19.5h379.5v453.2H885.6z"/>
<g>
	<rect x="377.8" y="617.9" class="st1" width="71.6" height="71.6"/>
	<rect x="468.6" y="617.9" class="st1" width="71.6" height="71.6"/>
	<rect x="468.6" y="522.4" class="st1" width="71.6" height="71.6"/>
	<path class="st1" d="M965.2,646.6c-4.8-28.7-23.9-52.5-47.8-71.6l-9.6-9.6l-9.6,9.6c-14.3,19.1-19.1,47.8-19.1,71.6
		c0,19.1,9.6,33.4,19.1,47.8c-9.6,4.8-19.1,9.6-23.9,9.6c-19.1,4.8-33.4,9.6-52.5,9.6H339.6v9.6c-4.8,38.2,0,71.6,19.1,109.8
		l9.6,14.3l0,0c43,76.4,124.2,109.8,214.9,109.8c171.9,0,310.4-71.6,377.2-234c43,0,86-9.6,109.8-52.5l4.8-9.6l-19.1-4.8
		C1027.2,641.8,993.8,637,965.2,646.6z M482.9,851.9c-19.1,0-38.2-19.1-38.2-38.2s19.1-38.2,38.2-38.2s38.2,19.1,38.2,38.2
		S502,851.9,482.9,851.9z"/>
	<rect x="650" y="617.9" class="st1" width="71.6" height="71.6"/>
	<rect x="559.3" y="617.9" class="st1" width="71.6" height="71.6"/>
	<rect x="740.7" y="617.9" class="st1" width="71.6" height="71.6"/>
	<rect x="650" y="431.7" class="st1" width="71.6" height="71.6"/>
	<rect x="650" y="522.4" class="st1" width="71.6" height="71.6"/>
	<rect x="559.3" y="522.4" class="st1" width="71.6" height="71.6"/>
</g>
</svg>
