<?xml version="1.0" encoding="utf-8"?>
<!-- Generator: Adobe Illustrator 24.1.1, SVG Export Plug-In . SVG Version: 6.00 Build 0)  -->
<svg version="1.1" id="Capa_1" xmlns="http://www.w3.org/2000/svg" xmlns:xlink="http://www.w3.org/1999/xlink" x="0px" y="0px"
	 viewBox="0 0 1080 1080" style="enable-background:new 0 0 1080 1080;" xml:space="preserve">
<style type="text/css">
	.st0{fill:#FBC02D;}
	.st1{fill-rule:evenodd;clip-rule:evenodd;fill:#FFFDE7;}
</style>
<path class="st0" d="M885.6,222.7H520.7L418.5,110.6c-9.7-14.6-29.2-19.5-43.8-19.5H97.4C43.9,91.1,5,135,5,188.6v584.8
	c0,53.6,38.9,97.5,92.4,97.5h793c48.6,0,92.4-43.9,92.4-97.5V320.2C978,266.6,939.1,222.7,885.6,222.7z M885.6,773.4H97.4V188.6H365
	l102.2,112.1c9.7,14.6,29.2,19.5,43.8,19.5h379.5v453.2H885.6z"/>
<path class="st1" d="M503,865.6h123.3v123.3h78.9V786.7H503V865.6z M626.3,540.2H503v78.9h202.2V416.9h-78.9V540.2z M867.9,988.9
	h83.8V865.6H1075v-78.9H872.8v202.2H867.9z M951.7,540.2V416.9h-78.9v202.2H1075v-78.9L951.7,540.2z"/>
</svg>
