<?xml version="1.0" encoding="utf-8"?>
<!-- Generator: Adobe Illustrator 27.0.0, SVG Export Plug-In . SVG Version: 6.00 Build 0)  -->
<svg version="1.1" id="Capa_1" xmlns="http://www.w3.org/2000/svg" xmlns:xlink="http://www.w3.org/1999/xlink" x="0px" y="0px"
	 viewBox="0 0 1080 1080" style="enable-background:new 0 0 1080 1080;" xml:space="preserve">
<style type="text/css">
	.st0{fill:#546E7A;}
	.st1{fill-rule:evenodd;clip-rule:evenodd;fill:#CFD8DC;}
</style>
<path class="st0" d="M398.91,127.06H103.48C48.82,127.06,5,170.88,5,225.53V816.4c0,54.01,44.46,98.48,98.48,98.48H891.3
	c54.01,0,98.48-44.46,98.48-98.48V324.01c0-54.39-44.09-98.48-98.48-98.48H497.39L398.91,127.06z"/>
<g transform="matrix(.61203 0 0 .61203 10.266 7.3085)">
	<path class="st1" d="M1498.1,628.6C1172.38,437.06,758.53,671,754.89,1048.61c-3.45,368.8,386.72,606.92,711.7,444.63
		l-379.14-537.39l-2.46,394.7c0,35.8-84.69,35.8-84.69,0l0.74-544.83c0-28.46,71.45-30.77,86.41-6.06l428.03,665.71
		C1819.28,1269.74,1815.14,815.02,1498.1,628.6z M1494.26,1275.5l-82.33-118.67V805.71c0-26.84,82.33-26.84,82.33,0v469.74V1275.5z"
		/>
</g>
</svg>
