<?xml version="1.0" encoding="utf-8"?>
<!-- Generator: Adobe Illustrator 24.1.1, SVG Export Plug-In . SVG Version: 6.00 Build 0)  -->
<svg version="1.1" id="Capa_1" xmlns="http://www.w3.org/2000/svg" xmlns:xlink="http://www.w3.org/1999/xlink" x="0px" y="0px"
	 viewBox="0 0 1080 1080" style="enable-background:new 0 0 1080 1080;" xml:space="preserve">
<style type="text/css">
	.st0{fill:#1E88E5;}
	.st1{fill-rule:evenodd;clip-rule:evenodd;fill:#BBDEFB;}
</style>
<path class="st0" d="M885.6,264.2H520.8L418.5,152.1c-9.7-14.7-29.2-19.5-43.8-19.5H97.4C43.9,132.6,5,176.5,5,230.1v584.7
	c0,53.6,38.9,97.5,92.4,97.5h793c48.6,0,92.4-43.9,92.4-97.5V361.6C978,308,939.2,264.2,885.6,264.2z"/>
<path class="st1" d="M665.8,947.4c-226.1,0-409.2-92.7-409.2-207.3s183.1-207.3,409.2-207.3S1075,625.5,1075,740.1
	S891.9,947.4,665.8,947.4 M488.8,676.3c18.4,0,31,3.4,37.2,10.6c6.1,6.8,7.5,19.1,4.4,35.1c-3.4,18.1-9.9,29.7-19.8,37.2
	c-9.5,7.5-24.2,11.3-44,11.3H437l18.1-94.1L488.8,676.3 M369.5,865.6h49.1l11.6-59.7h41.9c18.4,0,33.4-2,45.4-5.8
	c11.9-4.1,22.8-10.6,32.7-19.8c8.2-7.5,14.7-15.7,19.8-24.9c5.1-8.9,8.9-19.1,10.6-30c5.5-26.6,1.7-47.4-11.3-62.1
	c-13.3-15-33.8-22.2-62.1-22.2h-94.1L369.5,865.6 M616.7,581.6l-43.6,224.4h48.4l25.2-128.6h38.9c12.3,0,20.5,2,24.2,6.1
	c3.8,4.1,4.4,11.6,2.4,22.5l-19.4,99.9h49.4l20.1-104.7c4.4-21.1,1-36.5-9.2-46.4c-10.2-9.2-29-13.6-56.3-13.6h-43.3l12.3-59.7
	L616.7,581.6 M870.4,676.3c18.8,0,31,3.4,37.2,10.6c6.1,6.8,7.5,19.1,4.4,35.1c-3.4,18.1-9.9,29.7-19.4,37.2
	c-9.9,7.5-24.6,11.3-44.3,11.3h-29l17-94.1L870.4,676.3 M751.1,865.6h49.1l11.6-59.7h41.6c18.8,0,34.1-2,46-5.8
	c11.9-4.1,22.2-10.6,32.4-19.8c8.2-7.5,15-15.7,19.8-24.9c5.1-8.9,8.9-19.1,10.9-30c5.1-26.6,1.4-47.4-11.6-62.1
	c-12.3-15-33.8-22.2-62.1-22.2H795L751.1,865.6z"/>
</svg>
