<?xml version="1.0" encoding="utf-8"?>
<!-- Generator: Adobe Illustrator 24.1.1, SVG Export Plug-In . SVG Version: 6.00 Build 0)  -->
<svg version="1.1" id="Capa_1" xmlns="http://www.w3.org/2000/svg" xmlns:xlink="http://www.w3.org/1999/xlink" x="0px" y="0px"
	 viewBox="0 0 1080 1080" style="enable-background:new 0 0 1080 1080;" xml:space="preserve">
<style type="text/css">
	.st0{fill:#5C6BC0;}
	.st1{fill-rule:evenodd;clip-rule:evenodd;fill:#C5CAE9;}
</style>
<path class="st0" d="M880.8,266.6H515.8L413.7,154.5c-9.7-14.6-29.2-19.5-43.8-19.5H92.6C43.9,135,5,178.9,5,232.5v584.7
	c0,53.6,38.9,97.5,92.4,97.5h793c48.6,0,92.4-43.9,92.4-97.5V364.1C973.2,310.5,939.2,266.6,880.8,266.6z M880.8,817.2h-793V232.5
	h267.6l102.2,112.1c9.7,14.6,29.2,19.5,43.8,19.5h379.5L880.8,817.2L880.8,817.2z"/>
<path class="st1" d="M1014,884H587.2V548.6H1014 M1014,396.2h-30.5v-61h-61v61H678.6v-61h-61v61h-30.5c-33.8,0-61,27.4-61,61V884
	c0,33.7,27.3,61,61,61H1014c33.7,0,61-27.3,61-61V457.1C1075,423.5,1047.7,396.2,1014,396.2 M938.7,641.9l-32.3-32.3L757.6,758.4
	L693,693.7l-32.3,32.3l97,97L938.7,641.9z"/>
</svg>
