<?xml version="1.0" encoding="utf-8"?>
<!-- Generator: Adobe Illustrator 24.1.1, SVG Export Plug-In . SVG Version: 6.00 Build 0)  -->
<svg version="1.1" id="Capa_1" xmlns="http://www.w3.org/2000/svg" xmlns:xlink="http://www.w3.org/1999/xlink" x="0px" y="0px"
	 viewBox="0 0 1080 1080" style="enable-background:new 0 0 1080 1080;" xml:space="preserve">
<style type="text/css">
	.st0{fill:#00ACC1;}
	.st1{fill-rule:evenodd;clip-rule:evenodd;fill:#B2EBF2;}
</style>
<path class="st0" d="M885.6,272.5H520.8L418.5,160.3c-9.7-14.7-29.2-19.5-43.8-19.5H97.4C43.9,140.8,5,184.7,5,238.3V823
	c0,53.6,38.9,97.5,92.4,97.5h793c48.6,0,92.4-43.9,92.4-97.5V369.9C978,316.3,939.2,272.5,885.6,272.5z"/>
<path class="st1" d="M1041.5,517.5c22.3,22.3,22.3,58.6,0,78.2l-78.2,78.2L745.5,456l78.2-78.2c22.3-22.3,58.6-22.3,78.2,0
	l50.3,50.3l83.8-83.8l39.1,39.1l-83.8,83.8L1041.5,517.5 M879.5,679.5l-39.1-39.1l-78.2,78.2l-58.6-58.6l78.2-78.2l-39.1-39.1
	l-78.2,78.2l-41.9-39.1l-78.2,78.2c-22.3,22.3-22.3,58.6,0,78.2l50.3,50.3L483,900.1l39.1,39.1l111.7-111.7l50.3,50.3
	c22.3,22.3,58.6,22.3,78.2,0l78.2-78.2l-39.1-39.1L879.5,679.5z"/>
</svg>
