<?xml version="1.0" encoding="utf-8"?>
<!-- Generator: Adobe Illustrator 27.0.0, SVG Export Plug-In . SVG Version: 6.00 Build 0)  -->
<svg version="1.1" id="Capa_1" xmlns="http://www.w3.org/2000/svg" xmlns:xlink="http://www.w3.org/1999/xlink" x="0px" y="0px"
	 viewBox="0 0 1080 1080" style="enable-background:new 0 0 1080 1080;" xml:space="preserve">
<style type="text/css">
	.st0{fill:#009688;}
	.st1{fill-rule:evenodd;clip-rule:evenodd;fill:#B2DFDB;}
</style>
<path class="st0" d="M399.12,122.2H103.53C48.85,122.2,5,166.05,5,220.73v591.19c0,54.04,44.49,98.53,98.53,98.53h788.25
	c54.04,0,98.53-44.49,98.53-98.53V319.27c0-54.42-44.11-98.53-98.53-98.53H497.66L399.12,122.2z"/>
<path class="st1" d="M954.59,837.39c-33.4,0-60.2,26.8-60.2,60.2c0,33.25,26.95,60.2,60.2,60.2l0,0c33.25,0,60.2-26.95,60.2-60.2
	l0,0C1014.8,864.19,987.7,837.39,954.59,837.39 M473.02,355.82v60.2h60.2l108.38,228.44l-40.99,73.75
	c-4.73,8.89-7.2,18.8-7.19,28.87c0,33.25,26.95,60.2,60.2,60.2l0,0h361.12v-60.2h-348.5c-4.16,0-7.54-3.37-7.54-7.54
	c-0.05-1.26,0.28-2.52,0.94-3.6l27.1-49.07h224.21c22.56,0,42.47-12.61,52.71-30.99l107.69-194.75c2.23-4.71,3.47-9.82,3.65-15.03
	c0.03-16.6-13.41-30.07-30-30.1c-0.03,0-0.07,0-0.1,0H599.73l-28.28-60.2 M653.63,837.39c-33.45,0-60.2,26.8-60.2,60.2
	c0,33.25,26.95,60.2,60.2,60.2l0,0c33.25,0,60.2-26.95,60.2-60.2C713.83,864.19,686.74,837.39,653.63,837.39z"/>
</svg>
