<?xml version="1.0" encoding="utf-8"?>
<!-- Generator: Adobe Illustrator 24.1.1, SVG Export Plug-In . SVG Version: 6.00 Build 0)  -->
<svg version="1.1" id="Capa_1" xmlns="http://www.w3.org/2000/svg" xmlns:xlink="http://www.w3.org/1999/xlink" x="0px" y="0px"
	 viewBox="0 0 1080 1080" style="enable-background:new 0 0 1080 1080;" xml:space="preserve">
<style type="text/css">
	.st0{fill:#90A4AE;}
</style>
<path class="st0" d="M540,968c-236.4,0-428-191.6-428-428s191.6-428,428-428s428,191.6,428,428S776.4,968,540,968 M540,5
	C244.5,5,5,244.5,5,540s239.5,535,535,535s535-239.5,535-535S835.5,5,540,5 M540,272.5c-147.7,0-267.5,119.8-267.5,267.5
	S392.3,807.5,540,807.5S807.5,687.7,807.5,540S687.7,272.5,540,272.5z"/>
</svg>
