<?xml version="1.0" encoding="utf-8"?>
<!-- Generator: Adobe Illustrator 24.1.1, SVG Export Plug-In . SVG Version: 6.00 Build 0)  -->
<svg version="1.1" id="Capa_1" xmlns="http://www.w3.org/2000/svg" xmlns:xlink="http://www.w3.org/1999/xlink" x="0px" y="0px"
	 viewBox="0 0 1080 1080" style="enable-background:new 0 0 1080 1080;" xml:space="preserve">
<style type="text/css">
	.st0{fill:#0288D1;}
	.st1{fill-rule:evenodd;clip-rule:evenodd;fill:#90CAF9;}
</style>
<path class="st0" d="M885.6,265.8H520.8L418.5,153.6c-9.7-14.7-29.2-19.5-43.8-19.5H97.4C43.9,134.1,5,178,5,231.6v584.7
	c0,53.6,38.9,97.5,92.4,97.5h793c48.6,0,92.4-43.9,92.4-97.5V363.2C978,309.6,939.2,265.8,885.6,265.8z"/>
<g transform="matrix(.62325 0 0 .62325 3.8992 1.5796)">
	<g transform="matrix(1.5015 0 0 1.5015 -410.35 -353.44)">
		<path class="st1" d="M1242.6,747.5c-6.7,0-12.8,0.2-17.4,0.6c-35.9,3.1-69.5,18.8-92.4,43.2c-11.5,12.2-21.9,29.8-27,45.5
			c-5.6,17.3-5.6,17-5.5,44.1c0,34.6,1.8,43.2,13.6,66.2c11.8,23.2,29.9,42.1,55.9,58.6c11.4,7.3,40.6,21.8,64.5,32.2
			c51.9,22.5,68.4,32.9,76,48l3.1,6.2v13.1c0,12.6-0.1,13.3-2.6,18.5c-5.9,12-19.7,21.9-37.4,26.7c-6.7,1.8-9.8,2.1-24.7,2.1
			c-14.6,0-18.2-0.3-24.9-2c-11.7-3-21.6-7.1-29.3-12.2c-9.5-6.3-28-25-35.6-35.9c-3.3-4.8-6.7-8.8-7.4-8.8
			c-1.2,0-65.3,36.6-76.5,43.7c-3.8,2.4-4.7,3.5-4.7,5.4c0,4,15,26.6,26.7,40.4c23.9,28,71.8,52.7,114.3,58.9
			c16.8,2.4,44.7,3.2,64.1,1.8c12.8-0.9,25.7-3.4,39.5-7.4c50.1-14.7,84.4-46,97-88.6c5.2-17.4,7.3-38.8,5.6-56.9
			c-3.5-37.1-14.9-63.3-37.4-86c-20.9-21.1-49.6-38.1-106.1-62.9c-49.1-21.5-61.9-29.9-68.9-45c-6.1-13-4.9-31,2.7-42.2
			c9-13.1,27.3-19.5,47.8-16.8c19,2.5,31.3,10.1,43.4,26.6c6.3,8.6,10.6,13,12.7,13c2.1,0,10.9-5.5,38.4-23.7
			c28-18.6,36.7-24.9,37.3-26.8c0.9-2.9-3.4-9.8-16.3-25.6c-25.7-31.6-56-48.3-94.8-52.5C1266.5,748.1,1253.8,747.6,1242.6,747.5
			L1242.6,747.5z M933.6,752.9c-23.1,0-49.4,0-78.7,0c-151.8,0.2-187,0.4-188,1.4c-0.9,0.9-1.2,10.2-1.2,45V843l69,0.3l69,0.3
			l0,195.4c0,107.5,0.3,196.3,0.6,197.4l0.5,2h50.2c44.9,0,50.2-0.1,50.7-1.4c0.3-0.8,0.5-89.6,0.5-197.4v-196l69-0.3l69-0.3v-44.3
			c0-38.4-0.1-44.4-1.3-45.2C1042.4,753.1,1002.8,752.9,933.6,752.9L933.6,752.9z"/>
	</g>
</g>
</svg>
