<?xml version="1.0" encoding="utf-8"?>
<!-- Generator: Adobe Illustrator 24.1.1, SVG Export Plug-In . SVG Version: 6.00 Build 0)  -->
<svg version="1.1" id="Capa_1" xmlns="http://www.w3.org/2000/svg" xmlns:xlink="http://www.w3.org/1999/xlink" x="0px" y="0px"
	 viewBox="0 0 1080 1080" style="enable-background:new 0 0 1080 1080;" xml:space="preserve">
<style type="text/css">
	.st0{fill:#26A69A;}
	.st1{fill-rule:evenodd;clip-rule:evenodd;fill:#B2DFDB;}
</style>
<path class="st0" d="M885.6,199.5H520.7L418.5,87.4c-9.7-14.6-29.2-19.5-43.8-19.5H97.4C43.9,67.9,5,111.8,5,165.4v584.8
	c0,53.6,38.9,97.5,92.4,97.5h793c48.6,0,92.4-43.9,92.4-97.5V297C978,243.4,939.1,199.5,885.6,199.5z M885.6,750.2H97.4V165.4H365
	l102.2,112.1c9.7,14.6,29.2,19.5,43.8,19.5h379.5v453.2H885.6z"/>
<g transform="matrix(.67949 0 0 .67949 9.214 8.738)">
	<circle class="st1" cx="918" cy="1135.8" r="154.9"/>
	<circle class="st1" cx="1124.5" cy="722.8" r="154.9"/>
	<circle class="st1" cx="1413.6" cy="1321.7" r="154.9"/>
</g>
</svg>
