<?xml version="1.0" encoding="utf-8"?>
<!-- Generator: Adobe Illustrator 24.1.1, SVG Export Plug-In . SVG Version: 6.00 Build 0)  -->
<svg version="1.1" id="Capa_1" xmlns="http://www.w3.org/2000/svg" xmlns:xlink="http://www.w3.org/1999/xlink" x="0px" y="0px"
	 viewBox="0 0 1080 1080" style="enable-background:new 0 0 1080 1080;" xml:space="preserve">
<style type="text/css">
	.st0{fill:#7CB342;}
	.st1{fill-rule:evenodd;clip-rule:evenodd;fill:#DCEDC8;}
</style>
<path class="st0" d="M885.6,269.5H520.8L418.5,157.4c-9.7-14.7-29.2-19.5-43.8-19.5H97.4C43.9,137.8,5,181.7,5,235.3v584.7
	c0,53.6,38.9,97.5,92.4,97.5h793c48.6,0,92.4-43.9,92.4-97.5V366.9C978,313.3,939.2,269.5,885.6,269.5z"/>
<path class="st1" d="M575,497.7h-55.6v388.9c0,30.6,25,55.6,55.6,55.6h388.9v-55.6H575L575,497.7z M1019.4,386.6H686.1
	c-30.5,0-55.6,25-55.6,55.6v333.3c0,30.6,25,55.6,55.6,55.6h333.3c30.6,0,55.6-25,55.6-55.6V442.2
	C1075,411.6,1050,386.6,1019.4,386.6z M991.7,636.6H880.6v111.1H825V636.6H713.9V581H825V469.9h55.6V581h111.1V636.6z"/>
</svg>
