<?xml version="1.0" encoding="utf-8"?>
<!-- Generator: Adobe Illustrator 24.1.1, SVG Export Plug-In . SVG Version: 6.00 Build 0)  -->
<svg version="1.1" id="Capa_1" xmlns="http://www.w3.org/2000/svg" xmlns:xlink="http://www.w3.org/1999/xlink" x="0px" y="0px"
	 viewBox="0 0 1080 1080" style="enable-background:new 0 0 1080 1080;" xml:space="preserve">
<style type="text/css">
	.st0{fill:#03A9F4;}
	.st1{fill-rule:evenodd;clip-rule:evenodd;fill:#FFFFFF;fill-opacity:0.785;}
	.st2{fill-rule:evenodd;clip-rule:evenodd;fill:#8ED6FB;}
	.st3{fill-rule:evenodd;clip-rule:evenodd;fill:#1C78C0;}
</style>
<path class="st0" d="M885.6,252.2H520.8L418.5,140c-9.7-14.7-29.2-19.5-43.8-19.5H97.4C43.9,120.5,5,164.4,5,218v584.7
	c0,53.6,38.9,97.5,92.4,97.5h793c48.6,0,92.4-43.9,92.4-97.5V349.5C978,295.9,939.2,252.2,885.6,252.2z"/>
<g transform="matrix(.66328 0 0 .66328 9.1921 7.4804)">
	<path class="st1" d="M1511.9,1137.3l-383.5,221.4L745,1137.3V694.5l383.5-221.4l383.5,221.4V1137.3z"/>
	<path class="st2" d="M1159.2,440.4c-10.4,0-20.4,3-28.4,8.9l-393,220.8c-15.9,8.5-26.3,24.9-26.3,43.8v447.7
		c0,18.9,10.4,35.4,26.3,43.8l393,220.8c8,6,17.9,8.9,28.4,8.9s20.4-3,28.4-8.9l393-220.8c15.9-8.5,26.3-24.9,26.3-43.8V714
		c0-18.9-10.4-35.4-26.3-43.8l-393-220.8C1179.6,443.4,1169.6,440.4,1159.2,440.4z M1159.2,547.4l348.2,196V848h-0.8v257.6h0.8v26.8
		l-348.2,196l-348.2-196v-389L1159.2,547.4z M1159.2,650.9L915.4,791.7l243.8,140.8l243.8-140.8L1159.2,650.9z M910.4,903.6v178.1
		l199,114.8v-178.1L910.4,903.6z M1407.9,903.6l-199,114.8v178.1l199-114.8V903.6z"/>
	<path class="st3" d="M1159.2,650.9L915.4,791.7l243.8,140.8l243.8-140.8L1159.2,650.9z M910.4,903.6v178.1l199,114.8v-178.1
		L910.4,903.6z M1407.9,903.6l-199,114.8v178.1l199-114.8V903.6z"/>
</g>
</svg>
