<?xml version="1.0" encoding="utf-8"?>
<!-- Generator: Adobe Illustrator 24.1.1, SVG Export Plug-In . SVG Version: 6.00 Build 0)  -->
<svg version="1.1" id="Capa_1" xmlns="http://www.w3.org/2000/svg" xmlns:xlink="http://www.w3.org/1999/xlink" x="0px" y="0px"
	 viewBox="0 0 1080 1080" style="enable-background:new 0 0 1080 1080;" xml:space="preserve">
<style type="text/css">
	.st0{fill:#FF5722;}
	.st1{fill-rule:evenodd;clip-rule:evenodd;fill:#FFCCBC;}
</style>
<path class="st0" d="M885.6,269.3H520.8L418.5,157.2c-9.7-14.7-29.2-19.5-43.8-19.5H97.4C43.9,137.6,5,181.5,5,235.1v584.7
	c0,53.6,38.9,97.5,92.4,97.5h793c48.6,0,92.4-43.9,92.4-97.5V366.7C978,313.1,939.2,269.3,885.6,269.3z"/>
<path id="back" class="st1" d="M884.6,334c-31.6,0.6-62.9,9.4-90.7,27l-141.7,90.3c-38.7,24.3-65.3,63.7-73.5,108.7
	c-6.8,37.5-0.9,76.2,16.8,110c-12.1,18.4-20.4,39.1-24.3,60.8c-8.2,45.9,2.5,93.1,29.6,131.1c56.5,80.9,168.1,104.8,248.8,53.4
	l141.7-89.9c38.6-24.3,65.3-63.8,73.5-108.7c6.8-37.5,0.8-76.2-16.9-109.9c12.1-18.4,20.4-39.1,24.3-60.8
	c8.2-45.9-2.5-93.1-29.6-131.1v-0.4C1005.6,361.4,944.8,332.9,884.6,334L884.6,334z M897,403.4c35.1,1.6,67.4,19.5,87.3,48.3
	c16.3,22.8,22.7,51.2,17.8,78.8c-0.8,4.5-2,8.9-3.4,13.2l-2.7,8.2l-7.2-5.4c-16.8-12.3-35.5-21.7-55.4-27.7l-5.4-1.6l0.5-5.4
	c0.6-7.5-1.4-15-5.8-21.1c-8.2-11.5-22.6-16.7-36.2-13.1c-3.1,0.8-6,2.1-8.7,3.8l-141.8,90.1c-7,4.4-11.8,11.6-13.3,19.7
	c-1.4,8.3,0.5,16.9,5.4,23.8c8.1,11.6,22.5,16.9,36.1,13.5c3.1-0.8,6-2.1,8.7-3.8l54.3-34.4c8.9-5.7,18.6-10,28.8-12.7
	c45.7-11.9,93.9,6,120.8,44.8c16.3,22.8,22.7,51.2,17.8,78.8c-4.9,27.1-20.9,50.9-44.2,65.5L808.8,857c-8.9,5.7-18.6,9.9-28.8,12.7
	c-45.7,11.9-93.9-6-120.9-44.8c-16.3-22.8-22.7-51.2-17.8-78.8c0.8-4.4,1.9-8.8,3.4-13.1l2.7-8.2l7.3,5.4
	c16.7,12.2,35.4,21.5,55.3,27.5l5.4,1.6l-0.5,5.4c-0.5,7.5,1.6,14.9,5.9,20.9c8.1,11.7,22.6,17,36.4,13.5c3.1-0.8,6-2.1,8.7-3.8
	L907.4,705c7-4.4,11.9-11.6,13.3-19.8c1.5-8.3-0.5-16.9-5.4-23.7c-8.1-11.7-22.6-17-36.4-13.5c-3.1,0.8-6,2.1-8.7,3.8l-54.3,34.5
	c-8.9,5.6-18.6,9.9-28.7,12.6c-45.6,11.8-93.8-6.1-120.6-44.8c-16.2-22.8-22.6-51.2-17.7-78.8c4.9-27.1,20.9-50.9,44.2-65.5
	L835,419.5c8.8-5.6,18.5-9.9,28.6-12.6C874.5,404.1,885.7,402.9,897,403.4L897,403.4z"/>
</svg>
