<?xml version="1.0" encoding="utf-8"?>
<!-- Generator: Adobe Illustrator 27.0.0, SVG Export Plug-In . SVG Version: 6.00 Build 0)  -->
<svg version="1.1" id="Capa_1" xmlns="http://www.w3.org/2000/svg" xmlns:xlink="http://www.w3.org/1999/xlink" x="0px" y="0px"
	 viewBox="0 0 1080 1080" style="enable-background:new 0 0 1080 1080;" xml:space="preserve">
<style type="text/css">
	.st0{fill:#AA47BB;}
	.st1{fill:#E0BDE6;}
</style>
<path class="st0" d="M891.7,210.43H497.61l-98.52-98.52H103.52C48.84,111.91,5,155.75,5,210.43v591.14
	c0,54.04,44.48,98.52,98.52,98.52H891.7c54.04,0,98.52-44.48,98.52-98.52V308.96C990.22,254.54,946.11,210.43,891.7,210.43z"/>
<g>
	<path class="st1" d="M820.34,864.74c-4.91-20.42-1.04-40.94,0.58-61.39c2.08-26.23,2.42-52.38-5.96-77.75
		c-10.47-31.67-33.91-51.5-62.07-66.86c-15.65-8.53-32.08-15.37-48.55-22.05c-54.55-22.12-86.43-80.13-77.91-138.24
		c9.6-65.49,69-112.68,132.31-109.41c81.07,4.19,132.28,75.43,122.19,146.85c-4.02,28.44-5.18,57.17,1.46,85.55
		c8.62,36.85,33.06,60.46,65.3,77.46c12.7,6.69,25.46,13.29,39.07,17.99c11.33,3.91,21.57,9.98,32.03,15.62
		c3.74,2.02,7.13,4.64,10.01,7.77c2.92,3.19,5.84,6.37,8.97,9.33c47.58,44.89,48.87,122.88,7.83,172.3
		c-44.85,54.01-128.34,62.75-182.87,15.07c-10.03-8.77-18.31-18.55-25.34-29.58C834.27,902.5,823.01,875.85,820.34,864.74z"/>
	<circle class="st1" cx="592" cy="840" r="128"/>
</g>
</svg>
