<?xml version="1.0" encoding="utf-8"?>
<!-- Generator: Adobe Illustrator 24.1.1, SVG Export Plug-In . SVG Version: 6.00 Build 0)  -->
<svg version="1.1" id="Capa_1" xmlns="http://www.w3.org/2000/svg" xmlns:xlink="http://www.w3.org/1999/xlink" x="0px" y="0px"
	 viewBox="0 0 1080 1080" style="enable-background:new 0 0 1080 1080;" xml:space="preserve">
<style type="text/css">
	.st0{fill:#78909C;}
	.st1{fill-rule:evenodd;clip-rule:evenodd;fill:#CFD8DC;}
</style>
<path class="st0" d="M885.6,270.3H520.8L418.5,158.1c-9.7-14.7-29.2-19.5-43.8-19.5H97.4C43.9,138.6,5,182.5,5,236.1v584.7
	c0,53.6,38.9,97.5,92.4,97.5h793c48.6,0,92.4-43.9,92.4-97.5V367.7C978,314.1,939.2,270.3,885.6,270.3z"/>
<path class="st1" d="M1075,584.4v-89.2H896.5c-49.3,0-89.2,40-89.2,89.2v89.2c0,49.3,40,89.2,89.2,89.2l0,0h89.2v89.2H807.3v89.2
	h178.5c49.3,0,89.2-40,89.2-89.2v-89.2c0-49.3-40-89.2-89.2-89.2h-89.2v-89.2 M673.4,852.2h-89.2V584.4h89.2 M673.4,495.2h-89.2
	c-49.3,0-89.2,40-89.2,89.2v267.7c0,49.3,40,89.2,89.2,89.2h89.2c49.3,0,89.2-40,89.2-89.2V584.4
	C762.6,535.1,722.7,495.2,673.4,495.2 M361.1,941.4h89.2V673.7h-89.2 M361.1,584.4h89.2v-89.2h-89.2V584.4z"/>
</svg>
