<?xml version="1.0" encoding="utf-8"?>
<!-- Generator: Adobe Illustrator 24.1.1, SVG Export Plug-In . SVG Version: 6.00 Build 0)  -->
<svg version="1.1" id="Capa_1" xmlns="http://www.w3.org/2000/svg" xmlns:xlink="http://www.w3.org/1999/xlink" x="0px" y="0px"
	 viewBox="0 0 1080 1080" style="enable-background:new 0 0 1080 1080;" xml:space="preserve">
<style type="text/css">
	.st0{fill:#1976D2;}
	.st1{fill-rule:evenodd;clip-rule:evenodd;fill:#BBDEFB;}
</style>
<path class="st0" d="M885.6,258.1H520.7L418.5,146c-9.7-14.6-29.2-19.5-43.8-19.5H97.4C43.9,126.5,5,170.4,5,224v584.8
	c0,53.6,38.9,97.5,92.4,97.5h793c48.6,0,92.4-43.9,92.4-97.5V355.6C978,302,939.1,258.1,885.6,258.1z M885.6,808.8H97.4V224H365
	l102.2,112.1c9.7,14.6,29.2,19.5,43.8,19.5h379.5v453.2H885.6z"/>
<path class="st1" d="M492.2,436h65.3v-65.3C522.3,370.7,492.2,400.8,492.2,436z M492.2,697.2h65.3v-65.3h-65.3V697.2z M622.8,953.5
	h65.3v-65.3h-65.3V953.5z M492.2,566.6h65.3v-65.3h-65.3V566.6z M813.7,370.7h-65.3V436h65.3V370.7z M1009.7,370.7V436h65.3
	C1075,400.8,1044.9,370.7,1009.7,370.7z M557.5,953.5v-65.3h-65.3C492.2,928.4,522.3,953.5,557.5,953.5z M492.2,827.9h65.3v-65.3
	h-65.3V827.9z M683.1,370.7h-65.3V436h65.3V370.7z M748.4,953.5h65.3v-65.3h-65.3V953.5z M1009.7,697.2h65.3v-65.3h-65.3V697.2z
	 M1009.7,953.5c35.2,0,65.3-30.1,65.3-65.3h-65.3V953.5z M1009.7,566.6h65.3v-65.3h-65.3V566.6z M1009.7,827.9h65.3v-65.3h-65.3
	V827.9z M879.1,953.5h65.3v-65.3h-65.3V953.5z M879.1,436h65.3v-65.3h-65.3V436z M622.8,827.9h321.5V506.3H617.8L622.8,827.9z
	 M683.1,566.6h195.9v195.9H683.1L683.1,566.6z"/>
</svg>
