<?xml version="1.0" encoding="utf-8"?>
<!-- Generator: Adobe Illustrator 24.1.1, SVG Export Plug-In . SVG Version: 6.00 Build 0)  -->
<svg version="1.1" id="Capa_1" xmlns="http://www.w3.org/2000/svg" xmlns:xlink="http://www.w3.org/1999/xlink" x="0px" y="0px"
	 viewBox="0 0 1080 1080" style="enable-background:new 0 0 1080 1080;" xml:space="preserve">
<style type="text/css">
	.st0{fill:#448AFF;}
	.st1{fill:#BBDEFB;}
</style>
<path class="st0" d="M880.7,263.5H515.8L413.7,151.4c-9.7-14.6-29.2-19.5-43.8-19.5H92.6C43.9,131.9,5,175.8,5,229.4v584.8
	c0,53.6,38.9,97.5,92.4,97.5h793c48.6,0,92.4-43.9,92.4-97.5V361C973.1,307.4,939.1,263.5,880.7,263.5z M880.7,814.2h-793V229.4
	h267.6l102.2,112.1c9.7,14.6,29.2,19.5,43.8,19.5h379.5V814.2z"/>
<g transform="matrix(.56815 0 0 .56815 8.8739 9.409)">
	<g transform="translate(-3.3597e-5,-5e-5)">
		<path class="st1" d="M1074.7,1365.4h485.9l-262.4,286.7H812.3L1074.7,1365.4z"/>
		<path class="st1" d="M1876.5,1020.4h-1001L613.1,1312h1001L1876.5,1020.4z"/>
		<path class="st1" d="M1181.6,680.3h485.9L1405.1,967H919.2L1181.6,680.3z"/>
	</g>
</g>
</svg>
