<?xml version="1.0" encoding="utf-8"?>
<!-- Generator: Adobe Illustrator 24.1.1, SVG Export Plug-In . SVG Version: 6.00 Build 0)  -->
<svg version="1.1" id="Capa_1" xmlns="http://www.w3.org/2000/svg" xmlns:xlink="http://www.w3.org/1999/xlink" x="0px" y="0px"
	 viewBox="0 0 1080 1080" style="enable-background:new 0 0 1080 1080;" xml:space="preserve">
<style type="text/css">
	.st0{fill:#FF5252;}
	.st1{fill-rule:evenodd;clip-rule:evenodd;fill:#FFCDD2;}
</style>
<path class="st0" d="M885.6,267.2H520.8L418.5,155c-9.7-14.7-29.2-19.5-43.8-19.5H97.4C43.9,135.5,5,179.4,5,233v584.7
	c0,53.6,38.9,97.5,92.4,97.5h793c48.6,0,92.4-43.9,92.4-97.5V364.5C978,310.9,939.2,267.2,885.6,267.2z"/>
<path class="st1" d="M1014.5,460.2H530.2c-33.3,0-60.2,27.2-60.2,60.5L469.6,884c0,33.3,27.3,60.5,60.5,60.5h484.3
	c33.3,0,60.5-27.3,60.5-60.5V520.7C1075,487.4,1047.8,460.2,1014.5,460.2z M1014.5,581.3L772.3,732.6L530.1,581.3v-60.5l242.2,151.3
	l242.2-151.3L1014.5,581.3z"/>
</svg>
