<?xml version="1.0" encoding="utf-8"?>
<!-- Generator: Adobe Illustrator 27.0.0, SVG Export Plug-In . SVG Version: 6.00 Build 0)  -->
<svg version="1.1" id="Capa_1" xmlns="http://www.w3.org/2000/svg" xmlns:xlink="http://www.w3.org/1999/xlink" x="0px" y="0px"
	 viewBox="0 0 1080 1080" style="enable-background:new 0 0 1080 1080;" xml:space="preserve">
<style type="text/css">
	.st0{fill:#EF5350;}
	.st1{fill:#FFCDD2;}
</style>
<path class="st0" d="M886.83,260.69H521.48L419.12,148.45c-9.7-14.6-29.19-19.5-43.88-19.5H97.56C43.99,128.95,5,172.83,5,226.52
	v585.64c0,53.68,38.99,97.56,92.56,97.56h794.16c48.68,0,92.56-43.88,92.56-97.56v-453.8C979.39,304.68,940.51,260.69,886.83,260.69
	L886.83,260.69z M886.83,812.15H97.56V226.52h267.98l102.36,112.25c9.7,14.6,29.19,19.5,43.88,19.5h380.03v453.91h-5L886.83,812.15z
	"/>
<path class="st1" d="M441.24,951.05h570.38v-63.38H441.24 M1011.62,539.11h-63.38v-95.06h63.38 M1011.62,380.68H504.63v316.87
	c0,70,56.75,126.75,126.75,126.75H821.5c70,0,126.75-56.75,126.75-126.75v-95.06h63.38c35,0,63.38-28.37,63.38-63.38c0,0,0,0,0,0
	v-95.06C1075,409.05,1046.63,380.68,1011.62,380.68L1011.62,380.68L1011.62,380.68z"/>
</svg>
