<?xml version="1.0" encoding="utf-8"?>
<!-- Generator: Adobe Illustrator 27.0.0, SVG Export Plug-In . SVG Version: 6.00 Build 0)  -->
<svg version="1.1" id="Capa_1" xmlns="http://www.w3.org/2000/svg" xmlns:xlink="http://www.w3.org/1999/xlink" x="0px" y="0px"
	 viewBox="0 0 1080 1080" style="enable-background:new 0 0 1080 1080;" xml:space="preserve">
<style type="text/css">
	.st0{fill:#039BE5;}
	.st1{fill-rule:evenodd;clip-rule:evenodd;fill:#B3E5FC;}
</style>
<path class="st0" d="M399.21,119.01H103.55C48.86,119.01,5,162.86,5,217.56v591.31c0,54.06,44.5,98.55,98.55,98.55h788.42
	c54.06,0,98.55-44.5,98.55-98.55V316.11c0-54.43-44.12-98.55-98.55-98.55H497.76L399.21,119.01z"/>
<g>
	<path class="st1" d="M438.49,567.52c2.62,5.59,5.23,10.05,10.88,14.21c0.02,0.02,0.05,0.04,0.07,0.05c2.08,1.51,1.95,1.2,2.73,1.6
		c0.78,0.4,1.72,0.86,2.88,1.42c2.31,1.12,5.47,2.6,9.39,4.43c7.84,3.66,18.74,8.67,31.7,14.59c25.93,11.84,60.13,27.32,94.53,42.8
		s68.97,30.95,95.64,42.78c13.34,5.91,24.7,10.91,33.1,14.56c4.2,1.82,7.66,3.3,10.28,4.41c2.6,1.09,3.79,1.65,5.82,2.29
		c5.28,1.73,10.88,2.54,16.59,2.53l0,0c7.37-0.02,14.91-1.4,22.16-3.96c3.28-1.15,7.63-3.12,15.99-6.77
		c8.37-3.66,19.64-8.64,32.84-14.52c26.41-11.75,60.53-27.05,94.42-42.32c33.89-15.27,67.54-30.5,92.99-42.11
		c12.73-5.81,23.4-10.71,31.06-14.27c3.83-1.78,6.9-3.22,9.14-4.3c1.12-0.54,2.02-0.98,2.77-1.36c0.75-0.38,0.34,0.16,2.76-1.62
		c0.01-0.01,0.02-0.01,0.03-0.02c9.83-7.28,14.03-19.45,14.6-32.88c0.7-14.97-3.73-28.52-13.79-37.24c-0.06-0.05-0.11-0.1-0.17-0.14
		c-1.85-1.54-1.88-1.34-2.65-1.81c-0.78-0.47-1.71-1.01-2.85-1.66c-2.28-1.3-5.38-3.02-9.22-5.13
		c-7.69-4.23-18.35-10.01-31.03-16.83c-25.36-13.66-58.81-31.51-92.5-49.39c-33.69-17.88-67.62-35.79-93.95-49.57
		c-13.17-6.89-24.43-12.74-32.84-17.06c-8.41-4.31-12.82-6.65-16.37-8.1c-0.01,0-0.02-0.01-0.02-0.01
		c-9.85-3.97-20.57-5.41-31.07-3.6c-6,0.9-11.79,3.13-17.14,5.33c-0.06,0.03-0.13,0.05-0.19,0.08c-3.1,1.33-7.96,3.85-16.35,8.16
		c-8.39,4.31-19.56,10.13-32.59,16.94c-26.05,13.63-59.49,31.26-92.65,48.82c-33.16,17.56-66.02,35.06-90.92,48.41
		c-12.45,6.68-22.91,12.32-30.44,16.43c-3.77,2.06-6.79,3.73-9.02,4.98c-1.11,0.63-2.02,1.14-2.76,1.59s-0.73,0.24-2.51,1.66
		c-0.06,0.05-0.13,0.1-0.19,0.15c-16.19,13.52-20.14,37.17-11.19,56.39C438.48,567.51,438.49,567.51,438.49,567.52z M515.98,544.03
		c5.14-2.98,10.94-6.33,18.03-10.36c22.61-12.85,54.4-30.55,90.91-50.19c0.01,0,0.01-0.01,0.02-0.01
		c70.12-37.91,123.12-66.5,127.69-68.96c12.52,6.46,59.96,31.01,123.18,65.02c0,0,0,0,0.01,0c36.64,19.68,69.99,38.58,94.15,52.6
		c8.37,4.86,15.13,8.84,21.04,12.36c-5,2.33-10.63,4.93-17.34,7.99c-22.85,10.4-54.89,24.63-91.49,40.09l-129.18,54.34
		l-128.57-54.09l-0.01-0.01c-36.43-15.38-68.21-29.79-90.87-40.42C526.7,549.19,521.02,546.47,515.98,544.03z M1003.53,545.67
		c0,0.94,0.12,1.88,0.34,2.8c-0.1-0.41-0.18-0.79-0.25-1.17C1003.57,546.81,1003.53,546.28,1003.53,545.67z"/>
	<path class="st1" d="M431.76,659.6c1.82,18.65,5.64,33.21,15.17,43.11c0.05,0.05,0.11,0.11,0.16,0.16
		c3.87,3.87,5.8,4.22,10.84,6.81c5.04,2.59,12.36,6.11,23.03,11.08c21.35,9.95,56.07,25.68,111.71,50.65
		c37.95,17.03,73.01,32.67,98.94,44.15c12.96,5.74,23.64,10.44,31.27,13.76c3.82,1.66,6.87,2.98,9.1,3.92
		c1.11,0.47,2.02,0.85,2.76,1.15c0.74,0.3,0.56,0.36,2.49,0.89c0.03,0.01,0.06,0.02,0.08,0.02c4.22,1.12,8.62,1.69,13.09,1.76l0,0
		c7.45,0.13,15.09-1.13,22.35-3.55c1.9-0.63,2.96-1.14,5.46-2.2c2.5-1.06,5.83-2.5,9.89-4.26c8.12-3.54,19.18-8.4,32.19-14.17
		c26.03-11.52,59.89-26.63,93.66-41.76c33.77-15.13,67.44-30.29,93.09-41.92c12.82-5.82,23.64-10.75,31.48-14.37
		c3.92-1.81,7.1-3.29,9.44-4.4c2.32-1.1,2.73-1.11,5.15-2.61c6.88-4.18,9.87-9.95,12.89-16.59c3.03-6.66,5.35-14.4,6.66-22.56
		l-0.02,0.11c0.79-4.63,1.51-8.05,1.89-11.46c0.19-1.71,0.41-3.39-0.03-6.06c-0.44-2.67-2.59-7.56-6.96-9.8
		c-4.37-2.24-7.8-1.49-9.94-0.97c-2.13,0.52-3.66,1.18-5.32,1.93c-3.3,1.48-6.98,3.43-11.99,5.94
		c-9.1,4.44-79.53,37.23-154.84,71.98L753,781.36l-132.34-61.03c0,0,0,0,0,0c-75.48-34.77-146.47-67.78-155.03-72.06
		c-0.01,0-0.02-0.01-0.03-0.01l-18.06-8.97c-1.93-0.96-4.09-1.36-6.24-1.15c-6.35,0.61-11,6.25-10.4,12.6l0.85,8.85
		C431.76,659.58,431.76,659.59,431.76,659.6z"/>
	<path class="st1" d="M1073.79,768.09c-2.84-5.71-9.77-8.04-15.48-5.2l-20.96,10.42c-0.02,0.01-0.05,0.02-0.07,0.03
		c-9.6,4.85-82.6,38.88-151.97,70.96c-34.69,16.04-68.74,31.73-94.22,43.4c-12.74,5.84-23.34,10.67-30.79,14.03
		c-3.14,1.42-5.38,2.42-7.3,3.27c-2.07-0.92-4.58-2.04-8.03-3.6c-7.9-3.57-19.15-8.7-32.63-14.88
		c-26.97-12.36-62.92-28.91-99.22-45.69c-36.3-16.77-72.96-33.76-101.35-46.98c-28.39-13.22-49.82-23.36-51.39-24.18l-12.4-6.62
		c-1.99-1.06-4.24-1.52-6.48-1.31c-6.35,0.58-11.04,6.19-10.46,12.55l0.85,9.33c0,0.01,0,0.02,0,0.03
		c0.93,9.92,2.93,19.12,5.87,27.03c2.94,7.9,6.41,14.69,12.97,19.65c0.08,0.06,0.16,0.12,0.24,0.18c2.29,1.64,1.93,1.17,2.68,1.54
		c0.75,0.38,1.67,0.82,2.8,1.37c2.27,1.09,5.39,2.55,9.29,4.36c7.79,3.61,18.64,8.59,31.57,14.48c25.86,11.79,60,27.23,94.29,42.67
		s68.72,30.87,95.16,42.63c13.22,5.88,24.43,10.83,32.65,14.42c4.11,1.79,7.47,3.24,9.98,4.31c2.51,1.06,3.33,1.51,5.59,2.22
		c5.56,1.76,11.53,2.56,17.53,2.49l0,0c5.97-0.07,11.97-0.99,17.63-2.65c2.77-0.79,3.22-1.16,5.69-2.19
		c2.49-1.04,5.81-2.46,9.88-4.22c8.15-3.52,19.3-8.41,32.46-14.22c26.33-11.62,60.69-26.92,94.97-42.26
		c34.28-15.34,68.46-30.73,94.42-42.51c12.98-5.89,23.9-10.88,31.78-14.53c3.94-1.82,7.11-3.31,9.44-4.43
		c1.17-0.56,2.12-1.02,2.9-1.42c0.78-0.4,0.78-0.21,2.63-1.5c6.99-4.86,10.57-11.81,13.62-19.89c3.04-8.08,5.12-17.57,6.18-27.92
		c0-0.02,0-0.05,0.01-0.07l0.85-8.85C1075.15,772.18,1074.75,770.02,1073.79,768.09z M756.46,906.52c-0.2-0.08-0.66-0.29-0.96-0.42
		C756.59,906.22,756.42,906.42,756.46,906.52z M750.46,906.12c-0.28,0.12-0.67,0.29-0.85,0.37
		C749.65,906.39,749.62,906.23,750.46,906.12z"/>
</g>
</svg>
