<?xml version="1.0" encoding="utf-8"?>
<!-- Generator: Adobe Illustrator 24.1.1, SVG Export Plug-In . SVG Version: 6.00 Build 0)  -->
<svg version="1.1" id="Capa_1" xmlns="http://www.w3.org/2000/svg" xmlns:xlink="http://www.w3.org/1999/xlink" x="0px" y="0px"
	 viewBox="0 0 1080 1080" style="enable-background:new 0 0 1080 1080;" xml:space="preserve">
<style type="text/css">
	.st0{fill:#0277BD;}
	.st1{fill-rule:evenodd;clip-rule:evenodd;fill:#B3E5FC;}
</style>
<path class="st0" d="M885.6,255.4H520.8L418.5,143.3c-9.7-14.7-29.2-19.5-43.8-19.5H97.4C43.9,123.8,5,167.6,5,221.2V806
	c0,53.6,38.9,97.5,92.4,97.5h793c48.6,0,92.4-43.9,92.4-97.5V352.8C978,299.2,939.2,255.4,885.6,255.4z"/>
<g>
	<path class="st1" d="M726.9,924.6l-126.6,0.1V734.8l-94.9,121.8l-94.9-121.8v189.9H283.9V545h126.6l94.9,126.6L600.3,545l126.6-0.1
		V924.6z"/>
	<path class="st1" d="M915.9,956.2L758.6,734.8h94.9V545h126.6v189.8h94.9L915.9,956.2z"/>
</g>
</svg>
