<?xml version="1.0" encoding="utf-8"?>
<!-- Generator: Adobe Illustrator 24.1.1, SVG Export Plug-In . SVG Version: 6.00 Build 0)  -->
<svg version="1.1" id="Capa_1" xmlns="http://www.w3.org/2000/svg" xmlns:xlink="http://www.w3.org/1999/xlink" x="0px" y="0px"
	 viewBox="0 0 1080 1080" style="enable-background:new 0 0 1080 1080;" xml:space="preserve">
<style type="text/css">
	.st0{fill:#7E57C2;}
	.st1{fill:#D1C4E9;}
</style>
<path class="st0" d="M885.6,241.1H520.7L418.5,129c-9.7-14.6-29.2-19.5-43.8-19.5H97.4C43.9,109.5,5,153.4,5,207v584.8
	c0,53.6,38.9,97.5,92.4,97.5h793c48.6,0,92.4-43.9,92.4-97.5V338.6C978,285,939.1,241.1,885.6,241.1z M885.6,791.8H97.4V207H365
	l102.2,112.1c9.7,14.6,29.2,19.5,43.8,19.5h379.5v453.2H885.6z"/>
<path class="st1" d="M765.7,558.3c-171.8,0-314.1,68.7-314.1,157c0,68.7,93.2,127.6,220.8,152.1v103.1l127.6-127.6L672.5,715.3v83.4
	c-98.1-19.6-157-58.9-157-83.4c0-34.4,93.2-93.2,250.3-93.2s250.3,58.9,250.3,93.2c0,24.5-44.2,58.9-127.6,78.5v63.8
	c112.9-24.5,186.5-78.5,186.5-142.3C1079.8,631.9,937.5,558.3,765.7,558.3L765.7,558.3z"/>
</svg>
