<?xml version="1.0" encoding="utf-8"?>
<!-- Generator: Adobe Illustrator 24.1.1, SVG Export Plug-In . SVG Version: 6.00 Build 0)  -->
<svg version="1.1" id="Capa_1" xmlns="http://www.w3.org/2000/svg" xmlns:xlink="http://www.w3.org/1999/xlink" x="0px" y="0px"
	 viewBox="0 0 1080 1080" style="enable-background:new 0 0 1080 1080;" xml:space="preserve">
<style type="text/css">
	.st0{fill:#5C6BC0;}
	.st1{fill-rule:evenodd;clip-rule:evenodd;fill:#C5CAE9;}
</style>
<path class="st0" d="M885.6,254.3H520.8L418.5,142.1c-9.7-14.7-29.2-19.5-43.8-19.5H97.4C43.9,122.6,5,166.5,5,220.1v584.7
	c0,53.6,38.9,97.5,92.4,97.5h793c48.6,0,92.4-43.9,92.4-97.5V351.7C978,298.1,939.2,254.3,885.6,254.3z"/>
<path class="st1" d="M772.6,750.5l-75.8-74.9l0.9-0.9c51.9-57.9,89-124.5,110.7-194.9h87.5v-59.7h-209v-59.7h-59.7v59.7h-209v59.7
	h333.4c-20,57.3-51.6,111.9-94.6,159.7c-27.8-30.7-50.7-64.5-69-100h-59.7c21.8,48.7,51.6,94.6,89,136.1L465.5,825.5l42.4,42.4
	l149.2-149.2l92.8,92.8L772.6,750.5 M940.7,599.2H881L746.7,957.4h59.7l33.4-89.6h141.8l33.7,89.6h59.7L940.7,599.2 M862.5,808.2
	l48.4-129.3l48.4,129.3H862.5z"/>
</svg>
