<?xml version="1.0" encoding="utf-8"?>
<!-- Generator: Adobe Illustrator 27.0.0, SVG Export Plug-In . SVG Version: 6.00 Build 0)  -->
<svg version="1.1" id="Capa_1" xmlns="http://www.w3.org/2000/svg" xmlns:xlink="http://www.w3.org/1999/xlink" x="0px" y="0px"
	 viewBox="0 0 1080 1080" style="enable-background:new 0 0 1080 1080;" xml:space="preserve">
<style type="text/css">
	.st0{fill:#1976D2;}
	.st1{fill:#BBDEFB;}
</style>
<path class="st0" d="M894.16,258.48H525.78L422.56,145.3c-9.78-14.72-29.43-19.66-44.24-19.66H98.33C44.31,125.64,5,169.89,5,224.02
	v590.51c0,54.12,39.31,98.37,93.33,98.37H899.1c49.08,0,93.33-44.24,93.33-98.37V356.95C987.49,302.83,948.29,258.48,894.16,258.48
	L894.16,258.48z M894.16,814.53H98.33V224.02h270.21L471.76,337.2c9.78,14.72,29.43,19.66,44.24,19.66h383.19v457.68h-5.04
	L894.16,814.53z"/>
<path class="st1" d="M730.17,816.01H639.9L470.08,643.08L639.9,470.14h90.27l45.31-78.17l234.84-60.18L1075,564.91l-45.31,78.17
	l45.31,78.17l-64.68,233.11l-234.84-60.18L730.17,816.01 M735.01,807.36l177.43,47.73L810.07,677.66H605.32L735.01,807.36
	 M972.62,820.5l47.73-177.43l-47.73-177.43L869.9,643.07L972.62,820.5 M735.01,478.79l-129.7,129.7h204.75l102.37-177.43
	L735.01,478.79z"/>
</svg>
