<?xml version="1.0" encoding="utf-8"?>
<!-- Generator: Adobe Illustrator 27.0.0, SVG Export Plug-In . SVG Version: 6.00 Build 0)  -->
<svg version="1.1" id="Capa_1" xmlns="http://www.w3.org/2000/svg" xmlns:xlink="http://www.w3.org/1999/xlink" x="0px" y="0px"
	 viewBox="0 0 1080 1080" style="enable-background:new 0 0 1080 1080;" xml:space="preserve">
<style type="text/css">
	.st0{fill:#009688;}
	.st1{fill:#B2DFDB;}
</style>
<path class="st0" d="M886.89,257.44H521.51L419.15,145.19c-9.7-14.6-29.19-19.5-43.88-19.5H97.57C43.99,125.69,5,169.57,5,223.26
	v585.69c0,53.68,38.99,97.57,92.57,97.57h794.22c48.68,0,92.57-43.88,92.57-97.57V355.11C979.46,301.43,940.57,257.44,886.89,257.44
	L886.89,257.44z M886.89,808.94H97.57V223.26h268.01l102.37,112.26c9.7,14.6,29.19,19.5,43.88,19.5h380.06v453.94L886.89,808.94
	L886.89,808.94z"/>
<path class="st1" d="M954.61,833.92c-33.4,0-60.19,26.8-60.19,60.19c0,33.24,26.95,60.19,60.19,60.19l0,0
	c33.24,0,60.19-26.95,60.19-60.19l0,0C1014.8,860.72,987.71,833.92,954.61,833.92 M473.1,352.41v60.19h60.19l108.37,228.42
	l-40.98,73.74c-4.73,8.89-7.2,18.8-7.19,28.87c0,33.24,26.95,60.19,60.19,60.19l0,0h361.07v-60.19H666.3
	c-4.16,0-7.54-3.37-7.54-7.54c-0.05-1.26,0.28-2.52,0.94-3.6l27.09-49.06h224.18c22.56,0,42.46-12.61,52.71-30.98l107.68-194.72
	c2.23-4.71,3.47-9.82,3.65-15.02c0.03-16.6-13.4-30.07-30-30.1c-0.03,0-0.07,0-0.1,0H599.8l-28.27-60.19 M653.68,833.92
	c-33.45,0-60.19,26.8-60.19,60.19c0,33.24,26.95,60.19,60.19,60.19l0,0c33.24,0,60.19-26.95,60.19-60.19
	C713.88,860.72,686.79,833.92,653.68,833.92z"/>
</svg>
