<?xml version="1.0" encoding="utf-8"?>
<!-- Generator: Adobe Illustrator 24.1.1, SVG Export Plug-In . SVG Version: 6.00 Build 0)  -->
<svg version="1.1" id="Capa_1" xmlns="http://www.w3.org/2000/svg" xmlns:xlink="http://www.w3.org/1999/xlink" x="0px" y="0px"
	 viewBox="0 0 1080 1080" style="enable-background:new 0 0 1080 1080;" xml:space="preserve">
<style type="text/css">
	.st0{fill:#0097A7;}
	.st1{fill-rule:evenodd;clip-rule:evenodd;fill:#B2EBF2;}
</style>
<path class="st0" d="M885.6,275H520.8L418.5,162.9c-9.7-14.7-29.2-19.5-43.8-19.5H97.4C43.9,143.4,5,187.2,5,240.8v584.7
	c0,53.6,38.9,97.5,92.4,97.5h793c48.6,0,92.4-43.9,92.4-97.5V372.4C978,318.8,939.2,275,885.6,275z"/>
<path class="st1" d="M1053.6,431.5c-25.3-45.5-70.5-59.1-102.4-59.7c-39.2-0.8-71.4,20.9-65.3,35.2c1.3,3.1,8.6,19,13.2,25.6
	c6.5,9.5,18.2,2.2,22.3,0c12.2-6.5,25.3-8.6,40.1-6.9c14.2,1.6,33,10.4,45.6,34.6c29.7,57.1-62,174.6-176.8,93.2
	c-114.8-81.4-226.4-54.4-276.9-38c-50.5,16.4-73.8,32.9-53.8,71c27.1,51.8,18.1,35.9,44.5,78.8c41.8,68.1,133.3-31.4,133.3-31.4
	c-68.1,100.5-126.6,76.2-149,41.1C508,643.5,492.3,607,492.3,607c-172.6,60.9-125.9,329.7-125.9,329.7h85.7
	c21.9-99,100-95.3,113.4,0h65.4c57.9-193.2,204.5,0,204.5,0h85.3c-23.9-131.8,48-173.2,93.2-250.5
	C1059.2,608.8,1102.1,514.3,1053.6,431.5L1053.6,431.5z M833.6,686.1c-45.1-14.7-28.9-59.6-28.9-59.6s39.4,12.7,92.6,30.1
	C894.2,670.5,867.7,697.2,833.6,686.1L833.6,686.1z"/>
</svg>
