<?xml version="1.0" encoding="utf-8"?>
<!-- Generator: Adobe Illustrator 27.0.0, SVG Export Plug-In . SVG Version: 6.00 Build 0)  -->
<svg version="1.1" id="Capa_1" xmlns="http://www.w3.org/2000/svg" xmlns:xlink="http://www.w3.org/1999/xlink" x="0px" y="0px"
	 viewBox="0 0 1080 1080" style="enable-background:new 0 0 1080 1080;" xml:space="preserve">
<style type="text/css">
	.st0{fill:#EF5350;}
	.st1{fill-rule:evenodd;clip-rule:evenodd;fill:#FFCDD2;}
</style>
<path class="st0" d="M399.04,126.73H103.51C48.84,126.73,5,170.57,5,225.24v591.05c0,54.03,44.48,98.51,98.51,98.51h788.07
	c54.03,0,98.51-44.48,98.51-98.51V323.75c0-54.41-44.1-98.51-98.51-98.51H497.55L399.04,126.73z"/>
<path class="st1" d="M441.2,953.27h570.42v-63.38H441.2 M1011.61,541.31h-63.38v-95.07h63.38 M1011.61,382.86H504.59v316.89
	c0,70.01,56.75,126.76,126.76,126.76h190.14c70.01,0,126.76-56.75,126.76-126.76v-95.07h63.38c35,0,63.38-28.38,63.38-63.38
	c0,0,0,0,0,0v-95.07C1075,411.23,1046.62,382.86,1011.61,382.86L1011.61,382.86L1011.61,382.86z"/>
</svg>
