<?xml version="1.0" encoding="utf-8"?>
<!-- Generator: Adobe Illustrator 24.1.1, SVG Export Plug-In . SVG Version: 6.00 Build 0)  -->
<svg version="1.1" id="Capa_1" xmlns="http://www.w3.org/2000/svg" xmlns:xlink="http://www.w3.org/1999/xlink" x="0px" y="0px"
	 viewBox="0 0 1080 1080" style="enable-background:new 0 0 1080 1080;" xml:space="preserve">
<style type="text/css">
	.st0{fill:#616161;}
	.st1{fill-rule:evenodd;clip-rule:evenodd;fill:#F5F5F5;}
</style>
<path class="st0" d="M885.6,254.4H520.8L418.5,142.2c-9.7-14.7-29.2-19.5-43.8-19.5H97.4C43.9,122.7,5,166.6,5,220.2v584.7
	c0,53.6,38.9,97.5,92.4,97.5h793c48.6,0,92.4-43.9,92.4-97.5V351.8C978,298.2,939.2,254.4,885.6,254.4z"/>
<path class="st1" d="M1075,542.3V455c-126.9,15.8-235.8,23.7-326.9,23.8c-92.6,0.1-203.7-7.8-333.3-23.8v87.3
	c52.2,6.4,101.3,11.5,147.5,15.3l-8,77.5H410.9v50.8h138.2l-27.9,271.4l96.8-0.4l9.5-271h223.7l9.5,270.6h95.6l-27.1-270.6h141.8
	v-50.8H924.2l-7.6-76.4C965.9,554.8,1018.7,549.3,1075,542.3z M631.9,562.6c29.3,1.7,57.2,2.8,83.7,3.3v69.3h-86.3L631.9,562.6z
	 M849.5,635.1h-83.1V566c25.5-0.3,52.4-1.2,80.6-2.7L849.5,635.1z"/>
</svg>
