<?xml version="1.0" encoding="utf-8"?>
<!-- Generator: Adobe Illustrator 24.1.1, SVG Export Plug-In . SVG Version: 6.00 Build 0)  -->
<svg version="1.1" id="Capa_1" xmlns="http://www.w3.org/2000/svg" xmlns:xlink="http://www.w3.org/1999/xlink" x="0px" y="0px"
	 viewBox="0 0 1080 1080" style="enable-background:new 0 0 1080 1080;" xml:space="preserve">
<style type="text/css">
	.st0{fill:#FBC02D;}
	.st1{fill:#FFF9C4;}
</style>
<path class="st0" d="M885.6,261.2H520.7L418.5,149.2c-9.7-14.6-29.2-19.5-43.8-19.5H97.4C43.9,129.7,5,173.5,5,227.1v584.8
	c0,53.6,38.9,97.5,92.4,97.5h793c48.6,0,92.4-43.9,92.4-97.5V358.7C978,305.1,939.1,261.2,885.6,261.2z M885.6,811.9H97.4V227.1H365
	l102.2,112.1c9.7,14.6,29.2,19.5,43.8,19.5h379.5v453.2H885.6z"/>
<path class="st1" d="M489.3,388.8h62.9v62.9h-62.9v154.9c0,33.9-29,62.9-62.9,62.9c33.9,0,62.9,29,62.9,62.9l0,0v154.9h62.9v62.9
	h-62.9c-33.9-9.7-62.9-29-62.9-62.9v-121c0-33.9-29-62.9-62.9-62.9h-29v-62.9h29c33.9,0,62.9-29,62.9-62.9v-121
	C426.4,417.9,455.4,388.8,489.3,388.8 M920.1,388.8c33.9,0,62.9,29,62.9,62.9v121c0,33.9,29,62.9,62.9,62.9h29v62.9h-29
	c-33.9,0-62.9,29-62.9,62.9v121c0,33.9-29,62.9-62.9,62.9h-62.9v-62.9h62.9V727.7c0-33.9,29-62.9,62.9-62.9
	c-33.9,0-62.9-29-62.9-62.9V446.9h-62.9v-58.1H920.1 M707.1,756.7c19.4,0,29,14.5,29,29c0,14.5-14.5,29-29,29s-29-14.5-29-29
	C678.1,771.2,687.8,756.7,707.1,756.7 M581.3,756.7c19.4,0,29,14.5,29,29c0,14.5-14.5,29-29,29s-29-14.5-29-29
	C552.2,771.2,566.7,756.7,581.3,756.7 M828.1,756.7c19.4,0,29,14.5,29,29c0,14.5-14.5,29-29,29c-14.5,0-29-14.5-29-29
	C799.1,771.2,813.6,756.7,828.1,756.7z"/>
</svg>
