<?xml version="1.0" encoding="utf-8"?>
<!-- Generator: Adobe Illustrator 24.1.1, SVG Export Plug-In . SVG Version: 6.00 Build 0)  -->
<svg version="1.1" id="Capa_1" xmlns="http://www.w3.org/2000/svg" xmlns:xlink="http://www.w3.org/1999/xlink" x="0px" y="0px"
	 viewBox="0 0 1080 1080" style="enable-background:new 0 0 1080 1080;" xml:space="preserve">
<style type="text/css">
	.st0{fill:#0288D1;}
	
		.st1{fill-rule:evenodd;clip-rule:evenodd;fill:#B3E5FC;stroke:#B3E5FC;stroke-width:0.29;stroke-linejoin:round;stroke-miterlimit:1.4142;}
</style>
<path class="st0" d="M885.6,241.8H520.7L418.6,129.7c-9.7-14.7-29.2-19.5-43.8-19.5H97.4C43.9,110.2,5,154,5,207.6v584.8
	c0,53.6,38.9,97.5,92.4,97.5h793c48.7,0,92.4-43.9,92.4-97.5V339.2C978,285.6,939.2,241.8,885.6,241.8z"/>
<path class="st1" d="M812.5,412.1v98.4l131.2-131.2L812.5,248.1v98.4c-145,0-262.5,117.5-262.5,262.5v0c0,51.5,15.1,99.4,40.7,139.8
	l47.9-47.9c-14.8-27.2-23-59.1-23-91.9C615.7,500.2,703.8,412.1,812.5,412.1 M1034.3,469.2l-47.9,47.9c14.4,27.6,23,59.1,23,91.9
	c0,108.7-88.1,196.9-196.9,196.9l0-98.4L681.3,838.6l131.2,131.2l0-98.4c145,0,262.5-117.5,262.5-262.5
	C1075,557.4,1059.9,509.5,1034.3,469.2L1034.3,469.2z"/>
</svg>
