<?xml version="1.0" encoding="utf-8"?>
<!-- Generator: Adobe Illustrator 24.1.1, SVG Export Plug-In . SVG Version: 6.00 Build 0)  -->
<svg version="1.1" id="Capa_1" xmlns="http://www.w3.org/2000/svg" xmlns:xlink="http://www.w3.org/1999/xlink" x="0px" y="0px"
	 viewBox="0 0 1080 1080" style="enable-background:new 0 0 1080 1080;" xml:space="preserve">
<style type="text/css">
	.st0{fill:#F9A825;}
	.st1{fill-rule:evenodd;clip-rule:evenodd;fill:#FFF9C4;}
</style>
<path class="st0" d="M885.6,272.9H520.8L418.5,160.8c-9.7-14.7-29.2-19.5-43.8-19.5H97.4C43.9,141.3,5,185.2,5,238.8v584.7
	C5,877.1,43.9,921,97.4,921h793c48.6,0,92.4-43.9,92.4-97.5V370.3C978,316.7,939.2,272.9,885.6,272.9z"/>
<path class="st1" d="M842.4,793.4c32.1,0,58.1-26,58.1-58.1c0-32.3-26.2-58.1-58.1-58.1c-32.1,0-58.1,26-58.1,58.1
	S810.3,793.4,842.4,793.4 M1016.9,531.8c32.1,0,58.1,26,58.1,58.1v290.7c0,32.1-26,58.1-58.1,58.1H668c-32.1,0-58.1-26-58.1-58.1
	V589.9c0-32.3,26.2-58.1,58.1-58.1h29.1v-58.1c0-80.3,65.1-145.3,145.3-145.3s145.3,65.1,145.3,145.3v58.1H1016.9 M842.5,386.4
	c-48.2,0-87.2,39-87.2,87.2l0,0v58.1h174.4v-58.1C929.7,425.5,890.6,386.4,842.5,386.4L842.5,386.4L842.5,386.4z"/>
</svg>
