<?xml version="1.0" encoding="utf-8"?>
<!-- Generator: Adobe Illustrator 24.1.1, SVG Export Plug-In . SVG Version: 6.00 Build 0)  -->
<svg version="1.1" id="Capa_1" xmlns="http://www.w3.org/2000/svg" xmlns:xlink="http://www.w3.org/1999/xlink" x="0px" y="0px"
	 viewBox="0 0 1080 1080" style="enable-background:new 0 0 1080 1080;" xml:space="preserve">
<style type="text/css">
	.st0{fill:#757575;}
	.st1{fill-rule:evenodd;clip-rule:evenodd;fill:#FC6D26;}
	.st2{fill-rule:evenodd;clip-rule:evenodd;fill:#E24329;}
	.st3{fill-rule:evenodd;clip-rule:evenodd;fill:#FCA326;}
</style>
<path class="st0" d="M885.6,250.8H520.7L418.5,138.7c-9.7-14.6-29.2-19.5-43.8-19.5H97.4C43.9,119.2,5,163.1,5,216.7v584.8
	c0,53.6,38.9,97.5,92.4,97.5h793c48.6,0,92.4-43.9,92.4-97.5V348.3C978,294.7,939.1,250.8,885.6,250.8z M885.6,801.5H97.4V216.7H365
	l102.2,112.1c9.7,14.6,29.2,19.5,43.8,19.5h379.5v453.2H885.6z"/>
<g transform="matrix(.027417 0 0 .027417 7.689 5.6183)">
	<g id="logo-extra-whitespace">
		<g id="logo-no-bg" transform="translate(98,118)">
			<g id="gitlab_logo">
				<g transform="matrix(1 0 0 -1 0 457.33)">
					<g id="g18-Clipped">
						<g id="Group" transform="translate(.66666 .66666)">
							<g transform="translate(.532 .77493)">
								<path class="st1" d="M38781.3-24868.9l-1334.5,4100.1l-2639.9,8127.7c-135.4,415.8-725.3,415.8-865.5,0l-2639.9-8127.7
									h-8765.9l-2639.9,8127.7c-135.4,415.8-725.3,415.8-865.5,0l-2639.9-8127.7l-1334.5-4100.1
									c-120.9-372.3,9.7-783.3,328.8-1015.4L26921-34263.3l11531.5,8379.1C38766.8-25652.2,38902.2-25246,38781.3-24868.9"/>
							</g>
							<g transform="translate(156.2 1.1603)">
								<path class="st2" d="M26763.8-34264.4l4385.4,13494.6h-8770.7L26763.8-34264.4z"/>
							</g>
							<g transform="translate(28.531 1.1608)">
								<path class="st1" d="M26893-34264.4l-4385.4,13494.6h-6145.3L26893-34264.4z"/>
							</g>
							<g transform="translate(.088533 .25587)">
								<path class="st3" d="M16388.7-20769.2L15059-24869.3c-120.9-372.3,9.7-783.3,328.8-1015.4l11531.5-8379.1L16388.7-20769.2z"
									/>
							</g>
							<g transform="translate(29.422 280.26)">
								<path class="st2" d="M16360.9-21049h6145.3l-2639.9,8127.7c-135.4,415.8-725.3,415.8-865.5,0L16360.9-21049z"/>
							</g>
							<g transform="translate(247.2 1.1608)">
								<path class="st1" d="M26672.8-34264.4l4385.4,13494.6h6145.3L26672.8-34264.4z"/>
							</g>
							<g transform="translate(246.31 .25587)">
								<path class="st3" d="M37204.9-20769.2l1334.5-4100.1c120.9-372.3-9.7-783.3-328.8-1015.4l-11536.4-8379.1L37204.9-20769.2z"
									/>
							</g>
							<g transform="translate(336.97 280.26)">
								<path class="st2" d="M37112.3-21049h-6145.3l2639.9,8127.7c135.4,415.8,725.3,415.8,865.5,0L37112.3-21049z"/>
							</g>
						</g>
					</g>
				</g>
			</g>
		</g>
	</g>
</g>
</svg>
