<?xml version="1.0" encoding="utf-8"?>
<!-- Generator: Adobe Illustrator 24.1.1, SVG Export Plug-In . SVG Version: 6.00 Build 0)  -->
<svg version="1.1" id="Capa_1" xmlns="http://www.w3.org/2000/svg" xmlns:xlink="http://www.w3.org/1999/xlink" x="0px" y="0px"
	 viewBox="0 0 1080 1080" style="enable-background:new 0 0 1080 1080;" xml:space="preserve">
<style type="text/css">
	.st0{fill:#F06292;}
	.st1{fill:#FCE4EC;stroke:#FCE4EC;stroke-width:2.024455e-02;stroke-linejoin:round;stroke-miterlimit:10;}
</style>
<path class="st0" d="M880.7,247.2H515.8L413.7,135.1c-9.7-14.6-29.2-19.5-43.8-19.5H92.6C43.9,115.7,5,159.5,5,213.1v584.8
	c0,53.6,38.9,97.5,92.4,97.5h793c48.6,0,92.4-43.9,92.4-97.5V344.7C973.1,291.1,939.1,247.2,880.7,247.2z M880.7,797.9h-793V213.1
	h267.6l102.2,112.1c9.7,14.6,29.2,19.5,43.8,19.5h379.5V797.9z"/>
<g transform="matrix(.040368 0 0 .040368 5.3436 -1.2032)">
	<path class="st1" d="M26417,10113.7c-470.8-1847.8-3533.7-2455.4-6434.5-1422.6c-1726.3,612.6-3594.4,1574.5-4936,2830
		c-1594.7,1493.5-1852.9,2794.5-1746.6,3336.2c369.6,1918.7,2997,3169.2,4075.4,4100.7v5.1
		c-318.9,156.9-2647.7,1336.5-3194.5,2541.4c-577.1,1270.7,91.1,2182,531.6,2308.5c1366.9,379.7,2769.2-303.8,3523.6-1427.6
		c729-1088.5,668.3-2485.7,349.3-3184.4c435.4-116.4,946.7-167.1,1589.7-91.1c1822.5,212.6,2182,1351.7,2116.2,1827.6
		s-450.6,739.1-577.1,820.1s-167.1,106.3-156.9,167.1c15.2,86.1,75.9,81,182.3,65.8c151.9-25.3,956.8-389.8,992.3-1265.6
		c45.6-1118.8-1027.7-2369.3-2921.1-2333.9c-779.6,15.2-1270.7,86.1-1625.1,217.7c-25.3-30.4-50.6-60.8-81-91.1
		c-1169.5-1250.5-3336.2-2136.4-3245.1-3817.2c35.4-612.6,248.1-2222.5,4161.4-4171.6c3209.7-1599.8,5776.4-1159.3,6221.9-182.3
		c632.8,1392.2-1372,3984.3-4708.2,4353.8c-1270.7,141.8-1939-349.3-2106-531.6c-177.2-192.4-202.5-202.5-268.3-167.1
		c-106.3,60.8-40.5,227.8,0,329.1c101.3,258.2,506.3,718.9,1204.9,946.7c612.6,202.5,2101,308.8,3908.3-384.8
		C25303.2,14103,26877.7,11931.2,26417,10113.7z M17825.8,19530.1c151.9,561.9,136.7,1083.4-20.3,1554.2
		c-15.2,50.6-35.4,106.3-55.7,156.9c-20.3,50.6-45.6,101.3-65.8,151.9c-121.5,248.1-283.5,486-480.9,698.6
		c-602.4,658.1-1447.9,911.3-1812.4,698.6c-389.8-227.8-197.4-1154.3,506.3-1898.5c754.3-794.8,1837.7-1311.2,1837.7-1311.2v-5.1
		C17759.9,19565.6,17795.4,19545.3,17825.8,19530.1z"/>
</g>
</svg>
