<?xml version="1.0" encoding="utf-8"?>
<!-- Generator: Adobe Illustrator 24.1.1, SVG Export Plug-In . SVG Version: 6.00 Build 0)  -->
<svg version="1.1" id="Capa_1" xmlns="http://www.w3.org/2000/svg" xmlns:xlink="http://www.w3.org/1999/xlink" x="0px" y="0px"
	 viewBox="0 0 1080 1080" style="enable-background:new 0 0 1080 1080;" xml:space="preserve">
<style type="text/css">
	.st0{fill:#546E7A;}
	.st1{fill:#CFD8DC;}
</style>
<path class="st0" d="M885.6,261H520.8L418.5,148.9c-9.7-14.7-29.2-19.5-43.8-19.5H97.4C43.9,129.4,5,173.2,5,226.8v584.7
	c0,53.6,38.9,97.5,92.4,97.5h793c48.6,0,92.4-43.9,92.4-97.5V358.4C978,304.8,939.2,261,885.6,261z"/>
<g transform="matrix(.62922 0 0 .62922 9.657 7.657)">
	<path class="st1" d="M1298.7,1400c54.1,0,98.6-44.5,98.6-98.6v-641h-345.1c-27.1,0-49.3,22.2-49.3,49.3v493.1H854.9V660.4
		c0-81.2,66.8-147.9,147.9-147.9h542.4c81.2,0,147.9,66.8,147.9,147.9v49.3h-197.2v641c0,81.2-66.8,147.9-147.9,147.9H854.9
		c-81.2,0-147.9-66.8-147.9-147.9v-49.3H1200C1200,1355.5,1244.6,1400,1298.7,1400z"/>
</g>
</svg>
