<?xml version="1.0" encoding="utf-8"?>
<!-- Generator: Adobe Illustrator 24.1.1, SVG Export Plug-In . SVG Version: 6.00 Build 0)  -->
<svg version="1.1" id="Capa_1" xmlns="http://www.w3.org/2000/svg" xmlns:xlink="http://www.w3.org/1999/xlink" x="0px" y="0px"
	 viewBox="0 0 1080 1080" style="enable-background:new 0 0 1080 1080;" xml:space="preserve">
<style type="text/css">
	.st0{fill:#8BC34A;}
	.st1{fill:#DCEDC8;}
</style>
<path class="st0" d="M885.6,221.4H520.7L418.5,109.3c-9.7-14.6-29.2-19.5-43.8-19.5H97.4C43.9,89.8,5,133.6,5,187.2V772
	c0,53.6,38.9,97.5,92.4,97.5h793c48.6,0,92.4-43.9,92.4-97.5V318.8C978,265.2,939.1,221.4,885.6,221.4z M885.6,772H97.4V187.2H365
	l102.2,112.1c9.7,14.6,29.2,19.5,43.8,19.5h379.5V772H885.6z"/>
<path class="st1" d="M870.8,435.9h-29.2v-29.2h29.2 M724.9,435.9h-29.2v-29.2h29.2 M885.4,353.2l38.9-38.9c4.9-4.9,4.9-14.6,0-19.5
	c-4.9-4.9-14.6-4.9-19.5,0L861,338.6c-24.3-9.7-48.6-19.5-77.8-19.5s-53.5,4.9-77.8,19.5l-43.8-43.8c-4.9-4.9-14.6-4.9-19.5,0
	s-4.9,14.6,0,19.5l38.9,38.9c-43.8,34-72.9,82.7-72.9,141h350.1C958.3,435.9,929.1,387.2,885.4,353.2 M1031.2,523.4
	c-24.3,0-43.8,19.5-43.8,43.8v204.2c0,24.3,19.5,43.8,43.8,43.8s43.8-19.5,43.8-43.8V567.2C1075,542.8,1055.5,523.4,1031.2,523.4
	 M535.2,523.4c-24.3,0-43.8,19.5-43.8,43.8v204.2c0,24.3,19.5,43.8,43.8,43.8c24.3,0,43.8-19.5,43.8-43.8V567.2
	C579,542.8,559.5,523.4,535.2,523.4 M608.2,815.2c0,14.6,14.6,29.2,29.2,29.2l0,0h29.2v102.1c0,24.3,19.5,43.8,43.8,43.8
	c24.3,0,43.8-19.5,43.8-43.8V844.3h58.4v102.1c0,24.3,19.5,43.8,43.8,43.8c24.3,0,43.8-19.5,43.8-43.8V844.3h29.2
	c14.6,0,29.2-14.6,29.2-29.2l0,0V523.4H608.2L608.2,815.2z"/>
</svg>
