<?xml version="1.0" encoding="utf-8"?>
<!-- Generator: Adobe Illustrator 27.0.0, SVG Export Plug-In . SVG Version: 6.00 Build 0)  -->
<svg version="1.1" id="Capa_1" xmlns="http://www.w3.org/2000/svg" xmlns:xlink="http://www.w3.org/1999/xlink" x="0px" y="0px"
	 viewBox="0 0 1080 1080" style="enable-background:new 0 0 1080 1080;" xml:space="preserve">
<style type="text/css">
	.st0{fill:#FF4081;}
	.st1{fill:#FFCDD2;}
</style>
<path class="st0" d="M433,87.39H112c-59.09,0-107,47.91-107,107v642c0,58.85,48.15,107,107,107h856c58.85,0,107-48.15,107-107v-535
	c0-59.09-47.91-107-107-107H540L433,87.39z"/>
<path class="st1" d="M855.65,540.54c0,20.33,138.57,10.7,157.29-3.74c0-140.17-75.43-214-213.46-214
	c-137.49,0-214.54,74.9-214.54,187.25c0,195.28,263.76,199.02,263.76,305.48c0,29.96-14.98,48.15-47.08,48.15
	c-42.27,0-58.85-21.4-56.71-94.7c0-16.05-160.5-20.86-165.32,0c-12.3,176.55,97.9,227.91,224.17,227.91
	c121.44,0,217.74-65.27,217.74-182.97C1021.5,604.2,754,610.09,754,506.3c0-42.27,31.03-48.15,49.76-48.15
	c19.26,0,54.57,3.74,51.36,82.39H855.65z M192.25,213.12l5.35-130.01h101.65l4.28,125.72c0,4.43-3.59,8.03-8.02,8.02
	c-1.74,0-3.43-0.56-4.82-1.6l-39.05-31.03l-46.54,35.31c-3.55,2.66-8.58,1.94-11.24-1.61C192.81,216.54,192.25,214.85,192.25,213.12
	z"/>
</svg>
