<?xml version="1.0" encoding="utf-8"?>
<!-- Generator: Adobe Illustrator 24.1.1, SVG Export Plug-In . SVG Version: 6.00 Build 0)  -->
<svg version="1.1" id="Capa_1" xmlns="http://www.w3.org/2000/svg" xmlns:xlink="http://www.w3.org/1999/xlink" x="0px" y="0px"
	 viewBox="0 0 1080 1080" style="enable-background:new 0 0 1080 1080;" xml:space="preserve">
<style type="text/css">
	.st0{fill:#FBC02D;}
	.st1{fill:#FFF9C4;}
</style>
<path class="st0" d="M885.6,214.1H520.7L418.5,102c-9.7-14.6-29.2-19.5-43.8-19.5H97.4C43.9,82.5,5,126.4,5,180v584.8
	c0,53.6,38.9,97.5,92.4,97.5h793c48.6,0,92.4-43.9,92.4-97.5V311.5C978,257.9,939.1,214.1,885.6,214.1z M885.6,764.8H97.4V180H365
	l102.2,112.1c9.7,14.6,29.2,19.5,43.8,19.5h379.5v453.2H885.6z"/>
<path class="st1" d="M1075,869.9v34.4H495.9v-34.4l63.8-63.8V614.7c0-98.2,63.8-186.5,162-215.9v-9.8c0-34.4,29.4-63.8,63.8-63.8
	l0,0c34.4,0,63.8,29.4,63.8,63.8l0,0v9.8c93.2,29.4,162,117.8,162,215.9v191.4L1075,869.9 M849.2,933.7c0,34.4-29.4,63.8-63.8,63.8
	l0,0c-34.4,0-63.8-29.4-63.8-63.8l0,0"/>
</svg>
