<?xml version="1.0" encoding="utf-8"?>
<!-- Generator: Adobe Illustrator 24.1.1, SVG Export Plug-In . SVG Version: 6.00 Build 0)  -->
<svg version="1.1" id="Capa_1" xmlns="http://www.w3.org/2000/svg" xmlns:xlink="http://www.w3.org/1999/xlink" x="0px" y="0px"
	 viewBox="0 0 1080 1080" style="enable-background:new 0 0 1080 1080;" xml:space="preserve">
<style type="text/css">
	.st0{fill:#FF7043;}
	.st1{fill-rule:evenodd;clip-rule:evenodd;fill:#FFCCBC;}
</style>
<path class="st0" d="M885.6,239.6H520.8L418.5,127.4c-9.7-14.7-29.2-19.5-43.8-19.5H97.4C43.9,107.9,5,151.8,5,205.4v584.7
	c0,53.6,38.9,97.5,92.4,97.5h793c48.6,0,92.4-43.9,92.4-97.5V337C978,283.4,939.2,239.6,885.6,239.6z"/>
<g transform="matrix(.65434 0 0 .65434 3.2169 2.9566)">
	<path class="st1" d="M808.1,1377.6L725,445.7h913l-83.2,931.8l-373.8,103.6C1180.9,1481.1,808.1,1377.6,808.1,1377.6z
		 M1144.5,1136.5L848.7,958.7v-64.4l295.8-177.9v99.7L955.8,926.4l188.7,110.4C1144.5,1036.8,1144.5,1136.5,1144.5,1136.5z
		 M1218.5,1136.4v-99.6l190.1-110.3l-190.1-110.3v-99.7l295.8,177.1v65.9C1514.3,959.3,1218.5,1136.4,1218.5,1136.4z"/>
</g>
</svg>
