<?xml version="1.0" encoding="utf-8"?>
<!-- Generator: Adobe Illustrator 24.1.1, SVG Export Plug-In . SVG Version: 6.00 Build 0)  -->
<svg version="1.1" id="Capa_1" xmlns="http://www.w3.org/2000/svg" xmlns:xlink="http://www.w3.org/1999/xlink" x="0px" y="0px"
	 viewBox="0 0 1080 1080" style="enable-background:new 0 0 1080 1080;" xml:space="preserve">
<style type="text/css">
	.st0{fill:#039BE5;}
	.st1{fill-rule:evenodd;clip-rule:evenodd;fill:#B3E5FC;}
</style>
<path class="st0" d="M885.6,266.7H520.7L418.6,154.5c-9.7-14.7-29.2-19.5-43.8-19.5H97.4C43.9,135,5,178.9,5,232.5v584.8
	c0,53.6,38.9,97.5,92.4,97.5h793c48.7,0,92.4-43.9,92.4-97.5V364.1C978,310.5,939.2,266.7,885.6,266.7z"/>
<path class="st1" d="M1013.4,852.6H890.2V636.9h123.2 M1044.2,575.3H859.4c-17,0-30.8,13.8-30.8,30.8v308c0,17,13.8,30.8,30.8,30.8
	h184.8c17,0,30.8-13.8,30.8-30.8v-308C1075,589.1,1061.2,575.3,1044.2,575.3 M458.9,513.7h554.4v-61.6H458.9
	c-34,0-61.6,27.6-61.6,61.6v338.8h-61.6V945H767v-92.4h-308L458.9,513.7z"/>
</svg>
