<?xml version="1.0" encoding="utf-8"?>
<!-- Generator: Adobe Illustrator 24.1.1, SVG Export Plug-In . SVG Version: 6.00 Build 0)  -->
<svg version="1.1" id="Capa_1" xmlns="http://www.w3.org/2000/svg" xmlns:xlink="http://www.w3.org/1999/xlink" x="0px" y="0px"
	 viewBox="0 0 1080 1080" style="enable-background:new 0 0 1080 1080;" xml:space="preserve">
<style type="text/css">
	.st0{fill:#C0CA33;}
	.st1{fill-rule:evenodd;clip-rule:evenodd;fill:#F0F4C3;}
</style>
<path class="st0" d="M885.6,249.3H520.8L418.5,137.2c-9.7-14.7-29.2-19.5-43.8-19.5H97.4C43.9,117.7,5,161.6,5,215.2v584.7
	c0,53.6,38.9,97.5,92.4,97.5h793c48.6,0,92.4-43.9,92.4-97.5V346.7C978,293.1,939.2,249.3,885.6,249.3z"/>
<path class="st1" d="M772.2,473.2c55.7,0,100.9-45.2,100.9-100.9c0,0,0,0,0,0c0-55.7-45.2-100.9-100.9-100.9l0,0
	c-55.7,0-100.9,45.2-100.9,100.9l0,0C671.3,428,716.5,473.2,772.2,473.2L772.2,473.2 M772.2,592.3c-79.4-73.7-185-119.1-302.8-119.1
	v370c117.7,0,223.4,45.4,302.8,119.1c79.4-73.7,185-119.1,302.8-119.1v-370C957.3,473.2,851.6,518.6,772.2,592.3z"/>
</svg>
