<?xml version="1.0" encoding="utf-8"?>
<!-- Generator: Adobe Illustrator 24.1.1, SVG Export Plug-In . SVG Version: 6.00 Build 0)  -->
<svg version="1.1" id="Capa_1" xmlns="http://www.w3.org/2000/svg" xmlns:xlink="http://www.w3.org/1999/xlink" x="0px" y="0px"
	 viewBox="0 0 1080 1080" style="enable-background:new 0 0 1080 1080;" xml:space="preserve">
<style type="text/css">
	.st0{fill:#546E7A;}
	.st1{fill-rule:evenodd;clip-rule:evenodd;fill:#FAFAFA;}
</style>
<path class="st0" d="M885.6,267.1H520.7L418.6,155c-9.7-14.7-29.2-19.5-43.8-19.5H97.4C43.9,135.5,5,179.4,5,233v584.8
	c0,53.6,38.9,97.5,92.4,97.5h793c48.7,0,92.4-43.9,92.4-97.5V364.5C978,310.9,939.2,267.1,885.6,267.1z"/>
<g transform="matrix(.049538 0 0 .049538 9.9949 7.3777)">
	<circle class="st1" cx="15368.3" cy="12693.6" r="1481.9"/>
	<path class="st1" d="M15275.2,6469.9c-2899.7,0-5336.1,1983.8-6027.5,4667.8c-6,23.6-10.5,48.4-10.5,74
		c0,163.6,132.7,296.4,296.4,296.4h2509.3c119.6,0,221.7-71,268.5-173.2c0,0,3.8-7.1,5-10.5
		c517.3-1116.3,1647.2-1890.9,2958.2-1890.9c1800.4,0,3260,1459.4,3260,3260s-1459.2,3260-3259.6,3260
		c-1311.1,0-2440.7-774.8-2958.2-1890.9c-1.4-3.6-5-10.5-5-10.5c-47.9-105.3-152.8-173-268.5-173.2H9533.6
		c-163.8,0-296.4,132.7-296.4,296.4c0,25.6,4.3,50.4,10.5,74c691.3,2684.1,3127.6,4667.8,6027.5,4667.8
		c3437.2,0,6223.6-2786.6,6223.6-6223.6c0-3437.1-2786.4-6223.6-6223.6-6223.6V6469.9z"/>
</g>
</svg>
