<?xml version="1.0" encoding="utf-8"?>
<!-- Generator: Adobe Illustrator 24.1.1, SVG Export Plug-In . SVG Version: 6.00 Build 0)  -->
<svg version="1.1" id="Capa_1" xmlns="http://www.w3.org/2000/svg" xmlns:xlink="http://www.w3.org/1999/xlink" x="0px" y="0px"
	 viewBox="0 0 1080 1080" style="enable-background:new 0 0 1080 1080;" xml:space="preserve">
<style type="text/css">
	.st0{fill:#FF5722;}
	.st1{fill:#FFCCBC;}
</style>
<path class="st0" d="M880.7,261.8H515.8L413.7,149.7c-9.7-14.6-29.2-19.5-43.8-19.5H92.6C43.9,130.2,5,174.1,5,227.7v584.8
	c0,53.6,38.9,97.5,92.4,97.5h793c48.6,0,92.4-43.9,92.4-97.5V359.3C973.1,305.7,939.1,261.8,880.7,261.8z M880.7,812.5h-793V227.7
	h267.6l102.2,112.1c9.7,14.6,29.2,19.5,43.8,19.5h379.5V812.5z"/>
<path class="st1" d="M522.7,373.6c-39.1,0-73.2,34.2-73.2,73.2s34.2,73.2,73.2,73.2h288.1c39.1,0,73.2-34.2,73.2-73.2
	s-34.2-73.2-73.2-73.2H522.7z M996.4,373.6c-39.1,0-73.2,34.2-73.2,73.2s34.2,73.2,73.2,73.2l0,0c39.1,0,73.2-34.2,73.2-73.2
	S1040.4,373.6,996.4,373.6z M522.7,588.4c-39.1,0-73.2,34.2-73.2,73.2s34.2,73.2,73.2,73.2s73.2-34.2,73.2-73.2
	C596,622.6,561.8,588.4,522.7,588.4z M703.4,593.3c-39.1,4.9-73.2,39.1-68.4,78.1c4.9,39.1,39.1,73.2,78.1,68.4h293
	c39.1-4.9,73.2-39.1,68.4-78.1c-4.9-39.1-39.1-73.2-78.1-68.4H708.3H703.4z M522.7,803.3c-39.1,0-73.2,34.2-73.2,73.2
	s34.2,73.2,73.2,73.2h288.1c39.1,0,73.2-34.2,73.2-73.2s-34.2-73.2-73.2-73.2H522.7z M996.4,803.3c-39.1,0-73.2,34.2-73.2,73.2
	s34.2,73.2,73.2,73.2l0,0c39.1,0,73.2-34.2,73.2-73.2C1069.7,832.6,1040.4,803.3,996.4,803.3z"/>
</svg>
