<?xml version="1.0" encoding="utf-8"?>
<!-- Generator: Adobe Illustrator 24.1.1, SVG Export Plug-In . SVG Version: 6.00 Build 0)  -->
<svg version="1.1" id="Capa_1" xmlns="http://www.w3.org/2000/svg" xmlns:xlink="http://www.w3.org/1999/xlink" x="0px" y="0px"
	 viewBox="0 0 1080 1080" style="enable-background:new 0 0 1080 1080;" xml:space="preserve">
<style type="text/css">
	.st0{fill:#1E88E5;}
	.st1{fill-rule:evenodd;clip-rule:evenodd;fill:#BBDEFB;}
</style>
<path class="st0" d="M885.6,259.1H520.8L418.5,147c-9.7-14.7-29.2-19.5-43.8-19.5H97.4C43.9,127.4,5,171.3,5,224.9v584.7
	c0,53.6,38.9,97.5,92.4,97.5h793c48.6,0,92.4-43.9,92.4-97.5V356.5C978,302.9,939.2,259.1,885.6,259.1z"/>
<path class="st1" d="M952.1,636.4c-29.1,0-52.7-23.6-52.7-52.7c0-29.1,23.6-52.7,52.7-52.7l0,0c29.1,0,52.7,23.6,52.7,52.7v0
	C1004.7,612.9,981.2,636.4,952.1,636.4L952.1,636.4 M846.7,495.9c-29.1,0-52.7-23.6-52.7-52.7v0c0-29.1,23.6-52.7,52.7-52.7l0,0
	c29.1,0,52.7,23.6,52.7,52.7v0C899.4,472.4,875.8,495.9,846.7,495.9L846.7,495.9 M671.1,495.9c-29.1,0-52.7-23.6-52.7-52.7
	s23.6-52.7,52.7-52.7h0c29.1,0,52.7,23.6,52.7,52.7v0C723.7,472.4,700.2,495.9,671.1,495.9L671.1,495.9 M565.7,636.4
	c-29.1,0-52.7-23.6-52.7-52.7c0-29.1,23.6-52.7,52.7-52.7h0c29.1,0,52.7,23.6,52.7,52.7v0C618.4,612.9,594.8,636.4,565.7,636.4
	L565.7,636.4 M758.9,320.3c-174.6,0-316.1,141.5-316.1,316.1c0,0,0,0,0,0c0,174.6,141.5,316.1,316.1,316.1l0,0
	c29.1,0,52.7-23.6,52.7-52.7l0,0c0-13.7-5.3-26-13.7-35.1c-8.1-9.5-13.3-21.8-13.3-35.1c0-29.1,23.6-52.7,52.7-52.7l0,0h62.2
	c97,0,175.6-78.6,175.6-175.6l0,0C1075,446.1,933.4,320.3,758.9,320.3L758.9,320.3z"/>
</svg>
