<?xml version="1.0" encoding="utf-8"?>
<!-- Generator: Adobe Illustrator 27.0.0, SVG Export Plug-In . SVG Version: 6.00 Build 0)  -->
<svg version="1.1" id="Capa_1" xmlns="http://www.w3.org/2000/svg" xmlns:xlink="http://www.w3.org/1999/xlink" x="0px" y="0px"
	 viewBox="0 0 1080 1080" style="enable-background:new 0 0 1080 1080;" xml:space="preserve">
<style type="text/css">
	.st0{fill:#00897B;}
	.st1{fill:#B2DFDB;}
	.st2{fill:#FFCDD2;}
</style>
<path class="st0" d="M399.12,127.61H103.53C48.85,127.61,5,171.45,5,226.14v591.18c0,54.04,44.49,98.53,98.53,98.53h788.24
	c54.04,0,98.53-44.49,98.53-98.53V324.67c0-54.42-44.11-98.53-98.53-98.53H497.65L399.12,127.61z"/>
<g transform="translate(2.03e-4,-1.7e-5)">
	<path class="st1" d="M855.22,403.76v0.48h192.83v-0.48H855.22z M440.61,405.21l273.65,547.19h89.39l170.98-341.97H821.74
		l-62.73,125.57l-165.5-330.8L440.61,405.21z M927.97,542.32l78.52,0.38l0.19-0.38H927.97z"/>
	<path class="st2" d="M855.22,403.74v31.66h61l-10.01,20.01h-99.87v31.56h83.81l-11.93,23.77h-119.6v31.56h248.06L1075,404.22
		h-26.94v-0.48L855.22,403.74z"/>
</g>
</svg>
