<?xml version="1.0" encoding="utf-8"?>
<!-- Generator: Adobe Illustrator 24.1.1, SVG Export Plug-In . SVG Version: 6.00 Build 0)  -->
<svg version="1.1" id="Capa_1" xmlns="http://www.w3.org/2000/svg" xmlns:xlink="http://www.w3.org/1999/xlink" x="0px" y="0px"
	 viewBox="0 0 1080 1080" style="enable-background:new 0 0 1080 1080;" xml:space="preserve">
<style type="text/css">
	.st0{fill:#546E7A;}
	.st1{fill-rule:evenodd;clip-rule:evenodd;fill:#FBC02D;fill-opacity:0.976;}
</style>
<path class="st0" d="M885.6,270.5H520.8L418.5,158.3c-9.7-14.7-29.2-19.5-43.8-19.5H97.4C43.9,138.8,5,182.7,5,236.3V821
	c0,53.6,38.9,97.5,92.4,97.5h793c48.6,0,92.4-43.9,92.4-97.5V367.9C978,314.3,939.2,270.5,885.6,270.5z"/>
<path class="st1" d="M532.2,375.5l188.5,188.5H570.4l148.8,148.9H531.5L759,940.4V457.2h113.6l49.7,49.6H811.8v186.3h53.6l59.6,59.6
	H808.6l0.8,0.8v187.8H1075l-95.4-95.4v-38.4l20.6,20.6V639.6h-38.1v-92.9l73.2,73.2V431.3H877.4l-55.8-55.8H714.7H532.2z"/>
</svg>
