<?xml version="1.0" encoding="utf-8"?>
<!-- Generator: Adobe Illustrator 24.1.1, SVG Export Plug-In . SVG Version: 6.00 Build 0)  -->
<svg version="1.1" id="Capa_1" xmlns="http://www.w3.org/2000/svg" xmlns:xlink="http://www.w3.org/1999/xlink" x="0px" y="0px"
	 viewBox="0 0 1080 1080" style="enable-background:new 0 0 1080 1080;" xml:space="preserve">
<style type="text/css">
	.st0{fill:#1E88E5;}
	.st1{fill:#BBDEFB;}
</style>
<path class="st0" d="M885.6,262H520.7L418.5,149.9c-9.7-14.6-29.2-19.5-43.8-19.5H97.4C43.9,130.4,5,174.3,5,227.9v584.8
	c0,53.6,38.9,97.5,92.4,97.5h793c48.6,0,92.4-43.9,92.4-97.5V359.5C978,305.9,939.1,262,885.6,262z M885.6,812.7H97.4V227.9H365
	L467.2,340c9.7,14.6,29.2,19.5,43.8,19.5h379.5v453.2H885.6z"/>
<path class="st1" d="M731.6,799c-54.7,0-104.5-44.8-104.5-104.5l0,0c0-39.8,19.9-74.7,49.8-89.6l333.5-194.1L821.2,739.3
	C806.2,779.1,771.4,799,731.6,799 M731.6,351.1c64.7,0,119.4,14.9,169.2,44.8l-74.7,39.8c-29.9-10-64.7-19.9-99.5-19.9
	c-154.3,0-273.7,124.4-273.7,273.7l0,0c0,74.7,29.9,144.3,79.6,194.1l0,0c14.9,14.9,14.9,34.8,0,49.8s-34.8,14.9-49.8,0
	c-64.7-64.7-99.5-149.3-99.5-243.9C383.2,505.4,537.5,351.1,731.6,351.1 M1075,694.5c0,94.6-39.8,179.2-99.5,243.9
	c-14.9,14.9-34.8,14.9-49.8,0s-14.9-34.8,0-49.8c49.8-49.8,79.6-119.4,79.6-194.1c0-34.8-5-69.7-19.9-99.5l39.8-74.7
	C1060.1,575,1075,634.8,1075,694.5L1075,694.5z"/>
</svg>
