<?xml version="1.0" encoding="utf-8"?>
<!-- Generator: Adobe Illustrator 24.1.1, SVG Export Plug-In . SVG Version: 6.00 Build 0)  -->
<svg version="1.1" id="Capa_1" xmlns="http://www.w3.org/2000/svg" xmlns:xlink="http://www.w3.org/1999/xlink" x="0px" y="0px"
	 viewBox="0 0 1080 1080" style="enable-background:new 0 0 1080 1080;" xml:space="preserve">
<style type="text/css">
	.st0{fill:#039BE5;}
	.st1{fill-rule:evenodd;clip-rule:evenodd;fill:#B3E5FC;}
</style>
<path class="st0" d="M885.6,264.8H520.8L418.5,152.7c-9.7-14.7-29.2-19.5-43.8-19.5H97.4C43.9,133.1,5,177,5,230.6v584.7
	c0,53.6,38.9,97.5,92.4,97.5h793c48.6,0,92.4-43.9,92.4-97.5V362.2C978,308.6,939.2,264.8,885.6,264.8z"/>
<path class="st1" d="M927.3,680.9H809.1v118.2H750V680.9H631.8v-59.1H750V503.7h59.1v118.2h118.2 M779.5,355.9
	c-163.2,0-295.5,132.3-295.5,295.5s132.3,295.5,295.5,295.5S1075,814.6,1075,651.4S942.7,355.9,779.5,355.9z"/>
</svg>
