<?xml version="1.0" encoding="utf-8"?>
<!-- Generator: Adobe Illustrator 24.1.1, SVG Export Plug-In . SVG Version: 6.00 Build 0)  -->
<svg version="1.1" id="Capa_1" xmlns="http://www.w3.org/2000/svg" xmlns:xlink="http://www.w3.org/1999/xlink" x="0px" y="0px"
	 viewBox="0 0 1080 1080" style="enable-background:new 0 0 1080 1080;" xml:space="preserve">
<style type="text/css">
	.st0{fill:#0288D1;}
	.st1{fill-rule:evenodd;clip-rule:evenodd;fill:#B3E5FC;}
</style>
<path class="st0" d="M885.6,273.7H520.8L418.5,161.5c-9.7-14.7-29.2-19.5-43.8-19.5H97.4C43.9,142,5,185.9,5,239.5v584.7
	c0,53.6,38.9,97.5,92.4,97.5h793c48.6,0,92.4-43.9,92.4-97.5V371.1C978,317.5,939.2,273.7,885.6,273.7z"/>
<path class="st1" d="M775.4,455.4c-34.4-3.1-64.7,22.2-67.9,56.9l-7.8,90.4h88.2v62.6h-93.8l-13.8,158.6
	c-6.3,68.8-66.9,119.8-135.7,113.5c-39.1-3.4-74.4-25-95.1-58.5l46.9-46.9c10.3,32.8,45.7,51.3,78.2,40.7
	c24.4-7.5,41.6-29.1,43.8-54.4l13.1-152.9h-93.8v-62.6h99.5l8.4-96c5.9-68.8,66.3-119.8,135.4-114.2c39.4,3.4,75.1,25.3,95.7,59.1
	l-46.9,46.9C822,474.5,800.7,457.6,775.4,455.4 M1075,716.8l-44.1-44.1l-88.5,88.5l-88.5-88.5l-44.7,44.1l89.1,89.1l-89.1,87.9
	l44.7,44.1l88.5-88.5l88.5,88.5l44.1-44.1L986.5,806L1075,716.8z"/>
</svg>
