<?xml version="1.0" encoding="utf-8"?>
<!-- Generator: Adobe Illustrator 24.1.1, SVG Export Plug-In . SVG Version: 6.00 Build 0)  -->
<svg version="1.1" id="Capa_1" xmlns="http://www.w3.org/2000/svg" xmlns:xlink="http://www.w3.org/1999/xlink" x="0px" y="0px"
	 viewBox="0 0 1080 1080" style="enable-background:new 0 0 1080 1080;" xml:space="preserve">
<style type="text/css">
	.st0{fill:#546E7A;}
	.st1{fill-rule:evenodd;clip-rule:evenodd;fill:url(#XMLID_2_);}
	.st2{fill-rule:evenodd;clip-rule:evenodd;fill:url(#XMLID_3_);}
	.st3{fill-rule:evenodd;clip-rule:evenodd;fill:url(#XMLID_4_);}
	.st4{fill-rule:evenodd;clip-rule:evenodd;fill:url(#XMLID_5_);}
</style>
<path class="st0" d="M885.6,237.3H520.8L418.5,125.1c-9.7-14.7-29.2-19.5-43.8-19.5H97.4C43.9,105.6,5,149.5,5,203.1v584.7
	c0,53.6,38.9,97.5,92.4,97.5h793c48.6,0,92.4-43.9,92.4-97.5V334.6C978,281.1,939.2,237.3,885.6,237.3z"/>
<g transform="translate(-50.14 -52.845)">
	<g transform="matrix(.11021 0 0 .11021 60.266 61.821)">
		
			<linearGradient id="XMLID_2_" gradientUnits="userSpaceOnUse" x1="47724.8047" y1="-65353.2969" x2="51613.3203" y2="-63006.2695" gradientTransform="matrix(0.1102 0 0 -0.1102 18.1996 1081.0977)">
			<stop  offset="0" style="stop-color:#FDD835"/>
			<stop  offset="1" style="stop-color:#F57C00"/>
		</linearGradient>
		<path id="XMLID_3041_" class="st1" d="M9582.9,5868.1c44.6-39.7,69.4-94.2,74.4-158.7c5-129-89.3-233.1-218.2-243
			c-59.5-5-119,19.8-163.7,54.6L5119,7797.5c-94.2,39.7-178.6,109.1-233.1,203.4c-143.8,238.1-64.5,545.6,178.6,689.4
			c168.6,99.2,372,89.3,530.7-9.9c9.9-9.9,24.8-14.9,34.7-24.8l3868.7-2718C9518.4,5922.7,9572.9,5883,9582.9,5868.1z"/>
		
			<linearGradient id="XMLID_3_" gradientUnits="userSpaceOnUse" x1="55184.5625" y1="-14221.2188" x2="58733.8203" y2="-17328.4355" gradientTransform="matrix(0.1102 0 0 -0.1102 18.1996 1081.0977)">
			<stop  offset="0" style="stop-color:#EF5350"/>
			<stop  offset="0.57" style="stop-color:#FF6E40"/>
			<stop  offset="1" style="stop-color:#F57C00"/>
		</linearGradient>
		<path id="XMLID_3049_" class="st2" d="M9592.8,5535.8L6428.4,2430.9c-69.4-74.4-168.6-124-282.7-124
			c-213.3,0-381.9,173.6-381.9,381.9c0,104.2,39.7,193.4,104.2,262.9c19.8,19.8,39.7,34.7,59.5,49.6l3343,2861.9
			c39.7,34.7,89.3,59.5,148.8,64.5c129,5,233.1-89.3,243-218.2C9662.2,5644.9,9637.4,5580.5,9592.8,5535.8z"/>
		
			<linearGradient id="XMLID_4_" gradientUnits="userSpaceOnUse" x1="57230.5469" y1="-39777.7422" x2="55127.0977" y2="-38464.1133" gradientTransform="matrix(0.1102 0 0 -0.1102 18.1996 1081.0977)">
			<stop  offset="0" style="stop-color:#8E24AA"/>
			<stop  offset="0.3852" style="stop-color:#AB47BC"/>
			<stop  offset="0.7654" style="stop-color:#EC407A"/>
			<stop  offset="0.957" style="stop-color:#EC407A"/>
		</linearGradient>
		<path id="XMLID_3042_" class="st3" d="M6532.5,5258.1c-5,0-1954.2-1537.6-1993.9-1562.4l-89.3-44.6
			c-287.7-109.1-605.1,39.7-714.2,327.4c-94.2,253,9.9,530.7,228.2,664.6c34.7,19.8,64.5,34.7,99.2,44.6
			c19.8,9.9,2251.8,932.5,2251.8,932.5c89.3,39.7,193.4,14.9,253-59.5C6641.6,5466.4,6626.8,5332.5,6532.5,5258.1z"/>
		
			<linearGradient id="XMLID_5_" gradientUnits="userSpaceOnUse" x1="56885.0977" y1="-12781.043" x2="54831.5469" y2="-14477.0879" gradientTransform="matrix(0.1102 0 0 -0.1102 18.1996 1081.0977)">
			<stop  offset="0" style="stop-color:#EF5350"/>
			<stop  offset="0.364" style="stop-color:#EE4E72"/>
			<stop  offset="1" style="stop-color:#EC407A"/>
		</linearGradient>
		<path id="XMLID_3057_" class="st4" d="M6145.7,2306.9c-84.3,0-163.7,29.8-228.2,74.4l-1974,1329.3c-5,5-9.9,5-9.9,9.9h-5
			c-84.3,59.5-153.8,148.8-193.4,253c-109.1,287.7,39.7,610.1,327.4,714.2c178.6,69.4,372,34.7,515.8-69.4
			c34.7-24.8,64.5-49.6,89.3-79.4l1716.1-1547.5c89.3-69.4,148.8-178.6,148.8-302.6C6532.5,2480.5,6358.9,2306.9,6145.7,2306.9z"/>
	</g>
</g>
</svg>
