<?xml version="1.0" encoding="utf-8"?>
<!-- Generator: Adobe Illustrator 24.1.1, SVG Export Plug-In . SVG Version: 6.00 Build 0)  -->
<svg version="1.1" id="Capa_1" xmlns="http://www.w3.org/2000/svg" xmlns:xlink="http://www.w3.org/1999/xlink" x="0px" y="0px"
	 viewBox="0 0 1080 1080" style="enable-background:new 0 0 1080 1080;" xml:space="preserve">
<style type="text/css">
	.st0{fill:#5C6BC0;}
	.st1{fill:#C5CAE9;}
</style>
<path class="st0" d="M880.7,214.7H515.8L413.7,102.6c-9.7-14.6-29.2-19.5-43.8-19.5H92.6C43.9,83.1,5,127,5,180.6v584.8
	c0,53.6,38.9,97.5,92.4,97.5h793c48.6,0,92.4-43.9,92.4-97.5V312.2C973.1,258.6,939.1,214.7,880.7,214.7z M880.7,765.4h-793V180.6
	h267.6l102.2,112.1c9.7,14.6,29.2,19.5,43.8,19.5h379.5V765.4z"/>
<g transform="matrix(.23307 0 0 .23307 11.419 8.706)">
	<path class="st1" d="M3763.1,3210.2l800.3-463.6v-927.1l-800.3,463.6"/>
	<path class="st1" d="M2875,1824.4l800.3,463.6v922.2L2875,2746.7"/>
	<path class="st1" d="M1986.9,2234.3l800.3,463.6v-927.1l-800.3-458.7 M2875,3776.3l800.3,463.6v-927.1L2875,2849.2"/>
</g>
</svg>
