<?xml version="1.0" encoding="utf-8"?>
<!-- Generator: Adobe Illustrator 24.1.1, SVG Export Plug-In . SVG Version: 6.00 Build 0)  -->
<svg version="1.1" id="Capa_1" xmlns="http://www.w3.org/2000/svg" xmlns:xlink="http://www.w3.org/1999/xlink" x="0px" y="0px"
	 viewBox="0 0 1080 1080" style="enable-background:new 0 0 1080 1080;" xml:space="preserve">
<style type="text/css">
	.st0{fill:#039BE5;}
	.st1{fill-rule:evenodd;clip-rule:evenodd;fill:#B3E5FC;}
</style>
<path class="st0" d="M885.6,272.3H520.8L418.5,160.2c-9.7-14.7-29.2-19.5-43.8-19.5H97.4C43.9,140.6,5,184.5,5,238.1v584.7
	c0,53.6,38.9,97.5,92.4,97.5h793c48.6,0,92.4-43.9,92.4-97.5V369.7C978,316.1,939.2,272.3,885.6,272.3z"/>
<path class="st1" d="M676.4,939.4h181.2V722H676.5L676.4,939.4z M459.1,939.4h181.2v-471H459.1V939.4z M893.8,939.4H1075V722H893.8
	V939.4z M676.5,468.3v217.4H1075V468.3L676.5,468.3z"/>
</svg>
