<?xml version="1.0" encoding="utf-8"?>
<!-- Generator: Adobe Illustrator 24.1.1, SVG Export Plug-In . SVG Version: 6.00 Build 0)  -->
<svg version="1.1" id="Capa_1" xmlns="http://www.w3.org/2000/svg" xmlns:xlink="http://www.w3.org/1999/xlink" x="0px" y="0px"
	 viewBox="0 0 1080 1080" style="enable-background:new 0 0 1080 1080;" xml:space="preserve">
<style type="text/css">
	.st0{fill:#EF5350;}
	.st1{fill-rule:evenodd;clip-rule:evenodd;fill:#FFCDD2;}
</style>
<path class="st0" d="M889.8,258H523.2L420.6,145.4c-9.8-14.7-29.4-19.6-44-19.6H97.9C44.1,125.7,5,169.8,5,223.7v587.6
	c0,53.8,39.1,97.9,92.9,97.9h796.8c48.9,0,92.9-44.1,92.9-97.9V355.9C982.7,302,943.6,258,889.8,258z"/>
<path class="st1" d="M600.8,316.3c-37.4,0-67.8,28.5-67.8,63.8c0,0,0,0,0,0.1v510.2c-0.1,35.2,30.2,63.8,67.6,63.9
	c0.1,0,0.1,0,0.2,0h406.5c37.4,0,67.8-28.5,67.8-63.8c0,0,0-0.1,0-0.1V380.1c0-35.2-30.3-63.8-67.7-63.8c0,0,0,0-0.1,0L600.8,316.3z
	 M600.8,539.6h406.5v159.5H600.8L600.8,539.6z M600.8,762.8h406.5v127.5H600.8L600.8,762.8L600.8,762.8z"/>
</svg>
