<?xml version="1.0" encoding="utf-8"?>
<!-- Generator: Adobe Illustrator 27.0.0, SVG Export Plug-In . SVG Version: 6.00 Build 0)  -->
<svg version="1.1" id="Capa_1" xmlns="http://www.w3.org/2000/svg" xmlns:xlink="http://www.w3.org/1999/xlink" x="0px" y="0px"
	 viewBox="0 0 1080 1080" style="enable-background:new 0 0 1080 1080;" xml:space="preserve">
<style type="text/css">
	.st0{fill:#1976D2;}
	.st1{fill:#BBDEFB;}
</style>
<path class="st0" d="M886.83,245.44H521.48L419.12,133.2c-9.7-14.6-29.19-19.5-43.88-19.5H97.56C43.99,113.7,5,157.58,5,211.26
	V796.9c0,53.68,38.99,97.56,92.56,97.56h794.16c48.68,0,92.56-43.88,92.56-97.56V343.1C979.39,289.43,940.51,245.44,886.83,245.44
	L886.83,245.44z M886.83,796.9H97.56V211.26h267.98l102.36,112.25c9.7,14.6,29.19,19.5,43.88,19.5h380.03v453.91h-5L886.83,796.9z"
	/>
<path class="st1" d="M598.65,325.45c-37.57-0.03-68.05,28.63-68.08,64.01c0,0.03,0,0.07,0,0.1v512.48
	c-0.12,35.38,30.24,64.15,67.82,64.26c0.09,0,0.18,0,0.26,0h408.27c37.57,0.03,68.05-28.63,68.08-64.01c0-0.07,0-0.13,0-0.2V389.56
	c0.03-35.38-30.4-64.08-67.98-64.11c-0.03,0-0.07,0-0.1,0H598.65z M598.65,549.79h408.27v160.17H598.65V549.79z M598.65,773.97
	h408.27v128.12H598.65V773.97z"/>
</svg>
