<?xml version="1.0" encoding="utf-8"?>
<!-- Generator: Adobe Illustrator 24.1.1, SVG Export Plug-In . SVG Version: 6.00 Build 0)  -->
<svg version="1.1" id="Capa_1" xmlns="http://www.w3.org/2000/svg" xmlns:xlink="http://www.w3.org/1999/xlink" x="0px" y="0px"
	 viewBox="0 0 1080 1080" style="enable-background:new 0 0 1080 1080;" xml:space="preserve">
<style type="text/css">
	.st0{fill:#607D8B;}
	.st1{fill-rule:evenodd;clip-rule:evenodd;fill:#CFD8DC;}
</style>
<path class="st0" d="M885.6,264.1H520.7L418.5,152.1c-9.7-14.6-29.2-19.5-43.8-19.5H97.4C43.9,132.6,5,176.4,5,230v584.8
	c0,53.6,38.9,97.5,92.4,97.5h793c48.6,0,92.4-43.9,92.4-97.5V361.6C978,308,939.1,264.1,885.6,264.1z M885.6,814.8H97.4V230H365
	l102.2,112.1c9.7,14.6,29.2,19.5,43.8,19.5h379.5v453.2H885.6z"/>
<path class="st1" d="M581.6,483.3h-97.7c-19.5,0-34.2,14.7-34.2,34.2v395.7c0,19.5,14.7,34.2,34.2,34.2h97.7
	c19.5,0,34.2-14.7,34.2-34.2V517.5C615.8,498,601.1,483.3,581.6,483.3L581.6,483.3z M1040.8,483.3h-97.7
	c-19.5,0-34.2,14.7-34.2,34.2v395.7c0,19.5,14.7,34.2,34.2,34.2h97.7c19.5,0,34.2-14.7,34.2-34.2V517.5
	C1075,498,1060.3,483.3,1040.8,483.3z M811.2,483.3h-97.7c-19.5,0-34.2,14.7-34.2,34.2v395.7c0,19.5,14.7,34.2,34.2,34.2h97.7
	c19.5,0,34.2-14.7,34.2-34.2V517.5C845.4,498,830.7,483.3,811.2,483.3z"/>
</svg>
