<?xml version="1.0" encoding="utf-8"?>
<!-- Generator: Adobe Illustrator 24.1.1, SVG Export Plug-In . SVG Version: 6.00 Build 0)  -->
<svg version="1.1" id="Capa_1" xmlns="http://www.w3.org/2000/svg" xmlns:xlink="http://www.w3.org/1999/xlink" x="0px" y="0px"
	 viewBox="0 0 1080 1080" style="enable-background:new 0 0 1080 1080;" xml:space="preserve">
<style type="text/css">
	.st0{fill:#FF9800;}
	.st1{fill:#FFE0B2;}
</style>
<path class="st0" d="M880.7,264.1H515.8L413.7,152.1c-9.7-14.6-29.2-19.5-43.8-19.5H92.6C43.9,132.6,5,176.4,5,230v584.8
	c0,53.6,38.9,97.5,92.4,97.5h793c48.6,0,92.4-43.9,92.4-97.5V361.6C973.1,308,939.1,264.1,880.7,264.1z M880.7,814.8h-793V230h267.6
	l102.2,112.1c9.7,14.6,29.2,19.5,43.8,19.5h379.5V814.8z"/>
<path class="st1" d="M811.2,522.4H493.7c-29.3,0-53.7,24.4-53.7,53.7v317.5c0,29.3,24.4,53.7,53.7,53.7h317.5
	c29.3,0,53.7-24.4,53.7-53.7V576.2C864.9,546.8,840.5,522.4,811.2,522.4L811.2,522.4z M1021.3,566.4l-122.1,83v175.9l122.1,83
	c24.4,14.7,53.7,0,53.7-29.3V595.7C1075,566.4,1045.7,546.8,1021.3,566.4z"/>
</svg>
