<?xml version="1.0" encoding="utf-8"?>
<!-- Generator: Adobe Illustrator 27.0.0, SVG Export Plug-In . SVG Version: 6.00 Build 0)  -->
<svg version="1.1" id="Capa_1" xmlns="http://www.w3.org/2000/svg" xmlns:xlink="http://www.w3.org/1999/xlink" x="0px" y="0px"
	 viewBox="0 0 1080 1080" style="enable-background:new 0 0 1080 1080;" xml:space="preserve">
<style type="text/css">
	.st0{fill:#546E7A;}
	.st1{fill-rule:evenodd;clip-rule:evenodd;fill:#CFD8DC;}
</style>
<path class="st0" d="M886.97,254.01h-365.4L419.19,141.75c-9.7-14.6-29.19-19.5-43.88-19.5H97.58C43.99,122.25,5,166.14,5,219.83
	v585.73c0,53.68,38.99,97.58,92.58,97.58h794.29c48.68,0,92.58-43.88,92.58-97.58V351.69C979.55,298.01,940.66,254.01,886.97,254.01
	L886.97,254.01z M886.97,805.56H97.58V219.83H365.6L467.98,332.1c9.7,14.6,29.19,19.5,43.88,19.5h380.09v453.98h-5L886.97,805.56z"
	/>
<path class="st1" d="M718.3,333.53L1075,957.75H361.6L718.3,333.53z"/>
</svg>
