<?xml version="1.0" encoding="utf-8"?>
<!-- Generator: Adobe Illustrator 24.1.1, SVG Export Plug-In . SVG Version: 6.00 Build 0)  -->
<svg version="1.1" id="Capa_1" xmlns="http://www.w3.org/2000/svg" xmlns:xlink="http://www.w3.org/1999/xlink" x="0px" y="0px"
	 viewBox="0 0 1080 1080" style="enable-background:new 0 0 1080 1080;" xml:space="preserve">
<style type="text/css">
	.st0{fill:#00897B;}
	.st1{fill-rule:evenodd;clip-rule:evenodd;fill:#B2DFDB;}
</style>
<path class="st0" d="M885.6,251.3H520.8L418.5,139.2c-9.7-14.7-29.2-19.5-43.8-19.5H97.4C43.9,119.7,5,163.6,5,217.2v584.7
	c0,53.6,38.9,97.5,92.4,97.5h793c48.6,0,92.4-43.9,92.4-97.5V348.7C978,295.1,939.2,251.3,885.6,251.3z"/>
<path class="st1" d="M1075,703.7h-64.2v64.2H818.4v-96.2h64.2v-64.2h-64.2V447.1c0-35.4-28.7-64.2-64.2-64.2H497.6v-64.2h-64.2
	v256.6h64.2v-64.2h192.5v96.2h-64.2v64.2h64.2V832c0,35.4,28.7,64.2,64.2,64.2h256.6v64.2h64.2"/>
</svg>
