<?xml version="1.0" encoding="utf-8"?>
<!-- Generator: Adobe Illustrator 24.1.1, SVG Export Plug-In . SVG Version: 6.00 Build 0)  -->
<svg version="1.1" id="Capa_1" xmlns="http://www.w3.org/2000/svg" xmlns:xlink="http://www.w3.org/1999/xlink" x="0px" y="0px"
	 viewBox="0 0 1080 1080" style="enable-background:new 0 0 1080 1080;" xml:space="preserve">
<style type="text/css">
	.st0{fill:#546E7A;}
	.st1{fill-rule:evenodd;clip-rule:evenodd;fill:#CFD8DC;}
</style>
<path class="st0" d="M893.7,259.3H525.5L422.4,146.1c-9.8-14.8-29.5-19.7-44.2-19.7H98.3c-54,0-93.3,44.3-93.3,98.4v590.3
	c0,54.1,39.3,98.4,93.3,98.4h800.3c49.1,0,93.3-44.3,93.3-98.4V357.6C987,303.5,947.8,259.3,893.7,259.3z"/>
<path class="st1" d="M812,310.6L549,427.5v175.4c0,162.2,112.2,313.9,263,350.7c150.8-36.8,263-188.5,263-350.7V427.5L812,310.6
	 M812,427.5c48.4,0,87.7,39.3,87.7,87.7s-39.3,87.7-87.7,87.7s-87.7-39.3-87.7-87.7S763.6,427.5,812,427.5 M962,778.2
	c-35.4,54.1-88.3,94.7-149.9,114.6c-61.7-19.9-114.6-60.5-149.9-114.6c-9.9-14.6-18.4-29.2-25.4-44.7c0-48.2,79.2-87.7,175.3-87.7
	s175.3,38.6,175.3,87.7C980.4,749,971.9,763.6,962,778.2L962,778.2z"/>
</svg>
