<?xml version="1.0" encoding="utf-8"?>
<!-- Generator: Adobe Illustrator 24.1.1, SVG Export Plug-In . SVG Version: 6.00 Build 0)  -->
<svg version="1.1" id="Capa_1" xmlns="http://www.w3.org/2000/svg" xmlns:xlink="http://www.w3.org/1999/xlink" x="0px" y="0px"
	 viewBox="0 0 1080 1080" style="enable-background:new 0 0 1080 1080;" xml:space="preserve">
<style type="text/css">
	.st0{fill:#FFB300;}
	.st1{fill-rule:evenodd;clip-rule:evenodd;fill:#FFECB3;}
</style>
<path class="st0" d="M885.6,271.8H520.7L418.6,159.6c-9.7-14.7-29.2-19.5-43.8-19.5H97.4C43.9,140.1,5,184,5,237.6v584.8
	c0,53.6,38.9,97.5,92.4,97.5h793c48.7,0,92.4-43.9,92.4-97.5V369.2C978,315.6,939.2,271.8,885.6,271.8z"/>
<path class="st1" d="M927.1,622.8C905.5,513.4,809.1,431,693.3,431c-91.9,0-171.7,52.2-211.5,128.2
	c-95.7,10.5-170.1,91.3-170.1,189.9c0,105.4,85.4,190.8,190.8,190.8H916c87.8,0,159-71.2,159-159
	C1075,696.9,1009.8,628.8,927.1,622.8L927.1,622.8z"/>
</svg>
