<?xml version="1.0" encoding="utf-8"?>
<!-- Generator: Adobe Illustrator 24.1.1, SVG Export Plug-In . SVG Version: 6.00 Build 0)  -->
<svg version="1.1" id="Capa_1" xmlns="http://www.w3.org/2000/svg" xmlns:xlink="http://www.w3.org/1999/xlink" x="0px" y="0px"
	 viewBox="0 0 1080 1080" style="enable-background:new 0 0 1080 1080;" xml:space="preserve">
<style type="text/css">
	.st0{fill:#448AFF;}
	.st1{fill-rule:evenodd;clip-rule:evenodd;fill:#BBDEFB;}
</style>
<path class="st0" d="M885.6,272.7H520.8L418.5,160.6c-9.7-14.7-29.2-19.5-43.8-19.5H97.4C43.9,141.1,5,184.9,5,238.5v584.7
	c0,53.6,38.9,97.5,92.4,97.5h793c48.6,0,92.4-43.9,92.4-97.5V370.1C978,316.5,939.2,272.7,885.6,272.7z"/>
<g transform="matrix(.56815 0 0 .56815 8.8734 9.4092)">
	<g transform="translate(-3.3597e-5,-5e-5)">
		<path class="st1" d="M1077.9,1347.3h487.6l-263.6,288.7H817L1077.9,1347.3z"/>
		<path class="st1" d="M1876.5,1005.1H874.8l-263.4,288.7h1001.6L1876.5,1005.1z"/>
		<path class="st1" d="M1185.1,662.9h485.8l-262.3,288.7H922.4L1185.1,662.9z"/>
	</g>
</g>
</svg>
