<?xml version="1.0" encoding="utf-8"?>
<!-- Generator: Adobe Illustrator 24.1.1, SVG Export Plug-In . SVG Version: 6.00 Build 0)  -->
<svg version="1.1" id="Capa_1" xmlns="http://www.w3.org/2000/svg" xmlns:xlink="http://www.w3.org/1999/xlink" x="0px" y="0px"
	 viewBox="0 0 1080 1080" style="enable-background:new 0 0 1080 1080;" xml:space="preserve">
<style type="text/css">
	.st0{fill:#1E88E5;}
	.st1{fill:#BBDEFB;}
</style>
<path class="st0" d="M880.7,238.6H515.8L413.7,126.5c-9.7-14.6-29.2-19.5-43.8-19.5H92.6C43.9,107,5,150.9,5,204.5v584.8
	c0,53.6,38.9,97.5,92.4,97.5h793c48.6,0,92.4-43.9,92.4-97.5V336.1C973.1,282.5,939.1,238.6,880.7,238.6z M880.7,789.3h-793V204.5
	h267.6l102.2,112.1c9.7,14.6,29.2,19.5,43.8,19.5h379.5V789.3z"/>
<path class="st1" d="M829.6,619.6L476.2,973l-44.2-44.2l353.4-353.4L829.6,619.6 M971.9,531.3l19.6-19.6L967,487.1l19.6-19.6
	l-44.2-44.2l-19.6,19.6l-24.5-24.5L878.7,438c-54-44.2-117.8-78.5-181.6-103.1l-24.5,54c54,29.4,103.1,63.8,152.1,103.1L810,506.7
	l93.2,93.2l14.7-14.7c39.3,49.1,73.6,98.2,103.1,152.1l54-24.5C1050.5,649,1016.1,585.2,971.9,531.3L971.9,531.3z"/>
</svg>
