<?xml version="1.0" encoding="utf-8"?>
<!-- Generator: Adobe Illustrator 24.1.1, SVG Export Plug-In . SVG Version: 6.00 Build 0)  -->
<svg version="1.1" id="Capa_1" xmlns="http://www.w3.org/2000/svg" xmlns:xlink="http://www.w3.org/1999/xlink" x="0px" y="0px"
	 viewBox="0 0 1080 1080" style="enable-background:new 0 0 1080 1080;" xml:space="preserve">
<style type="text/css">
	.st0{fill:#616161;}
	.st1{fill-rule:evenodd;clip-rule:evenodd;fill:#BDBDBD;}
</style>
<path class="st0" d="M885.6,228.6H520.7L418.5,116.5c-9.7-14.6-29.2-19.5-43.8-19.5H97.4C43.9,97,5,140.9,5,194.5v584.8
	c0,53.6,38.9,97.5,92.4,97.5h793c48.6,0,92.4-43.9,92.4-97.5V326.1C978,272.5,939.1,228.6,885.6,228.6z M885.6,779.3H97.4V194.5H365
	l102.2,112.1c9.7,14.6,29.2,19.5,43.8,19.5h379.5v453.2H885.6z"/>
<path class="st1" d="M526.7,617.4h438.7v73.1H526.7C526.7,690.5,526.7,617.4,526.7,617.4z M526.7,471.2h438.7v73.1H526.7
	C526.7,544.3,526.7,471.2,526.7,471.2z M526.7,763.6h292.4v73.1H526.7C526.7,836.8,526.7,763.6,526.7,763.6z M892.2,763.6V983
	L1075,873.3L892.2,763.6z"/>
</svg>
