<?xml version="1.0" encoding="utf-8"?>
<!-- Generator: Adobe Illustrator 27.0.0, SVG Export Plug-In . SVG Version: 6.00 Build 0)  -->
<svg version="1.1" id="Capa_1" xmlns="http://www.w3.org/2000/svg" xmlns:xlink="http://www.w3.org/1999/xlink" x="0px" y="0px"
	 viewBox="0 0 1080 1080" style="enable-background:new 0 0 1080 1080;" xml:space="preserve">
<style type="text/css">
	.st0{fill:#43A047;}
	.st1{fill:#C8E6C9;}
</style>
<path class="st0" d="M886.97,261.89h-365.4L419.19,149.63c-9.7-14.6-29.19-19.5-43.88-19.5H97.58C43.99,130.13,5,174.01,5,227.71
	v585.73c0,53.68,38.99,97.58,92.58,97.58h794.29c48.68,0,92.58-43.88,92.58-97.58V359.57C979.55,305.88,940.66,261.89,886.97,261.89
	L886.97,261.89z M886.97,813.44H97.58V227.71H365.6l102.38,112.27c9.7,14.6,29.19,19.5,43.88,19.5h380.09v453.98h-5L886.97,813.44z"
	/>
<path class="st1" d="M981.96,455.83l-287.91,287.9l-127.51-127.5l-93.04,93.04l220.55,240.6L1075,568.93L981.96,455.83z"/>
</svg>
