<?xml version="1.0" encoding="utf-8"?>
<!-- Generator: Adobe Illustrator 24.1.1, SVG Export Plug-In . SVG Version: 6.00 Build 0)  -->
<svg version="1.1" id="Capa_1" xmlns="http://www.w3.org/2000/svg" xmlns:xlink="http://www.w3.org/1999/xlink" x="0px" y="0px"
	 viewBox="0 0 1080 1080" style="enable-background:new 0 0 1080 1080;" xml:space="preserve">
<style type="text/css">
	.st0{fill:#009688;}
	.st1{fill:#41B883;}
	.st2{fill:#35495E;}
</style>
<path class="st0" d="M885.6,273.4H520.8L418.5,161.2c-9.7-14.7-29.2-19.5-43.8-19.5H97.4C43.9,141.7,5,185.6,5,239.2v584.7
	c0,53.6,38.9,97.5,92.4,97.5h793c48.6,0,92.4-43.9,92.4-97.5V370.8C978,317.2,939.2,273.4,885.6,273.4z"/>
<g transform="matrix(.73408 0 0 .73408 12.08 9.0017)">
	<path class="st1" d="M680.5,1265.4l307-619.3l76.7,151.1V956l-152.5,309.4H680.5z M1448,1265.9l-307-619.3l-76.7,151.1v158.8
		l152,309.4H1448z"/>
	<path class="st2" d="M680.5,490.7l191.9,387.6l115.1-232.2l-76.7-155.4H680.5z M1448,490.7l-191.9,387.6L1141,646.1l76.7-155.4
		H1448z"/>
</g>
</svg>
