<?xml version="1.0" encoding="utf-8"?>
<!-- Generator: Adobe Illustrator 24.1.1, SVG Export Plug-In . SVG Version: 6.00 Build 0)  -->
<svg version="1.1" id="Capa_1" xmlns="http://www.w3.org/2000/svg" xmlns:xlink="http://www.w3.org/1999/xlink" x="0px" y="0px"
	 viewBox="0 0 1080 1080" style="enable-background:new 0 0 1080 1080;" xml:space="preserve">
<style type="text/css">
	.st0{fill:#AFB42B;}
	.st1{fill-rule:evenodd;clip-rule:evenodd;fill:#F0F4C3;}
</style>
<path class="st0" d="M885.6,263.3H520.8L418.5,150.1c-9.7-14.8-29.2-19.7-43.8-19.7H97.4C43.9,130.4,5,174.7,5,228.8V819
	c0,54.1,38.9,98.4,92.4,98.4h793c48.6,0,92.4-44.3,92.4-98.4V361.6C978,307.5,939.2,263.3,885.6,263.3z"/>
<path class="st1" d="M845.6,817.3H616.2v-66.2h229.4 M943.9,685H616.2v-66.2h327.7 M943.9,552.7H616.2v-66.2h327.7 M1009.5,354.2
	H550.6c-36.4,0-65.5,29.4-65.5,66.2v463.1c0,36.5,29.3,66.2,65.5,66.2l0,0h458.8c36.2,0,65.5-29.6,65.5-66.2c0,0,0,0,0,0V420.3
	C1075,383.6,1045.5,354.2,1009.5,354.2z"/>
</svg>
