<?xml version="1.0" encoding="utf-8"?>
<!-- Generator: Adobe Illustrator 24.1.1, SVG Export Plug-In . SVG Version: 6.00 Build 0)  -->
<svg version="1.1" id="Capa_1" xmlns="http://www.w3.org/2000/svg" xmlns:xlink="http://www.w3.org/1999/xlink" x="0px" y="0px"
	 viewBox="0 0 1080 1080" style="enable-background:new 0 0 1080 1080;" xml:space="preserve">
<style type="text/css">
	.st0{fill:#43A047;}
	.st1{fill-rule:evenodd;clip-rule:evenodd;fill:#C8E6C9;}
</style>
<path class="st0" d="M885.6,271.9H520.8L418.5,159.7c-9.7-14.7-29.2-19.5-43.8-19.5H97.4C43.9,140.2,5,184.1,5,237.7v584.7
	c0,53.6,38.9,97.5,92.4,97.5h793c48.6,0,92.4-43.9,92.4-97.5V369.3C978,315.7,939.2,271.9,885.6,271.9z"/>
<path class="st1" d="M468.5,366.9v286.4l101.1-101.1l101.1,117.9c33.7,33.7,33.7,67.4,33.7,67.4v202.2h134.8V703.9
	c0,0,0-33.7-17.9-67.4s-49.5-67.4-49.5-67.4L670.6,453.9l84.2-86.9 M973.9,366.9L823.6,517.5l15.5,17.9c0,0,31.3,33.7,49.5,67.4
	c7.1,13.5,11.1,26.6,13.5,38.1L1075,468"/>
</svg>
