<?xml version="1.0" encoding="utf-8"?>
<!-- Generator: Adobe Illustrator 24.1.1, SVG Export Plug-In . SVG Version: 6.00 Build 0)  -->
<svg version="1.1" id="Capa_1" xmlns="http://www.w3.org/2000/svg" xmlns:xlink="http://www.w3.org/1999/xlink" x="0px" y="0px"
	 viewBox="0 0 1080 1080" style="enable-background:new 0 0 1080 1080;" xml:space="preserve">
<style type="text/css">
	.st0{fill:#0288D1;}
	.st1{fill-rule:evenodd;clip-rule:evenodd;fill:#B3E5FC;}
</style>
<path class="st0" d="M885.6,238H520.7L418.5,125.9c-9.7-14.6-29.2-19.5-43.8-19.5H97.4C43.9,106.4,5,150.3,5,203.9v584.8
	c0,53.6,38.9,97.5,92.4,97.5h793c48.6,0,92.4-43.9,92.4-97.5V335.5C978,281.9,939.1,238,885.6,238z M885.6,788.7H97.4V203.9H365
	L467.2,316c9.7,14.6,29.2,19.5,43.8,19.5h379.5v453.2H885.6z"/>
<g transform="matrix(.61246 0 0 .61246 10.008 8.0792)">
	<g transform="matrix(.94546 0 0 .94546 .65453 .65453)">
		<path class="st1" d="M1381.7,599.2c-53.7-9.8-102.6-9.8-156.3,0l-34.2,87.9c-44,14.7-83.1,29.3-122.1,53.7l-87.9-39.1
			c-39.1,29.3-78.2,68.4-107.5,107.5l39.1,87.9c-24.4,39.1-39.1,78.2-53.7,122.1l-87.9,34.2c-9.8,53.7-9.8,102.6,0,156.3l87.9,34.2
			c9.8,44,29.3,83.1,48.9,122.1l-39.1,87.9c29.3,44,68.4,78.2,112.4,112.4l87.9-44c39.1,24.4,78.2,39.1,122.1,48.9l34.2,87.9
			c53.7,9.8,102.6,9.8,156.3,0l34.2-87.9c44-9.8,83.1-29.3,122.1-48.9l87.9,39.1c44-29.3,78.2-68.4,112.4-112.4l-44-83.1
			c24.4-39.1,39.1-78.2,48.9-122.1l87.9-34.2c9.8-53.7,9.8-102.6,0-156.3l-87.9-34.2c-9.8-44-29.3-83.1-48.9-122.1l39.1-87.9
			c-29.3-44-68.4-78.2-112.4-112.4l-83.1,44c-39.1-24.4-78.2-39.1-122.1-48.9L1381.7,599.2z M1303.5,789.7
			c190.5,0,342,156.3,342,342s-156.3,342-342,342s-342-156.3-342-342S1113,789.7,1303.5,789.7z"/>
		<path class="st1" d="M1440.3,1268.5c-34.2,39.1-83.1,58.6-136.8,58.6c-107.5,0-195.4-87.9-195.4-195.4
			c0-107.5,87.9-195.4,195.4-195.4c53.7,0,102.6,19.5,136.8,58.6l-68.4,68.4c-14.7-19.5-39.1-29.3-68.4-29.3
			c-53.7,0-97.7,44-97.7,97.7c0,53.7,44,97.7,97.7,97.7c29.3,0,53.7-9.8,68.4-29.3L1440.3,1268.5z"/>
	</g>
</g>
</svg>
