<?xml version="1.0" encoding="utf-8"?>
<!-- Generator: Adobe Illustrator 24.1.1, SVG Export Plug-In . SVG Version: 6.00 Build 0)  -->
<svg version="1.1" id="Capa_1" xmlns="http://www.w3.org/2000/svg" xmlns:xlink="http://www.w3.org/1999/xlink" x="0px" y="0px"
	 viewBox="0 0 1080 1080" style="enable-background:new 0 0 1080 1080;" xml:space="preserve">
<style type="text/css">
	.st0{fill:#C0CA33;}
	.st1{fill-rule:evenodd;clip-rule:evenodd;fill:#F0F4C3;}
</style>
<path class="st0" d="M880.7,248H515.8L413.7,135.9c-9.7-14.6-29.2-19.5-43.8-19.5H92.6C43.9,116.4,5,160.3,5,213.9v584.8
	c0,53.6,38.9,97.5,92.4,97.5h793c48.6,0,92.4-43.9,92.4-97.5V345.4C973.1,291.8,939.1,248,880.7,248z M880.7,798.7h-793V213.9h267.6
	L457.4,326c9.7,14.6,29.2,19.5,43.8,19.5h379.5V798.7z"/>
<path class="st1" d="M957.8,867.4c55.2-65.2,60.2-135.4,20.1-260.8c-25.1-80.2-70.2-140.4-40.1-190.6c35.1-55.2,110.3,0,45.1,70.2
	l10,10c75.2,10,110.3-95.3,55.2-120.4c-145.4-75.2-275.8,70.2-220.7,240.7c25.1,70.2,60.2,150.5,30.1,210.6
	c-25.1,50.2-70.2,85.3-100.3,85.3c-65.2,5-20.1-145.4,50.2-180.6c5-5,15-10,5-20.1c-90.3-10-145.4,30.1-175.5,90.3
	C556.6,967.7,817.4,1032.9,957.8,867.4L957.8,867.4z"/>
</svg>
