<?xml version="1.0" encoding="utf-8"?>
<!-- Generator: Adobe Illustrator 27.0.0, SVG Export Plug-In . SVG Version: 6.00 Build 0)  -->
<svg version="1.1" id="Capa_1" xmlns="http://www.w3.org/2000/svg" xmlns:xlink="http://www.w3.org/1999/xlink" x="0px" y="0px"
	 viewBox="0 0 1080 1080" style="enable-background:new 0 0 1080 1080;" xml:space="preserve">
<style type="text/css">
	.st0{fill:#41B883;}
	.st1{fill-rule:evenodd;clip-rule:evenodd;fill:#E8F5E9;}
	.st2{fill-rule:evenodd;clip-rule:evenodd;fill:#41B883;}
	.st3{fill-rule:evenodd;clip-rule:evenodd;fill:#35495E;}
</style>
<path class="st0" d="M398.85,127.17H103.46C48.82,127.17,5,170.98,5,225.63v590.78c0,54.01,44.46,98.46,98.46,98.46h787.71
	c54.01,0,98.46-44.46,98.46-98.46V324.09c0-54.38-44.08-98.46-98.46-98.46H497.32L398.85,127.17z"/>
<path class="st1" d="M656.53,362.05c-40.78,0-73.85,33.06-73.85,73.85v443.08c0,40.78,33.06,73.85,73.85,73.85h344.62
	c40.78,0,73.85-33.06,73.85-73.85V435.9c0-40.78-33.06-73.85-73.85-73.85L656.53,362.05z"/>
<path class="st2" d="M657.66,509.8l171.18,295.39l171.18-293.96v-1.48h-66.56L829.83,687.72L726.69,509.8L657.66,509.8z"/>
<path class="st3" d="M726.74,509.8l103.09,177.97L933.46,509.8h-62.43l-40.76,70.01l-40.62-70.01H726.74z"/>
</svg>
