<?xml version="1.0" encoding="utf-8"?>
<!-- Generator: Adobe Illustrator 24.1.1, SVG Export Plug-In . SVG Version: 6.00 Build 0)  -->
<svg version="1.1" id="Capa_1" xmlns="http://www.w3.org/2000/svg" xmlns:xlink="http://www.w3.org/1999/xlink" x="0px" y="0px"
	 viewBox="0 0 1080 1080" style="enable-background:new 0 0 1080 1080;" xml:space="preserve">
<style type="text/css">
	.st0{fill:#64B5F6;}
	.st1{fill:#1976D2;}
	.st2{fill:#FFFFFF;}
</style>
<path class="st0" d="M880.7,257.6H515.8L413.7,145.5c-9.7-14.6-29.2-19.5-43.8-19.5H92.6C43.9,126,5,169.9,5,223.5v584.8
	c0,53.6,38.9,97.5,92.4,97.5h793c48.6,0,92.4-43.9,92.4-97.5V355.1C973.1,301.5,939.1,257.6,880.7,257.6z M880.7,808.3h-793V223.5
	h267.6l102.2,112.1c9.7,14.6,29.2,19.5,43.8,19.5h379.5V808.3z"/>
<g transform="matrix(.8608 0 0 .8608 -202.35 -28.955)">
	<path class="st1" d="M1412,595.7c-4.8-14.4-14.4-24-28.7-28.7l-253.9-119.8c-4.8-4.8-14.4-4.8-19.2-4.8c-4.8,0-14.4,0-19.2,0
		L837.1,566.9c-14.4,4.8-24,14.4-24,28.7l-62.3,273.1c-4.8,14.4,0,28.7,9.6,38.3l177.3,215.6c9.6,9.6,24,14.4,38.3,19.2h282.7
		c14.4,0,28.7-4.8,38.3-19.2l177.3-215.6c9.6-9.6,9.6-24,9.6-38.3L1412,595.7z"/>
	<path class="st2" d="M1373.7,859.2L1373.7,859.2C1373.7,859.2,1368.9,859.2,1373.7,859.2c-9.6-4.8-9.6-4.8-14.4-4.8h-4.8l0,0
		c-9.6,0-19.2-4.8-28.7-4.8c-4.8,0-4.8-4.8-4.8-4.8l0,0h-4.8c4.8-24,0-47.9-4.8-71.9c-4.8-24-14.4-47.9-28.7-67.1l4.8-4.8l0,0
		c0-4.8,0-4.8,4.8-9.6c9.6-4.8,14.4-9.6,24-14.4c0,0,4.8,0,4.8-4.8c4.8,0,4.8-4.8,9.6-4.8c0,0,0,0,4.8,0l0,0
		c9.6-4.8,9.6-14.4,4.8-24c-4.8-4.8-9.6-4.8-9.6-4.8c-4.8,0-9.6,0-9.6,4.8l0,0c0,0,0,0-4.8,0c-4.8,4.8-4.8,4.8-4.8,9.6l-4.8,4.8
		c-4.8,4.8-14.4,14.4-19.2,19.2h-4.8h-4.8l-4.8,4.8c-4.8-4.8-14.4-14.4-19.2-19.2c-28.7-24-67.1-38.3-110.2-43.1v-4.8l0,0
		c-4.8,0-4.8-4.8-4.8-4.8c0-9.6,0-19.2,0-28.7l0,0v-4.8c0-4.8,0-4.8,0-9.6v-4.8c0-9.6-4.8-14.4-14.4-14.4c-4.8,0-9.6,0-14.4,4.8
		c-4.8,4.8-4.8,9.6-4.8,9.6v4.8c0,4.8,0,4.8,0,9.6v4.8l0,0c0,9.6,0,19.2,0,28.7c0,4.8,0,4.8-4.8,4.8l0,0v4.8
		c-9.6,0-19.2,4.8-28.7,4.8c-38.3,9.6-76.7,28.7-100.6,57.5l-4.8-4.8l0,0c0,0,0,0-4.8,0c-4.8,0-4.8,0-4.8,0
		c-9.6-4.8-14.4-14.4-19.2-19.2l-4.8-4.8c-4.8-4.8-4.8-4.8-4.8-9.6c0,0,0,0-4.8,0l0,0c-4.8-4.8-9.6-4.8-9.6-4.8
		c-4.8,0-9.6,0-14.4,4.8c-4.8,9.6-4.8,19.2,4.8,24l0,0c0,0,0,0,4.8,0c4.8,0,4.8,4.8,9.6,4.8c0,0,4.8,0,4.8,4.8
		c9.6,4.8,14.4,9.6,24,14.4c0,0,4.8,4.8,4.8,9.6l0,0l4.8,4.8c0,0,0,4.8-4.8,4.8c-24,43.1-33.5,91-28.7,138.9h-4.8l0,0
		c0,4.8-4.8,4.8-4.8,4.8c-9.6,4.8-19.2,4.8-28.7,4.8l0,0h-4.8c-4.8,0-4.8,0-9.6,0c0,0,0,0-4.8,0l0,0c-9.6,0-14.4,9.6-14.4,19.2
		s9.6,14.4,14.4,9.6h4.8l0,0c0,0,0,0,4.8,0c4.8,0,4.8-4.8,9.6-4.8h4.8l0,0c9.6-4.8,19.2-4.8,28.7-9.6l0,0c4.8,0,4.8,0,4.8,4.8l0,0
		h9.6c14.4,38.3,33.5,71.9,67.1,95.8c9.6,4.8,14.4,9.6,24,14.4l-4.8,4.8l0,0c0,4.8,0,4.8,0,9.6c-4.8,9.6-9.6,14.4-14.4,24l0,0
		c0,0,0,4.8-4.8,4.8c-4.8,0-4.8,4.8-4.8,9.6c0,0,0,0,0,4.8l0,0c-4.8,9.6,0,19.2,4.8,24h4.8c4.8,0,14.4-4.8,14.4-9.6l0,0
		c0,0,0,0,0-4.8s4.8-4.8,4.8-9.6v-4.8c4.8-9.6,4.8-19.2,9.6-24c0-4.8,4.8-4.8,4.8-4.8l0,0l4.8-4.8c24,9.6,47.9,14.4,71.9,14.4
		c14.4,0,28.7,0,43.1-4.8c9.6,0,19.2-4.8,28.7-9.6l4.8,4.8l0,0c4.8,0,4.8,4.8,4.8,4.8c4.8,9.6,9.6,14.4,9.6,24l0,0v4.8
		c0,4.8,0,4.8,4.8,9.6c0,0,0,0,0,4.8l0,0c4.8,4.8,9.6,9.6,14.4,9.6c4.8,0,4.8,0,4.8,0c4.8,0,4.8-4.8,9.6-9.6c0-4.8,0-9.6,0-14.4l0,0
		c0,0,0,0,0-4.8c0-4.8-4.8-4.8-4.8-9.6c0,0,0-4.8-4.8-4.8l0,0c-4.8-9.6-9.6-14.4-14.4-24c0-4.8,0-4.8,0-9.6l0,0l-4.8-4.8
		c43.1-24,76.7-67.1,91-115h4.8l0,0l4.8-4.8l0,0c9.6,0,19.2,4.8,28.7,9.6l0,0h4.8c4.8,0,4.8,4.8,9.6,4.8c0,0,0,0,4.8,0l0,0h4.8
		c9.6,0,14.4-4.8,14.4-9.6C1388.1,868.8,1378.5,859.2,1373.7,859.2L1373.7,859.2z M1134.2,835.2l-24,9.6l-24-9.6l-4.8-24l14.4-19.2
		h24l14.4,19.2V835.2z M1268.3,777.7c4.8,19.2,4.8,33.5,4.8,52.7l-81.4-24c-9.6,0-9.6-9.6-9.6-14.4c0-4.8,0-4.8,4.8-4.8l62.3-57.5
		C1258.7,744.2,1263.5,763.4,1268.3,777.7L1268.3,777.7z M1225.2,701.1l-67.1,47.9c-4.8,4.8-14.4,4.8-19.2-4.8l-4.8-4.8l-4.8-86.2
		C1162.9,658,1196.4,672.3,1225.2,701.1L1225.2,701.1z M1071.9,658l14.4-4.8l-4.8,81.4c0,9.6-4.8,14.4-14.4,14.4c-4.8,0-4.8,0-4.8,0
		l-67.1-47.9C1014.4,677.1,1043.1,662.8,1071.9,658L1071.9,658z M971.3,729.8l62.3,52.7c4.8,4.8,4.8,14.4,0,19.2
		c0,4.8-4.8,4.8-4.8,4.8l-81.4,24C942.5,796.9,952.1,758.6,971.3,729.8L971.3,729.8z M956.9,868.8l81.4-14.4
		c4.8,0,14.4,4.8,14.4,9.6c0,4.8,0,4.8,0,9.6l-33.5,76.7C990.4,931.1,966.5,902.3,956.9,868.8L956.9,868.8z M1143.7,974.2
		c-9.6,4.8-24,4.8-38.3,4.8c-19.2,0-33.5-4.8-52.7-9.6l43.1-71.9c4.8-4.8,9.6-4.8,14.4-4.8c4.8,0,4.8,4.8,4.8,4.8l38.3,71.9
		C1158.1,969.4,1153.3,974.2,1143.7,974.2L1143.7,974.2z M1249.1,902.3c-14.4,19.2-28.7,38.3-47.9,47.9l-33.5-76.7
		c0-4.8,0-14.4,9.6-14.4c4.8,0,4.8,0,9.6,0l81.4,14.4C1258.7,883.2,1253.9,892.7,1249.1,902.3L1249.1,902.3z"/>
</g>
</svg>
