<?xml version="1.0" encoding="utf-8"?>
<!-- Generator: Adobe Illustrator 24.1.1, SVG Export Plug-In . SVG Version: 6.00 Build 0)  -->
<svg version="1.1" id="Capa_1" xmlns="http://www.w3.org/2000/svg" xmlns:xlink="http://www.w3.org/1999/xlink" x="0px" y="0px"
	 viewBox="0 0 1080 1080" style="enable-background:new 0 0 1080 1080;" xml:space="preserve">
<style type="text/css">
	.st0{fill:#8BC34A;}
	.st1{fill:#DCEDC8;}
</style>
<path class="st0" d="M880.7,220.4H515.8L413.7,108.3c-9.7-14.6-29.2-19.5-43.8-19.5H92.6C43.9,88.8,5,132.7,5,186.3v584.8
	c0,53.6,38.9,97.5,92.4,97.5h793c48.6,0,92.4-43.9,92.4-97.5V317.9C973.1,264.3,939.1,220.4,880.7,220.4z M880.7,771.1h-793V186.3
	h267.6l102.2,112.1c9.7,14.6,29.2,19.5,43.8,19.5h379.5V771.1z"/>
<path class="st1" d="M778.6,991.2c-10,0-20.1,0-25.1-5L668,935.9c-10-5-5-10,0-10c15.1-5,20.1-5,35.2-15.1h5l65.3,40.2c0,0,5,0,10,0
	l251.2-145.7l5-5V513.9c0-5,0-5-5-5L783.6,363.1c0,0-5,0-10,0L522.3,508.8l-5,5v286.4c0,5,0,5,5,5l70.3,40.2
	c35.2,20.1,60.3-5,60.3-25.1V528.9c0-5,5-5,5-5h30.1c5,0,5,5,5,5v286.4c0,50.2-25.1,75.4-75.4,75.4c-15.1,0-25.1,0-55.3-15.1
	l-65.3-35.2c-15.1-10-25.1-25.1-25.1-45.2V508.8c0-20.1,10-35.2,25.1-45.2l251.2-145.7c15.1-10,35.2-10,50.2,0l251.2,145.7
	c15.1,10,25.1,25.1,25.1,45.2v286.4c0,20.1-10,35.2-25.1,45.2L798.7,986.1C798.7,986.1,788.6,991.2,778.6,991.2z M979.5,704.8
	c0-55.3-35.2-70.3-110.5-80.4c-75.4-10-85.4-15.1-85.4-35.2c0-15.1,5-35.2,65.3-35.2c50.2,0,70.3,10,75.4,45.2c0,5,5,5,5,5h30.1h5
	v-5c-5-60.3-45.2-85.4-125.6-85.4c-70.3,0-115.6,30.1-115.6,80.4c0,55.3,40.2,70.3,110.5,75.4c80.4,10,90.4,20.1,90.4,35.2
	c0,30.1-20.1,40.2-75.4,40.2c-65.3,0-80.4-15.1-85.4-50.2c0-5-5-5-5-5h-30.1c-5,0-5,5-5,5c0,40.2,25.1,90.4,130.6,90.4
	C934.3,790.2,979.5,760,979.5,704.8L979.5,704.8z"/>
</svg>
