<?xml version="1.0" encoding="utf-8"?>
<!-- Generator: Adobe Illustrator 27.0.0, SVG Export Plug-In . SVG Version: 6.00 Build 0)  -->
<svg version="1.1" id="Capa_1" xmlns="http://www.w3.org/2000/svg" xmlns:xlink="http://www.w3.org/1999/xlink" x="0px" y="0px"
	 viewBox="0 0 1080 1080" style="enable-background:new 0 0 1080 1080;" xml:space="preserve">
<style type="text/css">
	.st0{fill:#4CAF50;}
	.st1{fill-rule:evenodd;clip-rule:evenodd;fill:#C8E6C9;}
	.st2{fill-rule:evenodd;clip-rule:evenodd;fill:#A5D6A7;}
</style>
<path class="st0" d="M886.89,223.03H521.51L419.15,110.78c-9.7-14.6-29.19-19.5-43.88-19.5H97.57C43.99,91.28,5,135.16,5,188.85
	v585.69c0,53.68,38.99,97.57,92.57,97.57h794.22c48.68,0,92.57-43.88,92.57-97.57V320.7C979.46,267.02,940.57,223.03,886.89,223.03
	L886.89,223.03z M886.89,774.53H97.57V188.85h268.01L467.94,301.1c9.7,14.6,29.19,19.5,43.88,19.5h380.06v453.94L886.89,774.53
	L886.89,774.53z"/>
<path class="st1" d="M664.11,678.51v205.45L458.66,783.27V577.83C458.66,577.83,664.11,678.51,664.11,678.51z M871.59,783.27V577.83
	L1075,678.51L871.59,783.27z"/>
<path class="st2" d="M664.11,678.51v205.45l207.49-100.68V577.83L664.11,678.51z M871.59,783.27v205.45L1075,883.96V678.51
	L871.59,783.27z"/>
</svg>
