<?xml version="1.0" encoding="utf-8"?>
<!-- Generator: Adobe Illustrator 24.1.1, SVG Export Plug-In . SVG Version: 6.00 Build 0)  -->
<svg version="1.1" id="Capa_1" xmlns="http://www.w3.org/2000/svg" xmlns:xlink="http://www.w3.org/1999/xlink" x="0px" y="0px"
	 viewBox="0 0 1080 1080" style="enable-background:new 0 0 1080 1080;" xml:space="preserve">
<style type="text/css">
	.st0{fill:#4CAF50;}
	.st1{fill:#C8E6C9;}
</style>
<path class="st0" d="M880.7,243.9H515.8L413.7,131.8c-9.7-14.6-29.2-19.5-43.8-19.5H92.6C43.9,112.3,5,156.2,5,209.8v584.8
	C5,848.2,43.9,892,97.4,892h793c48.6,0,92.4-43.9,92.4-97.5V341.3C973.1,287.7,939.1,243.9,880.7,243.9z M880.7,794.5h-793V209.8
	h267.6l102.2,112.1c9.7,14.6,29.2,19.5,43.8,19.5h379.5V794.5z"/>
<g>
	<g transform="matrix(.70678 0 0 .70678 2.0645 -.22446)">
		<path class="st1" d="M940.6,1369.5c-4.8,0-4.8,0-9.6,0c-24-9.6-38.5-33.6-33.6-57.7l129.8-692.1c0-14.4,9.6-24,19.2-33.6
			c9.6-4.8,24-9.6,33.6-4.8c24,9.6,38.5,33.6,33.6,57.7L983.9,1331c0,14.4-9.6,24-19.2,33.6C959.8,1364.7,950.2,1369.5,940.6,1369.5
			z"/>
	</g>
	<g transform="matrix(.70678 0 0 .70678 2.0645 -.22446)">
		<path class="st1" d="M1205,1268.6L1205,1268.6c-14.4,0-28.8-9.6-33.6-19.2c-14.4-19.2-14.4-48.1,4.8-67.3L1402,960.9l-225.9-197.1
			c-19.2-19.2-19.2-48.1-4.8-67.3c9.6-9.6,19.2-19.2,33.6-19.2s24,4.8,33.6,9.6L1503,927.3c19.2,19.2,19.2,48.1,4.8,67.3
			c0,4.8-4.8,4.8-4.8,9.6l-259.6,254.7C1224.2,1263.7,1214.6,1268.6,1205,1268.6z"/>
	</g>
	<g transform="matrix(.70678 0 0 .70678 2.0645 -.22446)">
		<path class="st1" d="M810.8,1268.6c-9.6,0-24-4.8-28.8-14.4L517.6,999.4c-4.8,0-4.8-4.8-4.8-9.6c-14.4-19.2-9.6-48.1,4.8-67.3
			L782,682.2c9.6-9.6,19.2-14.4,33.6-9.6c14.4,0,24,9.6,33.6,19.2c14.4,19.2,9.6,48.1-4.8,67.3L623.4,960.9L849.3,1182
			c19.2,19.2,19.2,48.1,4.8,67.3C839.7,1263.7,830.1,1268.6,810.8,1268.6L810.8,1268.6z"/>
	</g>
</g>
</svg>
