<?xml version="1.0" encoding="utf-8"?>
<!-- Generator: Adobe Illustrator 24.1.1, SVG Export Plug-In . SVG Version: 6.00 Build 0)  -->
<svg version="1.1" id="Capa_1" xmlns="http://www.w3.org/2000/svg" xmlns:xlink="http://www.w3.org/1999/xlink" x="0px" y="0px"
	 viewBox="0 0 1080 1080" style="enable-background:new 0 0 1080 1080;" xml:space="preserve">
<style type="text/css">
	.st0{fill:#FFCA28;}
	.st1{fill-rule:evenodd;clip-rule:evenodd;fill:#FFECB3;}
</style>
<path class="st0" d="M885.6,258.2H520.8L418.5,146c-9.7-14.7-29.2-19.5-43.8-19.5H97.4C43.9,126.5,5,170.4,5,224v584.7
	c0,53.6,38.9,97.5,92.4,97.5h793c48.6,0,92.4-43.9,92.4-97.5V355.5C978,301.9,939.2,258.2,885.6,258.2z"/>
<path class="st1" d="M793,319c-155.8,0-282,63.1-282,141s126.2,141,282,141s282-63.1,282-141S948.8,319,793,319 M511,530.5v105.7
	c0,77.9,126.2,141,282,141s282-63.1,282-141V530.5c0,77.9-126.2,141-282,141S511,608.4,511,530.5 M511,706.8v105.7
	c0,77.9,126.2,141,282,141s282-63.1,282-141V706.8c0,77.9-126.2,141-282,141S511,784.7,511,706.8z"/>
</svg>
