<?xml version="1.0" encoding="utf-8"?>
<!-- Generator: Adobe Illustrator 24.1.1, SVG Export Plug-In . SVG Version: 6.00 Build 0)  -->
<svg version="1.1" id="Capa_1" xmlns="http://www.w3.org/2000/svg" xmlns:xlink="http://www.w3.org/1999/xlink" x="0px" y="0px"
	 viewBox="0 0 1080 1080" style="enable-background:new 0 0 1080 1080;" xml:space="preserve">
<style type="text/css">
	.st0{fill:#1976D2;}
	.st1{fill-rule:evenodd;clip-rule:evenodd;fill:#BBDEFB;}
</style>
<path class="st0" d="M885.6,272.3H520.8L418.5,160.1c-9.7-14.7-29.2-19.5-43.8-19.5H97.4C43.9,140.6,5,184.5,5,238.1v584.7
	c0,53.6,38.9,97.5,92.4,97.5h793c48.6,0,92.4-43.9,92.4-97.5V369.7C978,316.1,939.2,272.3,885.6,272.3z"/>
<path class="st1" d="M845.1,640c0,32.3-26.2,58.4-58.4,58.4l0,0c-32.3,0-58.4-26.2-58.4-58.4c0,0,0,0,0,0
	c0-32.3,26.2-58.4,58.4-58.4l0,0C818.9,581.5,845.1,607.7,845.1,640L845.1,640z M1046,490.2c-12.7-21.9-28.1-42-45.9-60l-67.5,39
	c-21-18-45-31.8-70.5-40.9c-23.1,23.4-41.4,49.5-54.6,77.9c75.2-5.1,152.8,22.1,224.9,78.4l42.5-24.5
	C1068.2,535.7,1058.5,512.2,1046,490.2L1046,490.2z M1046,789.6c12.6-21.9,22.3-45.4,29-69.7l-67.5-39c5-27.2,5-54.8,0.1-81.5
	c-31.8-8.3-63.5-11.1-94.7-8.3c42,62.5,57.3,143.4,44.5,234l42.5,24.5C1017.8,831.6,1033.2,811.5,1046,789.6L1046,789.6z
	 M786.7,939.4c25.3-0.1,50.4-3.3,74.9-9.7v-78c26.1-9.2,50-23.1,70.6-40.6c-8.7-31.6-22.2-60.6-40.1-86.2
	c-33.2,67.7-95.5,121.3-180.3,155.6v49.1C736.2,935.9,761.4,939.2,786.7,939.4L786.7,939.4z M527.4,789.7c12.7,21.9,28.1,42,45.9,60
	l67.5-39c21,18,45,31.8,70.5,40.9c23.1-23.4,41.4-49.5,54.6-77.9c-75.2,5.1-152.8-22.1-224.9-78.4l-42.5,24.5
	C505.1,744.2,514.8,767.7,527.4,789.7L527.4,789.7z M527.4,490.3c-12.6,21.9-22.3,45.4-29,69.7l67.5,39c-5,27.2-5,54.8-0.1,81.5
	c31.8,8.3,63.5,11.1,94.7,8.3c-42-62.5-57.3-143.4-44.5-234l-42.5-24.5C555.6,448.3,540.1,468.4,527.4,490.3L527.4,490.3z
	 M786.7,340.5c-25.3,0.1-50.4,3.3-74.9,9.7v78c-26.1,9.2-50,23.1-70.6,40.6c8.7,31.6,22.2,60.6,40.1,86.2
	c33.2-67.7,95.5-121.3,180.3-155.6v-49.1C837.1,344,812,340.7,786.7,340.5L786.7,340.5z"/>
</svg>
