<?xml version="1.0" encoding="utf-8"?>
<!-- Generator: Adobe Illustrator 24.1.1, SVG Export Plug-In . SVG Version: 6.00 Build 0)  -->
<svg version="1.1" id="Capa_1" xmlns="http://www.w3.org/2000/svg" xmlns:xlink="http://www.w3.org/1999/xlink" x="0px" y="0px"
	 viewBox="0 0 1080 1080" style="enable-background:new 0 0 1080 1080;" xml:space="preserve">
<style type="text/css">
	.st0{fill:#AB47BC;}
	.st1{fill:#E1BEE7;}
</style>
<path class="st0" d="M880.7,242.2H515.8L413.7,130.1c-9.7-14.6-29.2-19.5-43.8-19.5H92.6C43.9,110.6,5,154.4,5,208v584.8
	c0,53.6,38.9,97.5,92.4,97.5h793c48.6,0,92.4-43.9,92.4-97.5V339.6C973.1,286,939.1,242.2,880.7,242.2z M880.7,792.8h-793V208h267.6
	l102.2,112.1c9.7,14.6,29.2,19.5,43.8,19.5h379.5V792.8z"/>
<path class="st1" d="M781.9,324.6L479,432l44,395.7l254,141.7l254-141.7l44-395.7L781.9,324.6z M718.4,427.2
	c9.8,0,24.4,4.9,39.1,9.8c4.9,4.9,24.4,9.8,39.1,9.8c58.6,9.8,127,53.7,146.6,97.7c14.7,29.3,9.8,44-9.8,58.6
	c-19.5,9.8-58.6,4.9-117.2-14.7l-48.9-14.7l-19.5,0c-24.4,9.8-48.9,34.2-63.5,58.6c-9.8,19.5-9.8,24.4-4.9,53.7
	c0,29.3,4.9,39.1,14.7,53.7c9.8,19.5,39.1,48.9,44,44c0,0,0-9.8-4.9-19.5c-4.9-9.8-4.9-19.5-4.9-19.5s14.7,4.9,24.4,14.7
	c29.3,24.4,63.5,39.1,97.7,44c24.4,4.9,34.2,0,14.7-9.8c-4.9-4.9-14.7-9.8-19.5-14.7c-9.8-9.8-9.8-9.8,24.4-14.7
	c19.5-4.9,58.6-24.4,63.5-34.2c0,0-4.9-4.9-14.7-4.9c-9.8,0-19.5,0-19.5,0s9.8-9.8,19.5-24.4c34.2-39.1,48.9-68.4,53.7-122.1
	l4.9-39.1l9.8,19.5c9.8,19.5,9.8,48.9,4.9,73.3c-4.9,19.5,0,24.4,9.8,4.9c14.7-19.5,14.7-19.5,14.7,14.7c0,34.2-14.7,58.6-39.1,87.9
	c-19.5,24.4-19.5,29.3,4.9,9.8c24.4-14.7,29.3-14.7,14.7,9.8c-24.4,44-73.3,83-127,92.8c-29.3,9.8-53.7,9.8-83,4.9
	c-78.2-9.8-146.6-58.6-180.8-127c-9.8-19.5-19.5-39.1-29.3-48.9c-24.4-9.8-24.4-19.5-14.7-34.2c4.9-4.9,4.9-14.7,4.9-24.4
	c-9.8-48.9-9.8-48.9,9.8-68.4c14.7-19.5,19.5-19.5,19.5-39.1s0-24.4,9.8-29.3c4.9-4.9,14.7-9.8,19.5-9.8c14.7,0,39.1-14.7,53.7-29.3
	C689.1,432,703.7,427.2,718.4,427.2L718.4,427.2z"/>
</svg>
