<?xml version="1.0" encoding="utf-8"?>
<!-- Generator: Adobe Illustrator 24.1.1, SVG Export Plug-In . SVG Version: 6.00 Build 0)  -->
<svg version="1.1" id="Capa_1" xmlns="http://www.w3.org/2000/svg" xmlns:xlink="http://www.w3.org/1999/xlink" x="0px" y="0px"
	 viewBox="0 0 1080 1080" style="enable-background:new 0 0 1080 1080;" xml:space="preserve">
<style type="text/css">
	.st0{fill:#0288D1;}
	.st1{fill:#B3E5FC;}
</style>
<path class="st0" d="M885.6,262.1H520.7L418.5,150c-9.7-14.6-29.2-19.5-43.8-19.5H97.4C43.9,130.5,5,174.4,5,228v584.8
	c0,53.6,38.9,97.5,92.4,97.5h793c48.6,0,92.4-43.9,92.4-97.5V359.6C978,306,939.1,262.1,885.6,262.1z M885.6,812.8H97.4V228H365
	l102.2,112.1c9.7,14.6,29.2,19.5,43.8,19.5h379.5v453.2H885.6z"/>
<path class="st1" d="M778.4,462c-34-4.9-63.2,24.3-68.1,58.4l-9.7,92.4h87.5V676h-92.4l-14.6,160.5C676.2,904.6,613,958,545,948.3
	c-38.9-4.9-72.9-24.3-97.3-58.4l48.6-48.6c9.7,34,43.8,53.5,77.8,38.9c24.3-9.7,43.8-29.2,43.8-53.5L632.5,676h-92.4v-63.2h97.3
	l9.7-97.3c4.9-68.1,68.1-121.6,136.2-116.7c38.9,4.9,72.9,24.3,97.3,58.4l-48.6,48.6C822.1,481.5,802.7,462,778.4,462 M1075,724.6
	l-43.8-43.8l-87.5,87.5l-87.5-87.5l-43.8,43.8l87.5,87.5l-87.5,87.5l43.8,43.8l87.5-87.5l87.5,87.5l43.8-43.8l-87.5-87.5L1075,724.6
	z"/>
</svg>
