<?xml version="1.0" encoding="utf-8"?>
<!-- Generator: Adobe Illustrator 27.0.0, SVG Export Plug-In . SVG Version: 6.00 Build 0)  -->
<svg version="1.1" id="Capa_1" xmlns="http://www.w3.org/2000/svg" xmlns:xlink="http://www.w3.org/1999/xlink" x="0px" y="0px"
	 viewBox="0 0 1080 1080" style="enable-background:new 0 0 1080 1080;" xml:space="preserve">
<style type="text/css">
	.st0{fill:#546E7A;}
	.st1{fill-rule:evenodd;clip-rule:evenodd;fill:#CFD8DC;}
</style>
<path class="st0" d="M396.94,129.1H102.98C48.6,129.1,5,172.71,5,227.09v587.9c0,53.74,44.24,97.98,97.98,97.98h783.87
	c53.74,0,97.98-44.24,97.98-97.98V325.07c0-54.12-43.87-97.98-97.98-97.98H494.92L396.94,129.1z"/>
<path class="st1" d="M775.2,351.35c-165.57,0-299.8,134.22-299.8,299.8C475.43,816.7,609.65,950.9,775.2,950.9
	c165.57,0,299.8-134.22,299.8-299.8l0,0c-0.03-34.69-6.23-69.09-18.29-101.61l-47.97,47.97c4.19,17.67,6.29,35.68,6.29,53.64
	c0,132.45-107.37,239.82-239.82,239.82l0,0c-132.45,0-239.82-107.37-239.82-239.82v0c0-132.45,107.37-239.82,239.82-239.82l0,0
	c18.01,0,35.97,2.14,53.64,6.34l48.31-48.26C844.46,357.55,809.97,351.46,775.2,351.35 M985.06,351.35L865.15,471.26v44.97
	l-76.51,76.41c-4.48-1.48-8.96-1.48-13.48-1.48c-33.1,0-59.93,26.83-59.93,59.93c0,0.01,0,0.03,0,0.04
	c0,33.1,26.83,59.93,59.93,59.93c0,0,0,0,0,0c33.1,0.02,59.95-26.79,59.98-59.89c0-0.01,0-0.03,0-0.04c0-4.53,0-9.05-1.52-13.53
	l76.46-76.41h44.97l119.91-119.91h-89.94v-89.94 M775.15,471.26c-99.31,0.03-179.81,80.53-179.84,179.84
	c0,99.33,80.51,179.86,179.84,179.89c99.35,0,179.89-80.54,179.89-179.89l0,0h-59.98c0,66.22-53.68,119.91-119.91,119.91
	S655.25,717.32,655.25,651.1l0,0c0-66.22,53.68-119.91,119.91-119.91l0,0L775.15,471.26z"/>
</svg>
