<?xml version="1.0" encoding="utf-8"?>
<!-- Generator: Adobe Illustrator 24.1.1, SVG Export Plug-In . SVG Version: 6.00 Build 0)  -->
<svg version="1.1" id="Capa_1" xmlns="http://www.w3.org/2000/svg" xmlns:xlink="http://www.w3.org/1999/xlink" x="0px" y="0px"
	 viewBox="0 0 1080 1080" style="enable-background:new 0 0 1080 1080;" xml:space="preserve">
<style type="text/css">
	.st0{fill:#F44336;}
</style>
<path class="st0" d="M989.3,932.6L883.6,927L588,44.1C580.2,20.7,558.3,5,533.7,5h-27.9C481,5,459,21,451.3,44.6L164.8,927.5
	l-75,5.2c-30,2.1-53.3,27-53.3,57.1v27.9c0,31.6,25.6,57.3,57.3,57.3h276.6c31.6,0,57.3-25.6,57.3-57.3v-27.9
	c0-30.3-23.5-55.3-53.7-57.2l-49.7-3.1L387.3,730H654l65.3,198.5l-82.3,4.1c-30.5,1.5-54.4,26.7-54.4,57.2v27.9
	c0,31.6,25.6,57.3,57.3,57.3h346.4c31.6,0,57.3-25.6,57.3-57.3v-27.9C1043.6,959.3,1019.7,934.2,989.3,932.6z M432.4,587.5l85.7-271
	l89.1,271H432.4z"/>
</svg>
