<?xml version="1.0" encoding="utf-8"?>
<!-- Generator: Adobe Illustrator 24.1.1, SVG Export Plug-In . SVG Version: 6.00 Build 0)  -->
<svg version="1.1" id="Capa_1" xmlns="http://www.w3.org/2000/svg" xmlns:xlink="http://www.w3.org/1999/xlink" x="0px" y="0px"
	 viewBox="0 0 1080 1080" style="enable-background:new 0 0 1080 1080;" xml:space="preserve">
<style type="text/css">
	.st0{fill:#EF5350;}
</style>
<path class="st0" d="M13.5,51C8.8,51,5,54.9,5,59.7v282.5c0,4.8,3.8,8.7,8.5,8.7h378.5c4.7,0,8.5-3.9,8.5-8.7V59.7
	c0-4.8-3.8-8.7-8.5-8.7H13.5z M688,51c-4.7,0-8.5,3.9-8.5,8.7v282.5c0,4.8,3.8,8.7,8.5,8.7h378.5c4.7,0,8.5-3.9,8.5-8.7V59.7
	c0-4.8-3.8-8.7-8.5-8.7H688z M13.5,550.3c-4.7,0-8.5,3.9-8.5,8.7v282.5c0,4.8,3.8,8.7,8.5,8.7h378.5c4.7,0,8.5-3.9,8.5-8.7V559
	c0-4.8-3.8-8.7-8.5-8.7H13.5z M688,550.3c-4.7,0-8.5,3.9-8.5,8.7v282.5c0,4.8,3.8,8.7,8.5,8.7h90.6v97.3h-90.1
	c-4.6,0-8.4,3.7-8.4,8.4v64.6c0,4.6,3.7,8.4,8.4,8.4h185.7c4.6,0,8.4-3.7,8.4-8.4v-92.5h84.9c4.6,0,8.4-3.7,8.4-8.4v-69.5h90.7
	c4.7,0,8.5-3.9,8.5-8.7V559c0-4.8-3.8-8.7-8.5-8.7L688,550.3z"/>
</svg>
