<?xml version="1.0" encoding="utf-8"?>
<!-- Generator: Adobe Illustrator 24.1.1, SVG Export Plug-In . SVG Version: 6.00 Build 0)  -->
<svg version="1.1" id="Capa_1" xmlns="http://www.w3.org/2000/svg" xmlns:xlink="http://www.w3.org/1999/xlink" x="0px" y="0px"
	 viewBox="0 0 1080 1080" style="enable-background:new 0 0 1080 1080;" xml:space="preserve">
<style type="text/css">
	.st0{fill:#FF7043;}
</style>
<g transform="translate(3.2316e-7 1.1732e-6)">
	<path class="st0" d="M960,272.7h-56.6c-10.6-39.7-32.7-82.2-66.4-127.4c-33.2-45.2-65.2-70.1-95.9-74.7c-15.6-2-34.2-3.5-55.8-4.5
		c-21.1-1-45.3-1.5-72.5-1.5H433.2v429.8h123c37.2,0,66.2-3.8,86.8-11.3c20.6-8,38.2-20.1,52.8-36.2c10.1-11.1,19.1-28.2,27.2-51.3
		c8.6-23.6,14.1-48.8,16.6-75.4H797v420h-57.4c-1.5-22.1-6.8-47.3-15.8-75.4c-8.6-28.2-17.9-48.5-27.9-61.1
		c-15.1-18.6-34.2-31.2-57.4-37.7c-22.6-7-50.1-10.6-82.3-10.6h-123v368.7c0,16.6,3.3,31.4,9.8,44.5c6.5,13.1,18.1,23.6,34.7,31.7
		c7.5,3.5,23.9,7.8,49.1,12.8c25.2,5,44.3,7.8,57.4,8.3v53.5H120v-53.5c15.1-1,35.2-2.5,60.4-4.5c25.2-2.5,41.5-5.5,49.1-9
		c15.1-6.5,25.9-16.1,32.5-28.7c7-13.1,10.6-28.7,10.6-46.8V160.3c0-16.6-2.8-31.2-8.3-43.7c-5.5-13.1-17.1-23.6-34.7-31.7
		c-13.6-6.5-31.9-12.3-55.1-17.3c-22.6-5-40.8-8-54.3-9V5h840L960,272.7z"/>
</g>
</svg>
