<?xml version="1.0" encoding="utf-8"?>
<!-- Generator: Adobe Illustrator 24.1.1, SVG Export Plug-In . SVG Version: 6.00 Build 0)  -->
<svg version="1.1" id="Capa_1" xmlns="http://www.w3.org/2000/svg" xmlns:xlink="http://www.w3.org/1999/xlink" x="0px" y="0px"
	 viewBox="0 0 1080 1080" style="enable-background:new 0 0 1080 1080;" xml:space="preserve">
<style type="text/css">
	.st0{fill:#FBC02D;}
	.st1{fill:#FF9800;}
	.st2{fill:#263238;}
</style>
<g transform="matrix(.91097 0 0 .91097 12.11 35.349)">
	<g transform="matrix(1.1375 0 0 1.1375 1.0368 -31.667)">
		<path class="st0" d="M367.9,1028.9c6.2-1.7,17.5-3.4,25.2-3.6l14-0.4v-18.3c0-34.9-22.9-89.7-49.9-119.4
			c-4.4-4.8-19.7-14.7-34.1-22c-25.4-12.9-26.9-13.1-57.9-10.9c-17.5,1.2-41.9,5-54.2,8.4c-76.2,20.8-193.9-36.5-194.1-94.5
			c-0.1-21.5,9.3-30,40-36.4c36.9-7.7,62.3-19.8,65.1-30.8c4.2-16.9-1.1-69.8-8.4-83.4c-5.2-9.6-6.9-20.9-7-44.6
			c-0.1-30.3,0.6-32.8,14-54.2c7.7-12.3,22-32.2,31.6-44.2c16.4-20.3,17.7-23.5,19-46.7c1.5-26.9-8.6-74.5-22.3-105.2
			c-15.5-34.7-13.2-128.6,4.8-199.7C172.1,50.3,208.7-7.9,231.3-0.7c7.5,2.4,8,3.7,33.8,90c7.6,25.5,8.7,26.9,31.5,41.9
			c37.7,24.8,72.2,65,107.1,124.6l9.7,16.5l36.8,4.6c62.3,7.9,135.4,36.2,175.2,67.9c8.1,6.5,17.4,11,20.5,10
			c3.2-1,24.9-10.5,48.4-21.2c50.7-23,101.8-40.2,171.3-57.6c73.5-18.4,114.4-25.8,126-22.9c10,2.5,10.1,2.7,7.8,27.6
			c-2.6,28.3-18.2,77.4-35.2,111c-26.1,51.6-90.1,122.6-150.9,167.3c-27.4,20.2-28.8,21.9-31.1,38.9
			c-18.9,142.1-57.2,220.6-156.7,320.7c-46.6,46.9-50.3,49.7-91.5,69.9c-56.2,27.5-85.3,35.2-158.7,41.7
			C360.9,1031.7,359.2,1031.4,367.9,1028.9L367.9,1028.9z M78.3,825.8c-0.9-0.6-4.9-3.5-9-6.5c-6.9-5.1-7.1-5-2.3,1.1
			c2.8,3.6,6.9,6.5,9,6.5S79.2,826.4,78.3,825.8z"/>
		<path class="st1" d="M367.9,1028.9c6.2-1.7,17.5-3.4,25.2-3.6l14-0.4l0-17.7c-0.1-20.7-6.7-47.7-18-73.3
			c-5.9-13.3-6.5-16.9-2.4-13.5c10.6,8.8,10,0.5-1.2-15.7c-13-18.9-31.9-34.8-60.8-51.1c-11.4-6.4-24.4-15.9-28.8-21.1
			c-4.9-5.7-12.1-9.4-18.2-9.4c-9.7,0-9.6,0.4,5.6,12c8.6,6.6,15.6,13.1,15.6,14.4c0,1.3-14.7,3.4-32.7,4.7
			c-18,1.3-42.7,5.1-55.1,8.4c-76.2,20.8-193.9-36.5-194.1-94.5c-0.1-21.5,9.3-30,40-36.4c37-7.8,62.3-19.7,65.1-30.9
			c4.5-17.8-1.5-72.9-10-92c-6.4-14.4-7.8-23.5-6.7-43c1.6-27.4,12.5-48.7,46.9-91.4c16.4-20.3,17.7-23.5,19-46.7
			c1.5-26.9-8.6-74.5-22.3-105.2c-15.5-34.7-13.2-128.6,4.8-199.7C172.1,50.3,208.7-7.9,231.3-0.7c7.5,2.4,8,3.7,33.8,90
			c7.6,25.5,8.7,26.9,31.5,41.9c37.7,24.8,72.2,65,107.1,124.6l9.7,16.5l36.8,4.6c62.3,7.9,135.4,36.2,175.2,67.9
			c8.1,6.5,17.4,11,20.5,10c3.2-1,24.9-10.5,48.4-21.2c50.7-23,101.8-40.2,171.3-57.6c73.5-18.4,114.4-25.8,126-22.9
			c10,2.5,10.1,2.7,7.8,27.6c-2.6,28.3-18.2,77.4-35.2,111c-26.1,51.6-90.1,122.6-150.9,167.3c-27.4,20.2-28.8,21.9-31.1,38.9
			c-18.9,142.1-57.2,220.6-156.7,320.7c-46.6,46.9-50.3,49.7-91.5,69.9c-56.2,27.5-85.3,35.2-158.7,41.7
			C360.9,1031.7,359.2,1031.4,367.9,1028.9L367.9,1028.9z M470.6,964.9c54.8-21.2,106.6-62.5,139.7-111.5
			c39-57.8,67.1-146.2,77.2-242.5l4.8-46l25.5-22.6c27.5-24.4,58.5-68.1,79.7-112.3c16.2-33.9,16.6-45.5,1.9-53.2
			C776,364.7,700.5,373,632.7,395c-46.8,15.2-53.2,15.9-70.8,7.5l-12.5-6l-27.2,18.1c-15,9.9-45.6,36.2-68.1,58.3
			c-40.3,39.7-50.6,46.5-50.6,33.5c0-9.2,51.6-66.1,88.7-97.8c24.3-20.7,33.5-26.3,42.9-26.4c8.7,0,10.6-1,6.7-3.5
			c-3-1.9-13.1-2.5-22.6-1.4c-14.5,1.7-21.3,0-43.1-10.8c-14.3-7.1-43.6-20.3-65.2-29.4c-35.5-14.9-42-19.3-69.4-46.4
			c-16.6-16.5-40.8-45.9-53.7-65.4c-27.5-41.5-35.6-51.1-49.5-58.3c-24.2-12.6-40.8,7.3-53.3,63.8c-7.7,34.6-5.9,106.1,3.9,157
			c9,47,4,67.2-26.3,106.6c-33.5,43.4-38.8,70.9-22.7,117.6c12,34.9,17.6,71.3,12.8,84.1c-8.4,22.5-44.2,48.6-66.6,48.6
			c-10.9,0-11.5,0.7-9.2,11c2.9,13-8.7,48.8-15.8,48.8c-7.1,0-5.7,6.3,3.3,14.6c12.8,11.9,39.8,23,60.6,24.9
			c16.4,1.5,17.8,1.1,9.8-2.5c-5.1-2.3-14.4-6.5-20.5-9.4l-11.2-5.2l14.9,2.7c24.8,4.6,76.8,2.6,105.3-4.1
			c14.8-3.4,36.1-6.3,47.5-6.3c38.9,0,89.8,26.4,119.6,62.1c15.1,18,39.3,68.5,39.4,82C429.6,979.4,432.6,979.5,470.6,964.9
			L470.6,964.9z M450.1,810.2C327.2,788.6,312.5,785.6,307,781c-10.2-8.5,9.5-8.5,114.5-0.1c56.8,4.5,104.2,7.1,105.5,5.6
			c1.2-1.4,4-20.8,6.2-43.1c2.2-22.3,5-41.5,6.2-42.7c6.2-6.2,10,9.8,13.7,56.8c4.6,58,3.7,61-19.3,63.7
			C526.8,822,489.1,817,450.1,810.2L450.1,810.2z M259.2,702.8c-3-4.9,7.4-13.4,41-33.4c35-20.8,77.8-35.8,117.4-41.1
			c48.3-6.4,61.7,1.6,22,13.3c-15.2,4.5-21.6,8.8-28.9,19.6c-11.9,17.7-34.6,34.1-51.3,37.2c-7.2,1.4-24.4,0.3-38.1-2.3
			c-23-4.3-26.3-4.1-42.4,3C267.4,704.3,260.9,705.5,259.2,702.8L259.2,702.8z M190.8,629.8c-14.9-21.1-18.3-42.1-10.1-61.6
			c3.9-9.4,5.1-20.1,3.7-33.9c-2.2-21.7,2.2-29.3,12.2-21c3.1,2.5,11.6,15.4,18.9,28.5c15.7,28,17.9,54.2,7.2,86.2
			C214.4,652.8,207.3,653.2,190.8,629.8L190.8,629.8z"/>
		<path class="st2" d="M367.9,1028.9c6.2-1.7,17.5-3.4,25.2-3.6c8.5-0.3,14-2.3,14-5.1c0-2.6,19.2-11.1,43.9-19.3
			c55.4-18.5,90.9-34.8,123-56.6c104.5-70.9,172.7-203.2,172.8-335.2c0-37.7,1.2-39.5,39.1-62.4c30.5-18.4,110.3-98.8,110.3-111
			c0-1.9,5.2-11.4,11.7-21.1c14.4-21.7,37.4-84.1,39.6-107.3c1.6-16.4,1.2-17.3-9-19.2c-37.2-7.1-145.1,20.1-240.2,60.7
			c-69.7,29.7-67.2,29.5-101.3,10.1c-56.1-32-113.7-54.5-164.5-64.1c-16.8-3.2-30.8-6.2-31.1-6.7c-4.4-7.1-48.1-64.9-58.5-77.5
			c-7.7-9.2-26.6-27.7-41.9-40.9c-29.9-25.8-41.5-43.4-54.1-82.1c-9.5-29.3-17.1-41.4-25.6-41.2c-3.5,0.1-13.5,8.2-22.1,18.1
			c-17.6,20.1-27.4,50.5-35.1,108.2c-6,45.3-2.1,144.5,7.9,200.5c11.3,63,6.2,85.1-26.5,115.8l-15.9,14.9l15.6-19.2
			c22.5-27.6,26.8-37.7,26.8-63c0-23.4-14.2-83.4-24.6-103.4c-8.2-15.9-11.3-88.5-5.5-132C155.3,83.5,200.4-10.6,231.3-0.7
			c7.5,2.4,8,3.7,33.8,90c7.6,25.5,8.7,26.9,31.5,41.9c37.7,24.8,72.2,65,107.1,124.6l9.7,16.5l36.6,4.6
			c63.3,8,139.1,38.2,181.9,72.4l10.1,8.1l33.9-15.7c18.6-8.7,48.5-21.4,66.4-28.3c68.4-26.4,229.1-65.3,249.1-60.2
			c10.3,2.6,10.4,2.6,8,27.7c-2.6,28.3-18.2,77.4-35.2,111c-26.1,51.6-90.1,122.6-150.9,167.3C786,579.3,784.6,581,782.3,598
			c-18.9,142.1-57.2,220.6-156.7,320.7c-46.6,46.9-50.3,49.7-91.5,69.9c-56.2,27.5-85.3,35.2-158.7,41.7
			C360.9,1031.7,359.2,1031.4,367.9,1028.9L367.9,1028.9z M130.9,862c-29.8-8-74.4-31-89.7-46.4c-26.1-26.1-32.5-56.8-15.2-72.5
			c3.9-3.5,18.1-8.7,31.6-11.5c31.6-6.6,53.3-16.4,69-31.1c6.9-6.5,14.9-11.8,17.7-11.8c18.1,0-22.4,41.9-47.1,48.6
			c-9.2,2.5-18.9,5.2-21.4,5.9c-3.4,1-3.6,3.9-1,11c4.3,11.3-2.9,31.9-16.1,46l-8.2,8.8l11.2,9.1c39.8,32.3,85.2,38.5,160.6,21.9
			c46.5-10.2,47.8-10.3,59.9-3.8c22.2,12,18.9,15.7-16.4,18.2c-17.8,1.3-41.6,4.8-52.9,8C187.5,869.2,157.7,869.2,130.9,862
			L130.9,862z M504.2,813.5c-3.1-0.7-43-7.3-88.8-14.7c-88.4-14.2-95.3-15.8-92.2-20.8c2.1-3.4,3.7-3.3,124.4,6
			c41.8,3.2,78.1,5.1,80.7,4.1c3-1.2,5.6-14.9,7.3-39.4c2.6-36.7,7.3-50.5,11.3-33.2c1.1,4.7,3.6,26.1,5.5,47.5
			c4.4,49.2,2.9,52.7-23.2,52.1C518.6,815,507.3,814.2,504.2,813.5L504.2,813.5z M277.8,687.2c35.3-32.2,118.6-61.4,167.8-58.7
			c9.5,0.5,4.7,6.5-7.7,9.5c-5.7,1.4-20.5,13.2-32.9,26.2c-28.2,29.6-43.1,34.8-79,27.7c-19.4-3.9-26.2-3.9-35.8,0
			C265.6,701.9,262.9,700.9,277.8,687.2L277.8,687.2z M193.1,622.5c-15-23.6-16.6-35.3-7.9-56.2c4.1-9.9,5.1-19.5,3.3-33.9
			c-2.3-18.1-1.8-19.9,4.3-18.8c3.7,0.7,12.7,11.4,19.9,23.7c16.5,28.1,19.6,57.5,9.1,85.6c-3.8,10.1-8.7,19-10.9,19.7
			C208.6,643.4,200.6,634.3,193.1,622.5L193.1,622.5z M407.1,503.8c0-7.3,46.2-59.4,73.2-82.6c33.1-28.4,43.3-35.2,52.6-35.2
			c15.2,0,9.4,10-16.6,28.5c-13.9,9.8-42.7,35.2-64.1,56.4c-21.4,21.2-40.3,38.5-42,38.5S407.1,506.9,407.1,503.8L407.1,503.8z"/>
	</g>
</g>
</svg>
