<?xml version="1.0" encoding="utf-8"?>
<!-- Generator: Adobe Illustrator 24.1.1, SVG Export Plug-In . SVG Version: 6.00 Build 0)  -->
<svg version="1.1" id="Capa_1" xmlns="http://www.w3.org/2000/svg" xmlns:xlink="http://www.w3.org/1999/xlink" x="0px" y="0px"
	 viewBox="0 0 1080 1080" style="enable-background:new 0 0 1080 1080;" xml:space="preserve">
<style type="text/css">
	.st0{fill:#FFFFFF;}
	.st1{fill:#515151;}
	.st2{fill:#1D79BF;}
	.st3{fill:#383838;}
</style>
<g transform="matrix(.87285 0 0 .87285 10.17 10.175)">
	<g id="Fuse_Box">
		<g id="LOGO">
			<polygon class="st0" points="607.5,10.9 1176.6,201.9 1117.5,874.3 616,1201.2 80.8,864.6 37.1,204.7 			"/>
			<path class="st1" d="M616.1,1219.9L65.4,873.7l-45-680.4l587-199.2l586.2,196.7l-60.9,692.6L616.1,1219.9z M96.2,855.5
				l519.6,326.8l486.5-317.1l57.3-652.2L607.5,27.7L53.9,215.9L96.2,855.5z"/>
			<polygon class="st2" points="606.2,1134.1 606.2,466.6 1119.4,238.2 1073.5,841.7 			"/>
			<polygon id="F" class="st3" points="606.2,1134.1 143.5,847.7 94.3,237.7 606.2,466.6 			"/>
			<path class="st0" d="M216.6,398.1l4.1,122.1l286.4,139.3L508,772L224.3,632.4l12.6,284.2l-111.6-69L86.5,230.6l519.8,236.1v118.4
				L216.6,398.1z"/>
			<path class="st0" d="M1062.6,689.5C1061.9,790,1014,893.2,934,943.3l-328.2,214V466.9l324.1-144.3c39.6-18.5,72.9-11,95.1,23.8
				c14.6,23,22.2,55.4,21.9,93.5c0.5,47.7-11.4,94.8-34.7,136.5C1045.1,591.7,1063.2,626.5,1062.6,689.5z M963.6,482.6
				c0-35.6-15.3-53.1-37.7-41.8L703.5,551.8l-0.6,131.9l225.7-119.4C947.8,554.1,963.6,518.9,963.6,482.6z M980,729.6
				c0-43.7-18.6-63.1-50.2-45.4l-227,127v150l225-133.8C961.8,807.1,979.9,771.7,980,729.6z"/>
			<polygon id="TOP" class="st3" points="606.2,61.6 94.9,237.5 936.6,255.7 292.3,326.3 606.2,466.6 765.4,395.8 552.8,385.3 
				934.5,320.5 1119.4,238.2 			"/>
		</g>
	</g>
</g>
</svg>
