<?xml version="1.0" encoding="utf-8"?>
<!-- Generator: Adobe Illustrator 24.1.1, SVG Export Plug-In . SVG Version: 6.00 Build 0)  -->
<svg version="1.1" id="Capa_1" xmlns="http://www.w3.org/2000/svg" xmlns:xlink="http://www.w3.org/1999/xlink" x="0px" y="0px"
	 viewBox="0 0 1080 1080" style="enable-background:new 0 0 1080 1080;" xml:space="preserve">
<style type="text/css">
	.st0{fill:#FFFFFF;}
	.st1{fill:#663399;}
</style>
<g transform="matrix(.89407 0 0 .89407 1.4831 1.4831)">
	<g>
		<path class="st0" d="M1072.5,602.3H773.3v85.5h205.2c-29.9,128.2-124,235.1-247.9,277.8L239,474.1
			c51.3-149.6,196.6-256.5,363.3-256.5c128.2,0,243.6,64.1,316.3,162.4l64.1-55.6c-85.5-115.4-222.3-192.3-380.4-192.3
			C380.1,132.2,192,290.3,145,499.7l564.2,564.2C914.3,1012.6,1072.5,824.6,1072.5,602.3z"/>
		<path class="st0" d="M132.2,606.6c0,119.7,47,235.1,136.8,324.8s209.4,136.8,324.8,136.8L132.2,606.6z"/>
	</g>
	<path class="st1" d="M602.3,3.9C273.2,3.9,3.9,273.2,3.9,602.3s269.3,598.4,598.4,598.4s598.4-269.3,598.4-598.4
		S931.4,3.9,602.3,3.9z M268.9,935.7c-89.8-89.8-136.8-209.4-136.8-324.8L598,1072.5C478.4,1068.2,358.7,1025.5,268.9,935.7z
		 M704.9,1059.7L145,499.7c47-209.4,235.1-367.6,457.3-367.6c158.1,0,294.9,76.9,380.4,192.3l-64.1,55.6
		c-72.7-98.3-188.1-162.4-316.3-162.4c-166.7,0-307.7,106.9-363.3,256.5l491.5,491.5c124-42.7,218-149.6,247.9-277.8H773.3v-85.5
		h299.2C1072.5,824.6,914.3,1012.6,704.9,1059.7z"/>
</g>
</svg>
