<?xml version="1.0" encoding="utf-8"?>
<!-- Generator: Adobe Illustrator 24.1.1, SVG Export Plug-In . SVG Version: 6.00 Build 0)  -->
<svg version="1.1" id="Capa_1" xmlns="http://www.w3.org/2000/svg" xmlns:xlink="http://www.w3.org/1999/xlink" x="0px" y="0px"
	 viewBox="0 0 1080 1080" style="enable-background:new 0 0 1080 1080;" xml:space="preserve">
<style type="text/css">
	.st0{fill:#F44336;}
	.st1{fill:#448AFF;}
	.st2{fill:#43A047;}
	.st3{fill:#FFC107;}
</style>
<g transform="matrix(7.7863 0 0 7.7863 22.357 -2083.2)">
	<g>
		<path class="st0" d="M85,312h4.2l11.9-12l0.6-5.1c-22.2-19.6-56.2-17.5-75.8,4.7c-5.5,6.2-9.4,13.5-11.6,21.5
			c1.3-0.5,2.8-0.6,4.2-0.3l23.9-3.9c0,0,1.2-2,1.8-1.9C54.9,303.5,72.8,302.1,85,312L85,312z"/>
		<path class="st1" d="M118.1,321.2c-2.7-10.1-8.4-19.2-16.2-26.2l-16.8,16.8c7.1,5.8,11.1,14.5,10.9,23.7v3
			c8.2,0,14.9,6.7,14.9,14.9c0,8.2-6.7,14.9-14.9,15c0,0,0,0,0,0H66.2l-3,3v17.9l3,3h29.8c21.4,0.2,38.9-17.1,39.1-38.5
			C135.3,340.7,128.9,328.5,118.1,321.2L118.1,321.2z"/>
		<path class="st2" d="M36.4,392.1h29.8v-23.9H36.4c-2.1,0-4.2-0.5-6.2-1.3l-4.2,1.3l-12,12l-1,4.2
			C19.7,389.4,27.9,392.1,36.4,392.1L36.4,392.1z"/>
		<path class="st3" d="M36.4,314.5c-21.4,0.1-38.7,17.6-38.6,39.1c0.1,12,5.7,23.3,15.1,30.6l17.3-17.3c-7.5-3.4-10.8-12.2-7.5-19.8
			c3.4-7.5,12.2-10.9,19.7-7.5c3.3,1.5,6,4.1,7.5,7.5l17.3-17.3C59.9,320.1,48.5,314.5,36.4,314.5z"/>
	</g>
</g>
</svg>
