<?xml version="1.0" encoding="utf-8"?>
<!-- Generator: Adobe Illustrator 24.1.1, SVG Export Plug-In . SVG Version: 6.00 Build 0)  -->
<svg version="1.1" id="Capa_1" xmlns="http://www.w3.org/2000/svg" xmlns:xlink="http://www.w3.org/1999/xlink" x="0px" y="0px"
	 viewBox="0 0 1080 1080" style="enable-background:new 0 0 1080 1080;" xml:space="preserve">
<style type="text/css">
	.st0{fill:#E64A19;}
</style>
<path class="st0" d="M36.7,464.5l309.5-310l90.5,91c-12.8,45.5,8,95.3,49.8,119.4v296.6c-32.1,18.2-53.5,53-53.5,92.6
	c0,59.1,47.9,107.1,107.1,107.1s107.1-47.9,107.1-107.1c0-39.6-21.4-74.4-53.5-92.6V401.3l110.8,111.9c-3.7,8-3.7,17.1-3.7,26.8
	c0,59.1,47.9,107.1,107.1,107.1S914.8,599.1,914.8,540s-47.9-107.1-107.1-107.1c-9.6,0-18.7,0-26.8,3.7L643.3,299.1
	c13.9-49.8-11.8-104.4-61.6-125.3c-23-8.6-47.1-10.7-68.5-4.8l-91-90.5l42.3-41.8c41.8-42.3,109.2-42.3,151,0l427.8,427.8
	c42.3,41.8,42.3,109.2,0,151l-427.8,427.8c-41.8,42.3-109.2,42.3-151,0L36.7,615.5C-5.6,573.7-5.6,506.3,36.7,464.5z"/>
</svg>
