<?xml version="1.0" encoding="utf-8"?>
<!-- Generator: Adobe Illustrator 24.1.1, SVG Export Plug-In . SVG Version: 6.00 Build 0)  -->
<svg version="1.1" id="Capa_1" xmlns="http://www.w3.org/2000/svg" xmlns:xlink="http://www.w3.org/1999/xlink" x="0px" y="0px"
	 viewBox="0 0 1080 1080" style="enable-background:new 0 0 1080 1080;" xml:space="preserve">
<style type="text/css">
	.st0{fill-rule:evenodd;clip-rule:evenodd;fill:#FC6D26;}
	.st1{fill-rule:evenodd;clip-rule:evenodd;fill:#E24329;}
	.st2{fill-rule:evenodd;clip-rule:evenodd;fill:#FCA326;}
</style>
<g transform="matrix(.83655 0 0 .83655 40.975 42.814)">
	<g id="logo-square">
		<g id="logo-no-bg" transform="translate(2,19)">
			<g id="gitlab_logo">
				<g transform="matrix(1 0 0 -1 0 457.33)">
					<g id="g18-Clipped">
						<g id="Group" transform="translate(.66666 .66666)">
							<g transform="translate(.532 .77493)">
								<path class="st0" d="M1230.5-203.9l-71.6,220.1L1017,452.5c-7.3,22.4-39.1,22.4-46.4,0L828.8,16.2h-471L216,452.5
									c-7.3,22.4-39.1,22.4-46.4,0L27.8,16.2l-71.6-220.1c-6.5-20.1,0.6-42.1,17.7-54.5l619.4-449.7l619.4,449.7
									C1229.8-246,1237-224,1230.5-203.9"/>
							</g>
							<g transform="translate(156.2 1.1603)">
								<path class="st1" d="M437.7-708.6L673.2,15.8h-471L437.7-708.6z"/>
							</g>
							<g transform="translate(28.531 1.1608)">
								<path class="st0" d="M565.3-708.6L329.8,15.8H-0.2L565.3-708.6z"/>
							</g>
							<g transform="translate(.088533 .25587)">
								<path class="st2" d="M28.2,16.7l-71.6-220.1c-6.5-20.1,0.6-42.1,17.7-54.5l619.4-449.7L28.2,16.7z"/>
							</g>
							<g transform="translate(29.422 280.26)">
								<path class="st1" d="M-1.1-263.3h330.1L187.1,173c-7.3,22.4-39.1,22.4-46.4,0L-1.1-263.3z"/>
							</g>
							<g transform="translate(247.2 1.1608)">
								<path class="st0" d="M346.7-708.6L582.2,15.8h330.1L346.7-708.6z"/>
							</g>
							<g transform="translate(246.31 .25587)">
								<path class="st2" d="M913.1,16.7l71.6-220.1c6.5-20.1-0.6-42.1-17.7-54.5L347.6-707.6L913.1,16.7z"/>
							</g>
							<g transform="translate(336.97 280.26)">
								<path class="st1" d="M822.4-263.3H492.4L634.2,173c7.3,22.4,39.1,22.4,46.4,0L822.4-263.3z"/>
							</g>
						</g>
					</g>
				</g>
			</g>
		</g>
	</g>
</g>
</svg>
