<?xml version="1.0" encoding="utf-8"?>
<!-- Generator: Adobe Illustrator 24.1.1, SVG Export Plug-In . SVG Version: 6.00 Build 0)  -->
<svg version="1.1" id="Capa_1" xmlns="http://www.w3.org/2000/svg" xmlns:xlink="http://www.w3.org/1999/xlink" x="0px" y="0px"
	 viewBox="0 0 1080 1080" style="enable-background:new 0 0 1080 1080;" xml:space="preserve">
<style type="text/css">
	.st0{fill:#0288D1;}
	.st1{fill:#29B6F6;}
	.st2{fill:#0092CF;}
	.st3{fill:#E8BFD8;}
	.st4{fill:#039BE5;}
</style>
<g transform="translate(.59804 .69053)">
	<polygon class="st0" points="75.9,271.9 75.9,806.8 75.9,806.8 539.4,1074.3 539.4,966.7 167.9,754 167.9,325.1 168.1,325 	"/>
	<polygon class="st0" points="261.4,379 261.3,379.1 261.3,699.9 539.4,859.2 539.4,539.4 539.4,539.3 	"/>
	<polygon class="st1" points="539.4,4.3 75.9,271.8 75.9,271.9 168.1,325 539.4,110.9 910.9,324.9 1002.9,271.9 1002.9,272 
		1002.9,272 1002.9,271.9 	"/>
	<polygon class="st1" points="539.4,218.6 261.4,379 539.4,539.3 817.5,378.8 	"/>
	<path class="st2" d="M539.4,539.3L539.4,539.3L539.4,539.3z"/>
	<polygon class="st2" points="817.6,378.8 817.5,378.8 539.4,539.3 	"/>
	<polygon class="st2" points="911,325 1002.9,272 1002.9,271.9 910.9,324.9 	"/>
	<polygon class="st3" points="911,325 910.9,324.9 817.5,378.8 817.6,378.8 	"/>
	<polygon class="st4" points="1002.9,806.9 1002.9,806.9 1002.9,806.8 1002.9,272 911,325 817.6,378.8 539.4,539.3 539.4,539.4 
		539.4,587.2 539.3,587.2 539.3,714.2 539.4,714.2 539.4,859.2 817.8,699.9 817.8,593.7 631,699.9 631,592.5 911.1,433.1 911.1,754 
		539.4,966.7 539.4,1074.3 	"/>
</g>
</svg>
