<?xml version="1.0" encoding="utf-8"?>
<!-- Generator: Adobe Illustrator 26.0.0, SVG Export Plug-In . SVG Version: 6.00 Build 0)  -->
<svg version="1.1" id="Capa_1" xmlns="http://www.w3.org/2000/svg" xmlns:xlink="http://www.w3.org/1999/xlink" x="0px" y="0px"
	 viewBox="0 0 1080 1080" style="enable-background:new 0 0 1080 1080;" xml:space="preserve">
<style type="text/css">
	.st0{fill:#EA80FC;}
</style>
<path class="st0" d="M591.9,56.6l-1.4,0.3l-22.3,4.7l-11.2,17l2.1,20.9l-9.5,15.6l2.1,2.7c0,0,3.2,3.9,1.6,9.9
	c-0.8,3-5.8,16.2-10.4,27.6c-4.6,11.5-8.9,21.9-8.9,21.9l-0.9,2.2l1.1,1.9c-2.2,4.9-5.2,15,1.3,26.3c2.9,5.1,1.8,10.2-0.3,14.6
	c-2.1,4.5-5.1,7.5-5.1,7.5l-0.7,0.8l-7.5,22l-1.2,9.2l1.5,3.4l-2.9,2.3l-15.5,48.1l-1.8,14.4l-5,20.3l-9.9,28.5l-2.6,14.9l-4.2,17.4
	l-6,13.7l-4.3,8l-7.8,23.5l-5.7,24.9l25.1,17.8l43.2-6.3l29.7-39l14.3-39.3l9.2-43.3l5.7-32.1l3.4-17.2l8.8-41.1l2.7-24.1l6.5-19.9
	l1.1-16.7l4.2-29.3l1.9-24.3l4.3-13.9l2.8-31.8l-1.6-7.5l6.1-18.7l-4-4.8l1.5-8.6l-7.3-15.8L591.9,56.6L591.9,56.6z M49.4,204.9
	l-2,0.9l-29.3,11.5L5,231.8l45.4,58.2l16.6,1.6l13.6,23.1l23.3,8.7l3.5,8.2l18.2,14.5l47.4,34.5l33.8,22.1l66.8,53.7l5.7,10.6
	l18.6,10.2l23.8,20.3l29.9,26.3l5.2,11.3l31.8,2.2l33.4-43.2l-0.3-30.8l-88.5-71l-64.6-46.9l-63.4-42.6l-48.5-26.2l-2.9-7.2
	l-54.2-31.9l-20.7-16.5L49.4,204.9L49.4,204.9z M961.1,486.2l-7.8,6.9l-11.8-3.2l-48.8,7.2l-24-5.6l1,6.7
	c-5.8-3.3-12.2-2.5-17.4-1.8c-5.4,0.7-9.6,1-11.8-0.3c-6.3-3.5-13.3-1.7-18.4,0.2c-3.5,1.3-4.6,2.2-6.1,3.1l-13.4-7.7l-19,8.4
	l-20.4-2.1l-21.4-0.9l-22.9,4.1l-12.8-3.2l-31.4,3.4l-16.6-4.3l-2,2.5c0,0-1.4,1.8-3.2,3.2c-0.9,0.7-1.9,1.1-2.4,1.3
	c-0.5,0.2-0.2,0.1-0.2,0.1c-4.5-2.6-9.1-2-12.9-1.6c-3.8,0.4-6.9,1.1-6.9,1.1l-0.4,0.2l-12.6,6l-40.5,6.8l-1.1,1.4
	c0,0-6.1,7.3-11.5,15.5c-2.7,4.1-5.2,8.5-6.8,12.5c-0.8,2-1.5,4.1-1.6,6.3c-0.1,2.2,0.6,4.9,2.7,6.8c-0.1-0.1,0.6,1,0.6,3.3
	c0,2.3-0.4,5.4-1.1,8.3c-1.4,6-3.5,11.5-3.5,11.5l-1.3,3.2l23.5,18.7l24,3.2l14.7-4.8l48.3-8.8l9.4-3.9l5.5,1.9l29.9-2.7l9.6,5.4
	l6.4-5.5l5.9,1.9l46.7-7.1l20.5,6.4l-1.4-7.5c2,0.9,3.9,1.3,6.2,1.5c2.7,0.2,5.8,0.1,9.2-0.1c6.8-0.4,14.9-1.4,22.8-2.5
	c15-2.1,27.9-4.6,29-4.8l9.6,3.4l43.4-6.5l26.8-8l18.5,6l20.7-3l11.4-10.9l27.4,6.9l-0.9-6.9c0,0-0.2-3.2,1.4-5.4
	c0.8-1.1,1.7-2.1,4.3-2.8c2.5-0.7,6.6-0.8,12.7,0.5c14,3,22.9,1.2,28.3-2.2c2.7-1.7,4.4-3.7,5.5-5.4c1-1.7,1.5-3.4,1.5-3.4l0.5-2.2
	l-6.2-8.1l2.7-9.6l-17.2-22.9l-29.3-5.7l-18.2,0.3l-2-3.2l-2.4-0.1c0,0-12.6-1.1-22.9,2.3c-5.5,1.8-11.9-3.7-11.9-3.7l-7.1,6.5
	L961.1,486.2L961.1,486.2z M404.2,595.5l-1.7,0.9L369,614.2l-11.7,11.2l-8.7,18.1l10.3,29.1l16.2,15l15.6,23.7L197.2,872l-6.1,8.6
	L150.4,912l-16.7,17l-28.4,21.5l-4.6,6.9L93,980l19.6,27l23.4-15.8l10.5,4.8l8.4-10.1l5.2,2.4l37.1-29.1l12.1-6.8l14.6-3.5
	l17.5-13.5l-2-2.6l10.4-3.5L271,911l13.9-3.9l16.7-11.4l7.2-13.6l1.6-1.1l5.7,2.5l26.4-27.8l27.5-14.8l56.1-47l23.3,65.3l12.8,19.1
	l7.5,32l10.8,4.2l-0.6,1.7l5.7,38.2l9.8,9.1l-4.1,16.6l16.1,8.4c-0.6,2.5-0.4,5,0.8,8c1.3,3.4,3.7,7.5,7.6,12.9
	c8.3,11.7,18.7,14.8,26.5,14.1c7.8-0.7,13.3-4.6,13.3-4.6l1.2-0.8l9.4-22.7l-13-70.8l-11.4-55.6l-14-30.1l-9.8-28.1v-0.1
	c0-0.1-2.6-7.9-5.4-17.1c-2.8-9.3-5.6-20.3-6.1-24.8c-1.3-11.6-5.2-18.8-5.3-19l-0.1-0.2l-7.3-15.3l9.6-9l28.4-33l4.1-37.1l-35-38.8
	l-24.7,9.9L457.1,647l-29.6-44.1L404.2,595.5L404.2,595.5z"/>
</svg>
