<?xml version="1.0" encoding="utf-8"?>
<!-- Generator: Adobe Illustrator 24.1.1, SVG Export Plug-In . SVG Version: 6.00 Build 0)  -->
<svg version="1.1" id="Capa_1" xmlns="http://www.w3.org/2000/svg" xmlns:xlink="http://www.w3.org/1999/xlink" x="0px" y="0px"
	 viewBox="0 0 1080 1080" style="enable-background:new 0 0 1080 1080;" xml:space="preserve">
<style type="text/css">
	.st0{fill:#EC407A;}
</style>
<g transform="matrix(1.4595 0 0 1.4595 -35.938 -9.1601)">
	<g>
		<g>
			<g>
				<path class="st0" d="M83.4,322.2c-1.4,0-1.8-0.7-1.1-1.8l7.5-9.6c0.7-1.1,2.5-1.8,3.9-1.8h127.4c1.4,0,1.8,1.1,1.1,2.1l-6.1,9.3
					c-0.7,1.1-2.5,2.1-3.6,2.1L83.4,322.2z"/>
			</g>
		</g>
	</g>
	<g>
		<g>
			<g>
				<path class="st0" d="M29.5,355.1c-1.4,0-1.8-0.7-1.1-1.8l7.5-9.6c0.7-1.1,2.5-1.8,3.9-1.8h162.8c1.4,0,2.1,1.1,1.8,2.1l-2.9,8.6
					c-0.4,1.4-1.8,2.1-3.2,2.1L29.5,355.1z"/>
			</g>
		</g>
	</g>
	<g>
		<g>
			<g>
				<path class="st0" d="M115.9,387.9c-1.4,0-1.8-1.1-1.1-2.1l5-8.9c0.7-1.1,2.1-2.1,3.6-2.1h71.4c1.4,0,2.1,1.1,2.1,2.5l-0.7,8.6
					c0,1.4-1.4,2.5-2.5,2.5L115.9,387.9z"/>
			</g>
		</g>
	</g>
	<g>
		<g id="CXHf1q_3_">
			<g>
				<g>
					<path class="st0" d="M486.4,315.8c-22.5,5.7-37.8,10-60,15.7c-5.4,1.4-5.7,1.8-10.4-3.6c-5.4-6.1-9.3-10-16.8-13.6
						c-22.5-11.1-44.3-7.9-64.6,5.4c-24.3,15.7-36.8,38.9-36.4,67.9c0.4,28.6,20,52.1,48.2,56.1c24.3,3.2,44.6-5.4,60.7-23.6
						c3.2-3.9,6.1-8.2,9.6-13.2h-68.9c-7.5,0-9.3-4.6-6.8-10.7c4.6-11.1,13.2-29.6,18.2-38.9c1.1-2.1,3.6-5.7,8.9-5.7h129.9
						c-0.7,9.6-0.7,19.3-2.1,28.9c-3.9,25.7-13.6,49.3-29.3,70c-25.7,33.9-59.3,55-101.7,60.7c-35,4.6-67.5-2.1-96-23.6
						c-26.4-20-41.4-46.4-45.3-79.3c-4.6-38.9,6.8-73.9,30.3-104.6c25.3-33.2,58.9-54.3,99.9-61.8c33.6-6.1,65.7-2.1,94.6,17.5
						c18.9,12.5,32.5,29.6,41.4,50.4C492.1,312.9,490.7,314.7,486.4,315.8L486.4,315.8z"/>
				</g>
				<g>
					<path class="st0" d="M604.5,513.3c-32.5-0.7-62.1-10-87.1-31.4c-21.1-18.2-34.3-41.4-38.6-68.9c-6.4-40.4,4.6-76.1,28.9-107.9
						c26.1-34.3,57.5-52.1,99.9-59.6c36.4-6.4,70.7-2.9,101.7,18.2c28.2,19.3,45.7,45.4,50.3,79.6c6.1,48.2-7.9,87.5-41,121.1
						c-23.6,23.9-52.5,38.9-85.7,45.7C623.4,511.9,613.8,512.2,604.5,513.3L604.5,513.3z M689.5,369c-0.4-4.6-0.4-8.2-1.1-11.8
						c-6.4-35.4-38.9-55.4-72.8-47.5c-33.2,7.5-54.6,28.6-62.5,62.1c-6.4,27.9,7.1,56.1,32.8,67.5c19.6,8.6,39.3,7.5,58.2-2.1
						C672.3,422.6,687.7,399.7,689.5,369L689.5,369z"/>
				</g>
			</g>
		</g>
	</g>
</g>
</svg>
