<?xml version="1.0" encoding="utf-8"?>
<!-- Generator: Adobe Illustrator 24.1.1, SVG Export Plug-In . SVG Version: 6.00 Build 0)  -->
<svg version="1.1" id="Capa_1" xmlns="http://www.w3.org/2000/svg" xmlns:xlink="http://www.w3.org/1999/xlink" x="0px" y="0px"
	 viewBox="0 0 1080 1080" style="enable-background:new 0 0 1080 1080;" xml:space="preserve">
<style type="text/css">
	.st0{fill:#73CDDC;}
	.st1{fill:#FFFFFF;stroke:#5E5D5B;stroke-width:0.1;}
	.st2{fill:#030D18;}
	.st3{fill:#FFFFFF;stroke:#FFFFFF;stroke-width:0.1552;}
	.st4{fill:#FFFFFF;}
	.st5{fill:#F6D2A1;}
	.st6{fill:#FFFFFF;stroke:#FFFFFF;stroke-width:0.1527;}
	.st7{fill:#F6D2A1;stroke:#657075;stroke-width:0.1;}
	.st8{fill:#030D18;stroke:#FFFFFF;stroke-width:0.162;}
</style>
<g transform="translate(.28169 -.13395)">
	<g>
		<path class="st0" d="M481.1,5.1c-135,0-243.8,125.7-243.8,282v235.7c-0.4,0-0.9-0.1-1.4-0.1v241.4c0,156.2,108.8,282,243.8,282
			H597c135,0,243.8-125.7,243.8-282V528.4c0.5,0,0.9,0.1,1.4,0.1V287.1c0-156.2-108.8-282-243.8-282C598.3,5.1,481.1,5.1,481.1,5.1z
			"/>
		<path class="st0" d="M206.2,80.1l1-1.8c15.4-27.8,50.1-37.2,77.5-21l47.9,28.4c27.4,16.3,37,52,21.6,79.8l-1,1.8
			c-15.4,27.8-50.1,37.2-77.5,21l-47.9-28.4C200.5,143.7,190.8,107.9,206.2,80.1z"/>
		<path class="st0" d="M889.4,92l0.2,0.5c14.5,29,2.8,64.3-26.1,78.9L813.1,197c-28.9,14.6-64,3-78.4-25.9l-0.2-0.5
			c-14.5-29-2.8-64.3,26.1-78.9L811,66.1C839.8,51.5,874.9,63.1,889.4,92z"/>
	</g>
	<ellipse class="st1" cx="414.1" cy="181.2" rx="105.3" ry="105.3"/>
	<ellipse class="st1" cx="667.6" cy="180.4" rx="105.3" ry="105.3"/>
	<ellipse class="st2" cx="351.1" cy="177.1" rx="40.6" ry="46.2"/>
	<path class="st3" d="M543.5,408l39.1,7.1c0.3,2.3,0.4,4.7,0.4,7.1c0,19.5-9.2,35.3-20.6,35.3c0,0,0,0,0,0
		c-11.4,0-20.7-15.8-20.7-35.2c0,0,0,0,0-0.1C541.7,417.3,542.3,412.5,543.5,408z"/>
	<ellipse class="st4" cx="375.2" cy="193.2" rx="7.1" ry="8.5"/>
	<ellipse class="st2" cx="602.6" cy="184.2" rx="40.6" ry="46.2"/>
	<ellipse class="st4" cx="626.6" cy="197.4" rx="7.1" ry="8.5"/>
	
		<ellipse transform="matrix(0.7729 -0.6346 0.6346 0.7729 -293.3054 267.0883)" class="st5" cx="226.4" cy="543.3" rx="52.6" ry="36.3"/>
	<path class="st6" d="M542.5,407.8l-38.8,6.9c-0.3,2.3-0.4,4.6-0.4,6.9c0,19,9.2,34.4,20.5,34.5c0,0,0,0,0,0
		c11.3,0,20.5-15.4,20.5-34.4c0,0,0,0,0-0.1C544.2,416.9,543.6,412.2,542.5,407.8L542.5,407.8z"/>
	<g>
		
			<ellipse transform="matrix(0.6346 -0.7729 0.7729 0.6346 -110.9304 859.0881)" class="st5" cx="853" cy="546.9" rx="36.3" ry="52.6"/>
		
			<ellipse transform="matrix(0.1844 -0.9828 0.9828 0.1844 -398.8308 1579.6122)" class="st5" cx="752.4" cy="1030.1" rx="44.1" ry="65.2"/>
		
			<ellipse transform="matrix(0.9383 -0.3458 0.3458 0.9383 -332.9752 177.7478)" class="st5" cx="331.6" cy="1022" rx="65.2" ry="44.1"/>
		<path class="st7" d="M487.9,348.4c-16.9,0-30.4,13.7-30.4,30.6v5.9c0,17,13.6,30.6,30.4,30.6h19.8c9.4-7.7,22.3-12,35.7-12
			c13.5,0,26.4,4.3,35.8,12h17.1c16.9,0,30.5-13.7,30.5-30.6V379c0-17-13.6-30.6-30.5-30.6H487.9L487.9,348.4z"/>
	</g>
	<ellipse class="st8" cx="540.5" cy="338.7" rx="61.9" ry="34.9"/>
</g>
</svg>
