<?xml version="1.0" encoding="utf-8"?>
<!-- Generator: Adobe Illustrator 24.1.1, SVG Export Plug-In . SVG Version: 6.00 Build 0)  -->
<svg version="1.1" id="Capa_1" xmlns="http://www.w3.org/2000/svg" xmlns:xlink="http://www.w3.org/1999/xlink" x="0px" y="0px"
	 viewBox="0 0 1080 1080" style="enable-background:new 0 0 1080 1080;" xml:space="preserve">
<style type="text/css">
	.st0{fill:#81C784;}
</style>
<g transform="matrix(.2703 0 0 .2703 12.151 -11.859)">
	<g transform="translate(-2.0203,-14.142)">
		<path class="st0" d="M1552.2,187.5c-180.8,40.2-359.7,96.3-527.4,180.8c3.8,148.2,13.4,290.3,32.8,434.5
			c-65.1,41.8-133.6,77.6-194.4,126.5c-61.8,47.6-124.9,93.1-180.9,148.8c-111.8-74-230.2-143.6-352.1-205
			c-131.4,141.6-254.3,294.4-354.7,465.3c75.5,122.3,154.4,236.9,239.5,345.7h2.4v1049.4c1.9,0,3.8,0.1,5.7,0.3l642.7,62
			c33.7,3.3,60,30.4,62.4,64.1l19.8,284l560.6,40l38.6-262.1c5-34,34.1-59.2,68.5-59.2h678.1c34.3,0,63.4,25.2,68.5,59.2l38.6,262.1
			l560.6-40l19.8-284c2.4-33.8,28.7-60.9,62.4-64.1l642.5-62c1.9-0.2,3.8-0.2,5.7-0.3v-83.7l0.3-0.1v-965.5h2.4
			c85.1-108.8,163.9-223.4,239.5-345.7c-100.3-171-223.3-323.8-354.7-465.3c-121.9,61.4-240.3,131-352.1,205
			c-55.9-55.7-119-101.2-180.9-148.8c-60.8-48.9-129.3-84.7-194.4-126.5c19.4-144.3,28.9-286.3,32.8-434.5
			c-167.7-84.5-346.6-140.5-527.5-180.8c-72.2,121.5-138.3,253.1-195.8,381.8c-68.2-11.4-136.8-15.6-205.4-16.5v-0.1
			c-0.5,0-0.9,0.1-1.3,0.1c-0.4,0-0.9-0.1-1.3-0.1v0.1c-68.8,0.8-137.2,5-205.5,16.5C1690.6,440.6,1624.6,309.1,1552.2,187.5
			L1552.2,187.5z M1043.8,1722.6c213.9,0,387.3,173.4,387.3,387.5c0,214.2-173.4,387.7-387.3,387.7
			c-213.8,0-387.3-173.5-387.3-387.7C656.5,1896,829.9,1722.6,1043.8,1722.6z M2866,1722.6c213.8,0,387.2,173.4,387.2,387.5
			c0,214.2-173.4,387.7-387.2,387.7c-214,0-387.4-173.5-387.4-387.7C2478.6,1896,2652,1722.6,2866,1722.6z M1954.8,1949.3
			c68.9,0,124.8,50.8,124.8,113.4v356.9c0,62.6-55.9,113.4-124.8,113.4c-68.9,0-124.7-50.8-124.7-113.4v-356.9
			C1830.2,2000.2,1886,1949.3,1954.8,1949.3z"/>
		<path class="st0" d="M3115.4,2928.1l-19.9,285.5c-2.4,34.4-29.7,61.8-64.1,64.3l-684.6,48.9c-1.7,0.1-3.3,0.2-5,0.2
			c-34,0-63.4-25-68.4-59.2l-39.3-266.5h-558.6l-39.3,266.5c-5.3,35.9-37.3,61.7-73.4,59l-684.6-48.9c-34.4-2.5-61.7-29.9-64.1-64.3
			l-19.9-285.5l-577.9-55.8c0.3,62.2,1.1,130.3,1.1,143.8c0,611,774.3,904.6,1736.2,908h2.4c962-3.4,1736-297,1736-908
			c0-13.8,0.8-81.6,1.1-143.8L3115.4,2928.1z"/>
	</g>
</g>
</svg>
