<?xml version="1.0" encoding="utf-8"?>
<!-- Generator: Adobe Illustrator 24.1.1, SVG Export Plug-In . SVG Version: 6.00 Build 0)  -->
<svg version="1.1" id="Capa_1" xmlns="http://www.w3.org/2000/svg" xmlns:xlink="http://www.w3.org/1999/xlink" x="0px" y="0px"
	 viewBox="0 0 1080 1080" style="enable-background:new 0 0 1080 1080;" xml:space="preserve">
<style type="text/css">
	.st0{fill:#0097A7;}
</style>
<path class="st0" d="M1042.9,206.9c-37.9-68.1-105.6-88.4-153.4-89.4c-58.7-1.2-106.9,31.3-97.8,52.6c1.9,4.6,13,28.4,19.7,38.3
	c9.8,14.2,27.3,3.3,33.4,0c18.3-9.7,37.9-12.9,60.1-10.3c21.2,2.5,49.4,15.5,68.3,51.8c44.5,85.4-92.9,261.2-264.8,139.5
	c-171.9-121.7-339.1-81.4-414.8-56.8c-75.7,24.5-110.5,49.2-80.6,106.2c40.7,77.5,27.2,53.7,66.6,117.9
	c62.6,101.9,199.6-46.9,199.6-46.9c-102.1,150.3-189.6,114-223.2,61.4c-30.3-47.3-53.8-101.9-53.8-101.9
	C-56.3,560.4,13.6,962.5,13.6,962.5H142c32.7-148,149.8-142.6,169.8,0h98c86.7-289.1,306.3,0,306.3,0h127.7
	c-35.8-197.2,71.8-259.2,139.7-374.7C1051.4,472.1,1115.6,330.7,1042.9,206.9L1042.9,206.9z M713.4,587.6
	c-67.5-22-43.4-89.1-43.4-89.1s59,19,138.7,45C804.2,564.3,764.5,604.3,713.4,587.6L713.4,587.6z"/>
</svg>
