<?xml version="1.0" encoding="utf-8"?>
<!-- Generator: Adobe Illustrator 24.1.1, SVG Export Plug-In . SVG Version: 6.00 Build 0)  -->
<svg version="1.1" id="Capa_1" xmlns="http://www.w3.org/2000/svg" xmlns:xlink="http://www.w3.org/1999/xlink" x="0px" y="0px"
	 viewBox="0 0 1080 1080" style="enable-background:new 0 0 1080 1080;" xml:space="preserve">
<style type="text/css">
	.st0{fill:#EC407A;}
</style>
<path class="st0" d="M1014,729.1c-7.1-26.8-24.4-49.2-48.5-63.1c-6.4-3.7-13-6.6-19.7-8.7V422.8c6.8-2.2,13.5-5.1,20-8.8
	c49.3-28.6,66.4-92.1,38-141.5c-28.7-49.3-92.2-66.3-141.6-37.9c-6.5,3.8-12.4,8.2-17.8,13l-203-117.1c1.5-7.1,2.3-14.4,2.3-21.9
	C643.7,51.5,597.2,5,540,5c-57.1,0-103.6,46.5-103.6,103.6c0,7.5,0.8,14.7,2.3,21.7L235.7,247.5c-5.3-4.8-11.2-9.2-17.7-12.9
	c-24-13.8-51.9-17.4-78.7-10.3c-26.8,7.2-49.1,24.3-62.9,48.3c-13.8,24-17.4,51.9-10.3,78.6c7.2,26.8,24.3,49.1,48.3,62.9
	c6.4,3.7,13.1,6.6,19.9,8.8v234.4c-6.7,2.2-13.3,5.1-19.7,8.7c-49.3,28.6-66.4,92.1-38,141.5c19.1,33.2,54,51.7,90,51.7
	c17.6,0,35.4-4.4,51.7-13.8c6.4-3.7,12.2-8,17.5-12.7l203,117.1c-1.5,7-2.3,14.2-2.3,21.6c0,57.1,46.5,103.6,103.6,103.6
	c57.1,0,103.6-46.5,103.6-103.6c0-8.5-1.1-16.8-3-24.7L842,830.6c5.9,5.6,12.5,10.7,19.9,14.9c16.3,9.4,34.1,13.8,51.7,13.8
	c35.9,0,70.8-18.6,89.9-51.8C1017.3,783.6,1021.1,755.7,1014,729.1z M610.9,896c-18.5-17.4-43.5-28.1-70.8-28.1
	c-26.4,0-50.5,9.9-68.9,26.3L287.3,788.1h510.5L610.9,896z M540,212.1c7.3,0,14.4-0.8,21.3-2.2l275.3,476.5
	c-4.8,5.3-9.1,11.2-12.7,17.6c-3.7,6.4-6.6,12.9-8.7,19.7H265c-2.2-6.7-5.1-13.3-8.7-19.7c-3.7-6.3-8-12.1-12.7-17.4l275.3-476.6
	C525.7,211.4,532.8,212.1,540,212.1z M824.1,376L824.1,376c13.2,22.9,33.8,38.8,57.2,46.5v212.2L628.7,197.5l183.9,106.1
	C807.6,327.6,811,353.3,824.1,376z M198.8,635V422.6c23.3-7.7,44-23.6,57.2-46.5c13.1-22.8,16.5-48.6,11.6-72.5l184.2-106.3
	L198.8,635z"/>
</svg>
