<?xml version="1.0" encoding="utf-8"?>
<!-- Generator: Adobe Illustrator 24.1.1, SVG Export Plug-In . SVG Version: 6.00 Build 0)  -->
<svg version="1.1" id="Capa_1" xmlns="http://www.w3.org/2000/svg" xmlns:xlink="http://www.w3.org/1999/xlink" x="0px" y="0px"
	 viewBox="0 0 1080 1080" style="enable-background:new 0 0 1080 1080;" xml:space="preserve">
<style type="text/css">
	.st0{fill:#27AE60;}
</style>
<path class="st0" d="M948.2,353l-5.1-3.1c-57.8-32.5-126.3,6.5-140.3,15.2L594.2,483.4c-37.5-23.5-86.5-20.2-120.5,9.6
	c-36.8,32.2-45.4,86.1-20.3,128.1c25.1,42,76.5,60.1,122.4,43.1c42.1-15.7,68.4-57,65.8-101l207.9-117.9l2-1.2
	c16.7-10.5,40.6-16.5,46.2-13.3c1.8,1,8,10.1,9.5,36.7v279.9c0,19.6-10.6,37.8-27.5,47.6L567.4,975.1c-17,9.7-38,9.7-54.9,0
	L200.2,794.8c-16.9-9.8-27.5-28-27.5-47.6V386.7c0-19.6,10.6-37.8,27.5-47.6L472,182.3c32.4,28.5,80.1,33.5,118.1,11
	c42-24.8,60.3-76,43.7-121.8C617.1,25.8,570.1-1.6,522,6.4c-44.9,7.5-78.9,44-83.9,88.5L154,258.9c-45.5,26.3-73.9,75.2-74,127.8
	v360.5c0.1,52.5,28.3,101.5,73.8,127.8l312.3,180.4c22.7,13.1,48.2,19.6,73.7,19.6c25.5,0,51-6.5,73.8-19.6L925.9,875
	c45.4-26.3,73.7-75.2,73.8-127.7V493.8l0.2-8.2C1001.5,420.7,984.1,376.2,948.2,353z"/>
</svg>
