<?xml version="1.0" encoding="utf-8"?>
<!-- Generator: Adobe Illustrator 26.0.0, SVG Export Plug-In . SVG Version: 6.00 Build 0)  -->
<svg version="1.1" id="Capa_1" xmlns="http://www.w3.org/2000/svg" xmlns:xlink="http://www.w3.org/1999/xlink" x="0px" y="0px"
	 viewBox="0 0 1080 1080" style="enable-background:new 0 0 1080 1080;" xml:space="preserve">
<style type="text/css">
	.st0{fill:#00BFA5;}
</style>
<path class="st0" d="M536.3,5.1C225.3,10.2,2.8,268.4,5.1,534c0,0.7-0.1,1.4-0.1,2.2c0,3.7,0.2,7.4,0.3,11.1c0,0.4,0,0.9,0,1.3
	c0,0.1,0,0.2,0,0.2c6.8,321.2,271,532.7,538.3,526.1c321.4-8.9,549.4-288.5,530.2-538c-0.3-3.9-1-7.8-1.8-11.6
	c-8.8-44.3-48.9-77.8-95.9-77.8H835.7c-53.2,0-96.4,42.9-96.4,95.9c0,53,43.1,95.9,96.4,95.9h35.1
	C832,763.9,709.4,882.8,539.1,887.6c-170.7,4.2-341.4-131.5-346.4-342.1c0-1,0.1-2,0-3c-6.6-166.1,129.1-341,351.3-350.2
	c51.5-2.1,91.5-45.8,89.3-97.5C631.3,43.1,587.8,2.9,536.3,5.1L536.3,5.1z M540.4,447.5c-52.8,0-95.7,43-95.7,96
	s42.9,96.1,95.7,96.1c52.8,0,95.7-43,95.7-96.1C636.1,490.5,593.2,447.5,540.4,447.5z"/>
</svg>
