<?xml version="1.0" encoding="utf-8"?>
<!-- Generator: Adobe Illustrator 24.1.1, SVG Export Plug-In . SVG Version: 6.00 Build 0)  -->
<svg version="1.1" id="Capa_1" xmlns="http://www.w3.org/2000/svg" xmlns:xlink="http://www.w3.org/1999/xlink" x="0px" y="0px"
	 viewBox="0 0 1080 1080" style="enable-background:new 0 0 1080 1080;" xml:space="preserve">
<style type="text/css">
	.st0{fill:#26C6DA;}
</style>
<path class="st0" d="M540,5C244.5,5,5,244.5,5,540c0,0,0,0,0,0c0,295.5,239.5,535,535,535s535-239.5,535-535S835.5,5,540,5z
	 M606.3,133c48.1,0,87.1,13.8,117,41.2c30.2,27.4,45.3,62.8,45.3,106.5c0,47-16.9,88.4-50.7,124.2c-33.8,35.8-72.8,53.7-116.7,53.7
	c-25.7,0-47.1-6.3-64.1-18.9c-16.8-12.6-25.2-28.1-25.2-46.6c0-11.2,3.2-21.1,9.6-29.7c6.7-8.7,14.5-13,23.1-13
	c8.4,0,12.6,4.9,12.6,14.7c0,8.7,3.2,15.4,9.6,20.1c6.4,4.8,13.8,7.1,22.2,7.1c22.4,0,43.8-15.3,64.2-45.7
	c20.7-30.8,31.1-63.6,31.1-98.5c0-24.6-8-44.6-24-60c-15.9-15.7-36.5-23.5-61.6-23.5c-37.8,0-74.4,16.8-109.9,50.4
	c-35.2,33.6-64.1,77.7-86.4,132.5c-22.1,54.5-33.1,106.5-33.1,155.7c0,45.3,9.7,81.4,29.3,108.2c19.6,26.6,45.6,39.9,78.1,39.9
	c54.8,0,107.2-38.8,157.3-116.3l78.9-11.3c9.8-1.4,14.7,1,14.7,7.1c0,2.8-3.8,14.8-11.4,36s-17.8,56.8-31,106.6
	c43.3-25.2,76.9-53.1,100.7-83.5v48.3c-19,22.1-55.4,47-109,74.7c-11.2,74.4-36,131.8-74.3,172.3c-38.3,40.8-81.4,61.3-129.2,61.3
	c-22.9,0-41-5.4-54.1-16c-12.9-10.6-19.3-25.3-19.3-44c0-52,50.5-102.5,151.5-151.5c10.6-37.8,20.9-71.7,31-101.9
	c-17.6,25.4-43.2,48-76.7,67.5c-33.6,19.6-64.8,29.3-93.6,29.3c-47,0-86.1-20.3-117.4-60.8c-31-40.8-46.6-92.4-46.6-154.8
	c0-65.7,17.6-128,52.9-186.7c35.2-59,81.5-106.1,138.8-141.4C497.1,150.8,552.6,133.1,606.3,133L606.3,133z M541.6,777.4
	c-72.7,36.4-109,72.2-109,107.4c0,18.7,8.9,28.2,26.8,28.2C494.7,913,522.1,867.8,541.6,777.4L541.6,777.4z"/>
</svg>
