<?xml version="1.0" encoding="utf-8"?>
<!-- Generator: Adobe Illustrator 24.1.1, SVG Export Plug-In . SVG Version: 6.00 Build 0)  -->
<svg version="1.1" id="Capa_1" xmlns="http://www.w3.org/2000/svg" xmlns:xlink="http://www.w3.org/1999/xlink" x="0px" y="0px"
	 viewBox="0 0 1080 1080" style="enable-background:new 0 0 1080 1080;" xml:space="preserve">
<style type="text/css">
	.st0{fill:#FBA919;}
	.st1{fill:#E78724;}
	.st2{fill:#FDC168;}
	.st3{fill:#FFFFFF;}
	.st4{fill:#C9C9C9;}
	.st5{fill:#463014;}
</style>
<g transform="matrix(.82226 0 0 .82226 5.2206 12.271)">
	<path class="st0" d="M229.8,307.4c0,0,22.3,85.9,25.5,114.6c3.2,28.6-57.3,92.3-57.3,124.1c0,31.8,12.7,89.1,82.8,117.8
		c70.1,28.7,79.6,101.9,79.6,146.4c0,44.6-25.5,130.5-25.5,130.5S319,1154.2,405,1192.4c86,38.2,66.9,38.2,86,38.2
		c19.1,0,159.3,57.3,242.1,35c82.8-22.3,105.1-47.7,105.1-47.7s82.8,6.4,108.3-66.9c25.5-73.2,41.4-226,31.8-296
		s-22.3-162.3,35-194.2c57.3-31.8,117.9-70,108.3-101.9c-9.6-31.8-60.5-76.4-60.5-76.4s-12.8-79.6-3.2-98.7
		c9.6-19.1,66.9-66.9,35-101.9c-31.8-35-89.2-35-89.2-35l-73.2,6.3c0,0-124.2-111.4-286.7-105.1c-162.4,6.4-264.4,105-264.4,105
		s-54.2-19.1-101.9,0C229.7,272.5,220.2,253.4,229.8,307.4L229.8,307.4z"/>
	<g>
		<path class="st1" d="M520.9,781.4c0,0-63.1,96.4-109.4,164.8c-7.2,10.6,46.3,11.3,46.3,11.3L520.9,781.4L520.9,781.4z M551,581.6
			c0,0-19,47.4-29.4,72.5c-11.3,27.3-54.4,40.9-54.4,40.9s22.4-23.4,22.4-82.8c0-24.9,32.2-34.8,32.2-34.8L551,581.6L551,581.6z"/>
		<path class="st1" d="M531.7,608.4c0,0-39,46.3-111.3,20.4c-72.4-25.9-79.8-118.7-79.8-144.6s137.3,26,155.9,37.1
			C515.1,532.3,550.3,576.8,531.7,608.4L531.7,608.4z M258.4,113.1c0,0,66.8-13,111.3,22.2c44.5,35.2,57.5,63,57.5,63l-75,59.4
			c0,0-36.3-16.8-47.4-65C293.7,144.6,301.1,122.4,258.4,113.1z"/>
		<path class="st1" d="M512.3,474.5c-28.8-40.8-76.2-58.6-114-61.5c-64.5-5-95.2,17.8-95.2,17.8s105.7,4.5,136.1,44.4
			c56.7,74.4,139.4,80.4,152.6,64.1c-15.3,0.8-32.1-6.8-50.1-23.8C530.5,504.8,521.4,487.4,512.3,474.5L512.3,474.5z M333.9,618.7
			c0,0-117.2-40.3-95-81c22.3-40.8,4.5-63,4.5-63s-65.5,48.8-48.8,100.7c10.3,31.9,27.5,54.9,121.9,99.1
			c45.3,84.1,9.4,235.4,11.5,236.1c3.6,1.2,63.6-29.6,59.5-171.2C386.4,695.9,382.9,636.6,333.9,618.7L333.9,618.7z M487.5,185.7
			c-49.2,25-116.5,59.7-116.5,59.7l26.5,13.2c-2.5,4.1-3.8,6.5-3.8,6.5l27.2,12.4c0,0,66.4,48.1,107.1,79
			c-13.6-41.7-53.4-107.3-53.4-107.3S463.3,219.1,487.5,185.7L487.5,185.7z M650.8,1202.9c-151.1,0-202.3-76.6-202.3-76.6l23.6,57.5
			c8.9,24.9,104.1,102.2,178.4,102.2"/>
		<path class="st1" d="M465.1,1074.4c0,0,13.9,84.9,69.6,84.9c47.3,0,61.2-71.7,61.2-86.5L465.1,1074.4L465.1,1074.4z M372.5,946.4
			c4.9-13.6,22.3-68.6,27.8-118.7c6.6-59.9,4.2-147.6,4.2-147.6s-14.9,57.5-27.9,66.8c-13,9.3-37.1,72.3-37.1,72.3
			s-12.9,93.8-19.1,125.4C337.5,947.9,351.8,937.9,372.5,946.4L372.5,946.4z M238.1,574.5c0,0,31.5-11.1,40.8-79.7
			c9.3-68.6-11.1-127.9-11.1-127.9s1.9,94.5-9.3,113.1c-11.1,18.5-20.4,24.1-33.4,48.2C212.1,552.2,230.6,567,238.1,574.5z"/>
	</g>
	<path class="st2" d="M275.7,129.4l-6.4-4.1C250.3,125.9,275.7,129.4,275.7,129.4L275.7,129.4z"/>
	<path class="st0" d="M513.2,165.4c0,0-29.7-4.9-44.5-27.2c-14.9-22.3-56.9-66.8-123.9-67.2c-67-0.5-133.3,17.8-133.3,17.8
		l57.9,36.5c6.1-0.2,16.8-0.1,34.5,0.5c72.7,2.4,83.8,74.2,83.8,74.2l256.1-35.2"/>
	<path class="st3" d="M537.9,561.9c0,0-34.6,34.6-87.8,23.5c-53.2-11.1-85.4-34.6-87.8-75.4c-2.5-40.8,11.1-56.8,11.1-56.8
		s59.4,18.6,87.9,43.3C489.7,521.2,510.8,560.7,537.9,561.9L537.9,561.9z"/>
	<path class="st4" d="M496,549.6c0,0-30,13.7-63.6,2.5c-44-14.6-46.9-60.3-46.9-60.3s-27,79.1,48.6,94.3
		c60.6,12.2,96.5-22.9,96.5-22.9L496,549.6L496,549.6z"/>
	<g>
		<path class="st5" d="M517.4,148.6C514.1,80.8,569.8,26.8,589,24.5c1.1,11.5-1.1,56.3,18.2,70.1c5.6-36.6,24.6-77,99.5-103.4
			c-16,42.5-2.1,78.1,4.5,94.6c51.2-46.4,85.6-38.7,85.6-38.7s-35.5,61.3-21.6,101.5C672.5,140.5,517.9,159.5,517.4,148.6
			L517.4,148.6z M299.6,251.9c-24.5-20.3-6.2-39.2-8.2-62.2c-1-12.3-2-23.9-6.1-30.3c-22.5-35.6-75.7-46.4-76.3-46.5l-25-4.9
			l16.5-19.3c2.1-2.5,70-67.2,175.1-33.3c73.5,23.7,127.9,104,129.9,107.2l-36.8,17.3c-0.4-0.7-43.4-76.1-106.4-96.5
			c-50.9-16.4-97.9-0.8-118,9.4c21.4,8.5,49.3,24.1,66.2,50.6c8,12.5,9.3,28.4,10.6,43.7c1.7,20.3,3.3,39.4,18.2,51.8L299.6,251.9
			L299.6,251.9z M234.2,548.4c0,0,30.9-38.3,40-112.7c3.6-29.3-2.8-87.1-13-109.4c1.9,54.7-12.1,109.4-12.1,109.4
			S239.8,537.3,234.2,548.4L234.2,548.4z"/>
		<path class="st5" d="M397,213.2c0-0.1-9.9-43.3-37.3-65.1c-38.7-30.7-85.9-14.4-86.4-14.2l-6.8-21.2c2.3-0.7,56.3-17.7,106,17.2
			c50,35.1,56.1,67,56.6,70.5L397,213.2L397,213.2z M331.2,521c0,0-16.2-23.2-13.3-48.6c1.5-12.6,7.3-25.5,17.7-30.1
			c19.4-8.5,28,13.4,28,13.4S336.3,462.4,331.2,521L331.2,521z"/>
		<path class="st5" d="M509,556.3c0.7,1.3,1,2,1,2s-50.5,37.9-102.3-0.6c-27.7-20.6-25.1-71.5-16.6-93.1c22.1,5,40.8,14,56.5,24.5
			c-19.8-17.6-37.1-30.6-37-30.9l-22.5-6.4l-43.7-15c-0.6,3.3-16.5,78,29.5,128.8c20.4,22.6,116,73.1,161.4-13.3L509,556.3
			L509,556.3z"/>
		<path class="st5" d="M504.3,561.8c28.4,43.3,100.2,18.5,99-27.2c0,0-47.9,26.4-90.3-22.2c-24.7-28.4-104-106.8-211.5-80.7
			C375.7,448,473.9,515.7,504.3,561.8L504.3,561.8z"/>
		<path class="st5" d="M291.4,683.9c6.8,4,31,28.9,31,66.3c0,18.7-1.9,112.8-11.1,170.3c14,9.1,23.7,11,37.6,20.2
			c7-66.6,11.9-163,9.6-202c-2.6-44.4-26.4-74.2-48.5-86.9c-6.9-4-14.1-7.9-21.4-11.8c-37.8-20.4-76.9-41.5-76.9-77.5
			c0-28.2,11-37,22.6-46.4l1.2-1c7.7-6.2,16.4-13.3,21.6-24.9c14.1-31.7,16.4-112.3,0-132.8c-8.2-10.2-30.1-44.6-23.8-67.6
			c2.4-8.8,8-15.3,17-20c9.6-4.9,22.5-7.4,38.4-7.4c31.2,0,65.9,9.5,83.7,15.1c63.8,20.2,140.8,78.5,162.9,95.9l1.1,0.8l14.1,9.8
			l-8.8-14.8c-0.5-0.9-56.5-92.9-156.6-126.6c-19.5-6.6-57.7-17.6-95.3-17.6c-22.4,0-41.4,3.9-56.4,11.6
			c-18.3,9.4-30.7,24.3-35.9,43.2c-12.6,46.3,28.5,97.8,29.9,99.5c4.8,8.5,6.8,70.7-4.2,95.6c-1.5,3.4-5.7,6.8-11,11.1
			c-1.6,1.3-3.5,2.7-5.5,4.2c-15.6,11.8-39.3,29.6-39.3,70.7c0,56.2,57,86.7,102.8,111.1c7.5,4,14.7,7.8,21.2,11.6L291.4,683.9z"/>
		<path class="st5" d="M299.6,251.9c-24.5-20.3-6.2-39.2-8.2-62.2c-1-12.3-2-23.9-6.1-30.3c-22.5-35.6-75.7-46.4-76.3-46.5l-25-4.9
			l16.5-19.3c2.1-2.5,70-67.2,175.1-33.3c73.5,23.7,127.9,104,129.9,107.2l-36.8,17.3c-0.4-0.7-43.4-76.1-106.4-96.5
			c-50.9-16.4-97.9-0.8-118,9.4c21.4,8.5,49.3,24.1,66.2,50.6c8,12.5,9.3,28.4,10.6,43.7c1.7,20.3,3.3,39.4,18.2,51.8L299.6,251.9
			L299.6,251.9z"/>
		<path class="st5" d="M298.8,256l-1.6-1.3c-18.2-15-14.9-29.9-11.8-44.2c1.4-6.6,2.9-13.5,2.3-20.5c-1-11.8-1.9-23-5.5-28.6
			c-21.5-33.9-73.4-44.7-73.9-44.8l-31.2-6.1l20.7-24.1c0.4-0.4,44-44.4,117.8-44.4c20.1,0,40.7,3.3,61.2,10
			c76.7,24.7,131.4,107.9,131.9,108.8l2.2,3.5l-43.6,20.5l-1.7-2.8c-4.7-8-46-76.1-104.5-94.9c-14.3-4.7-29.5-7-44.9-7
			c-28,0-50.7,7.7-62.8,12.7c20.2,9.1,44.7,24.4,60.2,48.8c8.4,13.3,9.8,29.6,11.1,45.3c1.6,19.5,3.2,37.9,16.9,49.3l5.2,4.3
			l-48,15.7L298.8,256z"/>
		<path class="st5" d="M397,213.2c0-0.1-9.9-43.3-37.3-65.1c-38.7-30.7-85.9-14.4-86.4-14.2l-6.8-21.2c2.3-0.7,56.3-17.7,106,17.2
			c50,35.1,56.1,67,56.6,70.5L397,213.2L397,213.2z"/>
		<path class="st5" d="M394.3,218.3l-1-4.2c-0.1-0.4-9.8-42.1-36-63c-14.9-11.9-33-17.9-53.5-17.9c-16.1,0-28,3.8-29.3,4.3l-3.5,1.2
			l-9.2-28.2l3.5-1.1c1.6-0.5,15.9-5,36.2-5c26.7,0,52,7.8,73.1,22.7c51.3,36,57.6,69.3,58.1,73l0.5,2.9l-38.8,15.5L394.3,218.3z
			 M303.8,125.8c22,0,42.1,6.8,58.2,19.5c23.3,18.5,34.2,51.2,37.6,63l25.2-10c-2.3-8.9-12.3-35.6-54.4-65.2
			c-20.1-14.1-43.3-21.3-68.8-21.3c-14,0-24.9,2.2-30.3,3.6l4.5,14.1C281,127.9,291.2,125.8,303.8,125.8z M532.3,1138.9
			c-11,0-22.2-4-29.9-10.7c-5.9-5.1-26-23.5-34.9-46.1c-3.3-8.4-2.6-15.2,2.2-20.1c3.3-3.3,10.2-7.3,24.1-7.3l9.9,0
			c11.8,0,31.7,0,48.7,0h16.3c10.6,0,18.2,2.3,22.5,6.8c5.6,5.7,3.8,13.1,2.3,16.9c-2.7,6.8-14,28.7-33.1,49.1
			C553.6,1134.9,543.6,1139,532.3,1138.9L532.3,1138.9z M543.8,564.3l-39.6-2.5c0,0,10.1,17.8,16.7,40.9c7.4,26.1-6.8,64.2-6.8,64.2
			S566.9,607.1,543.8,564.3L543.8,564.3z M494.4,1243.4C353.5,1232.5,304,1099.5,304,1071.8l36.8,0h-18.4h18.4
			c0.2,12,37.6,125.8,156.5,134.9L494.4,1243.4L494.4,1243.4z"/>
	</g>
	<path class="st3" d="M454.9,1005.1c-2.2-12.7-2.4-24.8,0.3-36.6c-10.7-8-29.9-11-44.3-15.7c-11.8-7.5-72.1,7.6-115.9-45.3
		c-54.9-66.3-43.3-105.9-43.3-105.9c-14.1,15.6-27.7,9.6-49.1,82.4s10.1,123.5,68.8,174.5c27.8,24,67,34,100.8,37.8
		c-11.3-11.3,19.3-12.5,40.4-20.4c-1.7-17.1,1.1-33.6,13.8-46.9c7.7-8,17.5-12.8,27.8-16.7c0.6-1.3,1-2.5,1.6-3.8
		c-0.3-1.2-0.7-2.3-0.9-3.6L454.9,1005.1z"/>
	<path class="st4" d="M412.2,1075.5c-1.2-3.6-2.1-7.2-3-10.9c-1-4-5.8-15.4,0.2-2.4c-1.5-3.3-2.5-6.7-3.3-10.2
		c-95.2-0.1-178-65.4-162-202.7c-12.4-16.5-29.9,33.3-29.9,33.3s-47.6,138.2,75.4,191.8c41,17.9,77.2,30.7,85.8,25.5
		c17.8,3.6,33.9-8.8,39.9-16.9C414.2,1080.6,413.2,1078,412.2,1075.5L412.2,1075.5z"/>
	<path class="st5" d="M453.1,985.2c0.1-11.6,2.5-22.8,8.1-34c0.4-0.8,0.8-1.5,1.3-2.3c-36.6-0.3-78.8-3.8-114.7-18.2
		c-39.5-15.8-88.8-69.8-97.3-133.2c0,0-74.3,57.3-52.5,180c20.5,115.2,117,152.8,227,159.1c0.1-0.7-12.4-26.4-8.4-42.1
		c-62.5,4.5-132.4-19.6-166.1-75c-30.9-50.7-22.2-137.4-9.5-150.1C272,967,383.3,986.9,453.1,985.2L453.1,985.2z"/>
	<path class="st5" d="M464.6,915.3c-19.8,58.1-60.3,105.1-60.3,105.1s55.6-2.6,58.7-12.4c2.3-7.3,50.2-119.4,68.7-250.9
		C514.4,785.5,466.3,910.2,464.6,915.3L464.6,915.3z"/>
	<g>
		<path class="st1" d="M779.9,781.4c0,0,63.1,96.4,109.4,164.8c7.2,10.6-46.3,11.3-46.3,11.3L779.9,781.4z M749.8,581.6
			c0,0,19,47.4,29.4,72.5c11.3,27.3,54.4,40.9,54.4,40.9s-22.4-23.4-22.4-82.8c0-24.9-32.2-34.8-32.2-34.8L749.8,581.6L749.8,581.6z
			"/>
		<path class="st1" d="M769,608.4c0,0,39,46.3,111.3,20.4s79.8-118.7,79.8-144.6s-137.3,26-155.9,37.1
			C785.7,532.3,750.5,576.8,769,608.4L769,608.4z M1042.3,113.1c0,0-66.8-13-111.3,22.2c-44.6,35.2-57.5,63-57.5,63l75,59.4
			c0,0,36.3-16.8,47.4-65C1007,144.6,999.6,122.4,1042.3,113.1L1042.3,113.1z"/>
		<path class="st1" d="M788.6,474.5c28.8-40.8,76.1-58.6,114-61.5c64.5-5,95.1,17.8,95.1,17.8s-105.7,4.5-136.1,44.4
			c-56.7,74.4-139.4,80.4-152.6,64.1c15.3,0.8,32.1-6.8,50.1-23.8C770.3,504.8,779.4,487.4,788.6,474.5L788.6,474.5z M966.9,618.7
			c0,0,117.2-40.3,95-81c-22.3-40.8-4.6-63-4.6-63s65.5,48.8,48.8,100.7c-10.3,31.9-27.4,54.9-121.9,99.1
			c-45.3,84.1-9.4,235.4-11.5,236.1c-3.6,1.2-63.6-29.6-59.5-171.2C914.4,695.9,917.9,636.5,966.9,618.7L966.9,618.7z M813.3,185.7
			c49.1,25,116.5,59.7,116.5,59.7l-26.5,13.2c2.5,4.1,3.8,6.5,3.8,6.5l-27.2,12.4c0,0-66.4,48.1-107.1,79
			c13.6-41.7,53.4-107.3,53.4-107.3S837.5,219.1,813.3,185.7L813.3,185.7z M650,1202.9c151.1,0,202.3-76.6,202.3-76.6l-23.6,57.5
			c-8.9,24.9-104.1,102.2-178.4,102.2"/>
		<path class="st1" d="M835.7,1074.4c0,0-13.9,84.9-69.6,84.9c-47.3,0-61.2-71.7-61.2-86.5L835.7,1074.4z M928.3,946.4
			c-4.9-13.6-22.3-68.6-27.8-118.7c-6.7-59.9-4.2-147.6-4.2-147.6s14.9,57.5,27.8,66.8c13,9.3,37.1,72.3,37.1,72.3
			s12.9,93.8,19.1,125.4C963.3,947.9,949,937.9,928.3,946.4L928.3,946.4z M1062.8,574.5c0,0-31.6-11.1-40.8-79.7
			c-9.3-68.6,11.1-127.9,11.1-127.9s-1.9,94.5,9.3,113.1c11.1,18.5,20.4,24.1,33.4,48.2C1088.7,552.2,1070.1,567,1062.8,574.5
			L1062.8,574.5z"/>
	</g>
	<path class="st2" d="M1025.1,129.4l6.5-4.1C1050.5,125.9,1025.1,129.4,1025.1,129.4z"/>
	<path class="st0" d="M787.6,165.4c0,0,29.7-4.9,44.5-27.2c14.9-22.3,56.9-66.8,123.9-67.2c67-0.5,133.3,17.8,133.3,17.8l-57.9,36.5
		c-6.1-0.2-16.8-0.1-34.6,0.5c-72.6,2.4-83.8,74.2-83.8,74.2l-256-35.2"/>
	<path class="st3" d="M762.9,561.9c0,0,34.6,34.6,87.8,23.5c53.2-11.1,85.4-34.6,87.8-75.4c2.5-40.8-11.1-56.8-11.1-56.8
		s-59.4,18.6-87.8,43.3C811.1,521.1,790.1,560.7,762.9,561.9L762.9,561.9z"/>
	<path class="st4" d="M804.8,549.6c0,0,30.1,13.7,63.6,2.5c44-14.6,46.9-60.3,46.9-60.3s26.9,79.1-48.6,94.3
		c-60.6,12.2-96.5-22.9-96.5-22.9L804.8,549.6L804.8,549.6z"/>
	<g>
		<path class="st5" d="M1001.2,251.9c24.5-20.3,6.3-39.2,8.2-62.2c1-12.3,2-23.9,6.1-30.3c22.5-35.6,75.7-46.4,76.3-46.5l25-4.9
			l-16.5-19.3c-2.1-2.5-70-67.2-175.1-33.3c-73.5,23.7-127.9,104-129.9,107.2l36.8,17.3c0.4-0.7,43.4-76.1,106.5-96.5
			c50.9-16.4,97.9-0.8,118,9.4c-21.4,8.5-49.3,24.1-66.2,50.6c-8,12.5-9.3,28.4-10.6,43.7c-1.7,20.3-3.3,39.4-18.3,51.8l39.6,13
			H1001.2z M1066.6,548.4c0,0-30.9-38.3-40-112.7c-3.6-29.3,2.8-87.1,13-109.4c-1.9,54.7,12.1,109.4,12.1,109.4
			S1061,537.3,1066.6,548.4z"/>
		<path class="st5" d="M903.8,213.2c0-0.1,9.9-43.3,37.3-65.1c38.7-30.7,85.9-14.4,86.3-14.2l6.9-21.2c-2.3-0.7-56.3-17.7-106,17.2
			c-50.1,35.1-56.1,67-56.6,70.5L903.8,213.2L903.8,213.2z M969.7,521c0,0,16.2-23.2,13.3-48.6c-1.4-12.6-7.3-25.5-17.7-30.1
			c-19.4-8.5-27.9,13.4-27.9,13.4S964.5,462.4,969.7,521L969.7,521z"/>
		<path class="st5" d="M791.8,556.3c-0.7,1.3-1,2-1,2s50.5,37.9,102.3-0.6c27.7-20.6,25.1-71.5,16.6-93.1c-22.1,5-40.8,14-56.4,24.5
			c19.8-17.6,37.1-30.6,37-30.9l22.5-6.4l43.7-15c0.5,3.3,16.5,78-29.5,128.8c-20.4,22.6-116,73.1-161.4-13.3L791.8,556.3
			L791.8,556.3z"/>
		<path class="st5" d="M796.5,561.8c-28.4,43.3-100.2,18.5-98.9-27.2c0,0,47.9,26.4,90.3-22.2c24.7-28.4,104-106.8,211.5-80.7
			C925.1,448,826.9,515.7,796.5,561.8L796.5,561.8z"/>
		<path class="st5" d="M1009.4,683.9c-6.8,4-31,28.9-31,66.3c0,18.7,1.9,112.8,11.1,170.3c-14,9.1-23.7,11-37.6,20.2
			c-7-66.6-12-163-9.6-202c2.7-44.4,26.4-74.2,48.5-86.9c6.9-4,14.1-7.9,21.4-11.8c37.8-20.4,76.9-41.5,76.9-77.5
			c0-28.2-11-37-22.6-46.4l-1.2-1c-7.7-6.2-16.4-13.3-21.6-24.9c-14.1-31.7-16.4-112.3,0-132.8c8.2-10.2,30.1-44.6,23.8-67.6
			c-2.4-8.8-8-15.3-17-20c-9.6-4.9-22.5-7.4-38.4-7.4c-31.2,0-65.9,9.5-83.7,15.1c-63.8,20.2-140.8,78.5-163,95.9
			c-0.6,0.5-1,0.8-1.1,0.8l-14.2,9.8l8.8-14.8c0.5-0.9,56.5-92.9,156.6-126.6c19.5-6.6,57.7-17.6,95.3-17.6
			c22.4,0,41.3,3.9,56.4,11.6c18.3,9.4,30.7,24.3,35.9,43.2c12.6,46.3-28.5,97.8-29.9,99.5c-4.8,8.5-6.8,70.7,4.2,95.6
			c1.5,3.4,5.7,6.8,11,11.1c1.7,1.3,3.5,2.7,5.5,4.2c15.6,11.8,39.3,29.6,39.3,70.7c0,56.2-57,86.7-102.8,111.1
			c-7.5,4-14.7,7.8-21.1,11.6L1009.4,683.9z"/>
		<path class="st5" d="M941.4,245.3c-9.1-15.3-32.3-45-85.7-71c-59.6-29-128.7-43.8-205.2-43.8v0h-0.3v0
			c-76.5,0-145.6,14.8-205.2,43.8c-53.4,26.1-76.6,55.7-85.7,71l-3.9,5.2l45.8,10.2l1.5-1.8l0.8-1.7c0.7-3,6.8-19.3,57.9-44.2
			c54.5-26.6,118.1-40,189.1-40.1c70.9,0,134.5,13.5,189.1,40.1c51,24.9,57.2,41.2,57.9,44.2l0.7,1.7l1.4,1.8l45.8-10.2L941.4,245.3
			L941.4,245.3z"/>
		<path class="st5" d="M1001.2,251.9c24.5-20.3,6.3-39.2,8.2-62.2c1-12.3,2-23.9,6.1-30.3c22.5-35.6,75.7-46.4,76.3-46.5l25-4.9
			l-16.5-19.3c-2.1-2.5-70-67.2-175.1-33.3c-73.5,23.7-127.9,104-129.9,107.2l36.8,17.3c0.4-0.7,43.4-76.1,106.5-96.5
			c50.9-16.4,97.9-0.8,118,9.4c-21.4,8.5-49.3,24.1-66.2,50.6c-8,12.5-9.3,28.4-10.6,43.7c-1.7,20.3-3.3,39.4-18.3,51.8l39.6,13
			H1001.2z"/>
		<path class="st5" d="M954,240.3l5.2-4.3c13.7-11.4,15.3-29.7,16.9-49.3c1.3-15.7,2.7-32,11.1-45.3c15.5-24.4,40-39.7,60.2-48.8
			c-12.1-5.1-34.8-12.7-62.8-12.7c-15.5,0-30.6,2.3-44.9,7c-58.5,18.8-99.8,86.9-104.5,94.9l-1.7,2.8l-43.6-20.5l2.2-3.5
			c0.5-0.8,55.2-84.1,131.9-108.8c20.5-6.6,41.1-10,61.3-10c73.8,0,117.4,44,117.8,44.4l20.7,24.2l-31.2,6.1
			c-0.5,0.1-52.4,11-73.9,44.8c-3.5,5.6-4.5,16.8-5.5,28.6c-0.6,7,0.9,13.9,2.3,20.5c3.1,14.3,6.3,29.2-11.8,44.2l-1.6,1.3l-48-15.7
			L954,240.3z"/>
		<path class="st5" d="M903.8,213.2c0-0.1,9.9-43.3,37.3-65.1c38.7-30.7,85.9-14.4,86.3-14.2l6.9-21.2c-2.3-0.7-56.3-17.7-106,17.2
			c-50.1,35.1-56.1,67-56.6,70.5L903.8,213.2L903.8,213.2z"/>
		<path class="st5" d="M867.7,202.8l0.4-2.9c0.5-3.7,6.8-37,58.1-73c21.1-14.8,46.4-22.7,73.1-22.7c20.3,0,34.6,4.5,36.2,5l3.5,1.2
			l-9.2,28.2l-3.5-1.2c-1.3-0.4-13.3-4.3-29.3-4.3c-20.6,0-38.6,6.1-53.5,17.9c-26.2,20.9-35.9,62.5-36,63l-0.9,4.3l-38.8-15.5
			L867.7,202.8z M1025.1,129.3l4.6-14.1c-5.4-1.4-16.3-3.6-30.3-3.6c-25.6,0-48.7,7.2-68.8,21.3c-42.1,29.6-52.2,56.3-54.4,65.2
			l25.3,10c3.3-11.7,14.2-44.4,37.5-63c16.1-12.8,36.2-19.5,58.2-19.5C1009.7,125.8,1019.9,127.9,1025.1,129.3L1025.1,129.3z
			 M740.5,1127.6c-19.1-20.4-30.4-42.4-33.2-49.2c-1.6-3.8-3.3-11.2,2.3-16.9c4.4-4.5,11.9-6.7,22.5-6.7h16.3c17,0,36.9,0,48.7,0
			l9.9,0c13.9,0,20.8,4,24.1,7.3c4.8,4.9,5.6,11.6,2.3,20.1c-8.9,22.6-28.9,41-34.9,46.1c-7.8,6.7-18.9,10.7-29.9,10.7
			C757.3,1139,747.4,1135,740.5,1127.6L740.5,1127.6z M757,564.3l39.6-2.5c0,0-10.1,17.8-16.7,40.9c-7.4,26.1,6.8,64.2,6.8,64.2
			S733.9,607.1,757,564.3L757,564.3z"/>
	</g>
	<path class="st1" d="M650.4,423.1c-25.2,0-58.1-0.7-82.8-18.4c0,0,32.3,56.6,82.8,56.6l0-7.2l0,7.2c50.4,0,82.8-56.6,82.8-56.6
		C708.5,422.5,675.6,423.2,650.4,423.1L650.4,423.1z"/>
	<path class="st5" d="M719.9,422.9c-25.3,15.3-47.9,20.6-69.5,21.1c-21.6-0.5-44.2-5.8-69.5-21.1c0,0,36.9,44.9,69.3,45.3v0h0.2
		c0.1,0,0.1,0,0.2,0c32.4-0.3,69.3-45.3,69.3-45.3L719.9,422.9z M806.4,1243.4l-2.8-36.6c118.8-9.1,156.3-122.9,156.5-134.9h36.8
		C996.9,1099.5,947.3,1232.6,806.4,1243.4L806.4,1243.4z"/>
	<path class="st3" d="M846,1005.1c2.2-12.7,2.4-24.8-0.3-36.6c10.7-8,29.9-11,44.3-15.7c11.8-7.5,72.1,7.6,115.9-45.3
		c54.8-66.3,43.3-105.9,43.3-105.9c14.1,15.6,27.7,9.6,49.1,82.4c21.5,72.8-10.1,123.5-68.9,174.5c-27.8,24-67,34-100.8,37.8
		c11.3-11.3-19.3-12.5-40.4-20.4c1.7-17.1-1.1-33.6-13.8-46.9c-7.6-8-17.5-12.8-27.7-16.7c-0.6-1.3-1-2.5-1.6-3.8
		c0.3-1.2,0.7-2.3,0.9-3.6L846,1005.1z"/>
	<path class="st4" d="M888.6,1075.5c1.2-3.6,2.1-7.2,3-10.9c1-4,5.9-15.4-0.1-2.4c1.5-3.3,2.5-6.7,3.3-10.2
		c95.2-0.1,178-65.4,162-202.7c12.5-16.5,29.9,33.3,29.9,33.3s47.7,138.2-75.4,191.8c-41,17.9-77.2,30.7-85.8,25.5
		c-17.8,3.6-33.9-8.8-39.9-16.9C886.6,1080.6,887.7,1078,888.6,1075.5L888.6,1075.5z"/>
	<g>
		<path class="st5" d="M847.7,985.2c-0.1-11.6-2.5-22.8-8.1-34c-0.4-0.8-0.9-1.5-1.3-2.3c36.6-0.3,78.8-3.8,114.7-18.2
			c39.5-15.8,88.9-69.8,97.3-133.2c0,0,74.4,57.3,52.5,180c-20.5,115.2-117,152.8-227.1,159.1c-0.1-0.7,12.4-26.4,8.4-42.1
			c62.5,4.5,132.4-19.6,166.1-75c30.9-50.7,22.2-137.4,9.5-150.1C1029,967,917.6,986.9,847.7,985.2L847.7,985.2z"/>
		<path class="st5" d="M892.1,1014.1c-13.1-14.2-37.3-31.1-93.1-31.1l-148.4-0.1h-0.3c-42.8,0-148.5,0.1-148.5,0.1
			c-55.7,0-79.9,16.9-93,31.1c-19.2,20.7-22.2,49.4-8.9,85.4c35.2,95.7,84.7,192.8,250.4,193v0h0.2c0.1,0,0.1,0,0.2,0
			c165.7-0.1,215.2-97.3,250.4-193c13.3-35.9,10.3-64.7-8.9-85.3L892.1,1014.1z M866.3,1092.7c-16.8,48-61.9,164.3-215.9,164.5
			c-154-0.2-199.1-116.5-215.9-164.5c-9.3-26.6-8.6-46.4,2.2-58.6c7.3-8.4,24.2-18.4,62.7-18.4l40.2,0c29.6,0,66.8-0.1,110.9-0.1
			c44,0,81.3,0.1,110.9,0.1l40.2,0c38.5,0,55.3,10,62.7,18.3C874.9,1046.3,875.6,1066,866.3,1092.7L866.3,1092.7z"/>
		<path class="st5" d="M836.1,915.3c19.8,58.1,60.2,105.1,60.2,105.1s-55.6-2.6-58.7-12.4c-2.3-7.3-50.2-119.4-68.6-250.9
			C786.4,785.5,834.5,910.2,836.1,915.3L836.1,915.3z"/>
	</g>
</g>
</svg>
