<?xml version="1.0" encoding="utf-8"?>
<!-- Generator: Adobe Illustrator 24.1.1, SVG Export Plug-In . SVG Version: 6.00 Build 0)  -->
<svg version="1.1" id="Capa_1" xmlns="http://www.w3.org/2000/svg" xmlns:xlink="http://www.w3.org/1999/xlink" x="0px" y="0px"
	 viewBox="0 0 1080 1080" style="enable-background:new 0 0 1080 1080;" xml:space="preserve">
<style type="text/css">
	.st0{fill:#E53935;}
</style>
<path class="st0" d="M334.4,781.7c-15.9-161.3-28.9-295.4-28.8-297.9c0.1-2.5-13.5-4.6-30.2-4.6H245V363.7h237.2V139.5l111.9-67.2
	C662.3,31.3,712.4,5,722.3,5c23.9,0,51.8,30.2,51.8,56.1c0,11.3-3.4,25.2-7.6,30.9c-4.2,5.7-43.2,31.7-86.7,57.7l-79.1,47.4
	l-1.7,83.3l-1.7,83.3H835v115.5h-58.6l-29.6,297.9L717.2,1075H363.4L334.4,781.7L334.4,781.7z"/>
</svg>
