<?xml version="1.0" encoding="utf-8"?>
<!-- Generator: Adobe Illustrator 24.1.1, SVG Export Plug-In . SVG Version: 6.00 Build 0)  -->
<svg version="1.1" id="Capa_1" xmlns="http://www.w3.org/2000/svg" xmlns:xlink="http://www.w3.org/1999/xlink" x="0px" y="0px"
	 viewBox="0 0 1080 1080" style="enable-background:new 0 0 1080 1080;" xml:space="preserve">
<style type="text/css">
	.st0{fill:#F4511E;}
</style>
<g transform="translate(0,3)">
	<path class="st0" d="M197.7,2c-56-1.4-125.2,27.9-125.2,27.9l228.8,464L180,1012.5c110.7,93.6,232.8,48.8,232.8,48.8L469,660.1
		c7.1,6.7,14.6,12.9,22.2,18.6c24.4,17.3,50.8,30.5,77.2,40.6c26.4,10.2,53.9,18.3,81.3,24.4c18.3,4.1,35.6,7.1,53.8,9.1
		c-8.1,18.3-13.2,37.6-12.2,58.9c0,2,1,4.1,3.1,5.1h1c19.3,10.2,39.6,18.3,62,23.4c21.3,4.1,44.7,6.1,67.1,3.1
		c23.4-3,46.7-12.2,65-27.4c18.3-15.2,31.5-35.6,39.6-56.9l1-1v-1l3.1-27.4v-1c10.2-6.1,20.3-12.2,30.5-20.3
		c12.2-10.2,23.4-21.3,31.5-35.6c8.1-14.2,13.2-31.5,12.2-48.8c-1-16.3-7.1-32.5-14.2-46.7c-7.1-14.2-16.3-27.4-26.4-39.6
		c-20.3-23.4-44.7-42.7-71.1-57.9c-25.4-16.3-53.9-29.5-82.3-38.6l-11.2-3.1l-9.1-3c-6.1-2-11.2-5.1-16.3-7.1
		c-10.2-6.1-17.3-12.2-22.4-20.3c-10.2-15.2-11.2-38.6-6.1-63c1-6.1,3.1-12.2,5.1-18.3c2-6.1,4.1-12.2,6.1-19.3
		c1.5-6.6,2.4-13.2,2.8-20.5L898,167.5c-10.6-39.1-127.8-79.8-127.8-79.8L421.7,384L220.7,4.7C213.4,3.1,205.7,2.3,197.7,2L197.7,2z
		 M698.5,342.1c-2.1,10.9-3,22.3-3,33.7c1,17.3,6.1,36.6,17.3,52.8c11.2,16.3,26.4,28.4,41.7,35.6c8.1,4.1,16.3,7.1,23.4,9.1l12.2,3
		l10.2,2c26.4,7.1,51.8,17.3,75.2,30.5c23.4,13.2,45.7,29.5,64,47.7c18.3,18.3,32.5,41.7,34.6,65c1,16.3-1,28.4-6.1,38.6
		c-5.1,11.2-13.2,21.3-22.4,30.5c-4.1,4.1-9.1,8.1-13.2,11.2c0-9.1-1-18.3-3-27.4c-1-5.1-2-9.1-4.1-14.2c-2-4.1-4.1-9.1-9.1-12.2
		c-1,0-2,0-2,1c-6.1,15.2-16.3,28.5-27.4,37.6c-11.2,9.1-25.4,13.2-39.6,14.2c-14.2,1-29.5-2-44.7-6.1c-15.2-4.1-30.5-9.2-45.7-14.2
		l-2-1c-3-1-7.1,0-9.1,2c-8.1,10.2-14.2,19.3-21.3,29.5c-5.1,8.1-9.1,15.2-13.2,23.4c-18.3-7.1-35.6-13.2-53.9-20.3
		c-25.4-10.2-50.8-20.3-74.2-32.5c-24.4-11.2-47.7-24.4-68.1-39.6c-14.7-11-28.2-22.5-38.1-35.7l11.2-79.8L698.5,342.1z"/>
</g>
</svg>
