<?xml version="1.0" encoding="utf-8"?>
<!-- Generator: Adobe Illustrator 24.1.1, SVG Export Plug-In . SVG Version: 6.00 Build 0)  -->
<svg version="1.1" id="Capa_1" xmlns="http://www.w3.org/2000/svg" xmlns:xlink="http://www.w3.org/1999/xlink" x="0px" y="0px"
	 viewBox="0 0 1080 1080" style="enable-background:new 0 0 1080 1080;" xml:space="preserve">
<style type="text/css">
	.st0{fill-rule:evenodd;clip-rule:evenodd;fill:#FF7043;}
</style>
<path class="st0" d="M384.8,410c-123.2,0-187.9,155.3-259.1,155.3c-43.8,0-50.4-30.2-50.4-40.8c0-14.8,10.6-31.5,25.3-31.5
	c26.4,0,18.5,34.4,18.5,34.4s35.7-24.8,12.1-58c-18.8-26.5-58.6-27.8-85.8-7.6C17.8,482.2-1.9,513,7.3,563.9
	c4.4,24.6,20.9,60.3,55.1,80.6c34.2,20.3,86.1,25.3,104.4,25.3c98.1,0,194.1-72.9,296.8-103.7c26.4-7.9,49.7-9.6,67-9.9
	c4.3-0.2,45.2-2.1,85.8,10.1C719.1,597,815.2,670,913.3,670c18.3,0,70.2-5,104.4-25.3c34.2-20.3,50.6-56.1,55-80.7
	c9.1-50.9-10.5-81.6-38.1-102.1c-27.3-20.2-66.9-18.9-85.8,7.7c-23.5,33.2,12.1,57.9,12.1,57.9s-7.9-34.4,18.5-34.4
	c14.7,0,25.3,16.7,25.3,31.5c0,10.6-6.6,40.8-50.4,40.8c-71.2,0-135.9-155.3-259.1-155.3c-114.7,0-137.5,52.5-154.8,76.7
	c-0.2,0.2-0.2,0.5-0.4,0.7c-0.2-0.3-0.3-0.6-0.5-0.9C522.3,462.5,499.5,410,384.8,410L384.8,410z"/>
</svg>
