<?xml version="1.0" encoding="utf-8"?>
<!-- Generator: Adobe Illustrator 26.0.0, SVG Export Plug-In . SVG Version: 6.00 Build 0)  -->
<svg version="1.1" id="Capa_1" xmlns="http://www.w3.org/2000/svg" xmlns:xlink="http://www.w3.org/1999/xlink" x="0px" y="0px"
	 viewBox="0 0 1080 1080" style="enable-background:new 0 0 1080 1080;" xml:space="preserve">
<style type="text/css">
	.st0{fill:#FFD600;}
</style>
<path class="st0" d="M426,548.2l-46.5-304.4c104.3-33.2,216.7-33.2,321,0L654,548.2c-3.7,26.2-26.8,45.5-53.5,45.5H479
	C452.8,593.6,429.8,574.4,426,548.2 M1075,754.1L1075,754.1c0-42.3-25.1-80.2-64.2-97.9C985.1,532.6,912.4,424,807.5,352.9
	l-94.2,258.9c-7.5,21.4-27.8,35.3-50.3,35.3H416.9c-22.5,0-42.8-13.9-50.3-35.3l-94.2-258.9C167.6,424,94.9,532.6,69.2,655.7
	C30.1,673.9,5,711.3,5,754.1l345.1,98.4c19.3,5.4,39.1,8.6,58.9,8.6H670c19.8,0,39.6-3.2,58.8-8.6L1075,754.1z"/>
</svg>
