<?xml version="1.0" encoding="utf-8"?>
<!-- Generator: Adobe Illustrator 24.1.1, SVG Export Plug-In . SVG Version: 6.00 Build 0)  -->
<svg version="1.1" id="Capa_1" xmlns="http://www.w3.org/2000/svg" xmlns:xlink="http://www.w3.org/1999/xlink" x="0px" y="0px"
	 viewBox="0 0 1080 1080" style="enable-background:new 0 0 1080 1080;" xml:space="preserve">
<style type="text/css">
	.st0{fill:#F68712;}
	.st1{fill:#FAB20B;}
	.st2{fill:#FBC707;}
	.st3{fill:#FFF200;}
	.st4{fill:#F47216;}
	.st5{fill:#F1471D;}
	.st6{fill:#F25C19;}
	.st7{fill:#F89C0E;}
</style>
<g transform="translate(-1.2212 -86.553)">
	
		<rect x="264.2" y="349.5" transform="matrix(0.7071 -0.7071 0.7071 0.7071 -284.4839 566.1326)" class="st0" width="554" height="554"/>
	<path class="st1" d="M149.6,626.8L77.9,359.3L6.2,91.9l267.5,71.7l267.5,71.7L345.4,431L149.6,626.8z"/>
	<path class="st2" d="M539.6,234.8l-266.7-71.3L6.2,91.9L147.8,93l143.4,1.8L416.4,165L539.6,234.8z"/>
	<path class="st3" d="M6.2,91.9l71.6,266.6l71.3,266.7L79.3,502L9.2,376.9L7.4,233.5L6.2,91.9z"/>
	<path class="st4" d="M541.2,234.9l267.5-71.7l267.5-71.7L1004.5,359l-71.7,267.5L737,430.7L541.2,234.9z"/>
	<path class="st5" d="M933.3,624.9l71.3-266.7l71.6-266.6l-1.1,141.6l-1.8,143.4l-70.2,125.1L933.3,624.9z"/>
	<path class="st2" d="M1076.2,91.6l-266.6,71.6l-266.7,71.3L666,164.7l125.1-70.1l143.4-1.8L1076.2,91.6z"/>
	<path class="st6" d="M932.9,626.5l71.7,267.5l71.7,267.5l-267.5-71.7l-267.5-71.7l195.8-195.8L932.9,626.5z"/>
	<path class="st0" d="M542.8,1018.5l266.7,71.3l266.6,71.6l-141.6-1.1l-143.4-1.8L666,1088.3L542.8,1018.5z"/>
	<path class="st5" d="M1076.2,1161.4l-71.6-266.6l-71.3-266.7l69.8,123.2l70.2,125.1l1.8,143.4L1076.2,1161.4z"/>
	<path class="st7" d="M541.2,1018.2l-267.5,71.7L6.2,1161.5l71.7-267.5l71.7-267.5l195.8,195.8L541.2,1018.2z"/>
	<path class="st3" d="M149.1,628.2L77.8,894.9L6.2,1161.6L7.4,1020l1.8-143.4l70.2-125.1L149.1,628.2z"/>
	<path class="st6" d="M6.2,1161.5l266.6-71.6l266.7-71.3l-123.2,69.8l-125.1,70.1l-143.4,1.8L6.2,1161.5z"/>
</g>
</svg>
