<?xml version="1.0" encoding="utf-8"?>
<!-- Generator: Adobe Illustrator 24.1.1, SVG Export Plug-In . SVG Version: 6.00 Build 0)  -->
<svg version="1.1" id="Capa_1" xmlns="http://www.w3.org/2000/svg" xmlns:xlink="http://www.w3.org/1999/xlink" x="0px" y="0px"
	 viewBox="0 0 1080 1080" style="enable-background:new 0 0 1080 1080;" xml:space="preserve">
<style type="text/css">
	.st0{fill:#00ACC1;}
</style>
<g transform="matrix(2.1985 0 0 2.1985 16.994 11.498)">
	<path class="st0" d="M234.4,482c-3.5-2.4-7.7-10.5-10-19.5c-2.1-8-2.9-29.1-1.5-39.4c0.5-3.8,0.8-7.1,0.7-7.3
		c-0.2-0.2-3.4-0.7-7.3-1.1c-22.1-2.7-45.6-10.2-63.6-20.3c-3.8-2.1-7.4-3.9-7.9-3.9c-0.6,0-2.5,2.9-4.3,6.4
		c-8.5,16.3-23.2,32.4-34.4,37.7c-4.1,1.9-9.6,2.4-12.1,1c-3.8-2-4.9-10.1-2.7-19.1c1.6-6.1,7.8-19,12.9-26.6
		c2.2-3.3,6.7-9,9.8-12.5l5.8-6.5l-3-2.9c-7.9-7.6-22.8-25.1-22.8-26.8c0-0.6,20.3-14.7,21.8-15.1c0.8-0.2,2.6,1.6,5,5
		c5.3,7.3,19.6,21.4,28,27.7c63.9,47.5,154,35.6,202.5-26.8c2.6-3.3,5.1-6,5.6-6c1,0,21,13.6,21.7,14.7c0.6,1-8.1,12.4-15.6,20.3
		c-3.6,3.7-6.5,7.1-6.5,7.5c0,0.4,2.8,3.6,6.2,7.2c10.8,11.4,21.5,29.2,24.4,40.9c2.3,8.9,1.1,17-2.7,19.1c-0.8,0.4-3,0.8-4.8,0.8
		c-11.7,0-31-18.8-42.5-41.2c-2.2-4.3-4.4-7.8-4.8-7.8c-0.4,0-2.7,1.2-5,2.7c-16.7,10.7-41.6,19.9-63.1,23.4c-4.6,0.7-8.7,1.6-9.2,2
		c-0.6,0.5-0.5,2.6,0.3,7.5c1.4,8.7,0.9,29.2-1,37.5c-1.9,8.6-4.8,15.2-8.4,19.2C241.7,484.2,238.5,484.9,234.4,482L234.4,482z
		 M5,307.1c-0.2-0.5-0.3-29-0.2-63.2L5,181.6h32.6l0.2,22.9c0.2,17.1,0.4,23.1,1.2,23.5c0.5,0.3,8.7,0.6,18.1,0.6
		c13.4,0,17.4-0.2,18-1c0.6-0.7,0.9-8.5,1.1-23.5l0.2-22.5h32.6v126H76.5l-0.2-24.1c-0.1-16.2-0.5-24.4-1.1-25.1
		c-0.7-0.8-4.7-1-18.1-1s-17.5,0.2-18.1,1c-0.6,0.7-0.9,8.9-1.1,25.1l-0.2,24.1l-16.1,0.2C9,308,5.3,307.9,5,307.1L5,307.1z
		 M137,307.1c-0.2-0.5-0.3-29-0.2-63.2l0.2-62.2h80.8l0.2,13.8l0.2,13.8l-23.9,0.2l-23.9,0.2l-0.2,9.3c-0.2,6.9,0,9.4,0.8,9.9
		c0.5,0.3,9.8,0.6,20.6,0.6l19.6,0l-0.2,13.8l-0.2,13.8l-20.2,0.4l-20.2,0.4v21.8l24.9,0.4l24.9,0.4v27.2l-41.4,0.2
		C146.1,308,137.3,307.9,137,307.1L137,307.1z M245.8,307.1c-0.2-0.5-0.3-29-0.2-63.2l0.2-62.2h32.6l0.4,49l0.4,49l23.7,0.4
		l23.7,0.4v27.2l-40.2,0.2C254.6,308,246.1,307.9,245.8,307.1L245.8,307.1z M349,307.1c-0.2-0.5-0.3-29-0.2-63.2l0.2-62.2l17.1-0.2
		c9.4-0.1,17.5,0.1,17.9,0.4c1.2,0.8,18.4,47.8,22.2,60.5c4,13.2,3.6,12.5,4.5,11.6c0.4-0.4,2.3-5.6,4.1-11.6
		c4-13.1,19.9-58.7,21-60.1c0.6-0.8,4.8-0.9,17.9-0.8l17.2,0.2v126l-14.5,0.2l-14.5,0.2l-0.5-2.1c-1.1-4.3,0.4-49.3,2-62.2
		c2.5-20.2,2.2-20.6-3.8-3.1c-6.5,18.9-19.4,53.5-20.6,55.4c-1.1,1.6-1.7,1.8-9.2,1.8c-5.5,0-8.3-0.3-8.8-1
		c-1-1.2-16.8-44.4-21.1-57.6c-3.1-9.3-4.7-12.6-4.7-9.4c0,0.8,0.7,7.2,1.6,14.2c1.6,13.2,3,57.6,2,61.8l-0.5,2h-14.4
		C353,308.1,349.3,307.8,349,307.1L349,307.1z M359.3,163.4c-3.1-5.2-10.8-14.9-17.3-21.7c-21-22.1-46.2-36-77.2-42.7
		c-8.9-1.9-11.2-2.1-27.6-2.1c-19.2,0-23.5,0.4-38.4,4.3c-20.2,5.3-38.6,14.7-54.8,28c-7.8,6.4-20.3,19.5-25.6,27
		c-3.3,4.6-4.9,6.3-5.8,6c-2.8-1.1-21.8-13.8-21.8-14.6c0-1.8,12.8-17.9,21.5-26.9l9-9.4l-5.9-6.4C104.5,93,94.1,75.5,91.2,64.2
		c-2.3-8.9-1.1-17,2.7-19.1c0.8-0.4,3-0.8,4.8-0.8c11.7,0,31,18.8,42.5,41.2c2.2,4.3,4.3,7.8,4.6,7.8c0.3,0,3.4-1.6,6.7-3.5
		c17.3-9.9,45.2-18.7,64.2-20.3c3.3-0.3,6.4-0.8,6.9-1.1c0.7-0.4,0.6-2.5-0.4-8.5c-1.8-11-1.3-32.7,1.1-41.7
		c3.8-14.2,9.8-22.2,16-21.1C246-1.8,251.6,7.6,254.5,21c1.9,8.8,1.9,33.5,0.1,41.5c-0.7,3-1,5.7-0.7,6c0.3,0.3,4,1.1,8.3,1.8
		c24.7,3.9,43.5,10.8,66.5,24.5c1.6,0.9,3,1.4,3.3,1s2.4-4.6,4.7-9.3c9.1-18.2,23.8-34.8,35.8-40.4c4.1-1.9,9.6-2.4,12.1-1
		c3.8,2,4.9,10.1,2.7,19.1c-1.7,6.5-8,19.4-13.8,27.8c-2.7,3.9-8.1,10.4-12.1,14.4l-7.2,7.3l7.1,7.5c7.2,7.6,19.8,23.8,22.1,28.2
		c1,2,1.1,2.6,0.2,3.4c-1.8,1.6-20.9,12.9-21.9,12.9C361.1,165.7,360.1,164.6,359.3,163.4L359.3,163.4z"/>
</g>
</svg>
