<?xml version="1.0" encoding="utf-8"?>
<!-- Generator: Adobe Illustrator 24.1.1, SVG Export Plug-In . SVG Version: 6.00 Build 0)  -->
<svg version="1.1" id="Capa_1" xmlns="http://www.w3.org/2000/svg" xmlns:xlink="http://www.w3.org/1999/xlink" x="0px" y="0px"
	 viewBox="0 0 1080 1080" style="enable-background:new 0 0 1080 1080;" xml:space="preserve">
<style type="text/css">
	.st0{fill:#6963B9;}
</style>
<g id="purple" transform="matrix(1.594 0 0 1.594 -42.766 -45.142)">
	<path class="st0" d="M607.3,31.5H123.9c-33.4,0-60.4,27.1-60.4,60.4v550.4c0,33.4,27.1,60.4,60.4,60.4h483.3
		c33.4,0,60.4-27.1,60.4-60.4V91.9C667.7,58.5,640.6,31.5,607.3,31.5z M214.6,602V467.8l75.5,67.1L214.6,602z M449.5,602V401.6
		c-0.3-15.7-7.9-34.5-42-34.5c-68.3,0-144.8,34.3-145.6,34.7l-47.4,21.5V132.1h67.1v190.6c33.5-10.9,80.4-22.7,125.9-22.7
		c41.5,0,66.3,16.3,79.9,30c28.9,29.2,29.3,66.4,29.2,70.7V602H449.5z M466.3,241.2h-67.1c26.4-34.6,42.9-71,50.3-109.1h67.1
		C512.1,170.3,496.6,206.8,466.3,241.2z"/>
</g>
</svg>
