<?xml version="1.0" encoding="utf-8"?>
<!-- Generator: Adobe Illustrator 26.0.0, SVG Export Plug-In . SVG Version: 6.00 Build 0)  -->
<svg version="1.1" id="Capa_1" xmlns="http://www.w3.org/2000/svg" xmlns:xlink="http://www.w3.org/1999/xlink" x="0px" y="0px"
	 viewBox="0 0 1080 1080" style="enable-background:new 0 0 1080 1080;" xml:space="preserve">
<style type="text/css">
	.st0{fill:#26A69A;}
</style>
<g>
	<path class="st0" d="M688.1,506.5l-96.7,95.3l145.1,142.8L591.4,887.4l96.7,95.2l145.2-142.8l145.1,142.8l96.6-95.2L929.9,744.6
		L1075,601.7l-96.7-95.3L833.2,649.3L688.1,506.5z M178.5,97.4C83.1,97.4,5,176.4,5,272.9v526.1c0,97.4,78.1,175.4,173.4,175.4
		h173.5c96.2,0,173.4-78.1,173.4-175.4V272.9c0-96.5-77.2-175.4-173.4-175.4L178.5,97.4z M178.5,272.9h173.4v526.1H178.4
		L178.5,272.9z"/>
</g>
</svg>
