<?xml version="1.0" encoding="utf-8"?>
<!-- Generator: Adobe Illustrator 26.0.0, SVG Export Plug-In . SVG Version: 6.00 Build 0)  -->
<svg version="1.1" id="Capa_1" xmlns="http://www.w3.org/2000/svg" xmlns:xlink="http://www.w3.org/1999/xlink" x="0px" y="0px"
	 viewBox="0 0 1080 1080" style="enable-background:new 0 0 1080 1080;" xml:space="preserve">
<style type="text/css">
	.st0{fill:#E64A19;}
</style>
<g>
	<path class="st0" d="M912.8,320.3c-5.7,6.4-10.9,13.2-15.4,20.4c0.4,62.5,1.3,184.2,1.7,201.5c2.5,105.5-34.6,195.8-113.3,276
		c-10.9,11.1-22.2,21.4-33.8,31.7c10.7-9.5-25.1,24.4-83.9,63.5c-42.1,26.5-86.2,48.9-131.8,66.8c-97.7-39-178.7-92-247.3-162
		c-12.4-12.7-23.8-25.6-34.1-38.8l-0.4-0.6c-13.6-17.2-25.8-35.7-36.5-55.2l0.2-0.2L202.7,700c-44.5-10.2-83.3-37.4-108.1-75.7
		c3.2,20.9,7.6,41.3,13.6,61.2c11.4,35.7,15.2,42.8,34.9,82.8c21.7,39.6,50,77.3,85.2,113.1c81,82.6,176.9,144.1,293.1,188l14.8,5.6
		l14.8-5.6c118.7-44.8,215.3-106.3,295.4-188c96.6-98.4,142-210.1,138.9-341.3c-0.3-12.4-0.5-185.7-0.7-337
		c-4.4,11.7-9.2,23.2-14.5,34.5C956.9,265.3,936.6,293.3,912.8,320.3z"/>
	<path class="st0" d="M985.3,5v59.7l0.1,3.8v20.2l0.1,68.8l-0.4,1.4c-5.1,15.5-9.9,30.2-10.7,32.5l-1.9,5
		c-6.1,16.7-13,33.2-20.7,49.3l-1.5,3.1c-12.7,24.6-31.1,49.1-51.7,70.6l-2.4,2.6c-1.5,1.7-3.1,3.5-4.8,5.1l-2.7,2.8
		c-23.9,24.7-49.5,47.5-80,64.3l-5,2.8c-11.9,6.7-23.7,13.4-35.9,19.1l-1,0.4c-11.9,5.7-12.8,5.7-12.9,18.2v378.1l-1.5,1.2
		c-26.3,22.6-53.7,43.6-82,62.9V485.9c-0.2-5.5-0.7-11.1-1.1-19l-1.7,0.7c-5.9,2.6-10.5,4.2-14.6,6.5l-30.6,17.4
		c-20.4,11.7-40.8,23.4-61.2,35l-31.3,17.7c-31.4,17.6-62.9,35.2-94.2,53l-0.3,0.2c-8.1,4.6-51.3,29.4-104.7,60.1l-0.1-0.4l-2.9,1.8
		c-8.6,5.3-17.8,9.7-27.3,13.2l-0.3,0.1h-0.1l-2.9,1c-15.5,5.3-31.7,8.1-48.1,8.3h-6.3c-8.5-0.2-17.1-1.2-25.5-2.9l-2.1-0.4l-2-0.5
		L210,677c-5.6-1.4-11.1-3.2-16.6-5.2l-2-0.7l-2-0.8v0l-1.8-0.7c-56.1-22.7-93-75.9-93-139.5v-2.7l0.2-5.4v-2.6H95l0.2-2.2
		c4.7-53.7,37.6-100.8,86.3-123.8l2.5-1.2c19.5-8.8,40.4-13.4,61.5-13.6h1l1,0h2.4c48,0.7,92.9,23.8,121.3,62.5l1.2,1.3
		c2.6,3.1,4.8,6.5,6.4,10.1l1.3,2.1l1.2,2.2l-0.7,0.4l0.5,1.5c1,3.6,1.5,7.4,1.5,11.3v1.2c-0.8,23.1-19.8,41.5-43,41.4H338
		c-13.5-0.2-26.1-7.3-34.4-19.1l-0.4,0.2l-1-1.4c-10.6-14.6-25.8-24.3-42.5-27.2l-2-0.4c-3.4-0.5-6.9-0.8-10.3-0.8h-1.5
		c-32,0.7-59.1,24-64.4,55.6l-0.3,2.1c-0.2,1.5-0.3,2.9-0.4,4.4l-0.1,7.4l0.1,1.5c2.7,34.8,31.7,61.6,66.6,61.5h2.3
		c6.5-0.3,12.9-1.4,19.1-3.5l0.3-0.1l0.3-0.1c12.1-5.2,249.6-137.4,263.8-145.4l-0.4-0.2c-7.7-3.3-73.3-23.6-100-37.3l-3.9-1.9
		c-36.8-18.9-70.3-43.7-99.2-73.4l-3-3.2c-23.8-24.9-44.4-53.4-61.1-84.6l-0.5-0.9c-3.8-6.6-8.7-9.7-17.2-9.6h-0.7l-25.6,0.1h-24.7
		l-1.3,0h-15.1v64.7c-0.8,22.8-19.5,40.8-42.2,40.7h-2.5c-22.8-0.6-41-19.1-41-41.9V5H985.3L985.3,5z M899.4,90h-719v63.8h1.3v0.1
		h121.2c12.4,0.1,12.4,0.8,17.6,13.9l1.2,3.1c23.2,57.5,58,106,109.9,142.2l3.5,2.4c22.9,15.2,47.7,27.5,73.6,36.7l3.4,1.2
		c36.9,12.8,74.5,16.6,113,14.7l3.8-0.2c25.3-1.5,50.4-6.6,74.6-15.2l4.3-1.6c19.9-7.3,38.8-15.9,57-26.7l3.4-2
		c21.9-13.7,42.1-30.4,60.1-49.7l2.5-2.6c18-18.9,33.2-40.8,45.2-64.8l2.4-4.8c7-14.4,13.9-28.6,20.8-44.4v-1.1L899.4,90L899.4,90z
		 M605.9,156.8h10.3c82.7,0.1,162.2,0.9,169.1,2.6l-0.8,2.8c-7.6,24.5-20.1,46.8-36.7,65.1l-1.8,2c-33.1,37.5-79.9,60.3-129.8,63.2
		l-2.8,0.2c-91.9,5.1-174.7-60.6-189-133.3c5.2-1.5,73.9-2.3,150-2.5h13.1l7.8,0L605.9,156.8z"/>
</g>
</svg>
