<?xml version="1.0" encoding="utf-8"?>
<!-- Generator: Adobe Illustrator 24.1.1, SVG Export Plug-In . SVG Version: 6.00 Build 0)  -->
<svg version="1.1" id="Capa_1" xmlns="http://www.w3.org/2000/svg" xmlns:xlink="http://www.w3.org/1999/xlink" x="0px" y="0px"
	 viewBox="0 0 1080 1080" style="enable-background:new 0 0 1080 1080;" xml:space="preserve">
<style type="text/css">
	.st0{fill:#0277BD;}
</style>
<g transform="translate(-6.9877)">
	<path class="st0" d="M445.7,880H312V618.3c0-70.6-25.7-105.9-77.2-105.9c-25.7,0-47,9.8-63.9,29.5C154.3,561.5,146,587,146,618.3
		V880H12V200H146v289.5h1.7c35.1-53.4,82.4-80.2,141.9-80.2c104,0,156,62.9,156,188.6L445.7,880z"/>
</g>
<path class="st0" d="M586.1,507.6v89h-88.9v89h88.9v89H675v-89h88.9v-89H675v-89H586.1z M897.2,507.6v89h-88.9v89h88.9v89h88.9v-89
	h88.9v-89h-88.9v-89H897.2z"/>
</svg>
