<?xml version="1.0" encoding="utf-8"?>
<!-- Generator: Adobe Illustrator 24.1.1, SVG Export Plug-In . SVG Version: 6.00 Build 0)  -->
<svg version="1.1" id="Capa_1" xmlns="http://www.w3.org/2000/svg" xmlns:xlink="http://www.w3.org/1999/xlink" x="0px" y="0px"
	 viewBox="0 0 1080 1080" style="enable-background:new 0 0 1080 1080;" xml:space="preserve">
<style type="text/css">
	.st0{fill:#E53935;}
</style>
<path class="st0" d="M773.3,647c4.3-35.3,7.5-70.6,7.5-107s-3.2-71.7-7.5-107h180.8c8.6,34.2,13.9,70.1,13.9,107
	c0,36.9-5.4,72.8-13.9,107 M678.6,944.5c32.1-59.4,56.7-123.6,73.8-190.5h157.8C858.9,842.3,777,910.8,678.6,944.5 M665.2,647H414.8
	c-5.3-35.3-8.6-70.6-8.6-107s3.2-72.2,8.6-107h250.4c4.8,34.8,8.6,70.6,8.6,107S670,611.7,665.2,647 M540,965.9
	c-44.4-64.2-80.2-135.4-102.2-211.9h204.4C620.3,830.5,584.4,901.7,540,965.9 M326,326H169.8c50.8-88.8,133.2-157.3,231.1-190.5
	C368.8,194.9,344.7,259.1,326,326 M169.8,754H326c18.7,66.9,42.8,131.1,74.9,190.5C303,910.8,220.6,842.3,169.8,754 M125.9,647
	c-8.6-34.2-13.9-70.1-13.9-107c0-36.9,5.4-72.8,13.9-107h180.8c-4.3,35.3-7.5,70.6-7.5,107c0,36.4,3.2,71.7,7.5,107 M540,113.6
	c44.4,64.2,80.2,135.9,102.2,212.4H437.8C459.8,249.5,495.6,177.8,540,113.6 M910.2,326H752.4c-17.1-66.9-41.7-131.1-73.8-190.5
	C777,169.2,858.9,237.2,910.2,326 M540,5C244.1,5,5,245.7,5,540c0,295.5,239.5,535,535,535l0,0c295.5,0,535-239.5,535-535v0
	C1075,244.5,835.5,5,540,5C540,5,540,5,540,5z"/>
</svg>
