<?xml version="1.0" encoding="utf-8"?>
<!-- Generator: Adobe Illustrator 24.1.1, SVG Export Plug-In . SVG Version: 6.00 Build 0)  -->
<svg version="1.1" id="Capa_1" xmlns="http://www.w3.org/2000/svg" xmlns:xlink="http://www.w3.org/1999/xlink" x="0px" y="0px"
	 viewBox="0 0 1080 1080" style="enable-background:new 0 0 1080 1080;" xml:space="preserve">
<style type="text/css">
	.st0{fill:#90A4AE;}
</style>
<path class="st0" d="M603,12.5c58.3,23.3,81.4,115.2,50.9,206C623.7,308.8,552.4,363.9,493.8,341c-58.1-22.6-81.7-114.8-51.6-205.8
	C471.9,44.6,544.1-9.9,603,12.5 M929.3,201c49.3,40,37.8,129.6-24.8,201.2c-64.2,71.3-155.3,97.2-204.4,57.9
	c-49.6-39.6-37.6-128.9,25.9-199.9C789.3,188.4,880.4,162.4,929.3,201 M237.6,81.5c64.9,7.7,112.2,89.2,108.4,181.3
	c-6.9,92.2-62.6,161.1-127,153.7c-64.5-7.4-111.6-88.2-106.3-180.7C118,143.3,174.8,74.5,237.6,81.5 M1059.1,556.1
	c37.6,50.9,6.3,134.6-71.1,185.4c-77.4,50.9-170.9,50.4-209.6-1.7c-38.7-52.2-6.8-134.8,69.5-186.9
	C925.8,503.5,1020,503.7,1059.1,556.1 M698.9,1004.3c-22.9,44-83.2,72.5-132.7,67.6c-103.3-9.7-155.3-143.3-246.1-195.7
	c-90.8-52.5-235.1-28.1-292-115.1c-32.7-48.7-30-126.3,4.4-172.2c47.5-63.3,150.3-52.6,227.4-74.5c101.5-27.2,217-121.9,308.7-68.9
	c91.3,52.7,70.9,199.9,94.3,301.7C681.3,832.3,738.6,928.1,698.9,1004.3z"/>
</svg>
