<?xml version="1.0" encoding="utf-8"?>
<!-- Generator: Adobe Illustrator 24.1.1, SVG Export Plug-In . SVG Version: 6.00 Build 0)  -->
<svg version="1.1" id="Capa_1" xmlns="http://www.w3.org/2000/svg" xmlns:xlink="http://www.w3.org/1999/xlink" x="0px" y="0px"
	 viewBox="0 0 1080 1080" style="enable-background:new 0 0 1080 1080;" xml:space="preserve">
<style type="text/css">
	.st0{fill-rule:evenodd;clip-rule:evenodd;fill:#7986CB;}
</style>
<path class="st0" d="M582.3,689.5L458.8,567.3l1.5-1.5c84.6-94.5,144.9-203.1,180.4-318h142.5v-97.4H442.7V53h-97.3v97.4H5v97.4
	h543.3c-32.6,93.5-84.1,182.6-154.2,260.5c-45.2-50.2-82.7-105.2-112.4-163.1h-97.3c35.5,79.4,84.1,154.4,144.9,222.1L81.8,811.7
	l69.1,69.2l243.2-243.5l151.3,151.5L582.3,689.5 M856.1,442.6h-97.3L540,1027h97.3l54.5-146.1h231l55,146.1h97.3L856.1,442.6
	 M728.7,783.5l78.8-210.9l78.8,210.9H728.7z"/>
</svg>
