<?xml version="1.0" encoding="utf-8"?>
<!-- Generator: Adobe Illustrator 24.1.1, SVG Export Plug-In . SVG Version: 6.00 Build 0)  -->
<svg version="1.1" id="Capa_1" xmlns="http://www.w3.org/2000/svg" xmlns:xlink="http://www.w3.org/1999/xlink" x="0px" y="0px"
	 viewBox="0 0 1080 1080" style="enable-background:new 0 0 1080 1080;" xml:space="preserve">
<style type="text/css">
	.st0{fill:#F44336;}
</style>
<g>
	<path class="st0" d="M444.3,190.1L444.3,190.1c6.2,4.1,15.6,8.4,33.3,15.5c72,28.7,106.7,59.9,132.5,119.1
		c4.4,10,8.7,19.5,12.3,26.5c1.9,3.8,3.5,6.7,4.8,9c1,1.7,1.8,2.9,2.7,4.1c0.6,0.7,1.4,1.8,2.6,3c5.3,5.5,11.5,6.6,15.9,6.6
		c5.8,0,11.5-2.3,15.7-6.3c2.3-2.2,4.1-4.9,5.4-7.9c1.3-3.2,1.8-6.1,2-8.2c0.3-2.9,0.3-6.2,0-10.6c-0.5-8.3-1.9-18.3-3.1-25.3
		c-2.7-16.8-7.4-40.2-12.7-55.6c-13-38.2-50.8-82.1-84.2-97.9c-19.1-9.1-50.8-14.7-63.5-16.8c-12-1.9-23.4-3.2-32.8-3.6l-10.5-0.5
		l-0.2,0.3c-6.6,0.1-12.4,1-17.6,3c-3.9,1.5-7.1,3.6-9.7,6.3c-5.2,5.4-7.7,13-6.5,20.3C432.6,182.4,440.8,187.8,444.3,190.1z"/>
	<path class="st0" d="M318.3,286.7L318.3,286.7c2.8,2,6.1,3.7,11,5.7c7.1,2.9,17.1,6.3,31.4,10.7c92.2,27.7,142.7,73.8,174.3,159.2
		l18,48.7l36.6-5.6l2.4-51c1.1-23.3-2.2-52.8-8.2-73.3c-13.7-46.9-35.6-78.8-69-100.5c-32.4-21-75.1-32.4-138.6-37.2
		c-7.7-0.6-14.4-1-20.2-1.2l-0.1-0.5l-14.8,0.2c-5.1,0.1-9,0.4-12.3,1c-1.8,0.3-4.5,0.9-7.5,2.2c-7.1,3.1-10.6,8.2-12.3,12
		c-3.3,7.2-2.5,15.9,2,22.6C313.5,283.1,316.4,285.3,318.3,286.7z M340.3,255l-4.4,6.3c0,0,0,0,0,0L340.3,255L340.3,255
		C340.3,255,340.3,255,340.3,255z"/>
	<path class="st0" d="M819.3,253.5c-17.9-36.2-52.6-76.9-100.4-117.6C672.3,96.2,614.2,57.1,550.8,23c-13.9-7.5-21.7-11.5-26.9-13.9
		l-0.6-0.3c-3.1-1.4-6.6-3.1-11.5-3.6c-4.4-0.5-8.6,0.2-12.6,2.2c-8.1,4-13.2,13.1-12.4,22.1c0.5,5.6,2.6,10.1,6.5,14.1
		c3.6,4,9.2,8.5,20,16.9c8.9,6.9,21,16,41.8,31.6c108.9,81.4,161,139.7,180,201.1c11.3,36.5,10.5,61.5-3,92.3
		c-14.5,33.1-45.1,75-105.7,144.8C523.2,649.1,482.9,720,466.7,811.3c-7.9,44.7-8.4,63-2.5,109.1c3.9,31.1,11.5,67.2,17.7,83.9
		c5.3,14.6,9.6,26,21.6,35.3c9.9,7.6,22.4,11.8,45.2,19.4l5.3,1.8c15,5,26.9,9,36,11.4c6.3,1.6,11,2.5,15.3,2.7c0.7,0,1.4,0.1,2,0.1
		c7.9,0,14.5-2.4,19.7-7c6.5-5.8,9.5-14.6,8.4-24c-0.5-4.4-1.8-9-4.3-15c-3.2-7.9-8.3-17.9-14.8-30.5l-1.9-3.7
		c-20.4-39.9-23.5-50-25.6-82.8c-2.6-40.5,3.9-75.4,21.8-116.7c18.4-42.6,50.4-94.6,103.6-168.5c78.7-109.3,105.9-156.4,121.4-209.9
		C850.9,363.9,845.1,305.9,819.3,253.5z"/>
	<path class="st0" d="M473.1,617.7c5.8,0,11.5-2.1,15.8-6.1c4.4-4.1,6.1-8.6,6.6-10.2c2.3-6.3,2.7-13.4,2.7-24.4
		c0-9.1-0.5-21.1-1.4-36.8c-2.4-39.5-11.6-70.7-28.3-95.5l0,0c-16.9-25.1-42-43.7-74.7-55.2c-6.8-2.4-17.5-4.7-33.6-7.1
		c-13.1-2-28.8-3.9-44.3-5.5c-15.6-1.5-30-2.6-40.4-2.9l-2.7-0.1l-0.1,0c-4.9-0.1-8.9,0-12.1,0.3c-2.3,0.2-5,0.5-8,1.4
		c-1.8,0.5-4.6,1.5-7.6,3.8c-5.8,4.3-9.3,11.1-9.3,18.3c0,4.3,1.2,10.5,6.6,15.9c1.4,1.4,2.7,2.4,3.7,3.1c1.4,1,2.8,1.8,4.8,2.9
		c2.6,1.4,6.1,3,10.5,4.9c8.3,3.6,19.2,7.9,30.8,12.1c80.4,29.3,128,74.9,149.8,143.7c3.6,11.4,6.3,18.3,9.1,23.2l0.2,0.4
		c1.5,2.7,5.5,9.9,15.2,12.9C468.8,617.4,470.9,617.7,473.1,617.7z"/>
</g>
</svg>
