<?xml version="1.0" encoding="utf-8"?>
<!-- Generator: Adobe Illustrator 24.1.1, SVG Export Plug-In . SVG Version: 6.00 Build 0)  -->
<svg version="1.1" id="Capa_1" xmlns="http://www.w3.org/2000/svg" xmlns:xlink="http://www.w3.org/1999/xlink" x="0px" y="0px"
	 viewBox="0 0 1080 1080" style="enable-background:new 0 0 1080 1080;" xml:space="preserve">
<style type="text/css">
	.st0{fill:#26A69A;}
</style>
<path class="st0" d="M954.6,5H125.4C58.5,5,5,65.2,5,132.1v809.2c0,73.6,53.5,133.8,120.4,133.8h829.3
	c66.9,0,120.4-60.2,120.4-127.1V132.1C1075,65.2,1021.5,5,954.6,5z M693.8,198.9c66.9,0,113.7,53.5,113.7,127.1
	S754,453.1,693.8,453.1c-66.9,0-113.7-53.5-113.7-127.1S633.6,198.9,693.8,198.9z M914.5,954.6H540H178.9
	c-33.4,0-46.8-26.8-33.4-53.5l200.6-421.3c13.4-33.4,40.1-33.4,60.2-6.7L606.9,754c20.1,26.7,53.5,26.7,73.6,6.7l46.8-53.5
	c20.1-26.8,53.5-20.1,73.6,6.7l127.1,193.9C961.3,934.6,947.9,954.6,914.5,954.6z"/>
</svg>
