<?xml version="1.0" encoding="utf-8"?>
<!-- Generator: Adobe Illustrator 24.1.1, SVG Export Plug-In . SVG Version: 6.00 Build 0)  -->
<svg version="1.1" id="Capa_1" xmlns="http://www.w3.org/2000/svg" xmlns:xlink="http://www.w3.org/1999/xlink" x="0px" y="0px"
	 viewBox="0 0 1080 1080" style="enable-background:new 0 0 1080 1080;" xml:space="preserve">
<style type="text/css">
	.st0{fill-rule:evenodd;clip-rule:evenodd;fill:#FFC400;}
</style>
<path class="st0" d="M963.2,274.4c-21,95.8-224.7,548.2-250.8,650.8c-18.6,72.9,77.3,164.3,93.3,104.4
	c47.1-176,257-594.2,268.7-681.3C1084.5,273.2,973.4,227.6,963.2,274.4z M707.5,606.4c12.8-3.2,26.3,1.2,34.7,11.3
	c8.4,10.2,10.2,24.3,4.7,36.3c0.2,0.1,0.1,0.1,0.1,0.1c-17.7,38.2-52.7,65.6-94.1,73.6c-23.4,4.4-49.8,8.1-79.2,10.9
	c-105.5,10-218.6-117.2-142-113.6C545.8,630.4,636.6,622,707.5,606.4L707.5,606.4z M819.5,486.9c-11.4,28.7-36.4,49.8-66.6,56.2
	c-139.3,29.2-339.6,17.9-438.3-6.1c-96-23.3-159.1-163-96.7-142.2c144.7,48.4,413.9,64.4,566.3,47.1c11.6-1.6,23.3,3.1,30.5,12.3
	c7.3,9.2,9.1,21.7,4.8,32.6C819.5,486.9,819.5,486.9,819.5,486.9L819.5,486.9z M877.3,323c-9.4,30.8-36.6,52.8-68.7,55.4
	c-279.8,20.1-639.2-44.5-743-151.7C-12.4,146.1-7.4-8.8,37,40.5C205.1,227,618.4,280.7,843.4,278.3c11.1-0.2,21.6,4.8,28.3,13.7
	C878.4,300.8,880.5,312.3,877.3,323C877.3,323,877.3,323,877.3,323L877.3,323z"/>
</svg>
