<?xml version="1.0" encoding="utf-8"?>
<!-- Generator: Adobe Illustrator 24.1.1, SVG Export Plug-In . SVG Version: 6.00 Build 0)  -->
<svg version="1.1" id="Capa_1" xmlns="http://www.w3.org/2000/svg" xmlns:xlink="http://www.w3.org/1999/xlink" x="0px" y="0px"
	 viewBox="0 0 1080 1080" style="enable-background:new 0 0 1080 1080;" xml:space="preserve">
<style type="text/css">
	.st0{fill:#4F8FF7;}
</style>
<g>
	<path class="st0" d="M971.1,223.1c8.8-13.1,13.9-28.8,13.9-45.8c0-45.5-36.9-82.3-82.3-82.3c-17,0-32.7,5.1-45.8,13.9
		C768.2,43.6,658.6,5,540,5C244.5,5,5,244.5,5,540c0,295.5,239.5,535,535,535c295.5,0,535-239.5,535-535
		C1075,421.4,1036.4,311.8,971.1,223.1L971.1,223.1z M889.4,889.4c-45.4,45.4-98.2,81-157.1,105.9c-60.9,25.8-125.6,38.8-192.3,38.8
		s-131.4-13.1-192.3-38.8c-58.8-24.9-111.7-60.5-157.1-105.9s-81-98.2-105.9-157.1C59,671.4,45.9,606.7,45.9,540
		S59,408.6,84.7,347.7c24.9-58.8,60.5-111.7,105.9-157.1s98.2-81,157.1-105.9C408.6,59,473.3,45.9,540,45.9
		c66.7,0,131.4,13.1,192.3,38.8c34.6,14.6,67.1,33,97.2,54.9c-5.9,11.3-9.2,24.1-9.2,37.8c0,45.5,36.9,82.3,82.3,82.3
		c13.6,0,26.4-3.3,37.8-9.2c21.9,30.1,40.2,62.6,54.9,97.2c25.8,60.9,38.8,125.6,38.8,192.3c0,66.7-13.1,131.4-38.8,192.3
		C970.4,791.1,934.8,844,889.4,889.4L889.4,889.4z"/>
	<circle class="st0" cx="540" cy="540" r="246.9"/>
</g>
</svg>
