<?xml version="1.0" encoding="utf-8"?>
<!-- Generator: Adobe Illustrator 24.1.1, SVG Export Plug-In . SVG Version: 6.00 Build 0)  -->
<svg version="1.1" id="Capa_1" xmlns="http://www.w3.org/2000/svg" xmlns:xlink="http://www.w3.org/1999/xlink" x="0px" y="0px"
	 viewBox="0 0 1080 1080" style="enable-background:new 0 0 1080 1080;" xml:space="preserve">
<style type="text/css">
	.st0{fill:#FDD835;}
</style>
<path class="st0" d="M1018.5,127.5l-28.3,156c-7.7,4.7-8.2,12.7-2.5,15.3h58.2c10.4,1.2,13.5-15.5,1.4-13.4L1018.5,127.5z
	 M988.5,300.9v125.7l-17.8,0.1c-2.3,13.6,2,28.4,11.7,34.8l-0.4,298.2c-11.6,2.7-15.3,16.3-1.6,19.7l-10.4,92.2l-11,0v-94.1h-31.5
	l-0.8-191.1c10.4-8.8,6.9-18.4,7.9-28.5h-10.1l-0.8-86.4c4.6-3.4,7.4-12.5-0.5-13.3l-19.5-107.2c-1.7-2.3-3.2-1.4-4.2,0l-17.9,106.9
	c-9.8,3.1-8.2,7.4-2.3,10.7l0.5,90.4c0,0-8.7,0.1-11.9,0.2c-1.9,16.3,6.7,24.8,6.7,24.8l-0.7,129.3l-32.8,0.4v-17.8h-22.7l0.1-53.1
	h6.9c0,0,0.8-5.3-1.6-5.3c-1.3,0-3.1,0-5.3,0l0.1-60.7l-41.5,0.2v-8.9h-14.6c-35.5-74-105.8-120.6-198.3-126.5h-0.1l0.1-13.5
	c-1.1-5.4-3.6-10.6-9.7-16c0,0,0-1.9,0-4.8c0.5-0.1,2.2,0,2.9-1.3l-0.2-5.3c0,0-0.3-2.1-2.9-2.9c1.3-8.9-1.8-8.8-1.8-8.8l0.2-3.4
	c2.2-2.2,2.9-6.6-0.4-6.5c0,0,0.1-9.8-1.4-10.2c-1.6-0.4-2.2,8.2-2.2,8.2c-2.4,1.4-3.3,5.9-0.6,8.7l-0.7,11.8
	c-2.4,2.6-3.6,5.7-0.5,9l0.3,4.6c-5.6,2.1-10.2,12-10.5,16.2l-0.1,13.6c-82.2,5.3-163.3,48.9-196.9,126.7l-15.5,0.1l0.1,8.9
	l-42.9,0.1v60.7c-1.8,0-3.2,0-4.6,0c-2.4,0.1-3.3,5.4-3.3,5.4h7.9v53.6l-20.1-0.3v17.1l-56.9-0.2l-1.2-126.4
	c8.1-10.3,7.4-16.3,7.3-28.8h-9.2l-1.4-90.6c7.6-2.3,8.1-11.4,0.2-12.7l-20.5-105.8c-0.2-0.9-0.6-1.8-1.3-1.6
	c-0.4,0.1-0.9,0.5-1.4,1.6l-18.3,106.4c-11.2,5.1-7,9.6-3,12.3l0.2,90.5H143c0.1,8.4-3.1,18.6,8.5,28.5l0.4,190.6h-34.4l0.7,94.4
	l-11.1,0l-8.7-93.1c15.5-4.1,9.4-15.6-0.5-19.2c0,0,0.6-286-0.3-294.9c-0.9-8.9,10.6-10.1,10.6-29c2.3-13.1-11.3-9.2-17-9.5V301.2
	H30.6v125c-6.4-0.1-11.2-0.1-12.1,0c-4,0.6-4.9,7.2-3.5,18.1c1.4,10.9,9.9,18,9.9,18L26.5,753c0.7,9.8-3.1,8.5-6.9,9.4
	c-7.4,1.2-5.6,15.5,4.3,15.5c1.6,13.8-19,173.6-19,173.6l1070,0.9l-20.3-174c16.8-2,10-18.8-2.5-18.5l-0.3-297.4
	c5.3-2.9,16.1-17.4,10.6-36.6l-15.6,0.1V300.9L988.5,300.9z M545.6,582.7c5.5,0.2,10.8,4,12.4,10.7v39.3h-26.6l0.9-38.9
	C534.5,586.1,540.1,582.6,545.6,582.7L545.6,582.7z M451.4,582.8c5.9-0.1,12,4.4,13.6,12v37.9l-25.4-0.1l0.7-40.6
	C442.4,585.8,446.9,582.9,451.4,582.8L451.4,582.8z M698.3,583c4.7,0.4,9,4.5,10.2,11.7V633h-23.1l-0.1-40.1
	C688.4,585.8,693.6,582.6,698.3,583L698.3,583z M577.3,583c5.5,0.2,10.8,4,12.3,10.8v39.1l-26.2-0.1l0.3-39.6
	C566,586.1,571.8,582.8,577.3,583L577.3,583z M421.7,583.1c5.3-0.3,10.8,3.3,12.6,9.9v39.8H411l0.7-41.6
	C413.6,585.8,417.6,583.3,421.7,583.1L421.7,583.1z M781.5,583.1c4.1,0.3,8.1,3.7,10.4,11.5l-0.2,11.1c-15.4-0.2-14.7,2.4-22.4,7.7
	l-0.4-18.9C771,587.5,776.3,582.7,781.5,583.1L781.5,583.1z M392.4,583.2c5.3-0.3,10.8,3.3,12.6,9.9v39.8h-23.3l0.7-41.6
	C384.3,586,388.2,583.4,392.4,583.2L392.4,583.2z M513,583.2c5.7-0.3,11.5,3.3,12.4,9.9v39.8h-23.8l0.7-41.6
	C504.3,586,508.6,583.4,513,583.2L513,583.2z M606.2,583.2c5.6-0.3,11.4,3.3,13.3,9.9v39.8h-24.5l0.7-41.6
	C597.7,586,601.8,583.4,606.2,583.2L606.2,583.2z M725.3,583.3c5.3-0.2,10.6,3.4,11.6,10v39.8l-22.4-0.2l0.7-41.6
	C717.1,586,721.2,583.4,725.3,583.3L725.3,583.3z M337.3,583.3c4.6,0.3,8.8,4,10.7,10.6l0.2,39.4h-8c-0.6-5.1-2-18.2-10.9-20.1
	c-0.6-2.5-3-4-4.5-5.1l0.1-15.2C327.9,586,332.8,583,337.3,583.3L337.3,583.3z M363.7,583.3c5.3-0.3,10.8,3.3,12.6,9.9V633H353
	l0.7-41.6C355.6,586.1,359.6,583.5,363.7,583.3L363.7,583.3z M480.7,583.3c5.3-0.3,10.8,3.3,12.6,9.9V633H470l0.7-41.6
	C472.6,586.1,476.6,583.5,480.7,583.3L480.7,583.3z M752.9,583.4c5.1-0.3,10.1,3.5,12.4,9.5l0.1,25c-1.5,1-4.1,4.9-4.2,11.4
	c-1.7,1.3-3.3,2.2-3.2,4.1h-16v-40.7C744.9,586.4,748.9,583.6,752.9,583.4L752.9,583.4z M638.9,583.5c4.8,0.2,9.1,4,10.5,10.8
	l-0.6,38.5h-23.3l0.3-38.9C629,586.5,634.2,583.2,638.9,583.5L638.9,583.5z M309.4,583.8c4.5-0.3,9.1,2,11,7.6v15.4h-21.9l0.2-15
	C300.4,587,304.9,584.1,309.4,583.8L309.4,583.8z M667.8,583.9c5.4,0,10.7,3.7,11.7,10.9v37.9l-23.4-0.1v-37.7
	C657.1,587.5,662.5,583.9,667.8,583.9L667.8,583.9z M341.2,643.3h8.1v52.9h-8.1V643.3z M750.6,643.3h8.1v52.9h-8.1V643.3z
	 M309,676.3h5.7v36.5H309V676.3z M786,676.3h5.7v36.5H786V676.3z M364.6,697.2h6.4v236.3h-6.4V697.2z M728.5,697.2h8v236.3h-8V697.2
	z M547.3,738.6c9.4-0.2,18.9,5.9,19.1,19v60.2h-37.7l-0.2-60.2C528.5,745.3,537.9,738.8,547.3,738.6L547.3,738.6z M501,765.3
	c7.1-0.1,14.1,4.6,14.3,14.2v37.3h-28.4v-37.6C486.9,770.1,494,765.4,501,765.3L501,765.3z M593.6,765.3c7.1-0.1,14.1,4.6,14.3,14.2
	v37.3h-28.4v-37.6C579.5,770.1,586.6,765.4,593.6,765.3L593.6,765.3z M309,767.7h5.7v18.8H309V767.7z M786,767.7h5.7v18.8H786V767.7
	z M309.1,837.7h5.7v19.5h-5.7V837.7z M786.1,837.7h5.7v19.5h-5.7V837.7z M405.5,847.7c6.1-0.1,12.2,4.6,12.4,14.2v37.3h-24.6v-37.6
	C393.4,852.5,399.4,847.8,405.5,847.7L405.5,847.7z M453.4,848.3c6.1-0.1,12.2,4.6,12.4,14.2v37.3h-24.6v-37.6
	C441.2,853.1,447.3,848.4,453.4,848.3L453.4,848.3z M500.7,848.6c6.6-0.1,13.3,4.6,13.4,14.2v37.3h-26.7v-37.6
	C487.5,853.4,494.1,848.7,500.7,848.6L500.7,848.6z M547.9,848.6c6.6-0.1,13.3,4.6,13.4,14.2v37.3h-26.7v-37.6
	C534.7,853.4,541.3,848.7,547.9,848.6L547.9,848.6z M594,848.6c6.6-0.1,13.3,4.6,13.4,14.2v37.3h-26.7v-37.6
	C580.8,853.4,587.3,848.7,594,848.6L594,848.6z M642.7,848.6c6.6-0.1,13.3,4.6,13.4,14.2v37.3h-26.7v-37.6
	C629.5,853.4,636.1,848.7,642.7,848.6L642.7,848.6z M689.6,848.6c6.6-0.1,13.3,4.6,13.4,14.2v37.3h-26.7v-37.6
	C676.4,853.4,683,848.7,689.6,848.6L689.6,848.6z M62.7,130.2l-28.3,154c-7.7,4.6-8.2,12.5-2.5,15.1H90c10.4,1.1,13-15.3,1-15.1
	L62.7,130.2z"/>
</svg>
