<?xml version="1.0" encoding="utf-8"?>
<!-- Generator: Adobe Illustrator 26.0.0, SVG Export Plug-In . SVG Version: 6.00 Build 0)  -->
<svg version="1.1" id="Capa_1" xmlns="http://www.w3.org/2000/svg" xmlns:xlink="http://www.w3.org/1999/xlink" x="0px" y="0px"
	 viewBox="0 0 1080 1080" style="enable-background:new 0 0 1080 1080;" xml:space="preserve">
<style type="text/css">
	.st0{fill:#F44336;}
</style>
<path class="st0" d="M138.8,5.5C64.9,5.5,5,65.2,5,138.8l0,0v802.5c-0.3,73.6,59.4,133.5,133.2,133.7c0.2,0,0.3,0,0.5,0h802.5
	c73.9,0,133.7-59.7,133.7-133.2l0,0v-803C1075.3,65.4,1015.5,5.6,941.2,5H138.8V5.5z M151.2,225.9h717c49.2,0,89.7,41,89.7,91.2
	v136.3c0,50.1-40.2,90.7-89.7,90.7H779v128.1c0.6,98.5-79.3,178.8-178.3,179.4c-0.3,0-0.7,0-1,0H330
	c-99.1-0.3-179.1-80.4-178.9-178.8c0-0.2,0-0.3,0-0.5V226.4L151.2,225.9z M778.5,317.1v136.3h89.7V317.1H779L778.5,317.1z"/>
</svg>
