<?xml version="1.0" encoding="utf-8"?>
<!-- Generator: Adobe Illustrator 24.1.1, SVG Export Plug-In . SVG Version: 6.00 Build 0)  -->
<svg version="1.1" id="Capa_1" xmlns="http://www.w3.org/2000/svg" xmlns:xlink="http://www.w3.org/1999/xlink" x="0px" y="0px"
	 viewBox="0 0 1080 1080" style="enable-background:new 0 0 1080 1080;" xml:space="preserve">
<style type="text/css">
	.st0{fill:#FFCA28;}
</style>
<path class="st0" d="M967,5H118.5C58.8,5,5,58.5,5,117.9v838.2c0,65.4,53.8,118.9,113.5,118.9H961c65.7,0,113.5-53.5,113.5-112.9
	V117.9C1080.5,58.5,1026.7,5,967,5z M590.6,837.2c0,107-59.8,154.6-149.4,154.6c-83.7,0-125.5-41.6-149.4-89.2l83.7-47.6
	c17.9,29.7,29.9,53.5,65.7,53.5s53.8-11.9,53.8-65.4V504.3h101.6v332.9H590.6z M829.6,991.8c-95.6,0-155.4-41.6-185.2-101.1
	l83.7-47.6c23.9,35.7,47.8,59.4,101.6,59.4c41.8,0,65.7-17.8,65.7-47.6c0-35.7-29.9-47.6-71.7-65.4l-23.9-11.9
	c-71.7-29.7-119.5-71.3-119.5-154.6c0-77.3,59.8-130.8,149.4-130.8c65.7,0,107.6,23.8,143.4,83.2l-77.7,47.6
	c-17.9-29.7-35.9-41.6-65.7-41.6s-47.8,17.8-47.8,41.6c0,29.7,17.9,41.6,59.8,59.4l23.9,11.9c83.7,35.7,131.5,71.3,131.5,160.5
	S925.2,991.8,829.6,991.8L829.6,991.8z"/>
</svg>
