<?xml version="1.0" encoding="utf-8"?>
<!-- Generator: Adobe Illustrator 24.1.1, SVG Export Plug-In . SVG Version: 6.00 Build 0)  -->
<svg version="1.1" id="Capa_1" xmlns="http://www.w3.org/2000/svg" xmlns:xlink="http://www.w3.org/1999/xlink" x="0px" y="0px"
	 viewBox="0 0 1080 1080" style="enable-background:new 0 0 1080 1080;" xml:space="preserve">
<style type="text/css">
	.st0{fill:#FFCA28;}
</style>
<g transform="translate(-.22193 -.25318)">
	<path class="st0" d="M856.4,306.8v109.8h109.4v548.9H418.6V855.7H309.2v219.6h766V306.8H856.4z"/>
	<path class="st0" d="M5.2,5.3h773.4v775.9H5.2L5.2,5.3 M208.5,653.6c17.2,36.6,51.1,66.8,109.1,66.8c64.5,0,108.7-34.5,108.7-109.9
		V361.3h-73v247.4c0,37.1-15,46.6-38.7,46.6c-24.9,0-35.2-17.2-46.8-37.5L208.5,653.6 M465.4,645.8c21.5,42.2,64.9,74.6,132.8,74.6
		c68.7,0,120.3-35.8,120.3-101.7c0-60.8-34.8-87.9-96.7-114.7l-18-7.8c-31.4-13.4-44.7-22.4-44.7-44c0-17.7,13.3-31.5,34.8-31.5
		c20.6,0,34.4,9.1,46.8,31.5l56.3-37.5c-23.6-41.4-57.1-57.3-103.1-57.3c-64.9,0-106.6,41.4-106.6,96.1c0,59.5,34.8,87.5,87.2,109.9
		l18,7.8c33.5,14.7,53.3,23.7,53.3,48.7c0,20.7-19.3,35.8-49.4,35.8c-35.7,0-56.3-18.5-71.8-44.4L465.4,645.8z"/>
</g>
</svg>
