<?xml version="1.0" encoding="utf-8"?>
<!-- Generator: Adobe Illustrator 24.1.1, SVG Export Plug-In . SVG Version: 6.00 Build 0)  -->
<svg version="1.1" id="Capa_1" xmlns="http://www.w3.org/2000/svg" xmlns:xlink="http://www.w3.org/1999/xlink" x="0px" y="0px"
	 viewBox="0 0 1080 1080" style="enable-background:new 0 0 1080 1080;" xml:space="preserve">
<style type="text/css">
	.st0{clip-path:url(#SVGID_1_);}
	.st1{fill-rule:evenodd;clip-rule:evenodd;fill:#F0D6B7;}
	.st2{fill-rule:evenodd;clip-rule:evenodd;fill:#335061;}
	.st3{fill-rule:evenodd;clip-rule:evenodd;fill:#6D6B6D;}
	.st4{fill-rule:evenodd;clip-rule:evenodd;fill:#DCD9D8;}
	.st5{fill-rule:evenodd;clip-rule:evenodd;fill:#F7E4CD;}
	.st6{fill:#F7E4CD;}
	.st7{fill-rule:evenodd;clip-rule:evenodd;fill:#49728B;}
	.st8{fill-rule:evenodd;clip-rule:evenodd;fill:#FFFFFF;}
	.st9{fill:#FFFFFF;}
	.st10{fill-rule:evenodd;clip-rule:evenodd;fill:#D33833;}
	.st11{fill:none;stroke:#D33833;stroke-width:2.1382;stroke-miterlimit:4.2764;}
	.st12{fill-rule:evenodd;clip-rule:evenodd;fill:#EF3D3A;}
	.st13{fill-rule:evenodd;clip-rule:evenodd;fill:#231F20;}
	.st14{fill-rule:evenodd;clip-rule:evenodd;fill:#81B0C4;}
	.st15{fill-rule:evenodd;clip-rule:evenodd;fill:#1D1919;}
</style>
<g transform="matrix(1.25,0,0,-1.25,0,180)">
	<g>
		<defs>
			<rect id="SVGID_3_" x="-103" y="-823" width="1070" height="1070"/>
		</defs>
		<clipPath id="SVGID_1_">
			<use xlink:href="#SVGID_3_"  style="overflow:visible;"/>
		</clipPath>
		<g transform="matrix(.85528 0 0 .85528 7.52 11.086)" class="st0">
			<g>
				<path class="st1" d="M737.8-637.6l-86.7-13l-117-13l-75.8-2.2l-73.7,2.2l-56.3,17.3l-49.8,54.2l-39,110.5l-8.7,23.8l-52,17.3
					l-30.3,49.8l-21.7,71.5l23.8,62.8l56.3,19.5l45.5-21.7l21.7-47.7l26,4.3l8.7,10.8l-8.7,49.8l-2.2,62.8l13,86.7l-0.5,49.5L350,21
					l69.3,49.8l121.3,52L675,103.4l117-84.5l54.2-86.7l34.7-62.8l8.7-156l-26-134.3l-47.7-119.2L770.3-603"/>
				<path class="st2" d="M664.2-1012.5l-309.8-13v-52l26-182l-13-15.2L150.7-1201l-15.2,26l-21.7,244.8L64-782.8l-10.8,34.7
					L226.5-629l54.2,21.7l47.7-58.5l41.2-36.8l47.7-15.2l21.7-6.5l26-112.7l19.5-23.8l49.8,17.3l-34.7-67.2L688-999.5L664.2-1012.5"
					/>
				<path class="st3" d="M150.7-256.3l56.3,19.5l45.5-21.7l21.7-47.7l26,4.3l6.5,26l-13,49.8l13,119.2l-10.8,65l39,45.5l84.5,67.2
					l-23.8,32.5L276.4,44.9l-49.8-39l-28.2-60.7L155-113.3l-13-69.3L150.7-256.3"/>
				<path class="st4" d="M239.5-52.7c0,0,32.5,80.2,162.5,119.2c130,39,6.5,28.2,6.5,28.2L267.7,40.5l-54.2-54.2L189.7-57
					L239.5-52.7"/>
				<path class="st4" d="M174.5-241.1c0,0-45.5,151.7,127.8,173.3l-6.5,26L176.7-70L142-182.6l8.7-73.7L174.5-241.1"/>
			</g>
			<g>
				<path class="st5" d="M243.9-442.6l28.4,27.5c0,0,12.8-1.5,15-16.7c2.2-15.2,8.7-151.7,101.8-225.3c8.5-6.7-69.3,10.8-69.3,10.8
					L250.4-538"/>
				<path class="st5" d="M642.5-401.5c0,0,5.1,65.7,22.7,60.6c17.7-5.1,17.7-22.7,17.7-22.7S640-391.4,642.5-401.5"/>
				<path class="st6" d="M822.4-161c0,0-35.7-7.5-39-39c-3.3-31.5,39-6.5,45.5-4.3"/>
				<path class="st6" d="M560.2-163.1c0,0-47.7-6.5-47.7-36.8c0-30.3,54.2-28.2,69.3-15.2"/>
				<g>
					<path class="st5" d="M265.5-304c0,0-82.3,49.8-91,2.2c-8.7-47.7-28.2-82.3,13-132.2l-28.2,8.7l-26,67.2l-8.7,65l49.8,52
						l56.3-4.3l32.5-26L265.5-304"/>
					<path class="st5" d="M304.5-167.5c0,0,36.8,190.7,223.2,227.5c153.4,30.3,234-6.5,264.3-41.2c0,0-136.5,162.5-266.5,112.7
						C395.5,81.7,300.2-9.3,302.4-67.8C306.1-167.4,304.5-167.5,304.5-167.5"/>
					<path class="st5" d="M807.2-2.8c0,0-62.8,2.2-65-54.2c0,0,0-8.7,4.3-17.3c0,0,49.8,56.3,80.2,26"/>
					<path class="st5" d="M532.1-80.2c0,0-10.8,86.5-84.5,36.2c-47.7-32.5-43.3-78-34.7-86.7c8.7-8.7,6.3-26.1,12.9-14.1
						c6.6,12,4.4,51,28.3,61.8C477.9-72.1,516.9-60,532.1-80.2"/>
				</g>
			</g>
			<g>
				<path class="st7" d="M328.4-665.8l-203.7-91c0,0,84.5-335.8,41.2-439.8l-30.3,10.8l-2.2,127.8L77-815.3l-23.8,67.2l212.3,143
					L328.4-665.8"/>
				<path class="st7" d="M349.3-851.5l28.9-35.3v-130h-34.7c0,0-4.3,91-4.3,101.8c0,10.8,4.3,49.8,4.3,49.8"/>
				<path class="st7" d="M350-1036.3l-97.5-4.3l28.2-19.5L350-1071"/>
			</g>
			<g>
				<path class="st2" d="M683.7-1014.6l80.2,2.2l19.5-199.3l-82.3-10.8L683.7-1014.6"/>
				<path class="st2" d="M705.3-1014.6l121.3,6.5c0,0,49.8,125.7,49.8,132.2c0,6.5,43.3,182,43.3,182l-97.5,101.8l-19.5,17.3l-52-52
					v-201.5L705.3-1014.6"/>
				<path class="st7" d="M759.5-999.5l-75.8-15.2l10.8-60.7c28.2-13,75.8,21.7,75.8,21.7"/>
				<path class="st7" d="M761.7-620.3L913.3-733l4.3,52L802.8-574.8L761.7-620.3"/>
				<path class="st8" d="M425.2-1441.5l-44.9,182L358-1125.1l-3.7,99.7l203,10.8l126.3,0l-11.5-227.5l19.5-175.5l-2.2-32.5
					l-164.7-13L425.2-1441.5"/>
				<path class="st4" d="M655.5-1012.5c0,0-10.8-225.3,21.7-385.7c0,0-65-41.2-160.3-52l182,6.5l21.7,13l-26,355.3l-6.5,75.8"/>
				<path class="st8" d="M787-1194.5l84.5,23.8l160.3,8.7l23.8,73.7l-43.3,127.8l-49.8,6.5l-69.3-21.7l-66.5-32.5l-35.3,6.5
					l-27.5-10.8"/>
				<path class="st4" d="M785.5-1151.1c0,0,56.3,26,65,23.8l-23.8,119.2l28.2,10.8c0,0,19.5-112.7,19.5-125.7
					c0,0,121.3-6.5,132.2-6.5c0,0,26,49.8,19.5,101.8l23.8-69.3l2.2-39l-34.7-52l-39-8.7l-65,2.2l-21.7,28.2l-75.8-10.8l-23.8-8.7"
					/>
			</g>
			<path class="st9" d="M700.4-997.3L652.7-876l-49.8,71.5c0,0,10.8,30.3,26,30.3h49.8l47.7-17.3l-4.3-80.2L700.4-997.3"/>
			<path class="st4" d="M709.7-956.1c0,0-60.7,117-60.7,134.3c0,0,10.8,26,26,19.5c15.2-6.5,47.7-23.8,47.7-23.8v41.2L649-769.8
				l-49.8-6.5l84.5-199.3l17.3-2.2"/>
			<path class="st9" d="M444.7-670.2l-60,6.5l-56.3,17.3v-19.5l27.5-30.4l86.7-39"/>
			<path class="st4" d="M347.9-676.6c0,0,67.2-28.2,88.8-21.7l2.2-26l-60.7,13l-36.8,26L347.9-676.6"/>
			<path class="st10" d="M786.8-781.5c-36.8,1.1-70,5.4-99.1,13.6c2,11.9-1.7,23.6,1.2,32.2c8.1,5.8,21.7,5.7,33.9,7.1
				c-10.6,5.2-25.5,7.3-37.7,4.3c-0.3,8.3-4,13.4-6.2,19.9c20.7,7.4,69.5,55.7,96.9,39.7c13.1-7.6,18.6-51.1,19.6-72.3
				C796.4-754.5,794-772.2,786.8-781.5"/>
			<path class="st11" d="M786.8-781.5c-36.8,1.1-70,5.4-99.1,13.6c2,11.9-1.7,23.6,1.2,32.2c8.1,5.8,21.7,5.7,33.9,7.1
				c-10.6,5.2-25.5,7.3-37.7,4.3c-0.3,8.3-4,13.4-6.2,19.9c20.7,7.4,69.5,55.7,96.9,39.7c13.1-7.6,18.6-51.1,19.6-72.3
				C796.4-754.5,794-772.2,786.8-781.5L786.8-781.5z"/>
			<path class="st10" d="M611-721.4c-0.1-2.8-0.2-5.6-0.3-8.4c-11.5-7.5-30-7.4-42.6-13.8c18.6-0.8,33.2-5.3,45.8-11.6
				c-0.3-7-0.5-14-0.8-21c-21-14.4-40.3-35.9-65-49.4c-11.7-6.4-52.8-22.8-65.3-19.9c-7.1,1.6-7.7,10.4-10.5,18.6
				c-6,17.7-19.8,45.8-21,72.4c-1.5,33.6-4.9,89.9,31.3,82.9c29.2-5.6,63.1-19,85.8-31.4C582.1-710.5,590.1-719.8,611-721.4"/>
			<path class="st11" d="M611-721.4c-0.1-2.8-0.2-5.6-0.3-8.4c-11.5-7.5-30-7.4-42.6-13.8c18.6-0.8,33.2-5.3,45.8-11.6
				c-0.3-7-0.5-14-0.8-21c-21-14.4-40.3-35.9-65-49.4c-11.7-6.4-52.8-22.8-65.3-19.9c-7.1,1.6-7.7,10.4-10.5,18.6
				c-6,17.7-19.8,45.8-21,72.4c-1.5,33.6-4.9,89.9,31.3,82.9c29.2-5.6,63.1-19,85.8-31.4C582.1-710.5,590.1-719.8,611-721.4
				L611-721.4z"/>
			<path class="st10" d="M631.9-761.5c-3.2,18.3-6.9,23.5-5.5,39.5C675.2-689.5,684.4-777.9,631.9-761.5"/>
			<path class="st11" d="M631.9-761.5c-3.2,18.3-6.9,23.5-5.5,39.5C675.2-689.5,684.4-777.9,631.9-761.5z"/>
			<g>
				<path class="st12" d="M702.6-776.3c0,0-15.2,21.7-4.3,28.2c10.8,6.5,21.7,0,28.2,10.8s0,17.3,2.2,30.3s13,15.2,23.8,17.3
					c10.8,2.2,41.2,6.5,45.5-4.3l-13,39l-26,8.7L676.6-694l-4.3-23.8v-47.7"/>
				<path class="st12" d="M475-847.8c-2.6,33.8-5.4,67.6-8.4,101.4c-4.6,50.4,12.1,41.6,55.8,41.6c6.7,0,41.1-8,43.6-13
					c11.8-24.1-19.8-18.8,13.6-37c28.2-15.4,77.9,9.3,66.6,43.5c-6.4,7.6-33.2,2.4-42.8,7.4c-16.9,8.8-33.9,17.5-50.8,26.3
					c-21.5,11.2-71.3,27.5-94.3,11.8c-58.2-39.6,3.7-138.4,24.4-179.7"/>
				<g>
					<path class="st13" d="M532.1-80.2c-59.1,13.8-88.4-24.7-106.3-64.6c-16,3.9-9.6,25.6-5.6,36.7c10.6,29.1,53.2,67.8,88,62.5
						C523.1-47.8,543.4-61.5,532.1-80.2"/>
					<path class="st13" d="M819.8-147.4c0.9,0,1.9-0.1,2.8-0.1c13.3-27.7,24.9-57.1,41.7-81.6c-11.3-26.3-85.4-49.5-84.2-2.3
						c16,7,43.7,1.4,57.9,10.4C829.8-198.5,817.9-179.3,819.8-147.4"/>
					<path class="st13" d="M562.3-148.2c12.7-23.2,16.8-47.6,34.8-65.1c8.1-7.9,23.9-17.5,16.1-39.5c-1.8-5.2-15.2-16.7-22.9-19
						c-28.1-8.3-93.7-1.7-71.5,33.4c23.3-1.1,54.5-15.1,71.9,1.8C577.3-215.3,553.5-173.1,562.3-148.2"/>
					<path class="st13" d="M809.2-384c-42.4-27.2-89.6-56.8-159-49.9c-14.8,12.9-20.5,41.6-6.1,60.5c7.5-12.9,2.8-36.6,23.7-40.2
						c39.4-6.7,85.2,24.1,113.6,34.9c17.6,29.6-1.5,40.5-17.3,59.6c-32.4,39.1-75.9,87.5-74.3,145.9c13.1,9.5,14.2-14.5,16.1-18.9
						c16.9-39.6,59.5-90.2,90.6-124.1c7.6-8.3,20.2-16.4,21.6-21.9C822-354.2,807.5-373.4,809.2-384"/>
					<path class="st13" d="M250.7-355.4c-13.3,7.6-16.4,41-32,41.9c-22.3,1.4-18.2-43.3-18.1-69.4c-15.3,13.9-18,56.8-6.8,78.8
						c-12.8,6.3-18.6-7-25.7-11.6C177.2-249.2,265.3-284.9,250.7-355.4"/>
					<path class="st13" d="M836.2-411.7c-19.7-37.5-47.6-78.9-105.5-80.1c-1.2,12.1-2.1,30.6,0.1,37.9
						C775-449.7,802.3-427.2,836.2-411.7"/>
					<path class="st13" d="M559-436.1c36.9-19.4,104.7-21.5,154.9-20c2.7-11,2.6-24.6,2.7-38C652.1-497.3,575.9-481.3,559-436.1"/>
					<path class="st13" d="M551.9-472.3c25.5-64.1,113.2-56.7,187.2-54.9c-3.3-8.3-10.3-18.1-19.1-21.7c-23.7-9.6-89.1-17-122,0.5
						c-20.9,11.1-34.3,36.2-45.7,50.9C546.8-490.4,519.3-472.3,551.9-472.3"/>
				</g>
				<path class="st14" d="M806.2-825.7c-30-51.3-58.6-104-94.1-149.2c14.9,43.8,21.3,117.1,23.5,173
					C766.7-787.4,793.4-805.3,806.2-825.7"/>
				<g>
					<path class="st13" d="M967.3-1010.1c-33.5-6.7-57.1-39.3-89.8-37.2C895.5-1022,927-1011.3,967.3-1010.1"/>
					<path class="st13" d="M982.1-1062.6c-27.3-2.9-59.4-7.3-87.2-5C908.1-1047.6,958.6-1054.5,982.1-1062.6"/>
					<path class="st13" d="M991.6-1107.8c-30.7-0.7-68.9-0.1-98.1,2.4C910.8-1086.9,971.7-1098.6,991.6-1107.8"/>
				</g>
				<path class="st4" d="M748.4-1231.7c4.4-38.6,19.7-77.7,17.8-119.9c-17-5.7-26.7-10.7-49.5-10.7c-1.6,35.9-6.4,90.8-5,125
					C722.9-1238,739.4-1229.3,748.4-1231.7"/>
				<path class="st1" d="M698.8-663.1c-15.4-10.1-28.6-22.6-43.4-33.4c-32.9-1.6-50.8,2.3-74.9,21.1c0.4,1.5,2.8,0.8,2.9,2.7
					C618.6-688.3,663.3-666.3,698.8-663.1"/>
				<path class="st14" d="M514.2-902.8c9.7,41.9,47.5,63.5,81.9,86.6c35.5-45,57.1-102.9,80.8-158.8
					C620.8-958.1,563.4-930.6,514.2-902.8"/>
				<path class="st13" d="M711.6-1237.3c-1.4-34.2,3.4-89.1,5-125c22.8,0,32.5,5,49.5,10.7c1.9,42.2-13.4,81.3-17.8,119.9
					C739.3-1229.3,722.8-1238,711.6-1237.3L711.6-1237.3z M357.3-1042.6c15-138,36.7-253.9,76.6-376.1c88.5-26.9,195.1-29.2,273.3-5
					c-14.4,68.9-8.1,152.9-16.5,226.5c-6.3,55.3-3.1,110.9-11.8,167.4C584.2-1010.1,450.3-1025.2,357.3-1042.6L357.3-1042.6z
					 M701.4-1030.7c-0.8-59.2,2.7-117.7,7.2-177c22.8,3.4,38.2,5.7,59.3,10.3c-6.9,57.1-6,121.4-20,171.9
					C731.7-1025.6,717.5-1025.3,701.4-1030.7L701.4-1030.7z M816.8-1021.1c-10.8,2.5-23.4,0.1-33.7-0.1
					c4.8-48.3,16.6-101.6,20.8-152.3c16.2-0.5,24.9,7.1,38.3,9.7C842.8-1119.3,838.2-1058,816.8-1021.1L816.8-1021.1z M991.5-1180.8
					c33.8,8.2,55.1,49.7,45.6,92.2c-6.4,28.6-17.7,82.5-29.8,100.7c-8.9,13.5-33.2,31.3-52.6,18.8c-31.5-20.2-87-26-110-50.4
					c11.5-38.3,15.1-91,19.8-139.6c39.4-2.5,87.8,10.8,120.5-3.3c-22.8-7.4-52.5-7.5-72.2-18.2
					C929.1-1188.3,966.9-1186.8,991.5-1180.8L991.5-1180.8z M676.9-975c-23.8,55.9-45.3,113.8-80.8,158.8
					c-34.4-23.1-72.2-44.7-81.9-86.6C563.4-930.6,620.8-958.1,676.9-975L676.9-975z M735.5-802c-2.2-55.9-8.6-129.2-23.5-173
					c35.5,45.2,64.2,97.9,94.1,149.2C793.3-805.3,766.7-787.4,735.5-802L735.5-802z M669.1-778.4c-13.5,1.4-24.9-15.5-42.4-8.2
					c-4-4.4-7.7-9.2-11.7-13.6c38.7-46.6,56.2-112.7,86.1-167.5c16,52.6,14.2,110.2,17.7,167.6C696.7-801.3,684.5-780,669.1-778.4
					L669.1-778.4z M626.4-722c-1.4-16,2.3-21.2,5.5-39.5C684.3-777.9,675.2-689.5,626.4-722z M568.2-702.9
					c-22.6,12.4-56.6,25.8-85.8,31.4c-36.2,6.9-32.8-49.4-31.3-82.9c1.2-26.6,15-54.7,21-72.4c2.8-8.2,3.5-17,10.5-18.6
					c12.5-2.9,53.6,13.5,65.3,19.9c24.8,13.5,44,35,65,49.4c0.3,7,0.5,14,0.8,21c-12.6,6.3-27.3,10.8-45.8,11.6
					c12.6,6.3,31.1,6.2,42.6,13.8c0.1,2.8,0.2,5.6,0.3,8.4C590-719.8,582-710.5,568.2-702.9L568.2-702.9z M352.3-663.7
					c-18.8-19,52.6-45,75.3-46.4c-0.1,12.1,6.9,23.4,5.5,32.1C406.1-673.3,370.7-676.5,352.3-663.7L352.3-663.7z M583.4-672.7
					c-0.1-1.9-2.5-1.2-2.9-2.7c24.1-18.9,42.1-22.8,74.9-21.1c14.8,10.8,27.9,23.3,43.4,33.4C663.3-666.3,618.6-688.3,583.4-672.7
					L583.4-672.7z M795.5-737c-1,21.2-6.6,64.7-19.6,72.3c-27.4,16-76.2-32.4-96.9-39.7c2.2-6.5,6-11.6,6.2-19.9
					c12.2,3,27.1,0.9,37.7-4.3c-12.3-1.4-25.8-1.3-33.9-7.1c-3-8.6,0.7-20.3-1.2-32.2c29.1-8.2,62.3-12.6,99.1-13.6
					C793.9-772.2,796.4-754.5,795.5-737L795.5-737z M320.8-682.1c-5.9,4.2-45.7,56-51.2,53.9C197.4-656.7,130-705.9,69.8-752.4
					c57.4-123.3,80.6-274.3,84.7-419.8c65.8-30.8,123.6-75.1,212.9-79.8c-10.3,73.1-19.8,138.3-25.6,207.2
					c-22.4,9.5-54.6-0.4-75.6,2.9c-0.2,25.3,32.1,11.1,34.8,28.1c2,12.9-17.7,13.8-11.3,34.1c16.4-6,25-19.1,42.5-24.1
					c16,35-0.2,96.9,2.1,126.2c0.4,5.5,2.7,30.4,15,26.1c10.9-3.9-0.6-66.3,0.6-94c1.1-25.5-3.1-50.2,7.2-66.2
					c86.3,11.7,174,19.3,267.3,21.9c-20.5,8.8-44.9,17.2-71.7,32.2c-14.5,8.2-60.2,25.2-64.4,39c-6.7,21.9,17.5,33.6,21.7,52.5
					c-43.6-23.8-52.1,22.8-62.4,55.7c-9.3,29.9-14.7,52.2-16.9,69.4C393.2-723.2,353.1-705.1,320.8-682.1L320.8-682.1z M757.4-634.5
					c60.1,29.1,70.9-108.9,47.4-153.3c3.6-13.3,16.2-18.3,21.3-30.3c-33.5-60.1-70.8-116.1-105-175.5c25.4,15.8,61.8,2.8,91.7,14.7
					c10.9,4.3,18.9,29.4,27.2,49.4c22.8,55.2,46.7,124.7,57.4,177.3c2.4,12,9,38.1,7.5,48.8c-2.6,19.1-28.5,33.3-41.7,45.1
					c-24.3,21.8-39.6,41-64.9,61.4C787.9-612,765.8-622.2,757.4-634.5L757.4-634.5z M183.4-101.7c-28.6-31.5-22.6-90.5-19.2-132.5
					c51.7,32.6,120.4-2.6,119.8-57.9c24.7,0.7,9.2,30.9,4.8,50.3c-14.6,63.5,24.6,132.6,1.8,190.7
					C246.2-54.5,209.8-72.6,183.4-101.7L183.4-101.7z M388.2,81.1C323.4,62.7,240.3,15.6,213.7-42.6c20.6,3,34.9,13.4,55.3,14.7
					c7.7,0.5,17.8-3.2,26.6-1c17.6,4.4,32.5,43.8,45.8,58.5c12.9,14.3,28.5,20.5,39.2,33.6c6.8,3.3,17,3.1,17.3,13.4
					C394.9,79.7,391.7,82.1,388.2,81.1L388.2,81.1z M725.6,63.8c-67.3,38-181.1,66.5-252.7,30.8C415.1,65.9,337.1,18.2,310.5-42.1
					c24.9-58.2-7.4-111.6-9.4-170.8c-1.1-31.5,14.8-58.9,16-93.2c-8.5-14-34.5-15.8-52.5-14.8c-6.1,30.3-16.7,64.4-47.9,67.8
					c-44.2,4.8-76.4-31.7-78.4-69.9c-2.4-44.9,34.5-119.3,86.7-114.2c20.2,2,25.1,22.2,47.1,22c11.9-23.8-18.4-31.3-21.5-48.3
					c-0.8-4.4,2.5-21.6,4.4-29.6c9.5-39.2,30.6-90,51.5-119.8c26.4-37.9,78.4-43.6,134.2-47.3c10,21.5,46.7,19.7,70.7,14.1
					c-28.7,11.4-55.4,38.9-77.5,63.3c-25.4,28-51.1,58-52.4,94.6c48-66.6,87.7-124.8,175-154.1c66.1-22.2,143.2,10.2,193.9,45.8
					c21.1,14.8,33.6,38.3,48.6,59.8c56,80.6,82.1,195.6,76.4,307c-2.4,46-2.3,91.8-17.7,122.7c-16.1,32.3-70.6,61.3-102.6,32
					c-5.9,31.4,26.5,50.9,64.7,39.6C792.7-0.1,764.2,42,725.6,63.8L725.6,63.8z M850.9-973.3c52.6,26.1,150.8,70.3,183.7-0.1
					c12.2-26,26.4-69.8,32.7-96.6c8.9-37.8-9.6-117.3-48.5-130c-34.3-11.2-74.4-10.5-115.7-2.2c-4.9,4-10.3,11.1-14.1,18.5
					c-29.5,1.1-57.2-1.6-80.5-13.7c2.2-21.8-12.6-25.3-26.4-29.8c-10.3-40.7,20.5-93.8,13.2-131c-5.3-26.4-37.8-30.5-61.7-35.5
					c-0.8-14.7,1-27,2.7-39.4c-5.5-20.1-30-31.6-53.2-34.4c-76.4-9.2-192.5-13.3-266,13.1c-20.5,50.3-36.7,111.5-53.8,169
					c-71.7-7.7-129.7,30.9-184.4,56.2c-18.9,8.8-45.1,13.6-52.2,28.7c-6.9,14.6-4.1,42.5-5.8,69c-4.3,67.4-8,132.5-25.8,201.6
					c-8,31-21.9,58.3-31.7,88.2c-9,27.7-24.7,61.9-28.8,89.5c-6.1,40.9,32.4,43.2,57.1,60.9c38.1,27.4,68,42.6,109.2,67.3
					c12.2,7.3,49,25.9,53.2,34.4c8.3,16.9-14.3,40.8-20.3,54.1c-9.6,21-14.6,38.8-15.9,59.5c-34.6,5.5-60.8,26.1-76.6,49.3
					c-26.2,38.4-44.4,109.5-21.7,163.5c1.8,4.3,10.6,12.6,12,19.2c2.6,12.9-4.9,30-5.3,43.7c-2.4,70.3,11.9,130.8,59.2,152
					c19.2,76.5,87.9,101.9,152.7,140c24.2,14.2,50.9,23.3,78.4,33.4c98.9,36.4,250.5,29.5,332.6-32.5
					C783.9,66,839.5,10.5,859.4-29.7c52.5-106.2,48.8-283.7,12.1-412.8c-4.9-17.3-12.1-42.8-22.1-63.7c-7-14.5-28.7-43.7-26-56.5
					c2.7-13.3,49.4-48.7,59.4-58.4c18-17.4,52.3-40.5,55.1-62.5c3-23.4-10.3-55.3-17-77.9C898.3-836.7,876.4-906.3,850.9-973.3"/>
				<path class="st5" d="M500.2-452.5c2.9,3.8,18.5,9.6,40.5-1c0,0-26-4.3-23.8-47.7L506-499C506-499,494.8-459.7,500.2-452.5"/>
				<path class="st15" d="M690.2-825c0-6.6-5.3-11.9-11.9-11.9c-6.6,0-11.9,5.3-11.9,11.9c0,6.6,5.3,11.9,11.9,11.9
					C684.9-813.1,690.2-818.5,690.2-825"/>
				<path class="st15" d="M702.1-880.3c0-6.6-5.3-11.9-11.9-11.9c-6.6,0-11.9,5.3-11.9,11.9c0,6.6,5.3,11.9,11.9,11.9
					C696.8-868.4,702.1-873.7,702.1-880.3"/>
			</g>
			<path d="M88.5-835.6H468c3,0,5.4-2.4,5.4-5.4V-853c0-3-2.4-5.4-5.4-5.4H88.5c-3,0-5.4,2.4-5.4,5.4v11.9
				C83.1-838,85.5-835.6,88.5-835.6z"/>
			<path d="M539.1-835.6H875c3,0,5.4-2.4,5.4-5.4V-853c0-3-2.4-5.4-5.4-5.4H539.1c-3,0-5.4,2.4-5.4,5.4v11.9
				C533.7-838,536.1-835.6,539.1-835.6z"/>
			<path d="M88.5-824.5h369.1c3,0,5.4-2.4,5.4-5.4v-11.9c0-3-2.4-5.4-5.4-5.4H88.5c-3,0-5.4,2.4-5.4,5.4v11.9
				C83.1-826.9,85.5-824.5,88.5-824.5z"/>
			<path d="M572.4-824.5H875c3,0,5.4-2.4,5.4-5.4v-11.9c0-3-2.4-5.4-5.4-5.4H572.4c-3,0-5.4,2.4-5.4,5.4v11.9
				C566.9-826.9,569.3-824.5,572.4-824.5z"/>
		</g>
	</g>
</g>
</svg>
