<?xml version="1.0" encoding="utf-8"?>
<!-- Generator: Adobe Illustrator 24.1.1, SVG Export Plug-In . SVG Version: 6.00 Build 0)  -->
<svg version="1.1" id="Capa_1" xmlns="http://www.w3.org/2000/svg" xmlns:xlink="http://www.w3.org/1999/xlink" x="0px" y="0px"
	 viewBox="0 0 1080 1080" style="enable-background:new 0 0 1080 1080;" xml:space="preserve">
<style type="text/css">
	.st0{fill:#F4511E;}
</style>
<g transform="translate(.73199 -38.18)">
	<g transform="matrix(.82124 0 0 .82124 23.519 46.271)">
		<path class="st0" d="M860.3,318.6L772,496.8c29,26.9,49.5,62.2,57.6,102.3h66.5c7.7-37.9,26.4-72.1,53.3-98.5L860.3,318.6z"/>
		<path class="st0" d="M697.8,453.7l162.5-328.3l162,330.4c6.4-2.1,12.8-3.8,19.2-5.5L1195.4-3.8H524.7L678.2,449
			C684.6,450.3,691.5,452,697.8,453.7L697.8,453.7z"/>
		<path class="st0" d="M642,744c59.3,0,107.5-48.2,107.5-107.4c0-21.7-6.4-41.8-17.5-58.8c-3.4-5.5-7.7-10.7-11.9-15.3l-0.4-0.4
			c-4.3-4.7-9.4-9-14.5-12.4l-0.4-0.4c-1.3-0.9-3-2.1-4.7-3c-0.4,0-0.4-0.4-0.9-0.4c-1.7-0.9-3.4-2.1-5.1-3h-0.4
			c-1.7-0.9-3.8-2.1-5.5-3h-0.4c-1.7-0.9-3.4-1.7-5.1-2.1c-0.4,0-0.9-0.4-1.3-0.4c-1.3-0.4-3-1.3-4.3-1.7c-0.4,0-0.9-0.4-1.7-0.4
			c-1.7-0.4-3.4-1.3-5.1-1.7h-0.4c-2.1-0.4-3.8-0.9-6-1.3c-0.4,0-0.9,0-1.7-0.4c-1.7-0.4-3-0.4-4.7-0.9c-0.9,0-1.3,0-2.1-0.4
			c-1.3,0-3-0.4-4.3-0.4h-2.1h-6.4H636h-1.7c-1.7,0-3,0.4-4.7,0.4h-1.7c-1.7,0.4-3.4,0.4-5.1,0.9h-1.3c-2.1,0.4-3.8,0.9-6,1.3
			c-46.9,11.5-81.9,54.1-81.9,104.5C534.5,695.4,582.7,744,642,744L642,744z"/>
		<path class="st0" d="M1094,529.2h-0.9c-1.7,0-3-0.4-4.7-0.4h-5.5c-2.1,0-4.3,0-6.8,0.4h-2.1c-1.7,0-3.4,0.4-5.1,0.4
			c-0.4,0-1.3,0-1.7,0.4l-6.4,1.3h-0.4c-2.1,0.4-3.8,0.9-6,1.3c-0.4,0-1.3,0.4-1.7,0.4c-1.7,0.4-3.4,0.9-5.1,1.7
			c-0.4,0-0.9,0.4-1.3,0.4c-2.1,0.9-4.3,1.7-6,2.6c-2.1,0.9-3.8,1.7-6,2.6c-0.4,0-0.9,0.4-1.3,0.4c-1.7,0.9-3.4,1.7-5.1,3
			c0,0-0.4,0-0.4,0.4c-3.8,2.1-7.7,4.7-11.1,7.7l-0.4,0.4c-5.5,4.3-10.2,9-14.9,14.1c-4.7,5.1-8.5,11.1-11.9,17.1
			c-9,15.8-14.1,34.1-14.1,53.3c0,59.3,48.2,107.4,107.5,107.4c59.3,0,107.5-48.2,107.5-107.4c0-52-37.5-95.9-86.6-105.7
			C1100.8,530,1097.4,529.6,1094,529.2L1094,529.2z"/>
		<path class="st0" d="M196.4,744c59.3,0,107.5-48.2,107.5-107.4s-48.2-107.4-107.5-107.4S89,577.3,89,636.6S137.1,744,196.4,744z"
			/>
		<path class="st0" d="M1083.3,827.2c-88.7,0-163.3-61-184.6-142.8H827c-21.3,81.9-95.9,142.8-184.6,142.8c-10.2,0-20-0.9-29.4-2.1
			c-24.7,37.9-54.2,72.9-88.7,105.3c-61,57.6-130,100.2-204.7,127.1l-17.5,6.4l-16.2-8.5c-89.5-46-135.6-139.4-119.4-229.8
			c-10.2-1.7-20-4.3-29.4-7.7c-1.7,3-3,6.4-4.7,9.8c-27.3,56.3-55.9,114.3-66.1,176.5c-11.1,66.5-15.8,188,78,252.8
			c40.9,28.1,84,42.2,132.2,42.2c92.5,0,192.3-49.5,298-101.9c82.7-40.9,168-83.6,256.7-105.3c33.7-8.1,67.8-13.2,100.6-17.9
			c60.1-8.5,117.3-17.1,163.7-43.9c49.5-28.6,83.1-76.3,92.5-130.9c6-33.3,2.6-66.9-8.5-98.1
			C1151.5,817.4,1118.7,827.2,1083.3,827.2L1083.3,827.2z"/>
	</g>
</g>
</svg>
