<?xml version="1.0" encoding="utf-8"?>
<!-- Generator: Adobe Illustrator 24.1.1, SVG Export Plug-In . SVG Version: 6.00 Build 0)  -->
<svg version="1.1" id="Capa_1" xmlns="http://www.w3.org/2000/svg" xmlns:xlink="http://www.w3.org/1999/xlink" x="0px" y="0px"
	 viewBox="0 0 1080 1080" style="enable-background:new 0 0 1080 1080;" xml:space="preserve">
<style type="text/css">
	.st0{fill:#BDBDBD;}
</style>
<path class="st0" d="M1075,275.8V135c-204.4,25.4-379.9,38.2-526.7,38.4c-149.1,0.2-328.1-12.6-536.9-38.4v140.8
	c84,10.4,163.2,18.6,237.5,24.8l-12.8,124.9H5v81.9h222.7l-45,437.6l155.9-0.6l15.4-437h360.5l15.3,436.3h154l-43.7-436.3h228.4
	v-81.9H832l-12.3-123.3C899.1,295.8,984.2,287,1075,275.8z M361,308.5c47.2,2.7,92.2,4.5,134.9,5.2v111.8h-139L361,308.5z
	 M711.6,425.5h-134V313.9c41.1-0.5,84.5-1.9,129.9-4.3L711.6,425.5z"/>
</svg>
