<?xml version="1.0" encoding="utf-8"?>
<!-- Generator: Adobe Illustrator 24.1.1, SVG Export Plug-In . SVG Version: 6.00 Build 0)  -->
<svg version="1.1" id="Capa_1" xmlns="http://www.w3.org/2000/svg" xmlns:xlink="http://www.w3.org/1999/xlink" x="0px" y="0px"
	 viewBox="0 0 1080 1080" style="enable-background:new 0 0 1080 1080;" xml:space="preserve">
<style type="text/css">
	.st0{fill:#616161;}
</style>
<path class="st0" d="M1075,275.8V135c-204.4,25.4-379.9,38.2-526.7,38.4c-149.1,0.2-328.1-12.6-536.9-38.4v140.8
	c84.5,10.4,162.8,18.2,237.6,24.3l-12.9,125.4H5v81.9h222.7l-45,437.6l155.9-0.6l15.4-437h360.5l15.3,436.3h154l-43.7-436.3h228.4
	v-81.9H832l-12.4-123.6C899.3,295.5,983.8,287.1,1075,275.8z M361,307.9c47.2,2.7,92.1,4.4,134.9,5.2v112.4h-139L361,307.9z
	 M711.6,425.5h-134v-112c41.1-0.5,84.5-2,129.9-4.4L711.6,425.5z"/>
</svg>
