<?xml version="1.0" encoding="utf-8"?>
<!-- Generator: Adobe Illustrator 26.0.0, SVG Export Plug-In . SVG Version: 6.00 Build 0)  -->
<svg version="1.1" id="Capa_1" xmlns="http://www.w3.org/2000/svg" xmlns:xlink="http://www.w3.org/1999/xlink" x="0px" y="0px"
	 viewBox="0 0 1080 1080" style="enable-background:new 0 0 1080 1080;" xml:space="preserve">
<style type="text/css">
	.st0{fill:#757575;}
	.st1{fill:#FFCA28;}
</style>
<path class="st0" d="M513.3,359.3h278.4L513.3,80.9V359.3 M159,5h404.9l303.7,303.7v607.4c0,55.9-45.3,101.2-101.2,101.2H159
	c-55.9,0-101.2-45.3-101.2-101.2V106.2C57.8,50,102.8,5,159,5 M614.5,814.8V713.6H159v101.2H614.5 M766.4,612.4V511.1H159v101.2
	H766.4z"/>
<path class="st1" d="M364.2,417h658v658h-658V417z"/>
<path d="M750.2,822.1c13,26.4,40,43.1,69.4,42.8c29.2,0,47.8-14.6,47.8-34.8c0-24-19.1-32.6-51.2-46.7l-17.6-7.5
	c-50.8-21.7-84.5-48.8-84.5-106.1c0-52.7,40.2-92.9,103.1-92.9c41.7-3,81.1,19.3,100.1,56.5l-54.8,35.2
	c-7.3-18.5-25.4-30.5-45.2-30.2c-16.8-1.8-31.8,10.4-33.6,27.2c0,0.1,0,0.2,0,0.3c-0.1,0.9-0.1,1.8-0.1,2.8
	c0,21.1,13,29.6,43.1,42.7l17.6,7.5c59.9,25.6,93.6,51.7,93.6,110.5c0,63.4-49.8,98.1-116.7,98.1c-53.1,3.3-103.2-24.9-128-72
	L750.2,822.1z M501.7,828.3c11,19.6,21.2,36.2,45.2,36.2c23.2,0,37.8-9.1,37.8-44.2V581H655v240.2c0,72.9-42.8,106.1-105,106.1
	c-45.1,2.5-87.1-23.1-105.6-64.3L501.7,828.3z"/>
</svg>
