<?xml version="1.0" encoding="utf-8"?>
<!-- Generator: Adobe Illustrator 24.1.1, SVG Export Plug-In . SVG Version: 6.00 Build 0)  -->
<svg version="1.1" id="Capa_1" xmlns="http://www.w3.org/2000/svg" xmlns:xlink="http://www.w3.org/1999/xlink" x="0px" y="0px"
	 viewBox="0 0 1080 1080" style="enable-background:new 0 0 1080 1080;" xml:space="preserve">
<style type="text/css">
	.st0{fill:#FBC02D;}
</style>
<path class="st0" d="M227.9,138h89.2v89.3h-89.2v223.3c0,49.3-39.9,89.3-89.2,89.3c49.2,0,89.2,40,89.2,89.3v223.3h89.2V942h-89.2
	c-47.7-12.1-89.2-40.2-89.2-89.3V674c0-49.3-39.9-89.3-89.2-89.3H5v-89.3h44.6c49.2,0,89.2-40,89.2-89.3V227.3
	C138.8,178,178.7,138,227.9,138 M852.1,138c49.2,0,89.2,40,89.2,89.3V406c0,49.3,39.9,89.3,89.2,89.3h44.6v89.3h-44.6
	c-49.2,0-89.2,40-89.2,89.3v178.7c0,49.3-39.9,89.3-89.2,89.3h-89.2v-89.3h89.2V629.3c0-49.3,39.9-89.3,89.2-89.3
	c-49.2,0-89.2-40-89.2-89.3V227.3h-89.2V138H852.1 M540,674c24.6,0,44.6,20,44.6,44.7c0,24.7-20,44.7-44.6,44.7s-44.6-20-44.6-44.7
	C495.4,694,515.4,674,540,674 M361.7,674c24.6,0,44.6,20,44.6,44.7c0,24.7-20,44.7-44.6,44.7c-24.6,0-44.6-20-44.6-44.7
	C317.1,694,337,674,361.7,674 M718.3,674c24.6,0,44.6,20,44.6,44.7c0,24.7-20,44.7-44.6,44.7s-44.6-20-44.6-44.7
	C673.8,694,693.7,674,718.3,674z"/>
</svg>
