<?xml version="1.0" encoding="utf-8"?>
<!-- Generator: Adobe Illustrator 24.1.1, SVG Export Plug-In . SVG Version: 6.00 Build 0)  -->
<svg version="1.1" id="Capa_1" xmlns="http://www.w3.org/2000/svg" xmlns:xlink="http://www.w3.org/1999/xlink" x="0px" y="0px"
	 viewBox="0 0 1080 1080" style="enable-background:new 0 0 1080 1080;" xml:space="preserve">
<style type="text/css">
	.st0{fill:#F57C00;}
	.st1{fill:#9E9E9E;}
	.st2{fill:#616161;}
	.st3{fill:#757575;}
</style>
<g id="Canvas" transform="translate(-1638,-1844)">
	<g id="logo">
		<path class="st0" d="M2192.1,1964.1c-192.5,0.2-359.8,132.4-404.7,319.7c69.1-91.4,228.4-150.7,404.7-150.7
			c176.7,0.1,336.1,59.8,404.9,151.5C2552.3,2096.9,2384.9,1964.3,2192.1,1964.1L2192.1,1964.1z M1787.2,2477.4
			c44.6,187.7,212,320.2,404.9,320.5c192.5-0.2,359.8-132.4,404.7-319.7c-69.1,91.4-228.4,150.7-404.7,150.7
			C2015.4,2628.8,1856,2569.2,1787.2,2477.4L1787.2,2477.4z"/>
		<ellipse class="st1" cx="1850.7" cy="2831.7" rx="87.3" ry="87.3"/>
		<ellipse class="st2" cx="1792.1" cy="1989.5" rx="64.1" ry="64.1"/>
		<ellipse class="st3" cx="2546.2" cy="1930.9" rx="81.8" ry="81.9"/>
	</g>
</g>
</svg>
