<?xml version="1.0" encoding="utf-8"?>
<!-- Generator: Adobe Illustrator 24.1.1, SVG Export Plug-In . SVG Version: 6.00 Build 0)  -->
<svg version="1.1" id="Capa_1" xmlns="http://www.w3.org/2000/svg" xmlns:xlink="http://www.w3.org/1999/xlink" x="0px" y="0px"
	 viewBox="0 0 1080 1080" style="enable-background:new 0 0 1080 1080;" xml:space="preserve">
<style type="text/css">
	.st0{fill:#90A4AE;}
</style>
<g transform="matrix(1.89 0 0 1.89 -12.157 -11.429)">
	<path class="st0" d="M9.1,109.7V329l94.5-94.5c8.4-8.4,8.4-21.9,0-30.3L9.1,109.7z"/>
	<path class="st0" d="M124.5,474.5V255.2L30,349.7c-8.4,8.4-8.4,21.9,0,30.3L124.5,474.5z"/>
	<path class="st0" d="M575.2,197l-262,27.7l-0.9,0.9l117.2,117.2L575.2,197z"/>
	<path class="st0" d="M151,103.4c0,0,1.1,162-0.2,218.3c-1,42,18.2,54.6,36.6,73.9c26.4,27.7,78.4,77,78.4,77
		c10.3,10.1,26.6,10.2,36.8,0l90.4-90.4c10.2-10.2,10.2-26.6,0-36.8L151,103.4z"/>
</g>
</svg>
