<?xml version="1.0" encoding="utf-8"?>
<!-- Generator: Adobe Illustrator 24.1.1, SVG Export Plug-In . SVG Version: 6.00 Build 0)  -->
<svg version="1.1" id="Capa_1" xmlns="http://www.w3.org/2000/svg" xmlns:xlink="http://www.w3.org/1999/xlink" x="0px" y="0px"
	 viewBox="0 0 1080 1080" style="enable-background:new 0 0 1080 1080;" xml:space="preserve">
<style type="text/css">
	.st0{fill:#29B6F6;}
</style>
<path class="st0" d="M540,5c-13-0.1-26,5.7-37.9,17.5c-160,159.7-319.8,319.7-479.4,479.9c-7.5,7.5-11.9,18-17.7,27.1v21.3
	c8.3,11.6,15.3,24.6,25.2,34.6c154.5,155.1,309.2,309.9,464.3,464.4c10,10,23,16.9,34.6,25.2h21.3c10.7-7.4,22.6-13.3,31.6-22.2
	c158.3-158,316.4-316.1,474.6-474.2c24.4-24.4,24.5-52.2,0.3-76.5C897.3,342.4,737.6,182.8,578,23.1C566,11.2,553,5.1,540,5L540,5z
	 M484.8,241.2l72,43.2c36.5,21.9,72.9,43.9,109.6,65.6c0,0,0,0,0,0c0.7,0.4,1.4,0.9,2,1.3c0.3,0.2,0.6,0.5,0.9,0.7
	c0.3,0.2,0.6,0.4,0.8,0.7c3.2,2.9,4.6,6.4,4.6,11.6c-0.2,65.7-0.2,131.4,0,197.1c0,1.9-0.1,3.5-0.4,4.9v0c-0.7,3.6-2.8,5.4-7.3,5.7
	c-0.7,0.1-1.4,0.1-2.3,0.1c-2.4-0.1-4.7-0.1-7.1-0.2c-16.8-0.3-33.7,0-51.8,0v-27.4c0-23.2,0-46.4,0-69.6v-0.1c0-11.6,0-23.2,0-34.8
	c0-0.1,0-0.1,0-0.2c0-11.6,0.1-23.1,0.2-34.7v0c0-7.6-2-12-8.8-16c-46.4-27.4-92.5-55.4-138.7-83.1c-2.7-1.6-5.3-3.4-9.1-5.8
	l0.1-0.1c0,0,0,0-0.1,0L484.8,241.2z M503.6,417.3c3.5-0.2,6.2,2.2,9,7.1c4.4,7.7,9,15.2,13.7,22.8c0.3,0.4,0.5,0.9,0.8,1.3
	c0,0,0,0,0,0c5,8,10.1,16.1,15.1,24.4l-99.5,61.1c-17.5,10.8-35,21.7-52.7,32.1c-5.9,3.5-8,7.4-8,14.4c0.5,50.8,0.6,101.6,0.8,152.3
	v13.2h-68c0,0,0,0,0,0h-0.1c-0.2-2.8-0.7-5.8-0.7-8.8c-0.3-65-0.3-130-0.8-194.9c0-7.3,2.4-11.5,8.5-15.3
	c58.2-35.3,116.3-70.9,174.2-106.7c0.3-0.2,0.6-0.3,0.9-0.5c0.6-0.3,1.1-0.7,1.7-0.9c0.3-0.1,0.5-0.3,0.8-0.4
	c0.6-0.3,1.2-0.5,1.7-0.7c0.2-0.1,0.4-0.2,0.6-0.2c0.2-0.1,0.5-0.1,0.7-0.2c0.3,0,0.5-0.1,0.8-0.1
	C503.2,417.4,503.4,417.3,503.6,417.3L503.6,417.3z M798.6,579.7l16.3,28l18,30.9c0,0,0,0,0,0l0,0c-8.2,4.9-15.5,9.2-22.8,13.4
	c-53.6,31.1-107.3,62.2-160.9,93.4c-5.5,3.2-9.8,3.7-15.6,0.5c-15.5-8.6-30.9-17.2-46.4-25.7c-26.4-14.6-52.8-29.2-79.2-43.8
	c-15.5-8.5-31-17.1-46.5-25.6c-1.8-1-3.5-2.3-6.7-4.4l0-0.1c0,0,0,0,0,0l7.1-13l25.7-46.8c25.6,14.1,50.4,27.7,75.2,41.3
	c23,12.7,46,25.1,68.8,38.2c6.3,3.6,11,3.7,17.3,0c46.4-27.3,93.1-54.2,139.7-81.2C791.6,583.1,794.8,581.7,798.6,579.7L798.6,579.7
	z"/>
</svg>
