<?xml version="1.0" encoding="utf-8"?>
<!-- Generator: Adobe Illustrator 24.1.1, SVG Export Plug-In . SVG Version: 6.00 Build 0)  -->
<svg version="1.1" id="Capa_1" xmlns="http://www.w3.org/2000/svg" xmlns:xlink="http://www.w3.org/1999/xlink" x="0px" y="0px"
	 viewBox="0 0 1080 1080" style="enable-background:new 0 0 1080 1080;" xml:space="preserve">
<style type="text/css">
	.st0{fill:#1E88E5;}
</style>
<g transform="matrix(.79205 0 0 .79205 33.204 32.281)">
	<path class="st0" d="M-8.5,1310c-26.7-11.6-27.1-15.5-27.1-185.1V972.1h340.3v344.4H155.2C37.2,1316.1,2.3,1314.8-8.5,1310z"/>
	<path class="st0" d="M369.3,1144.3V972.1h340.3v344.4H369.3V1144.3z"/>
	<path class="st0" d="M365,660.4c0-281.1,0.9-295.7,24.1-369.4c22.4-71,64.2-138.2,119.3-191.6C595.8,14.7,698.8-29.2,821.5-34
		c90.5-3.4,161.5,12.1,239,51.7C1344,164,1403,553.2,1176.4,780.1c-79.7,79.6-180.5,125.7-296.8,136c-25.8,2.2-152.5,4.3-280.8,4.3
		H365V660.4z M700.9,573.9V382.3H537.2v383.1h163.7V573.9z M920.6,629.8V494.2H756.9v271.2h163.7V629.8z M1140.2,520.1V274.7H976.6
		v490.8h163.7V520.1z"/>
	<path class="st0" d="M-35.6,741.8V567.4h340.3v348.7H-35.6V741.8z"/>
</g>
</svg>
