<?xml version="1.0" encoding="utf-8"?>
<!-- Generator: Adobe Illustrator 24.1.1, SVG Export Plug-In . SVG Version: 6.00 Build 0)  -->
<svg version="1.1" id="Capa_1" xmlns="http://www.w3.org/2000/svg" xmlns:xlink="http://www.w3.org/1999/xlink" x="0px" y="0px"
	 viewBox="0 0 1080 1080" style="enable-background:new 0 0 1080 1080;" xml:space="preserve">
<style type="text/css">
	.st0{fill:#FF5252;}
</style>
<path class="st0" d="M1058.2,251.7c-0.1-0.3-0.1-0.6-0.2-0.9v-1l-1.1-2.1c-0.2-0.6-0.4-1.4-0.9-2.4v-1.7l-3.2-3.2
	c-0.5-0.7-1.2-1.7-2.2-2.7l-1.5-1.5c-0.8-0.8-2.3-2.3-4.9-3.7L848.5,119.7c-9.1-5.4-20.8-5.4-29.6-0.1L622.7,232.7l-3.2,2.1l-3,3
	c-1,1-1.7,1.9-2.2,2.7c-0.9,1-2.2,2.6-3.1,4.8c-0.5,1-1.2,2.4-1.6,4.4c-0.2,0.5-0.4,1.1-0.5,1.7c-0.8,3.1-0.8,5.7-0.8,7.5v206.7
	l-136.9,78.7V147.3c0-1.8,0-4.5-0.8-7.5c0-0.2-0.1-0.4-0.1-0.6v-0.9l-1.1-2.1c-0.2-0.6-0.4-1.4-0.9-2.4V132l-3.2-3.2
	c-0.5-0.7-1.2-1.6-2.1-2.6l-1.5-1.5c-0.8-0.8-2.3-2.3-5-3.7L260.3,9.1c-9.1-5.4-20.8-5.4-29.6-0.1L34.5,122.1l-3.2,2.1l-3,3
	c-1,1-1.7,1.9-2.2,2.7c-0.9,1-2.2,2.6-3.1,4.8c-0.5,1-1.2,2.5-1.7,4.4c-0.2,0.5-0.3,1.1-0.5,1.7c-0.8,3-0.8,5.7-0.8,7.5v671.6
	c0,11,5.7,20.7,15,25.7l392,225.7l0.7,0.4c1.3,0.6,2.8,1.4,4.7,1.9c0.6,0.2,1.3,0.4,2.1,0.6c3,0.8,5.7,0.8,7.5,0.8
	c1.8,0,4.5,0,7.7-0.9c0.1,0,0.3-0.1,0.4-0.1l1.3-0.4c0.5-0.2,0.9-0.4,1.4-0.6c0.9-0.2,2.1-0.6,3.5-1.3L849,845.5
	c9.1-5.5,14.8-15.3,14.8-25.6V613.1l181.5-104.5c9.1-5.5,14.8-15.3,14.8-25.6V254.3L1058.2,251.7z M803.5,646v156L470.4,993.8V836.5
	L803.5,646z M666.6,464.7V309.4l136.9,79.1v155.3L666.6,464.7z M773.9,594.7l-333,190.4l-136.2-77.3l151.2-87.3l181.3-104.4
	L773.9,594.7z M108.3,147.8l136.9-79.1L382,147.3l-136.9,79.1L108.3,147.8z M216,713.9c0.2,1,0.4,2.2,0.9,3.5
	c0.5,1.7,1.3,3.2,2.1,4.6c0.6,1.3,1.5,3,3.1,4.6l0.9,0.9l0.5,1l1.6,1.5c0.6,0.6,1.7,1.7,3.5,2.8c0.8,0.6,1.8,1.3,3,1.9l180,101.8
	v157.3L78.4,802l0-603.2l136.9,79.1v431C215.3,710.6,215.5,712.3,216,713.9z M274.6,657.4v-380l136.9-79.1v379.6l-88.3,51.5
	L274.6,657.4z M970.2,258.4l-136.8,78.7l-136.8-78.7l136.8-78.7L970.2,258.4z M999.7,309.4v155.8l-136.9,78.7V388.5L999.7,309.4z
	 M1058.5,254.5c0-0.3,0-0.6,0-0.9C1058.5,253.8,1058.5,254.1,1058.5,254.5L1058.5,254.5z"/>
</svg>
