<?xml version="1.0" encoding="utf-8"?>
<!-- Generator: Adobe Illustrator 26.0.0, SVG Export Plug-In . SVG Version: 6.00 Build 0)  -->
<svg version="1.1" id="Capa_1" xmlns="http://www.w3.org/2000/svg" xmlns:xlink="http://www.w3.org/1999/xlink" x="0px" y="0px"
	 viewBox="0 0 1080 1080" style="enable-background:new 0 0 1080 1080;" xml:space="preserve">
<style type="text/css">
	.st0{fill:#448AFF;}
</style>
<path class="st0" d="M292.1,297.6c-22.8,4.5-55.1,3.3-70.1,3.3c-22.3,0-70.7-26.7-97.4-54.5c-13.9-14.5-39.5-45.6-56.2-69.6
	c-17.2-23.9-34.5-43.4-39.5-43.4c-9.5,0-15.6,33.4-16.1,89c0,6.7-0.6,12.2-0.6,17.2l0.6,1.7L5,712.6c15,3.9,30,7.2,45.6,10.6
	c32.3,6.7,59,12.2,60.1,12.8c0.6,1.1-10.6,18.9-25,39.5c-52.9,75.1-63.4,111.3-33.4,111.3c9.5,0,29.5-3.9,45.6-9.5
	c18.4-5.6,51.7-8.9,87.9-8.9c74.6,0,149.1,18.4,243.1,60.1c89.6,39.5,119.1,49,222.6,69.6c47.3,10,88.5,20.6,91.3,22.8
	c2.8,2.8-3.9,12.2-15.6,21.1s-21.1,18.4-21.1,20.6c0,2.2,12.2,2.2,28.4-0.6c15-2.2,49.5-7.8,75.7-10.6
	c79.6-10,136.3-45.6,137.4-86.8c2.2-52.3-13.9-168.6-23.9-174.7c-1.1-0.6-21.1,6.1-25.6,13.4c-3.9,7.2-8.9,18.4-13.9,31.2
	c-10,25.6-8.3,31.2-87.4,36.7c-57.3,2.8-112.4-10.6-156.9-36.2c-37.3-21.7-92.4-41.2-121.3-85.7c-23.4-36.2-47.9-95.7-43.4-104
	c1.7-2.2,9.5-1.7,17.8,1.1c21.7,8.3,53.4,21.1,151.9,8.3c85.7-11.1,166.9-2.2,188.6,8.9c21.7,11.1,51.2,26.2,52.3,55.1
	c0.6,28.9,18.4,35.1,20,35.1c9.5-1.7,32.8-79,46.2-101.8c11.1-17.8,17.2-27.8,61.2-57.9c34.5-23.9,62.9-46.2,61.8-50.1
	c-0.6-3.3-20-26.2-42.8-51.2c-36.2-38.9-46.2-45.6-79-56.8c-114.1-37.3-235.4-118-298.2-197c-69.6-87.9-89-107.9-139.1-140.8
	c-56.2-37.3-129.1-69-183.6-79.6C276.5,8.2,292.1,26,316,63.3c85.1,97.4,82.9,100.7,82.9,165.3C390,278.6,343.3,285.9,292.1,297.6z
	 M468.5,354.9c9.5,0,32.3,6.1,71.8,19.5c96.8,32.3,102.4,47.3,134.1,102.9c7.2,12.2,12.2,22.8,11.7,23.4c-0.6,0.6-9.5,2.8-19.5,5
	c-25,5-64.5,5-87.9,0c-42.3-8.9-40.1-10.6-61.8-31.7c-8.9-8.9-19.5-23.4-22.8-31.2c-2.2-5.6-1.7-6.7,10.6-16.7
	c2.8-2.2,5.6-6.1,5.6-8.3c0-3.9-12.2-20.6-18.9-26.2c-7.2-6.1-27.3-30-27.3-32.8c0-1.7,1.7-2.8,5.6-2.8L468.5,354.9z"/>
</svg>
