<?xml version="1.0" encoding="utf-8"?>
<!-- Generator: Adobe Illustrator 24.1.1, SVG Export Plug-In . SVG Version: 6.00 Build 0)  -->
<svg version="1.1" id="Capa_1" xmlns="http://www.w3.org/2000/svg" xmlns:xlink="http://www.w3.org/1999/xlink" x="0px" y="0px"
	 viewBox="0 0 1080 1080" style="enable-background:new 0 0 1080 1080;" xml:space="preserve">
<style type="text/css">
	.st0{fill:#0277BD;}
</style>
<g transform="translate(-40.058 5e-6)">
	<path class="st0" d="M380.2,5v0.1c-11-0.1-20.9-0.1-28.9-0.1c-34.4-0.3-63.2,18.5-88.2,38.1c-27.3,21.5-50.7,49.5-58,87
		c-4.2,22-3.3,41.2-3.3,60.4V342c0,53.5-19.9,93.2-46.9,119.2c-15.2,15.1-47.6,28.8-84.5,41.2v68.4c32.7,9,64.2,21.2,81.6,36.7
		c28.9,25.3,49.7,61.6,49.7,109.1v176.8c0,58.7,14,103.5,54.8,134.2c40.8,30.7,88.3,45.9,142.6,47.4l36.3-0.2v-88.2
		c-28.3-8.3-44.1-17.9-55.4-28.8c-20.4-18.5-32-48.5-32-90.2V724.8c-0.8-48.6-8.6-86.5-26.3-114c-17.7-27.4-52.2-51.5-103.6-72.2
		c56.7-26,94.7-59.8,114.1-101.6c11.4-24.8,15.8-58.3,15.8-100.4V205.7c0-43.2,10-73.5,27.4-90.8c9.4-9.4,26.2-17.1,49.5-23.4
		l36.9,0.3V5L380.2,5L380.2,5L380.2,5z"/>
	<path class="st0" d="M779.9,5v0.1c11-0.1,20.9-0.1,28.9-0.1C843.2,4.7,872,23.5,897,43.1c27.3,21.5,50.7,49.5,58,87
		c4.2,22,3.3,41.2,3.3,60.4V342c0,53.5,19.9,93.2,46.9,119.2c15.2,15.1,47.6,28.8,84.5,41.2v68.4c-32.7,9-64.2,21.2-81.6,36.7
		c-28.9,25.3-49.7,61.6-49.7,109.1v176.8c0,58.7-14,103.5-54.8,134.2c-40.8,30.7-88.3,45.9-142.6,47.4l-36.3-0.2v-88.2
		c28.3-8.3,44.1-17.9,55.4-28.8c20.4-18.5,32-48.5,32-90.2V724.8c0.8-48.6,8.6-86.5,26.3-114c17.7-27.4,52.2-51.5,103.6-72.2
		c-56.7-26-94.7-59.8-114.1-101.6c-11.4-24.8-15.8-58.3-15.8-100.4V205.7c0-43.2-10-73.5-27.4-90.8c-9.4-9.4-26.2-17.1-49.5-23.4
		l-36.9,0.3V5L779.9,5L779.9,5L779.9,5z"/>
</g>
</svg>
