<?xml version="1.0" encoding="utf-8"?>
<!-- Generator: Adobe Illustrator 24.1.1, SVG Export Plug-In . SVG Version: 6.00 Build 0)  -->
<svg version="1.1" id="Capa_1" xmlns="http://www.w3.org/2000/svg" xmlns:xlink="http://www.w3.org/1999/xlink" x="0px" y="0px"
	 viewBox="0 0 1080 1080" style="enable-background:new 0 0 1080 1080;" xml:space="preserve">
<style type="text/css">
	.st0{fill:#8BC34A;}
</style>
<path class="st0" d="M914.5,272.5h-535v-107h535 M700.5,700.5h-321v-107h321 M914.5,486.5h-535v-107h535 M968,5H326
	c-59.1,0-107,47.9-107,107v642c0,59.1,47.9,107,107,107h642c59.1,0,107-47.9,107-107V112C1075,52.9,1027.1,5,968,5 M112,219H5v749
	c0,59.1,47.9,107,107,107h749V968H112V219z"/>
</svg>
