<?xml version="1.0" encoding="utf-8"?>
<!-- Generator: Adobe Illustrator 24.1.1, SVG Export Plug-In . SVG Version: 6.00 Build 0)  -->
<svg version="1.1" id="Capa_1" xmlns="http://www.w3.org/2000/svg" xmlns:xlink="http://www.w3.org/1999/xlink" x="0px" y="0px"
	 viewBox="0 0 1080 1080" style="enable-background:new 0 0 1080 1080;" xml:space="preserve">
<style type="text/css">
	.st0{fill:#EF5350;}
</style>
<path class="st0" d="M540,5C244.9,5,5,244.9,5,540s239.9,535,535,535s535-239.9,535-535S835.1,5,540,5z M540,91.6
	c247.8,0,448.4,200.6,448.4,448.4c0,176.9-102.5,329.3-251.2,402.3c-3,0.3-6,0.9-9.1,1.1c-5.7,0.4-11.4,0.5-17,0.5
	c-8,0-16.1-0.3-24-1.1c-8-0.8-16-2.1-23.8-3.7c-7.9-1.6-15.6-3.5-23.3-5.9c-7.7-2.4-15.1-5.2-22.5-8.4c-7.4-3.1-14.7-6.5-21.7-10.3
	c-7-3.8-13.9-8.1-20.5-12.6c-6.6-4.5-12.9-9.4-19-14.5c-6.1-5.2-12.1-10.5-17.7-16.3c-5.6-5.8-10.9-11.9-15.9-18.2
	c-5-6.3-9.7-12.8-14-19.5c-4.3-6.7-8.3-13.6-11.9-20.8c-3.6-7.1-6.9-14.6-9.8-22c-2.9-7.5-5.5-14.9-7.6-22.7
	c-2.1-7.7-3.9-15.6-5.2-23.5c-1.4-7.9-2.4-15.8-2.9-23.8c-0.4-5.7-0.6-11.4-0.6-17c0-8,0.3-16.1,1.1-24c0.8-8,2.2-16,3.8-23.8
	c1.6-7.9,3.5-15.6,5.9-23.3c2.4-7.7,5.1-15.2,8.3-22.6c3.1-7.4,6.6-14.6,10.4-21.6c3.8-7,8.1-13.9,12.6-20.5
	c4.5-6.6,9.4-13,14.5-19.1c2.6-3,5.2-6.1,7.7-8.8c2.6-2.7,5.2-5.5,7.7-8.6c5.2-6.1,10-12.6,14.5-19.2c4.5-6.6,8.7-13.4,12.5-20.5
	c3.8-7,7.4-14.2,10.6-21.6c3.1-7.4,5.8-14.9,8.2-22.6c2.4-7.7,4.4-15.4,6-23.3c1.6-7.9,2.9-15.8,3.7-23.8c0.8-8,1.1-16,1.1-24
	c0-5.7-0.2-11.3-0.6-16.9c-0.6-8-1.6-16-2.9-23.9c-1.4-7.9-3.1-15.7-5.2-23.4c-2.1-7.7-4.6-15.4-7.5-22.9
	c-2.9-7.5-6.3-14.8-9.9-21.9c-3.6-7.1-7.6-14.2-11.9-20.9c-4.3-6.7-9-13.3-14-19.5c-5-6.3-10.3-12.2-15.9-18
	c-5.6-5.8-11.4-11.3-17.6-16.5c-6.1-5.2-12.5-10-19.1-14.5c-6.6-4.5-13.4-8.6-20.5-12.4c-7-3.8-14.3-7.4-21.7-10.6
	c-7.4-3.1-14.8-5.8-22.5-8.2c-7.7-2.4-15.4-4.5-23.3-6.1c-7.9-1.6-15.8-2.8-23.8-3.6c-8-0.8-16-1.3-24-1.3c-4.2,0-8.3,0.3-12.5,0.5
	C404.8,107.9,470.4,91.6,540,91.6L540,91.6z M621.9,240.6c38.8,53.2,71.6,97,78.7,156c9.4,78.1-86.5,275.8-124.9,332.7h78.4
	c27.6-42.9,88.4-173.9,106.3-228.2c20.5,37.2,69.4,180.1,80.5,228.2h71.4c-27.1-104.8-81-269.7-211.5-486.4
	C700.7,242.9,647.8,240.6,621.9,240.6L621.9,240.6z M165.9,350.7h71.4c11.1,48.1,60,191,80.5,228.2
	c17.9-54.3,78.6-185.3,106.3-228.2h78.4C464,407.5,368.1,605.3,377.5,683.4c7.1,59,39.8,102.8,78.7,156c-25.9,0-78.8-2.3-78.8-2.3
	C247,620.4,193,455.4,165.9,350.7L165.9,350.7z"/>
</svg>
