<?xml version="1.0" encoding="utf-8"?>
<!-- Generator: Adobe Illustrator 24.1.1, SVG Export Plug-In . SVG Version: 6.00 Build 0)  -->
<svg version="1.1" id="Capa_1" xmlns="http://www.w3.org/2000/svg" xmlns:xlink="http://www.w3.org/1999/xlink" x="0px" y="0px"
	 viewBox="0 0 1080 1080" style="enable-background:new 0 0 1080 1080;" xml:space="preserve">
<style type="text/css">
	.st0{fill:#317EAC;}
</style>
<polygon class="st0" points="1075,881.5 262,881.5 313.9,829.5 1003.9,829.5 1003.9,740.9 402.6,740.9 458.7,684.7 1002.4,684.7 
	1002.4,596 547.4,596 603.6,539.9 1003.9,539.9 1003.9,451.2 692.2,451.2 745.3,398.2 1003.3,398.2 1003.3,309.5 833.9,309.5 
	878.5,264.9 1004.2,264.9 1004.2,176.3 904.3,176.3 904.3,76.3 815.7,76.3 815.7,202.4 771.2,246.9 771.2,77.3 682.5,77.3 
	682.5,335.5 682.6,335.5 629.3,388.8 629.3,76.6 540.6,76.6 540.6,477.1 541,477.1 484.5,533.6 484.5,78.2 395.8,78.2 395.8,621.9 
	396.1,621.9 339.6,678.4 339.6,76.6 251,76.6 251,767.1 200.1,818 200.1,5 84.8,5 84.8,881.5 5,881.5 5,996.7 84.8,996.7 84.8,1075 
	200.1,1075 200.1,996.7 1075,996.7 "/>
</svg>
