<?xml version="1.0" encoding="utf-8"?>
<!-- Generator: Adobe Illustrator 24.1.1, SVG Export Plug-In . SVG Version: 6.00 Build 0)  -->
<svg version="1.1" id="Capa_1" xmlns="http://www.w3.org/2000/svg" xmlns:xlink="http://www.w3.org/1999/xlink" x="0px" y="0px"
	 viewBox="0 0 1080 1080" style="enable-background:new 0 0 1080 1080;" xml:space="preserve">
<style type="text/css">
	.st0{fill:#FFD54F;}
</style>
<path class="st0" d="M540,820.2c56.3,0,102-45.6,102-101.9c0-56.6-45.9-101.9-102-101.9c-56.3,0-102,45.6-102,101.9
	C438,774.6,483.7,820.2,540,820.2 M846,361.7c56.3,0,102,45.6,102,101.9v509.5c0,56.3-45.7,101.9-102,101.9H234
	c-56.3,0-102-45.6-102-101.9V463.6c0-56.6,45.9-101.9,102-101.9h51V259.8C285,119.1,399.2,5,540,5s255,114.1,255,254.8v101.9H846
	 M540,106.9c-84.5,0-153,68.4-153,152.9v101.9h306V259.8C693,175.3,624.5,106.9,540,106.9z"/>
</svg>
