<?xml version="1.0" encoding="utf-8"?>
<!-- Generator: Adobe Illustrator 24.1.1, SVG Export Plug-In . SVG Version: 6.00 Build 0)  -->
<svg version="1.1" id="Capa_1" xmlns="http://www.w3.org/2000/svg" xmlns:xlink="http://www.w3.org/1999/xlink" x="0px" y="0px"
	 viewBox="0 0 1080 1080" style="enable-background:new 0 0 1080 1080;" xml:space="preserve">
<style type="text/css">
	.st0{fill:#EF5350;}
</style>
<path class="st0" d="M540,311l-71.7,4.8C422,260.9,292.2,122.5,162.9,122.5c0,0-106.1,159.5-2.2,372.2
	c-29.6,44.7-48,67.9-51.7,121.2L5,631.6l11.3,52.8l94.8-14l7.5,38.2l-84.6,50.6l25.3,47.9l78.1-47.9
	c62,131.4,218.7,198.2,402.5,198.2s340.5-66.8,402.5-198.2l78.1,47.9l25.3-47.9l-84.6-50.6l7.5-38.2l94.8,14l11.3-52.8L971,616
	c-3.8-53.3-22.1-76.5-51.7-121.2c104-212.8-2.2-372.2-2.2-372.2c-129.3,0-259.1,138.4-305.5,193.4L540,311 M378.4,472.7
	c29.8,0,53.9,24.1,53.9,53.9l0,0c0,29.8-24.1,53.9-53.9,53.9l0,0c-29.8,0-53.9-24.1-53.9-53.9l0,0
	C324.5,496.8,348.6,472.7,378.4,472.7L378.4,472.7 M701.6,472.7c29.8,0,53.9,24.1,53.9,53.9c0,29.8-24.1,53.9-53.9,53.9l0,0
	c-29.8,0-53.9-24.1-53.9-53.9l0,0C647.8,496.8,671.9,472.7,701.6,472.7L701.6,472.7 M486.1,634.3h107.8l-37.7,74.9
	c10.8,34.5,40.9,59.8,78.1,59.8c44.6,0,80.8-36.2,80.8-80.8H742c0,59.5-48.2,107.7-107.8,107.7c-40.4,0-75.4-22.1-94.3-53.9
	c-18.9,31.8-53.9,53.9-94.3,53.9c-59.5,0-107.8-48.2-107.8-107.7l0,0h26.9c0,44.6,36.2,80.8,80.8,80.8l0,0
	c37.2,0,67.3-25.3,78.1-59.8L486.1,634.3z"/>
</svg>
