<?xml version="1.0" encoding="utf-8"?>
<!-- Generator: Adobe Illustrator 24.1.1, SVG Export Plug-In . SVG Version: 6.00 Build 0)  -->
<svg version="1.1" id="Capa_1" xmlns="http://www.w3.org/2000/svg" xmlns:xlink="http://www.w3.org/1999/xlink" x="0px" y="0px"
	 viewBox="0 0 1080 1080" style="enable-background:new 0 0 1080 1080;" xml:space="preserve">
<style type="text/css">
	.st0{fill:#42A5F5;}
	.st1{fill-rule:evenodd;clip-rule:evenodd;fill:#42A5F5;}
</style>
<g transform="translate(-.20339 -.1017)">
	<path class="st0" d="M540.1,4.6c-295,0-535,240-535,535c0,295,240,535,535,535c295,0,535-240,535-535
		C1075.1,244.6,835.1,4.6,540.1,4.6z M540.1,1025.2c-267.8,0-485.6-217.8-485.6-485.6c0-267.7,217.8-485.6,485.6-485.6
		c267.7,0,485.5,217.8,485.5,485.6C1025.6,807.4,807.8,1025.2,540.1,1025.2z"/>
	<path class="st1" d="M546.4,225.4c-177,0-320.5,141.2-320.5,315.4c0,174.2,143.5,315.4,320.5,315.4c177,0,320.5-141.2,320.6-315.4
		c0,0,0,0,0,0C866.9,366.6,723.4,225.4,546.4,225.4C546.4,225.4,546.4,225.4,546.4,225.4z M638.3,320.1
		c63.6,0,115.2,50.7,115.2,113.3c0,0,0,0.1,0,0.1c0,62.6-51.6,113.3-115.2,113.3c-63.5,0-115.1-50.7-115.1-113.3
		C523.2,370.9,574.7,320.1,638.3,320.1z"/>
	<ellipse class="st1" cx="907.3" cy="169.5" rx="115.1" ry="113.3"/>
</g>
</svg>
