<?xml version="1.0" encoding="utf-8"?>
<!-- Generator: Adobe Illustrator 24.1.1, SVG Export Plug-In . SVG Version: 6.00 Build 0)  -->
<svg version="1.1" id="Capa_1" xmlns="http://www.w3.org/2000/svg" xmlns:xlink="http://www.w3.org/1999/xlink" x="0px" y="0px"
	 viewBox="0 0 1080 1080" style="enable-background:new 0 0 1080 1080;" xml:space="preserve">
<style type="text/css">
	.st0{fill:#EF5350;}
</style>
<path class="st0" d="M108.4,61C51.3,61,5,107.4,5,164.6l0,0V786c0,57,46,103.6,103.4,103.6h400.7l88.3,83.1c5.6,5.2,14.1,5.5,20,1
	l63.7-51.5c19.5,7.4,38.6,11.4,58.6,13.4l34.4,74.8c3.2,6.4,10.9,10.3,18.2,7.9l117.2-35.4c7.3-2.4,11.9-9.4,10.8-16.8l-12.3-81.4
	c7.6-6.3,14.9-12.8,21.8-20.2c6.9-7.4,13.2-15.4,19.4-23.9l81.3,7.9c7.4,0.6,14.2-4.4,16.2-11.8l27.8-119.3c1.9-7.4-2.2-15.1-9-17.7
	L989,669.7c-3.4-19.6-8.3-38.5-17.2-57.3l47.3-67.1c4.1-6.2,3.3-14.7-2.3-19.9l-80.8-75.9V164.6c0-57-46-103.6-103.4-103.6L108.4,61
	z M108.4,268.1h724v220.3c-15.6-5-31.2-8.4-47.2-10.2l-34.6-74.5c-3-6.6-11-10.3-18.3-7.9l-117.2,35.4c-7.5,2.2-11.9,9.4-10.8,16.8
	l13,80.7c-8,6.8-15.6,13.6-22.5,20.9c-6.9,7.4-13,15.2-18.8,23.2l-81.9-7.2c-7.4-0.6-14.4,4.2-16.1,11.8l-27.9,119.3
	c-1.9,7.4,2.4,14.9,9,17.7l76.8,29.6c2.3,14.4,6.2,28.2,11.1,41.9H108.4L108.4,268.1z M760.6,599.7c27.9-0.5,54.8,9.9,75.2,29
	c43.2,40.5,45.4,108.5,4.9,151.7c0,0-0.1,0.1-0.1,0.1c-40.5,43.2-108.4,45.3-151.5,4.8c-43.2-40.6-45.3-108.5-4.8-151.7
	C704.1,612.4,731.6,600.2,760.6,599.7L760.6,599.7z"/>
</svg>
