<?xml version="1.0" encoding="utf-8"?>
<!-- Generator: Adobe Illustrator 24.1.1, SVG Export Plug-In . SVG Version: 6.00 Build 0)  -->
<svg version="1.1" id="Capa_1" xmlns="http://www.w3.org/2000/svg" xmlns:xlink="http://www.w3.org/1999/xlink" x="0px" y="0px"
	 viewBox="0 0 1080 1080" style="enable-background:new 0 0 1080 1080;" xml:space="preserve">
<style type="text/css">
	.st0{fill:#2196F3;}
	.st1{fill:#26A69A;}
	.st2{fill:#8BC34A;}
	.st3{fill:#FFC107;}
	.st4{fill:#F44336;}
</style>
<g transform="translate(0,-115.5)">
	<g transform="translate(0 -5.4609)">
		<path class="st0" d="M181,373.5c-29.3,47.9-59,95.7-88.3,143.6C63.5,564.6,34.3,613,5,660.9l0.1,0.1L5,661.1
			c29.3,47.9,58.5,96.2,87.7,143.7c29.3,47.9,59,95.8,88.3,143.7h148.8c-29.7-47.9-58.9-95.8-88.2-143.7
			c-29.2-47.8-58.4-96-87.6-143.8c29.2-47.8,58.4-96.1,87.6-143.9c29.3-47.9,58.5-95.7,88.2-143.6L181,373.5z"/>
		<path class="st1" d="M180.9,373.5L180.9,373.5c29.2,48,58.4,96.4,87.7,143.8c29.3,47.9,58.9,95.8,88.2,143.7h148.8
			c-29.7-47.9-58.9-95.8-88.2-143.7c-29.2-47.8-58.4-96-87.6-143.8L180.9,373.5z"/>
		<path class="st2" d="M681.5,373.5L681.5,373.5c-29.2,48-58.4,96.4-87.7,143.8c-29.3,47.9-58.9,95.8-88.2,143.7H356.8
			c29.7-47.9,58.9-95.8,88.2-143.7c29.2-47.8,58.4-96,87.6-143.8L681.5,373.5z"/>
		<path class="st3" d="M532.8,373.5c29.7,47.9,58.9,95.7,88.2,143.6c29.2,47.8,58.4,96.1,87.6,143.9c-29.2,47.8-58.4,96-87.6,143.8
			c-29.3,47.9-58.5,95.7-88.2,143.6h148.8c29.3-47.9,58.9-95.7,88.2-143.6c29.3-47.5,58.6-95.8,87.8-143.7l-0.1-0.1l0.1-0.1
			c-29.3-47.9-58.6-96.3-87.8-143.8c-29.3-47.9-58.9-95.7-88.2-143.6L532.8,373.5z"/>
		<path class="st4" d="M750.2,373.5c29.7,47.9,58.9,95.7,88.2,143.6c29.2,47.8,58.3,96.1,87.6,143.9c-29.2,47.8-58.3,96-87.6,143.8
			c-29.3,47.9-58.5,95.8-88.2,143.7H899c29.3-47.9,58.9-95.8,88.2-143.7c29.3-47.5,58.6-95.8,87.8-143.7l-0.1-0.1l0.1-0.1
			c-29.3-47.9-58.6-96.3-87.8-143.8c-29.3-47.9-58.9-95.7-88.2-143.6L750.2,373.5z"/>
	</g>
</g>
</svg>
