<?xml version="1.0" encoding="utf-8"?>
<!-- Generator: Adobe Illustrator 24.1.1, SVG Export Plug-In . SVG Version: 6.00 Build 0)  -->
<svg version="1.1" id="Capa_1" xmlns="http://www.w3.org/2000/svg" xmlns:xlink="http://www.w3.org/1999/xlink" x="0px" y="0px"
	 viewBox="0 0 1080 1080" style="enable-background:new 0 0 1080 1080;" xml:space="preserve">
<style type="text/css">
	.st0{fill-rule:evenodd;clip-rule:evenodd;fill:#F44336;stroke:#F44336;stroke-width:0.7747;stroke-linejoin:round;}
</style>
<path class="st0" d="M539.9,5.1l-3.7,1.3L512.7,47l-23.2,39l-62.2,106.7h-0.9L229.6,106l-5.1-2.4h-0.9v4.7l1.3,8.3v4.4l6.7,62.6v4.2
	l1.6,12.9v4.2l11.2,109.1v3.8l0.9,4.2v3.1L125.4,351l-2,0.7l-23.3,5.1l-1.3,0.5h-2.2l-56,12.5l-2,0.4L30,372v4.2l0.9,0.5l94.9,106.5
	l2.7,2.7l5.8,6.7l41.1,46.4v0.3l-2.7,2.5L161.5,555l-131,146.8l-0.5,0.4v4.2l3.7,0.3l15,3.8l86.7,18.7v0.3l109.2,24.1h0.7v2.4
	l-1.8,12.9v4.1l-2.4,21v4.2l-1.8,12.5v4.2l-2.3,21v4.1l-2.5,20.9v4.1l-1.9,12.5v4.2l-2.3,21v4.2l-2.5,20.8v4.2l-1.6,12.6v4.2
	l-2.5,20.8v5.3h1.9l186-81.7l15-6.9h0.9l9.1,15.9l27.5,46.5l0.7,1.6l43.6,74.8l8.2,13.4l20.6,35.5l0.4,1.1h4.7l0.2-1.1l0.9-1.3
	l28.6-48.3l0.7-2.2l30.6-52.7l16.2-27.5l32.9-55.7l2.5,0.7l199.4,87.9h1.8v-4.3l-7-67.4v-4.2l-1.6-12.5v-4.2l-1.8-12.5v-4.3
	l-1.6-12.5v-4.1l-1.6-12.5V832l-1.6-12.5v-4.3l-1.8-12.5v-4.2l-1.6-12.5v-4.2l-1.6-12.5V765l-1.3-8.7v-2.7l83.3-18.1l2.2-0.4
	l23.4-5.5h1.4v-0.5l11.7-2.5l1.5-0.5h2.2l19.5-4.6l1.3-0.5h2.2l9.9-2.5h1.6l51.8-11.7l3.6-0.4V703l-0.7-0.7l-60.8-68.5l-1.4-1.4
	l-10-11.2l-72.9-81.9V539l15-16.5l20.4-23.3l109.7-123l0.7-0.5v-3.3l-1.8-0.4l-65.8-14.3l-19-4.3l-2.4-0.5l-126.7-27.7v-2.3
	l22.1-217.7v-1h-2.2l-15.4,6.9l-0.5,0.7H837l-168.8,74l-15.2,6.9h-0.7L548.7,14.7l-5-7.4L542.9,5L539.9,5.1z M539.8,62l69.7,118.6
	l17.4,30.2l-0.4,1.3l-60.3,77.2l-26.4,33.7l-0.6-0.5l-13.2-17.1l-2-2.5l-71.4-91.2l1.5-3.2l70.4-120.8l14.7-25.1L539.8,62z
	 M790.5,166.1l-0.4,1.3l-8.6,11.5l-27.5,3.4L790.5,166.1z M289.2,166.3l2.7,1l34.6,15.3H301l-11.4-15.3L289.2,166.3z M817.4,182.6
	l-6.3,63.7l-5.8-47.3l11.5-15.7L817.4,182.6z M344.6,190.6l2.7,1.2l36,15.8l-38.7-8.9L344.6,190.6z M721.8,196.5l1,8.6l-67.3,20.6
	l0.1-0.1l8.2-3.7l51.8-22.7L721.8,196.5z M445.8,253.5L494,315v0.5L436.3,295L445.8,253.5z M627.1,262.3l10.7,34.9l-11.9,4.3
	l-4.6,1.1l-35.8,13l0.4-1.1l39.6-50.1L627.1,262.3z M371.8,305l50.3,18.2l45.9,15.9l2.5,1l53.8,19l0.6,157.6l-18.5-6l-34.3-11.4
	l-4.1-1.9l-37.6-12.5l-39.3-13.1l-14.9-5.1l-0.5-13l-1.6-61l-0.5-14.7l-0.7-45.6l-0.7-15.2L371.8,305z M707.9,305l-0.6,11.6l-1.4,46
	l-0.4,15.4l-1.6,75.3l-0.5,13.4l-17.2,6l-37.5,12.5l-39.3,13.1L573,510.8l-18.1,6l0.5-157.6l83.3-29.5L707.9,305z M737.8,327.3
	l4.6,37.5l40.4-4.9L736,426.4l-0.9,0.3l0.5-9.3l0.9-44.8L737.8,327.3z M255.1,354.7l7.8,11.2l73.9,104.6L203.7,520l-2.5,0.7
	l-100.7-113l-14.3-15.9l0.1-0.5l5.8-0.9l21.7-5.1l7.1-1.1l17.2-4l2.2-0.5L255.1,354.7z M824.3,354.8L992,391.2l1.5,0.5l-1.1,1.3
	l-99.8,111.9l-14.1,15.9l-4.7-1.8l-130.9-48.5l24.2-34.8l7.8-11L824.3,354.8z M298.6,362.4h44l1.8,64.2l-0.7-0.3l-39-55L298.6,362.4
	z M367.9,496.5l7.8,3.1l39.3,12.9l36.4,12.5l38.1,12.6l25,8.5l-3.3,4.7l-88,119.1l-51.8-15.4l-4.2-0.9l-1.8-0.7l-97.1-28.6
	l47.9-62.3l50.1-65.2L367.9,496.5z M711.6,496.5l1.6,0.3l91.3,118.8l6.7,8.7l-6.5,1.8l-1.6,0.7L691,659.6l-5.4,1.6l-28.8,8.7
	l-0.9-0.1l-53.8-73.5l-8.9-12.2L565.3,547l-0.4-0.9l23.9-8.2l39.3-13l36.4-12.5l39.3-12.9L711.6,496.5z M315.1,512l-0.4,1L294,539.8
	l-14.9-14.9l33.6-12.5L315.1,512z M764.5,512l2.2,0.4l29.5,10.8l36.4,13.8l-33.7,20.1l-19.1-24.5l-1.5-2.2l-13.4-17.4L764.5,512z
	 M210.8,550.3l-34.2,34.1l18.1-20.3l10.5-11.7L210.8,550.3z M870.1,551.1l3.4,1.3l2.3,2.2l28.3,32l2.2,2.2l10.4,11.7l-13,6.9
	L870.1,551.1z M539.6,564.7l1.1,0.7l70.5,95.6l1.6,2.5l17.5,23.8l0.4,1.6l-4.5,6L604.7,727l-2.4,3.8l-12.5,17.5l-49.6,73l-0.6,0.4
	l-60.3-87.8l-4.9-8.2l-25.2-36.2l-0.4-1.9l82.6-111.9l0.4-0.5L539.6,564.7z M939.3,625.6l28.9,32.3l3.2,4.2l-13.9-4.7l-1.9-0.7
	L939.3,625.6z M133.2,633.2l15.2,15.3l-32.5,11.1l-7.8,2.5l1.9-2.9L133.2,633.2z M808.5,657.2l-43.7,22.9l17.7,33.7l-9.4-2.9
	l-13.8-4.5l-55.8-17.8l0.6-0.5L808.5,657.2z M313.9,670.2l62.4,18.2l-0.3,0.4l-23.4,7.4L330,703l-1.6,0.5l-25.1,8L313.9,670.2z
	 M172.7,672.7l16.2,16.3l102.5,26.4l-28.9,9.2l-2.8,0.2l-107.4-23.9l-38-8l0.4-0.3L172.7,672.7z M936.9,683.2l28,9.6v0.1l-23.3,5.1
	l-2.2,0.7l-54.6,11.7L936.9,683.2z M414.4,709l0.4,11.6l0.5,17.7l1.3,69.6l1.3,35.3l-0.4,13l-12.3,5.5l-146.2,64.1l1.6-19l1.6-13
	l0.9-11.6l1.6-13.1l1.9-20.8l2.3-21.4l0.9-11.7l1.6-12.9l1.6-21l2.5-21.2l0.7-7.1l74.3-23.3l0.1-0.7l15.4-5L414.4,709z M665.1,709
	l63.6,19.9v0.7l15.9,5.1l58.5,18.5l1.1,11.7l1.6,13l2.2,20.9l2,21.4l0.9,11.7l1.6,12.9l1.6,21l2.2,16.6l4,43.3l-4-2l-154.5-67.5
	l-0.2-15.6l3.1-120.9L665.1,709z M445.8,740.5l0.7,0.4l3.4,5.5l30.6,44.7L448,818.2l-1.8-73.4L445.8,740.5z M633.2,740.5h0.4
	l-0.2,3.1l-1,34.6l-0.2,10.9l-24.5-11.4L633.2,740.5z M485.7,924.6l39,46.7l0.1,18.9l-0.9-0.4l-1.3-2.5l-23.7-40.4l-0.6-0.9
	L485.7,924.6z M563.9,955.7l9.3,4.3l-17.5,29.9l-0.9,0.4l0.1-27.2L563.9,955.7z"/>
</svg>
