<?xml version="1.0" encoding="utf-8"?>
<!-- Generator: Adobe Illustrator 24.1.1, SVG Export Plug-In . SVG Version: 6.00 Build 0)  -->
<svg version="1.1" id="Capa_1" xmlns="http://www.w3.org/2000/svg" xmlns:xlink="http://www.w3.org/1999/xlink" x="0px" y="0px"
	 viewBox="0 0 1080 1080" style="enable-background:new 0 0 1080 1080;" xml:space="preserve">
<style type="text/css">
	.st0{fill-rule:evenodd;clip-rule:evenodd;fill:#4DB6AC;}
	.st1{fill-rule:evenodd;clip-rule:evenodd;fill:#00897B;}
	.st2{fill-rule:evenodd;clip-rule:evenodd;fill:#FFB74D;}
</style>
<g>
	<path class="st0" d="M271.2,481.7L5,579.6l205.9,145.7L375,562.7L271.2,481.7L271.2,481.7z"/>
	<path class="st1" d="M731,42.8c-22.3,3-16.2,1.7-48.2,27.3C652.2,94.6,564.1,240.5,517,289.6c-41.9,43.7-58.5,20.7-102,57.1
		c-43.6,36.5-110.8,109.4-110.8,109.4l108.6,80.3L585,299.7c40.6-55.9,40.2-63.3,62.3-121.9c10.8-28.7,30.1-50.8,47.1-77.8
		C715.6,66.3,745.6,40.8,731,42.8L731,42.8z"/>
	<path class="st2" d="M727.6,40c-53.1-0.3-105.3,233-196.1,412C439,634.6,256.2,752.2,256.2,752.2c30.8,14,58.9,8.3,92,39.7
		c22.7,27.4,88.4,162.9,127.6,248.1c0,0,32.2-17.5,73-47c40.8-29.5,90.1-71.1,124.5-119.4c45.6-64,81.3-103.6,111.5-127.8
		c30.2-24.2,55-32.8,78.8-34.9c85.2-7.3,211.4,145.7,211.4,145.7S810.8,40.5,727.6,40L727.6,40z"/>
</g>
</svg>
