<?xml version="1.0" encoding="utf-8"?>
<!-- Generator: Adobe Illustrator 26.0.0, SVG Export Plug-In . SVG Version: 6.00 Build 0)  -->
<svg version="1.1" id="Capa_1" xmlns="http://www.w3.org/2000/svg" xmlns:xlink="http://www.w3.org/1999/xlink" x="0px" y="0px"
	 viewBox="0 0 1080 1080" style="enable-background:new 0 0 1080 1080;" xml:space="preserve">
<style type="text/css">
	.st0{fill:url(#SVGID_1_);}
</style>
<linearGradient id="SVGID_1_" gradientUnits="userSpaceOnUse" x1="30.8328" y1="1030.2874" x2="24.1463" y2="1083.7798" gradientTransform="matrix(20 0 0 -20.0025 -17 21625.707)">
	<stop  offset="0" style="stop-color:#AB47BC"/>
	<stop  offset="0.375" style="stop-color:#AB47BC"/>
	<stop  offset="0.375" style="stop-color:#D32F2F"/>
	<stop  offset="0.5425" style="stop-color:#D32F2F"/>
	<stop  offset="0.5425" style="stop-color:#FF7043"/>
	<stop  offset="0.6975" style="stop-color:#FF7043"/>
	<stop  offset="0.6975" style="stop-color:#FFA726"/>
	<stop  offset="1" style="stop-color:#FFA726"/>
</linearGradient>
<path class="st0" d="M1075,5.1c0,0-408.7-19.8-730.8,421.5C97,765.3,5,1075,5,1075l103.8-53.5C185.8,887.8,226,832.7,301.4,754
	c135.4,39.6,276.6,34.8,399.1-107c-107-30-192.6-23-318.9-10.2c141.8-96.8,238.6-118.2,372.4-96.8l53.5-107
	c-96.3-18.2-160.5-19.8-255.7,2.1C657.2,360.9,730.5,319.1,861,326.1l59.4-92.5c-81.9-3.2-128.4-1.1-224.2,16
	c86.1-78.1,164.8-113.4,279.3-120.4C975.5,129.2,1031.7,28.1,1075,5.1z"/>
</svg>
