<?xml version="1.0" encoding="utf-8"?>
<!-- Generator: Adobe Illustrator 24.1.1, SVG Export Plug-In . SVG Version: 6.00 Build 0)  -->
<svg version="1.1" id="Capa_1" xmlns="http://www.w3.org/2000/svg" xmlns:xlink="http://www.w3.org/1999/xlink" x="0px" y="0px"
	 viewBox="0 0 1080 1080" style="enable-background:new 0 0 1080 1080;" xml:space="preserve">
<style type="text/css">
	.st0{fill:#3F51B5;}
</style>
<path class="st0" d="M544.3,5C212.7,194.3,6.9,548.8,5,933.8c346.9,191.2,754.2,184.6,1069.8,2c0-0.9,0.1-1.9,0.2-2.8
	C1074.6,550.1,872.3,196.3,544.3,5L544.3,5z M722.8,415c49.2,33.8,41.9,115.1,33.9,170.7c-10.1,61.3-68.2,162.1-143.8,227.9
	c9.8,14.2,15.5,31.6,15.4,50.2c-46.8,23.9-93.3-3.1-149.5-51.7C422.7,763.5,362.1,666.1,342,565.9c-17.8,1.9-36.1-2.1-51.8-12.1
	c4.1-56.2,63.1-89.5,115.3-109.2c52.3-19.7,186.9-26.4,281.8,7.8C694.8,436.6,707,423.4,722.8,415L722.8,415z"/>
</svg>
