<?xml version="1.0" encoding="utf-8"?>
<!-- Generator: Adobe Illustrator 24.1.1, SVG Export Plug-In . SVG Version: 6.00 Build 0)  -->
<svg version="1.1" id="Capa_1" xmlns="http://www.w3.org/2000/svg" xmlns:xlink="http://www.w3.org/1999/xlink" x="0px" y="0px"
	 viewBox="0 0 1080 1080" style="enable-background:new 0 0 1080 1080;" xml:space="preserve">
<style type="text/css">
	.st0{fill:#4CAF50;}
</style>
<path class="st0" d="M112,5h856c59.1,0,107,47.9,107,107v856c0,59.1-47.9,107-107,107l0,0H112c-59.1,0-107-47.9-107-107l0,0V112
	C5,52.9,52.9,5,112,5L112,5 M219,219v214h214v107H326v321h107V754h214v107h107V540H647V433h214V219H647v214H433V219L219,219z"/>
</svg>
