<?xml version="1.0" encoding="utf-8"?>
<!-- Generator: Adobe Illustrator 24.1.1, SVG Export Plug-In . SVG Version: 6.00 Build 0)  -->
<svg version="1.1" id="Capa_1" xmlns="http://www.w3.org/2000/svg" xmlns:xlink="http://www.w3.org/1999/xlink" x="0px" y="0px"
	 viewBox="0 0 1080 1080" style="enable-background:new 0 0 1080 1080;" xml:space="preserve">
<style type="text/css">
	.st0{fill-rule:evenodd;clip-rule:evenodd;fill:#43A047;}
</style>
<path class="st0" d="M540,5c-13.9,53.1-132.7,87-141,154.3l-13.4-40.3c-70,89.1-63.8,134.2-63.8,134.2L316,221
	c-51.1,85.3-40.3,127.1-34.4,139.9l2.5,4.4c0,0-1.1-1.4-2.5-4.4l-13.5-23.7c-53,146.6-6.7,191.6-6.7,191.6l-28.5-33.1
	C220.3,608,253,654.2,253,654.2l-20.6-19.3c-2.6,76.3,47.4,121.6,47.4,121.6l-33-22.6c63.5,277.1,189.4,284.5,205.7,284.3l-50.2,1.6
	c33.5,35.8,76.2,49.7,105.2,55.2c15.8-83.6,30.3-286,32.5-816.3c2.2,530.3,16.7,732.7,32.5,816.3c28.9-5.4,71.7-19.3,105.2-55.2
	l-50.2-1.6c16.3,0.2,142.2-7.3,205.7-284.3l-33,22.6c0,0,50-45.3,47.4-121.6L827,654.2c0,0,32.7-46.2,20.1-158.5l-28.5,33.1
	c0,0,46.3-45-6.7-191.6l-13.5,23.7c-1.4,3-2.5,4.4-2.5,4.4l2.5-4.4c5.9-12.8,16.7-54.6-34.4-139.9l-5.9,32.3
	c0,0,6.2-45.1-63.8-134.2L681,159.3C672.7,92,553.9,58.1,540,5L540,5z"/>
</svg>
