<?xml version="1.0" encoding="utf-8"?>
<!-- Generator: Adobe Illustrator 24.1.1, SVG Export Plug-In . SVG Version: 6.00 Build 0)  -->
<svg version="1.1" id="Capa_1" xmlns="http://www.w3.org/2000/svg" xmlns:xlink="http://www.w3.org/1999/xlink" x="0px" y="0px"
	 viewBox="0 0 1080 1080" style="enable-background:new 0 0 1080 1080;" xml:space="preserve">
<style type="text/css">
	.st0{fill:#FF5722;}
	.st1{fill:#FF1744;}
</style>
<g transform="matrix(.78524 0 0 .78524 11.024 15.241)">
	<g transform="matrix(1.0221 0 0 1.0221 -1.3771 -1.2585)">
		<path class="st0" d="M148.8,45.8h612.4c85.5,0,155,69.5,155,155s-69.5,155-155,155H148.8c-85.5,0-155-69.5-155-155
			S63.3,45.8,148.8,45.8z"/>
		<ellipse class="st0" cx="1160.9" cy="200.8" rx="158.2" ry="155"/>
		<path class="st0" d="M556,508.6h604.9c85.5-6.4,159.2,58.8,165.7,144.3c6.4,85.5-58.8,159.3-144.3,165.7h-15H556
			c-85.5,6.4-159.2-58.8-165.7-144.3c-6.4-85.5,58.8-159.3,144.3-165.7h15L556,508.6z"/>
		<path class="st1" d="M152,505.4c87.6,0,158.2,70.5,158.2,158.2S239.7,821.8,152,821.8C64.4,820.7-6.2,750.2-6.2,663.6
			C-6.2,576,64.4,505.4,152,505.4z"/>
		<path class="st0" d="M148.8,954.4h612.4c85.5,0,155,69.5,155,155s-69.5,155-155,155H148.8c-85.5,0-155-69.5-155-155
			S63.3,954.4,148.8,954.4z"/>
		<ellipse class="st0" cx="1160.9" cy="1109.3" rx="158.2" ry="155"/>
	</g>
</g>
</svg>
