<?xml version="1.0" encoding="utf-8"?>
<!-- Generator: Adobe Illustrator 24.1.1, SVG Export Plug-In . SVG Version: 6.00 Build 0)  -->
<svg version="1.1" id="Capa_1" xmlns="http://www.w3.org/2000/svg" xmlns:xlink="http://www.w3.org/1999/xlink" x="0px" y="0px"
	 viewBox="0 0 1080 1080" style="enable-background:new 0 0 1080 1080;" xml:space="preserve">
<style type="text/css">
	.st0{fill:#A1887F;}
</style>
<g id="XMLID_228_" transform="matrix(4.835 0 0 4.835 -354.75 -262.42)">
	<g id="XMLID_223_">
		<g id="XMLID_295_">
			<path class="st0" d="M252.1,140.9c0-3.2-2.6-6.4-6.4-6.4H124.5c-3.2,0-6.4,2.6-6.4,6.4c0,21.9,3.2,97.1,35.4,133.8
				c1.3,1.3,2.6,1.9,4.5,1.9h54.1c1.9,0,3.2-0.6,4.5-1.9C248.8,238.7,252.1,163.4,252.1,140.9L252.1,140.9z M204.4,258h-38
				c-1.9,0-3.2-0.6-4.5-1.9c-21.9-25.7-24.5-77.2-25.1-95.2c0-3.2,2.6-6.4,6.4-6.4h85.1c3.2,0,6.4,2.6,6.4,6.4
				c0,18-3.2,68.8-25.1,95.2C207.6,257.3,206.3,258,204.4,258L204.4,258z"/>
		</g>
	</g>
	<path id="XMLID_225_" class="st0" d="M197.3,121.6c0,0,23.2-13.5,9-38c-8.4-12.9-12.2-23.8-9-28.3c-8.4,10.3-22.6,21.2-7.1,44.4
		C195.4,105.5,197.9,117.7,197.3,121.6z"/>
	<path id="XMLID_224_" class="st0" d="M171.5,123.5c0,0,15.5-9,5.8-25.7c-5.8-8.4-8.4-16.1-5.8-18.7c-5.8,7.1-14.8,14.2-4.5,30.2
		C170.2,112.6,171.5,120.9,171.5,123.5L171.5,123.5z"/>
	<path id="XMLID_227_" class="st0" d="M224.4,198.1c-2.6,17.4-7.7,37.3-18.7,50.2c-1.3,1.3-2.6,1.9-3.9,1.9h-32.2
		c-1.3,0-3.2-0.6-3.9-1.9c-7.7-9.6-12.9-22.5-16.1-36c0,0,37.4,5.1,58.6-2.6C223.7,203.9,224.4,198.1,224.4,198.1z"/>
</g>
</svg>
