<?xml version="1.0" encoding="utf-8"?>
<!-- Generator: Adobe Illustrator 24.1.1, SVG Export Plug-In . SVG Version: 6.00 Build 0)  -->
<svg version="1.1" id="Capa_1" xmlns="http://www.w3.org/2000/svg" xmlns:xlink="http://www.w3.org/1999/xlink" x="0px" y="0px"
	 viewBox="0 0 1080 1080" style="enable-background:new 0 0 1080 1080;" xml:space="preserve">
<style type="text/css">
	.st0{fill:#FBC02D;}
</style>
<path class="st0" d="M851.7,162.3l-128.9,98.8l46.3,155.8l-133.9-92.1l-133.9,92.1l46.3-155.8l-128.9-98.8l162.5-4.6L635.3,5
	l54,152.7L851.7,162.3 M1030,514.1l-83.5,63.6l30,100.8L889.9,619l-86.6,59.6l30-100.8l-83.5-63.6l104.9-2.5l35.1-99.3l35.1,99.3
	L1030,514.1 M913.9,766.1c42.3-4.1,87.6,56,60.6,94.2c-16.3,22.9-33.6,44.3-55,64.7C720.4,1125,398,1125,199.3,924.9
	C0.2,726.4,0.2,403.6,199.3,205.1c20.4-20.4,41.8-38.7,64.7-55c38.2-27,98.3,18.3,94.2,60.6C344.5,356.3,393.4,507.5,505.4,619
	C617,731,767.7,779.8,913.9,766.1 M830.4,868.9c-144.1-8.1-286.7-67.7-397.2-176.7C322.6,580.8,263.5,437.7,255.4,294.2
	c-143.1,159.9-137.5,405.2,15.8,559C425,1006.4,670.4,1012,830.4,868.9z"/>
</svg>
