<?xml version="1.0" encoding="utf-8"?>
<!-- Generator: Adobe Illustrator 24.1.1, SVG Export Plug-In . SVG Version: 6.00 Build 0)  -->
<svg version="1.1" id="Capa_1" xmlns="http://www.w3.org/2000/svg" xmlns:xlink="http://www.w3.org/1999/xlink" x="0px" y="0px"
	 viewBox="0 0 1080 1080" style="enable-background:new 0 0 1080 1080;" xml:space="preserve">
<style type="text/css">
	.st0{fill:#FFA726;}
</style>
<g>
	<path class="st0" d="M737.5,318.5c-54.5,0-98.8-42.2-98.8-94V5h-428C156.3,5,112,47.2,112,99v882c0,51.8,44.3,94,98.8,94h658.5
		c54.5,0,98.8-42.2,98.8-94V318.5H737.5z M498.5,838.8c11.4,11.4,17.1,25.3,17.1,41.6c0,16.3-5.7,29.6-17.1,39.8
		c-11.4,10.2-24.9,15.3-40.4,15.3c-15.5,0-28.6-5.3-39.1-15.9L263.7,764.1c-13.1-13-19.6-27.3-19.6-42.8c0-14.7,6.5-28.5,19.6-41.6
		L419,524.4c10.6-10.6,24-15.9,40.4-15.9c13.9,0,26.7,4.7,38.5,14.1c11.8,9.4,17.7,23.1,17.7,41c0,16.3-5.7,30.2-17.1,41.6
		L382.3,721.3L498.5,838.8z M816.6,764.1L661.2,919.5c-10.6,10.6-23.7,15.9-39.1,15.9c-15.5,0-29-5.1-40.4-15.3
		c-11.4-10.2-17.1-23.4-17.1-39.8c0-16.3,5.7-30.2,17.1-41.6l116.2-117.4L581.7,605.1c-11.4-11.4-17.1-25.3-17.1-41.6
		c0-17.9,5.9-31.6,17.7-41c11.8-9.4,24.7-14.1,38.5-14.1c16.3,0,29.8,5.3,40.4,15.9l155.4,155.4c13,13.1,19.6,26.9,19.6,41.6
		C836.2,736.8,829.6,751.1,816.6,764.1z"/>
	<path class="st0" d="M730.4,258.7h211.2L697.5,26.3v201.1C697.5,244.6,712.2,258.7,730.4,258.7z"/>
</g>
</svg>
