<?xml version="1.0" encoding="utf-8"?>
<!-- Generator: Adobe Illustrator 26.0.0, SVG Export Plug-In . SVG Version: 6.00 Build 0)  -->
<svg version="1.1" id="Capa_1" xmlns="http://www.w3.org/2000/svg" xmlns:xlink="http://www.w3.org/1999/xlink" x="0px" y="0px"
	 viewBox="0 0 1080 1080" style="enable-background:new 0 0 1080 1080;" xml:space="preserve">
<style type="text/css">
	.st0{fill:#0097A7;}
</style>
<g>
	<path class="st0" d="M241.9,394.8c-30.6-3.8-49.7,11.5-53.5,38.2c-3.8,34.4,11.5,49.7,42,53.5c30.6,3.8,45.9-11.5,53.5-38.2
		C287.8,421.5,272.5,398.6,241.9,394.8z"/>
	<path class="st0" d="M540,5c-53.5,0-107,7.6-156.7,22.9c7.6,26.8,19.1,49.7,34.4,72.6c34.4,57.3,87.9,84.1,152.9,87.9
		c30.6,3.8,61.1,3.8,91.7,3.8c80.2,0,145.2,91.7,110.8,175.8c-19.1,45.9-42,72.6-91.7,80.3c-61.1,7.6-107-11.5-137.6-65
		c-3.8-11.5-11.5-22.9-15.3-34.4c-7.6-22.9-15.3-49.7-26.8-72.6C471.2,188.4,371.9,138.7,284,157.9c-30.6,3.8-68.8-3.8-95.5-19.1
		C73.8,238.1,5,379.5,5,540c0,294.2,240.8,535,535,535s535-240.8,535-535S834.2,5,540,5z M761.6,819c-19.1,45.9-42,72.6-91.7,80.2
		c-61.1,7.6-107-11.5-137.6-65c-3.8-11.5-11.5-22.9-15.3-34.4c-7.6-22.9-15.3-49.7-26.8-72.6C455.9,635.5,356.6,589.7,268.7,605
		c-49.7,7.6-122.3-19.1-145.2-61.1c-30.6-49.7-26.8-118.5,3.8-156.7c19.1-22.9,49.7-38.2,80.2-45.9c11.5,0,22.9,0,34.4,0
		c57.3,7.6,91.7,34.4,110.8,91.7c11.5,42,26.8,80.3,49.7,118.5c34.4,57.3,87.9,84.1,152.9,87.9c30.6,3.8,61.1,3.8,91.7,3.8
		C727.2,643.2,792.2,738.7,761.6,819z"/>
	<path class="st0" d="M631.7,761.6c-22.9,3.8-30.6,22.9-30.6,42c0,19.1,15.3,38.2,26.8,49.7c19.1,11.5,42,11.5,57.3-11.5
		c3.8-3.8,15.3-38.2,7.6-49.7C685.2,773.1,639.4,761.6,631.7,761.6z"/>
	<path class="st0" d="M696.7,391c3.8-3.8,15.3-38.2,7.6-49.7c-7.6-15.3-53.5-26.7-61.1-26.7c-22.9,3.8-30.6,22.9-30.6,42
		s15.3,38.2,26.8,49.7C658.5,417.7,685.2,417.7,696.7,391z"/>
</g>
</svg>
