<?xml version="1.0" encoding="utf-8"?>
<!-- Generator: Adobe Illustrator 24.1.1, SVG Export Plug-In . SVG Version: 6.00 Build 0)  -->
<svg version="1.1" id="Capa_1" xmlns="http://www.w3.org/2000/svg" xmlns:xlink="http://www.w3.org/1999/xlink" x="0px" y="0px"
	 viewBox="0 0 1080 1080" style="enable-background:new 0 0 1080 1080;" xml:space="preserve">
<style type="text/css">
	.st0{fill:#AFB42B;}
</style>
<g transform="matrix(.85352 0 0 .85352 .31162 -146.38)">
	<path class="st0" d="M743.8,178.5c-8.9,0-17.4,2.1-25.1,4.7c16.6,11.1,25.5,25.5,30.2,42.1c0.4,2.1,0.9,3.8,1.3,6s0.9,3.8,0.9,6
		c1.3,28.5-7.7,31.9-13.6,48.9c-9.4,21.7-6.8,45.1,4.7,63.8c0.9,2.1,2.1,4.7,3.8,7.2c-12.3-82.1,56.1-94.4,68.9-119.9
		c0.9-22.5-17.4-37.4-31.9-47.6C768,181.1,755.2,178.5,743.8,178.5L743.8,178.5z M846.6,196.8c-1.3,7.7-0.4,5.5-0.9,9.4
		c-0.4,2.6-0.4,6-0.9,8.5c-0.9,2.6-1.3,5.1-2.1,7.7l-2.6,7.7c-1.3,2.6-2.1,4.7-3.4,7.7l-2.6,3.8c-0.8,0.9-1.3,2.1-2.1,3
		c-1.7,2.1-3.4,4.7-4.7,6.4c-2.1,2.1-3.4,4.3-6,6v0.4c-2.1,1.7-3.8,3.4-6,5.1c-6.8,5.1-14.5,8.9-21.7,14c-2.1,1.7-4.7,3-6.4,4.7
		c-2.1,1.7-4.3,3.4-6,5.1l-6,6c-1.7,2.1-3.4,4.3-4.7,6.4c-1.7,2.1-3.4,4.7-4.7,6.8c-1.3,2.6-2.1,4.7-3.4,7.7
		c-0.9,2.6-2.1,4.7-2.6,7.7c-0.9,3-1.7,5.5-2.1,8.1c-0.4,1.3-0.4,3-0.9,4.3s-0.4,2.6-0.9,3.8c0,2.6-0.4,5.5-0.4,8.1
		c0,2.1,0,3.8,0.4,6c0,2.6,0.4,5.1,0.9,8.1c0.4,2.6,0.9,5.1,1.7,7.7l2.6,7.7c0.9,1.7,1.7,3.4,2.1,4.7l-74.4-28.9
		c-12.8-3.4-25.1-6.8-37.4-9.8c-6.8-1.7-13.6-3.4-20.4-4.7c-19.6-3.8-39.1-6.8-59.1-8.9c-0.9,0-0.9-0.4-1.7-0.4
		c-19.6-2.1-38.7-3-57.8-3c-14.5,0-28.5,0.9-42.5,1.7c-19.6,1.3-39.5,3.8-59.1,7.2c-4.7,0.9-9.8,1.7-14.5,2.6
		c-10.2,2.1-19.6,4.3-29.3,6.4c-4.7,1.3-9.8,2.6-14.5,3.8c-4.7,2.1-9.4,4.3-14,6c-3.4,1.7-7.2,3.4-10.6,4.7
		c-0.9,0.4-1.3,0.4-1.7,0.9c-3.4,1.7-6,3-8.9,4.7c-0.9,0.4-1.7,0.9-2.1,0.9c-3.4,1.7-7.2,3.4-10.2,5.1c-2.1,0.9-4.7,2.1-6.4,3.4
		c-0.9,0.9-2.1,1.3-3,1.7c-3,1.7-6,3.4-8.5,4.7c-3,1.7-5.5,3.4-7.7,4.7c-2.1,1.7-4.7,3-6.4,4.7c-0.4,0.4-0.9,0.4-0.9,0.9
		c-2.1,1.3-4.3,3-6,4.7l-0.9,0.9c-1.7,1.3-3.4,2.6-4.7,3.8c-0.9,0.4-1.3,0.9-2.1,1.3c-1.7,1.3-3.4,3-4.7,4.3
		c-0.4,0.9-0.9,0.9-1.3,1.3c-2.1,2.1-3.8,3.4-6,5.5c-0.4,0-0.4,0.4-0.9,0.9c-2.1,1.7-3.8,3.4-6,5.5c-0.4,0.4-0.4,0.9-0.9,0.9
		c-1.7,1.7-3.4,3.4-4.7,5.1c-0.9,0.9-1.7,1.3-2.1,2.1c-1.7,2.1-3.4,3.8-5.5,6c-0.4,0.9-0.9,0.9-1.3,1.7c-2.6,2.6-4.7,5.1-7.7,7.7
		l-0.9,0.9c-5.1,5.5-10.6,11.1-16.6,15.7c-6,5.1-11.9,10.2-18.3,14.5c-6.4,4.7-12.8,8.5-19.6,12.3c-6.4,3.4-13.2,6.8-20.4,9.8
		c-6.8,3-14,5.5-21.3,7.7c-13.6,3-27.6,8.5-39.5,9.4c-2.6,0-5.5,0.9-8.1,0.9c-3,0.9-5.5,1.3-8.1,2.1c-2.6,0.9-5.1,2.1-7.7,3
		c-2.6,0.9-5.1,2.1-7.7,3.4c-2.1,1.7-4.7,3-7.2,4.7c-2.1,1.7-4.7,3.4-6.4,5.5c-2.1,1.7-4.7,3.8-6.4,6c-2.1,2.1-3.8,4.3-5.5,6.4
		c-1.7,2.6-3.4,4.7-4.7,7.7c-1.7,2.1-3.4,4.7-4.7,7.7c-1.3,3-2.6,5.5-3.4,8.5c-0.9,2.6-2.1,5.5-3,8.5c-0.9,2.6-1.3,5.1-1.7,7.7
		c0,0.4-0.4,0.9-0.4,0.9c-0.9,3-0.9,6.8-0.9,8.9c-0.4,2.1-0.9,4.3-0.9,6.4c0,1.3,0,3,0.4,4.3c0.4,2.1,0.9,4.3,1.3,6
		c0.9,2.1,1.3,3.8,2.1,6v0.4c0.9,2.1,2.1,3.8,3.4,6s2.6,3.8,4.3,6c1.7,1.7,3.4,3.4,5.5,5.1c2.1,2.1,3.8,3.4,6,5.1
		c7.7,6.8,9.8,8.9,19.6,14.5l5.1,2.6c0.4,0,0.9,0.4,0.9,0.4c0,0.9,0,0.9,0.4,1.7c0.4,2.6,0.9,5.1,1.7,7.7c0.9,3,1.7,5.5,2.6,7.7
		c0.9,2.1,1.7,3.8,2.6,6c0.4,0.9,0.9,1.3,0.9,1.7c1.3,2.6,2.6,4.7,3.8,7.2c1.7,2.1,3.4,4.7,4.7,6.8c1.7,2.1,3.4,4.3,5.5,6
		c2.1,2.1,3.8,3.4,6,5.5c0,0,0.4,0.4,0.9,0.4c2.1,1.7,3.8,3.4,6,4.7c2.1,1.7,4.7,3,7.2,4.3c2.1,1.3,4.7,2.6,7.7,3.4
		c2.1,0.9,4.3,1.7,6.4,2.1c0.4,0.4,0.9,0.4,1.3,0.9c1.3,0.4,3,0.9,4.3,0.9c-0.9,17.4-1.3,34,1.3,40c3,6.4,17-13.2,31.5-36.1
		c-2.1,22.5-3.4,48.5,0,56.5c3.4,8.1,23-17,40-45.1c229.5-53.1,439,105.4,461.1,329.9c-4.3-34.9-47.2-54.4-67.2-49.7
		c-9.8,23.8-26.4,54.8-52.7,74c2.1-21.3,1.3-43.4-3.4-64.6c-7.2,29.8-21.3,57.8-40,81.6c-30.6,2.1-61.6-12.8-77.8-34.9
		c-1.3-0.9-1.7-3-2.6-4.3c-0.9-2.1-2.1-4.7-2.6-6.8c-0.9-2.1-1.7-4.7-2.1-6.8s-0.4-4.7-0.4-7.2v-4.7c0.4-2.1,0.9-4.7,1.7-6.8
		c0.9-2.1,1.3-4.7,2.1-6.8c1.3-2.1,2.1-4.7,3.8-6.8c5.5-15.7,5.5-28.1-4.7-35.7c-2.1-1.3-3.8-2.1-6-3.4c-1.3-0.4-3-0.9-4.3-1.3
		c-0.9-0.4-1.7-0.9-2.6-0.9c-2.1-0.9-4.7-1.3-6.8-1.7c-2.1-0.9-4.7-0.9-6.8-0.9c-2.1-0.4-4.7-0.9-7.2-0.9c-1.7,0-3.4,0.4-4.7,0.4
		c-2.6,0-4.7,0.4-7.2,0.9c-2.1,0.4-4.7,0.9-6.8,1.3c-2.1,0.9-4.7,1.3-6.8,2.1c-2.1,0.9-4.3,2.1-6.4,3c-2.1,0.9-3.8,2.1-6,3.4
		c-75.7,49.3-30.6,164.5,21.3,197.7c-19.6,3.4-39.1,7.7-44.6,11.9l-0.9,0.9c14,8.5,28.5,15.7,43.8,21.7
		c20.8,6.8,42.9,12.8,52.3,15.7v0.4c26.8,5.5,54,7.7,81.6,6c143.2-10.2,261-119,282.2-263.2c0.8,3,1.3,5.5,2.1,8.5
		c0.9,6,2.1,11.9,3,18.3v0.4c0.9,3,0.9,6,1.3,8.5v1.3c0.4,3,0.9,6,0.9,8.5c0.4,3.4,0.9,7.2,0.9,10.6v5.1c0,1.7,0.4,3.4,0.4,5.1
		c0,2.1-0.4,3.8-0.4,6v4.7c0,2.1-0.4,4.3-0.4,6.4c0,1.3,0,2.6-0.4,4.3c0,2.1-0.4,4.7-0.4,7.2c-0.4,0.9-0.4,2.1-0.4,3
		c-0.4,2.6-0.9,4.7-0.9,7.7c0,0.9,0,2.1-0.4,3c-0.4,3.4-0.9,6-1.3,9.4v0.9c-0.9,3-1.3,6-2.1,8.9v0.9c-0.9,3-1.3,6-2.1,8.9
		c0,0.4-0.4,0.9-0.4,1.3c-0.9,3-1.3,6-2.1,8.9v0.9c-0.9,3.4-2.1,6-2.6,8.9c-0.4,0.4-0.4,0.9-0.4,0.9c-0.9,3.4-2.1,6.4-3,9.8
		c-1.3,3.4-2.1,6-3.4,9.4c-1.3,3.4-2.1,6.4-3.4,9.4c-1.3,3.4-2.6,6-3.8,9.4H748c-1.3,3-2.6,6-4.3,8.9c-0.4,0.9-0.9,1.7-0.9,2.1
		c-0.4,0.4-0.4,0.9-0.9,0.9c-21.3,42.5-52.3,79.5-91,108.8c-2.6,1.7-5.1,3.4-7.7,5.5c-0.9,0.9-1.7,0.9-2.1,1.7
		c-2.1,1.7-4.7,3.4-7.2,4.7l0.8,2.1h0.4c4.7-0.9,8.9-1.3,13.6-2.1h0.4c8.5-1.3,17-3,25.1-4.7c2.1-0.4,4.7-0.9,7.2-1.7
		c1.7-0.4,3-0.9,4.7-0.9c2.1-0.4,4.7-0.9,6.8-1.3c2.1-0.9,3.8-0.9,6-1.7c32.3-7.7,63.8-18.3,93.9-31
		c-51.4,70.2-120.3,127.1-201,164.1c37.4-2.6,74.4-8.9,110.5-19.1c130.5-38.7,240.1-126.3,306-244.5
		c-13.2,74.8-42.9,146.3-87.1,208.3c31.5-20.8,60.4-44.6,86.3-71.9c72.7-75.7,120.3-172.2,136.4-275.5c11.1,51,14.5,104.2,9.4,156
		c233.8-326.1,19.6-664.5-70.1-753.4c-0.4-0.9-0.9-0.9-0.9-1.7c-0.4,0.4-0.4,0.4-0.4,0.9c0-0.4,0-0.4-0.4-0.9
		c0,3.8-0.4,7.7-0.9,11.5c-0.9,7.7-2.1,14.5-3.4,21.7c-1.7,7.2-3.4,14.5-5.5,21.3s-4.7,14-7.7,20.8c-3,6.4-6,13.2-9.8,19.6
		c-3.4,6-7.7,12.8-11.5,18.3c-4.3,6-8.9,11.9-13.2,17.4c-4.7,6-10.2,11.1-15.3,16.2c-3.4,3-6,5.5-9.4,8.1c-2.6,2.1-4.7,4.3-7.7,6.4
		c-6,4.7-11.5,8.9-18.3,12.8c-6,3.8-12.8,7.7-19.1,11.1c-6.8,3.4-13.6,6-20.4,8.9c-6.8,2.6-14,4.7-21.3,6.8s-14.5,3.4-21.7,4.7
		c-7.7,1.3-14.9,2.1-22.1,2.6c-5.1,0.4-10.2,0.9-15.7,0.9c-7.7,0-14.9-0.9-22.1-1.3c-7.7-0.9-14.9-1.7-22.1-3.4
		c-7.7-1.3-14.5-3.4-21.7-5.5h-0.4c7.2-0.9,14.5-1.3,21.3-2.6c7.7-1.3,14.5-3,21.7-4.7c7.2-2.1,14.5-4.3,21.3-6.8
		c7.2-2.6,14-6,20.4-8.9c6.8-3.4,12.8-6.8,19.6-10.6c6-4.3,12.3-8.5,18.3-12.8c6-4.7,11.5-9.4,16.6-14.5
		c5.5-4.7,10.2-10.2,15.3-15.7c4.7-6,9.4-11.5,13.6-17.4c0.9-0.9,1.3-2.1,2.1-3.4c3.4-5.1,6.4-10.2,9.4-15.7
		c3.4-6.4,6.8-12.8,9.8-19.6s5.5-13.6,7.7-20.8c2.1-6.8,3.8-14,5.5-21.3c1.3-7.7,2.6-14.5,3.4-21.7c0.9-7.7,1.3-14.9,1.3-22.1
		c0-5.1-0.4-10.2-0.9-15.7c-0.9-7.7-1.7-14.5-2.6-21.7c-1.3-7.7-3-14.5-4.7-21.7c-2.1-6.8-4.7-14-7.2-20.8c-2.6-6.8-6-13.6-8.9-20
		c-3.4-6.4-7.2-12.8-11.1-19.1l-12.8-17.9c-4.7-5.5-9.8-11.1-14.9-16.6c-2.6-2.6-5.5-5.5-8.5-8.1c-14.5-11.5-29.8-22.1-45.1-31.9
		c-2.1-1.3-4.3-2.1-6.4-3.4C866.6,203.6,856.8,200.2,846.6,196.8L846.6,196.8z"/>
</g>
</svg>
