<?xml version="1.0" encoding="utf-8"?>
<!-- Generator: Adobe Illustrator 24.1.1, SVG Export Plug-In . SVG Version: 6.00 Build 0)  -->
<svg version="1.1" id="Capa_1" xmlns="http://www.w3.org/2000/svg" xmlns:xlink="http://www.w3.org/1999/xlink" x="0px" y="0px"
	 viewBox="0 0 1080 1080" style="enable-background:new 0 0 1080 1080;" xml:space="preserve">
<style type="text/css">
	.st0{fill:#00BFA5;}
</style>
<path class="st0" d="M780.5,376.3l-0.4-0.2c-0.2-0.1-0.4-0.2-0.6-0.4c-0.6-0.7-0.9-1.7-0.8-2.6l21.6-131.9l101.3,101.2l-105.3,44.8
	c-0.3,0.1-0.6,0.2-0.9,0.2h-0.4c-0.1-0.1-0.3-0.2-0.6-0.5C790.4,382.6,785.7,379,780.5,376.3L780.5,376.3z M927.4,368.3l108.3,108.2
	c22.5,22.5,33.7,33.7,37.9,46.7c0.6,1.9,1.1,3.9,1.5,5.8L816.2,419.5c-0.1-0.1-0.3-0.1-0.4-0.2c-1-0.4-2.2-0.9-2.2-2
	c0-1.1,1.2-1.6,2.3-2l0.3-0.1L927.4,368.3z M1070.6,563.7c-5.6,10.5-16.5,21.4-34.9,39.8L913.6,725.4l-157.9-32.8l-0.8-0.2
	c-1.4-0.2-2.9-0.5-2.9-1.7c-1.2-13.2-7.8-25.2-18.3-33.3c-0.6-0.6-0.5-1.6-0.3-2.6c0-0.1,0-0.3,0.1-0.4l29.7-182.1l0.1-0.6
	c0.2-1.4,0.4-3,1.7-3c12.9-1.6,24.5-8.3,32.4-18.6c0.3-0.3,0.4-0.6,0.8-0.8c0.9-0.4,2,0,2.9,0.4L1070.6,563.7L1070.6,563.7z
	 M885.5,753.5L684.8,954l34.4-211l0.1-0.3c0-0.3,0.1-0.6,0.2-0.8c0.3-0.7,1-0.9,1.7-1.2l0.3-0.1c7.5-3.2,14.2-8.2,19.4-14.4
	c0.7-0.8,1.5-1.5,2.5-1.7c0.3,0,0.5,0,0.8,0L885.5,753.5L885.5,753.5z M642.3,996.5l-22.6,22.6L369.5,657.9
	c-0.1-0.1-0.2-0.3-0.3-0.4c-0.4-0.5-0.8-1.1-0.7-1.7c0-0.4,0.3-0.8,0.6-1.2l0.3-0.4c0.8-1.1,1.4-2.2,2.1-3.4l0.6-1l0.1-0.1
	c0.4-0.7,0.8-1.3,1.4-1.7c0.6-0.3,1.4-0.2,2,0l277.2,57.1c0.8,0.1,1.5,0.4,2.1,0.9c0.4,0.4,0.4,0.8,0.5,1.2
	c3.9,14.8,14.5,26.9,28.7,32.8c0.8,0.4,0.4,1.3,0.1,2.2c-0.2,0.4-0.3,0.8-0.4,1.3C680.3,764.8,650.3,947.2,642.3,996.5L642.3,996.5z
	 M595,1043.7c-16.7,16.5-26.5,25.2-37.6,28.7c-11,3.5-22.7,3.5-33.7,0c-13-4.1-24.3-15.3-46.8-37.8l-251.2-251l65.6-101.7
	c0.3-0.5,0.6-0.9,1.1-1.3c0.7-0.5,1.7-0.3,2.5,0c15.1,4.5,31.2,3.7,45.8-2.3c0.8-0.3,1.5-0.5,2.1,0.1c0.3,0.3,0.6,0.6,0.8,0.9
	L595,1043.7L595,1043.7z M201.4,759.4l-57.6-57.6l113.8-48.5c0.3-0.1,0.6-0.2,0.9-0.2c0.9,0,1.5,0.9,2,1.8c1.1,1.8,2.4,3.5,3.6,5.1
	l0.4,0.4c0.3,0.5,0.1,0.9-0.2,1.4L201.4,759.4L201.4,759.4z M118.3,676.4l-72.9-72.8C33,591.1,24,582.2,17.7,574.4l221.7,45.9
	c0.3,0.1,0.6,0.1,0.8,0.1c1.4,0.2,2.9,0.5,2.9,1.8c0,1.4-1.6,2-3,2.6l-0.6,0.3L118.3,676.4z M5,537c0.3-4.7,1.1-9.3,2.5-13.8
	c4.1-13,15.4-24.2,37.9-46.7l93.3-93.2c43,62.3,86,124.5,129.2,186.6c0.8,1,1.6,2.1,0.7,3c-4.1,4.5-8.2,9.4-11,14.7
	c-0.3,0.7-0.8,1.3-1.4,1.7c-0.4,0.2-0.8,0.1-1.2,0.1H255L5,537L5,537z M163.7,358.3L289.1,233c11.8,5.2,54.7,23.3,93.1,39.5
	c29.1,12.3,55.5,23.4,63.9,27.1c0.8,0.3,1.6,0.7,2,1.5c0.2,0.5,0.1,1.1,0,1.7c-4,18.4,1.5,37.5,14.6,51c0.8,0.8,0,2-0.7,3.1
	l-0.4,0.6L334.1,554.4c-0.3,0.6-0.6,1-1.2,1.4c-0.7,0.4-1.6,0.2-2.4,0c-5-1.3-10-2-15.2-2.1c-4.6,0-9.6,0.8-14.6,1.8h0
	c-0.6,0.1-1.1,0.2-1.5-0.1c-0.5-0.4-0.9-0.9-1.3-1.4L163.7,358.3z M314.5,207.7L476.9,45.4c22.5-22.5,33.7-33.7,46.8-37.8
	c11-3.5,22.7-3.5,33.7,0c13,4.1,24.3,15.3,46.8,37.8l35.2,35.2L523.8,259.3c-0.3,0.5-0.7,1-1.1,1.3c-0.7,0.5-1.7,0.3-2.5,0
	c-18.5-5.6-38.6-1.7-53.6,10.3c-0.8,0.8-1.9,0.3-2.8-0.1C448.6,264.3,331.3,214.8,314.5,207.7L314.5,207.7z M663.9,105.1
	l106.7,106.5l-25.7,159v0.4c0,0.4-0.1,0.7-0.2,1.1c-0.3,0.6-0.8,0.7-1.4,0.8c-5.5,1.7-10.7,4.2-15.3,7.6c-0.2,0.1-0.4,0.3-0.6,0.5
	c-0.3,0.3-0.6,0.6-1.1,0.7c-0.4,0-0.8-0.1-1.2-0.2l-162.5-69l-0.3-0.1c-1-0.4-2.3-0.9-2.3-2c-1-9-3.9-17.8-8.7-25.5
	c-0.8-1.3-1.6-2.6-1-3.9L663.9,105.1z M554,345.2l152.4,64.5c0.8,0.4,1.8,0.8,2.1,1.6c0.1,0.5,0.1,1.1,0,1.6
	c-0.4,2.2-0.8,4.8-0.8,7.3v4.3c0,1.1-1.1,1.5-2.1,1.9l-0.3,0.1c-24.1,10.3-338.9,144.4-339.4,144.4c-0.5,0-1,0-1.5-0.5
	c-0.8-0.8,0-2,0.8-3.1c0.1-0.2,0.3-0.4,0.4-0.6l125.2-193.7l0.2-0.3c0.7-1.2,1.6-2.5,2.9-2.5l1.3,0.2c2.8,0.4,5.4,0.8,7.9,0.8
	c19,0,36.6-9.2,47.2-25c0.3-0.4,0.6-0.8,0.9-1.1C552,344.6,553.1,344.8,554,345.2L554,345.2z M379.5,601.6l343.1-146.1
	c0,0,0.5,0,1,0.5c1.9,1.9,3.5,3.1,5,4.3l0.8,0.5c0.7,0.4,1.4,0.8,1.5,1.6c0,0.3,0,0.4-0.1,0.7l-29.4,180.3l-0.1,0.7
	c-0.2,1.4-0.4,3-1.7,3c-15.9,1.1-30.3,9.9-38.4,23.6l-0.1,0.2c-0.4,0.6-0.8,1.3-1.4,1.6c-0.6,0.3-1.3,0.2-2,0l-273.6-56.4
	C383.8,616,379.8,601.6,379.5,601.6L379.5,601.6z"/>
</svg>
