<?xml version="1.0" encoding="utf-8"?>
<!-- Generator: Adobe Illustrator 24.1.1, SVG Export Plug-In . SVG Version: 6.00 Build 0)  -->
<svg version="1.1" id="Capa_1" xmlns="http://www.w3.org/2000/svg" xmlns:xlink="http://www.w3.org/1999/xlink" x="0px" y="0px"
	 viewBox="0 0 1080 1080" style="enable-background:new 0 0 1080 1080;" xml:space="preserve">
<style type="text/css">
	.st0{fill-rule:evenodd;clip-rule:evenodd;fill:#43A047;}
</style>
<path class="st0" d="M529.9,7.7c6.2-3.6,13.9-3.6,20.1,0c61.6,35.3,387,222,448.8,257.4c6.3,3.6,10.2,10.3,10.2,17.5v514.8
	c0,7.2-3.9,13.9-10.2,17.4c-61.8,35.4-387.2,222.1-448.8,257.5c-6.2,3.6-13.9,3.6-20.1,0c-61.6-35.3-387-222-448.8-257.5
	c-6.3-3.6-10.2-10.2-10.2-17.4V282.6c0-7.2,3.9-13.9,10.2-17.5C142.9,229.7,468.3,43,529.9,7.7z M387.2,448.2l279.4,334
	c0,0,32.8,28.8,79.7,25.9c56.6-3.5,62.2-50.9,62.2-50.9l0.1-438.3c0,0,0-0.2-0.1-0.4c-6.1-29.4-32-50.6-62.1-50.7
	c-30.1-0.1-56.1,21-62.2,50.4c-0.1,0.5-0.2,0.7-0.2,0.7l0.3,307.9L397.5,289.7c0,0-22.9-25.8-76.6-20c-52.7,5.8-58.4,50.9-58.4,50.9
	l0.5,434.9c0,0,0.1,0.3,0.1,0.7c4.9,30.5,31.3,52.8,62.1,52.8c30.9-0.1,57.1-22.5,62-52.9c0.1-0.4,0.1-0.5,0.1-0.5L387.2,448.2z"/>
</svg>
