<?xml version="1.0" encoding="utf-8"?>
<!-- Generator: Adobe Illustrator 24.1.1, SVG Export Plug-In . SVG Version: 6.00 Build 0)  -->
<svg version="1.1" id="Capa_1" xmlns="http://www.w3.org/2000/svg" xmlns:xlink="http://www.w3.org/1999/xlink" x="0px" y="0px"
	 viewBox="0 0 1080 1080" style="enable-background:new 0 0 1080 1080;" xml:space="preserve">
<style type="text/css">
	.st0{fill:#E53935;}
</style>
<path class="st0" d="M540,5L42.5,182.4l75.4,658.9L540,1075l422.1-233.7l75.4-658.9L540,5z M436.6,172.2c18.9-0.3,39.4,5.7,62.2,18
	c10,5.4,40.3,13.1,67.2,17c95.6,13.9,209.1,86.9,245,157.8c24.7,48.8,19.6,75-18.2,94.6c-32.7,16.9-99.5,8.7-196.5-24.1l-81.9-27.7
	l-29.1,11.1c-42.2,16.1-84.4,56.2-101.7,96.3c-12.5,29-14.4,42.6-12.1,90.3c2.3,47.8,5.7,61.6,22.7,91.6
	c19.3,34.1,63.5,77.7,71.2,70.1c2.1-2.1-2.5-15.9-10.1-30.7c-7.6-14.8-12-29.8-9.9-33.2c2.1-3.4,22,9.3,44.3,28.1
	c49.5,41.9,107.3,68.6,160.3,74.2c43.5,4.6,53.5-3.6,20.9-17.1c-10.5-4.4-24.2-13.5-30.3-20.2c-12.7-14-13.4-13.6,40.8-25.8
	c33.7-7.6,100.4-43,104.3-55.4c1.3-4-9.6-5.7-27.3-4.2c-16.2,1.3-29.3-0.4-29.3-3.7c0-3.3,13.2-19.7,29.3-36.6
	c60.5-63.2,81.2-110.4,87.6-200.2l4.4-62l14.2,29.5c15.7,32.5,18.6,79.4,7.4,119.7c-9.3,33.6-3.1,37.3,14,8.4
	c21.1-35.8,27.9-30.1,24.1,20.3c-4,54.9-22.9,96-65.4,142.5c-34.7,37.9-30.5,44.7,11.4,18.9c40.4-24.9,45.8-21,25,18.1
	c-39.4,74-122.6,136.7-209,157.7c-52.4,12.7-89.5,15.1-137.5,8.8c-125.4-16.5-244.1-101-300.7-214.2c-14.7-29.4-35.5-65.4-46.3-80
	c-22.2-30.2-24.1-43.8-9.1-66.7c7.5-11.4,9.2-23.1,6.1-40.6c-14.3-80.8-13.8-83.3,18.6-116.3c28.2-28.6,30-32.4,30-65.8
	c0-28.9,2.9-38.4,16-51.5c8.8-8.8,22.8-16.1,31-16.2c23.9-0.2,65.3-22.4,89.7-48.1C390.6,183.5,412.3,172.6,436.6,172.2L436.6,172.2
	z"/>
</svg>
