<?xml version="1.0" encoding="utf-8"?>
<!-- Generator: Adobe Illustrator 24.1.1, SVG Export Plug-In . SVG Version: 6.00 Build 0)  -->
<svg version="1.1" id="Capa_1" xmlns="http://www.w3.org/2000/svg" xmlns:xlink="http://www.w3.org/1999/xlink" x="0px" y="0px"
	 viewBox="0 0 1080 1080" style="enable-background:new 0 0 1080 1080;" xml:space="preserve">
<style type="text/css">
	.st0{fill:#5075C1;}
	.st1{fill:#7DB7E1;}
</style>
<g transform="translate(-2.2428 35.799)">
	<path class="st0" d="M274.7,966.5c0-0.7-6.3-12.1-14-25.4c-7.7-13.3-14-24.7-14-25.4c0-0.6,21.8-38.7,48.5-84.7
		c26.7-45.9,48.9-84.4,49.4-85.5c0.8-1.7-3.7-10-34.2-63c-19.3-33.6-35.1-61.4-35.1-62c0-1.1,56.1-99.8,57.8-101.7
		c0.9-1,1.4-0.9,2.5,0.9c0.7,1.2,38.7,67.1,84.4,146.5C563.6,916,591.6,964.5,592.9,965.5c0.7,0.6,1.2,1.3,1.2,1.6
		c0,0.3-27.1,0.5-60.3,0.4c-52.8-0.2-60.3-0.4-60.5-1.6c-0.3-1.6-63.4-112-66.2-115.6c-1.7-2.2-2.1-2.4-3.3-1.2
		c-1.6,1.6-66.4,113.2-67.6,116.4l-0.8,2.2h-30.3C280.1,967.7,274.7,967.5,274.7,966.5L274.7,966.5z M659,678.3
		c-0.3-0.5,2.7-6.6,6.7-13.5C681.6,637.4,859.1,330.4,887,282c16.4-28.4,30.1-51.5,30.6-51.5c0.8,0.1,59.3,98.9,59.3,100.1
		c0,0.4-15.5,27.4-34.5,60c-19.4,33.4-34.2,59.9-34,60.6c0.4,1.1,10.5,1.3,69.3,1.3h68.8l2.2,3.4c1.2,1.9,7.6,12.7,14.1,24.1
		c6.6,11.4,12.5,21.3,13.2,22c1.6,1.6,1.6,1.7-0.4,3.6c-0.9,0.9-7.7,12.2-15.1,25.2c-7.4,12.9-13.9,23.8-14.4,24.2
		c-0.5,0.4-45.2,0.4-99.2,0.1l-98.2-0.6l-1.8,2.6c-1,1.5-17.2,29.2-36,61.7L776.8,678h-35.5c-19.5,0-45.9,0.3-58.6,0.6
		C667.6,679,659.4,678.9,659,678.3L659,678.3z M352.3,316.2c-129.3-0.1-235-0.4-235-0.6c0-0.2,12.9-23.2,28.6-51.1l28.6-50.7h69.6
		c62.2,0,69.6-0.1,69.6-1.4c0-0.8-15.3-28.1-33.9-60.6C261,119,245.8,92.1,245.8,91.9c0-0.3,6.2-11.1,13.7-24.1
		c7.5-13,13.8-24.3,13.9-25.1c0.2-1.3,3.2-1.5,31.1-1.5c17,0,30.9,0.3,30.8,0.7c0,0.4,0.5,1.6,1.2,2.7c0.7,1.1,22.4,38.9,48.2,83.9
		c25.8,45.1,47.5,82.6,48.2,83.5c1.3,1.5,5.8,1.6,72.1,1.6h70.7l29.6,50.8c16.3,27.9,29.4,51.2,29.1,51.6c-0.3,0.4-11,0.7-23.7,0.6
		C597.8,316.5,481.6,316.3,352.3,316.2L352.3,316.2z"/>
	<path class="st1" d="M21.8,478.8c-14,24.2-15.3,26.9-14.3,27.7c0.6,0.5,7.3,11.6,14.8,24.6c7.5,13,13.8,23.8,14,23.9
		c0.2,0.1,31.2,0.4,68.7,0.5c37.5,0.1,68.8,0.5,69.4,0.9c1.1,0.6-2.5,7.1-33.6,61l-34.8,60.3l29.6,50.2c16.3,27.6,29.8,50.3,30,50.4
		c0.2,0.1,53.3-91.4,118.1-203.3c26-45,48.6-84.1,69.6-120.3c53.4-92.8,70.4-122.7,70.5-124.2c-2.5-0.3-14.1-0.4-29.8-0.5
		c-9,0-17.9,0-29.2,0l-58.1,0.2l-35.4,61.3c-32.7,56.6-35.4,61.2-37.3,61.6c0,0-0.1,0.1-0.1,0.1c0,0-3.7,0-4.2,0
		c-9.8,0.1-46.9,0.1-92.2,0c-51.9-0.2-95.4-0.3-96.7-0.2c-1.3,0.1-2.6-0.1-3-0.3C37.5,452.2,30.3,464.1,21.8,478.8L21.8,478.8z
		 M492.3,42.3c-0.3,0.3,12.9,23.8,29.3,52.2c28,48.5,205,355.7,220.8,383.1c3.4,6,6.7,11,7.9,12.3c2.1-2.9,8.1-12.9,18.2-30.3
		c6.7-12.1,15.4-27.6,23-40.7l15.1-26.3c1.6-3.2,1.7-4.2,1.5-4.9c-0.4-1.1-15.8-28.3-34.4-60.4c-18.5-32.1-34-59.3-34.4-60.4
		c-0.1-0.2-0.1-0.5,0-0.8l-1-2.1l49.6-84.8c8.5-14.5,14.7-25.3,21.7-37.4c21-36.6,27.6-48.6,27.3-49.4c-0.3-0.7-6.2-11.1-13.1-23
		C817,57.4,810.5,46.1,809.5,44c-1.1-2.3-1.7-3.1-2.5-3.3c-0.1,0-0.2,0-0.3,0.1c-1,0.3-12.5,0.4-25.7,0.4c-13.2,0-25.7,0.1-27.9,0.2
		l-4,0.2l-34.4,59.6c-29.4,51-34.6,59.6-35.8,59.4c-0.1,0-0.3-0.4-0.5-0.7c-0.2,0.2-0.5,0.2-0.6,0.1c-0.6-0.3-16.4-27.3-35.1-59.9
		l-32.9-57.4c-0.3-0.4-1-1.7-1-1.7C607.5,40.3,492.8,41.6,492.3,42.3L492.3,42.3z M449.5,691.7c-0.1,0.2-0.1,0.6,0.1,1.1
		c0.8,2.4,58.1,100.3,59.1,100.9c0.5,0.3,32.5,0.5,71.2,0.6c61.1,0.1,70.5,0.3,71.6,1.9c0.7,1,22.9,39.5,49.3,85.6
		c26.4,46.1,48.5,84,49.1,84.3c0.6,0.3,13.6,0.6,29,0.5c15.4,0,28.4,0.2,29,0.6c0.3,0.2,0.9-0.3,2-1.8l13.8-23.9
		c12-20.8,15.2-26.8,14.4-27.3c-1.3-0.8-35.8-61.1-54.7-95.2c-7.1-12.5-12.3-21.8-12.5-22.4c-0.4-1.6-0.1-1.9,2.7-2.2
		c4.5-0.6,131.6-0.1,133.2,0.5c0.5,0.2,1.8-1.3,5.9-8c4.3-7,11.5-19.6,25.2-43.3c16.6-28.7,29.9-52.3,29.7-52.4
		c-0.2-0.1-1.8-0.1-3.4,0c0,0-0.1,0-0.1,0c-10.2,0.5-77.8,0.5-343.4,0.1c-89.3-0.1-160-0.2-164.9-0.2c-2.6,0-4.8,0.2-6.1,0.4
		C449.6,691.6,449.5,691.6,449.5,691.7L449.5,691.7z"/>
</g>
</svg>
