<?xml version="1.0" encoding="utf-8"?>
<!-- Generator: Adobe Illustrator 24.1.1, SVG Export Plug-In . SVG Version: 6.00 Build 0)  -->
<svg version="1.1" id="Capa_1" xmlns="http://www.w3.org/2000/svg" xmlns:xlink="http://www.w3.org/1999/xlink" x="0px" y="0px"
	 viewBox="0 0 1080 1080" style="enable-background:new 0 0 1080 1080;" xml:space="preserve">
<style type="text/css">
	.st0{fill:#8BC34A;}
</style>
<path class="st0" d="M540,5c-14.3,0-29,3.7-41.2,10.5L106.2,242.2C80.8,257,65,284.4,65,313.9v452.2c0,29.5,15.8,56.9,41.2,71.7
	l102.9,59c50.1,24.2,67,24.8,90.2,24.8c73.9,0,116.6-44.8,116.6-122.8V352.4c0-6.3-5.3-11.6-11.6-11.6h-49.1
	c-6.9,0-12.1,5.3-12.1,11.6v446.4c0,34.8-35.9,69-93.4,40.1l-108.2-61.7c-3.7-2.6-5.8-6.9-5.8-11.1V313.9c0-4.7,2.1-9,5.8-11.1
	L534.2,76.7c3.2-2.1,8.4-2.1,11.6,0l392.7,226.1c3.7,2.1,5.8,6.3,5.8,11.1v452.2c0,4.2-2.1,8.4-5.8,11.1l-392.7,226.1
	c-3.2,2.1-8.4,2.1-12.1,0l-99.2-60.1c-4.2-1.6-8.4-2.1-11.1-0.5c-28,15.8-33.3,19-59.1,26.9c-6.3,2.1-16.4,5.8,3.7,16.9l130.9,77.5
	c12.7,7.4,26.4,11.1,41.2,11.1s28.5-3.7,41.2-11.1l392.7-226.1c25.3-14.8,41.2-42.2,41.2-71.7V313.9c0-29.5-15.8-56.9-41.2-71.7
	L581.2,15.5C569,8.7,554.8,5,540,5 M645.6,329.2c-111.9,0-178.9,46.9-178.9,126c0,84.9,66.5,109.6,174.2,120.2
	c128.2,12.7,138.3,31.6,138.3,56.9c0,43.7-35.4,62.2-117.7,62.2c-104.5,0-126.7-25.8-134.6-77.5c-1.1-5.3-5.8-9.5-11.6-9.5h-50.7
	c-6.3,0-11.1,4.7-11.1,11.6c0,65.4,35.9,144.4,207.9,144.4c124,0,195.3-49,195.3-134.4c0-84.9-57-107-177.9-123.3
	c-121.9-15.8-134.1-24.2-134.1-52.7c0-23.7,10.6-55.3,100.8-55.3c79.2,0,110.3,17.4,122.4,71.7c1.1,5.3,5.8,9,11.1,9h51.2
	c2.6,0,5.8-1.1,7.9-3.7c2.1-2.1,3.7-5.3,2.6-8.4C833.4,372.4,771.2,329.2,645.6,329.2z"/>
</svg>
