<?xml version="1.0" encoding="utf-8"?>
<!-- Generator: Adobe Illustrator 24.1.1, SVG Export Plug-In . SVG Version: 6.00 Build 0)  -->
<svg version="1.1" id="Capa_1" xmlns="http://www.w3.org/2000/svg" xmlns:xlink="http://www.w3.org/1999/xlink" x="0px" y="0px"
	 viewBox="0 0 1080 1080" style="enable-background:new 0 0 1080 1080;" xml:space="preserve">
<style type="text/css">
	.st0{fill:#8BC34A;}
</style>
<g transform="matrix(.85272 0 0 .85272 35.757 18.851)">
	<path class="st0" d="M591.3-16.2c-10.4,0-20.7,2.7-30,8L64.3,275.8c-18.6,10.6-30,30.2-30,51.4v568.1c0,21.2,11.4,40.8,30,51.4
		l496.9,283.8h0c18.6,10.6,41.4,10.6,60,0l497.1-283.8c18.6-10.6,30-30.2,30-51.4V327.2c0-21.2-11.4-40.8-30-51.4L621.3-8.3
		C612-13.6,601.6-16.2,591.3-16.2L591.3-16.2z M266.4,226.7c0,0,57.5,159.5,173.2,154.2L575,303.9c5.2-3,10.9-4.5,16.7-4.8h3.1
		c5.8,0.2,11.5,1.8,16.6,4.8L746.8,381c115.6,5.3,173.1-154.2,173.1-154.2c25.5,111.8,5.2,186.6-28.9,236.4l22.2,12.6h0
		c11.3,6.4,18.2,18.3,18.2,31.3l-0.6,462.7c0,6.5-3.5,12.4-9.1,15.6c-5.6,3.3-12.6,3.3-18.2,0L724.2,883.8
		c-11.3-6.6-18.3-18.4-18.3-31.3V636.3c0-12.9-6.9-24.8-18.2-31.2l-76.3-43.5c-5.5-3.3-11.9-4.9-18.1-4.9c-6.4,0-12.6,1.6-18.3,4.9
		l-76.4,43.5c-11.3,6.4-18.2,18.3-18.2,31.2v216.2c0,12.9-6.9,24.6-18.2,31.3L282.8,985.4c-5.6,3.3-12.5,3.3-18.1,0
		c-5.7-3.1-9.1-9.1-9.1-15.6l-0.7-462.7c0-13,7-24.9,18.3-31.3l22.2-12.6C261.3,413.4,240.9,338.6,266.4,226.7L266.4,226.7z"/>
</g>
</svg>
