<?xml version="1.0" encoding="utf-8"?>
<!-- Generator: Adobe Illustrator 24.1.1, SVG Export Plug-In . SVG Version: 6.00 Build 0)  -->
<svg version="1.1" id="Capa_1" xmlns="http://www.w3.org/2000/svg" xmlns:xlink="http://www.w3.org/1999/xlink" x="0px" y="0px"
	 viewBox="0 0 1080 1080" style="enable-background:new 0 0 1080 1080;" xml:space="preserve">
<style type="text/css">
	.st0{fill:#00B8D4;}
</style>
<path class="st0" d="M423,120C191.2,121,4.1,309.7,5.2,541.3C5.7,665.9,61.7,783.7,157.8,863c-8.9-1.7-17.4-4.8-25.3-9.1
	c-14.5-8.4-31.2-12.2-47.9-11c-47,3.2-82.6,43.8-79.4,90.8c0.6,8.6,2.5,17.1,5.6,25.1c22.3-8.2,45.6-13.1,69.3-14.6
	c13.9-0.9,27.8-0.7,41.7,0.7c11.4,1.1,23,1.2,34.4,0.5c6-0.4,12-1.1,18-2c25.2-3.9,49.6-12.3,71.8-24.9c17.4,8.1,35.4,15,53.7,20.5
	c121.1,34.6,250.6,26.1,366.1-24.1c5.3-2.4,10.2-5.5,14.6-9.1l394.6,36l-376.4-75.1c-0.6-13-12-21.9-16.3-27.5
	c-2.1-2.4-3.5-5.4-4-8.6c-7.1-98.6-84.8-177.4-183.4-185.9c-5-9.7-12.6-17.9-21.9-23.7c-14.8-11.7-23.4-29.6-23.3-48.5
	c-29.9,2.7-54.6,24.5-61,53.8c-84.5-41.8-119.1-144.1-77.3-228.6c8-16.2,18.5-30.9,31.1-43.8c41.8-44.1,100-69,160.8-68.8
	c101.3-0.2,190,67.6,216.2,165.4c-16.8,20.5-40.4,34.4-66.6,39.2c-46.5,8.2-82.8,45-90.2,91.6c43,0,71.6,58.5,151.4,58.5
	c29.4,0,56-17.8,67.1-45c11.2,27.2,37.7,45,67.2,45c3.1,0,6.2-0.2,9.3-0.4v0.2c1-0.1,1.9-0.2,2.8-0.3c1.9-0.2,3.7-0.3,5.6-0.6
	c2.9-0.3,5.7-0.7,8.5-1.2c1.5-0.3,3-0.6,4.5-0.9c3.2-0.7,6.3-1.5,9.3-2.3c1.2-0.3,2.5-0.7,3.7-1.1c3.8-1.2,7.4-2.5,10.9-3.9
	c0.5-0.2,1-0.4,1.6-0.6c0.4-0.2,0.8-0.3,1.2-0.5c1.7-0.7,3.4-1.5,5.1-2.3v-0.1c36.8-17.2,59.5-44.3,88.8-44.3
	c-7.4-46.1-42.9-82.6-88.8-91.3h-0.1c-0.4-0.1-0.9-0.2-1.3-0.3c-7.9-1.4-15.5-3.7-22.9-6.8c-0.3-0.1-0.5-0.2-0.8-0.3
	c-3.1-1.3-6.2-2.8-9.2-4.4c-0.5-0.3-1-0.6-1.6-0.9c-2.5-1.4-5-2.9-7.5-4.5c-0.4-0.3-0.9-0.6-1.4-0.9c-2.8-1.9-5.5-4-8.2-6.1
	c-13.3-10.9-23.9-24.8-29.4-40.3C777.5,244.1,611.5,119.2,423,120L423,120z M236.7,444.5c7.8,0.5,13.6,10.1,12.8,21.4
	c-0.8,11.3-7.8,19.9-15.7,19.4c-7.9-0.5-13.5-10.2-12.7-21.4C221.8,452.6,228.8,444,236.7,444.5z M185.6,481.2l-0.2,0.2
	c3.9,0,7.3,4.3,7.3,10c0,5.6-2.8,10.3-6.7,10.5c-3.9,0.1-7.3-4.2-7.3-9.9C178.7,486.3,181.7,481.4,185.6,481.2L185.6,481.2z
	 M182.5,545.9c6.6,0.4,13.5,7.3,15.7,16.9c2.6,11-1.6,21.4-9.3,23.1c-7.7,1.8-16-5.6-18.5-16.7c-2.6-11,1.8-21.5,9.5-23.3l-0.2,0.2
	C180.6,545.9,181.6,545.8,182.5,545.9L182.5,545.9z M232.3,624.4c1-0.1,2-0.1,3,0c6.9,0.5,14.6,4.7,20.5,11.9
	c9.5,11.4,10.5,25.9,2.6,32.5c-8,6.6-21.9,2.6-31.5-8.8c-9.5-11.4-10.3-25.9-2.6-32.5C226.6,625.7,229.3,624.7,232.3,624.4
	L232.3,624.4z M445,834.2c3.9,0.1,8.8,2,14.4,3.4c11.3,2.8,21.1,2.4,18.6,13l-0.2,0.2c-3.3,11.1-14.9,17.5-26.1,14.2
	c-10.4-3.1-16.7-13.5-14.7-24.1C438.4,835.6,441.2,834.1,445,834.2L445,834.2z"/>
</svg>
