<?xml version="1.0" encoding="utf-8"?>
<!-- Generator: Adobe Illustrator 24.1.1, SVG Export Plug-In . SVG Version: 6.00 Build 0)  -->
<svg version="1.1" id="Capa_1" xmlns="http://www.w3.org/2000/svg" xmlns:xlink="http://www.w3.org/1999/xlink" x="0px" y="0px"
	 viewBox="0 0 1080 1080" style="enable-background:new 0 0 1080 1080;" xml:space="preserve">
<style type="text/css">
	.st0{fill:#0288D1;}
</style>
<g transform="matrix(.79956 0 0 .79956 1.086 1.018)">
	<g id="mark-2-path">
		<path class="st0" d="M982.1,238.7H631.5c-200.3-0.9-363.3,165-364.2,370.5c0,0.7,0,1.4,0,2.2v359.7
			c0,205.5,162.4,372.1,362.6,372.1h350.6c200.3,0,362.6-166.6,362.6-372.1c0-0.2,0-0.4,0-0.5V611.4
			C1343.4,406.3,1181.9,239.6,982.1,238.7z M627.8,641c-40.6,42.5-107.1,43.1-148.4,1.4c-41.4-41.7-42-109.9-1.4-152.3
			c40.6-42.5,107.1-43.1,148.4-1.4c5,5.1,9.5,10.6,13.5,16.6C667.8,547.7,662.8,604.4,627.8,641z M975.8,1162.8
			c-101.4,0-183.7-84.4-183.7-188.5s82.2-188.5,183.7-188.5s183.7,84.4,183.7,188.5S1077.2,1162.8,975.8,1162.8z"/>
	</g>
	<g id="Oval">
		<ellipse class="st0" cx="149.2" cy="153.1" rx="83.9" ry="86.1"/>
		<ellipse class="st0" cx="149.2" cy="153.1" rx="115.4" ry="118.4"/>
	</g>
</g>
</svg>
