<?xml version="1.0" encoding="utf-8"?>
<!-- Generator: Adobe Illustrator 24.1.1, SVG Export Plug-In . SVG Version: 6.00 Build 0)  -->
<svg version="1.1" id="Capa_1" xmlns="http://www.w3.org/2000/svg" xmlns:xlink="http://www.w3.org/1999/xlink" x="0px" y="0px"
	 viewBox="0 0 1080 1080" style="enable-background:new 0 0 1080 1080;" xml:space="preserve">
<style type="text/css">
	.st0{fill:#00BFA5;}
	.st1{fill:#F5F5F5;}
	.st2{fill:#26A69A;}
</style>
<g transform="matrix(.66379 0 0 .66379 17.497 51.005)">
	<path class="st0" d="M901.4,465.6l-55.3,95.8l-189-327.8l-580.3,1006h392.9c0,52.9,42.9,95.8,95.7,95.8H76.9
		c-34.2,0-65.8-18.3-82.9-47.9c-17.1-29.6-17.1-66.2,0-95.8l580.3-1006c17.1-29.6,48.7-47.9,82.9-47.9c34.2,0,65.8,18.3,82.9,47.9
		L901.4,465.6z"/>
	<path class="st1" d="M1320.3,1191.8L956.7,561.4l-55.3-95.8l-55.3,95.8l-363.6,630.4c-17.1,29.6-17.1,66.2,0,95.8
		c17.1,29.6,48.7,47.9,82.9,47.9h671.9c34.2,0,65.8-18.3,82.9-47.9C1337.3,1258,1337.3,1221.4,1320.3,1191.8L1320.3,1191.8z
		 M565.5,1239.7l336-582.5l335.9,582.5H565.5L565.5,1239.7z"/>
	<path class="st2" d="M1580.3,1287.6c-17.1,29.6-48.7,47.9-82.9,47.9h-260.1c52.9,0,95.7-42.9,95.7-95.8h164.2l-465.9-807.7
		l-74.7,129.5l-55.3-95.8l47.1-81.6c17.1-29.6,48.7-47.9,82.9-47.9c34.2,0,65.8,18.3,82.9,47.9l466,807.7
		C1597.4,1221.4,1597.4,1257.9,1580.3,1287.6L1580.3,1287.6z"/>
</g>
</svg>
