<?xml version="1.0" encoding="utf-8"?>
<!-- Generator: Adobe Illustrator 24.1.1, SVG Export Plug-In . SVG Version: 6.00 Build 0)  -->
<svg version="1.1" id="Capa_1" xmlns="http://www.w3.org/2000/svg" xmlns:xlink="http://www.w3.org/1999/xlink" x="0px" y="0px"
	 viewBox="0 0 1080 1080" style="enable-background:new 0 0 1080 1080;" xml:space="preserve">
<style type="text/css">
	.st0{fill:#FFFFFF;}
	.st1{fill:#494545;}
	.st2{fill:url(#SVGID_1_);}
	.st3{fill:url(#SVGID_2_);}
	.st4{fill:url(#SVGID_3_);}
	.st5{fill:url(#SVGID_4_);}
</style>
<g>
	<path class="st0" d="M561.8,893.3c-1.5-9,1.5-18.1-1.5-27.1c-2.3-7.5-7.5-8.3-11.3-14.3c-9.8-15.8-18.8-36.9-20.3-56.4
		c-0.8-17.3-7.5-33.9-8.3-51.2c-0.8-8.3,0.8-17.3,0-25.6c0-3.8-0.8-7.5-1.5-12c0-0.8-0.8-5.3-1.5-7.5l2.3-5.3
		c-0.8-1.5,18.8-1.5,24.8-1.5c9.8,0,19.6,0.8,29.3,0.8c20.3,0.8,39.1,0.8,58.7-2.3c44.4-6.8,64.7-24.8,74.5-32.4
		c40.6-29.3,58.7-76.8,58.7-76.8c6.8-15,6.8-41.4,21.1-53.4c16.6-14.3,45.1-12.8,64.7-21.8c11.3-5.3,19.6-7.5,30.9-5.3
		c8.3,1.5,24.1,12,27.8-2.3c-3-1.5-3.8-5.3-5.3-6.8c15.8-1.5,0-38.4-6-45.9c-9.8-11.3-26.3-16.6-43.6-21.1
		c-20.3-5.3-39.1-12-58.7-8.3c-33.9,6.8-31.6-12.8-51.2-12.8c-24.1,0-66.2,1.5-73.7,24.1c-3.8,10.5-6.8,11.3-12.8,19.6
		c-5.3,6.8,0.8,13.5-1.5,21.8c-3,8.3-6.8,37.6-10.5,48.2c-6.8,17.3-15,39.1-30.1,39.1c-21.1,2.3-37.6,3-54.9-3
		c-10.5-3.8-27.8-9.8-36.1-12.8c-39.1-16.6-45.9-34.6-45.9-34.6c-4.5-6.8-15-18.1-19.6-33.1c-4.5-15.8-12-29.3-15-38.4
		c-3-9-11.3-22.6-17.3-37.6c-7.5-19.6-18.8-33.9-27.1-40.6c-12-10.5-23.3-27.8-48.2-22.6c-4.5,0.8-20.3,1.5-33.1,12
		c-8.3,6.8-11.3,21.8-18.8,33.9c-4.5,6.8-12,27.1-19.6,44.4c-5.3,12-7.5,20.3-12.8,24.8c-4.5,3-9.8,7.5-15.8,5.3
		c-3.8-1.5-8.3-3.8-12-7.5c-6-4.5-18.8-27.1-27.1-42.9c-6.8-14.3-21.8-35.4-30.1-47.4c-12-16.6-19.6-21.1-37.6-21.1
		c-39.1,0-42.1,21.8-59.4,54.2c-7.5,14.3-10.5,36.1-25.6,53.4c-9,9.8-36.1,51.2-55.7,57.9l0,0l0,0v292v0.8v-1.5
		c1.5-3.8,2.3-7.5,3.8-10.5c7.5-15.8,24.8-30.9,34.6-46.7c5.3-9,11.3-17.3,14.3-27.1c3-8.3,4.5-20.3,9-27.1
		c5.3-8.3,13.5-11.3,21.8-12.8c13.5-2.3,24.8,18.8,41.4,27.1c7.5,3,40.6,15,50.4,17.3c16.6,3.8,34.6,7.5,51.2,10.5
		c9,1.5,17.3,3,27.1,3.8c8.3,0.8,39.1,1.5,41.4,3.8c-15.8,8.3-24.8,30.9-30.9,46.7c-6,16.6-10.5,35.4-18.1,51.2
		c-8.3,18.1-25.6,25.6-23.3,46.7c0.8,8.3,2.3,17.3,0.8,26.3c-1.5,9.8-5.3,17.3-8.3,26.3c-3.8,12-8.3,51.9-13.5,64l34.6-4.5l0,0
		c3.8-9,7.5-46.7,8.3-50.4c6.8-18.8,15-34.6,27.8-48.9c12.8-14.3,12-32.4,19.6-49.7c8.3-18.1,18.8-32.4,29.3-49.7
		c18.8-30.9,30.9-69.2,70.7-77.5c4.5-0.8,28.6,16.6,39.1,27.1c12,12,25.6,25.6,33.9,42.1c15.8,31.6,28.6,77.5,33.9,102.3
		c3,14.3,5.3,15,15,27.1c4.5,5.3,13.5,21.8,16.6,27.8c3,6.8,7.5,21.8,11.3,30.1c2.3,4.5,8.3,18.8,12,31.6l32.4-0.8h0.8l0,0v-0.8
		C576.9,966.3,567.1,929.5,561.8,893.3z"/>
	<path class="st1" d="M540.8,706L540.8,706C540.8,704.5,540.8,704.5,540.8,706z"/>
	<g>
		<g>
			
				<linearGradient id="SVGID_1_" gradientUnits="userSpaceOnUse" x1="-217.2475" y1="1639.3727" x2="-217.2475" y2="1640.5488" gradientTransform="matrix(1 0 0 1 758 -934.72)">
				<stop  offset="0" style="stop-color:#F29104"/>
				<stop  offset="1" style="stop-color:#EC6813"/>
			</linearGradient>
			<path class="st2" d="M540.8,706L540.8,706C540.8,704.5,540.8,704.5,540.8,706z"/>
			<g>
				
					<linearGradient id="SVGID_2_" gradientUnits="userSpaceOnUse" x1="-356.4529" y1="1647.447" x2="-356.4529" y2="1939.871" gradientTransform="matrix(1 0 0 1 758 -934.72)">
					<stop  offset="0" style="stop-color:#F29104"/>
					<stop  offset="1" style="stop-color:#EC6813"/>
				</linearGradient>
				<path class="st3" d="M548.3,969.3c-3.8-7.5-8.3-23.3-11.3-30.1c-3-6-12-22.6-16.6-27.8c-9.8-11.3-12-12-15-27.1
					c-5.3-25.6-18.1-70.7-33.9-102.3c-8.3-16.6-21.8-30.1-33.9-42.1c-10.5-10.5-34.6-27.8-39.1-27.1c-39.9,7.5-51.9,46.7-70.7,77.5
					c-10.5,17.3-21.1,31.6-29.3,49.7c-7.5,16.6-6.8,35.4-19.6,49.7c-12.8,14.3-21.8,30.1-27.8,48.9c-1.5,3.8-4.5,41.4-8.3,50.4l0,0
					l58.7-3.8c54.9,3.8,39.1,24.8,124.2,20.3l134.7-4.5l0,0C556.6,988.2,550.5,973.9,548.3,969.3z"/>
			</g>
			<g>
				<g>
					
						<linearGradient id="SVGID_3_" gradientUnits="userSpaceOnUse" x1="-217.624" y1="1008.6306" x2="-217.6235" y2="1940.1974" gradientTransform="matrix(1 0 0 1 758 -934.72)">
						<stop  offset="0" style="stop-color:#F29104"/>
						<stop  offset="1" style="stop-color:#EC6813"/>
					</linearGradient>
					<path class="st4" d="M939.6,73.9H140.4C65.9,73.9,5.8,134.1,5.8,208.6v293.5l0,0c19.6-6.8,46.7-48.2,55.7-57.9
						c15-17.3,18.1-39.9,25.6-53.4c17.3-31.6,20.3-54.2,59.4-54.2c18.1,0,25.6,4.5,37.6,21.1c8.3,11.3,23.3,33.1,30.1,47.4
						c8.3,16.6,21.1,38.4,27.1,42.9c4.5,3,8.3,6,12,7.5c6,2.3,11.3-2.3,15.8-5.3c5.3-4.5,7.5-12.8,12.8-24.8
						c7.5-17.3,15-36.9,19.6-44.4c7.5-12,10.5-27.1,18.8-33.9c12-10.5,28.6-11.3,33.1-12c24.8-5.3,36.1,12,48.2,22.6
						c8.3,7.5,18.8,21.8,27.1,40.6c6,15,13.5,29.3,17.3,37.6c3,8.3,10.5,21.8,15,38.4c4.5,14.3,15,25.6,19.6,33.1
						c0,0,6.8,18.1,45.9,34.6c8.3,3.8,25.6,9.8,36.1,12.8c17.3,6,33.9,5.3,54.9,3c15,0,23.3-21.8,30.1-39.1
						c3.8-10.5,8.3-39.9,10.5-48.2c2.3-8.3-3.8-14.3,1.5-21.8c6-8.3,9.8-9,12.8-19.6c7.5-23.3,49.7-24.1,73.7-24.1
						c20.3,0,17.3,19.6,51.2,12.8c19.6-3.8,38.4,2.3,58.7,8.3c17.3,4.5,33.9,9.8,43.6,21.1c6,7.5,21.8,44.4,6,45.9
						c1.5,1.5,3,5.3,5.3,6.8c-3.8,14.3-18.8,3.8-27.8,2.3c-11.3-2.3-19.6,0-30.9,5.3c-19.6,8.3-47.4,7.5-64.7,21.8
						c-14.3,12-14.3,38.4-21.1,53.4c0,0-18.8,47.4-58.7,76.8c-10.5,7.5-30.9,25.6-74.5,32.4c-19.6,3-38.4,3-58.7,2.3
						c-9.8-0.8-19.6-0.8-29.3-0.8c-6,0-25.6-0.8-24.8,1.5l-2.3,5.3c0,1.5,0.8,6,1.5,7.5c0.8,4.5,0.8,8.3,1.5,12
						c0,8.3-0.8,17.3,0,25.6c0.8,17.3,7.5,33.1,8.3,51.2c0.8,19.6,10.5,40.6,20.3,56.4c3.8,6,9,6.8,11.3,14.3c3,8.3,0,18.1,1.5,27.1
						c5.3,35.4,15.8,73,31.6,105.3v0.8l0,0c19.6-3,39.9-10.5,65.5-14.3c47.4-6.8,112.9-3.8,155-7.5c106.8-9.8,164.8,43.6,260.4,21.8
						V208.6C1074.2,134.1,1014.1,73.9,939.6,73.9z M540.8,706C540.8,704.5,540.8,704.5,540.8,706L540.8,706z"/>
				</g>
			</g>
			<g>
				
					<linearGradient id="SVGID_4_" gradientUnits="userSpaceOnUse" x1="-604.389" y1="1603.1959" x2="-604.389" y2="1933.1371" gradientTransform="matrix(1 0 0 1 758 -934.72)">
					<stop  offset="0" style="stop-color:#F29104"/>
					<stop  offset="1" style="stop-color:#EC6813"/>
				</linearGradient>
				<path class="st5" d="M252.6,829.4c7.5-16.6,12-34.6,18.1-51.2c6-15.8,15-38.4,30.9-46.7c-2.3-2.3-33.1-3-41.4-3.8
					c-9-0.8-18.1-2.3-27.1-3.8c-16.6-3-35.4-6.8-51.2-10.5c-9.8-2.3-43.6-14.3-50.4-17.3c-17.3-7.5-28.6-29.3-41.4-27.1
					c-8.3,1.5-16.6,4.5-21.8,12.8c-4.5,6.8-6,18.8-9,27.1c-3.8,9-9.8,18.1-14.3,27.1C34.3,751.9,17,766.2,9.5,782
					c-1.5,3.8-2.3,7.5-3.8,11.3v1.5v59.4v105.3v15c9,1.5,18.1,3,27.8,6c75.2,20.3,93.3,21.8,167,13.5l6.8-0.8l0,0
					c5.3-12,9.8-51.9,13.5-64c3-9.8,6.8-17.3,8.3-26.3c1.5-9,0-18.1-0.8-26.3C227,855,244.3,847.4,252.6,829.4z"/>
			</g>
		</g>
	</g>
</g>
</svg>
