<?xml version="1.0" encoding="utf-8"?>
<!-- Generator: Adobe Illustrator 26.0.0, SVG Export Plug-In . SVG Version: 6.00 Build 0)  -->
<svg version="1.1" id="Capa_1" xmlns="http://www.w3.org/2000/svg" xmlns:xlink="http://www.w3.org/1999/xlink" x="0px" y="0px"
	 viewBox="0 0 1080 1080" style="enable-background:new 0 0 1080 1080;" xml:space="preserve">
<style type="text/css">
	.st0{fill-rule:evenodd;clip-rule:evenodd;fill:#448AFF;}
</style>
<g transform="matrix(.23131 0 0 .23131 -26.461 -156.86)">
	<path class="st0" d="M1133.3,4915.1c-88.7-60.9-158.8-119.8-158.8-119.8L3255.2,845.1c0,0,93.9,34.8,171.4,72
		c97.7,46.9,178.7,92.5,178.7,92.5c1105.5,638.3,1484.8,2054,846.6,3159.5c-638.3,1105.5-2054,1484.8-3159.5,846.6
		C1292.5,5015.7,1215.1,4971.2,1133.3,4915.1L1133.3,4915.1z M3412.6,1343.5L1485.2,4681.8c921.3,531.9,2101,215.8,2632.9-705.5
		C4650,3055.1,4333.9,1875.4,3412.6,1343.5L3412.6,1343.5z M551,4335.2c-77.5-112.2-105.1-166.1-105.1-166.1
		c-398.4-692.1-427.7-1572.2,0-2312.9S1650.4,700.7,2449,699.8c0,0,107.8-0.3,197.6,8.3c135.2,13,225.2,30.4,225.2,30.4
		l-2181,3777.6C690.7,4516.1,639,4462.5,551,4335.2L551,4335.2z M2218.2,1099.3C1637,1170,1094.8,1503.3,779.8,2049
		c-315,545.6-332.6,1181.9-103.1,1720.6L2218.2,1099.3z"/>
</g>
</svg>
