<?xml version="1.0" encoding="utf-8"?>
<!-- Generator: Adobe Illustrator 24.1.1, SVG Export Plug-In . SVG Version: 6.00 Build 0)  -->
<svg version="1.1" id="Capa_1" xmlns="http://www.w3.org/2000/svg" xmlns:xlink="http://www.w3.org/1999/xlink" x="0px" y="0px"
	 viewBox="0 0 1080 1080" style="enable-background:new 0 0 1080 1080;" xml:space="preserve">
<style type="text/css">
	.st0{fill:#BDBDBD;}
	.st1{fill:#546E7A;}
	.st2{fill:#78909C;}
	.st3{fill:#FFFFFF;}
</style>
<g transform="matrix(.93714 0 0 .93714 1.76 1.76)">
	<path class="st0" d="M1096.1,338.5c0-99.3-186.4-322.7-198.8-335.1c44.7,200.9,39.1,170.9,46.6,235.1c2,16.9,2.8,34.5-4,50.1
		C909,360.2,798,400.6,798,400.6l173.9,148.9C971.9,549.5,1096.1,425.4,1096.1,338.5L1096.1,338.5z M52.5,338.5
		c0-99.3,186.4-322.7,198.8-335.1c-44.7,200.9-39.1,170.9-46.6,235.1c-2,16.9-2.8,34.5,4,50.1c31,71.6,142.1,111.9,142.1,111.9
		L176.8,549.5C176.8,549.5,52.5,425.4,52.5,338.5L52.5,338.5z"/>
	<path class="st1" d="M574.3,239.3c194.7,0,336.2,136.7,397.6,310.3v297.9c0,0-124.3,49.7-198.8,99.3
		c-74.5,49.6-186.4,198.6-186.4,198.6h-12.4V239.3z"/>
	<path class="st2" d="M574.3,239.3c-194.7,0-336.2,136.7-397.6,310.3v297.9c0,0,124.3,49.7,198.8,99.3
		c74.5,49.6,186.4,198.6,186.4,198.6h12.4V239.3z"/>
	<ellipse class="st3" cx="574.3" cy="549.5" rx="46.6" ry="46.5"/>
</g>
</svg>
