<?xml version="1.0" encoding="utf-8"?>
<!-- Generator: Adobe Illustrator 24.1.1, SVG Export Plug-In . SVG Version: 6.00 Build 0)  -->
<svg version="1.1" id="Capa_1" xmlns="http://www.w3.org/2000/svg" xmlns:xlink="http://www.w3.org/1999/xlink" x="0px" y="0px"
	 viewBox="0 0 1080 1080" style="enable-background:new 0 0 1080 1080;" xml:space="preserve">
<style type="text/css">
	.st0{fill:#FFFFFF;}
	.st1{fill:url(#SVGID_1_);}
	.st2{fill:url(#SVGID_2_);}
	.st3{fill:url(#SVGID_3_);}
	.st4{fill:url(#SVGID_4_);}
	.st5{fill:url(#SVGID_5_);}
	.st6{fill:url(#SVGID_6_);}
</style>
<g>
	<g>
		<path class="st0" d="M403.9,843.8c-1.1-6.5,1.1-13-1.1-19.4c-1.6-5.4-5.4-5.9-8.1-10.2c-7-11.3-13.5-26.4-14.5-40.4
			c-0.6-12.4-5.4-24.3-5.9-36.7c-0.6-5.9,0.6-12.4,0-18.3c0-2.7-0.6-5.4-1.1-8.6c0-0.6-0.6-3.8-1.1-5.4l1.6-3.8
			c-0.6-1.1,13.5-1.1,17.8-1.1c7,0,14,0.6,21,0.6c14.5,0.6,28,0.6,42.1-1.6c31.8-4.9,46.4-17.8,53.4-23.2c29.1-21,42.1-55,42.1-55
			c4.9-10.8,4.9-29.7,15.1-38.3c11.9-10.2,32.3-9.2,46.4-15.6c8.1-3.8,14-5.4,22.1-3.8c5.9,1.1,17.3,8.6,19.9-1.6
			c-2.1-1.1-2.7-3.8-3.8-4.9c11.3-1.1,0-27.5-4.3-32.9c-7-8.1-18.8-11.9-31.2-15.1c-14.5-3.8-28-8.6-42.1-5.9
			c-24.3,4.9-22.6-9.2-36.7-9.2c-17.3,0-47.4,1.1-52.8,17.3c-2.7,7.5-4.9,8.1-9.2,14c-3.8,4.9,0.6,9.7-1.1,15.6
			c-2.1,5.9-4.9,26.9-7.5,34.5c-4.9,12.4-10.7,28-21.6,28c-15.1,1.6-26.9,2.2-39.3-2.2c-7.5-2.7-19.9-7-25.9-9.2
			c-28-11.9-32.9-24.8-32.9-24.8c-3.2-4.9-10.7-13-14-23.7c-3.2-11.3-8.6-21-10.7-27.5c-2.1-6.5-8.1-16.2-12.4-26.9
			c-5.4-14-13.5-24.3-19.4-29.1c-8.6-7.5-16.7-19.9-34.5-16.2c-3.2,0.6-14.5,1.1-23.7,8.6c-5.9,4.9-8.1,15.6-13.5,24.3
			c-3.2,4.9-8.6,19.4-14,31.8c-3.8,8.6-5.4,14.5-9.2,17.8c-3.2,2.2-7,5.4-11.3,3.8c-2.7-1.1-5.9-2.7-8.6-5.4
			c-4.3-3.2-13.5-19.4-19.4-30.7c-4.9-10.2-15.6-25.4-21.6-34c-8.6-11.9-14-15.1-26.9-15.1c-28,0-30.2,15.6-42.6,38.8
			c-5.4,10.2-7.5,25.9-18.3,38.3c-6.4,7-25.9,36.7-39.9,41.5l0,0l0,0V772v0.6v-1.1c1.1-2.7,1.6-5.4,2.7-7.5
			c5.4-11.3,17.8-22.1,24.8-33.5c3.8-6.5,8.1-12.4,10.2-19.4c2.1-5.9,3.2-14.5,6.4-19.4c3.8-5.9,9.7-8.1,15.6-9.2
			c9.7-1.6,17.8,13.5,29.7,19.4c5.4,2.2,29.1,10.8,36.1,12.4c11.9,2.7,24.8,5.4,36.7,7.5c6.4,1.1,12.4,2.2,19.4,2.7
			c5.9,0.6,28,1.1,29.7,2.7c-11.3,5.9-17.8,22.1-22.1,33.5c-4.3,11.9-7.5,25.4-13,36.7c-5.9,13-18.3,18.3-16.7,33.5
			c0.6,5.9,1.6,12.4,0.6,18.9c-1.1,7-3.8,12.4-5.9,18.9c-2.7,8.6-5.9,37.2-9.7,45.9l24.8-3.2l0,0c2.7-6.5,5.4-33.5,5.9-36.1
			c4.9-13.5,10.7-24.8,19.9-35c9.2-10.2,8.6-23.2,14-35.6c5.9-13,13.5-23.2,21-35.6c13.5-22.1,22.1-49.6,50.7-55.5
			c3.2-0.6,20.5,11.9,28,19.4c8.6,8.6,18.3,18.3,24.3,30.2c11.3,22.6,20.5,55.5,24.3,73.3c2.1,10.2,3.8,10.8,10.7,19.4
			c3.2,3.8,9.7,15.6,11.9,19.9c2.1,4.9,5.4,15.6,8.1,21.6c1.6,3.2,5.9,13.5,8.6,22.6l23.2-0.6h0.6l0,0v-0.6
			C414.7,896.1,407.7,869.8,403.9,843.8z"/>
		<g>
			
				<linearGradient id="SVGID_1_" gradientUnits="userSpaceOnUse" x1="-468.8758" y1="-567.1584" x2="-468.8758" y2="-776.7517" gradientTransform="matrix(1 0 0 -1 758 147.28)">
				<stop  offset="0" style="stop-color:#F29104"/>
				<stop  offset="1" style="stop-color:#EC6813"/>
			</linearGradient>
			<path class="st1" d="M394.2,898.3c-2.7-5.4-5.9-16.7-8.1-21.6c-2.1-4.3-8.6-16.2-11.9-19.9c-7-8.1-8.6-8.6-10.7-19.4
				c-3.8-18.3-13-50.7-24.3-73.3c-5.9-11.9-15.6-21.6-24.3-30.2c-7.5-7.5-24.8-19.9-28-19.4c-28.6,5.4-37.2,33.5-50.7,55.5
				c-7.5,12.4-15.1,22.6-21,35.6c-5.4,11.9-4.9,25.4-14,35.6c-9.2,10.2-15.6,21.6-19.9,35c-1.1,2.7-3.2,29.7-5.9,36.1l0,0l42.1-2.7
				c39.3,2.7,28,17.8,89,14.5l96.5-3.2l0,0C400.2,911.8,395.8,901.6,394.2,898.3z"/>
			
				<linearGradient id="SVGID_2_" gradientUnits="userSpaceOnUse" x1="-369.4146" y1="-109.2448" x2="-369.4143" y2="-777.0927" gradientTransform="matrix(1 0 0 -1 758 147.28)">
				<stop  offset="0" style="stop-color:#F29104"/>
				<stop  offset="1" style="stop-color:#EC6813"/>
			</linearGradient>
			<path class="st2" d="M674.6,256.5H102c-53.4,0-96.5,43.1-96.5,96.5v210.4l0,0c14-4.9,33.5-34.5,39.9-41.5
				c10.7-12.4,13-28.6,18.3-38.3c12.4-22.6,14.5-38.8,42.6-38.8c13,0,18.3,3.2,26.9,15.1c5.9,8.1,16.7,23.7,21.6,34
				c5.9,11.9,15.1,27.5,19.4,30.7c3.2,2.2,5.9,4.3,8.6,5.4c4.3,1.6,8.1-1.6,11.3-3.8c3.8-3.2,5.4-9.2,9.2-17.8
				c5.4-12.4,10.7-26.4,14-31.8c5.4-8.6,7.5-19.4,13.5-24.3c8.6-7.5,20.5-8.1,23.7-8.6c17.8-3.8,25.9,8.6,34.5,16.2
				c5.9,5.4,13.5,15.6,19.4,29.1c4.3,10.8,9.7,21,12.4,26.9c2.1,5.9,7.5,15.6,10.7,27.5c3.2,10.2,10.7,18.3,14,23.7
				c0,0,4.9,13,32.9,24.8c5.9,2.7,18.3,7,25.9,9.2c12.4,4.3,24.3,3.8,39.3,2.2c10.7,0,16.7-15.6,21.6-28c2.7-7.5,5.9-28.6,7.5-34.5
				c1.6-5.9-2.7-10.2,1.1-15.6c4.3-5.9,7-6.5,9.2-14c5.4-16.7,35.6-17.3,52.8-17.3c14.5,0,12.4,14,36.7,9.2
				c14-2.7,27.5,1.6,42.1,5.9c12.4,3.2,24.3,7,31.2,15.1c4.3,5.4,15.6,31.8,4.3,32.9c1.1,1.1,2.1,3.8,3.8,4.9
				c-2.7,10.2-13.5,2.7-19.9,1.6c-8.1-1.6-14,0-22.1,3.8c-14,5.9-34,5.4-46.4,15.6c-10.2,8.6-10.2,27.5-15.1,38.3
				c0,0-13.5,34-42.1,55c-7.5,5.4-22.1,18.3-53.4,23.2c-14,2.2-27.5,2.2-42.1,1.6c-7-0.6-14-0.6-21-0.6c-4.3,0-18.3-0.6-17.8,1.1
				l-1.6,3.8c0,1.1,0.6,4.3,1.1,5.4c0.6,3.2,0.6,5.9,1.1,8.6c0,5.9-0.6,12.4,0,18.3c0.6,12.4,5.4,23.7,5.9,36.7
				c0.6,14,7.5,29.1,14.5,40.4c2.7,4.3,6.4,4.9,8.1,10.2c2.1,5.9,0,13,1.1,19.4c3.8,25.4,11.3,52.3,22.6,75.5v0.6l0,0
				c14-2.2,28.6-7.5,46.9-10.2c34-4.9,80.9-2.7,111.1-5.4c76.5-7,118.1,31.3,186.6,15.6V353.1C771.1,299.7,728,256.5,674.6,256.5z
				 M388.9,709.6C388.9,708.5,388.9,708.5,388.9,709.6L388.9,709.6z"/>
			
				<linearGradient id="SVGID_3_" gradientUnits="userSpaceOnUse" x1="-646.552" y1="-535.4041" x2="-646.552" y2="-771.8505" gradientTransform="matrix(1 0 0 -1 758 147.28)">
				<stop  offset="0" style="stop-color:#F29104"/>
				<stop  offset="1" style="stop-color:#EC6813"/>
			</linearGradient>
			<path class="st3" d="M182.4,798c5.4-11.9,8.6-24.8,13-36.7c4.3-11.3,10.7-27.5,22.1-33.5c-1.6-1.6-23.7-2.2-29.7-2.7
				c-6.4-0.6-13-1.6-19.4-2.7c-11.9-2.2-25.4-4.9-36.7-7.5c-7-1.6-31.2-10.2-36.1-12.4c-12.4-5.4-20.5-21-29.7-19.4
				c-5.9,1.1-11.9,3.2-15.6,9.2c-3.2,4.9-4.3,13.5-6.4,19.4c-2.7,6.5-7,13-10.2,19.4c-7.7,11.4-20.1,21.6-25.4,33
				c-1.1,2.7-1.6,5.4-2.7,8.1v1.1v42.6v75.5V902c6.4,1.1,13,2.2,19.9,4.3C79.2,920.9,92.2,922,145,916l4.9-0.6l0,0
				c3.8-8.6,7-37.2,9.7-45.9c2.1-7,4.9-12.4,5.9-18.9c1.1-6.5,0-13-0.6-18.9C164,816.4,176.4,810.9,182.4,798z"/>
		</g>
	</g>
	<linearGradient id="SVGID_4_" gradientUnits="userSpaceOnUse" x1="936.3903" y1="981.1036" x2="936.3903" y2="139.9418">
		<stop  offset="0" style="stop-color:#F29104"/>
		<stop  offset="1" style="stop-color:#EC6813"/>
	</linearGradient>
	<path class="st4" d="M1010.5,902.8l-179.1,75.4c-16,6.7-33.7-5-33.7-22.4V302.1c0-38.2,22.9-72.8,58.2-87.6l172.8-72.8
		c21.9-9.2,46.2,6.9,46.2,30.7v633.4C1075,848.1,1049.6,886.3,1010.5,902.8z"/>
	<g>
		<linearGradient id="SVGID_5_" gradientUnits="userSpaceOnUse" x1="490.4211" y1="238.0062" x2="490.4211" y2="178.0943">
			<stop  offset="0" style="stop-color:#F29104"/>
			<stop  offset="1" style="stop-color:#EC6813"/>
		</linearGradient>
		<path class="st5" d="M186.3,178L85.5,221.8c-8.4,3.6-5.8,16.1,3.3,16.1h661.3c14,0,27.8-3.1,40.5-8.9l109.8-51H186.3z"/>
		<linearGradient id="SVGID_6_" gradientUnits="userSpaceOnUse" x1="630.8342" y1="164.899" x2="630.8342" y2="99.9099">
			<stop  offset="0" style="stop-color:#F29104"/>
			<stop  offset="1" style="stop-color:#EC6813"/>
		</linearGradient>
		<path class="st6" d="M1038.2,99.8H396.1c-19.7,0-39.3,4.1-57.4,11.9l-122.1,53.1h712.3l112.2-52.1
			C1047.7,109.7,1045.5,99.8,1038.2,99.8z"/>
	</g>
</g>
</svg>
