<?xml version="1.0" encoding="utf-8"?>
<!-- Generator: Adobe Illustrator 26.0.0, SVG Export Plug-In . SVG Version: 6.00 Build 0)  -->
<svg version="1.1" id="Capa_1" xmlns="http://www.w3.org/2000/svg" xmlns:xlink="http://www.w3.org/1999/xlink" x="0px" y="0px"
	 viewBox="0 0 1080 1080" style="enable-background:new 0 0 1080 1080;" xml:space="preserve">
<style type="text/css">
	.st0{display:none;}
	.st1{display:inline;fill:#00C853;}
	.st2{fill:#00C853;}
</style>
<g transform="matrix(1.0531 0 0 1.0531 -27.187 -27.187)">
	<g transform="matrix(.81614 0 0 .81614 94.136 94.136)">
		<g id="canvasGrid" class="st0">
			<rect x="-78" y="-77.8" class="st1" width="1244.9" height="1244.9"/>
		</g>
	</g>
	<g transform="matrix(.81614 0 0 .81614 94.136 94.136)">
	</g>
	<path class="st2" d="M538.6,233.8c-168.3,0-304.8,136.5-304.8,304.8c0,168.3,136.5,304.8,304.8,304.8s304.8-136.5,304.8-304.8
		S706.9,233.8,538.6,233.8L538.6,233.8z M1046.6,538.6c0,280.6-227.5,508-508,508l0,0c-280.6,0-508-227.5-508-508c0,0,0,0,0,0
		c0-280.6,227.5-508,508-508c0,0,0,0,0,0C819.2,30.6,1046.6,258,1046.6,538.6L1046.6,538.6z"/>
	<path class="st2" d="M756,466.3l-108.9,0l0,144.6l108.9,0L756,466.3z M610.8,321.1H466.4V756h144.4V321.1z M430,466.3H321.1v144.6
		H430L430,466.3z"/>
</g>
</svg>
