<?xml version="1.0" encoding="utf-8"?>
<!-- Generator: Adobe Illustrator 26.0.0, SVG Export Plug-In . SVG Version: 6.00 Build 0)  -->
<svg version="1.1" id="Capa_1" xmlns="http://www.w3.org/2000/svg" xmlns:xlink="http://www.w3.org/1999/xlink" x="0px" y="0px"
	 viewBox="0 0 1080 1080" style="enable-background:new 0 0 1080 1080;" xml:space="preserve">
<style type="text/css">
	.st0{fill:#FFB74D;}
</style>
<path class="st0" d="M31,487c-25.5-14.3-33.1-45.3-18.8-69.8l76.4-131.9c5.6-10.2,14.3-17.3,23.9-21.4L511.3,39.8
	c8.2-6.1,18.3-9.2,29-9.2s20.9,3.1,29,9.2l402.4,226.2c9.7,5.1,17.8,13.2,22.4,23.4l73.9,128.4c14.3,24.5,5.6,55.5-18.3,69.3
	l-50.9,29.5v252.7c0,19.4-10.7,36.2-27,44.8l-402.4,226.2c-8.2,6.1-18.3,9.2-29,9.2s-20.9-3.1-29-9.2L108.9,814.1
	c-16.3-8.7-27-25.5-27-44.8V487C66.6,495.7,47.3,496.2,31,487 M540.4,140.1v341.3L844,310.8L540.4,140.1 M183.8,739.2l305.6,172.2
	V569.5L183.8,397.9V739.2 M896.9,739.2v-164L642.2,722.9c-16.8,9.2-35.7,8.7-50.9,0.5v188L896.9,739.2 M634.6,609.3l319.9-184.9
	L925,372.9L605.1,557.8L634.6,609.3z"/>
</svg>
