<?xml version="1.0" encoding="utf-8"?>
<!-- Generator: Adobe Illustrator 24.1.1, SVG Export Plug-In . SVG Version: 6.00 Build 0)  -->
<svg version="1.1" id="Capa_1" xmlns="http://www.w3.org/2000/svg" xmlns:xlink="http://www.w3.org/1999/xlink" x="0px" y="0px"
	 viewBox="0 0 1080 1080" style="enable-background:new 0 0 1080 1080;" xml:space="preserve">
<style type="text/css">
	.st0{fill:#0288D1;}
</style>
<path class="st0" d="M912.6,102C846.5,37.8,755.6,5.7,640,5.7L265.2,5L79.3,1075h215.3l66.1-377l202.8,0.7
	c123.5,0,225-31.3,304.6-94.1c79.6-62.7,123.3-146.5,131.2-251.3C1007.7,250,978.8,166.2,912.6,102z M782.6,354.8
	c-7.3,51-30.1,91.4-68.3,121.3c-38.2,29.9-86.2,44.8-144,44.8l-179.3-1.5l58.8-335.8l202.8,0.7c46.5,2,81.7,18.1,105.5,48.5
	C781.7,263.2,789.9,303.9,782.6,354.8z"/>
</svg>
