<?xml version="1.0" encoding="utf-8"?>
<!-- Generator: Adobe Illustrator 24.1.1, SVG Export Plug-In . SVG Version: 6.00 Build 0)  -->
<svg version="1.1" id="Capa_1" xmlns="http://www.w3.org/2000/svg" xmlns:xlink="http://www.w3.org/1999/xlink" x="0px" y="0px"
	 viewBox="0 0 1080 1080" style="enable-background:new 0 0 1080 1080;" xml:space="preserve">
<style type="text/css">
	.st0{fill:#F44336;}
</style>
<g>
	<path class="st0" d="M390.2,229.7c-5.3-10.7-21.4-5.4-21.4,10.7c0,0,0,21.4,32.1,90.9C400.9,272.5,395.6,240.4,390.2,229.7z"/>
	<path class="st0" d="M582.8,620.3C518.6,556,465.1,497.2,427.6,449.1l0,0l-5.4-5.4c-21.4,64.2-53.5,144.4-74.9,203.3
		C416.9,631,497.2,625.6,582.8,620.3L582.8,620.3z"/>
	<path class="st0" d="M165.5,818.2c0,10.7,10.7,21.4,21.4,10.7c0,0,16.1-10.7,53.5-80.3C192.3,780.8,170.8,802.1,165.5,818.2z"/>
	<path class="st0" d="M994.8,5H85.3C42.5,5,5,42.5,5,85.3v909.5c0,42.8,37.5,80.3,80.3,80.3h909.5c42.8,0,80.3-37.5,80.3-80.3V85.3
		C1075,42.5,1037.5,5,994.8,5z M978.7,780.8L978.7,780.8c-16,48.1-48.1,69.5-91,69.5c-42.8,0-69.5-21.4-69.5-21.4
		c-48.1-37.5-96.3-80.3-144.4-123c-26.8,0-53.5,0-80.3,0c-107,0-203.3,10.7-278.2,37.5l-10.7,21.4
		c-42.8,117.7-107,133.8-139.1,133.8c-5.3,0-5.3,0-10.7,0c-5.3,0-10.7,0-10.7,0h-5.3c-16.1-10.7-32.1-21.4-37.5-42.8
		c-10.7-37.5,10.7-74.9,16-80.3c0,0,32.1-58.8,133.8-90.9c37.4-91,90.9-230.1,112.3-305c-21.4-26.8-26.8-37.4-26.8-37.4
		c-37.4-53.5-53.5-101.7-37.4-139.1c16.1-32.1,48.1-48.2,69.6-53.5c5.4,0,10.7,0,16,0c26.8,0,48.1,10.7,58.9,32.1
		c21.4,32.1,26.8,90.9,10.7,171.2v5.4c48.1,58.9,139.1,160.5,251.5,267.5c21.4,0,37.4,5.3,58.8,5.3c64.2,5.4,107,16.1,112.4,16.1
		c0,0,64.2,10.7,96.3,53.5C978.7,727.3,984,754,978.7,780.8z"/>
	<path class="st0" d="M882.4,764.7c10.7,0,16-16,0-21.4c0,0-16-10.7-91-21.4C839.6,754,871.7,770,882.4,764.7z"/>
</g>
</svg>
