<?xml version="1.0" encoding="utf-8"?>
<!-- Generator: Adobe Illustrator 24.1.1, SVG Export Plug-In . SVG Version: 6.00 Build 0)  -->
<svg version="1.1" id="Capa_1" xmlns="http://www.w3.org/2000/svg" xmlns:xlink="http://www.w3.org/1999/xlink" x="0px" y="0px"
	 viewBox="0 0 1080 1080" style="enable-background:new 0 0 1080 1080;" xml:space="preserve">
<style type="text/css">
	.st0{fill-rule:evenodd;clip-rule:evenodd;fill:#BA68C8;}
</style>
<path class="st0" d="M1062.7,323.5c-4.4-14.9-18.1-25.2-34-25.4c-4.8-0.1-9.4,0.7-13.9,2.5c-11.4,4.4-29.2,9.5-51.2,10.1
	c-44.1-32.4-150.9-110.5-214.3-154.5c0,0,8.5,25.6,20.1,73.4c0,0-100.5-57.5-167.3-101.6c0,0,24.4,50.6,26.2,66.9
	c0,0-80.1-14.9-197.2-41.7c0,0,86.6,49.1,107.6,78.1c0,0-105-8.7-228.7-17.7c0,0,62.2,32,92.4,57.5c0,0-112.5,14.2-198.1,16.8
	c0,0,62.6,49.4,87.7,73.2c0,0-107.5,39.3-236.3,109.2c0,0,67.1,4.4,115.3,20.3c0,0-59.3,49.3-165.8,162.8c0,0,67.1-1.3,121.3-7.5
	c0,0-43.5,63.2-98.2,177.1c0,0,36.5-21.7,71.7-29.1c0,0,1.5,128.9,73.9,150.8l0.1-0.1c3.5,1.2,6.9,1.6,9.9,1.7
	c3.6,0.1,7.3-0.4,11.1-1.4c23.2-6,41.1-27.8,61.8-53c6.8-8.3,13.9-16.9,21.4-25.2c8.3-10.9,19-22.2,31.8-32.1
	c26.5-20.4,62.9-35.4,106.9-27.7c47.7,5.8,76.6,52.7,99.8,90.5c17.8,28.9,31.9,51.8,52.1,54.3c1.4,0.2,2.8,0.3,4.2,0.3
	c30.9,0.5,42.4-34.2,56.9-78.2l3-9c0.1,0.3,0.3,0.6,0.4,0.9c10.8-35.7,31.3-74,56.1-108.4c33.6-46.7,76.6-88.2,117.5-107.1l0.1,0.2
	c22.2-12,45.5-23.2,68.5-34.3l0,0c71.5-34.4,138.9-67,173.4-117.5c17.2-25.3,26.1-56.5,26.4-92.8
	C1075.2,373.2,1068.4,343.1,1062.7,323.5L1062.7,323.5z M764.4,703.5c-20.6,18.2-40.8,41-58.7,65.8c-29.4,40.8-51.2,85.6-58.2,123.1
	c19.4,32.2,37.1,48.2,53.8,48.7l0.5,0c15.4,0.3,25.7-9.6,30.7-29.2c3.7-14.7,4.8-34.9,6.1-58.4C741,810.8,744,755.8,764.4,703.5
	L764.4,703.5z M288.8,887.7l-0.3-0.6c7.4-11.3,18.7-24.7,33.6-36.2c21.3-16.4,49.2-28.3,82.7-24.9c-3.9,9.7-8.4,20.4-13.2,31.2
	c-16.5,36.8-36.1,74.7-56.5,77.5c-1.2,0.2-2.4,0.2-3.7,0.2C315.5,934.7,301.5,919.2,288.8,887.7L288.8,887.7z M699,287.9L610.7,231
	l146.2,53.3L699,287.9z M453.2,309l140.7,37.4l62-18.8L453.2,309z M703.9,381.9l30.5-21.6l-117,17L703.9,381.9z M504,378.5
	L455.1,409l-133.7-14.6L504,378.5z M653.5,459.4l49.5-25.7l-182.6,15.9L653.5,459.4z M517.9,486.6l-35.1,53.8l-171.7,37.6
	L517.9,486.6z M303.7,516.4l-133.4,54.2l164.5-110.1L303.7,516.4z M230.1,582.8l-6.2,56.4l-77.7,91L230.1,582.8z"/>
</svg>
