<?xml version="1.0" encoding="utf-8"?>
<!-- Generator: Adobe Illustrator 24.1.1, SVG Export Plug-In . SVG Version: 6.00 Build 0)  -->
<svg version="1.1" id="Capa_1" xmlns="http://www.w3.org/2000/svg" xmlns:xlink="http://www.w3.org/1999/xlink" x="0px" y="0px"
	 viewBox="0 0 1080 1080" style="enable-background:new 0 0 1080 1080;" xml:space="preserve">
<style type="text/css">
	.st0{fill:#9575CD;}
</style>
<path class="st0" d="M566.8,647c-53.5,0-160.5,53.5-160.5,107c0,107,160.5,107,160.5,107v-53.5c-29.5,0-53.5-24-53.5-53.5
	s24-53.5,53.5-53.5V647 M566.8,914.5c0,0-214-26.8-214-133.8c0-160.5,160.5-200.6,214-200.6v-66.9c-53.5,0-267.5,80.3-267.5,240.8
	c0,214,267.5,214,267.5,214V914.5 M463.5,274.1l63.7,28.4c23-130.5,84.5-217.2,84.5-217.2c-23,55.1-38,100.6-47.6,136.4
	C628.8,87.9,759.9,5,759.9,5c-63.1,63.1-109.7,131.6-141.2,188.9C703.2,104,820.3,45.1,820.3,45.1
	c-143.9,92-208.6,238.1-224.7,278.7l29.4,4.3c0,27.8,0,53.5,13.4,73.8c40.7,101.1,249.3,109.7,249.3,352s-215.6,321-330.1,321
	s-365.4-51.9-365.4-321s264.8-271.2,311.9-378.8C510.6,354.9,463.5,274.1,463.5,274.1z"/>
</svg>
