<?xml version="1.0" encoding="utf-8"?>
<!-- Generator: Adobe Illustrator 26.0.0, SVG Export Plug-In . SVG Version: 6.00 Build 0)  -->
<svg version="1.1" id="Capa_1" xmlns="http://www.w3.org/2000/svg" xmlns:xlink="http://www.w3.org/1999/xlink" x="0px" y="0px"
	 viewBox="0 0 1080 1080" style="enable-background:new 0 0 1080 1080;" xml:space="preserve">
<style type="text/css">
	.st0{fill:#FF7043;}
</style>
<path class="st0" d="M1075,5c-108.2,7.4-868.6,79.8-921.7,601c-6.2,55.7-10.4,111.7-12.5,167.7l230.8-230.5
	c-14.4,11.8-32.4,18.2-50.9,18.1c-44.3,0-80.3-35.9-80.3-80.2s35.9-80.2,80.3-80.2s80.3,35.9,80.3,80.2c0,0,0,0,0,0
	c0,18.8-6.6,37.1-18.7,51.5l132.5-132.4c13.1-13.1,34.2-13.1,47.3,0c13.1,13.1,13.1,34.2,0,47.3L426.9,582.5
	c14.8-13.6,34.1-21.1,54.2-21.1c44.3,0,80.3,35.9,80.3,80.2c0,44.3-35.9,80.2-80.3,80.2l0,0c-44.3,0-80.3-35.9-80.3-80.2l0,0
	c0-19.7,7.2-38.7,20.3-53.4L19.7,989.4c-19.6,19.6-19.6,51.4,0.1,70.9c19.6,19.6,51.4,19.6,70.9-0.1L210.1,941
	c88-0.2,175.8-5.4,263.2-15.4c111.8-11.4,202.8-55.3,277.1-118.1H539.3l306.8-102.2c23.5-31.3,44.8-64.2,63.6-98.4H740.2
	l222.7-111.2C1050.5,282.7,1071.2,59.8,1075,5z"/>
</svg>
