<?xml version="1.0" encoding="utf-8"?>
<!-- Generator: Adobe Illustrator 24.1.1, SVG Export Plug-In . SVG Version: 6.00 Build 0)  -->
<svg version="1.1" id="Capa_1" xmlns="http://www.w3.org/2000/svg" xmlns:xlink="http://www.w3.org/1999/xlink" x="0px" y="0px"
	 viewBox="0 0 1080 1080" style="enable-background:new 0 0 1080 1080;" xml:space="preserve">
<style type="text/css">
	.st0{fill:#1E88E5;}
</style>
<path class="st0" d="M540,811.1C244.4,811.1,5,689.8,5,540s239.4-271.1,535-271.1s535,121.3,535,271.1S835.6,811.1,540,811.1
	 M308.6,456.6c24.1,0,40.6,4.5,48.6,13.8c8,8.9,9.8,25,5.8,45.9c-4.5,23.6-12.9,38.8-25.9,48.6c-12.5,9.8-31.7,14.7-57.5,14.7h-38.8
	l23.6-123.1H308.6 M152.6,704.1h64.2l15.2-78h54.8c24.1,0,43.7-2.7,59.3-7.6c15.6-5.3,29.9-13.8,42.8-25.9
	c10.7-9.8,19.2-20.5,25.9-32.5c6.7-11.6,11.6-25,13.8-39.2c7.1-34.8,2.2-62-14.7-81.1c-17.4-19.6-44.1-29-81.1-29h-123L152.6,704.1
	 M475.8,332.7L418.7,626H482L515,458h50.8c16,0,26.8,2.7,31.7,8c4.9,5.4,5.8,15.2,3.1,29.4L575.2,626h64.6l26.3-136.9
	c5.8-27.6,1.3-47.7-12-60.6c-13.4-12-37.9-17.8-73.6-17.8H524l16-78H475.8 M807.5,456.6c24.5,0,40.6,4.5,48.6,13.8
	c8,8.9,9.8,25,5.8,45.9c-4.5,23.6-12.9,38.8-25.4,48.6c-12.9,9.8-32.1,14.7-58,14.7h-37.9l22.3-123.1H807.5 M651.5,704.1h64.2
	l15.2-78h54.4c24.5,0,44.6-2.7,60.2-7.6c15.6-5.3,29-13.8,42.4-25.9c10.7-9.8,19.6-20.5,25.9-32.5c6.7-11.6,11.6-25,14.3-39.2
	c6.7-34.8,1.8-62-15.2-81.1c-16-19.6-44.1-29-81.1-29H709L651.5,704.1z"/>
</svg>
