<?xml version="1.0" encoding="utf-8"?>
<!-- Generator: Adobe Illustrator 24.1.1, SVG Export Plug-In . SVG Version: 6.00 Build 0)  -->
<svg version="1.1" id="Capa_1" xmlns="http://www.w3.org/2000/svg" xmlns:xlink="http://www.w3.org/1999/xlink" x="0px" y="0px"
	 viewBox="0 0 1080 1080" style="enable-background:new 0 0 1080 1080;" xml:space="preserve">
<style type="text/css">
	.st0{fill:#0288D1;}
</style>
<path class="st0" d="M365.8,743.6c-5.4-32.2-21.5-59.1-53.7-69.8c-10.7-5.4-26.9-16.1-37.6-21.5c-16.1-5.4-32.2-10.7-43-16.1
	c-10.7-5.4-21.5,0-32.2,10.7c-5.4,10.7,0,21.5,5.4,26.9c5.4,10.7,10.7,16.1,21.5,26.9c10.7,16.1,21.5,26.9,37.6,43
	c10.7,16.1,21.5,26.9,16.1,48.4c-5.4,37.6-21.5,75.2-48.4,102.1c-5.4,5.4-10.7,5.4-10.7,5.4c-16.1,0-37.6-10.7-48.4-21.5
	c-16.1-16.1-10.7-32.2,5.4-43c5.4,0,10.7-5.4,10.7-10.7c10.7-10.7,16.1-21.5,10.7-37.6c-5.4-5.4-5.4-10.7-10.7-16.1
	c-21.5-21.5-48.4-43-75.2-64.5C43.4,652.3,11.2,587.8,5.8,512.6c-5.4-86,16.1-166.6,59.1-241.8C81,244,102.5,217.1,134.8,201
	c21.5-10.7,43-16.1,64.5-21.5c59.1-16.1,123.6-26.9,188-16.1C441,174.1,484,201,500.1,254.7c10.7,37.6,16.1,69.8,10.7,107.5
	c-5.4,75.2-64.5,139.7-134.3,161.2c-32.2,10.7-48.4,5.4-64.5-21.5c-10.7-16.1-26.9-37.6-37.6-59.1v-5.4c0-5.4-5.4-5.4-5.4-10.7
	c5.4,32.2,10.7,64.5,26.9,91.3c10.7,16.1,21.5,26.9,43,26.9c69.8,5.4,123.6-16.1,166.6-69.8c43-59.1,53.7-128.9,43-204.2
	c0-16.1-5.4-26.9-10.7-43c0-10.7,0-16.1,10.7-21.5c5.4,0,10.7,0,10.7-5.4c53.7-10.7,112.8-16.1,166.6-10.7
	c64.5,5.4,123.6,21.5,177.3,59.1c86,53.7,139.7,134.3,166.6,231c5.4,16.1,5.4,26.9,5.4,43c0,10.7-5.4,10.7-16.1,5.4
	c-10.7-5.4-16.1-16.1-21.5-21.5c-5.4-5.4-10.7-16.1-16.1-21.5c-5.4-5.4-10.7-5.4-10.7,0s-5.4,10.7-5.4,16.1
	C989,555.6,967.5,604,929.9,641.6c-5.4,5.4-10.7,16.1-10.7,21.5c0,21.5-5.4,43,0,64.5c5.4,43,10.7,91.3,16.1,134.3
	c5.4,26.9-5.4,37.6-26.9,48.4c-16.1,5.4-32.2,10.7-53.7,10.7h-86c0-32.2,0-64.5-26.9-80.6c5.4-21.5,10.7-43,16.1-69.8
	c5.4-21.5,0-37.6-10.7-53.7c-10.7-16.1-26.9-16.1-43-10.7c-43,26.9-86,26.9-134.3,10.7c-21.5-5.4-37.6-5.4-48.4,16.1
	c-10.7,21.5-16.1,43-16.1,64.5c0,26.9,5.4,59.1,10.7,86c0,16.1,0,21.5-16.1,26.9c-37.6,10.7-75.2,10.7-107.5,5.4h-5.4
	c0-32.2,0-64.5-37.6-80.6C371.2,813.5,371.2,775.9,365.8,743.6L365.8,743.6z M145.5,620.1c5.4-5.4,10.7-10.7,10.7-21.5
	c5.4-16.1-10.7-43-26.9-48.4c-10.7-5.4-16.1,0-21.5,5.4c-16.1,16.1-26.9,32.2-43,48.4c0,5.4-5.4,5.4-5.4,10.7
	c-5.4,10.7,0,21.5,10.7,21.5c5.4,0,16.1,0,21.5,5.4C113.3,641.6,129.4,636.2,145.5,620.1L145.5,620.1z M145.5,442.8
	c0-10.7-10.7-21.5-21.5-21.5c-10.7,0-26.9,10.7-21.5,26.9c0,10.7,10.7,21.5,26.9,21.5C134.8,464.3,145.5,453.5,145.5,442.8z"/>
</svg>
