<?xml version="1.0" encoding="utf-8"?>
<!-- Generator: Adobe Illustrator 26.0.0, SVG Export Plug-In . SVG Version: 6.00 Build 0)  -->
<svg version="1.1" id="Capa_1" xmlns="http://www.w3.org/2000/svg" xmlns:xlink="http://www.w3.org/1999/xlink" x="0px" y="0px"
	 viewBox="0 0 1080 1080" style="enable-background:new 0 0 1080 1080;" xml:space="preserve">
<style type="text/css">
	.st0{fill:#5C6BC0;}
</style>
<path class="st0" d="M1046.1,437.6c-12,31.6-54.1,45.4-82.4,14.4C874.4,349,699.6,347.9,651,503.5c-37.1,111.9,55.4,229,219,214.1
	c35.9-2.8,61.3,29.3,50,64.7l-81.4,222.4c-20.6,54.7-73.6,84.2-136.3,63.7L79.1,841.2c-56.1-19.8-86.9-80.9-68.5-135.9L241.4,74.4
	c24.9-56.3,67.8-81.7,136.3-63.7l623.2,227.1c56.2,20,86.9,81,68.5,135.9L1046.1,437.6z M927.2,548.5c0-84-91.6-136.9-164.5-94.9
	c-72.9,42-72.9,147.7,0,189.7C835.6,685.4,927.2,632.6,927.2,548.5z"/>
</svg>
