<?xml version="1.0" encoding="utf-8"?>
<!-- Generator: Adobe Illustrator 24.1.1, SVG Export Plug-In . SVG Version: 6.00 Build 0)  -->
<svg version="1.1" id="Capa_1" xmlns="http://www.w3.org/2000/svg" xmlns:xlink="http://www.w3.org/1999/xlink" x="0px" y="0px"
	 viewBox="0 0 1080 1080" style="enable-background:new 0 0 1080 1080;" xml:space="preserve">
<style type="text/css">
	.st0{fill:#F57F17;}
</style>
<path class="st0" d="M718.1,852.1H355.6c-4.4-15.6-10.8-30.6-19.1-44.6l470.7-471.2c26.8,16.5,57.6,25.3,89.1,25.4
	c92.6,0.3,170.1-70.5,178.1-162.9c8-92.4-56.1-175.5-147.4-191.2C835.6-8.1,747.5,49,724.4,138.8H355.6
	C333.2,51.8,249.7-4.9,160.7,6.4C71.7,17.8,5,93.5,5,183.3s66.7,165.6,155.7,176.9c89,11.3,172.5-45.4,194.9-132.3h368.7
	c4.4,15.6,10.8,30.6,19.1,44.6L272.8,743.7c-26.8-16.5-57.6-25.3-89.1-25.4C91.1,718,13.7,788.9,5.7,881.3
	c-8,92.4,56.1,175.5,147.4,191.2s179.4-41.4,202.5-131.2h362.5V1075h356.3V718.3H718.1V852.1z M183.7,272.5
	c-49.2,0-89.1-39.9-89.1-89.2s39.9-89.2,89.1-89.2s89.1,39.9,89.1,89.2c0,23.6-9.4,46.3-26.1,63C230,263.1,207.3,272.5,183.7,272.5z
	 M896.3,94.2c49.2,0,89.1,39.9,89.1,89.2s-39.9,89.2-89.1,89.2s-89.1-39.9-89.1-89.2S847.1,94.2,896.3,94.2z M183.7,985.8
	c-49.2,0-89.1-39.9-89.1-89.2s39.9-89.2,89.1-89.2s89.1,39.9,89.1,89.2S232.9,985.8,183.7,985.8z M807.2,807.5h178.1v178.3H807.2
	V807.5z"/>
</svg>
