<?xml version="1.0" encoding="utf-8"?>
<!-- Generator: Adobe Illustrator 26.0.0, SVG Export Plug-In . SVG Version: 6.00 Build 0)  -->
<svg version="1.1" id="Capa_1" xmlns="http://www.w3.org/2000/svg" xmlns:xlink="http://www.w3.org/1999/xlink" x="0px" y="0px"
	 viewBox="0 0 1080 1080" style="enable-background:new 0 0 1080 1080;" xml:space="preserve">
<style type="text/css">
	.st0{fill:#EF5350;}
	.st1{fill:#4CAF50;}
</style>
<g transform="matrix(1.0322 0 0 1.0322 -.90256 -.05932)">
	<path class="st0" d="M414.4,713v-68.3l-189.9,53.8c0,0,14-81.5,113-109.6c30-8.5,55.6-8.4,76.8-4.3V304.3h95.1
		c-7.9-25.2-17.5-49.8-28.8-73.7c-13.9-28.3-28.1-9.5-60.5,17.6c-22.8,19-80.5,59.7-167.1,83C166.3,354.5,96.2,348.4,67,343.3
		C25.5,336.1,3.8,327,5.9,358.6c1.8,27.8,8.4,70.9,23.5,127.9c32.9,123.4,141.4,361.1,346.5,305.9c53.6-14.5,91.4-42.9,117.6-79.4
		L414.4,713L414.4,713z M108.1,488.2l145.7-38.4c0,0-4.2,56.1-58.9,70.5C140.3,534.6,108.1,488.2,108.1,488.2L108.1,488.2z"/>
	<path class="st1" d="M963,307.5c-37.9,6.7-128.8,14.9-241.1-15.2c-112.4-30.1-186.9-82.7-216.5-107.4c-41.9-35-60.2-59.5-78.4-22.6
		c-16,32.5-36.5,85.4-56.4,159.5C327.7,482.3,295.5,820.8,561.2,892c265.6,71.2,407.1-238.1,450.1-398.5
		c19.8-74,28.5-130.1,30.9-166.3C1044.9,286.2,1016.8,298.1,963,307.5z M429.2,440.3c0,0,41.9-65.2,112.8-44.9
		c71.1,20.1,76.6,98.7,76.6,98.7L429.2,440.3z M602.5,732.5c-124.9-36.6-144.1-136.2-144.1-136.2l335.5,93.8
		C793.9,690.1,726.1,768.6,602.5,732.5z M721.1,527.8c0,0,41.8-65.1,112.8-44.9s76.6,98.8,76.6,98.8L721.1,527.8z"/>
</g>
</svg>
