<?xml version="1.0" encoding="utf-8"?>
<!-- Generator: Adobe Illustrator 26.0.0, SVG Export Plug-In . SVG Version: 6.00 Build 0)  -->
<svg version="1.1" id="Capa_1" xmlns="http://www.w3.org/2000/svg" xmlns:xlink="http://www.w3.org/1999/xlink" x="0px" y="0px"
	 viewBox="0 0 1080 1080" style="enable-background:new 0 0 1080 1080;" xml:space="preserve">
<style type="text/css">
	.st0{fill-rule:evenodd;clip-rule:evenodd;fill:#00BFA5;}
</style>
<path class="st0" d="M191.7,701.9c15.1,198.3,147.6,373,346.4,373.1h0.4l1.5,0l1.5,0h0.4c198.8-0.1,331.3-174.8,346.4-373.1
	c0.4-5.6,0.6-11.3,0.6-17.2v-0.2c0-87.6-46.8-209.1-138.2-352.9c-47.6-74.8-95.5-149.4-143.7-223.7c-15.8-24.3-31.6-48.7-47.4-73
	c-5.7-8.8-10.2-15.7-13.3-20.4c-1.2-1.8-2.3-3.6-3.5-5.4L540,5l-2.7,4.1c-1.2,1.8-2.3,3.6-3.5,5.4c-3.1,4.7-7.6,11.6-13.3,20.4
	c-11.5,17.6-27.8,42.7-47.4,73c-48.2,74.4-96.2,148.9-143.7,223.7C237.9,475.5,191.1,597,191.1,684.6
	C191.1,690.5,191.3,696.3,191.7,701.9L191.7,701.9z M361.6,687.1c7.8,101.5,75.6,191,177.4,191.1h1.9
	c101.8-0.1,169.7-89.5,177.4-191.1c0.2-2.8,0.3-5.8,0.3-8.8v-0.1c0-44.8-24-107-70.8-180.7c-24.4-38.3-48.9-76.5-73.6-114.6
	c-10.3-15.9-20.7-31.9-31.1-47.8l-3.2-4.8l-3.2,4.8c-10.4,15.9-20.8,31.8-31.1,47.8c-24.7,38.1-49.3,76.3-73.6,114.6
	c-46.9,73.7-70.8,135.9-70.8,180.8C361.3,681.3,361.4,684.2,361.6,687.1L361.6,687.1z"/>
</svg>
