<?xml version="1.0" encoding="utf-8"?>
<!-- Generator: Adobe Illustrator 26.0.0, SVG Export Plug-In . SVG Version: 6.00 Build 0)  -->
<svg version="1.1" id="Capa_1" xmlns="http://www.w3.org/2000/svg" xmlns:xlink="http://www.w3.org/1999/xlink" x="0px" y="0px"
	 viewBox="0 0 1080 1080" style="enable-background:new 0 0 1080 1080;" xml:space="preserve">
<style type="text/css">
	.st0{fill:#FFB300;}
	.st1{fill:#E0E0E0;}
</style>
<g transform="matrix(.98233 0 0 .98233 2.648 2.6505)">
	<g transform="matrix(.94312 0 0 .94312 8.5246 8.532)">
		<path class="st0" d="M787.5-6.5h360.9v360.9H787.5L787.5-6.5z M390.5-6.5h360.9v360.9H390.5V-6.5z M-6.5-6.5h360.9v360.9H-6.5
			V-6.5z M787.6,390.5h360.9v360.9H787.6L787.6,390.5z"/>
		<path class="st1" d="M390.5,390.5h360.9v360.9H390.5V390.5z M390.5,787.5h360.9v360.9H390.5V787.5z M787.5,787.5h360.9v360.9
			H787.5L787.5,787.5z M-6.5,787.5h360.9v360.9H-6.5V787.5z"/>
	</g>
</g>
</svg>
