<?xml version="1.0" encoding="utf-8"?>
<!-- Generator: Adobe Illustrator 26.0.0, SVG Export Plug-In . SVG Version: 6.00 Build 0)  -->
<svg version="1.1" id="Capa_1" xmlns="http://www.w3.org/2000/svg" xmlns:xlink="http://www.w3.org/1999/xlink" x="0px" y="0px"
	 viewBox="0 0 1080 1080" style="enable-background:new 0 0 1080 1080;" xml:space="preserve">
<style type="text/css">
	.st0{fill:#F57F17;}
</style>
<g>
	<path class="st0" d="M826.4,292.3c-66.1,0-128.8,25.6-173.6,70.4l-0.1,0L348,633.2l-0.3,0.3c-24.9,25.1-58.7,39.1-94,38.9
		c-73.5,0-133.3-59-133.3-132.4s59.8-132.3,133.3-132.3c35.3,0,68.7,13.5,95.7,40.5l0.4,0.3l60.2,52.4l86.6-77.3l-67-58.7h-0.1
		c-46.7-46.4-109.9-72.4-175.8-72.2C116.6,292.6,5,403.7,5,540c0,137.8,111.6,247.7,248.6,247.7c66.1,0,128.7-25.6,173.6-70.4
		l304.9-270.6l0.3-0.3c24.9-25,58.7-39,94-38.8c73.4,0,133.2,59,133.2,132.4s-59.8,132.3-133.2,132.3c-35.8,0-68.8-13.5-95.7-40.5
		l-0.4-0.3l-58.8-52l-88.2,77.3l67.2,58.2c46.6,46.7,109.9,72.9,175.9,72.7c137.1,0,248.6-111.5,248.6-247.7
		C1075,403.8,963.5,292.3,826.4,292.3z"/>
</g>
</svg>
