<?xml version="1.0" encoding="utf-8"?>
<!-- Generator: Adobe Illustrator 24.1.1, SVG Export Plug-In . SVG Version: 6.00 Build 0)  -->
<svg version="1.1" id="Capa_1" xmlns="http://www.w3.org/2000/svg" xmlns:xlink="http://www.w3.org/1999/xlink" x="0px" y="0px"
	 viewBox="0 0 1080 1080" style="enable-background:new 0 0 1080 1080;" xml:space="preserve">
<style type="text/css">
	.st0{opacity:0;}
	.st1{fill:#E53935;}
</style>
<g transform="matrix(.9508 0 0 .9508 1.9436 1.919)">
	<g>
		<g>
			<g class="st0">
				<path d="M1080.8,565.5c0,285-230.4,515.8-514.9,515.8l0,0C281.4,1081.3,51,850.5,51,565.5l0,0C51,280.9,281.8,49.7,565.9,49.7
					l0,0C850.4,49.7,1080.8,280.9,1080.8,565.5L1080.8,565.5"/>
			</g>
			<g>
				<path class="st1" d="M565.9,1115.5c-302.5,0-548.6-246.6-548.6-549.5S263.4,16.4,565.9,16.4s548.6,246.6,548.6,549.5
					S868.4,1115.5,565.9,1115.5z M565.9,83.9c-265.3,0-481.2,216.2-481.2,481.6s215.9,482,481.2,482s481.2-216.2,481.2-482
					S831.2,83.9,565.9,83.9z"/>
			</g>
		</g>
		<g>
			<g class="st0">
				<polygon points="1062.9,796.7 68.9,796.7 565.9,77.9 				"/>
			</g>
			<g>
				<path class="st1" d="M1128.6,830.9H3.2L565.9,17.7L1128.6,830.9z M134.6,762.1h862.6L565.9,138.2L134.6,762.1z"/>
			</g>
		</g>
		<g>
			<g class="st0">
				<rect x="384.2" y="381.3" width="399.7" height="400.4"/>
			</g>
			<g>
				<path class="st1" d="M823.6,821.5H344.5V342h478.6v479.5H823.6z M402.9,763.3h362.2V400.1H402.9V763.3z"/>
			</g>
		</g>
		<g>
			<g class="st0">
				<path d="M762.1,572.8c0,98.7-79.8,178.2-177.9,178.2l0,0c-98.5,0-177.9-79.9-177.9-178.2l0,0c0-98.7,79.8-178.2,177.9-178.2l0,0
					C682.4,394.1,762.1,474.1,762.1,572.8L762.1,572.8"/>
			</g>
			<g>
				<path class="st1" d="M584.2,778.3c-113,0-205.2-92.3-205.2-205.5s92.1-205.5,205.2-205.5s205.2,92.3,205.2,205.5
					S697.3,778.3,584.2,778.3z M584.2,421.5c-83.2,0-150.6,67.9-150.6,150.8c0,83.3,67.8,150.8,150.6,150.8
					c83.2,0,150.6-67.9,150.6-150.8S667,421.5,584.2,421.5z"/>
			</g>
		</g>
	</g>
</g>
</svg>
