<?xml version="1.0" encoding="utf-8"?>
<!-- Generator: Adobe Illustrator 24.1.1, SVG Export Plug-In . SVG Version: 6.00 Build 0)  -->
<svg version="1.1" id="Capa_1" xmlns="http://www.w3.org/2000/svg" xmlns:xlink="http://www.w3.org/1999/xlink" x="0px" y="0px"
	 viewBox="0 0 1080 1080" style="enable-background:new 0 0 1080 1080;" xml:space="preserve">
<style type="text/css">
	.st0{fill:#ED6C47;}
	.st1{fill:#FF8F6B;}
	.st2{fill:#D35230;}
	.st3{opacity:0.1;enable-background:new    ;}
	.st4{opacity:0.2;enable-background:new    ;}
	.st5{fill:url(#SVGID_1_);}
	.st6{fill:#FFFFFF;}
</style>
<path class="st0" d="M652,589.8L577.3,42.5h-5.6C300.3,43.3,80.4,263.1,79.7,534.4v5.6L652,589.8z"/>
<path class="st1" d="M582.9,42.5h-5.6V540l248.8,99.5L1075,540v-5.6C1074.2,263.1,854.4,43.3,582.9,42.5z"/>
<path class="st2" d="M1075,540v5.5c-0.8,271.4-220.7,491.2-492.2,492h-10.9c-271.5-0.8-491.4-220.6-492.2-492V540H1075z"/>
<path class="st3" d="M602.2,287v530.8c-0.1,18.4-11.3,35-28.4,42c-5.4,2.3-11.3,3.5-17.2,3.5H197.1c-7-8-13.7-16.4-19.9-24.9
	c-63.4-84.5-97.6-187.4-97.5-293v-10.9c-0.1-95.3,27.7-188.5,80.1-268.2c5.5-8.5,11.2-16.9,17.4-24.9h379.5
	C581.7,241.7,602,262,602.2,287z"/>
<path class="st4" d="M577.3,311.9v530.8c0,5.9-1.2,11.7-3.5,17.2c-7,17.1-23.6,28.2-42.1,28.4h-312c-7.9-8-15.4-16.3-22.6-24.9
	c-7-8-13.7-16.4-19.9-24.9c-63.4-84.5-97.6-187.4-97.5-293v-10.9c-0.1-95.3,27.7-188.5,80.1-268.2h372
	C556.9,266.6,577.1,286.8,577.3,311.9z"/>
<path class="st4" d="M577.3,311.9V793c-0.2,25.1-20.5,45.3-45.5,45.5H177.2c-63.4-84.5-97.6-187.4-97.5-293v-10.9
	c-0.1-95.3,27.7-188.5,80.1-268.2h372C556.9,266.6,577.1,286.8,577.3,311.9z"/>
<path class="st4" d="M552.4,311.9V793c-0.2,25.1-20.5,45.3-45.5,45.5H177.2c-63.4-84.5-97.6-187.4-97.5-293v-10.9
	c-0.1-95.3,27.7-188.5,80.1-268.2h347.1C532,266.6,552.3,286.8,552.4,311.9z"/>
<linearGradient id="SVGID_1_" gradientUnits="userSpaceOnUse" x1="100.1422" y1="-477.2906" x2="457.2992" y2="141.2905" gradientTransform="matrix(1 0 0 1 0 708)">
	<stop  offset="0" style="stop-color:#CA4C28"/>
	<stop  offset="0.5" style="stop-color:#C5401E"/>
	<stop  offset="1" style="stop-color:#B62F14"/>
</linearGradient>
<path class="st5" d="M50.6,266.4h456.2c25.2,0,45.6,20.4,45.6,45.6V768c0,25.2-20.4,45.6-45.6,45.6H50.6C25.4,813.6,5,793.2,5,768
	V312C5,286.8,25.4,266.4,50.6,266.4z"/>
<path class="st6" d="M283.7,388c29.7-2,59.1,6.6,83.1,24.3c20,17.8,30.6,43.8,28.9,70.5c0.3,18.5-4.6,36.8-14.3,52.7
	c-9.8,15.6-23.8,28-40.5,35.8c-19.1,8.9-39.9,13.2-60.9,12.8h-57.7v107.2h-59.1V388H283.7z M222.3,537.7h50.9
	c16.1,1.2,32.1-3.6,45-13.4c10.6-10.2,16.2-24.5,15.2-39.2c0-33.4-19.4-50.1-58.3-50.1h-52.8L222.3,537.7L222.3,537.7z"/>
</svg>
