<?xml version="1.0" encoding="utf-8"?>
<!-- Generator: Adobe Illustrator 24.1.1, SVG Export Plug-In . SVG Version: 6.00 Build 0)  -->
<svg version="1.1" id="Capa_1" xmlns="http://www.w3.org/2000/svg" xmlns:xlink="http://www.w3.org/1999/xlink" x="0px" y="0px"
	 viewBox="0 0 1080 1080" style="enable-background:new 0 0 1080 1080;" xml:space="preserve">
<style type="text/css">
	.st0{fill:#03A9F4;}
</style>
<path class="st0" d="M1039.4,132.5c24.9,0,40.6,20.4,34,45.3L912.9,902.2c-5.6,25-30,45.3-54.9,45.3H40.6c-24.9,0-40.6-20.4-34-45.3
	l160.6-724.3c5.6-25,30-45.3,54.9-45.3H1039.4 M734.6,743.8H531.4c-23.4,0-42.2,19.4-42.2,42.8c0,23.9,18.8,43.3,42.2,43.3h203.2
	c23.9,0,43.2-19.4,43.2-43.3C777.8,763.1,758.5,743.8,734.6,743.8 M224,758c-20.3,14.3-24.9,42.3-10.7,62.1
	c14.2,21.4,42.7,25.5,63,11.7c373.4-263.4,376-266.4,378.5-267.9c9.1-8.2,13.7-19.4,14.2-30.6c0.5-10.2-2-18.8-8.1-28.5l-250-269
	c-16.8-18.3-45.2-19.4-63.5-1.5c-18.3,16.3-19.3,44.8-2.5,63.2l210.9,226.2L224,758z"/>
</svg>
