<?xml version="1.0" encoding="utf-8"?>
<!-- Generator: Adobe Illustrator 24.1.1, SVG Export Plug-In . SVG Version: 6.00 Build 0)  -->
<svg version="1.1" id="Capa_1" xmlns="http://www.w3.org/2000/svg" xmlns:xlink="http://www.w3.org/1999/xlink" x="0px" y="0px"
	 viewBox="0 0 1080 1080" style="enable-background:new 0 0 1080 1080;" xml:space="preserve">
<style type="text/css">
	.st0{fill-rule:evenodd;clip-rule:evenodd;fill:#56B3B4;}
	.st1{fill-rule:evenodd;clip-rule:evenodd;fill:#EA5E5E;}
	.st2{fill-rule:evenodd;clip-rule:evenodd;fill:#BF85BF;}
	.st3{fill-rule:evenodd;clip-rule:evenodd;fill:#F7BA3E;}
</style>
<desc>Created with Sketch.</desc>
<g>
	<g id="prettier-icon-dark">
		<g id="Icon-_x28_Dark_x29_">
			<g id="Group" transform="translate(10.5 10.5) scale(.9)">
				<path id="Rectangle" class="st0" d="M956.7,220.3h56.7c15.6,0,28.3,12.7,28.3,28.3l0,0c0,15.6-12.7,28.3-28.3,28.3h-56.7
					c-15.6,0-28.3-12.7-28.3-28.3l0,0C928.3,233,941,220.3,956.7,220.3z"/>
				<path class="st1" d="M106.7,1126.2H390c15.6,0,28.3,12.7,28.3,28.3l0,0c0,15.6-12.7,28.3-28.3,28.3H106.7
					c-15.6,0-28.3-12.7-28.3-28.3l0,0C78.3,1138.8,91,1126.2,106.7,1126.2z"/>
				<path class="st2" d="M786.7,673.3h170c15.6,0,28.3,12.7,28.3,28.3l0,0c0,15.6-12.7,28.3-28.3,28.3h-170
					c-15.6,0-28.3-12.7-28.3-28.3l0,0C758.3,685.9,771,673.3,786.7,673.3z"/>
				<path class="st1" d="M446.7,673.3h226.7c15.6,0,28.3,12.7,28.3,28.3l0,0c0,15.6-12.7,28.3-28.3,28.3H446.7
					c-15.6,0-28.3-12.7-28.3-28.3l0,0C418.3,685.9,431,673.3,446.7,673.3z"/>
				<path class="st0" d="M106.7,673.3h226.7c15.6,0,28.3,12.7,28.3,28.3l0,0c0,15.6-12.7,28.3-28.3,28.3H106.7
					c-15.6,0-28.3-12.7-28.3-28.3l0,0C78.3,685.9,91,673.3,106.7,673.3z"/>
				<path class="st2" d="M106.7,899.7H390c15.6,0,28.3,12.7,28.3,28.3l0,0c0,15.6-12.7,28.3-28.3,28.3H106.7
					c-15.6,0-28.3-12.7-28.3-28.3l0,0C78.3,912.4,91,899.7,106.7,899.7z"/>
				<path class="st2" d="M106.7,446.8H390c15.6,0,28.3,12.7,28.3,28.3l0,0c0,15.6-12.7,28.3-28.3,28.3H106.7
					c-15.6,0-28.3-12.7-28.3-28.3l0,0C78.3,459.5,91,446.8,106.7,446.8z"/>
				<path class="st3" d="M390,107.1h566.7c15.6,0,28.3,12.7,28.3,28.3l0,0c0,15.6-12.7,28.3-28.3,28.3H390
					c-15.6,0-28.3-12.7-28.3-28.3l0,0C361.7,119.8,374.4,107.1,390,107.1z"/>
				<path class="st1" d="M106.7,107.1h170c15.6,0,28.3,12.7,28.3,28.3l0,0c0,15.6-12.7,28.3-28.3,28.3h-170
					c-15.6,0-28.3-12.7-28.3-28.3l0,0C78.3,119.8,91,107.1,106.7,107.1z"/>
				<path class="st3" d="M333.3,1012.9H390c15.6,0,28.3,12.7,28.3,28.3l0,0c0,15.6-12.7,28.3-28.3,28.3h-56.7
					c-15.6,0-28.3-12.7-28.3-28.3l0,0C305,1025.6,317.7,1012.9,333.3,1012.9z"/>
				<path class="st0" d="M333.3,333.6H390c15.6,0,28.3,12.7,28.3,28.3l0,0c0,15.6-12.7,28.3-28.3,28.3h-56.7
					c-15.6,0-28.3-12.7-28.3-28.3l0,0C305,346.2,317.7,333.6,333.3,333.6z"/>
				<path class="st0" d="M106.7,1012.9H220c15.6,0,28.3,12.7,28.3,28.3l0,0c0,15.6-12.7,28.3-28.3,28.3H106.7
					c-15.6,0-28.3-12.7-28.3-28.3l0,0C78.3,1025.6,91,1012.9,106.7,1012.9z"/>
				<path class="st3" d="M106.7,333.6H220c15.6,0,28.3,12.7,28.3,28.3l0,0c0,15.6-12.7,28.3-28.3,28.3H106.7
					c-15.6,0-28.3-12.7-28.3-28.3l0,0C78.3,346.2,91,333.6,106.7,333.6z"/>
				<path class="st0" d="M560,560h453.3c15.6,0,28.3,12.7,28.3,28.3l0,0c0,15.6-12.7,28.3-28.3,28.3H560
					c-15.6,0-28.3-12.7-28.3-28.3l0,0C531.7,572.7,544.4,560,560,560z"/>
				<path class="st3" d="M276.7,560h170c15.6,0,28.3,12.7,28.3,28.3l0,0c0,15.6-12.7,28.3-28.3,28.3h-170
					c-15.6,0-28.3-12.7-28.3-28.3l0,0C248.3,572.7,261,560,276.7,560z"/>
				<path class="st1" d="M106.7,560h56.7c15.6,0,28.3,12.7,28.3,28.3l0,0c0,15.6-12.7,28.3-28.3,28.3h-56.7
					c-15.6,0-28.3-12.7-28.3-28.3l0,0C78.3,572.7,91,560,106.7,560z"/>
				<path class="st2" d="M616.7,220.3h226.7c15.6,0,28.3,12.7,28.3,28.3l0,0c0,15.6-12.7,28.3-28.3,28.3H616.7
					c-15.6,0-28.3-12.7-28.3-28.3l0,0C588.3,233,601,220.3,616.7,220.3z"/>
				<path class="st0" d="M106.7,220.3h396.7c15.6,0,28.3,12.7,28.3,28.3l0,0c0,15.6-12.7,28.3-28.3,28.3H106.7
					c-15.6,0-28.3-12.7-28.3-28.3l0,0C78.3,233,91,220.3,106.7,220.3z"/>
				<path class="st3" d="M276.7,786.5h510c15.6,0,28.3,12.7,28.3,28.3l0,0c0,15.6-12.7,28.3-28.3,28.3h-510
					c-15.6,0-28.3-12.7-28.3-28.3l0,0C248.3,799.2,261,786.5,276.7,786.5z"/>
				<path class="st2" d="M106.7,786.5h56.7c15.6,0,28.3,12.7,28.3,28.3l0,0c0,15.6-12.7,28.3-28.3,28.3h-56.7
					c-15.6,0-28.3-12.7-28.3-28.3l0,0C78.3,799.2,91,786.5,106.7,786.5z"/>
				<path class="st1" d="M786.7,333.6H1070c15.6,0,28.3,12.7,28.3,28.3l0,0c0,15.6-12.7,28.3-28.3,28.3H786.7
					c-15.6,0-28.3-12.7-28.3-28.3l0,0C758.3,346.2,771,333.6,786.7,333.6z"/>
				<path class="st3" d="M786.7,446.8H1070c15.6,0,28.3,12.7,28.3,28.3l0,0c0,15.6-12.7,28.3-28.3,28.3H786.7
					c-15.6,0-28.3-12.7-28.3-28.3l0,0C758.3,459.5,771,446.8,786.7,446.8z"/>
				<path class="st0" d="M106.7-6.1h680c15.6,0,28.3,12.7,28.3,28.3l0,0c0,15.6-12.7,28.3-28.3,28.3h-680
					c-15.6,0-28.3-12.7-28.3-28.3l0,0C78.3,6.6,91-6.1,106.7-6.1z"/>
			</g>
		</g>
	</g>
</g>
</svg>
