<?xml version="1.0" encoding="utf-8"?>
<!-- Generator: Adobe Illustrator 24.1.1, SVG Export Plug-In . SVG Version: 6.00 Build 0)  -->
<svg version="1.1" id="Capa_1" xmlns="http://www.w3.org/2000/svg" xmlns:xlink="http://www.w3.org/1999/xlink" x="0px" y="0px"
	 viewBox="0 0 1080 1080" style="enable-background:new 0 0 1080 1080;" xml:space="preserve">
<style type="text/css">
	.st0{fill-rule:evenodd;clip-rule:evenodd;fill:#00BFA5;}
</style>
<g id="prisma" transform="translate(-.5)">
	<path class="st0" d="M904.9,853.7L411.5,995.8c-15.1,4.3-29.5-8.3-26.4-23.2l176.3-822.1c3.3-15.4,25.1-17.8,32-3.6l326.4,674.9
		C925.9,834.7,918.9,849.7,904.9,853.7L904.9,853.7z M989.5,820.2L611.6,38.7v0c-9.5-19.5-29.3-32.4-51.7-33.6
		c-23-1.3-43.6,9.5-55.2,27.9L94.8,679.4c-12.7,20.1-12.4,45,0.7,64.9l200.4,302.2c11.9,18,32.6,28.5,54.1,28.5
		c6.1,0,12.2-0.8,18.3-2.6l581.6-167.5c17.8-5.1,32.4-17.4,40-33.7C997.5,855,997.4,836.4,989.5,820.2L989.5,820.2z"/>
</g>
</svg>
