<?xml version="1.0" encoding="utf-8"?>
<!-- Generator: Adobe Illustrator 24.1.1, SVG Export Plug-In . SVG Version: 6.00 Build 0)  -->
<svg version="1.1" id="Capa_1" xmlns="http://www.w3.org/2000/svg" xmlns:xlink="http://www.w3.org/1999/xlink" x="0px" y="0px"
	 viewBox="0 0 1080 1080" style="enable-background:new 0 0 1080 1080;" xml:space="preserve">
<style type="text/css">
	.st0{fill:#CFD8DC;}
</style>
<g transform="matrix(13.507 0 0 13.507 -18.982 -9.1065)">
	<path class="st0" d="M17,27.3h8.8h9.7V74c2.9,0.4,5.9,0.8,8.8,1.3v5H17.4v-5.5c2.9-0.4,5.9-0.8,8.8-1.3V33.2c-1.3,0-2.9,0-4.6-0.4
		c-1.7-0.4-2.9-0.4-4.2-0.8C17.4,30.6,17,29,17,27.3L17,27.3z"/>
	<path class="st0" d="M36.3,15.1V3.3c1.7-0.4,3.8-1.3,6.3-1.7c2.1-0.4,5.5-0.8,9.3-0.4C54,1.6,56.5,2.1,59,3.7
		c0.8,0.8,2.9,2.5,4.2,5.5c2.1,4.6,0.4,9.2-0.4,10.9c-2.5,5.9-8.4,8-9.3,8.4c1.7,0.4,4.2,0.8,6.7,2.9c4.6,3.8,5,8.8,5.5,10.1
		c0.8,7.1-4.6,12.2-5.5,13.5c-3.4,3.4-6.7,4.2-8.8,5c-3.4,1.3-6.7,1.3-8.8,1.3v-6.7h3.8c1.7-0.4,4.6-0.8,7.6-2.9
		c0.8-0.8,3.4-2.9,3.4-7.1c0-0.8,0.4-4.6-2.5-7.6c-1.7-1.7-3.4-2.1-5.9-2.9s-5-0.8-6.3-0.8v-5.9c1.3,0,2.9-0.4,5-1.3
		s4.2-1.3,5.9-3.4c0.8-0.8,3.4-3.8,2.9-8c0-0.8-0.4-3.4-2.5-5c-2.1-2.1-5-2.1-6.7-2.1c-2.5,0-4.6,0.8-5.5,1.3
		c-0.4,2.1-0.4,4.6-0.8,6.7C39.7,15.1,38,15.1,36.3,15.1L36.3,15.1z"/>
</g>
</svg>
