<?xml version="1.0" encoding="utf-8"?>
<!-- Generator: Adobe Illustrator 24.1.1, SVG Export Plug-In . SVG Version: 6.00 Build 0)  -->
<svg version="1.1" id="Capa_1" xmlns="http://www.w3.org/2000/svg" xmlns:xlink="http://www.w3.org/1999/xlink" x="0px" y="0px"
	 viewBox="0 0 1080 1080" style="enable-background:new 0 0 1080 1080;" xml:space="preserve">
<style type="text/css">
	.st0{fill:#EF5350;}
</style>
<path class="st0" d="M540,734.5c27.2,40.9,63.7,74.4,107,97.3l-107,107l-107-107C476.3,809,513.2,775.4,540,734.5 M783.2,501.1
	c-53.7,0-97.3,43.6-97.3,97.3l0,0c0,53.7,43.6,97.3,97.3,97.3c0,0,0,0,0,0c53.7,0,97.3-43.6,97.3-97.3v0
	C880.4,544.4,836.7,501.1,783.2,501.1 M296.8,501.1c-53.7,0-97.3,43.6-97.3,97.3c0,0,0,0,0,0c0,53.7,43.6,97.3,97.3,97.3h0
	c53.7,0,97.3-43.6,97.3-97.3v0C394.1,544.4,350.3,501.1,296.8,501.1 M783.2,379.5c107.4,0,194.5,87.1,194.5,194.5l0,0
	c0,107.4-87.1,194.5-194.5,194.5l0,0c-107.4,0-194.5-87.1-194.5-194.5l0,0C588.6,466.6,675.7,379.5,783.2,379.5L783.2,379.5
	 M296.8,379.5c107.4,0,194.5,87.1,194.5,194.5l0,0c0,107.4-87.1,194.5-194.5,194.5l0,0c-107.4,0-194.5-87.1-194.5-194.5l0,0
	C102.3,466.6,189.4,379.5,296.8,379.5L296.8,379.5 M65.3,5c85.6,180,23.8,314.2-33.6,447.5C14.2,491.4,5,531.7,5,574
	c0,161.2,130.7,291.8,291.8,291.8l0,0c10.2-0.5,20.4-1,30.6-2.4l144,144L540,1075l68.6-67.6l144-144c10.2,1.5,20.4,1.9,30.6,2.4
	c161.2,0,291.8-130.7,291.8-291.8v0c0-42.3-9.2-82.7-26.7-121.6C990.9,319.2,929.1,185,1014.7,5C886.3,105.2,703.4,184.5,540,185
	C376.6,184.5,193.7,105.2,65.3,5L65.3,5z"/>
</svg>
