<?xml version="1.0" encoding="utf-8"?>
<!-- Generator: Adobe Illustrator 24.1.1, SVG Export Plug-In . SVG Version: 6.00 Build 0)  -->
<svg version="1.1" id="Capa_1" xmlns="http://www.w3.org/2000/svg" xmlns:xlink="http://www.w3.org/1999/xlink" x="0px" y="0px"
	 viewBox="0 0 1080 1080" style="enable-background:new 0 0 1080 1080;" xml:space="preserve">
<style type="text/css">
	.st0{fill:#E53935;}
	.st1{fill:#D51C2F;}
	.st2{fill:#F5F5F5;}
</style>
<g transform="matrix(1.1304 0 0 -1.1304 5.7143 82.137)">
	<g transform="translate(2.0039 3.5924)">
		<path class="st0" d="M943.9-408.6c0-261.4-211.9-473.3-473.3-473.3C209.2-881.9-2.6-670-2.6-408.6S209.2,64.6,470.6,64.6
			C732.1,64.6,943.9-147.2,943.9-408.6"/>
		<path class="st1" d="M715-180.4l-161,1.5l-94.1,94.1l-110.5-73.4l19.1-19.1l-44.8,0.4L171.8-432.5h-59.6l37.4-37.4l-37.7-63.4
			l348.6-348.6c3.4-0.1,6.7-0.1,10.1-0.1c261.2,0,472.9,211.6,473.3,472.6L715-180.4"/>
		<path class="st2" d="M237.5-443.2c0,128.8,104.4,233.2,233.2,233.2c128.8,0,233.1-104.4,233.1-233.2L237.5-443.2z M761.6-454v21.5
			h67.4c-2.7,90.9-39.2,173.3-97.4,235.1l-50.4-50.4l-15.2,15.2l50.4,50.4c-61.8,58.2-144.2,94.7-235.1,97.3l0-67.4h-21.5v67.4
			c-90.9-2.7-173.3-39.2-235.1-97.3l50.4-50.4L260-247.7l-50.4,50.4c-58.2-61.8-94.7-144.2-97.4-235.1h67.4l0-21.5h-67.7v-78.9
			h717.4v78.9L761.6-454"/>
	</g>
</g>
</svg>
