<?xml version="1.0" encoding="utf-8"?>
<!-- Generator: Adobe Illustrator 24.1.1, SVG Export Plug-In . SVG Version: 6.00 Build 0)  -->
<svg version="1.1" id="Capa_1" xmlns="http://www.w3.org/2000/svg" xmlns:xlink="http://www.w3.org/1999/xlink" x="0px" y="0px"
	 viewBox="0 0 1080 1080" style="enable-background:new 0 0 1080 1080;" xml:space="preserve">
<style type="text/css">
	.st0{fill:#EFCCA3;}
	.st1{fill:#CCAC8D;}
	.st2{fill:#FFFFFF;}
	.st3{fill:#56332B;}
	.st4{fill:#442823;}
	.st5{fill:#7F4A41;}
	.st6{fill:#331712;}
</style>
<g transform="translate(-.25 -1.7109)">
	<path class="st0" d="M900.6,417.7c-1.7-36.8,3.3-69.5-13.4-97.1c-40.1-68.7-140.3-108.9-340.7-108.9v5.9h-4.2h4.2v-5.9
		c-200.4,0-305.7,40.2-345.7,109.7c-15.9,28.5-14.2,60.3-16.7,97.1c-1.7,29.3-15,60.3-9.2,93.8c6.7,43.5,9.2,87.1,15.9,127.3
		c5,32.7,50.1,60.3,54.3,91.3c11.7,85.4,100.2,124.8,300.6,124.8v6.7h-5h5.8v-6.7c200.4,0,285.6-39.4,296.5-124.8
		c4.2-31.8,45.9-58.6,50.9-91.3c6.7-40.2,9.2-83.7,15.9-127.3C915.6,478.8,902.3,447,900.6,417.7z"/>
	<path class="st1" d="M543.2,447.8c35.9,0.8,61,23.4,84.3,44.4c27.6,24.3,74.3,41,93.5,62c19.2,20.9,44.3,41.9,53.4,74.5
		s11.7,74.5,11.7,85.4c0,10.9,5.8,8.4,22.5,0c39.3-19.3,82.7-71.2,82.7-71.2c-5,32.7-47.6,62-51.8,92.9
		c-10,85.4-92.7,126.4-297.3,126.4h-0.8h5"/>
	<path class="st1" d="M675.1,382.5c7.5,26,34.2,113.9-17.5,84.6c0,0,21.7,12.6,35.1,60.3c14.2,47.7,48.4,53.6,48.4,53.6
		s56,10.9,97.7-25.1c35.1-30.1,40.9-83.7,25.9-124.8c-15-40.2-41.8-52.8-81-61.1C744.4,360.8,665.9,353.2,675.1,382.5z"/>
	<ellipse cx="774.5" cy="478" rx="73.5" ry="73.7"/>
	<ellipse class="st2" cx="755.3" cy="445.3" rx="19.2" ry="19.3"/>
	<path class="st0" d="M662.6,474.6c0,0,66,45.2,101.9,89.6c35.9,44.4,35.1,52.8,35.1,52.8l-25.9,11.7c0,0-36.7-69.5-81.8-95.5
		c-45.9-26-50.9-47.7-50.9-47.7L662.6,474.6z"/>
	<path class="st1" d="M545.7,447.8c-35.9,0.8-62.6,23.4-86.9,44.4c-27.6,24.3-76,41-95.2,62c-19.2,20.9-45.1,41.9-54.3,74.5
		s-12.5,74.5-12.5,85.4c0,10.9,1.7,11.7-22.5,0c-39.3-18.4-82.7-71.2-82.7-71.2c5,32.7,47.6,62,51.8,92.9
		c11.7,85.4,94.4,126.4,299,126.4h4.2"/>
	<path class="st3" d="M739.4,589.3c-40.1-49.4-104.4-95.5-193.7-95.5h-0.8c-89.4,0-153.7,46.1-193.7,95.5
		c-41.8,51.1-38.4,71.2-38.4,119.7c0,175.8,61.8,125.6,102.7,147.4c41.8,20.9,85.2,14.2,129.4,14.2h0.8c45.1,0,87.7,5.9,129.4-15.1
		c40.9-20.9,102.7,31,102.7-144.9C778.7,662.2,781.2,640.4,739.4,589.3z"/>
	<path class="st4" d="M541.5,537.4c0,0-5.8,81.2-17.5,97.1l21.7-5L541.5,537.4z"/>
	<path class="st4" d="M547.3,537.4c0,0,5.8,81.2,17.5,97.1l-21.7-5L547.3,537.4z"/>
	<path class="st3" d="M477.2,518.2c-8.4-19.3,21.7-50.2,69.3-51.1c47.6,0,77.7,31,69.3,51.1c-8.4,20.1-38.4,26-69.3,26.8
		C516.4,544.1,485.5,538.3,477.2,518.2z"/>
	<path d="M546.5,537.4c0-3.3,28.4-4.2,43.4-14.2c0,0-30.9,10-37.6,5.9c-6.7-3.3-8.4-13.4-8.4-13.4s-2.5,10-7.5,13.4
		c-5.8,3.3-40.9-5.9-40.9-5.9s46.8,11.7,46.8,14.2s-0.8,10.9-0.8,16.7c0,20.9,0,72.8,3.3,77c5,7.5,3.3-56.1,3.3-77
		C547.3,547.5,547.3,540.8,546.5,537.4z"/>
	<path class="st5" d="M548.2,649.6c14.2,0,39.3,10,61.8,26c-21.7-24.3-47.6-41-61.8-41c-15,0-46.8,18.4-69.3,45.2
		C502.3,661.4,532.3,649.6,548.2,649.6z"/>
	<g>
		<path class="st4" d="M542.3,797.8c-31.7,0-62.6-10-91-17.6c-5.8-1.7-11.7,2.5-17.5,0.8c-52.6-16.7-95.2-45.2-121.1-81.2v8.4
			c0,175.8,61.8,126.4,102.7,147.4c41.8,20.9,85.2,14.2,129.4,14.2h0.8c45.1,0,87.7,5.9,129.4-15.1
			c40.9-20.9,102.7,30.1,102.7-145.7c0-6.7,0-13.4,0.8-19.3c-24.2,39.4-68.5,70.3-123.6,88.8c-5,1.7-16.7-2.5-21.7-1.7
			C603.3,787,576.6,797.8,542.3,797.8z"/>
		<path class="st4" d="M463,703.2c0,0-20.9,62.8-6.7,90.4l-19.2-8.4C437.1,785.3,451.3,721.6,463,703.2z"/>
		<path class="st4" d="M628.4,703.2c0,0,20.9,62.8,6.7,90.4l19.2-8.4C654.2,785.3,639.2,721.6,628.4,703.2z"/>
	</g>
	<path class="st1" d="M409.6,382.5c-7.5,26-34.2,113.9,17.5,84.6c0,0-21.7,12.6-35.1,60.3c-13.4,47.7-48.4,53.6-48.4,53.6
		s-56,10.9-97.7-25.1c-35.1-30.1-40.9-83.7-25.9-124.8c15-41,41.8-52.8,81-61.1C340.2,360.8,417.9,353.2,409.6,382.5z"/>
	<path d="M545.7,634.6c22.5,0,92.7,48.6,93.5,108v-3.3c0-62-56.8-111.4-93.5-111.4s-93.5,50.2-93.5,111.4v3.3
		C453,683.1,523.1,634.6,545.7,634.6z"/>
	<g>
		
			<ellipse transform="matrix(0.9686 -0.2486 0.2486 0.9686 -108.3028 155.311)" class="st6" cx="560.8" cy="506.5" rx="6.7" ry="12.6"/>
		
			<ellipse transform="matrix(0.295 -0.9555 0.9555 0.295 -114.0641 858.4196)" class="st6" cx="524.7" cy="506.5" rx="12.6" ry="6.7"/>
	</g>
	<ellipse cx="314.3" cy="478" rx="73.5" ry="73.7"/>
	<ellipse class="st2" cx="333.6" cy="445.3" rx="19.2" ry="19.3"/>
	<path class="st5" d="M567.4,478.8c0-0.8-19.2,8.4-24.2,9.2c-5-0.8-24.2-10-24.2-9.2h24.2H567.4z"/>
	<path class="st0" d="M421.2,474.6c0,0-66,45.2-101.9,89.6S284.3,617,284.3,617l25.9,11.7c0,0,36.7-69.5,81.8-95.5
		s50.9-47.7,50.9-47.7L421.2,474.6z"/>
	<g>
		<path class="st1" d="M276.8,340.7c0,0-22.5,62-72.7,87.9C204.1,428.6,282.6,419.4,276.8,340.7z"/>
		<path class="st1" d="M803.7,340.7c0,0,22.5,62,72.7,87.9C876.4,428.6,797.9,419.4,803.7,340.7z"/>
		<path class="st1" d="M660.9,456.2c0,0-49.3-51.9-115.2-53.6h0.8h0.8c-66.8,1.7-115.2,53.6-115.2,53.6
			c57.6-40.2,106.9-39.4,115.2-39.4C546.5,416.9,603.3,416,660.9,456.2z"/>
		<path class="st1" d="M603.3,347.4c0,0-25.1-35.2-58.5-36h0.8h0.8c-25.1,0.8-57.6,36-57.6,36c28.4-27.6,57.6-26.8,57.6-26.8
			S574.1,319.7,603.3,347.4z"/>
		<path class="st1" d="M314.3,604.4c0,0-39.3,19.3-67.6,7.5h-0.8c-25.1-14.2-37.6-56.9-37.6-56.9S233.3,630.4,314.3,604.4z"/>
		<path class="st1" d="M772,604.4c0,0,39.3,19.3,67.6,7.5c33.4-14.2,38.4-56.9,38.4-56.9S853,630.4,772,604.4z"/>
	</g>
	<path class="st1" d="M359.4,336.5c21.7-4.2,57.6-5,86,4.2c35.9,12.6,6.7,58.6,14.2,61.1s17.5-31.8,84.3-28.5
		c67.6,3.3,75.2,33.5,84.3,28.5c9.2-5-9.2-83.7,91.9-65.3c0,0-106.1-28.5-101.1,48.6c0,0-61-46.9-146.1-5
		C473.9,380,495.6,308,359.4,336.5z"/>
	<g>
		<path class="st1" d="M729.4,336.5c1.7,0,2.5,0.8,3.3,0.8C733.6,337.3,731.9,336.5,729.4,336.5z"/>
		<path class="st1" d="M729.4,336.5"/>
		<path class="st1" d="M330.2,233.5c0,0-90.2,113.9-103.6,157.4c-13.4,44.4-23.4,226.1-35.1,252l-41.8-179.2L226.7,277L330.2,233.5z
			"/>
		<path class="st1" d="M754.5,233.5c0,0,90.2,113.9,103.6,157.4c13.4,44.4,23.4,226.1,35.1,252l41.8-179.2L858,277L754.5,233.5z"/>
	</g>
	<path class="st3" d="M750.3,233.5c0,0,96.9,81.2,125.3,175s16.7,207.7,38.4,221.9c30.9,20.1,66-99.6,77.7-112.2
		c18.4-20.1,79.3-71.2,83.5-80.4c4.2-9.2-123.6-149-179.6-176.7C828,229.3,744.4,226.8,750.3,233.5z"/>
	<path class="st4" d="M833,283.7c0,0,114.4,146.5,112.7,329.1l45.9-93.8C990.8,519,950.7,399.3,833,283.7z"/>
	<path class="st3" d="M330.2,233.5c0,0-96.9,81.2-125.3,175s-16.7,207.7-38.4,221.9c-30.9,20.1-66-99.6-77.7-112.2
		C70.5,498.1,9.5,447,5.3,437.8s123.6-149,179.6-176.7C252.5,229.3,336.1,226.8,330.2,233.5z"/>
	<path class="st4" d="M247.5,283.7c0,0-114.4,146.5-112.7,329.1L89.7,519C89.7,519,129.8,399.3,247.5,283.7z"/>
	<path class="st1" d="M185.7,616.1c0,0,8.4,45.2,21.7,59.5c13.4,14.2,4.2-10.9,4.2-10.9s-14.2-7.5-11.7-65.3
		C202.4,541.6,185.7,616.1,185.7,616.1z"/>
	<path class="st1" d="M898.1,616.1c0,0-8.4,45.2-21.7,59.5c-13.4,14.2-4.2-10.9-4.2-10.9s14.2-7.5,11.7-65.3
		C881.4,541.6,898.1,616.1,898.1,616.1z"/>
	<g>
		<ellipse class="st4" cx="458.8" cy="581.8" rx="6.7" ry="6.7"/>
		<ellipse class="st4" cx="420.4" cy="622" rx="6.7" ry="6.7"/>
		<ellipse class="st4" cx="407.9" cy="581.8" rx="6.7" ry="6.7"/>
	</g>
	<g>
		<ellipse class="st4" cx="621.7" cy="581.8" rx="6.7" ry="6.7"/>
		<ellipse class="st4" cx="660.1" cy="622" rx="6.7" ry="6.7"/>
		<ellipse class="st4" cx="672.6" cy="581.8" rx="6.7" ry="6.7"/>
	</g>
</g>
</svg>
