<?xml version="1.0" encoding="utf-8"?>
<!-- Generator: Adobe Illustrator 24.1.1, SVG Export Plug-In . SVG Version: 6.00 Build 0)  -->
<svg version="1.1" id="Capa_1" xmlns="http://www.w3.org/2000/svg" xmlns:xlink="http://www.w3.org/1999/xlink" x="0px" y="0px"
	 viewBox="0 0 1080 1080" style="enable-background:new 0 0 1080 1080;" xml:space="preserve">
<style type="text/css">
	.st0{fill:#F7931E;}
</style>
<g id="layer1" transform="translate(0,-308.2677)">
	<path id="path3062" class="st0" d="M859.9,515.2c-1.6,0-54.2,53.9-53.8,55.1c0.5,1.5,36.6,38.1,118.8,120.8
		c43.3,43.6,56.7,57.7,55.9,59.1c-0.6,1-39.8,41-87,88.7c-47.3,47.8-86.4,87.6-87,88.7c-0.8,1.4,5.5,8.5,25.7,28.7
		c14.7,14.8,27.1,26.8,27.6,26.8c0.5,0,47.7-47.3,104.9-105.2c68.6-69.3,105.1-107,107.1-110.7c2.5-4.7,3-7.4,3-17.5
		c0-10-0.4-12.8-2.9-17.9c-2.2-4.5-28.6-32-107.2-111.4C907.5,562.6,860.3,515.2,859.9,515.2z M377.3,611.4c-33.1,0-54.2,0-55.3,0.1
		c-2.2,0.2-4,0.9-4,1.5c0,0.6,13.7,13.9,30.4,29.7c16.7,15.8,34.7,32.8,40,37.8l9.6,9.1h182c120.9,0,181.9-0.4,181.9-1.2
		c0-1.3-10.6-11.8-53.1-51.8l-26.2-24.6l-178.3-0.4C455.4,611.4,410.4,611.4,377.3,611.4L377.3,611.4z M220,712.8L116.7,816.9
		C48.5,885.6,11.9,923.4,9.2,927.9c-4,6.6-4.2,7.4-4.2,19.4c0,11.6,0.3,13.1,3.7,18.8c2.3,4,26.4,29.2,66.4,69.6
		c34.6,34.8,81.2,81.8,103.6,104.4c22.4,22.6,41,41.1,41.4,41.1s12.7-12.1,27.4-26.9c14.7-14.8,26.6-27.4,26.3-28.2
		c-0.5-1.4-38.1-39.6-122.5-124.5c-40.4-40.6-53-54-52.1-55.4c0.6-1,40-41.2,87.6-89.2c47.6-48.1,86.7-88.1,86.9-88.9
		c0.2-0.8-11.8-13.7-26.7-28.5L220,712.8z M581,808.7c-90.6,0.1-181.5,0.6-183.2,1.5c-1.5,0.8-7.6,6-13.4,11.7
		c-14,13.4-51.3,48.7-60.5,57.1c-4,3.6-6.9,7.1-6.5,7.7c0.4,0.7,76,1.2,182.6,1.2h181.8l24.2-22.9c13.3-12.6,31.6-29.9,40.7-38.4
		c9.1-8.5,16.2-16.1,15.8-16.6C762,809,671.7,808.7,581,808.7z M499.9,1007c-156.4,0-181.9,0.2-181.9,1.8c0,1,2.7,4.3,6.1,7.3
		c5.4,4.8,29.7,27.5,59.1,55.5c5.2,4.9,11.1,10.2,13.1,11.7l3.6,2.8l180.7-0.4c133.7-0.2,180.8-0.6,181.1-1.7
		c0.3-0.8-17.6-18.5-39.7-39.2l-40.2-37.8H499.9z"/>
</g>
</svg>
