<?xml version="1.0" encoding="utf-8"?>
<!-- Generator: Adobe Illustrator 24.1.1, SVG Export Plug-In . SVG Version: 6.00 Build 0)  -->
<svg version="1.1" id="Capa_1" xmlns="http://www.w3.org/2000/svg" xmlns:xlink="http://www.w3.org/1999/xlink" x="0px" y="0px"
	 viewBox="0 0 1080 1080" style="enable-background:new 0 0 1080 1080;" xml:space="preserve">
<style type="text/css">
	.st0{fill:#757575;}
	.st1{fill:#3C78AA;}
	.st2{fill:#FDD835;}
</style>
<path class="st0" d="M651.4,303.7c-52,0-94.2-40.2-94.2-89.6V5h-408C97.4,5,55.2,45.2,55.2,94.6V935c0,49.4,42.2,89.6,94.2,89.6
	h627.7c52,0,94.2-40.2,94.2-89.6V303.7H651.4z M607.7,769.4c0,27.6-22.4,50-50,50h-350c-27.6,0-50-22.4-50-50v0
	c0-27.6,22.4-50,50-50h350C585.3,719.4,607.7,741.8,607.7,769.4L607.7,769.4z M759.2,565.7c0,27.6-22.4,50-50,50h-500
	c-27.6,0-50-22.4-50-50v0c0-27.6,22.4-50,50-50h500C736.8,515.7,759.2,538.1,759.2,565.7L759.2,565.7z"/>
<path class="st0" d="M644.7,246.7H846L613.3,25.3v191.6C613.3,233.3,627.3,246.7,644.7,246.7z"/>
<g transform="translate(12 12) scale(.5)">
	<g transform="translate(-1.5418e-7 -.00046865)">
		<g>
			<path class="st1" d="M1405.8,1107.5c-80.7,0-146,65.2-146,145.6v85.6h219c19.9,0,36.3,29.1,36.3,49h-364.5
				c-80.7,0-146,65.2-146,145.6v192.6c0,80.5,65.3,145.6,146,145.6h60.2v-136.4c0-80.5,64.9-145.6,145.6-145.6h268
				c80.7,0,146-64.8,146-145.2v-191c0-80.5-65.3-145.6-146-145.6L1405.8,1107.5z M1369.1,1189.4c20.4,0,36.7,6.2,36.7,36.2
				s-16.3,45.4-36.7,45.4c-19.9,0-36.3-15.3-36.3-45.4S1349.2,1189.4,1369.1,1189.4z"/>
			<path class="st2" d="M1819.3,1362.1v136.4c0,80.5-64.8,145.6-145.5,145.6h-268c-80.7,0-146,64.7-146,145.1v191
				c0,80.5,65.3,145.7,145.9,145.7l0,0h218.6c80.6,0,146-65.3,146-145.7l0,0v-85.6h-219.1c-19.9,0-36.2-29-36.2-48.9h364.6
				c80.6,0,146-65.3,146-145.7l0,0v-192.5c0-80.5-65.4-145.6-146-145.6L1819.3,1362.1z M1327.2,1592l-0.2,0.2
				c0.6-0.1,1.3-0.1,1.9-0.2H1327.2z M1661.1,1962.5c19.9,0,36.3,15.3,36.3,45.4c0,20-16.3,36.2-36.3,36.1
				c-20.4,0-36.7-6.1-36.7-36.1C1624.4,1977.8,1640.6,1962.5,1661.1,1962.5z"/>
		</g>
	</g>
</g>
</svg>
