<?xml version="1.0" encoding="utf-8"?>
<!-- Generator: Adobe Illustrator 24.1.1, SVG Export Plug-In . SVG Version: 6.00 Build 0)  -->
<svg version="1.1" id="Capa_1" xmlns="http://www.w3.org/2000/svg" xmlns:xlink="http://www.w3.org/1999/xlink" x="0px" y="0px"
	 viewBox="0 0 1080 1080" style="enable-background:new 0 0 1080 1080;" xml:space="preserve">
<style type="text/css">
	.st0{fill:#3C78AA;}
	.st1{fill:#FDD835;}
</style>
<g transform="translate(-1.5418e-7 -.00046865)">
	<g>
		<path class="st0" d="M425.5,5c-84.5,0-153,68.5-153,153v89.9H502c20.9,0,38,30.5,38,51.4H158c-84.5,0-153,68.5-153,153v202.3
			c0,84.5,68.4,153,153,153h63.1V664.2c0-84.5,68-153,152.6-153h280.9c84.5,0,153-68,153-152.6V158c0-84.5-68.4-153-153-153L425.5,5
			z M387,91.1c21.4,0,38.5,6.5,38.5,38s-17.1,47.7-38.5,47.7c-20.9,0-38-16.1-38-47.7S366.2,91.1,387,91.1z"/>
		<path class="st1" d="M858.8,272.5v143.4c0,84.5-67.9,153-152.5,153H425.5c-84.5,0-153,67.9-153,152.5v200.6
			c0,84.5,68.4,153,152.9,153.1c0,0,0,0,0,0h229c84.5,0,153-68.5,153-153c0,0,0,0,0,0V832H577.9c-20.9,0-37.9-30.4-37.9-51.3h382
			c84.5,0,153-68.5,153-153c0,0,0,0,0,0V425.5c0-84.5-68.5-153-153-153L858.8,272.5z M343.1,514l-0.2,0.2c0.6-0.1,1.3-0.1,2-0.2
			H343.1z M693,903.2c20.9,0,38,16.1,38,47.7c0,21-17.1,38-38,37.9c-21.4,0-38.5-6.4-38.5-37.9S671.6,903.2,693,903.2z"/>
	</g>
</g>
</svg>
