<?xml version="1.0" encoding="utf-8"?>
<!-- Generator: Adobe Illustrator 24.1.1, SVG Export Plug-In . SVG Version: 6.00 Build 0)  -->
<svg version="1.1" id="Capa_1" xmlns="http://www.w3.org/2000/svg" xmlns:xlink="http://www.w3.org/1999/xlink" x="0px" y="0px"
	 viewBox="0 0 1080 1080" style="enable-background:new 0 0 1080 1080;" xml:space="preserve">
<style type="text/css">
	.st0{fill:#FBC02D;}
</style>
<g transform="translate(.40625)">
	<g transform="translate(-.6031 .86453)">
		<g transform="translate(.066291)">
			<g transform="translate(-.13258)">
				<path class="st0" d="M537.4,744.8c41.9-51.3,68.4-136.9,68.4-220.7c0-91.5-32.5-179.6-87.3-238.6c-53.9-58.2-124-86.4-213-86.4
					s-159.1,28.2-213,86.4c-54.7,59-87.3,147.1-87.3,240.4s32.5,181.3,87.3,240.4c53.9,58.2,124.9,86.4,213,86.4
					c64.2,0,112.1-12.8,161.7-42.8l73.6,69.3l65-69.3L537.4,744.8z M379.1,595.2l-65,69.3l65.9,62.4c-19.7,10.3-47.9,16.3-75.3,16.3
					c-102.7,0-171.1-86.4-171.1-217.3S202,308.6,305.5,308.6c104.4,0,171.9,85.5,171.9,218.1c0,51.3-9.4,97.5-28.2,135.1
					L379.1,595.2z"/>
			</g>
			<path class="st0" d="M800.6,200.2l-28.5,186.4h-69.9l-15.8,93.2h69.9l-14.9,93.2h-69.9l-15.8,93.2h69.9l-28.4,186.4h93.2
				l28.4-186.4h46.6L837,852.7h93.2l28.4-186.4h69.9l15.8-93.2h-69.9l14.9-93.2h69.9l15.8-93.2h-69.9l28.5-186.4h-93.2L912,386.6
				h-46.6l28.5-186.4L800.6,200.2z M849.5,479.8h46.6l-14.9,93.2h-46.6L849.5,479.8z"/>
		</g>
	</g>
</g>
</svg>
