<?xml version="1.0" encoding="utf-8"?>
<!-- Generator: Adobe Illustrator 24.1.1, SVG Export Plug-In . SVG Version: 6.00 Build 0)  -->
<svg version="1.1" id="Capa_1" xmlns="http://www.w3.org/2000/svg" xmlns:xlink="http://www.w3.org/1999/xlink" x="0px" y="0px"
	 viewBox="0 0 1080 1080" style="enable-background:new 0 0 1080 1080;" xml:space="preserve">
<style type="text/css">
	.st0{fill:#1976D2;}
</style>
<g transform="matrix(.01712 0 0 .01712 -120.01 51.331)">
	<path class="st0" d="M44646.1,28544c0,3367.1-2728.7,6096.6-6094.7,6096.6l0,0c-3366,0-6094.7-2729.5-6094.7-6096.6v0
		c0-3367.1,2728.7-6096.6,6094.7-6096.6l0,0C41917.4,22447.4,44646.1,25177,44646.1,28544L44646.1,28544z M65605.3,12917.5
		c-1325.3-2280.7-2933.9-4384.5-4787.4-6261l-7045.7,4069.2C51576.1,8849.2,49080,7411.8,46415.9,6461
		c-2405.4,2438.5-4316.3,5163.3-5693.8,8126.7c7842.9-534,15943,2305.4,23462.9,8182.4l4434.2-2560.8
		c-692.6-2548.1-1705.3-4998.2-3013.9-7291.6V12917.5z M65607.1,44167c1311.9-2288.4,2328.9-4733.8,3026.7-7277.8L61588,32820
		c526.6-2840.6,523-5721.7,14.1-8505.1c-3313.9-864.5-6628.3-1157.5-9882.5-869.1c4383.8,6527.5,5975.5,14964.1,4647.5,24417
		l4434.2,2560.8c1859.7-1874.1,3474.5-3976.4,4805.8-6256.7L65607.1,44167z M38554.1,59793.6c2637.2-7.7,5262.8-349.4,7814.1-1016.9
		v-8138.2c2722.6-964.2,5214.9-2407.7,7370.3-4240.4c-908.5-3303.1-2312-6320.9-4188.9-8995.7
		c-3459.1,7061.2-9967.5,12658.7-18815.4,16234.6v5121.9c2552.4,674.1,5179.8,1021.8,7819.6,1034.9L38554.1,59793.6z M11498.7,44170
		c1325.3,2280.7,2933.9,4384.5,4787.4,6261l7045.7-4069.2c2196.1,1876.5,4692.1,3313.9,7356.3,4264.7
		c2405.4-2438.6,4316.3-5163.3,5693.8-8126.7c-7842.9,533.9-15943-2305.4-23462.9-8182.4l-4434.2,2560.8
		c692.6,2548.1,1705.3,4998.2,3013.9,7291.6L11498.7,44170z M11496.9,12920.5C10185,15208.9,9168,17654.3,8470.2,20198.3
		l7045.7,4069.2c-526.6,2840.6-523,5721.7-14.1,8505.1c3313.9,864.6,6628.3,1157.6,9882.5,869.2
		c-4383.8-6527.5-5975.5-14964.1-4647.5-24417L16302.6,6664c-1859.7,1874.1-3474.5,3976.4-4805.8,6256.7L11496.9,12920.5z
		 M38549.8-2706c-2637.2,7.7-5262.8,349.4-7814.1,1016.9v8138.2c-2722.6,964.2-5214.9,2407.7-7370.3,4240.4
		c908.5,3303.1,2312,6320.9,4188.9,8995.7C31013.7,12624,37521.8,7026.5,46369.7,3450.6v-5121.9
		c-2552.3-674.1-5179.8-1021.8-7819.6-1034.9L38549.8-2706z"/>
</g>
</svg>
