<?xml version="1.0" encoding="utf-8"?>
<!-- Generator: Adobe Illustrator 24.1.1, SVG Export Plug-In . SVG Version: 6.00 Build 0)  -->
<svg version="1.1" id="Capa_1" xmlns="http://www.w3.org/2000/svg" xmlns:xlink="http://www.w3.org/1999/xlink" x="0px" y="0px"
	 viewBox="0 0 1080 1080" style="enable-background:new 0 0 1080 1080;" xml:space="preserve">
<style type="text/css">
	.st0{fill:#1976D2;}
</style>
<path class="st0" d="M540,127.5C245.8,127.5,5,288,5,486.5c0,175.5,190.5,321,440.8,352v114h182.4V839.1
	c45.5-4.8,87.7-13.4,127.9-25.7L830,952.5h206.5L912.4,743.3c100-65.3,162.6-156.8,162.6-256.8C1075,288,834.3,127.5,540,127.5
	 M621.8,267.7c224.7,0,390.5,74.9,390.5,245.6c0,91.5-49.2,155.7-129.5,195.3c-4.8-2.7-9.1-5.4-11.8-8
	c-19.3-8.6-51.4-18.2-51.4-18.2s159.4-11.8,159.4-170.7c0-158.9-166.9-161.6-166.9-161.6H445.8v383.1
	c-136.4-39.6-230.6-123.6-230.6-219.9C215.2,377.4,397.1,267.7,621.8,267.7 M629.9,480.6h110.7c0,0,50.8-2.7,50.8,50.3
	c0,51.9-50.8,51.9-50.8,51.9H629.9L629.9,480.6 M628.3,716.5h49.2c9.6,0,14.4,2.7,23,10.7c7,5.4,14.4,15.5,20.9,24.6
	c-29.4,3.7-60.5,5.4-93.1,5.4L628.3,716.5z"/>
</svg>
