<?xml version="1.0" encoding="utf-8"?>
<!-- Generator: Adobe Illustrator 24.1.1, SVG Export Plug-In . SVG Version: 6.00 Build 0)  -->
<svg version="1.1" id="Capa_1" xmlns="http://www.w3.org/2000/svg" xmlns:xlink="http://www.w3.org/1999/xlink" x="0px" y="0px"
	 viewBox="0 0 1080 1080" style="enable-background:new 0 0 1080 1080;" xml:space="preserve">
<style type="text/css">
	.st0{fill:#0288D1;}
	.st1{fill:#E53935;}
</style>
<g transform="matrix(.80459 0 0 .80459 49.76 49.948)">
	<g>
		<path id="blue-piece" class="st0" d="M1132.5,1019.5c88.8-113,141.7-255.5,141.7-410.4c0-367.2-297.7-664.9-664.9-664.9
			c-79.9,0-156.5,14.1-227.4,39.9C651.8,125.7,1008.9,587.7,1132.5,1019.5L1132.5,1019.5z"/>
		<path id="left-red-piece" class="st1" d="M514.1,368.3C410.3,256.5,294.2,167.8,171.2,108.9C32.2,230.8-55.6,409.7-55.6,609.1
			c0,167.7,62.1,320.8,164.5,437.8C199.1,775.6,368.8,514.3,514.1,368.3L514.1,368.3z"/>
		<path id="bottom-red-piece" class="st1" d="M636.6,519.1c-144,155.1-287.4,426.7-339.3,677.3c93.1,49.5,199.2,77.7,312,77.7
			c115.9,0,224.9-29.7,319.8-81.9C874.5,939.4,771.2,707.9,636.6,519.1L636.6,519.1z"/>
	</g>
</g>
</svg>
