<?xml version="1.0" encoding="utf-8"?>
<!-- Generator: Adobe Illustrator 24.1.1, SVG Export Plug-In . SVG Version: 6.00 Build 0)  -->
<svg version="1.1" id="Capa_1" xmlns="http://www.w3.org/2000/svg" xmlns:xlink="http://www.w3.org/1999/xlink" x="0px" y="0px"
	 viewBox="0 0 1080 1080" style="enable-background:new 0 0 1080 1080;" xml:space="preserve">
<style type="text/css">
	.st0{fill:#42A5F5;}
</style>
<path class="st0" d="M227.9,138.8h89.2v89.2h-89.2v222.9c0,49.2-39.9,89.2-89.2,89.2c49.2,0,89.2,39.9,89.2,89.2v222.9h89.2v89.2
	h-89.2c-47.7-12-89.2-40.1-89.2-89.2V673.8c0-49.2-39.9-89.2-89.2-89.2H5v-89.2h44.6c49.2,0,89.2-39.9,89.2-89.2V227.9
	C138.8,178.7,178.7,138.8,227.9,138.8 M852.1,138.8c49.2,0,89.2,39.9,89.2,89.2v178.3c0,49.2,39.9,89.2,89.2,89.2h44.6v89.2h-44.6
	c-49.2,0-89.2,39.9-89.2,89.2v178.3c0,49.2-39.9,89.2-89.2,89.2h-89.2v-89.2h89.2V629.2c0-49.2,39.9-89.2,89.2-89.2
	c-49.2,0-89.2-39.9-89.2-89.2V227.9h-89.2v-89.2H852.1 M540,673.8c24.6,0,44.6,20,44.6,44.6s-20,44.6-44.6,44.6s-44.6-20-44.6-44.6
	S515.4,673.8,540,673.8 M361.7,673.8c24.6,0,44.6,20,44.6,44.6s-20,44.6-44.6,44.6c-24.6,0-44.6-20-44.6-44.6S337,673.8,361.7,673.8
	 M718.3,673.8c24.6,0,44.6,20,44.6,44.6s-20,44.6-44.6,44.6s-44.6-20-44.6-44.6S693.7,673.8,718.3,673.8z"/>
</svg>
