<?xml version="1.0" encoding="utf-8"?>
<!-- Generator: Adobe Illustrator 24.1.1, SVG Export Plug-In . SVG Version: 6.00 Build 0)  -->
<svg version="1.1" id="Capa_1" xmlns="http://www.w3.org/2000/svg" xmlns:xlink="http://www.w3.org/1999/xlink" x="0px" y="0px"
	 viewBox="0 0 1080 1080" style="enable-background:new 0 0 1080 1080;" xml:space="preserve">
<style type="text/css">
	.st0{fill:#42A5F5;}
</style>
<path class="st0" d="M540,700.5c43.3,0,80.3-16,112.9-47.6c31.6-32.6,47.6-69.6,47.6-112.9s-16-80.3-47.6-112.9
	c-32.6-31.6-69.6-47.6-112.9-47.6s-80.3,16.1-112.9,47.6c-31.6,32.6-47.6,69.6-47.6,112.9s16.1,80.3,47.6,112.9
	C459.8,684.5,496.7,700.5,540,700.5 M540,5c147.1,0,272.9,53.5,377.2,157.8S1075,392.9,1075,540v77.6c0,53.5-18.7,99-53.5,136.4
	c-37.5,35.8-80.3,53.5-133.8,53.5c-64.2,0-117.2-26.8-157.3-80.3C677,780.8,613.8,807.5,540,807.5c-73.3,0-136.4-26.8-189.4-78.1
	c-51.4-53-78.1-115.6-78.1-189.4c0-73.3,26.8-136.4,78.1-189.4c53-51.4,116.1-78.1,189.4-78.1c73.8,0,136.4,26.8,189.4,78.1
	c51.4,53,78.1,116.1,78.1,189.4v77.6c0,21.9,8.6,41.2,24.6,57.8c16,16.6,34.8,25.1,55.6,25.1c22.5,0,41.2-8.6,57.2-25.1
	c16-16.6,23-35.8,23-57.8V540c0-117.2-41.2-217.7-125.7-302.3S657.2,112,540,112s-217.7,41.2-302.3,125.7S112,422.8,112,540
	s41.2,217.7,125.7,302.3S422.8,968,540,968h267.5v107H540c-147.1,0-272.8-53.5-377.2-157.8S5,687.1,5,540s53.5-272.8,157.8-377.2
	S392.9,5,540,5z"/>
</svg>
