<?xml version="1.0" encoding="utf-8"?>
<!-- Generator: Adobe Illustrator 24.1.1, SVG Export Plug-In . SVG Version: 6.00 Build 0)  -->
<svg version="1.1" id="Capa_1" xmlns="http://www.w3.org/2000/svg" xmlns:xlink="http://www.w3.org/1999/xlink" x="0px" y="0px"
	 viewBox="0 0 1080 1080" style="enable-background:new 0 0 1080 1080;" xml:space="preserve">
<style type="text/css">
	.st0{fill:#0288D1;}
</style>
<path class="st0" d="M540,445.9c51.3,0,93.1,41.8,93.1,94.1c0,49.8-41.8,92.1-93.1,92.1s-93.1-42.3-93.1-92.1
	C446.9,487.7,488.7,445.9,540,445.9 M309.6,938.5c31.4,18.9,100-10,179.2-84.7c-25.9-29.4-51.3-61.3-75.1-94.6
	c-40.8-4-81.1-10-119.4-17.9C268.8,847.8,278.2,921,309.6,938.5 M344.9,652.6l-14.4-25.4c-5.5,14.4-10.9,28.9-14.4,42.8
	c13.4,3,28.4,5.5,43.8,8L344.9,652.6 M670.4,614.7l40.3-74.7l-40.3-74.7c-14.9-26.4-30.9-49.8-45.3-73.2
	c-26.9-1.5-55.2-1.5-85.1-1.5c-29.9,0-58.2,0-85.1,1.5c-14.4,23.4-30.4,46.8-45.3,73.2L369.3,540l40.3,74.7
	c14.9,26.4,30.9,49.8,45.3,73.2c26.9,1.5,55.2,1.5,85.1,1.5c29.9,0,58.2,0,85.1-1.5C639.5,664.5,655.5,641.1,670.4,614.7 M540,280
	c-9.5,11-19.4,22.4-29.4,35.9h58.7C559.4,302.4,549.5,291,540,280 M540,800c9.5-11,19.4-22.4,29.4-35.9h-58.7
	C520.6,777.6,530.5,789,540,800 M769.9,141.5c-30.9-18.9-99.5,10-178.7,84.7c25.9,29.4,51.3,61.3,75.1,94.6
	c40.8,4,81.1,10,119.4,17.9C811.2,232.2,801.8,159,769.9,141.5 M735.1,427.4l14.4,25.4c5.5-14.4,10.9-28.9,14.4-42.8
	c-13.4-3-28.4-5.5-43.8-8L735.1,427.4 M807.3,76.3c73.2,41.8,81.1,151.9,50.3,280.4C983.9,394.1,1075,455.8,1075,540
	s-91.1,145.9-217.5,183.3c30.9,128.5,22.9,238.6-50.3,280.4c-72.7,41.8-171.7-6-267.3-97.1c-95.6,91.1-194.6,139-267.7,97.1
	c-72.7-41.8-80.6-151.9-49.8-280.4C96.1,685.9,5,624.2,5,540s91.1-145.9,217.5-183.3c-30.9-128.5-22.9-238.6,49.8-280.4
	c73.2-41.8,172.2,6,267.7,97.1C635.6,82.3,734.6,34.5,807.3,76.3 M792.8,540c16.9,37.4,31.9,74.7,44.3,112.6
	c104.5-31.4,163.2-76.2,163.2-112.6s-58.7-81.2-163.2-112.6C824.7,465.3,809.7,502.6,792.8,540 M287.2,540
	c-16.9-37.4-31.9-74.7-44.3-112.6C138.4,458.8,79.7,503.6,79.7,540s58.7,81.2,163.2,112.6C255.3,614.7,270.3,577.4,287.2,540
	 M735.1,652.6L720.2,678c15.4-2.5,30.4-5,43.8-8c-3.5-13.9-9-28.4-14.4-42.8L735.1,652.6 M591.3,853.8
	c79.1,74.7,147.8,103.6,178.7,84.7c31.9-17.4,41.3-90.6,15.9-197.2c-38.3,8-78.6,13.9-119.4,17.9
	C642.5,792.5,617.1,824.4,591.3,853.8 M344.9,427.4l14.9-25.4c-15.4,2.5-30.4,5-43.8,8c3.5,13.9,9,28.4,14.4,42.8L344.9,427.4
	 M488.7,226.2c-79.1-74.7-147.8-103.6-179.2-84.7c-31.4,17.4-40.8,90.6-15.4,197.2c38.3-8,78.6-13.9,119.4-17.9
	C437.5,287.5,462.9,255.6,488.7,226.2z"/>
</svg>
