<?xml version="1.0" encoding="utf-8"?>
<!-- Generator: Adobe Illustrator 24.1.1, SVG Export Plug-In . SVG Version: 6.00 Build 0)  -->
<svg version="1.1" id="Capa_1" xmlns="http://www.w3.org/2000/svg" xmlns:xlink="http://www.w3.org/1999/xlink" x="0px" y="0px"
	 viewBox="0 0 1080 1080" style="enable-background:new 0 0 1080 1080;" xml:space="preserve">
<style type="text/css">
	.st0{fill:#F44336;}
</style>
<path class="st0" d="M5,5v1070h1070V5L5,5z M309.3,539.6h166.3c22.7,0,42.2,1.5,58.6,4.5c16.4,3,31.8,9.4,46,19.4
	c14.5,10,25.9,22.9,34.3,38.9c8.6,15.7,13,35.5,13,59.4c0,32.8-6.7,59.5-19.9,80.2c-13.1,20.7-31.8,38-56.3,51.7l128.3,190.5H558.4
	l-104.8-163h-45.7v163h-98.6L309.3,539.6z M701.2,539.6h278v86H799.9v76.7h166.5v86H799.9v109.8h179.4v86h-278L701.2,539.6z
	 M407.9,621.4v119.7h30.5c15.8,0,29.2-0.8,39.8-2.6c10.7-1.8,19.5-5.9,26.8-12.3c6.9-6.2,11.9-12.9,15-20.2
	c3.3-7.6,4.9-17.6,4.9-30.1c0-11.1-2-20.8-6-28.7c-4-8-10.7-14.3-20.4-18.8c-6.7-3.2-14.6-5.1-23.5-5.7c-9-0.8-19.4-1.2-31.2-1.2
	L407.9,621.4z"/>
</svg>
