<?xml version="1.0" encoding="utf-8"?>
<!-- Generator: Adobe Illustrator 26.0.0, SVG Export Plug-In . SVG Version: 6.00 Build 0)  -->
<svg version="1.1" id="Capa_1" xmlns="http://www.w3.org/2000/svg" xmlns:xlink="http://www.w3.org/1999/xlink" x="0px" y="0px"
	 viewBox="0 0 1080 1080" style="enable-background:new 0 0 1080 1080;" xml:space="preserve">
<style type="text/css">
	
		.st0{fill-rule:evenodd;clip-rule:evenodd;fill:#FF6E40;stroke:#FF6E40;stroke-width:0.4355;stroke-linejoin:round;stroke-miterlimit:1.0235;}
</style>
<g>
	<path class="st0" d="M746.4,741.5c39.5-4.1,69.4-38.1,68.1-79c-1.4-40.8-35.4-73.5-76.3-73.5h-2.7c-42.2,1.4-74.9,36.8-73.5,79
		c1.4,20.4,9.5,38.1,21.8,50.4c-46.3,91.2-117.1,157.9-223.3,213.8c-72.2,38.1-147.1,51.7-221.9,42.2
		C177.2,966.2,129.6,939,99.6,894C56.1,827.3,52,755.1,88.7,683c25.9-51.7,66.7-89.9,92.6-108.9c-5.4-17.7-13.6-47.7-17.7-69.4
		c-197.4,143-177,336.3-117.1,427.5c44.9,68.1,136.2,110.3,236.9,110.3c27.2,0,54.5-2.7,81.7-9.5
		C539.4,998.9,671.5,895.4,746.4,741.5z"/>
	<path class="st0" d="M986,572.7c-103.5-121.2-256-187.9-430.3-187.9H534c-12.3-24.5-38.1-40.8-66.7-40.8h-2.7
		c-42.2,1.4-74.9,36.8-73.5,79c1.4,40.8,35.4,73.5,76.3,73.5h2.7c30-1.4,55.8-20.4,66.7-46.3h24.5c103.5,0,201.5,30,290,88.5
		c68.1,44.9,117.1,103.5,144.3,174.3c23.1,57.2,21.8,113-2.7,160.7c-38.1,72.2-102.1,111.7-186.5,111.7
		c-54.5,0-106.2-16.3-133.4-28.6c-15,13.6-42.2,35.4-61.3,49c58.5,27.2,118.5,42.2,175.6,42.2c130.7,0,227.4-72.2,264.2-144.3
		C1090.9,824.6,1088.2,688.4,986,572.7z"/>
	<path class="st0" d="M294.3,764.7c1.4,40.8,35.4,73.5,76.3,73.5h2.7c42.2-1.4,74.9-36.8,73.5-79c-1.4-40.8-35.4-73.5-76.3-73.5
		h-2.7c-2.7,0-6.8,0-9.5,1.4c-55.8-92.6-79-193.4-70.8-302.3c5.4-81.7,32.7-152.5,80.3-211.1c39.5-50.4,115.7-74.9,167.5-76.3
		C679.7,94.8,741,274.5,745,346.6c17.7,4.1,47.7,13.6,68.1,20.4c-16.3-220.6-152.5-335-283.2-335c-122.5,0-235.6,88.5-280.5,219.2
		c-62.6,174.3-21.8,341.8,54.5,473.8C297.1,734.7,293,749.7,294.3,764.7z"/>
</g>
</svg>
