<?xml version="1.0" encoding="utf-8"?>
<!-- Generator: Adobe Illustrator 24.1.1, SVG Export Plug-In . SVG Version: 6.00 Build 0)  -->
<svg version="1.1" id="Capa_1" xmlns="http://www.w3.org/2000/svg" xmlns:xlink="http://www.w3.org/1999/xlink" x="0px" y="0px"
	 viewBox="0 0 1080 1080" style="enable-background:new 0 0 1080 1080;" xml:space="preserve">
<style type="text/css">
	
		.st0{fill-rule:evenodd;clip-rule:evenodd;fill:#8BC34A;stroke:#8BC34A;stroke-width:0.4355;stroke-linejoin:round;stroke-miterlimit:1.0235;}
</style>
<g transform="matrix(.25587 0 0 .25587 -.90734 -.94707)">
	<path class="st0" d="M2920.6,2901.9c154.3-16,271.4-149,266.1-308.7c-5.3-159.7-138.4-287.4-298-287.4h-10.6
		c-165,5.3-292.7,143.7-287.4,308.7c5.3,79.8,37.3,149,85.1,196.9c-180.9,356.6-457.7,617.4-872.7,835.7
		c-282,149-574.7,202.3-867.4,165c-239.5-31.9-425.7-138.4-542.8-314c-170.3-260.8-186.3-542.9-42.6-825
		c101.1-202.3,260.8-351.3,361.9-425.8c-21.3-69.2-53.2-186.3-69.2-271.5c-771.6,558.9-691.8,1314.7-457.7,1671.3
		c175.6,266.1,532.2,431.1,925.9,431.1c106.4,0,212.9-10.6,319.3-37.3C2111.8,3907.9,2628,3503.4,2920.6,2901.9z"/>
	<path class="st0" d="M3857.2,2241.9c-404.4-473.7-1000.4-734.5-1681.6-734.5h-85.1c-47.9-95.8-149-159.7-260.8-159.7h-10.6
		c-165,5.3-292.7,143.7-287.4,308.7c5.3,159.7,138.4,287.4,298,287.4h10.6c117.1-5.3,218.2-79.8,260.8-181h95.8
		c404.4,0,787.6,117.1,1133.5,346c266.1,175.7,457.7,404.5,564.1,681.3c90.5,223.6,85.1,441.8-10.6,628.1
		c-149,282.1-399.1,436.5-729,436.5c-212.9,0-415.1-63.9-521.5-111.8c-58.5,53.2-165,138.4-239.5,191.6
		c228.8,106.5,463,165,686.5,165c510.9,0,888.7-282.1,1032.4-564.2C4267,3226.6,4256.3,2694.3,3857.2,2241.9z"/>
	<path class="st0" d="M1153.9,2992.4c5.3,159.7,138.4,287.4,298,287.4h10.6c165-5.3,292.7-143.7,287.4-308.7
		c-5.3-159.7-138.4-287.4-298-287.4h-10.6c-10.6,0-26.6,0-37.3,5.3c-218.2-361.9-308.6-755.8-276.7-1181.6
		c21.3-319.4,127.7-596.1,314-825c154.3-196.9,452.3-292.8,654.5-298.1c564.1-10.6,803.6,692,819.5,974.1
		c69.2,16,186.3,53.2,266.1,79.8c-63.9-862.3-596-1309.4-1106.9-1309.4c-478.9,0-920.6,346-1096.2,857
		c-244.8,681.3-85.1,1336,212.9,1852.3C1164.5,2875.3,1148.6,2933.9,1153.9,2992.4z"/>
</g>
</svg>
