<?xml version="1.0" encoding="utf-8"?>
<!-- Generator: Adobe Illustrator 26.0.0, SVG Export Plug-In . SVG Version: 6.00 Build 0)  -->
<svg version="1.1" id="Capa_1" xmlns="http://www.w3.org/2000/svg" xmlns:xlink="http://www.w3.org/1999/xlink" x="0px" y="0px"
	 viewBox="0 0 1080 1080" style="enable-background:new 0 0 1080 1080;" xml:space="preserve">
<style type="text/css">
	.st0{fill:#455A64;}
</style>
<path class="st0" d="M590,5c279.4,0,418.3,131,418.3,340.3c0,156.5-97.7,258.6-229.7,275.6C890,643,955.1,706,967.2,830.2l1.7,22.8
	l1.6,21.3l1.3,20l0.9,15l1,17.8l0.5,10.2l0.7,16l0.6,15.2l0.3,8.7l0.4,14l0.3,16l0.1,7.7l0.3,22.5v37.4H688.7v-5.9l0.1-11.3
	l0.2-11.1l0.5-26.7l0.1-8.9l0.1-14.1v-9l-0.1-9.5l-0.1-7.4l-0.3-10.4l-0.3-11l-0.5-11.7l-0.5-12.4l-0.4-6.5l-0.6-10.2l-0.7-10.7
	l-1.1-15.2l-0.9-12c-0.3-3.6-0.6-7.3-0.9-10.9l-0.7-7c-9.5-82.3-42.6-115.9-99.4-127.1l-4.8-0.9c-3.3-0.6-6.6-1.1-9.9-1.5l-5.1-0.5
	c-0.9-0.1-1.7-0.2-2.6-0.3l-5.2-0.4l-5.4-0.4l-5.5-0.3l-5.5-0.2l-5.7-0.1l-5.7-0.1H71.7V498.4h466.9c7.7,0,15-0.1,22.2-0.4l7.1-0.3
	l6.9-0.4l6.8-0.5l3.3-0.3l6.5-0.7c4.3-0.5,8.5-1.1,12.6-1.7l6.1-1.1c75.8-13.5,113.6-53.1,113.6-130.4
	c0-86.8-61.7-139.4-185.1-139.4H71.7V5L590,5z M376.4,908.8c37.8,0,53.6,20.7,59.3,40.5l0.7,2.8l0.6,2.8l0.4,2.2l0.2,1.1l0.3,2.2
	l0.2,2.1l0.1,1l0.1,2l0.1,1V1075H71.7V908.8L376.4,908.8z"/>
</svg>
