<?xml version="1.0" encoding="utf-8"?>
<!-- Generator: Adobe Illustrator 26.0.0, SVG Export Plug-In . SVG Version: 6.00 Build 0)  -->
<svg version="1.1" id="Capa_1" xmlns="http://www.w3.org/2000/svg" xmlns:xlink="http://www.w3.org/1999/xlink" x="0px" y="0px"
	 viewBox="0 0 1080 1080" style="enable-background:new 0 0 1080 1080;" xml:space="preserve">
<style type="text/css">
	.st0{fill:#FFB300;}
</style>
<path class="st0" d="M594.6,114.2l-36.4-36.4c-20.1-20.1-52.7-20.1-72.7,0L48.9,514.3c-20.1,20.1-20.1,52.7,0,72.7l145.5,145.5
	c20.1,20.1,52.7,20.1,72.7,0L703.7,296c20.1-20.1,20.1-52.7,0-72.7l-36.4-36.4l36.4-36.4L849.2,296L485.5,659.8l400.1,400.2
	c20.1,20.1,52.7,20.1,72.7,0l72.7-72.8c20.1-20.1,20.1-52.7,0-72.7L703.7,587l291-291L703.7,5L594.6,114.2z"/>
</svg>
