<?xml version="1.0" encoding="utf-8"?>
<!-- Generator: Adobe Illustrator 24.1.1, SVG Export Plug-In . SVG Version: 6.00 Build 0)  -->
<svg version="1.1" id="Capa_1" xmlns="http://www.w3.org/2000/svg" xmlns:xlink="http://www.w3.org/1999/xlink" x="0px" y="0px"
	 viewBox="0 0 1080 1080" style="enable-background:new 0 0 1080 1080;" xml:space="preserve">
<style type="text/css">
	.st0{fill:#56676E;}
	.st1{fill:#90A4AE;}
	.st2{fill:#607D8B;}
</style>
<g id="Exponent" transform="matrix(.47614 0 0 .47614 -25.211 -24.251)">
	<g transform="translate(.0043685 .0031547)">
		<path class="st0" d="M2305.5,1080.2c3.1,34,5.2,68.2,5.2,103C2310.7,1148.4,2308.6,1114.2,2305.5,1080.2z"/>
		<path class="st1" d="M638.5,1074.3c0,0-312.5,1149.3,940,1159.3c393-146,682.5-504,726.4-935.7c3-29.9,3.9-60.3,4.6-90.8
			c0.1-8,1.2-15.8,1.2-23.9c0-34.8-2.1-69-5.2-103C1974.6,2380.5,510.8,1871.2,638.5,1074.3z"/>
		<path class="st1" d="M1286.1,647.7c0,0-1166.1-325.1-1148.2,944.2c59.8,153.4,152.5,291.8,271.7,405.5c5,4.7,10.2,9.2,15.3,13.9
			c33.7,31,69.3,60,106.6,86.7c5.8,4.1,11.2,8.7,17,12.7c39.4,26.9,80.5,51.3,123,72.9c12.3,6.4,25,12.2,37.6,18.1
			c36.6,17.2,74.1,32.4,112.3,45.5c9.4,3.2,18.4,7.2,27.9,10.2c45.9,14,92.6,25,139.8,33c14.3,2.5,28.8,4.6,43.2,6.6
			c49,7.1,98.5,10.9,148.1,11.5c1.9,0,3.7,0.3,5.6,0.3c37.4,0,74.3-2,110.7-5.6C-11.6,1991.6,485.7,531.1,1286.1,647.7L1286.1,647.7
			z"/>
		<path class="st1" d="M1740.6,1249.6c0,0,275.9-1161.1-966-1109.2C358.2,304.6,63.4,709.1,63.4,1183.1c0.4,51,4.2,102,11.5,152.5
			C336.3,22,1825.3,447.5,1740.6,1249.6L1740.6,1249.6z"/>
		<path class="st1" d="M1144.4,1749.2c0,0,1168.1,152.2,1095-956.5C2080.4,366,1669.9,61.4,1187.1,61.4
			c-68.4,0.3-136.6,6.7-203.8,19.3C2284.9,240.3,1946.6,1760.6,1144.4,1749.2z"/>
		<path class="st2" d="M1511.3,1183.2c0,173.5-140.9,314.2-314.7,314.2c-173.8,0-314.7-140.7-314.7-314.2
			c0-173.5,140.9-314.2,314.7-314.2c0,0,0.1,0,0.1,0C1370.5,869.1,1511.4,1009.7,1511.3,1183.2z"/>
	</g>
</g>
</svg>
