<?xml version="1.0" encoding="utf-8"?>
<!-- Generator: Adobe Illustrator 26.0.0, SVG Export Plug-In . SVG Version: 6.00 Build 0)  -->
<svg version="1.1" id="Capa_1" xmlns="http://www.w3.org/2000/svg" xmlns:xlink="http://www.w3.org/1999/xlink" x="0px" y="0px"
	 viewBox="0 0 1080 1080" style="enable-background:new 0 0 1080 1080;" xml:space="preserve">
<style type="text/css">
	.st0{fill:#EF5350;}
</style>
<path class="st0" d="M347.6,5C204.8,5,133.4,5,83.4,41.4c-16.1,11.7-30.3,25.9-42,42C5,133.4,5,204.8,5,347.8v384.4
	C5,875,5,946.3,41.4,996.4c11.7,16.2,25.9,30.4,42,42.2c50,36.4,121.4,36.4,264.2,36.4h384.6c142.8,0,214.1,0,264.2-36.4
	c16.1-11.9,30.4-26.1,42.2-42.2c36.4-50,36.4-121.4,36.4-264.2V347.8c-0.1-143,0-214.4-36.4-264.4c-11.8-16.1-26.1-30.3-42.2-42
	C946.4,5,875,5,732.2,5L347.6,5L347.6,5z M369,64.6h341.8c126.9,0,190.3,0,234.7,32.3c14.4,10.4,27,23,37.5,37.3
	c32.3,44.4,32.3,107.9,32.4,234.9v341.6c0,126.9,0,190.3-32.4,234.7c-10.5,14.3-23.2,27-37.5,37.5c-44.5,32.4-107.9,32.4-234.7,32.4
	H369c-126.9,0-190.3,0-234.7-32.4c-14.3-10.5-26.9-23.1-37.3-37.5C64.6,901,64.6,837.7,64.6,710.8V369.2c0-127.1,0-190.5,32.3-234.9
	c10.4-14.4,23-27,37.3-37.3C178.7,64.6,242.1,64.6,369,64.6z"/>
<path class="st0" d="M368.9,251.9c-40.3,0-60.5,0-75.9,7.8c-13.6,6.9-24.6,18-31.5,31.5c-7.8,15.4-7.8,35.6-7.8,76.1v352.9
	c0,33.5,0,50.4,5.5,63.6c7.3,17.6,21.3,31.6,38.9,38.9c13.2,5.4,30.1,5.4,63.6,5.4c33.7,0,50.4,0,63.6-5.4
	c17.6-7.3,31.6-21.3,38.9-38.9c5.4-13.2,5.4-30.1,5.4-63.6V251.9L368.9,251.9L368.9,251.9z M699.3,256.1
	c-70.2,0.7-126.4,58.2-125.7,128.3c0.7,69.1,56.6,125,125.7,125.7h0.2c70.1,0,126.9-56.9,126.9-127
	C826.3,313,769.4,256.1,699.3,256.1L699.3,256.1z"/>
</svg>
