<?xml version="1.0" encoding="utf-8"?>
<!-- Generator: Adobe Illustrator 24.1.1, SVG Export Plug-In . SVG Version: 6.00 Build 0)  -->
<svg version="1.1" id="Capa_1" xmlns="http://www.w3.org/2000/svg" xmlns:xlink="http://www.w3.org/1999/xlink" x="0px" y="0px"
	 viewBox="0 0 1080 1080" style="enable-background:new 0 0 1080 1080;" xml:space="preserve">
<style type="text/css">
	.st0{fill:#EF5350;}
</style>
<path class="st0" d="M1038.6,83.4c-11.8-16.1-26-30.3-42.2-42C946.4,5,875,5,732.2,5H347.6C204.8,5,133.4,5,83.4,41.4
	c-16.1,11.7-30.3,25.9-42,42C5,133.4,5,204.8,5,347.8v384.4C5,875,5,946.3,41.4,996.4c11.7,16.2,25.9,30.4,42,42.2
	c50,36.4,121.4,36.4,264.2,36.4h384.6c142.8,0,214.1,0,264.2-36.4c16.1-11.8,30.4-26.1,42.2-42.2c36.4-50,36.4-121.4,36.4-264.2
	V347.8C1075,204.8,1075,133.4,1038.6,83.4z M500.5,732.8c0,33.5,0,50.4-5.4,63.6c-7.3,17.6-21.3,31.6-38.9,38.9
	c-13.2,5.4-29.9,5.4-63.6,5.4c-33.5,0-50.4,0-63.6-5.4c-17.6-7.3-31.6-21.3-38.9-38.9c-5.4-13.2-5.4-30.1-5.4-63.6V379.9
	c0-40.5,0-60.7,7.8-76.1c6.9-13.6,18-24.6,31.5-31.5c15.3-7.8,35.6-7.8,75.9-7.8h100.8L500.5,732.8z M730.1,522.9
	c-70.2,0-127-56.9-127-127s56.9-127,127-127s127,56.9,127,127c0.1,70.1-56.7,127-126.8,127c0,0,0,0,0,0H730.1z"/>
</svg>
