<?xml version="1.0" encoding="utf-8"?>
<!-- Generator: Adobe Illustrator 24.1.1, SVG Export Plug-In . SVG Version: 6.00 Build 0)  -->
<svg version="1.1" id="Capa_1" xmlns="http://www.w3.org/2000/svg" xmlns:xlink="http://www.w3.org/1999/xlink" x="0px" y="0px"
	 viewBox="0 0 1080 1080" style="enable-background:new 0 0 1080 1080;" xml:space="preserve">
<style type="text/css">
	.st0{fill:#83E8C2;}
	.st1{fill:#111D5A;}
	.st2{fill:#DE5941;}
</style>
<g transform="translate(0,3)">
	<g transform="matrix(1.3602 0 0 1.3602 33.252 15.767)">
		<g id="Group">
			<path id="Shape" class="st0" d="M724.7,216c-4-25.3-19.2-47.8-41.8-60.8L416,1.3c-13-7.5-27.8-11.5-42.9-11.5s-29.9,4-42.9,11.5
				l-267,153.9c-26.5,15.3-42.9,43.7-42.9,74.1v307.7c0,30.5,16.4,58.9,42.9,74.1l267,153.9c13,7.5,27.9,11.5,42.9,11.5
				c15,0,29.8-4,42.9-11.5l267-153.9c22.6-13,37.8-35.6,41.8-60.8L724.7,216z M656.7,565.9L389.8,719.8c-5.2,3-10.9,4.5-16.7,4.5
				s-11.5-1.5-16.7-4.5L89.5,565.9c-10.3-6-16.7-16.9-16.7-28.8V229.3c0-11.9,6.4-22.9,16.7-28.8L356.4,46.6
				c5.2-3,10.9-4.5,16.7-4.5s11.5,1.5,16.7,4.5l266.9,153.9c10.3,5.9,16.7,16.9,16.7,28.8v307.7C673.4,549,667.1,560,656.7,565.9z"
				/>
			<path class="st1" d="M673.4,229.3c0-11.9-6.4-22.9-16.7-28.8L389.8,46.6c-5.2-3-10.9-4.5-16.7-4.5c-5.8,0-11.5,1.5-16.7,4.5
				L89.5,200.5c-10.3,5.9-16.7,16.9-16.7,28.8v307.7c0,11.9,6.4,22.9,16.7,28.8l266.9,153.9c5.2,3,10.9,4.5,16.7,4.5
				c5.8,0,11.5-1.5,16.7-4.5l266.9-153.9c10.3-6,16.7-16.9,16.7-28.8V229.3z M480.9,359.5c0.5-0.3,1-0.5,1.5-0.6
				c0.2,0,0.4,0,0.5-0.1c0.3,0,0.6-0.1,0.9-0.1c0,0,0,0,0.1,0c0.1,0,0.2,0,0.2,0c0.4,0,0.8,0.1,1.1,0.2c0.1,0,0.3,0.1,0.4,0.1
				c0.3,0.1,0.6,0.2,0.9,0.4c0.1,0.1,0.2,0.1,0.3,0.2c0.4,0.2,0.8,0.5,1.1,0.8c0,0,0.1,0.1,0.1,0.1c0.3,0.3,0.5,0.6,0.8,1
				c0.1,0.1,0.1,0.2,0.2,0.4c0.2,0.3,0.3,0.6,0.4,0.9c0,0.1,0.1,0.3,0.1,0.4c0.1,0.5,0.2,1,0.2,1.5v66.6l-13.5,7.8
				c-1.3,0.8-2.3,2-2.8,3.4c-0.2,0.7-0.4,1.4-0.4,2.1v15.6l-57.8,33.3c0,0,0,0,0,0c-0.5,0.3-1,0.5-1.5,0.6c-0.2,0-0.4,0-0.6,0.1
				c-0.3,0-0.6,0.1-0.9,0.1c0,0,0,0-0.1,0c-0.1,0-0.2,0-0.2,0c-0.4,0-0.8-0.1-1.1-0.2c-0.1,0-0.3-0.1-0.4-0.1
				c-0.3-0.1-0.6-0.2-0.9-0.4c-0.1-0.1-0.2-0.1-0.3-0.2c-0.4-0.2-0.8-0.5-1.1-0.8c0,0-0.1-0.1-0.1-0.1c-0.3-0.3-0.5-0.6-0.8-1
				c-0.1-0.1-0.1-0.2-0.2-0.4c-0.2-0.3-0.3-0.6-0.4-0.9c0-0.1-0.1-0.3-0.1-0.4c-0.1-0.5-0.2-1-0.2-1.5c0,0,0,0,0,0v-82.4
				c0-1.6,0.6-3.1,1.7-4.2c0.4-0.4,0.8-0.7,1.2-1L480.9,359.5z M370.1,115.7c0.9-0.5,2-0.8,3-0.8c1,0,2.1,0.3,3,0.8l188.3,108.5
				c4,2.3,4,8,0,10.3l-71.5,41.2c-0.9,0.5-2,0.8-3,0.8c-1,0-2.1-0.3-3-0.8L423.2,239l7.1-4.1c4.3-2.5,4.3-8.6,0-11l-54-31.1
				c-1-0.6-2.1-0.9-3.2-0.9c-1.1,0-2.2,0.3-3.2,0.9l-13.5,7.8l-57.8-33.3c-4-2.3-4-8,0-10.3L370.1,115.7z M256.3,182.2
				c1,0,2.1,0.3,3,0.8l63.8,36.7l-7.1,4.1c-4.3,2.5-4.3,8.6,0,11l7.1,4.1l-63.7,36.7c-0.9,0.5-2,0.8-3,0.8s-2.1-0.3-3-0.8
				l-71.5-41.2c-4-2.3-4-8,0-10.3l71.5-41.2C254.3,182.5,255.3,182.2,256.3,182.2z M217,561.6c-1,0-2-0.3-3-0.8l-71.5-41.2
				c-1.8-1.1-3-3-3-5.2v-217c0-3.5,2.9-6,6-6c1,0,2,0.3,3,0.8l71.5,41.2c1.8,1.1,3,3,3,5.2v73.5l-7.1-4.1c-1-0.6-2.1-0.9-3.2-0.9
				c-3.3,0-6.4,2.7-6.4,6.4v62.2c0,2.3,1.2,4.4,3.2,5.5l13.5,7.8v66.6C222.9,559.1,220.1,561.6,217,561.6z M339.7,622.9
				c0,3.5-2.9,6-6,6c-1,0-2-0.3-3-0.8l-71.5-41.2c-1.8-1.1-3-3-3-5.2v-73.5l7.1,4.1c1,0.6,2.1,0.9,3.2,0.9c3.3,0,6.4-2.7,6.4-6.4
				v-8.2l63.8,36.7c1.8,1.1,3,3,3,5.2V622.9z M339.7,488.3c0,0.5-0.1,1-0.2,1.5c0,0.1-0.1,0.3-0.1,0.4c-0.1,0.3-0.2,0.6-0.4,0.9
				c-0.1,0.1-0.1,0.3-0.2,0.4c-0.2,0.3-0.5,0.7-0.8,1c0,0-0.1,0.1-0.1,0.1c-0.3,0.3-0.7,0.6-1.1,0.8c-0.1,0.1-0.2,0.1-0.3,0.2
				c-0.3,0.2-0.6,0.3-0.9,0.4c-0.1,0-0.3,0.1-0.4,0.1c-0.4,0.1-0.8,0.2-1.1,0.2c-0.1,0-0.1,0-0.2,0c0,0,0,0-0.1,0
				c-0.3,0-0.6-0.1-1-0.1c-0.2,0-0.3,0-0.5-0.1c-0.5-0.1-1-0.3-1.5-0.6L273,460.1v-15.5c0-1.1-0.3-2.2-0.9-3.2
				c-0.6-1-1.4-1.8-2.3-2.3l-13.5-7.8v-66.6c0-0.5,0.1-1,0.2-1.5c0-0.1,0.1-0.3,0.1-0.4c0.1-0.3,0.2-0.6,0.4-0.9
				c0.1-0.1,0.1-0.3,0.2-0.4c0.2-0.3,0.5-0.7,0.8-1c0,0,0.1-0.1,0.1-0.1c0.3-0.3,0.7-0.6,1.1-0.8c0.1-0.1,0.2-0.1,0.3-0.2
				c0.3-0.2,0.6-0.3,0.9-0.4c0.1,0,0.3-0.1,0.4-0.1c0.4-0.1,0.8-0.1,1.1-0.2c0.1,0,0.1,0,0.2,0c0,0,0,0,0.1,0c0.3,0,0.6,0.1,1,0.1
				c0.2,0,0.3,0,0.5,0.1c0.5,0.1,1,0.3,1.5,0.6l71.5,41.2c0.9,0.5,1.7,1.3,2.2,2.2c0.5,0.9,0.8,1.9,0.8,3L339.7,488.3z M298.6,301.8
				c-1-0.6-1.7-1.4-2.2-2.3c-1-1.8-1-4,0-5.8c0.5-0.9,1.2-1.7,2.2-2.3l57.8-33.3l13.5,7.8c2,1.1,4.4,1.1,6.4,0l13.5-7.8l57.8,33.3
				c4,2.3,4,8,0,10.3L376.1,343c-0.9,0.5-2,0.8-3,0.8c-1,0-2.1-0.3-3-0.8L298.6,301.8z M606.7,514.4c0,2.1-1.1,4.1-3,5.2
				L415.4,628.1c-1,0.6-2,0.8-3,0.8c-3.1,0-6-2.5-6-6v-82.4c0-2.1,1.1-4.1,3-5.2l63.7-36.7v8.2c0,3.7,3.1,6.4,6.4,6.4
				c1.1,0,2.2-0.3,3.2-0.9l54-31.1c2-1.1,3.2-3.2,3.2-5.5v-15.5l57.8-33.3c1-0.6,2-0.8,3-0.8c3.1,0,6,2.5,6,6L606.7,514.4
				L606.7,514.4z M606.7,379.8c0,2.1-1.1,4.1-3,5.2l-63.8,36.7v-8.2c0-3.7-3.1-6.4-6.4-6.4c-1.1,0-2.2,0.3-3.2,0.9l-7.1,4.1v-73.5
				c0-2.1,1.1-4.1,3-5.2l71.5-41.2c1-0.6,2-0.8,3-0.8c3.1,0,6,2.5,6,6V379.8z"/>
			<g>
				<path class="st0" d="M263.8,358.9c0.5,0.1,1,0.3,1.5,0.6C264.8,359.2,264.3,359,263.8,358.9z"/>
				<path class="st0" d="M408.2,492.4c-0.3-0.3-0.5-0.6-0.8-1C407.6,491.8,407.9,492.1,408.2,492.4z"/>
				<path class="st0" d="M409.4,493.4c-0.4-0.2-0.8-0.5-1.1-0.8C408.6,492.9,409,493.1,409.4,493.4z"/>
				<path class="st0" d="M339.4,490.2c-0.1,0.3-0.2,0.6-0.4,0.9C339.2,490.8,339.3,490.5,339.4,490.2z"/>
				<path class="st0" d="M336.5,493.5c-0.3,0.2-0.6,0.3-0.9,0.4C335.9,493.8,336.2,493.7,336.5,493.5z"/>
				<path class="st0" d="M337.9,492.5c-0.3,0.3-0.7,0.6-1.1,0.8C337.2,493.1,337.6,492.9,337.9,492.5z"/>
				<path class="st0" d="M339.7,488.3c0,0.5-0.1,1-0.2,1.5C339.7,489.3,339.7,488.8,339.7,488.3z"/>
				<path class="st0" d="M335.2,494c-0.4,0.1-0.8,0.2-1.1,0.2C334.4,494.2,334.8,494.1,335.2,494z"/>
				<path class="st0" d="M406.7,489.7c-0.1-0.5-0.2-1-0.2-1.5C406.5,488.8,406.6,489.3,406.7,489.7z"/>
				<path class="st0" d="M336.7,535.4L273,498.6v8.2c0,3.7-3.1,6.4-6.4,6.4c-1.1,0-2.2-0.3-3.2-0.9l-7.1-4.1v73.5
					c0,2.1,1.1,4.1,3,5.2l71.5,41.2c1,0.6,2,0.8,3,0.8c3.1,0,6-2.5,6-6v-82.4C339.7,538.4,338.6,536.4,336.7,535.4L336.7,535.4z"/>
				<path class="st0" d="M407.2,491.1c-0.2-0.3-0.3-0.6-0.4-0.9C406.9,490.5,407,490.8,407.2,491.1z"/>
				<path class="st0" d="M473.2,444.6c0-0.7,0.2-1.4,0.4-2.1C473.3,443.2,473.2,443.9,473.2,444.6z"/>
				<path class="st0" d="M408.2,401.7c0.4-0.4,0.8-0.7,1.2-1l71.5-41.2l-71.5,41.2C409,401,408.6,401.3,408.2,401.7z"/>
				<path class="st0" d="M338.8,491.5c-0.2,0.3-0.5,0.7-0.8,1C338.3,492.1,338.6,491.8,338.8,491.5z"/>
				<path class="st0" d="M258.1,360.4c0.3-0.3,0.7-0.6,1.1-0.8C258.8,359.8,258.4,360.1,258.1,360.4z"/>
				<path class="st0" d="M259.5,359.4c0.3-0.2,0.6-0.3,0.9-0.4C260.1,359.1,259.8,359.3,259.5,359.4z"/>
				<path class="st0" d="M262.3,358.7C262.3,358.7,262.3,358.7,262.3,358.7c0.3,0,0.6,0.1,1,0.1
					C262.9,358.8,262.6,358.7,262.3,358.7z"/>
				<path class="st0" d="M257.3,361.5c0.2-0.3,0.5-0.7,0.8-1C257.7,360.8,257.5,361.1,257.3,361.5z"/>
				<path class="st0" d="M260.9,358.9c0.4-0.1,0.8-0.1,1.1-0.2C261.6,358.8,261.2,358.8,260.9,358.9z"/>
				<path class="st0" d="M256.3,364.7c0-0.5,0.1-1,0.2-1.5C256.4,363.7,256.3,364.2,256.3,364.7z"/>
				<path class="st0" d="M332.3,494.1c-0.5-0.1-1-0.3-1.5-0.6C331.3,493.7,331.8,493.9,332.3,494.1z"/>
				<path class="st0" d="M256.6,362.8c0.1-0.3,0.2-0.6,0.4-0.9C256.9,362.2,256.8,362.5,256.6,362.8z"/>
				<path class="st0" d="M330.8,493.4L273,460.1L330.8,493.4z"/>
				<path class="st0" d="M333.7,494.2C333.8,494.2,333.8,494.2,333.7,494.2c-0.3,0-0.6-0.1-1-0.1
					C333.1,494.2,333.4,494.2,333.7,494.2z"/>
				<path class="st0" d="M480.9,359.5c0.5-0.3,1-0.5,1.5-0.6C481.9,359,481.4,359.2,480.9,359.5z"/>
				<path class="st0" d="M338.9,402.9c-0.5-0.9-1.3-1.7-2.2-2.2C337.7,401.2,338.4,402,338.9,402.9z"/>
				<path class="st0" d="M487,359.6c0.4,0.2,0.8,0.5,1.1,0.8C487.8,360.1,487.4,359.8,487,359.6z"/>
				<path class="st0" d="M415.4,493.4c-0.5,0.3-1,0.5-1.5,0.6C414.4,493.9,414.9,493.7,415.4,493.4z"/>
				<path class="st0" d="M485.7,359c0.3,0.1,0.6,0.2,0.9,0.4C486.4,359.3,486.1,359.1,485.7,359z"/>
				<path class="st0" d="M483.9,358.7c-0.3,0-0.6,0.1-0.9,0.1C483.3,358.8,483.7,358.7,483.9,358.7
					C484,358.7,483.9,358.7,483.9,358.7z"/>
				<path class="st0" d="M600.7,291.4c-1,0-2,0.3-3,0.8l-71.5,41.2c-1.8,1.1-3,3-3,5.2v73.5l7.1-4.1c1-0.6,2.1-0.9,3.2-0.9
					c3.3,0,6.4,2.7,6.4,6.4v8.2l63.8-36.7c1.8-1.1,3-3,3-5.2v-82.4C606.7,293.9,603.8,291.4,600.7,291.4L600.7,291.4z"/>
				<path class="st0" d="M484.2,358.7c0.4,0,0.8,0.1,1.1,0.2C485,358.8,484.6,358.8,484.2,358.7z"/>
				<path class="st0" d="M412.4,494.2c0.3,0,0.6-0.1,0.9-0.1C413,494.2,412.7,494.2,412.4,494.2
					C412.4,494.2,412.4,494.2,412.4,494.2z"/>
				<path class="st0" d="M412.1,494.2c-0.4,0-0.8-0.1-1.1-0.2C411.4,494.2,411.8,494.2,412.1,494.2z"/>
				<path class="st0" d="M370.1,343c0.9,0.5,2,0.8,3,0.8C372.1,343.8,371,343.6,370.1,343z"/>
				<path class="st0" d="M410.6,493.9c-0.3-0.1-0.6-0.2-0.9-0.4C410,493.7,410.3,493.8,410.6,493.9z"/>
				<path class="st0" d="M600.7,426c-1,0-2,0.3-3,0.8l-57.8,33.3v15.5c0,2.3-1.2,4.4-3.2,5.5l-54,31.1c-1,0.6-2.1,0.9-3.2,0.9
					c-3.3,0-6.4-2.7-6.4-6.4v-8.2l-63.7,36.7c-1.8,1.1-3,3-3,5.2v82.4c0,3.5,2.9,6,6,6c1,0,2-0.3,3-0.8l188.3-108.5
					c1.8-1.1,3-3,3-5.2V432C606.7,428.5,603.8,426,600.7,426L600.7,426z"/>
				<path class="st0" d="M298.6,156.9c-4,2.3-4,8,0,10.3l57.8,33.3l13.5-7.8c1-0.6,2.1-0.9,3.2-0.9c1.1,0,2.2,0.3,3.2,0.9l54,31.1
					c4.3,2.5,4.3,8.6,0,11l-7.1,4.1l63.8,36.7c0.9,0.5,2,0.8,3,0.8c1,0,2.1-0.3,3-0.8l71.5-41.2c4-2.3,4-8,0-10.3L376.1,115.7
					c-0.9-0.5-2-0.8-3-0.8c-1,0-2.1,0.3-3,0.8L298.6,156.9z"/>
				<path class="st0" d="M181.8,224.2c-4,2.3-4,8,0,10.3l71.5,41.2c0.9,0.5,2,0.8,3,0.8s2.1-0.3,3-0.8L323,239l-7.1-4.1
					c-4.3-2.5-4.3-8.6,0-11l7.1-4.1L259.3,183c-0.9-0.5-2-0.8-3-0.8c-1,0-2.1,0.3-3,0.8L181.8,224.2z"/>
				<path class="st0" d="M222.9,555.6V489l-13.5-7.8c-2-1.1-3.2-3.2-3.2-5.5v-62.2c0-3.7,3.1-6.4,6.4-6.4c1.1,0,2.2,0.3,3.2,0.9
					l7.1,4.1v-73.5c0-2.1-1.1-4.1-3-5.2l-71.5-41.2c-1-0.6-2-0.8-3-0.8c-3.1,0-6,2.5-6,6v217c0,2.1,1.1,4.1,3,5.2l71.5,41.2
					c1,0.6,2,0.8,3,0.8C220.1,561.5,222.9,559,222.9,555.6L222.9,555.6z"/>
				<path class="st0" d="M489.9,431.3l-13.5,7.8L489.9,431.3v-66.6c0-0.5-0.1-1-0.2-1.5c0.1,0.5,0.2,1,0.2,1.5V431.3z"/>
				<path class="st0" d="M488.9,361.5c-0.2-0.3-0.5-0.7-0.8-1C488.5,360.8,488.7,361.1,488.9,361.5z"/>
				<path class="st0" d="M489.2,361.8c0.2,0.3,0.3,0.6,0.4,0.9C489.5,362.5,489.3,362.1,489.2,361.8z"/>
			</g>
			<g>
				<path class="st2" d="M408.2,401.7c-1.1,1.1-1.7,2.6-1.7,4.2v82.4c0,0,0,0,0,0c0,0.5,0.1,1,0.2,1.5c0,0.1,0.1,0.3,0.1,0.4
					c0.1,0.3,0.2,0.6,0.4,0.9c0.1,0.1,0.1,0.3,0.2,0.4c0.2,0.3,0.5,0.7,0.8,1c0,0,0.1,0.1,0.1,0.1c0.3,0.3,0.7,0.6,1.1,0.8
					c0.1,0.1,0.2,0.1,0.3,0.2c0.3,0.2,0.6,0.3,0.9,0.4c0.1,0,0.3,0.1,0.4,0.1c0.4,0.1,0.7,0.1,1.1,0.2c0.1,0,0.2,0,0.2,0
					c0.3,0,0.7-0.1,1-0.1c0.2,0,0.4,0,0.6-0.1c0.5-0.1,1-0.3,1.5-0.6c0,0,0,0,0,0l57.8-33.3v-15.6c0-0.7,0.2-1.4,0.4-2.1
					c0.5-1.4,1.5-2.6,2.8-3.4l13.5-7.8v-66.6c0-0.5-0.1-1-0.2-1.5c0-0.1-0.1-0.3-0.1-0.4c-0.1-0.3-0.2-0.6-0.4-0.9
					c-0.1-0.1-0.1-0.3-0.2-0.4c-0.2-0.3-0.5-0.7-0.8-1c0,0-0.1-0.1-0.1-0.1c-0.3-0.3-0.7-0.6-1.1-0.8c-0.1-0.1-0.2-0.1-0.3-0.2
					c-0.3-0.2-0.6-0.3-0.9-0.4c-0.1,0-0.3-0.1-0.4-0.1c-0.4-0.1-0.7-0.1-1.1-0.2c-0.1,0-0.2,0-0.2,0c-0.3,0-0.7,0.1-1,0.1
					c-0.2,0-0.4,0-0.5,0.1c-0.5,0.1-1,0.3-1.5,0.6l-71.5,41.2C409,401,408.6,401.3,408.2,401.7L408.2,401.7z"/>
				<path class="st2" d="M336.7,400.7l-71.5-41.2c-0.5-0.3-1-0.5-1.5-0.6c-0.2,0-0.3,0-0.5-0.1c-0.3-0.1-0.7-0.1-1-0.1
					c-0.1,0-0.1,0-0.2,0c-0.4,0-0.8,0.1-1.1,0.2c-0.1,0-0.3,0.1-0.4,0.1c-0.3,0.1-0.6,0.2-0.9,0.4c-0.1,0.1-0.2,0.1-0.3,0.2
					c-0.4,0.2-0.8,0.5-1.1,0.8c0,0-0.1,0.1-0.1,0.1c-0.3,0.3-0.5,0.6-0.8,1c-0.1,0.1-0.1,0.3-0.2,0.4c-0.2,0.3-0.3,0.6-0.4,0.9
					c0,0.1-0.1,0.3-0.1,0.4c-0.1,0.5-0.2,1-0.2,1.5v66.6l13.5,7.8c1,0.6,1.8,1.4,2.3,2.3c0.6,0.9,0.9,2,0.9,3.2v15.5l57.8,33.3
					c0.5,0.3,1,0.5,1.5,0.6c0.2,0,0.3,0,0.5,0.1c0.3,0.1,0.7,0.1,1,0.1c0.1,0,0.2,0,0.2,0c0.4,0,0.8-0.1,1.1-0.2
					c0.1,0,0.3-0.1,0.4-0.1c0.3-0.1,0.6-0.2,0.9-0.4c0.1-0.1,0.2-0.1,0.3-0.2c0.4-0.2,0.8-0.5,1.1-0.8c0,0,0.1-0.1,0.1-0.1
					c0.3-0.3,0.5-0.6,0.8-1c0.1-0.1,0.1-0.2,0.2-0.4c0.2-0.3,0.3-0.6,0.4-0.9c0-0.1,0.1-0.3,0.1-0.4c0.1-0.5,0.2-1,0.2-1.5v-82.4
					c0-1.1-0.3-2.1-0.8-3C338.4,402,337.7,401.2,336.7,400.7L336.7,400.7z"/>
				<path class="st2" d="M376.1,343l71.5-41.2c4-2.3,4-8,0-10.3l-57.8-33.3l-13.5,7.8c-2,1.1-4.4,1.1-6.4,0l-13.5-7.8l-57.8,33.3
					c-1,0.6-1.7,1.4-2.2,2.3c-1,1.8-1,4,0,5.8c0.5,0.9,1.2,1.7,2.2,2.3l71.5,41.2c0.9,0.5,2,0.8,3,0.8
					C374.1,343.8,375.2,343.6,376.1,343L376.1,343z"/>
			</g>
		</g>
	</g>
</g>
</svg>
