<?xml version="1.0" encoding="utf-8"?>
<!-- Generator: Adobe Illustrator 24.1.1, SVG Export Plug-In . SVG Version: 6.00 Build 0)  -->
<svg version="1.1" id="Capa_1" xmlns="http://www.w3.org/2000/svg" xmlns:xlink="http://www.w3.org/1999/xlink" x="0px" y="0px"
	 viewBox="0 0 1080 1080" style="enable-background:new 0 0 1080 1080;" xml:space="preserve">
<style type="text/css">
	.st0{fill:#E53935;}
</style>
<g transform="translate(-.49053 -.18775)">
	<path class="st0" d="M5.5,32.4c0-5.3,4.3-9.7,9.6-9.7h716.4c189.9,0,343.9,154.5,343.9,345.1v67c0,5.3-4.3,9.7-9.6,9.7h-210
		c-5.3,0-9.6-4.3-9.6-9.7v-67c0-63.5-51.3-115-114.6-115H244.4c-5.3,0-9.6,4.3-9.6,9.7v785.8c0,5.3-4.3,9.7-9.6,9.5
		C103,1052.6,5.5,951.6,5.5,827.8L5.5,32.4z"/>
	<path class="st0" d="M435.5,482.8c-5.3,0-9.7,4.3-9.4,9.7c5.1,122.6,105.7,220.4,229.1,220.4H808c21.1,0,38.2,17.2,38.2,38.3v297
		c0,5.3,4.3,9.7,9.6,9.5c122.2-5.1,219.6-106,219.6-229.8v-76.7c0-148.2-119.8-268.4-267.5-268.4L435.5,482.8z"/>
</g>
</svg>
