<?xml version="1.0" encoding="utf-8"?>
<!-- Generator: Adobe Illustrator 24.1.1, SVG Export Plug-In . SVG Version: 6.00 Build 0)  -->
<svg version="1.1" id="Capa_1" xmlns="http://www.w3.org/2000/svg" xmlns:xlink="http://www.w3.org/1999/xlink" x="0px" y="0px"
	 viewBox="0 0 1080 1080" style="enable-background:new 0 0 1080 1080;" xml:space="preserve">
<style type="text/css">
	.st0{fill:#00BFA5;}
</style>
<g transform="matrix(.13708 0 0 -.13708 .8748 23.183)">
	<g transform="matrix(1.6291,0,0,1.6287,-51.081,-50.726)">
		<path class="st0" d="M1039.3-1929.2c0,374.7,304.6,679.4,678.8,679.4c374.6,0,679.3-304.7,679.3-679.4
			c0-136.5-110.3-246.9-246.4-246.9c-136.1,0-246.4,110.4-246.4,246.9c0,102.5-83.6,185.6-186.4,185.6c-102.4,0-186-83.2-186-185.6
			c0-136.5-110.3-246.9-246.4-246.9S1039.4-2065.7,1039.3-1929.2 M3851.7-3070.8c0-136.6-110.3-246.9-246.4-246.9H1319.1
			c-136.1,0-246.4,110.3-246.4,246.9c0,136.5,110.3,246.9,246.4,246.9h2286.2C3741.4-2823.9,3851.7-2934.3,3851.7-3070.8
			 M2783.4-2067.5c-76.2,113-46.4,266.2,66.5,342.4l571.5,386.1c112,77.9,266.1,46.4,342.3-65.7c76.2-112.9,46.4-266.2-66.5-342.4
			l-571.5-386.1c-42-28.9-90.2-42.9-137.4-42.9C2909-2176.1,2831.1-2137.6,2783.4-2067.5 M4348.4-3585.5
			c0-46.6-18.5-91.3-51.5-124.4l-424.8-424.9c-33-32.9-77.7-51.5-124.4-51.5H1143.3c-46.7,0-91.4,18.6-124.4,51.5l-424.8,424.9
			c-33,33-51.5,77.8-51.5,124.4V-982c0,46.7,18.5,91.4,51.5,124.4l424.8,425c33,32.9,77.7,51.5,124.4,51.5h2604.4
			c46.7,0,91.4-18.5,124.4-51.5l424.8-425c33-32.9,51.5-77.7,51.5-124.4V-3585.5z M4710-573.4L4155.4-18.7
			c-84,84.1-198.1,131.3-316.9,131.3H1052.2c-118.9,0-232.9-47.3-317-131.4L181-573.5c-84-84.1-131.2-198-131.2-316.9v-2786.7
			c0-118.9,47.2-233,131.3-317l554.6-554.7c84-84.1,198-131.3,316.9-131.3h2786c118.8,0,232.8,47.2,316.9,131.3l554.6,554.7
			c84,84,131.3,198.1,131.3,317v2786.6C4841.2-771.5,4794-657.5,4710-573.4"/>
	</g>
</g>
</svg>
