<?xml version="1.0" encoding="utf-8"?>
<!-- Generator: Adobe Illustrator 26.0.0, SVG Export Plug-In . SVG Version: 6.00 Build 0)  -->
<svg version="1.1" id="Capa_1" xmlns="http://www.w3.org/2000/svg" xmlns:xlink="http://www.w3.org/1999/xlink" x="0px" y="0px"
	 viewBox="0 0 1080 1080" style="enable-background:new 0 0 1080 1080;" xml:space="preserve">
<style type="text/css">
	.st0{fill:#FF5252;}
</style>
<path class="st0" d="M540,53.7c53.7,0,97.3,43.5,97.3,97.3c0,36-19.4,67.6-48.6,84.2v61.8h48.6c188,0,340.5,152.4,340.5,340.5h48.6
	c26.8,0,48.6,21.7,48.6,48.6v145.9c0,26.9-21.8,48.6-48.6,48.6l0,0h-48.6v48.6c0,53.7-43.5,97.3-97.3,97.3h0H199.5
	c-53.7,0-97.2-43.5-97.3-97.2v-48.6H53.6C26.8,880.5,5,858.7,5,831.9v0V685.9c0-26.9,21.8-48.6,48.6-48.6c0,0,0,0,0,0h48.6
	c0-188,152.5-340.4,340.5-340.4h48.6v-61.8c-30.2-17.2-48.8-49.4-48.6-84.2C442.7,97.2,486.3,53.7,540,53.7L540,53.7 M321.1,588.7
	c-67.2,0-121.6,54.4-121.6,121.6S254,831.9,321.1,831.9s121.6-54.4,121.6-121.6S388.3,588.7,321.1,588.7 M758.9,588.7
	c-67.2,0-121.6,54.4-121.6,121.6s54.4,121.6,121.6,121.6s121.6-54.4,121.6-121.6l0,0C880.5,643.1,826,588.7,758.9,588.7L758.9,588.7
	z"/>
</svg>
