<?xml version="1.0" encoding="utf-8"?>
<!-- Generator: Adobe Illustrator 24.1.1, SVG Export Plug-In . SVG Version: 6.00 Build 0)  -->
<svg version="1.1" id="Capa_1" xmlns="http://www.w3.org/2000/svg" xmlns:xlink="http://www.w3.org/1999/xlink" x="0px" y="0px"
	 viewBox="0 0 1080 1080" style="enable-background:new 0 0 1080 1080;" xml:space="preserve">
<style type="text/css">
	.st0{fill:#F44336;}
</style>
<path class="st0" d="M940,360.3c0,132.1-72.4,247.2-179.1,308.2c-6.4,5.4-10.2,13.9-6.4,21.9l182.8,360.6c4.8,11.2-2.7,24.1-15,24.1
	H223.7l3.8-2.1c26.3-15,208.6-374,386.6-544.1c178-170.1,200.5-113.4,102.4-298.5c0,0,75.6,147.1,11.3,158.4
	c-50.4,9.1-166.2-102.7-123.3-203.3c42.9-98.4,211.8-79.7,289.5,0.5C923.4,237.2,940,296.6,940,360.3 M280.5,600.5
	c-70.8,130-115.8,224.7-140.5,291V21.6c0-9.1,7.5-16.6,16.6-16.6h432.7c125.5,2.1,235.4,68.5,297.1,168.5
	c-45-56.2-115.8-88.3-185.5-88.3C568.4,85.3,535.2,133.4,280.5,600.5L280.5,600.5z"/>
</svg>
