<?xml version="1.0" encoding="utf-8"?>
<!-- Generator: Adobe Illustrator 27.0.0, SVG Export Plug-In . SVG Version: 6.00 Build 0)  -->
<svg version="1.1" id="Capa_1" xmlns="http://www.w3.org/2000/svg" xmlns:xlink="http://www.w3.org/1999/xlink" x="0px" y="0px"
	 viewBox="0 0 1080 1080" style="enable-background:new 0 0 1080 1080;" xml:space="preserve">
<style type="text/css">
	.st0{fill:#546E7A;}
	.st1{fill:#FEC300;}
</style>
<path class="st0" d="M914.16,582.51c1-41.48-3.15-82.41-16.31-122.05c-18.95-57.05-49.72-106.55-93.62-147.85
	c-37.49-35.27-80.31-61.7-128.41-79.88c-23.16-8.75-28.83-23.45-18.34-45.64c12.75-26.94,25.53-53.87,38.47-80.71
	c8.64-17.92,21.94-22.64,40.51-15.5c68.39,26.31,129.69,63.84,182.48,114.89c75.29,72.81,125.02,159.82,146.05,262.87
	c7.91,38.73,10.09,77.86,9.93,117.25c-0.02,6.16-1.88,7.72-7.83,7.64c-24.24-0.31-48.49-0.13-72.73-0.13
	c-22.93,0-45.88-0.39-68.79,0.2C916.87,593.83,913.94,591.84,914.16,582.51z M385.14,108.99c-10.05-20.68-22.35-24.95-44.09-16.7
	c-45,17.07-86.77,40.03-125.66,68.28c-66.93,48.62-119.32,109.78-157.1,183.38C19.44,419.63,3.59,500.42,5.1,585.08
	c0.13,7.24,2.49,8.56,9.03,8.46c23.59-0.36,47.18-0.14,70.77-0.14c24.25,0,48.5-0.25,72.74,0.16c6.62,0.11,8.28-1.96,8.19-8.29
	c-0.29-20.31,0.2-40.59,2.61-60.83c8.66-72.58,38.21-135.62,86.55-190.02c41.74-46.98,92.61-80.58,151.37-102.58
	c20.81-7.79,26.61-23.01,17.07-43.15C410.8,162.07,398.02,135.5,385.14,108.99z M165.68,861.29c0-68.46-0.11-136.92,0.16-205.38
	c0.03-7.32-1.83-9.32-9.26-9.26c-47.47,0.36-94.95,0.37-142.42-0.01c-7.55-0.06-9.06,2.14-9.05,9.3
	c0.22,136.6,0.23,273.19-0.01,409.79c-0.01,7.44,1.96,9.3,9.26,9.25c47.47-0.32,94.95-0.36,142.42,0.03
	c7.56,0.06,9.09-2.12,9.06-9.3C165.57,997.56,165.68,929.42,165.68,861.29z M1075,656c0.02-8.31-2.87-9.36-10.01-9.32
	c-46.82,0.28-93.64,0.34-140.46-0.04c-8.04-0.07-10.38,1.88-10.34,10.18c0.36,68.13,0.2,136.27,0.2,204.4s0.11,136.27-0.16,204.4
	c-0.03,7.07,1.3,9.44,8.98,9.38c47.47-0.4,94.95-0.35,142.42-0.04c7.19,0.05,9.35-1.62,9.34-9.17
	C1074.72,929.19,1074.7,792.59,1075,656z"/>
<path class="st1" d="M860.93,1064.71c0.01,7.54-1.74,10-9.68,9.94c-46.85-0.38-93.71-0.43-140.56,0.02c-8.69,0.08-9.95-3-9.94-10.69
	c0.21-162.92-0.67-325.84,0.49-488.75c0.61-86.52-59.39-152.3-141.74-161.88c-87.7-10.2-164.22,47.07-177.8,127.87
	c-1.89,11.23-2.01,22.85-2.02,34.29c-0.12,162.26-0.18,324.53,0.16,486.79c0.02,9.99-2.5,12.52-12.43,12.4
	c-46.19-0.56-92.4-0.43-138.59-0.07c-7.82,0.06-9.77-2.21-9.75-9.86c0.26-87.52,0.17-175.05,0.17-262.57c0.11,0,0.23,0,0.34,0
	c0-82.93-1.08-165.89,0.32-248.8c1.24-73.22,29.52-136.76,79.26-189.66C374.19,283.94,468.27,249.83,576.2,262
	c118.46,13.35,206.52,74.44,258.82,183.09c18.57,38.58,25.88,80.07,25.83,123C860.65,733.63,860.72,899.17,860.93,1064.71z
	 M482.53,189.6c6.05,12.81,16.08,18.36,29.67,18.55c9.16,0.13,18.33,0.02,27.49,0.01c8.84-0.01,17.67-0.13,26.51,0.02
	c14.89,0.25,25.4-5.67,31.89-19.71c16.49-35.64,33.63-70.98,50.44-106.47c5.46-11.52,11.57-22.84,15.81-34.81
	c5.75-16.22-4.29-32.76-21.25-35.25c-18.43-2.71-37.01-5.17-55.59-5.89c-48.42-1.9-96.81-1.69-145,5.06
	c-24.49,3.43-34.86,21.14-24.14,43.77C439.63,99.83,461.29,144.61,482.53,189.6z"/>
</svg>
