<?xml version="1.0" encoding="utf-8"?>
<!-- Generator: Adobe Illustrator 26.0.0, SVG Export Plug-In . SVG Version: 6.00 Build 0)  -->
<svg version="1.1" id="Capa_1" xmlns="http://www.w3.org/2000/svg" xmlns:xlink="http://www.w3.org/1999/xlink" x="0px" y="0px"
	 viewBox="0 0 1080 1080" style="enable-background:new 0 0 1080 1080;" xml:space="preserve">
<style type="text/css">
	.st0{fill:#D7252C;}
	.st1{fill:#B0BEC5;}
</style>
<g id="XMLID_1_">
	<g id="XMLID_7_">
		<path class="st0" d="M834.9,600.8H245.4c-27.9,0-50.5-22.9-50.5-50.5c0-27.6,22.9-50.5,50.5-50.5h589.2
			c27.9,0,50.5,22.9,50.5,50.5S862.8,600.8,834.9,600.8"/>
		<path class="st0" d="M245.4,498.3c-28.4,0-52,23.6-52,52c0,28.4,23.3,52,52,52h589.5c28.7,0,51.7-23.6,51.7-52
			c0-28.4-23.3-52-52-52L245.4,498.3z M245.4,501.2h589.2c27.1,0,49,22.2,49,49c0,26.8-21.6,49-48.7,49H245.4c-27.1,0-49-22.2-49-49
			C196.4,523.5,218.6,501.2,245.4,501.2L245.4,501.2z"/>
	</g>
</g>
<g>
	<path class="st1" d="M165.9,332.6c0-1.5,1.9-12.3,4.3-24c15.7-78,59.3-153.9,118.5-206.2c28.5-25.2,52.9-41.7,85.6-58
		c162.6-81,362.6-33.8,471.3,111.1c30.6,40.8,52,84,64.2,129.4c4.4,16.5,9.5,41.7,9.5,47.3c0,3.1-8.5,3.2-376.6,3.2
		C196.1,335.3,165.9,335.1,165.9,332.6L165.9,332.6z M162.9,749.7c-15.8-4.2-27.1-12.2-37.7-26.2c-9.8-13.1-13.1-26.2-13.1-52.3
		v-21.9l-8.5-8.1c-4.8-4.6-10.4-12.3-13-17.8l-4.5-9.7V495.9l4.7-9.6c2.7-5.5,8.2-12.8,13-17.1l8.3-7.5v-22.1
		c0-17.9,0.7-24,3.5-32.4c8.6-25.5,29.5-43,55.8-46.8c13.9-2,723.4-2,737.3,0c26.4,3.8,47.2,21.3,55.8,46.8
		c2.8,8.3,3.5,14.5,3.5,32.4v22.1l8.3,7.5c4.8,4.3,10.3,11.5,13,17.1l4.7,9.6v59.7c0,69,0.1,68.5-16.6,84.8l-9.1,8.9l-0.6,25.9
		c-0.6,25-0.8,26.3-5.8,36.8c-6.6,13.8-14.6,22.9-26.1,29.8c-19,11.3,9.2,10.6-396.5,10.5C227.5,752.1,170.4,751.7,162.9,749.7
		L162.9,749.7z M856.5,596.4c17.9-9.5,27.5-24,28.6-43.2c1.3-21.5-9.6-40.2-29-49.8l-8.4-4.1l-304.3-0.4
		c-338.6-0.5-314.3-1.3-329.9,11.1c-11.8,9.4-17.8,21.3-18.7,37.5c-0.7,11.4-0.2,14.1,3.8,22.8c4.9,10.8,10.6,17.5,19.2,22.9
		c13.4,8.3-2,7.9,324.7,7.5l306.9-0.4L856.5,596.4z M324.8,1073.3c-22.6-2.8-52.2-14.1-71.2-27.1c-11-7.5-29.5-25.6-38.3-37.2
		c-15.9-21.1-27.4-50.1-30.7-77.5c-1.1-8.9-1.8-45.8-1.8-89.5l0-74.4h87.4l0,71.9c0,39.5,0.8,77.2,1.7,83.7
		c3.6,24.9,18.6,45.4,41.2,56.5l11.7,5.7l33.6,0.5c30.1,0.4,34.2,0.2,39.3-2.6c3.5-1.9,15.6-15.7,31.9-36.6
		c14.5-18.4,28.9-35.2,32-37.3l5.7-3.8h75.6c66.6,0,76.3,0.3,81.4,2.8c4.1,2,13.7,12.8,32.9,37.2c14.9,18.9,29.4,35.8,32.3,37.6
		c7.6,4.6,61.4,4.7,76.1,0.1c23.2-7.2,40.7-24.8,47.9-47.9c2.8-8.9,3.1-17.1,3.1-88.7v-78.9H906l-0.7,83.7l-0.7,83.7l-4.5,16.8
		c-17.7,66.3-71.3,113.6-138.2,121.7C743.6,1075.6,342.9,1075.5,324.8,1073.3L324.8,1073.3z"/>
	<path class="st1" d="M387,860c-8.3-7.3-15.3-14-15.6-14.9c-0.3-0.9,7.5-10.8,17.3-22l17.8-20.4l264.7,0.1l36.1,41.7l-13,11.4
		c-7.1,6.3-14.6,12.8-16.5,14.4c-3.5,3-3.6,2.9-14.1-9.6L653,848.2l-227.4-0.1l-23.5,25.1L387,860z"/>
</g>
</svg>
