<?xml version="1.0" encoding="utf-8"?>
<!-- Generator: Adobe Illustrator 24.1.1, SVG Export Plug-In . SVG Version: 6.00 Build 0)  -->
<svg version="1.1" id="Capa_1" xmlns="http://www.w3.org/2000/svg" xmlns:xlink="http://www.w3.org/1999/xlink" x="0px" y="0px"
	 viewBox="0 0 1080 1080" style="enable-background:new 0 0 1080 1080;" xml:space="preserve">
<style type="text/css">
	.st0{fill:#F44336;}
</style>
<path class="st0" d="M903.7,8c134.8,23,173.3,115.7,171.2,212.7v-2.1l-61,799.8l-790.7,54.1h0.5C158,1069.8,12,1063.4,5,858.8
	l73.3-133.9l148.2,346.1l126.2-408.2l-2.7,0.5l1.1-1.1l412.4,131.8L657.1,377.1l393.2-24.6L740.6,98.6L903.7,7.5L903.7,8 M5,856.6
	v1.1V856.6 M234,230.9C392.3,72.9,597.2-20.3,675.8,59.5c78.1,78.8-4.3,272.7-162.6,430.2C352.7,647.2,151,745.8,72.4,666.5
	c-78.6-79.8,2.1-278,161-435.5H234z"/>
</svg>
