<?xml version="1.0" encoding="utf-8"?>
<!-- Generator: Adobe Illustrator 24.1.1, SVG Export Plug-In . SVG Version: 6.00 Build 0)  -->
<svg version="1.1" id="Capa_1" xmlns="http://www.w3.org/2000/svg" xmlns:xlink="http://www.w3.org/1999/xlink" x="0px" y="0px"
	 viewBox="0 0 1080 1080" style="enable-background:new 0 0 1080 1080;" xml:space="preserve">
<style type="text/css">
	.st0{fill:#FF7043;}
</style>
<path class="st0" d="M506.5,131.1c0-17.6,14.2-31.8,31.8-31.8c17.6,0,31.8,14.2,31.8,31.8s-14.2,31.8-31.8,31.8
	C520.8,162.9,506.5,148.6,506.5,131.1 M127.1,419c0-17.6,14.3-31.8,31.8-31.8c17.6,0,31.8,14.2,31.8,31.8
	c0,17.6-14.3,31.8-31.8,31.8C141.4,450.8,127.1,436.6,127.1,419 M885.9,420.5c0-17.6,14.2-31.8,31.8-31.8
	c17.6,0,31.8,14.2,31.8,31.8c0,17.6-14.2,31.8-31.8,31.8C900.2,452.3,885.9,438.1,885.9,420.5L885.9,420.5 M219.2,464.1
	c14.6-6.5,21.2-23.6,14.7-38.3l-14.1-31.9h55.5V644h-112c-13.8-48.5-18.1-99.3-12.7-149.5L219.2,464.1z M451.3,470.2v-73.7h132.1
	c6.8,0,48.2,7.9,48.2,38.8c0,25.7-31.7,34.9-57.8,34.9L451.3,470.2z M270.9,867.2c0-17.6,14.3-31.8,31.8-31.8
	c17.6,0,31.8,14.2,31.8,31.8c0,17.6-14.3,31.8-31.8,31.8C285.1,899,270.9,884.7,270.9,867.2 M742.1,868.7
	c0-17.6,14.2-31.8,31.8-31.8s31.8,14.2,31.8,31.8c0,17.6-14.2,31.8-31.8,31.8S742.1,886.2,742.1,868.7 M752,796.5
	c-15.7-3.4-31.1,6.6-34.4,22.3l-16,74.5c-103.9,47.1-223.1,46.5-326.5-1.6l-16-74.5c-3.4-15.7-18.8-25.7-34.4-22.3l-65.8,14.1
	c-12.2-12.6-23.6-26-34-40.1h320c3.6,0,6-0.7,6-3.9V651.9c0-3.3-2.4-3.9-6-3.9h-93.6v-71.8h101.2c9.2,0,49.4,2.6,62.2,54
	c4,15.8,12.9,67.1,18.9,83.6c6,18.4,30.5,55.3,56.6,55.3h165.2c-11.1,14.8-23.2,28.9-36.3,42L752,796.5z M929.7,497.7
	c2.2,22.6,2.5,45.3,0.8,68h-40.2c-4,0-5.6,2.6-5.6,6.6v18.4c0,43.4-24.5,52.9-45.9,55.3c-20.4,2.3-43.1-8.6-45.9-21.1
	c-12.1-67.8-32.1-82.3-63.9-107.3c39.4-25,80.3-61.9,80.3-111.2c0-53.3-36.5-86.9-61.4-103.3c-34.9-23-73.6-27.6-84.1-27.6H248.3
	c57.4-64.2,134.4-107.6,219.1-123.6l49,51.4c11.1,11.6,29.4,12,41,0.9l54.8-52.4c113.1,21.2,211.1,91,268,190.9l-37.5,84.7
	c-6.5,14.7,0.1,31.8,14.8,38.3L929.7,497.7z M1023.2,499l-1.3-13.1l38.6-36c7.9-7.3,4.9-22.1-5.1-25.8l-49.4-18.5l-3.9-12.8
	l30.8-42.8c6.3-8.7,0.5-22.6-10.1-24.3l-52.1-8.5l-6.3-11.7l21.9-48c4.5-9.8-3.8-22.3-14.6-21.9l-52.9,1.8l-8.3-10.1l12.1-51.5
	c2.5-10.5-8.2-21.1-18.6-18.6l-51.5,12.1l-10.2-8.3l1.9-52.9c0.4-10.7-12.1-19.1-21.9-14.6l-48,21.9l-11.7-6.3l-8.5-52.1
	C752.6,46.5,738.7,40.7,730,47l-42.8,30.8L674.4,74L656,24.6c-3.7-10.1-18.5-13-25.8-5.1l-36,38.7L581,56.8l-27.8-45
	c-5.6-9.1-20.7-9.1-26.3,0l-27.8,45l-13.1,1.3l-36-38.7c-7.3-7.8-22.1-4.9-25.8,5.1L405.6,74l-12.7,3.9L350.1,47
	c-8.7-6.3-22.6-0.5-24.3,10.1l-8.5,52.1l-11.7,6.3l-48-21.9c-9.8-4.5-22.3,3.9-21.9,14.6l1.8,52.9l-10.2,8.3l-51.5-12.1
	c-10.5-2.4-21.1,8.2-18.6,18.6l12.1,51.5l-8.3,10.1l-52.9-1.8c-10.7-0.3-19.1,12.1-14.6,21.9l21.9,48l-6.3,11.7l-52.1,8.5
	c-10.6,1.7-16.3,15.6-10.1,24.3l30.8,42.8L74,405.6l-49.4,18.5c-10,3.7-13,18.5-5.1,25.8l38.6,36L56.8,499l-45,27.8
	c-9.1,5.6-9.1,20.7,0,26.3l45,27.8l1.3,13.1l-38.6,36c-7.8,7.3-4.9,22,5.1,25.8L74,674.4l3.9,12.8L47,730
	c-6.3,8.7-0.5,22.6,10.1,24.3l52.1,8.5l6.3,11.7l-21.9,48c-4.5,9.8,4,22.3,14.6,21.9l52.8-1.9l8.3,10.2l-12.1,51.5
	c-2.5,10.4,8.2,21,18.6,18.6l51.5-12.1l10.2,8.3l-1.8,52.9c-0.4,10.7,12.1,19.1,21.9,14.6l48-21.9l11.7,6.3l8.5,52.1
	c1.7,10.6,15.6,16.3,24.3,10.1l42.8-30.8l12.8,3.9l18.5,49.4c3.7,10,18.5,13,25.8,5.1l36-38.6l13.1,1.3l27.8,45
	c5.6,9.1,20.7,9.1,26.3,0l27.8-45l13.1-1.3l36,38.6c7.3,7.9,22.1,4.9,25.8-5.1l18.5-49.4l12.8-3.9L730,1033
	c8.7,6.2,22.6,0.5,24.3-10.1l8.5-52.1l11.7-6.3l48,21.9c9.8,4.5,22.3-3.9,21.9-14.6l-1.8-52.9l10.1-8.3l51.5,12.1
	c10.5,2.5,21.1-8.1,18.6-18.6l-12.1-51.5l8.3-10.2l52.9,1.9c10.7,0.4,19.1-12.1,14.6-21.9l-21.9-48l6.3-11.7l52.1-8.5
	c10.6-1.7,16.4-15.6,10.1-24.3l-30.8-42.8l3.9-12.8l49.4-18.5c10-3.8,13-18.5,5.1-25.8l-38.6-36l1.3-13.1l45-27.8
	c9.1-5.6,9.1-20.7,0-26.3L1023.2,499z"/>
</svg>
