<?xml version="1.0" encoding="utf-8"?>
<!-- Generator: Adobe Illustrator 24.1.1, SVG Export Plug-In . SVG Version: 6.00 Build 0)  -->
<svg version="1.1" id="Capa_1" xmlns="http://www.w3.org/2000/svg" xmlns:xlink="http://www.w3.org/1999/xlink" x="0px" y="0px"
	 viewBox="0 0 1080 1080" style="enable-background:new 0 0 1080 1080;" xml:space="preserve">
<style type="text/css">
	.st0{fill:#039BE5;}
</style>
<path class="st0" d="M850.2,265.4c-34,0-63.7,10.2-92.9,20c-34-59-97.7-98-166.3-98c-53.5,0-102.1,24.4-136.6,58.5
	c-38.9-48.8-97.7-83.4-165.8-83.4c-113.3,0-210.6,93.2-210.6,206.8c0,28.8,10.2,58,19.9,87.3C43.9,486.3,5,544.9,5,613.2
	c0,97.5,78.3,181.4,176,181.4c14.6,0,29.2,0,38.9-4.9c19.5,73.6,92.9,127.8,180.9,127.8c82.7,0,151.2-49.3,175.5-118
	c24.8,10.2,49.1,20,73.4,20c63.7,0,122.1-35.6,151.2-88.3c15.1,3.9,30.6,3.9,44.3,3.9c126.9,0,229.5-101.9,229.5-234.1
	C1079.7,369.3,977.6,265.4,850.2,265.4L850.2,265.4z"/>
</svg>
