<?xml version="1.0" encoding="utf-8"?>
<!-- Generator: Adobe Illustrator 24.1.1, SVG Export Plug-In . SVG Version: 6.00 Build 0)  -->
<svg version="1.1" id="Capa_1" xmlns="http://www.w3.org/2000/svg" xmlns:xlink="http://www.w3.org/1999/xlink" x="0px" y="0px"
	 viewBox="0 0 1080 1080" style="enable-background:new 0 0 1080 1080;" xml:space="preserve">
<style type="text/css">
	.st0{fill:#295892;}
	.st1{fill:#A1E0FF;}
</style>
<g transform="matrix(1.0943 0 0 1.0943 -16.991 -8.4865)">
	<g>
		<g transform="matrix(.43318 0 0 .43318 52.078 -17.73)">
			<polygon class="st0" points="2132.8,1351 -23.2,1787.8 -23.2,2326.6 2132.8,1889.9 			"/>
		</g>
		<g transform="matrix(.43318 0 0 .43318 52.078 -17.73)">
			<polygon class="st0" points="2132.8,494.6 -23.2,931.5 -23.2,1470.3 2132.8,1033.5 			"/>
		</g>
		<g transform="matrix(.43318 0 0 .43318 52.078 -17.73)">
			<polygon class="st1" points="2132.8,1030.8 -23.2,608.2 -23.2,69.4 2132.8,492 			"/>
		</g>
		<g transform="matrix(.43318 0 0 .43318 52.078 -17.73)">
			<polygon class="st1" points="2132.8,1887.2 -23.2,1464.6 -23.2,925.7 2132.8,1348.3 			"/>
		</g>
	</g>
</g>
</svg>
