<?xml version="1.0" encoding="utf-8"?>
<!-- Generator: Adobe Illustrator 24.1.1, SVG Export Plug-In . SVG Version: 6.00 Build 0)  -->
<svg version="1.1" id="Capa_1" xmlns="http://www.w3.org/2000/svg" xmlns:xlink="http://www.w3.org/1999/xlink" x="0px" y="0px"
	 viewBox="0 0 1080 1080" style="enable-background:new 0 0 1080 1080;" xml:space="preserve">
<style type="text/css">
	.st0{fill:#039BE5;}
</style>
<path class="st0" d="M536.8,5.1c-50,1.1-97,10.7-135.7,26.3c-76.9,32-138.1,81.5-172.3,150.9c-52,91.9-60.2,209.7,8.2,312.2
	c63.3,96.6,146.5,184.8,233.8,286.4c77.6,28.2,116.5-55.4,104.8-85.6C519.4,624.1,459.5,554,412,479.8c-19.4-34-43.3-106-14.2-184.3
	c15-40.3,102.2-171,279.1-170.1c70.3,8.1,134.1,11.9,221.3,107.7c-22.7-61.2-57.8-115.2-109.3-153C712.1,24.7,620.2,3.2,536.8,5.1
	L536.8,5.1z M586.9,289.9c-56.5,0.5-82.8,46.3-71,89c51.6,74.2,117.7,152.1,176.9,228.2c64.4,123.9,18.8,219.1-104.1,299.6
	c-167.1,93-320.9,23.5-412.7-60.7c47.7,99.4,86.3,129.3,96,138.1c63,54.9,164.9,107.2,330,86.1c92.6-20.8,215.8-52.1,284.2-223.1
	c18.9-54,25.5-110.1,5.9-171.7c-18.1-68.7-55.6-117.9-94.7-168.5c-61-71.6-156.7-199.2-184.5-214.3
	C603.7,290.7,595,289.9,586.9,289.9L586.9,289.9z"/>
</svg>
