<?xml version="1.0" encoding="utf-8"?>
<!-- Generator: Adobe Illustrator 24.1.1, SVG Export Plug-In . SVG Version: 6.00 Build 0)  -->
<svg version="1.1" id="Capa_1" xmlns="http://www.w3.org/2000/svg" xmlns:xlink="http://www.w3.org/1999/xlink" x="0px" y="0px"
	 viewBox="0 0 1080 1080" style="enable-background:new 0 0 1080 1080;" xml:space="preserve">
<style type="text/css">
	.st0{fill:#EC407A;}
</style>
<path class="st0" d="M987,146.4L987,146.4c-11.1-43.5-41.6-79.6-88.2-104.5C854.9,18.4,798.2,5.7,734.9,5
	c-63.7-0.7-131.4,11-195.6,33.8C462.6,66.1,317.7,127,209.2,228.4C105.2,325.7,79.4,417,88.8,465.7
	c19.7,102.2,123.6,173.7,207,231.2c15,10.3,29.5,20.3,42.3,29.7C283.6,756.1,178.9,819.8,148,888c-27.5,60.8-14.4,106.7-4.1,128.6
	c12,25.6,32,45,52.2,50.6c18.5,5.2,37.4,7.7,56.4,7.7c29.4,0,59.1-6.2,87.6-18.4c43.6-18.7,82.4-51.1,109.3-91.2
	c43.2-64.4,48.9-147.6,33.1-204.6c23.2-3.7,47.8-3.9,74.5-0.8c60.7,7.1,90.2,30.5,104.4,48.8c15.2,19.7,17.2,39.1,16,47.5
	c-2.9,20.5-19,33.2-28.3,38.9c-9.1,5.6-22.9,14.1-19.7,32.1c1.4,7.8,7.8,25.5,35.7,20.8c20.1-3.4,79.4-35.2,82.1-102.4
	c1.6-39.8-15.3-80.9-46.3-112.5c-40-40.9-98.9-62.8-165.9-61.6c-43.4,0.8-75.1,4.3-99.9,11.3c-24.2-25-53.7-47.7-82.3-69.7
	c-64.1-49.3-124.7-95.9-121.1-161.1c4.7-85.7,92.5-171.7,261.1-255.7C642.7,121.6,763.8,119,827,141.4c23.1,8.2,39,19.9,45,33
	c11.1,24.4,5.9,58.7-14.2,94.2C821.3,333,726.7,414.1,580.6,430.5c-84.9,9.5-119.8-27.9-120.2-28.3c-10.4-11.4-23.3-25.6-42.7-15
	c-14.9,8.3-18,24-9.3,46.7l0.1,0.4c9.3,24.3,42,57.8,91.6,74.1c40.8,13.4,143.5,23.1,269.4-25.6c68.2-26.4,131.3-76.9,173-138.4
	C987,278.8,1002.8,208.4,987,146.4z M293.5,870.8c31.6-33.4,73.4-59.1,96.7-72c2.6,22.2,0.5,43.6-6.2,63.9c-0.9,2.8-2,5.7-3.3,8.9
	c-1.3,3.1-2.5,6-3.9,8.7c-6.9,14.3-16.3,28-28.1,40.8c-35,38.2-80.7,48.9-93,41.8c-0.8-0.5-1.9-2.6-2.4-6.2
	C250.8,938.4,263.9,902,293.5,870.8z"/>
</svg>
