<?xml version="1.0" encoding="utf-8"?>
<!-- Generator: Adobe Illustrator 24.1.1, SVG Export Plug-In . SVG Version: 6.00 Build 0)  -->
<svg version="1.1" id="Capa_1" xmlns="http://www.w3.org/2000/svg" xmlns:xlink="http://www.w3.org/1999/xlink" x="0px" y="0px"
	 viewBox="0 0 1080 1080" style="enable-background:new 0 0 1080 1080;" xml:space="preserve">
<style type="text/css">
	.st0{fill:#0277BD;}
</style>
<g transform="translate(0,140)">
	<path class="st0" d="M346,659.3c-34.3,0-58.6-32.8-58.6-67v-1.4c0-34.2,24.3-59.8,58.6-59.8h714.7c6.4-21.4,11.4-49.9,14.3-78.4
		H474.6c-34.3,0-62.2-26.4-62.2-60.6c0-34.2,27.9-60.6,62.2-60.6h598.2c-3.6-28.5-8.6-57-16.4-78.4H603.2
		c-34.3,0-62.2-26.4-62.2-60.6c0-34.2,27.9-60.6,62.2-60.6h400.3C910.6-31.7,738.3-135,541.1-135C245.2-135,5,102.2,5,397.9
		C5,693.5,245.2,935,541.1,935c203,0,379.5-111.1,470.3-275H346L346,659.3z"/>
</g>
</svg>
