<?xml version="1.0" encoding="utf-8"?>
<!-- Generator: Adobe Illustrator 24.1.1, SVG Export Plug-In . SVG Version: 6.00 Build 0)  -->
<svg version="1.1" id="Capa_1" xmlns="http://www.w3.org/2000/svg" xmlns:xlink="http://www.w3.org/1999/xlink" x="0px" y="0px"
	 viewBox="0 0 1080 1080" style="enable-background:new 0 0 1080 1080;" xml:space="preserve">
<style type="text/css">
	.st0{fill-rule:evenodd;clip-rule:evenodd;fill:#F44336;}
</style>
<g transform="translate(-6.1456 .2445)">
	<polygon class="st0" points="143.3,123.4 949.1,4.8 949.1,271.9 143.3,390.6 	"/>
	<polygon class="st0" points="143.2,466 949.1,347.3 949.1,614.5 143.2,733.1 	"/>
	<polygon class="st0" points="143.1,807.6 949,688.9 949,956.1 143.1,1074.8 	"/>
	
		<rect x="384.4" y="179.1" transform="matrix(0.3074 -0.9516 0.9516 0.3074 -145.441 701.5087)" class="st0" width="49.7" height="543"/>
	
		<rect x="658.2" y="15.6" transform="matrix(0.3074 -0.9516 0.9516 0.3074 199.7924 848.8278)" class="st0" width="49.7" height="543"/>
	
		<rect x="384.3" y="521.3" transform="matrix(0.3074 -0.9516 0.9516 0.3074 -471.0653 938.4873)" class="st0" width="49.7" height="543"/>
	
		<rect x="658.2" y="357.3" transform="matrix(0.3074 -0.9516 0.9516 0.3074 -125.2774 1085.4778)" class="st0" width="49.7" height="543"/>
</g>
</svg>
