<?xml version="1.0" encoding="utf-8"?>
<!-- Generator: Adobe Illustrator 24.1.1, SVG Export Plug-In . SVG Version: 6.00 Build 0)  -->
<svg version="1.1" id="Capa_1" xmlns="http://www.w3.org/2000/svg" xmlns:xlink="http://www.w3.org/1999/xlink" x="0px" y="0px"
	 viewBox="0 0 1080 1080" style="enable-background:new 0 0 1080 1080;" xml:space="preserve">
<style type="text/css">
	.st0{fill:#42A5F5;}
</style>
<path class="st0" d="M555.3,5H155.1C99.8,5,55,49.8,55,105l0,0v800.4c0,55.3,44.8,100,100.1,100h0h350.2c-20.5-12.5-40-28-57-45
	c-16.5-16.5-30.5-35-43-55H155V105h350.2v250.1h250.1v59c35.5,8,69.5,21.5,100.1,41V305.1L555.3,5 M870.9,850.4
	c66.5-105.5,34.5-245.1-70-311.2c-105.6-66.5-245.6-34-311.2,70c-67,105.5-34.5,244.6,70,311.2c73,46.5,166.1,46.5,239.6,1
	L955.5,1075l69.5-69.5L870.9,850.4 M680.3,855.4c-69.1,0-125.1-56-125.1-125.1l0,0c0-69.1,56-125.1,125.1-125.1l0,0
	c69.1,0,125.1,56,125.1,125.1S749.4,855.4,680.3,855.4C680.3,855.4,680.3,855.4,680.3,855.4z"/>
</svg>
