<?xml version="1.0" encoding="utf-8"?>
<!-- Generator: Adobe Illustrator 24.1.1, SVG Export Plug-In . SVG Version: 6.00 Build 0)  -->
<svg version="1.1" id="Capa_1" xmlns="http://www.w3.org/2000/svg" xmlns:xlink="http://www.w3.org/1999/xlink" x="0px" y="0px"
	 viewBox="0 0 1080 1080" style="enable-background:new 0 0 1080 1080;" xml:space="preserve">
<style type="text/css">
	.st0{fill:#455A64;}
</style>
<path class="st0" d="M317.9,946.2C195.9,875.4,91.9,813.4,86.8,808.5c-8.7-8.3-9.4-28.3-9.3-268.4c0-142.7,1.8-262.1,4-265.4
	C84.8,269.6,534.7,5,539.9,5c5.3,0,455.1,264.6,458.4,269.6c6.7,10.2,4.9,523-1.8,531.1c-4.6,5.6-197.2,119.2-435.4,256.8
	l-21.5,12.5L317.9,946.2z M613.1,991.7c39.1-22.5,75.4-45.6,80.5-51.4c20.4-23.1,8.8-88.5-31.2-175.8
	c-13.5-29.6-23.2-55.2-21.5-56.9c8.5-8.5,118.3,84.2,140.8,119.1c34.7,53.6,23.4,52.4,97.1,10.3c35.8-20.5,69.9-41.5,75.7-46.8
	c9.6-8.8,10.5-16.9,10.5-94.8c0-97.3,1.5-93.7-50.6-120.1c-28.9-14.6-106.8-29.4-156.2-29.6c-12.3-0.1-23.8-2.4-25.6-5.2
	c-4-6.5,13.2-15.3,80.1-40.7c42.1-16,63.7-21,101.6-23.4l48.1-3V291.6l-66.7-38.9c-36.7-21.4-71.3-38.9-76.8-38.9
	c-18.1,0-72.5,37.6-95.7,66.2c-12.5,15.3-33.5,44-46.7,63.6c-13.2,19.7-26.2,35.8-28.8,35.9c-6.7,0.2,0.2-66.5,12.9-124.9
	c6.6-30.3,16.7-58.6,26.6-74.6c8.8-14.2,16-28.9,16-32.7c0-6.2-153-99.4-163.2-99.4c-7.1,0-150.8,85.5-157.8,93.9
	c-4.4,5.3-5.7,22.1-4.2,52c2,38.9,5.7,51.8,30.5,108.4c15.5,35.3,29.4,67.2,31,70.9c6.3,14.8-11.2,4.6-61.5-35.9
	c-60.6-48.8-78.4-67.8-97.2-103.3c-7.3-13.9-15.8-25.2-18.7-24.9c-2.9,0.2-36.6,19-74.9,41.6l-69.5,41.2v186.9l29.3,17.5
	c38.6,23.1,54.7,27.3,131.1,34.4c35.3,3.3,66.2,7.8,68.8,10.1c5.9,5.2-13.1,14.8-79.5,40.1c-42.1,16-63.7,21-101.6,23.4l-48.1,3
	l-1.5,86.6c-1.7,102.3-9.4,89.4,83.9,142.6l64.1,36.6l28.2-15.2c35.6-19.2,61.4-45.7,102.4-104.8c17.8-25.8,34.4-46.8,36.7-46.8
	c6.6,0,5.2,20.3-6.4,89.1c-8,47.7-15.3,72.6-29.5,100.6c-16,31.5-17.7,38.3-11.5,44.5c7.6,7.6,147.7,91,154.2,91.7
	C540.3,1032.4,573.9,1014.2,613.1,991.7L613.1,991.7z M502.5,639.2c-29.2-10.2-59.4-45-66-76c-18.1-85,68.4-156,146.2-120
	c68.2,31.6,84.5,115.4,32.9,169C583.6,645.6,546,654.5,502.5,639.2L502.5,639.2z M565.7,607.8c9.6-4,24-15,31.9-24.5
	c27.9-33.2,14.7-90.5-25.2-109.5c-51.1-24.3-104.7,10.4-104.7,67.9c0,28,17.7,53.9,45.2,65.8C533.9,616.7,544.3,616.8,565.7,607.8
	L565.7,607.8z"/>
</svg>
