<?xml version="1.0" encoding="utf-8"?>
<!-- Generator: Adobe Illustrator 26.0.0, SVG Export Plug-In . SVG Version: 6.00 Build 0)  -->
<svg version="1.1" id="Capa_1" xmlns="http://www.w3.org/2000/svg" xmlns:xlink="http://www.w3.org/1999/xlink" x="0px" y="0px"
	 viewBox="0 0 1080 1080" style="enable-background:new 0 0 1080 1080;" xml:space="preserve">
<style type="text/css">
	.st0{fill:#F06292;}
</style>
<path class="st0" d="M1055.1,845c24,42,26.6,86.1,6.4,121.2c-20.1,35.1-59.5,54.8-107.5,54.8h-91.2c1.3-17.1,1.7-34.3,1.7-51.4
	c0-19.3-0.9-38.6-2.1-57.4h60c14.6,0,26.6-12,26.6-26.6c0-4.3-1.3-9-3-12.8L563.3,207.6c-4.7-8.6-13.7-13.7-23.1-13.7
	c-9.4,0-18,4.7-22.7,12.8l-60.8,105.4c184.6,139.2,308.4,354.7,325.5,599.2c1.3,18.8,2.1,38.1,2.1,57.4c0,17.1-0.9,34.3-1.7,51.4
	H485c1.7-17.1,2.6-34.3,2.6-51.4c0-19.3-1.3-38.6-3.4-57.4c-14.6-134.5-80.5-254-177.8-338l-42,72.8
	c73.2,68.1,123.4,161.1,137.1,265.6c2.6,18.8,3.9,38.1,3.9,57.4c0,17.6-1.3,34.7-3,51.4H126c-48.4,0-87.8-20.1-107.5-54.8
	c-20.1-34.7-17.6-79.2,6.4-121.2l56.5-97.2c32.4,17.5,61.6,40.2,86.5,67.3L134.2,872c-2.1,3.9-3,8.1-3.4,12.9
	c0,14.6,12,26.6,26.6,26.6h134.1c-10.9-62.8-39.8-121.1-83.1-167.9c-24.8-27-54.4-49.7-86.5-67.2l149.5-260
	c31.7,17.6,62.1,38.1,89.9,61.3C490.1,582,577,736.6,592.9,911.4H673c-16.3-204.3-119.1-384.6-271.6-504.1
	c-28.7-22.3-59.1-42.8-90.8-60.4L438.3,125c24-42,61.3-66,101.1-66c40.3,0,77.1,24,101.1,66L1055.1,845z"/>
</svg>
