<?xml version="1.0" encoding="utf-8"?>
<!-- Generator: Adobe Illustrator 24.1.1, SVG Export Plug-In . SVG Version: 6.00 Build 0)  -->
<svg version="1.1" id="Capa_1" xmlns="http://www.w3.org/2000/svg" xmlns:xlink="http://www.w3.org/1999/xlink" x="0px" y="0px"
	 viewBox="0 0 1080 1080" style="enable-background:new 0 0 1080 1080;" xml:space="preserve">
<style type="text/css">
	.st0{fill:#01579B;}
	.st1{fill:#0288D1;}
	.st2{fill:#4FC3F7;}
	.st3{fill:#2F406A;}
	.st4{fill:#2379BD;}
	.st5{fill:#03AFEF;}
</style>
<g transform="translate(-1.0045,-46.847)">
	<path class="st0" d="M870.2,393.1v385.4L542.6,972.3l-3,2.7v144.1l3,2.8L1004,855.4V318.3l-4.4-1.1L869.6,390L870.2,393.1"/>
	<path class="st1" d="M213.9,781.7l328.7,190.6v149.5L78,854.4v-535l4.8-0.7L212.5,394l1.4,4.3L213.9,781.7"/>
	<path class="st2" d="M213.9,398.3L78,319.3L541.5,51.8L1004,318.3l-133.8,74.8L541.5,205.6L213.9,398.3"/>
	<path class="st3" d="M536.9,737.6l-3.6-3.6V589.2l3.6-1.8l0.9-3.6l124.1-72.4l3.8,0.8v149.1L536.9,737.6"/>
	<path class="st4" d="M406,666.1V511.2l3.6-0.2l126.3,73.5l1.1,2.9v150.2L406,666.1"/>
	<path class="st5" d="M534.8,435.1L406,511.2l130.9,76.2l128.8-75.1L534.8,435.1"/>
	<path class="st0" d="M376.7,832l-3.6-3.6V683.6l3.6-1.8l0.9-3.6l124.1-72.4l3.8,0.8v149.1L376.7,832"/>
	<path class="st1" d="M245.7,760.5V605.6l3.6-0.2l126.3,73.5l1.1,2.9V832L245.7,760.5"/>
	<path class="st2" d="M374.5,529.5l-128.8,76.2l130.9,76.2l128.8-75.1L374.5,529.5"/>
	<path class="st0" d="M708.7,835.6l-3.6-3.6V687.2l3.6-1.8l0.9-3.6l124.1-72.4l3.8,0.8v149.1L708.7,835.6"/>
	<path class="st1" d="M577.7,764.1V609.2l3.6-0.2l126.3,73.5l1.1,2.9v150.2L577.7,764.1"/>
	<path class="st2" d="M706.5,533l-128.8,76.2l130.9,76.2l128.8-75.1L706.5,533"/>
	<path class="st0" d="M548.4,930l-3.6-3.6V781.6l3.6-1.8l0.9-3.6l124.1-72.4l3.8,0.8v149.1L548.4,930"/>
	<path class="st1" d="M417.5,858.5V703.6l3.6-0.2l126.3,73.5l1.1,2.9V930L417.5,858.5"/>
	<path class="st2" d="M546.2,627.4l-128.8,76.2l130.9,76.2l128.8-75.1L546.2,627.4"/>
	<path class="st0" d="M536.9,532.3l-3.6-3.6V383.9l3.6-1.8l0.9-3.6l124.1-72.4l3.8,0.8v149.1L536.9,532.3"/>
	<path class="st1" d="M406,460.8V306l3.6-0.2l126.3,73.5l1.1,2.9v150.2L406,460.8"/>
	<path class="st2" d="M534.8,229.7L406,305.9l130.9,76.2L665.7,307L534.8,229.7"/>
	<path class="st0" d="M376.7,626.7l-3.6-3.6V478.4l3.6-1.8l0.9-3.6l124.1-72.4l3.8,0.8v149.1L376.7,626.7"/>
	<path class="st1" d="M245.7,555.2V400.4l3.6-0.2l126.3,73.5l1.1,2.9v150.2L245.7,555.2"/>
	<path class="st2" d="M374.5,324.2l-128.8,76.2l130.9,76.2l128.8-75.1L374.5,324.2"/>
	<path class="st0" d="M708.7,630.3l-3.6-3.6V482l3.6-1.8l0.9-3.6l124.1-72.4l3.8,0.8v149.1L708.7,630.3"/>
	<path class="st1" d="M577.7,558.8V403.9l3.6-0.2l126.3,73.5l1.1,2.9v150.2L577.7,558.8"/>
	<path class="st2" d="M706.5,327.8l-128.8,76.2l130.9,76.2L837.5,405L706.5,327.8"/>
	<path class="st0" d="M548.4,724.7l-3.6-3.6V576.3l3.6-1.8l0.9-3.6l124.1-72.4l3.8,0.8v149.1L548.4,724.7"/>
	<path class="st1" d="M417.5,653.2V498.3l3.6-0.2l126.3,73.5l1.1,2.9v150.2L417.5,653.2"/>
	<path class="st2" d="M546.2,422.2l-128.8,76.2l130.9,76.2l128.8-75.1L546.2,422.2"/>
</g>
</svg>
