<?xml version="1.0" encoding="utf-8"?>
<!-- Generator: Adobe Illustrator 24.1.1, SVG Export Plug-In . SVG Version: 6.00 Build 0)  -->
<svg version="1.1" id="Capa_1" xmlns="http://www.w3.org/2000/svg" xmlns:xlink="http://www.w3.org/1999/xlink" x="0px" y="0px"
	 viewBox="0 0 1080 1080" style="enable-background:new 0 0 1080 1080;" xml:space="preserve">
<style type="text/css">
	.st0{fill:#42A5F5;}
</style>
<path class="st0" d="M540.1,727.3c-104.3,0-188.9-83.8-188.9-187.3s84.6-187.3,188.9-187.3S729,436.6,729,540
	S644.4,727.3,540.1,727.3 M941.1,591.9c2.2-17.1,3.8-34.2,3.8-51.9s-1.6-35.3-3.8-53.5l113.9-87.2c10.3-8,13-22.5,6.5-34.2
	L953.6,179.9c-6.5-11.8-21-16.6-32.9-11.8l-134.4,53.5c-28.1-20.9-57.2-39.1-91.2-52.4l-20-141.8C672.9,14.6,661.6,5,648.1,5H432.2
	c-13.5,0-24.8,9.6-27,22.5l-20,141.8c-34,13.4-63.1,31.6-91.2,52.4l-134.4-53.5c-11.9-4.8-26.4,0-32.9,11.8L18.7,365.1
	c-7,11.8-3.8,26.2,6.5,34.2l113.9,87.2c-2.2,18.2-3.8,35.8-3.8,53.5s1.6,34.8,3.8,51.9L25.2,680.7c-10.3,8-13.5,22.5-6.5,34.2
	l107.9,185.1c6.5,11.8,21,16,32.9,11.8l134.4-54c28.1,21.4,57.2,39.6,91.2,53l20,141.8c2.2,12.8,13.5,22.5,27,22.5h215.9
	c13.5,0,24.8-9.6,27-22.5l20-141.8c34-13.9,63.1-31.6,91.2-53l134.4,54c11.9,4.3,26.4,0,32.9-11.8l107.9-185.1
	c6.5-11.8,3.8-26.2-6.5-34.2L941.1,591.9z"/>
</svg>
