<?xml version="1.0" encoding="utf-8"?>
<!-- Generator: Adobe Illustrator 26.0.0, SVG Export Plug-In . SVG Version: 6.00 Build 0)  -->
<svg version="1.1" id="Capa_1" xmlns="http://www.w3.org/2000/svg" xmlns:xlink="http://www.w3.org/1999/xlink" x="0px" y="0px"
	 viewBox="0 0 1080 1080" style="enable-background:new 0 0 1080 1080;" xml:space="preserve">
<style type="text/css">
	.st0{fill:#AB47BC;}
</style>
<path class="st0" d="M455.5,821c0.6,124.4-99.7,225.8-224.2,226.4C107,1048,5.6,947.6,5,823.2c0-0.7,0-1.5,0-2.2
	c0.6-124.4,102-224.8,226.4-224.2C354.9,597.4,454.9,697.4,455.5,821z M735.2,287.7C751.7,164.4,665,51.1,541.7,34.6
	s-236.6,70.2-253.1,193.5c-14,104.8,46.8,205.2,146.1,241.4C607.4,537.5,648.1,606,626.5,791.1c-16.5,123.3,70.2,236.6,193.5,253.1
	c123.3,16.5,236.6-70.2,253.1-193.5c14-104.8-46.8-205.2-146.1-241.4C754.2,541.3,713.5,472.7,735.2,287.7z"/>
</svg>
