<?xml version="1.0" encoding="utf-8"?>
<!-- Generator: Adobe Illustrator 24.1.1, SVG Export Plug-In . SVG Version: 6.00 Build 0)  -->
<svg version="1.1" id="Capa_1" xmlns="http://www.w3.org/2000/svg" xmlns:xlink="http://www.w3.org/1999/xlink" x="0px" y="0px"
	 viewBox="0 0 1080 1080" style="enable-background:new 0 0 1080 1080;" xml:space="preserve">
<style type="text/css">
	.st0{fill:#0288D1;}
</style>
<g transform="matrix(.93056 0 0 .93056 1.259 -4.9451)">
	<path id="XMLID_14_" class="st0" d="M471.9,778.5c90.1-61.6,113-184.5,51.4-274.5L360.5,615.5c-45,30.6-106.7,19.1-137.3-25.9
		c-30.7-45-19.2-106.3,25.9-137.2l148.8-101.8l95.5-65.4c90.1-61.6,113-184.5,51.4-274.5L381.9,122.4L137.6,289.3l-0.3,0.3
		C2.2,382.2-32.3,566.3,60.3,701.3C152.3,836.3,336.8,870.8,471.9,778.5L471.9,778.5z"/>
	<path id="XMLID_13_" class="st0" d="M686.2,392.7c-0.6,0.3-1,0.6-1.3,1L686.2,392.7c-90.1,61.6-113,184.5-51.4,274.5l162.9-111.4
		c45-31,106.7-19.5,137.3,25.9c31,45,19.5,106.3-25.5,137.2L760.6,820.6l-95.8,65.4c-90.1,61.6-113,184.5-51.4,274.5l162.9-111.4
		l244.3-167.2c135.1-92.2,169.6-276.7,77.3-411.7C1005.6,334.6,821.3,300.1,686.2,392.7"/>
</g>
</svg>
