<?xml version="1.0" encoding="utf-8"?>
<!-- Generator: Adobe Illustrator 24.1.1, SVG Export Plug-In . SVG Version: 6.00 Build 0)  -->
<svg version="1.1" id="Capa_1" xmlns="http://www.w3.org/2000/svg" xmlns:xlink="http://www.w3.org/1999/xlink" x="0px" y="0px"
	 viewBox="0 0 1080 1080" style="enable-background:new 0 0 1080 1080;" xml:space="preserve">
<style type="text/css">
	.st0{fill:#F57F17;}
</style>
<path class="st0" d="M262.4,5C119.8,5,5,119.8,5,262.4v555.3C5,960.2,119.8,1075,262.4,1075h555.3c142.6,0,257.4-114.8,257.4-257.4
	V262.4C1075,119.8,960.2,5,817.6,5L262.4,5z M537.7,155.1c209.8,0,379.8,170.1,379.8,379.9c0,0,0,0,0,0H623.2L428.5,272l39,263
	H157.9C157.9,325.2,327.9,155.1,537.7,155.1C537.7,155.1,537.7,155.1,537.7,155.1L537.7,155.1z"/>
</svg>
