<?xml version="1.0" encoding="utf-8"?>
<!-- Generator: Adobe Illustrator 24.1.1, SVG Export Plug-In . SVG Version: 6.00 Build 0)  -->
<svg version="1.1" id="Capa_1" xmlns="http://www.w3.org/2000/svg" xmlns:xlink="http://www.w3.org/1999/xlink" x="0px" y="0px"
	 viewBox="0 0 1080 1080" style="enable-background:new 0 0 1080 1080;" xml:space="preserve">
<style type="text/css">
	.st0{fill:#F9A825;}
</style>
<path class="st0" d="M389.1,1030.6c-6.3-0.4-29.9-1.7-52.3-3c-181-10.1-300.9-38-326-75.9c-7.2-10.9-7.8-27.4-1.2-36.3
	c6.1-8.2,20.1-14.9,39.6-18.9l16.6-3.4l19.9,6.5c83.4,27.5,154.5,31.3,259.4,14c43.6-7.2,67.1-15.5,92.4-32.6
	c9.7-6.6,13.8-8.1,22-8.1c33-0.1,84.2-8.9,109.9-19c74.1-29,141.3-107.7,158.6-185.7c8.5-38.2,3.8-97.4-11.2-143.3l-6.9-21.1
	l1.5-39.7c1.2-32.2,2.5-43.5,6.7-59.7c15.4-59,52.7-99.9,104.1-114.1c19.9-5.5,62.2-5,84.5,1.1c33.8,9.1,63.1,26.4,84.9,50.1
	c26.9,29.1,37.6,54.6,39.1,92.5c1.1,29.3-1.8,43-15.1,70c-11.2,22.9-28.8,44.3-48.3,58.9c-8,6-16.1,12.2-17.9,13.8
	c-2.8,2.4-3.6,10.2-4.6,44.5c-0.7,22.9-2.8,52.5-4.6,65.7c-24.3,178.4-118.9,288.4-282.4,328.5c-54.5,13.4-72.9,15-169.4,15.5
	C440.1,1031.1,395.4,1031,389.1,1030.6L389.1,1030.6z M177.9,877.5l-23.9-3.7l-16-17.1c-80.5-85.9-110.9-213-76.1-318.2
	c34.4-103.9,123.5-180.4,239.3-205.4c29.6-6.4,101.8-7.1,129.7-1.2c31.5,6.6,59,16.1,86.8,29.8c97.3,48.1,158.7,132.7,170.6,235.2
	c5.9,50.8-6.9,95.4-40.6,141.1c-37.9,51.4-86.1,81.1-142.7,88l-12.4,1.5l14.2-14.8c25.3-26.4,31.8-49.5,31.8-114.4
	c0-36.4-0.6-44.2-4.7-60.3c-9.7-38.4-25.3-65.9-51.4-90.7c-34.2-32.5-76.6-49.1-125-48.9c-68.9,0.3-116.9,44-116.9,106.7
	c0,21.2,3.7,37,12.7,54.9c7.2,14.3,23.8,33,36.2,40.9c19.6,12.4,52.4,18.6,63.6,12c12.1-7.2,14.5-22,5.1-32.4
	c-4.8-5.4-8-6.7-19.3-8.2c-17.9-2.3-23.3-4.6-34.2-14.7c-13.8-12.7-21-30.3-21.1-51.3c-0.1-14.3,0.8-18.5,5.9-28.9
	c7.1-14.4,21.1-26.4,37.4-32.1c17.4-6.1,52.1-5.1,73.8,2c45.5,15,77.5,48.9,90.4,95.6c2.9,10.5,3.7,21.4,3.7,48
	c0,30.4-0.6,36.4-4.9,50.1c-5.5,17.4-16.5,40.3-26,54.2c-15.7,22.8-45.4,49.3-68.3,60.9C358.8,874.7,237,886.7,177.9,877.5
	L177.9,877.5z M923.1,251.5l-13-4.1l7.4-21.3c28.6-82.2,71-134.2,109.5-134.2c30.2,0,55.5,31.3,45.9,56.8
	c-2.4,6.4-13,18.3-19.7,22.3c-2.3,1.4-16.5,2.9-31.7,3.5c-26.5,1-27.9,1.3-36.6,7.4c-11.8,8.2-26.8,30.6-36.7,54.8
	c-4.4,10.6-8.9,19.2-10,19.1C937,255.7,930.2,253.7,923.1,251.5L923.1,251.5z M806.8,248.4c-3.6-6.1-6.7-44.6-6.7-82.3
	c0-34,0.8-45.9,3.7-57.5C814.2,68,832,49,860,49c31.3,0,49.6,22.4,41.6,50.9c-3.9,13.8-9.7,19.4-31.5,30.2
	c-16.6,8.3-20.9,11.5-26.4,19.6c-9.4,14-12.1,31.4-10.6,66.7l1.2,28.7l-8.8,1.4c-4.8,0.8-10.8,1.9-13.2,2.5
	C809.9,249.6,807.4,249.3,806.8,248.4L806.8,248.4z"/>
</svg>
