<?xml version="1.0" encoding="utf-8"?>
<!-- Generator: Adobe Illustrator 24.1.1, SVG Export Plug-In . SVG Version: 6.00 Build 0)  -->
<svg version="1.1" id="Capa_1" xmlns="http://www.w3.org/2000/svg" xmlns:xlink="http://www.w3.org/1999/xlink" x="0px" y="0px"
	 viewBox="0 0 1080 1080" style="enable-background:new 0 0 1080 1080;" xml:space="preserve">
<style type="text/css">
	.st0{fill:#FFCE00;}
</style>
<path class="st0" d="M379.3,1021.5c0,31.2,22.3,53.5,53.6,53.5h214.3c31.2,0,53.6-22.3,53.6-53.5V968H379.3L379.3,1021.5z M540,5
	C334.6,5,165,174.4,165,379.5c0,129.3,62.5,240.7,160.7,307.6v120.4c0,31.2,22.3,53.5,53.6,53.5h321.4c31.2,0,53.6-22.3,53.6-53.5
	V687.1C852.5,620.2,915,508.8,915,379.5C915,174.4,745.4,5,540,5L540,5z M691.8,598l-44.6,31.2V754H432.9V629.2L388.2,598
	c-71.4-49-116.1-129.3-116.1-218.5C272.1,232.4,392.7,112,540,112s267.9,120.4,267.9,267.5C807.8,468.7,763.2,548.9,691.8,598
	L691.8,598z"/>
</svg>
