<?xml version="1.0" encoding="utf-8"?>
<!-- Generator: Adobe Illustrator 24.1.1, SVG Export Plug-In . SVG Version: 6.00 Build 0)  -->
<svg version="1.1" id="Capa_1" xmlns="http://www.w3.org/2000/svg" xmlns:xlink="http://www.w3.org/1999/xlink" x="0px" y="0px"
	 viewBox="0 0 1080 1080" style="enable-background:new 0 0 1080 1080;" xml:space="preserve">
<style type="text/css">
	.st0{fill-rule:evenodd;clip-rule:evenodd;fill:#607D8B;}
	.st1{fill-rule:evenodd;clip-rule:evenodd;fill:#90A4AE;}
	.st2{fill-rule:evenodd;clip-rule:evenodd;fill:#455A64;}
	.st3{fill-rule:evenodd;clip-rule:evenodd;fill:#FFFFFF;}
	.st4{fill-rule:evenodd;clip-rule:evenodd;fill:#37474F;}
</style>
<desc>Created with Sketch.</desc>
<g transform="translate(.44835 100.93)">
	<g id="symbol" transform="matrix(1.8477,0,0,1.8477,34.746,-87.288)">
		<g id="Group" transform="translate(-10.549,2.9813)">
			<path class="st0" d="M412.2,158.5c-10.9,39.3-34.6,155.1-34.6,155.1s-43.5-16.2-93-16.3h-0.4c-2.7,0-5.4,0.1-8.1,0.2v273.9h43.9
				v0h38.2v0h137.2c0.7-53.8-13.4-178-13.4-178c-7.2-15,3-50.4,3-50.4C426.8,283.2,412.2,158.5,412.2,158.5L412.2,158.5z
				 M390.2,447.6c36,0,9.1,30.5,5.9,34H328C334.2,473.8,357.6,447.6,390.2,447.6L390.2,447.6z"/>
			<path class="st1" d="M157.1,158.5c0,0-14.6,124.7-72.9,184.5c0,0,10.2,35.5,3,50.4c0,0-14.1,124.3-13.4,178h126.7v0h46.6v0h37.8
				V297.3h-0.2c-49.5,0.1-93.1,16.3-93.1,16.3S168,197.8,157.1,158.5L157.1,158.5z M178.6,447.6c32.5,0,56,26.2,62.2,34h-68.1
				C169.5,478.1,142.6,447.6,178.6,447.6L178.6,447.6z"/>
			<g transform="matrix(1.5998,0,0,1.5998,23.76,77.45)">
				<g transform="translate(17.526)">
					<path class="st2" d="M218.8,266.7h-47.2v0.5c0,16.5,14.3,29.8,31,29.8c16.7,0,31-13.3,31-29.8v-0.5H218.8z"/>
					<path class="st3" d="M183.3,266.7v0.5c0,9.8,7.9,17.7,17.7,17.7s17.7-7.9,17.7-17.7v-0.5H183.3z"/>
					<path class="st4" d="M206.5,266.7h-8.3c-0.1,0-0.1,0-0.2,0.1c1,0.2,1.6,2.5,1.4,4.1c-0.3,2.4-2.4,4-4.7,4.1
						c0.7,3.1,3.2,5.6,6.6,6.1c4.3,0.6,8.3-2.3,8.9-6.6C210.6,271.2,209.1,266.7,206.5,266.7L206.5,266.7z"/>
				</g>
				<path class="st2" d="M122.3,266.7H75.1v0.5c0,16.5,14.3,29.8,31,29.8c16.7,0,31-13.3,31-29.8v-0.5H122.3z"/>
				<path class="st3" d="M86.9,266.7v0.5c0,9.8,7.9,17.7,17.7,17.7c9.8,0,17.7-7.9,17.7-17.7v-0.5H86.9z"/>
				<path class="st4" d="M110.1,266.7h-8.3c-0.1,0-0.1,0-0.2,0.1c1,0.2,1.6,2.5,1.4,4.1c-0.3,2.4-2.3,4-4.7,4.1
					c0.7,3.1,3.2,5.6,6.6,6.1c4.3,0.6,8.3-2.3,8.9-6.6C114.1,271.2,112.6,266.7,110.1,266.7L110.1,266.7z"/>
			</g>
			<path class="st0" d="M151.5-7.7L123.9,43c-9.7,18-95,177.8-95,235.5v3.4l39.1,104c-5.3,47.7-14.5,142.3-11.7,185.5h37.7
				c-2.3-24.9,4.3-111.8,12.5-185.8l0.5-4.4l-7.1-19c24.3-25.4,41.3-60.5,53.1-93.8l1.1,8.1l38.6,63.3l15.1-6.5
				c0.4-0.2,39-16.6,76.6-16.6c37.3,0,76.6,16.4,77,16.6l15.1,6.4l38.5-63.3l1.5-10.6c11.6,33.7,28.7,69.3,53.1,95.3l-7.4,20
				l0.5,4.5c8.3,74.2,14.9,161.5,12.6,185.8h37.3c2.7-43.2-6.9-137.8-12.2-185.5l38.4-104v-3.4C538.7,220.8,454,61,444.3,43
				L417.2-7.7l-38.8,271.1l-17.9,29.4c-17.3-5.8-46.7-13.9-76.3-13.9c-29.6,0-58.8,8.1-76,13.9l-17.9-29.4l-13.6-95
				c0-0.2,0-0.4,0-0.5l-0.1,0L151.5-7.7z M130.7,113.3l7.9,55.3c-3,20.7-16.8,101.7-53.9,152.8l-17.1-46
				C69.8,245.5,101,173.8,130.7,113.3L130.7,113.3z M438.2,113.3c29.7,60.5,60.9,132.2,63.1,162.1l-16.7,44.9
				c-40.1-56.3-52.6-147.7-53.7-156.1L438.2,113.3z"/>
		</g>
	</g>
</g>
</svg>
