<?xml version="1.0" encoding="utf-8"?>
<!-- Generator: Adobe Illustrator 26.0.0, SVG Export Plug-In . SVG Version: 6.00 Build 0)  -->
<svg version="1.1" id="Capa_1" xmlns="http://www.w3.org/2000/svg" xmlns:xlink="http://www.w3.org/1999/xlink" x="0px" y="0px"
	 viewBox="0 0 1080 1080" style="enable-background:new 0 0 1080 1080;" xml:space="preserve">
<style type="text/css">
	.st0{fill:#E53935;}
</style>
<path class="st0" d="M917.6,471.8c-10.5,0-15.7,0-26.2,5.2L765.5,277.7c31.5-26.2,57.7-68.2,57.7-115.4C823.2,78.4,755,5,665.9,5
	S508.5,73.2,508.5,162.4c0,15.7,0,26.2,5.2,42L277.7,325c-26.2-31.5-68.2-52.5-115.4-52.5C78.4,272.5,5,340.7,5,429.9
	s68.2,157.4,157.4,157.4c10.5,0,21,0,31.5-5.2l120.6,225.5c-31.5,26.2-47.2,68.2-47.2,110.1c0,83.9,68.2,157.4,157.4,157.4
	S582,1006.8,582,917.6c0-10.5,0-21-5.2-31.5L797,723.6c26.2,36.7,73.4,57.7,120.6,57.7c83.9,0,157.4-68.2,157.4-157.4
	S1001.6,471.8,917.6,471.8z M665.9,109.9c31.5,0,52.5,26.2,52.5,52.5c0,31.5-26.2,52.5-52.5,52.5c-26.2,0-52.5-26.2-52.5-52.5
	C613.4,130.9,634.4,109.9,665.9,109.9z M162.4,482.3c-31.5,0-52.5-26.2-52.5-52.5c0-31.5,26.2-52.5,52.5-52.5s52.5,26.2,52.5,52.5
	C220,461.3,193.8,482.3,162.4,482.3z M267.3,545.2c31.5-26.2,52.5-68.2,52.5-115.4c0-15.7,0-26.2-5.2-36.7l236-125.9
	c10.5,10.5,21,21,36.7,26.2L440.3,765.5c-5.2,0-10.5,0-15.7,0c-15.7,0-31.5,5.2-42,5.2L267.3,545.2z M424.6,975.3
	c-31.5,0-52.5-26.2-52.5-52.5c0-31.5,26.2-52.5,52.5-52.5s52.5,26.2,52.5,52.5C477.1,949.1,456.1,975.3,424.6,975.3z M760.3,629.2
	c0,10.5,0,15.7,5.2,26.2L545.2,818c-10.5-10.5-21-21-31.5-31.5l152.1-472.1h5.2c10.5,0,21,0,31.5-5.2l120.6,194.1
	C786.5,534.8,760.3,582,760.3,629.2z M917.6,681.6c-31.5,0-52.5-26.2-52.5-52.5c0-31.5,26.2-52.5,52.5-52.5
	c26.2,0,52.5,26.2,52.5,52.5C970.1,660.6,943.9,681.6,917.6,681.6z"/>
</svg>
