<?xml version="1.0" encoding="utf-8"?>
<!-- Generator: Adobe Illustrator 24.1.1, SVG Export Plug-In . SVG Version: 6.00 Build 0)  -->
<svg version="1.1" id="Capa_1" xmlns="http://www.w3.org/2000/svg" xmlns:xlink="http://www.w3.org/1999/xlink" x="0px" y="0px"
	 viewBox="0 0 1080 1080" style="enable-background:new 0 0 1080 1080;" xml:space="preserve">
<style type="text/css">
	.st0{fill-rule:evenodd;clip-rule:evenodd;fill:#546E7A;}
</style>
<g transform="matrix(.83529 0 0 .83529 5.2706 5.2706)">
	<path class="st0" d="M640.2,84.5c-306.9,0-555.7,248.8-555.7,555.7s248.8,555.7,555.7,555.7s555.7-248.8,555.7-555.7
		S947,84.5,640.2,84.5z M-0.3,640.2C-0.3,286.4,286.4-0.3,640.2-0.3s640.5,286.8,640.5,640.5s-286.8,640.5-640.5,640.5
		S-0.3,993.9-0.3,640.2z"/>
	<path class="st0" d="M1243.5,774.9l-785.8,453.7l-21.2-36.7l785.8-453.7L1243.5,774.9z"/>
	<path class="st0" d="M851.7,96.2L65.8,550l-21.2-36.7L830.5,59.5L851.7,96.2z"/>
	<path class="st0" d="M1008.1,695.9c5.9,10.1,2.4,23.1-7.8,29l-714.4,412.5c-10.1,5.9-23.1,2.4-29-7.8c-5.9-10.1-2.4-23.1,7.8-29
		l714.4-412.5C989.2,682.2,1002.2,685.7,1008.1,695.9z"/>
	<path class="st0" d="M1031.3,158.6c5.9,10.1,2.4,23.1-7.8,29L309.1,600c-10.1,5.9-23.1,2.4-29-7.8c-5.9-10.1-2.4-23.1,7.8-29
		l714.4-412.5C1012.4,145,1025.4,148.4,1031.3,158.6L1031.3,158.6z"/>
	<path class="st0" d="M447.1,492.7c7-9.4,20.3-11.4,29.7-4.4l382.6,283.7c9.4,7,11.4,20.3,4.4,29.7c-7,9.4-20.3,11.4-29.7,4.4
		L451.5,522.3C442.1,515.3,440.2,502,447.1,492.7L447.1,492.7z"/>
	<path class="st0" d="M590,410.2c7-9.4,20.3-11.4,29.7-4.4l382.6,283.7c9.4,7,11.4,20.3,4.4,29.7c-7,9.4-20.3,11.4-29.7,4.4
		L594.4,439.8C585,432.9,583,419.6,590,410.2L590,410.2z"/>
	<path class="st0" d="M281.2,569.3c6.8-9.5,20.1-11.7,29.6-4.9l405.5,289.8c9.5,6.8,11.7,20.1,4.9,29.6c-6.8,9.5-20.1,11.7-29.6,4.9
		L286.1,598.9C276.6,592.1,274.4,578.8,281.2,569.3L281.2,569.3z"/>
</g>
</svg>
