<?xml version="1.0" encoding="utf-8"?>
<!-- Generator: Adobe Illustrator 24.1.1, SVG Export Plug-In . SVG Version: 6.00 Build 0)  -->
<svg version="1.1" id="Capa_1" xmlns="http://www.w3.org/2000/svg" xmlns:xlink="http://www.w3.org/1999/xlink" x="0px" y="0px"
	 viewBox="0 0 1080 1080" style="enable-background:new 0 0 1080 1080;" xml:space="preserve">
<style type="text/css">
	.st0{fill:#EC407A;}
	.st1{fill:#BA68C8;}
</style>
<g transform="translate(11.5 2.2608)">
	<g transform="translate(-.006806 .000978)">
		<path class="st0" d="M978.5,2.7l-78.2,5.8v153.1l-69.5-29.8l-69.5,29.8V18.8L222.5,58.5l46.3,980.2l709.7,34L978.5,2.7z
			 M613.5,204.3L613.5,204.3c132.5,0,208.6,72.4,204.9,219.2l-151.3,3.8c2.8-79-31-86.5-49.8-86.5c-17.9,0-47.9,5.6-47.9,48
			c0,104.4,257.5,98.8,257.5,309.4c0,118.5-92.1,173.1-209.6,173.1c-121.2,0-227.4-41.4-215.2-222.9h158.8
			C559,721.6,575,748,615.4,748c31,0,45.1-17.9,45.1-48c0-107.2-253.7-111-253.7-307.6C406.8,279.5,481,204.3,613.5,204.3
			L613.5,204.3z"/>
		<path class="st1" d="M161.3,58.5H78.5l34.7,980.2h94.4L161.3,58.5z"/>
	</g>
</g>
</svg>
