<?xml version="1.0" encoding="utf-8"?>
<!-- Generator: Adobe Illustrator 24.1.1, SVG Export Plug-In . SVG Version: 6.00 Build 0)  -->
<svg version="1.1" id="Capa_1" xmlns="http://www.w3.org/2000/svg" xmlns:xlink="http://www.w3.org/1999/xlink" x="0px" y="0px"
	 viewBox="0 0 1080 1080" style="enable-background:new 0 0 1080 1080;" xml:space="preserve">
<style type="text/css">
	.st0{fill:#EF5350;}
</style>
<g shape-rendering="auto">
	<path color-rendering="auto" image-rendering="auto" class="st0" d="M489.9,13.3v77.8C280.7,113.7,113.7,280.7,91.1,489.8H13.4
		v100.3h77.8c22.6,209.2,189.6,376.1,398.7,398.7v77.8h100.3v-77.8c209.2-22.6,376.1-189.6,398.7-398.7h77.8V489.8h-77.8
		C966.3,280.7,799.3,113.7,590.2,91.1V13.3L489.9,13.3z M489.9,192.4v71.7h100.3v-71.7C744.2,214,866,335.9,887.6,489.8h-71.7v100.3
		h71.7C866,744.1,744.2,866,590.2,887.6v-71.7H489.9v71.7C335.9,866,214,744.1,192.4,590.2h71.7V489.8h-71.7
		C214,335.9,335.9,214,489.9,192.4z"/>
	<path color-rendering="auto" image-rendering="auto" class="st0" d="M481.5,5v80C274.8,110.9,110.9,274.8,85,481.5H5v116.9h80
		C110.9,805.2,274.8,969.1,481.5,995v80h116.9v-80C805.2,969.1,969.1,805.2,995,598.5h80V481.5h-80
		C969.1,274.8,805.2,110.9,598.5,85V5H481.5z M498.1,21.7h83.8v77l7.4,0.8c205.3,22.2,369.2,186.1,391.3,391.3l0.8,7.4h77v83.8h-77
		l-0.8,7.4c-22.2,205.3-186.1,369.2-391.3,391.3l-7.4,0.8v77h-83.8v-77l-7.4-0.8C285.5,958.4,121.6,794.5,99.4,589.3l-0.8-7.4h-77
		v-83.8h77l0.8-7.4c22.2-205.3,186.1-369.2,391.3-391.3l7.4-0.8V21.7z M498.1,182.9l-9.4,1.3C331,206.2,206.2,331,184.2,488.7
		l-1.3,9.4h73v83.8h-73l1.3,9.4C206.2,749,331,873.7,488.7,895.8l9.4,1.3v-73h83.8v73l9.4-1.3C749,873.7,873.8,749,895.8,591.3
		l1.3-9.4h-73v-83.8h73l-1.3-9.4C873.7,331,749,206.2,591.3,184.2l-9.4-1.3v73h-83.8V182.9z M481.5,203.5v69h116.9v-69
		c142.3,24.2,253.7,135.7,278,278h-69v116.9h69c-24.2,142.3-135.7,253.7-278,278v-69H481.5v69c-142.3-24.2-253.7-135.7-278-278h69
		V481.5h-69C227.8,339.3,339.3,227.8,481.5,203.5z"/>
</g>
</svg>
