<?xml version="1.0" encoding="utf-8"?>
<!-- Generator: Adobe Illustrator 24.1.1, SVG Export Plug-In . SVG Version: 6.00 Build 0)  -->
<svg version="1.1" id="Capa_1" xmlns="http://www.w3.org/2000/svg" xmlns:xlink="http://www.w3.org/1999/xlink" x="0px" y="0px"
	 viewBox="0 0 1080 1080" style="enable-background:new 0 0 1080 1080;" xml:space="preserve">
<style type="text/css">
	.st0{fill-rule:evenodd;clip-rule:evenodd;fill:#CFD8DC;}
</style>
<g transform="matrix(.84775 0 0 .84775 31.478 29.499)">
	<path class="st0" d="M608.4,1201.8c138-494,134-496.3,233.8-848.5l24,13.9c13,7.5,23.7,1.4,23.7-13.7v-168
		C916.4,92.7,937.2,21,943.2-0.6h108.1l179.6,166.5l-117.9,102l89.2,96.5l-587.8,837.4C611.5,1206.5,607.5,1205.5,608.4,1201.8
		L608.4,1201.8z M672.6,137c5.3,0,9.6,2.9,9.6,6.6v86.1c0,3.6-4.3,6.6-9.6,6.6H527.4c-5.3,0-9.7-2.9-9.7-6.6v-86.1
		c0-3.6,4.3-6.6,9.7-6.6H672.6L672.6,137z"/>
	<path class="st0" d="M851.9,41.7L692.1,134c1.9,2.8,3,6.1,3,9.6v86.1c0,4.5-1.7,8.5-4.6,11.7l161.3,93.2c11,6.4,20,1.2,20-11.5
		V53.2C871.9,40.5,862.9,35.3,851.9,41.7z M504.9,229.7v-86.1c0-3.5,1.1-6.8,3-9.6L348.2,41.7c-11-6.3-20-1.2-20,11.6v269.9
		c0,12.7,9,17.9,20,11.5l161.3-93.2C506.7,238.1,504.9,234.1,504.9,229.7L504.9,229.7z"/>
	<path class="st0" d="M585.3,1201.8h6c-138-494-134-496.3-233.8-848.5l-24,13.9c-13,7.5-23.7,1.4-23.7-13.7v-168
		C283.3,92.7,262.5,21,256.4-0.6H148.3L-31.2,165.9l117.9,102l-89.2,96.5L585.3,1201.8z"/>
	<ellipse class="st0" cx="595.5" cy="372.4" rx="37" ry="37"/>
	<ellipse class="st0" cx="595.5" cy="631.8" rx="37" ry="37"/>
	<ellipse class="st0" cx="595.5" cy="891.3" rx="37" ry="37"/>
</g>
</svg>
