<?xml version="1.0" encoding="utf-8"?>
<!-- Generator: Adobe Illustrator 24.1.1, SVG Export Plug-In . SVG Version: 6.00 Build 0)  -->
<svg version="1.1" id="Capa_1" xmlns="http://www.w3.org/2000/svg" xmlns:xlink="http://www.w3.org/1999/xlink" x="0px" y="0px"
	 viewBox="0 0 1080 1080" style="enable-background:new 0 0 1080 1080;" xml:space="preserve">
<style type="text/css">
	.st0{fill:#C0CA33;}
</style>
<path class="st0" d="M718.8,906.9c96.1-114.9,107.5-233.6,33-454c-47.1-139.4-125.4-246.8-67.9-333.4
	c61.3-92.3,191.3-2.8,82.9,120.6l21.7,15.1c130.1,15.1,194.2-162.9,97.1-213.8c-256.4-133.7-480.7,123.4-381.8,421
	c42.4,126.2,101.8,260,53.7,366.4C516.1,920.1,436,973.8,382.3,975.7c-112.2,5.7-37.7-251.5,91.4-315.5c11.3-5.7,27.3-13.2,12.3-32
	c-159.3-17.9-252.6,55.6-306.3,158.2C23.1,1084.9,476.5,1195.1,718.8,906.9L718.8,906.9z"/>
</svg>
