<?xml version="1.0" encoding="utf-8"?>
<!-- Generator: Adobe Illustrator 24.1.1, SVG Export Plug-In . SVG Version: 6.00 Build 0)  -->
<svg version="1.1" id="Capa_1" xmlns="http://www.w3.org/2000/svg" xmlns:xlink="http://www.w3.org/1999/xlink" x="0px" y="0px"
	 viewBox="0 0 1080 1080" style="enable-background:new 0 0 1080 1080;" xml:space="preserve">
<style type="text/css">
	.st0{fill-rule:evenodd;clip-rule:evenodd;fill:#FFB74D;}
</style>
<g>
	<path class="st0" d="M481.1,666.9L147.5,558.8c-9.2-3-16.8-13.3-16.9-23l-3.2-256.2c-0.1-9.7,7.3-19.9,16.5-22.9L930.1,5.4
		c9.3-3,16.8,2.4,16.8,12.2v256.1c0,9.7-7.5,20.1-16.8,23.2L605.8,404.9l329.7,102.9c9.3,2.9,16.8,13.1,16.8,22.9v252.5
		c0,9.7-7.4,20.1-16.6,23.2l-788.3,267.2c-9.2,3.2-16.7-2.2-16.8-11.8l-1.6-263.6c-0.1-9.7,7.4-19.9,16.6-22.9L481.1,666.9z"/>
</g>
</svg>
