<?xml version="1.0" encoding="utf-8"?>
<!-- Generator: Adobe Illustrator 24.1.1, SVG Export Plug-In . SVG Version: 6.00 Build 0)  -->
<svg version="1.1" id="Capa_1" xmlns="http://www.w3.org/2000/svg" xmlns:xlink="http://www.w3.org/1999/xlink" x="0px" y="0px"
	 viewBox="0 0 1080 1080" style="enable-background:new 0 0 1080 1080;" xml:space="preserve">
<style type="text/css">
	.st0{fill:#FF5722;}
</style>
<path id="back" class="st0" d="M650.3,5.1C594.9,6.1,539.7,21.5,491,52.6L241.9,211.5c-68,42.7-114.8,112.1-129.1,191.1
	c-11.9,66-1.5,134.1,29.6,193.4c-21.3,32.4-35.8,68.7-42.7,106.8c-14.4,80.7,4.4,163.8,52,230.5c99.3,142.2,295.5,184.4,437.3,93.9
	l249.1-158.2c67.9-42.8,114.7-112.1,129.1-191.1c11.9-66,1.4-134-29.7-193.3c21.3-32.4,35.9-68.7,42.8-106.8
	c14.3-80.7-4.4-163.8-52-230.5v-0.8C863.1,53.2,756.2,3,650.3,5.1L650.3,5.1z M672.2,127.1c61.6,2.8,118.4,34.3,153.5,85
	c28.7,40.1,40,90.1,31.3,138.6c-1.5,7.9-3.5,15.6-5.9,23.2l-4.8,14.3l-12.7-9.6c-29.5-21.7-62.4-38.1-97.4-48.7l-9.5-2.8l0.9-9.6
	c1.1-13.2-2.5-26.3-10.1-37.1c-14.4-20.2-39.7-29.3-63.6-23c-5.4,1.4-10.6,3.7-15.3,6.7L389.4,422.8c-12.3,7.8-20.8,20.4-23.4,34.7
	c-2.5,14.7,0.9,29.7,9.6,41.9c14.2,20.3,39.5,29.8,63.5,23.7c5.4-1.5,10.5-3.7,15.3-6.7l95.5-60.6c15.6-10,32.7-17.5,50.6-22.3
	c80.3-20.9,165.1,10.5,212.3,78.8c28.7,40.1,39.9,90.1,31.3,138.6c-8.5,47.6-36.7,89.5-77.6,115.3L517.2,924.9
	c-15.6,9.9-32.7,17.4-50.6,22.3c-80.3,20.9-165.1-10.6-212.4-78.8c-28.6-40.1-39.9-90.1-31.2-138.6c1.4-7.8,3.4-15.5,5.9-23
	l4.7-14.3l12.8,9.6c29.4,21.5,62.3,37.8,97.1,48.4l9.5,2.8l-0.9,9.6c-0.9,13.1,2.8,26.1,10.4,36.8c14.3,20.5,39.8,30,64,23.7
	c5.4-1.5,10.5-3.7,15.3-6.7l248.7-158.8c12.4-7.8,20.9-20.4,23.4-34.8c2.6-14.6-0.9-29.7-9.6-41.8c-14.3-20.5-39.8-30-64-23.7
	c-5.4,1.4-10.6,3.7-15.3,6.7l-95.5,60.7c-15.6,9.9-32.7,17.4-50.5,22.2c-80.2,20.7-164.8-10.7-212-78.7
	c-28.6-40.1-39.7-90.1-31-138.6c8.5-47.6,36.7-89.5,77.6-115.3l249.4-158.8c15.5-9.9,32.5-17.4,50.2-22.2
	C632.6,128.3,652.4,126.2,672.2,127.1L672.2,127.1z"/>
</svg>
