<?xml version="1.0" encoding="utf-8"?>
<!-- Generator: Adobe Illustrator 24.1.1, SVG Export Plug-In . SVG Version: 6.00 Build 0)  -->
<svg version="1.1" id="Capa_1" xmlns="http://www.w3.org/2000/svg" xmlns:xlink="http://www.w3.org/1999/xlink" x="0px" y="0px"
	 viewBox="0 0 1080 1080" style="enable-background:new 0 0 1080 1080;" xml:space="preserve">
<style type="text/css">
	.st0{fill:#FFB300;}
</style>
<path class="st0" d="M172.5,471h200.1L230.8,329.2c-54,0-97.9-43.9-97.9-98.4c0-54.1,43.8-97.9,97.9-97.9
	c54.6,0,98.4,43.9,98.4,97.9L471,372.5V172.5c-38-38.5-38-100.6,0-138.6c38-38.5,100-38.5,138,0c38,38,38,100,0,138.6v200.1
	l142.3-141.8c0-54,43.3-97.9,97.9-97.9c54,0,97.9,43.9,97.9,97.9c0,54.6-43.9,98.4-97.9,98.4L707.5,471h200.1
	c38.5-38,100.6-38,138.6,0c38.5,38,38.5,100,0,138c-38,38-100,38-138.6,0H707.5l141.8,142.3c54,0,97.9,43.3,97.9,97.9
	c0,54.1-43.8,97.9-97.9,97.9c-54.6,0-97.9-43.9-97.9-97.9L609,707.5v200.1c38,38.5,38,100.6,0,138.6c-38,38.5-100,38.5-138,0
	c-38-38-38-100,0-138.6V707.5L329.2,849.2c0,54-43.9,97.9-98.4,97.9c-54,0-97.9-43.9-97.9-97.9c0-54.6,43.9-97.9,97.9-97.9
	L372.5,609H172.5c-38.5,38-100.6,38-138.6,0c-38.5-38-38.5-100,0-138C71.9,433,133.9,433,172.5,471z"/>
</svg>
