<?xml version="1.0" encoding="utf-8"?>
<!-- Generator: Adobe Illustrator 26.0.0, SVG Export Plug-In . SVG Version: 6.00 Build 0)  -->
<svg version="1.1" id="Capa_1" xmlns="http://www.w3.org/2000/svg" xmlns:xlink="http://www.w3.org/1999/xlink" x="0px" y="0px"
	 viewBox="0 0 1080 1080" style="enable-background:new 0 0 1080 1080;" xml:space="preserve">
<style type="text/css">
	.st0{fill:#0288D1;}
</style>
<path class="st0" d="M450.9,5c-8.3,32.1-14.6,63.4-20,95c-44.6,10.3-87.3,27.3-126.9,50.3c-25.6-18.1-51.6-35.5-79.2-51.6
	L98.7,224.1c15.1,25.6,31.3,50.6,48.5,74.9c-26.6,41.1-46.5,86.1-59,133.5c-27.8,5-55.4,10.7-83.2,18.1v178.2
	c25.9,6.9,51.6,12.3,77.5,16.9c10.6,51.3,30,100.5,57.2,145.3c-14.5,20.8-28.2,42.3-40.9,64.3l126.1,126.1
	c21.4-12.4,41.7-25.7,61.6-39.3c45.6,29.4,96,50.4,149,62.1c4.3,23.8,9.5,47.5,15.6,71h179.1c6.3-24.3,11.4-48.5,15.9-72.6
	c51.4-12.5,100.4-33.9,144.6-63c21.4,14.5,42.8,28.5,64.9,41.7l126-126.2c-14-23.7-29-46.8-44.8-69.3
	c25.3-43.2,43.3-90.1,53.5-139.1c28.3-5.2,56.5-10.8,84.8-18.3V450.4c-29.8-8-59.7-14-90.2-19.1c-11.9-44.9-30.4-87.8-55-127.2
	c18.6-25.9,36-52.7,52.3-80.1L855.5,98.1c-28.7,16.9-55.9,35.1-82.5,54.1c-38.4-22.9-79.9-40.1-123.3-50.9
	C644.4,69.2,638,37.1,629.4,5L450.9,5z M535.6,214c0.3,0,0.6,0,1,0c39.4-0.1,78.5,6.9,115.4,20.5c8.5,3.1,16.7,6.4,24.8,10.7
	c70.7,32.6,128.1,88.5,162.4,158.5c3.2,6.5,6.2,13.2,9,19.9c31.3,76.2,33.6,161.3,6.3,239.1c-1.3,3.8-2.6,7.5-4,10.7
	c-32.4,82.3-95.6,148.7-176.2,185.1l-2.2,1.5c-84.3,36.9-180.1,37.8-265.1,2.5c0-0.2,0-0.4,0-0.6
	c-84.3-35.5-150.7-103.7-184.1-188.9l-1.7-4.5c-30.4-81.6-28-171.7,6.7-251.5c1.9-4.5,3.9-9,6.2-13.4
	c35.6-72.6,95.8-130.1,170-162.3c7.4-3.2,14.9-6.1,22.5-8.7C461.6,220.3,498.5,214.1,535.6,214L535.6,214z M645.3,295.8
	c-25.7-0.3-46.7,20.2-47.1,45.9c-0.1,5.4,0.8,10.8,2.6,15.9c2.4,6.7,6.4,12.8,11.5,17.7l-42.8,74.2c-13.3-5.8-27.7-8.4-42.2-7.7
	c-32.7,1.8-62,20.8-77,49.8l-91.8-36v-1c2.4-23.5-14.6-44.5-38.2-47c-23.5-2.4-44.5,14.6-47,38.2c-2.4,23.5,14.6,44.5,38.2,47
	c15.1,1.6,29.9-5,38.9-17.2l91.8,36c-8.9,34.9,3.3,71.8,31.3,94.6L430.7,673c-7.7-3.1-16-4.5-24.3-4c-31.5,1.9-55.4,29-53.4,60.5
	c1.9,31.5,29,55.4,60.5,53.4s55.4-29,53.4-60.5c-0.9-14.4-7.2-27.9-17.7-37.9l42.8-66.6c36.3,17.6,79.9,9.8,107.7-19.5l53.5,39.9
	c-17.4,33.1-4.6,74.1,28.6,91.5c33.2,17.4,74.1,4.6,91.5-28.6c7.3-13.9,9.5-29.8,6.3-45.2c-7.5-36.7-43.3-60.3-80-52.8
	c-12.8,2.6-24.5,8.8-33.8,17.9l-53.4-39.7c23.9-40.6,13.4-92.7-24.4-120.9l42.8-74.2c24.4,7.9,50.6-5.4,58.6-29.9
	c7.9-24.4-5.4-50.6-29.9-58.6c-4.6-1.5-9.4-2.3-14.2-2.3L645.3,295.8z"/>
</svg>
