<?xml version="1.0" encoding="utf-8"?>
<!-- Generator: Adobe Illustrator 26.0.0, SVG Export Plug-In . SVG Version: 6.00 Build 0)  -->
<svg version="1.1" id="Capa_1" xmlns="http://www.w3.org/2000/svg" xmlns:xlink="http://www.w3.org/1999/xlink" x="0px" y="0px"
	 viewBox="0 0 1080 1080" style="enable-background:new 0 0 1080 1080;" xml:space="preserve">
<style type="text/css">
	.st0{fill:#FFB300;}
</style>
<path class="st0" d="M540,445.9c51.3,0,93.1,41.8,93.1,94.1c0,49.8-41.8,92.1-93.1,92.1c-51.3,0-93.1-42.3-93.1-92.1
	C446.9,487.7,488.7,445.9,540,445.9 M309.6,938.1c31.4,18.9,100-10,179.2-84.6c-25.9-29.4-51.3-61.2-75.1-94.6
	c-40.1-3.8-80-9.8-119.4-17.9C268.8,847.6,278.2,920.7,309.6,938.1 M344.9,652.5l-14.4-25.4c-5.5,14.4-10.9,28.9-14.4,42.8
	c13.4,3,28.4,5.5,43.8,8L344.9,652.5 M670.4,614.7l40.3-74.7l-40.3-74.7c-14.9-26.4-30.9-49.8-45.3-73.2
	c-26.9-1.5-55.2-1.5-85.1-1.5c-29.9,0-58.2,0-85.1,1.5c-14.4,23.4-30.4,46.8-45.3,73.2L369.3,540l40.3,74.7
	c14.9,26.4,30.9,49.8,45.3,73.2c26.9,1.5,55.2,1.5,85.1,1.5c29.9,0,58.2,0,85.1-1.5C639.5,664.4,655.5,641,670.4,614.7 M540,280.2
	c-9.5,10.9-19.4,22.4-29.4,35.8h58.7C559.4,302.6,549.5,291.2,540,280.2 M540,799.8c9.5-10.9,19.4-22.4,29.4-35.8h-58.7
	C520.6,777.4,530.5,788.8,540,799.8 M769.9,141.9c-30.9-18.9-99.5,10-178.7,84.6c25.9,29.4,51.3,61.2,75.1,94.6
	c40.8,4,81.1,10,119.4,17.9C811.2,232.4,801.8,159.3,769.9,141.9 M735.1,427.5l14.4,25.4c5.5-14.4,10.9-28.9,14.4-42.8
	c-13.4-3-28.4-5.5-43.8-8L735.1,427.5 M807.3,76.7c73.2,41.8,81.1,151.8,50.3,280.2c126.4,37.3,217.5,99,217.5,183.1
	s-91.1,145.8-217.5,183.1c30.9,128.4,22.9,238.4-50.3,280.2c-72.7,41.8-171.7-6-267.3-97c-95.6,91.1-194.6,138.9-267.7,97
	c-72.7-41.8-80.6-151.8-49.8-280.2C96.1,685.8,5,624.1,5,540s91.1-145.8,217.5-183.1c-30.9-128.4-22.9-238.4,49.8-280.2
	c73.2-41.8,172.2,6,267.7,97C635.6,82.6,734.6,34.9,807.3,76.7 M792.8,540c16.9,37.3,31.9,74.7,44.3,112.5
	c104.5-31.4,163.2-76.1,163.2-112.5s-58.7-81.1-163.2-112.5C824.7,465.3,809.7,502.7,792.8,540 M287.2,540
	c-16.9-37.3-31.9-74.7-44.3-112.5C138.4,458.9,79.7,503.7,79.7,540s58.7,81.1,163.2,112.5C255.3,614.7,270.3,577.3,287.2,540
	 M735.1,652.5l-14.9,25.4c15.4-2.5,30.4-5,43.8-8c-3.5-13.9-9-28.4-14.4-42.8L735.1,652.5 M591.3,853.5
	c79.1,74.7,147.8,103.5,178.7,84.6c31.9-17.4,41.3-90.6,15.9-197.1c-38.3,8-78.6,13.9-119.4,17.9
	C642.5,792.3,617.1,824.2,591.3,853.5 M344.9,427.5l14.9-25.4c-15.4,2.5-30.4,5-43.8,8c3.5,13.9,9,28.4,14.4,42.8L344.9,427.5
	 M488.7,226.5c-79.1-74.7-147.8-103.5-179.2-84.6c-31.4,17.4-40.8,90.6-15.4,197.1c39.5-8.1,79.3-14.1,119.4-17.9
	C437.5,287.7,462.9,255.8,488.7,226.5z"/>
</svg>
