<?xml version="1.0" encoding="utf-8"?>
<!-- Generator: Adobe Illustrator 24.1.1, SVG Export Plug-In . SVG Version: 6.00 Build 0)  -->
<svg version="1.1" id="Capa_1" xmlns="http://www.w3.org/2000/svg" xmlns:xlink="http://www.w3.org/1999/xlink" x="0px" y="0px"
	 viewBox="0 0 1080 1080" style="enable-background:new 0 0 1080 1080;" xml:space="preserve">
<style type="text/css">
	.st0{fill:url(#SVGID_1_);}
	.st1{fill:#FFFFFF;}
</style>
<g>
	
		<linearGradient id="SVGID_1_" gradientUnits="userSpaceOnUse" x1="540" y1="-26.2306" x2="540" y2="1080.0198" gradientTransform="matrix(1 0 0 -1 0 1082)">
		<stop  offset="0" style="stop-color:#791223"/>
		<stop  offset="1" style="stop-color:#D92F3C"/>
	</linearGradient>
	<path class="st0" d="M183.3,5c-27.9,0-52.3,12.5-69,32.7l-82,99.8C15.2,157.8,5,183.3,5,213.1v743.1c0,65.7,53.2,118.9,118.9,118.9
		h832.2c65.7,0,118.9-53.2,118.9-118.9V213.1c0-29.7-10.2-55.3-27.4-75.5L965,37.7C949,17.5,924.6,5,896.7,5L183.3,5L183.3,5z
		 M179.2,64.4h713.3l55.8,59.4H131C131,123.9,179.2,64.4,179.2,64.4z"/>
	<path class="st1" d="M483.7,535.1c-0.2,0-0.3,0-0.5,0.1c-14.5,1.2-28.3,3.2-40.2,6.5c-18.9,5.7-35.9,13.8-50.9,24.5
		c-14.6,11-27.8,24.6-39.8,40.6c-11.6,16.3-23.2,35.2-34.8,56.5c-4.1,7.8-7.9,14.5-11.9,21.7v0.1c0,0-0.1,0-0.1,0l-45.6,81.5
		l-0.2-0.1c-8.1,15.1-15.7,28.8-22.7,40.8c-7.3,12.6-15.4,23.2-24.4,32c-9,8.8-19.3,15.5-30.9,20.2c-2.5,0.9-5.5,1.4-8.2,2.1
		c0,0,0,0-0.1,0h-33.6v82.2h33.4h0.3v-0.1c14.6-1.2,28.4-3.1,40.3-6.5c18.9-5.7,35.9-13.8,50.9-24.5c14.6-11,27.9-24.6,39.9-40.6
		c11.6-16.3,23.2-35.2,34.8-56.5c4.1-7.8,8-14.5,12-21.7l0.2,0.1l0.1-0.2l1.2-2.3h86.2v0.1h38.3v-82h-11.3v-0.1h-67.4
		c7.5-13.9,14.7-26.8,21.1-38c7.3-12.6,15.4-23.2,24.4-32c9-8.8,19.3-15.5,30.9-20.2c2.4-0.9,5.4-1.4,8.1-2.1h33.8v-0.1H517v-82.1
		L483.7,535.1L483.7,535.1L483.7,535.1z"/>
</g>
</svg>
