<?xml version="1.0" encoding="utf-8"?>
<!-- Generator: Adobe Illustrator 24.1.1, SVG Export Plug-In . SVG Version: 6.00 Build 0)  -->
<svg version="1.1" id="Capa_1" xmlns="http://www.w3.org/2000/svg" xmlns:xlink="http://www.w3.org/1999/xlink" x="0px" y="0px"
	 viewBox="0 0 1080 1080" style="enable-background:new 0 0 1080 1080;" xml:space="preserve">
<style type="text/css">
	.st0{fill:#FE5E2F;}
</style>
<path class="st0" d="M812.1,953.6c-126.2,72.9-299,80.4-473.9,5.4C197,899,79.9,794,5,674c35.8,29.5,78.1,53.6,123,75
	c180.2,84.1,359.9,78.2,486.7,0C434.5,610.2,281,429.7,167.1,282.3c-24.1-24.1-41.7-54.1-59.9-80.9C550,525.6,530.7,608.1,236,147.3
	C497.6,412,740.4,562,740.4,562c8.6,4.8,13.4,8.6,19.3,11.8c5.3-13.4,10.2-27.3,13.9-41.8c42.3-152.7-5.9-327.9-111.2-472
	c243.4,147.3,387.8,423.8,327.3,655.8c-1.6,5.9-3.2,11.8-2.7,20.9c119.8,151.6,87.7,309.7,72.2,279.7
	C994.4,888.3,873,927.9,812.1,953.6z"/>
</svg>
