<?xml version="1.0" encoding="utf-8"?>
<!-- Generator: Adobe Illustrator 24.1.1, SVG Export Plug-In . SVG Version: 6.00 Build 0)  -->
<svg version="1.1" id="Capa_1" xmlns="http://www.w3.org/2000/svg" xmlns:xlink="http://www.w3.org/1999/xlink" x="0px" y="0px"
	 viewBox="0 0 1080 1080" style="enable-background:new 0 0 1080 1080;" xml:space="preserve">
<style type="text/css">
	.st0{fill:#185C37;}
	.st1{fill:#21A366;}
	.st2{fill:#107C41;}
	.st3{opacity:0.1;enable-background:new    ;}
	.st4{opacity:0.2;enable-background:new    ;}
	.st5{fill:url(#SVGID_1_);}
	.st6{fill:#FFFFFF;}
	.st7{fill:#33C481;}
</style>
<path class="st0" d="M676.9,515.1l-423-74.6v551.4c0,25.2,20.4,45.6,45.6,45.6l0,0h729.9c25.2,0,45.6-20.4,45.6-45.6l0,0V788.8
	L676.9,515.1z"/>
<path class="st1" d="M676.9,42.5H299.4c-25.2,0-45.6,20.4-45.6,45.6l0,0v203.2l423,248.8l224,74.6L1075,540V291.3L676.9,42.5z"/>
<path class="st2" d="M253.8,291.3h423V540h-423V291.3z"/>
<path class="st3" d="M556.6,241.5H253.8v621.9h302.8c25.2-0.1,45.5-20.4,45.6-45.6V287.1C602.1,261.9,581.8,241.6,556.6,241.5z"/>
<path class="st4" d="M531.7,266.4H253.8v621.9h277.9c25.2-0.1,45.5-20.4,45.6-45.6V312C577.2,286.8,556.9,266.5,531.7,266.4z"/>
<path class="st4" d="M531.7,266.4H253.8v572.1h277.9c25.2-0.1,45.5-20.4,45.6-45.6V312C577.2,286.8,556.9,266.5,531.7,266.4z"/>
<path class="st4" d="M506.8,266.4h-253v572.1h253c25.2-0.1,45.5-20.4,45.6-45.6V312C552.4,286.8,532,266.5,506.8,266.4z"/>
<linearGradient id="SVGID_1_" gradientUnits="userSpaceOnUse" x1="100.1421" y1="-821.2907" x2="457.2991" y2="-202.7096" gradientTransform="matrix(1 0 0 1 0 1052)">
	<stop  offset="0" style="stop-color:#18884F"/>
	<stop  offset="0.5" style="stop-color:#117E43"/>
	<stop  offset="1" style="stop-color:#0B6631"/>
</linearGradient>
<path class="st5" d="M50.6,266.4h456.2c25.2,0,45.6,20.4,45.6,45.6V768c0,25.2-20.4,45.6-45.6,45.6H50.6C25.4,813.6,5,793.2,5,768
	V312C5,286.8,25.4,266.4,50.6,266.4z"/>
<path class="st6" d="M146.3,688.2l96-148.6l-87.9-147.8H225l48,94.5c4.4,9,7.5,15.6,9.1,20h0.6c3.2-7.2,6.5-14.1,10-20.9l51.3-93.7
	h64.9l-90.2,146.9l92.4,149.4h-69.1l-55.4-103.8c-2.6-4.4-4.8-9.1-6.6-13.9h-0.8c-1.6,4.7-3.8,9.2-6.4,13.4l-57.1,104.2L146.3,688.2
	L146.3,688.2z"/>
<path class="st7" d="M1029.4,42.5H676.9v248.8H1075V88.1C1075,62.9,1054.6,42.5,1029.4,42.5L1029.4,42.5z"/>
<path class="st2" d="M676.9,540H1075v248.8H676.9V540z"/>
</svg>
