<?xml version="1.0" encoding="utf-8"?>
<!-- Generator: Adobe Illustrator 24.1.1, SVG Export Plug-In . SVG Version: 6.00 Build 0)  -->
<svg version="1.1" id="Capa_1" xmlns="http://www.w3.org/2000/svg" xmlns:xlink="http://www.w3.org/1999/xlink" x="0px" y="0px"
	 viewBox="0 0 1080 1080" style="enable-background:new 0 0 1080 1080;" xml:space="preserve">
<style type="text/css">
	.st0{fill:#4DB6AC;}
</style>
<path class="st0" d="M272.5,432.5c35.7-143.3,124.9-215,267.5-215c214,0,240.8,161.2,347.7,188.1c71.4,18,133.8-8.9,187.2-80.6
	c-35.6,143.3-124.8,215-267.5,215c-214,0-240.8-161.2-347.7-188.1C388.4,333.9,326,360.8,272.5,432.5z M5,755
	c35.7-143.3,124.8-215,267.5-215c214,0,240.8,161.2,347.8,188.1c71.3,18,133.7-8.9,187.2-80.6c-35.7,143.3-124.8,215-267.5,215
	c-214,0-240.8-161.2-347.8-188.1C120.9,656.4,58.5,683.3,5,755z"/>
</svg>
