<?xml version="1.0" encoding="utf-8"?>
<!-- Generator: Adobe Illustrator 26.0.0, SVG Export Plug-In . SVG Version: 6.00 Build 0)  -->
<svg version="1.1" id="Capa_1" xmlns="http://www.w3.org/2000/svg" xmlns:xlink="http://www.w3.org/1999/xlink" x="0px" y="0px"
	 viewBox="0 0 1080 1080" style="enable-background:new 0 0 1080 1080;" xml:space="preserve">
<style type="text/css">
	.st0{fill:#FFCA28;}
	.st1{fill:#26C6DA;}
	.st2{fill-rule:evenodd;clip-rule:evenodd;fill:#FFCA28;}
	.st3{fill-rule:evenodd;clip-rule:evenodd;fill:#26C6DA;}
</style>
<g transform="translate(-8.8242e-5 .00011806)">
	<path class="st0" d="M727.4,394.4c0,27-10.7,52.9-29.8,72c-19.1,19.1-45,29.8-72,29.8c-27,0-52.9-10.7-72-29.8
		c-19.1-19.1-29.8-45-29.8-72c0-27,10.7-52.9,29.8-72c19.1-19.1,45-29.8,72-29.8c27,0,52.9,10.7,72,29.8
		C716.7,341.5,727.4,367.4,727.4,394.4z"/>
	<path class="st1" d="M454.3,584.2c-56.2,0-101.8,45.6-101.8,101.8c0,56.2,45.6,101.8,101.8,101.8c56.2,0,101.8-45.6,101.8-101.8
		C556.1,629.7,510.5,584.2,454.3,584.2L454.3,584.2z"/>
	<path class="st2" d="M836.6,720.7c-40.9,26.5-86.5,45-134.2,54.6c13.8-39.5,18.4-81.6,13.4-123.1c40.5-14.2,77.1-37.7,106.8-68.6
		c29.7-30.9,51.7-68.5,64.3-109.5c12.5-41,15.2-84.4,7.8-126.7c-7.4-42.3-24.6-82.2-50.3-116.5c-25.7-34.4-59.1-62.2-97.6-81.2
		c-38.5-19-80.9-28.7-123.8-28.3c-42.9,0.4-85.1,10.9-123.2,30.7c-38.1,19.8-71,48.2-96,83.1c-51.8,5.8-102.2,20.5-149,43.5
		c18.5-59.7,51.1-114.1,95.1-158.5c44-44.4,98-77.6,157.5-96.6C567,4.5,630.2,0,691.9,10.6c61.6,10.6,119.8,35.8,169.5,73.6
		c49.8,37.8,89.7,87.1,116.4,143.6c26.7,56.5,39.4,118.6,36.9,181.1c-2.4,62.5-19.9,123.4-50.9,177.7
		C932.8,640.9,889.2,686.9,836.6,720.7L836.6,720.7z M259.5,349.5l95.3,11.6c2.2-18.4,6.2-36.6,12-54.2
		C329.1,315.7,292.9,330,259.5,349.5L259.5,349.5z"/>
	<path class="st3" d="M242.8,359.7c41.2-26.7,87-45.4,135.1-55.1c-14.6,39.5-19.8,81.8-15.3,123.6c-40.4,14.4-76.8,38-106.3,69
		s-51.3,68.6-63.7,109.6c-12.3,41-14.8,84.4-7.3,126.5c7.5,42.2,24.9,82,50.6,116.2s59.2,61.9,97.6,80.9
		c38.4,18.9,80.8,28.5,123.6,28.1c42.8-0.5,85-11,123-30.8c38-19.8,70.8-48.2,95.8-83c51.8-5.7,102.2-20.2,149-43
		c-18.5,59.6-51.2,113.9-95.2,158.3c-44,44.3-98,77.5-157.5,96.5c-59.5,19.1-122.7,23.5-184.2,12.9
		c-61.6-10.6-119.7-35.8-169.4-73.5c-49.7-37.8-89.7-87-116.4-143.4C75.7,796,62.9,733.9,65.3,671.5c2.4-62.4,19.7-123.3,50.6-177.6
		C146.8,439.6,190.3,393.6,242.8,359.7L242.8,359.7z M819.9,730.9l-1.8,0.9L819.9,730.9z"/>
</g>
</svg>
