<?xml version="1.0" encoding="utf-8"?>
<!-- Generator: Adobe Illustrator 24.1.1, SVG Export Plug-In . SVG Version: 6.00 Build 0)  -->
<svg version="1.1" id="Capa_1" xmlns="http://www.w3.org/2000/svg" xmlns:xlink="http://www.w3.org/1999/xlink" x="0px" y="0px"
	 viewBox="0 0 1080 1080" style="enable-background:new 0 0 1080 1080;" xml:space="preserve">
<style type="text/css">
	.st0{fill:#EF5350;}
</style>
<path class="st0" d="M1075,5.1c0,0-408.7-19.9-730.8,421.5C97,765.2,5,1075,5,1075l103.8-53.5c77-133.7,117.1-188.8,192.6-267.4
	c135.3,39.6,276.6,34.8,399.1-107c-107-29.9-192.5-23-318.8-10.1C523.4,540,620.3,518.6,754,540l53.5-107
	c-96.3-18.2-160.5-19.8-255.7,2.1C657.2,360.8,730.5,319.1,861,326l64.7-103.3c-83.4-5.9-133.7,3.2-229.5,26.8
	c86.2-78.1,164.8-113.4,279.3-120.4c0,0,56.2-101.1,99.5-124.1V5.1z"/>
</svg>
