<?xml version="1.0" encoding="utf-8"?>
<!-- Generator: Adobe Illustrator 26.0.0, SVG Export Plug-In . SVG Version: 6.00 Build 0)  -->
<svg version="1.1" id="Capa_1" xmlns="http://www.w3.org/2000/svg" xmlns:xlink="http://www.w3.org/1999/xlink" x="0px" y="0px"
	 viewBox="0 0 1080 1080" style="enable-background:new 0 0 1080 1080;" xml:space="preserve">
<style type="text/css">
	.st0{fill:#90A4AE;}
</style>
<path class="st0" d="M593.5,379.5H647v107H486.5v-214h107V379.5 M887.8,379.5L774.3,266.1l66.9-66.9L968,326v107H861v53.5H700.5
	v-107H887.8 M593.5,85.2V5H540v107h53.5v107h-107V112h-107V5H326v107H219v53.5H112V112C112,52.6,159.6,5,219,5h428l126.3,126.3
	l-66.9,66.9L593.5,85.2 M968,968c0,59.1-47.9,107-107,107H754V968h107v-53.5h107V968 M861,700.5h107V861H861V700.5 M540,1075V968
	h160.5v107H540 M326,1075V968h160.5v107H326 M219,1075c-59.4,0-107-48.2-107-107V861h107v107h53.5v107H219 M112,647h107v160.5H112
	V647 M112,433h107v160.5H112V433 M861,486.5h107V647H861V486.5 M112,219h107v160.5H112V219z"/>
</svg>
