<?xml version="1.0" encoding="utf-8"?>
<!-- Generator: Adobe Illustrator 24.1.1, SVG Export Plug-In . SVG Version: 6.00 Build 0)  -->
<svg version="1.1" id="Capa_1" xmlns="http://www.w3.org/2000/svg" xmlns:xlink="http://www.w3.org/1999/xlink" x="0px" y="0px"
	 viewBox="0 0 1080 1080" style="enable-background:new 0 0 1080 1080;" xml:space="preserve">
<style type="text/css">
	.st0{fill:#4CAF50;}
</style>
<path class="st0" d="M317.9,10.2c-13.2,7.6-31.1,18.4-39.5,23.8c-4.5,2.8-32.1,19.5-61.4,37.1s-53.6,32.6-53.9,33.3
	c-0.4,0.8-1.1,1.3-2,1.4c-1.4,0-80.8,47.3-98.7,58.7c-4.7,3-9,6.7-12.7,11l-4,5.4l-0.4,65.1c-0.5,78.9,0.4,82,23.9,87
	c9.3,2,284.9,0.5,289.7-1.6c19.4-8.1,19.1-5.6,18.5-165.9L377,27.5l-4.3-6.7C362.6,5.3,335.4,0.1,317.9,10.2 M453.4,10.4
	c-4,2.6-7.8,6.2-8.4,8c-0.6,1.8-1.8,3.4-2.6,3.4c-0.8,0-1.4,0.5-1.4,1.2c0.1,0.7,0.1,1.4-0.1,2c-0.2,0.5-0.8,3-1.4,5.6
	c-2.8,12.5-1.2,1023.8,1.7,1023.8c0.8,0,1,0.7,0.5,1.5c-1.7,2.6,11.4,14.3,18,16.1c22.2,6.2,326.9,1.5,326.9-5.1
	c0-0.7,1.1-1.3,2.5-1.3c1.4,0,2.1-0.6,1.7-1.3c-0.5-0.8,0.6-2.6,2.3-4c1.8-1.5,3.2-4,3.2-5.6c0-1.7,0.4-3.4,0.8-3.9
	c0.5-0.4,0.8-156.2,0.8-346.1c0-299.1,0.3-346,2.4-350.9c1.2-3.1,2-5.6,1.5-5.6c-4,0,13.5-15.1,18.8-16.2c1.3-0.2,44-0.7,94.9-1
	c110.9-0.6,106.4,0,115.5-15.9l3.7-6.5V168.8c0-154.8,0.7-144.5-10.3-154.7c-9.5-9,7.4-8.5-289.3-8.4L460.8,5.7L453.4,10.4"/>
</svg>
