<?xml version="1.0" encoding="utf-8"?>
<!-- Generator: Adobe Illustrator 26.0.0, SVG Export Plug-In . SVG Version: 6.00 Build 0)  -->
<svg version="1.1" id="Capa_1" xmlns="http://www.w3.org/2000/svg" xmlns:xlink="http://www.w3.org/1999/xlink" x="0px" y="0px"
	 viewBox="0 0 1080 1080" style="enable-background:new 0 0 1080 1080;" xml:space="preserve">
<style type="text/css">
	.st0{fill:#757575;}
	.st1{fill:#C2185B;}
	.st2{fill:#FFFFFF;}
</style>
<path class="st0" d="M512.1,360H791L512.1,81.1V360 M157.1,5h405.7l304.3,304.3v608.5c0,55.8-45.6,101.4-101.4,101.4H157.1
	c-55.8,0-101.4-45.6-101.4-101.4V106.4C55.7,50.6,101.4,5,157.1,5 M613.5,816.4V715H157.1v101.4H613.5 M765.7,613.5V512.1H157.1
	v101.4H765.7z"/>
<path class="st1" d="M365,415.8h659.2V1075H365V415.8z"/>
<g transform="translate(-.55 .05)">
	<path class="st2" d="M535.5,646.4h-86.2v-55.8h238.3v55.8h-86.2V900h-65.9V646.4z"/>
	<path class="st2" d="M733.3,590.7h65.9v253.6h142V900H738.3V590.7H733.3z"/>
</g>
</svg>
