<?xml version="1.0" encoding="utf-8"?>
<!-- Generator: Adobe Illustrator 24.1.1, SVG Export Plug-In . SVG Version: 6.00 Build 0)  -->
<svg version="1.1" id="Capa_1" xmlns="http://www.w3.org/2000/svg" xmlns:xlink="http://www.w3.org/1999/xlink" x="0px" y="0px"
	 viewBox="0 0 1080 1080" style="enable-background:new 0 0 1080 1080;" xml:space="preserve">
<style type="text/css">
	.st0{fill:#CB3349;}
	.st1{fill:#F4EDAE;}
	.st2{fill:#E6CCAD;}
	.st3{fill:#656C67;}
	.st4{fill:#E5CAA3;}
	.st5{fill:#C7B39A;}
	.st6{fill:#EBD599;}
	.st7{fill:#2D3136;}
	.st8{fill:#EDF6FA;}
	.st9{opacity:0.8;}
	.st10{opacity:0.75;fill:#EBD599;enable-background:new    ;}
</style>
<g transform="matrix(.8858 0 0 .8858 11.017 12.484)">
	<g>
		<path class="st0" d="M281.8,519.3c0,0-187.9,132.4-195.3,182.8l14.1-2.9c0,0,225.1-149.3,403.5-167.5l4-22.7L281.8,519.3z"/>
		<path class="st0" d="M576.8,500.4l-148,105.1l8,6.4c6-4.9,263-83.4,263-83.4l54.2-34C717.5,499,576.8,500.4,576.8,500.4z"/>
		<path class="st0" d="M705.5,627.5c105.1,0,262.7-103,262.7-103l-50.9-9.7c-2.5,2.5-82.1-2.8-82.1-2.8l-37.8-10.5l-90.3,103
			l-7.4,17.9C706.1,619.6,705.5,627.5,705.5,627.5L705.5,627.5z"/>
	</g>
	<path class="st0" d="M1048.5,956l-32.5,9.2l-150-3.2l-93.9-73l-113.5,28.4l-131.2-11.4L454,986.2l-137.9,41.2l-68.8-21.4
		c-2.2-1.9-3.5-3-3.5-3l30.9,75.7c0,0,70,75.1,109.1,83.9c39.1,8.8,109.7-0.6,162.7-8.8c53-8.2,95.2-27.1,112.2-58
		c17-30.9,19.5-39.8,19.5-39.8s50.5,71.3,94,79.5c43.5,8.2,172.8-36,172.8-36s78.8-21.4,92.7-48.6c13.9-27.1,50.4-116.1,50.4-116.1
		L1048.5,956z M261.7,1017.7c-0.7-0.3-1.5-0.7-2.2-1c-5.2-4.5-9.4-8.1-12.2-10.5L261.7,1017.7z"/>
	<path class="st1" d="M1175.9,419.6c-0.3-4.1-0.8-8.1-1.3-12.1c-0.4-2.9-0.8-5.8-1.3-8.6c-10.8-9.1-23.1-17.2-35.9-24.6
		c-13.9-8.1-28.4-15.4-43.2-22.1c-14.7-7-29.8-13.2-45.1-19.4c-7.6-3.1-15.3-6.1-22.9-8.9c-7.7-3-15.4-5.8-23.2-8.6
		c16.3,2.7,32.4,6.4,48.4,10.5c10.4,2.7,20.8,5.7,31,8.9c-73.2-191.3-248.1-315.9-439-315.9c-191,0-365.9,124.6-439,315.9
		c10.3-3.2,20.6-6.2,31-8.9c16-4.1,32.1-7.8,48.4-10.5c-7.8,2.8-15.5,5.6-23.2,8.6c-7.7,2.9-15.3,5.8-22.9,8.9
		c-15.2,6.1-30.3,12.4-45.1,19.4c-14.8,6.8-29.3,14-43.2,22.1c-12.8,7.4-25.1,15.5-36,24.6c-0.5,2.8-0.9,5.7-1.3,8.6
		c-0.5,4-0.9,8.1-1.3,12.1c-0.7,8.2-1,16.3-1.1,24.5c-0.2,16.4,0.9,32.8,3,49c2.2,16.3,5.2,32.4,9.6,48.1c2.2,7.8,4.6,15.5,7.5,23
		c1.4,3.7,3,7.4,4.6,11c0.8,1.8,1.7,3.5,2.5,5.2l1,2c1.2,0.6,2.5,1.2,3.7,1.8l7.3,3.5c4.1,1.8,9.7,4.5,14.3,6.6
		c0.3-0.2,0.5-0.5,0.7-0.7l-13.5-51.5c2.9-0.8,28.5-7.4,72.7-15.8c-3.6-0.7-7.2-1.5-10.7-2.3c-10.1-2.5-20-5.6-29.6-9.5
		c-4.8-2-9.5-4.2-13.9-6.7c-4.5-2.6-8.9-5.5-12.3-9.4c48.5,15.8,148.8,8.7,238-0.6c81.5-8.4,163.2-13.9,245.4-14
		c82.2,0.2,163.9,5.6,245.4,14c89.2,9.2,189.5,16.4,238,0.6c-3.4,3.9-7.8,6.8-12.3,9.4c-4.5,2.5-9.2,4.7-13.9,6.7
		c-9.6,3.9-19.5,7-29.6,9.5c-1.5,0.4-3,0.7-4.5,1c48.4,9,76.6,16.3,79.7,17.1l-12.9,49c2.6-1.2,5.2-2.3,7.8-3.5l7.3-3.5
		c1.2-0.6,2.4-1.2,3.7-1.8l1-2c0.9-1.7,1.7-3.4,2.5-5.2c1.6-3.6,3.2-7.2,4.6-11c2.9-7.5,5.3-15.2,7.5-23c4.4-15.6,7.4-31.8,9.6-48.1
		c2.1-16.2,3.2-32.6,3-49C1177,436,1176.7,427.8,1175.9,419.6L1175.9,419.6z"/>
	<path class="st2" d="M698.6,1100c-6.4,1-12.9,1.8-19.2,2.3c-4.1,0.2-8.5,0.6-12.4,0.6l-1.5,0c5-11.1,8.7-19.7,11.6-26.2
		C682.8,1083.2,690.2,1091.3,698.6,1100z"/>
	<path class="st2" d="M712.5,1114.3c20,19.8,44.7,31.1,71.9,33.1c-45.7,18.6-88.8,25.7-122,28c-33.1,2.2-66.6-1.7-99.5-10.7
		c2.8-0.5,4.8-0.8,7.2-1.1c2.7-0.3,61.6-8,88.2-47.6l2.5,0.1l6.5-0.1c4.4,0,8.4-0.4,12.6-0.5c10-0.9,19.8-2.3,29.5-4.2
		C710.5,1112.2,711.5,1113.2,712.5,1114.3L712.5,1114.3z"/>
	<g>
		<path class="st3" d="M769,522.3c-1.9,2.5-4.1,5.3-6.3,8.1c-11.7,14.8-27.9,33.7-47.1,52.1c-22.3-0.7-45.3-1.1-68.9-1.1
			c-39,0-76.4,1-112,2.8c50.2-20.8,110.5-41.2,175.8-53.4C729.7,527.2,749.2,524.3,769,522.3z"/>
		<path class="st3" d="M475.3,544.8c-17.9,12.6-38.2,28.7-57.8,48.2c-50.3,5-94.1,11.1-130.3,17
			C342.9,584.4,406.3,560.8,475.3,544.8z"/>
		<path class="st3" d="M1089.3,648.6l-20.4,143.1l-97.9,68.6l-255.4-29.1l-38.4-126.7c-0.9-3.1-3.5-5.3-6.7-5.9
			c-9.5-1.5-17.8-2.3-24.8-2.3c-7,0-15.3,0.8-24.9,2.3c-3.2,0.5-5.7,2.8-6.7,5.9l-37.5,123.6l-254,56.6L222,814.2l-19.8-160.6
			c4.3-2.4,8.7-4.9,13.1-7.3c6.2-1.3,13.2-2.8,21-4.3L255,793.6c0.3,2.4,1.6,4.5,3.5,5.8l69.2,48.5c1.4,1,3.1,1.5,4.8,1.5
			c0.6,0,1.2-0.1,1.8-0.2l208.8-46.5c0.7-0.2,1.4-0.4,2.1-0.7c1.9-1,3.5-2.8,4.1-5L587,673.1c10.1-2.6,35.9-8.6,58.6-8.6
			c22.6,0,48.5,6,58.6,8.6L741.8,797c1,3.2,3.8,5.5,7.1,5.9l208.8,23.7c2,0.2,4.1-0.3,5.7-1.5l69.3-48.5c1.9-1.3,3.1-3.4,3.5-5.7
			l18.5-129.5C1068.5,644.2,1080.2,646.6,1089.3,648.6L1089.3,648.6z"/>
		<path class="st3" d="M1115.1,558.9l-18,68.2c-36.8-8.1-117.5-24-227.4-34.7c35.9-15.3,72.5-34.5,105.9-58.6
			C1041,543,1089,552.9,1115.1,558.9z"/>
	</g>
	<g>
		<path class="st4" d="M378.8,772.3c14.2-7.7,30.3-6.6,55.5-6.5c2.7,0.1,5.5,0,8.4,0c2.5,0,5-0.1,7.6-0.1
			c25.9-0.3,47.5,2.2,47.1-38.6c-0.4-40.8-18.5-73.7-44.4-73.5c-26,0.2-51.1,33.6-49.5,74.4c0.4,10.6,2,18.3,4.5,23.8
			C385.4,757.5,379.1,771.4,378.8,772.3z M690.8,604.6c-10.1,8.2-20.7,15.8-31.7,22.4l-36.8,22.2c-23.1,2.8-43.1,8.5-44.3,8.9
			c-0.7,0.2-1.3,0.5-1.9,0.8c-1.8,1-3.1,2.7-3.8,4.8l-37.5,123.7l-200.4,44.6l-63.1-44.2l-18.4-148.9c35.9-6.6,83.8-14.2,141.4-20.7
			c-6.2,7.4-12.2,15.2-17.8,23.3l-34.3,49.3l49.9-33.3c0.7-0.5,32.5-21.4,84.5-46.9c51.8-3.9,109-6.4,170.2-6.4
			C661.7,604.2,676.4,604.4,690.8,604.6L690.8,604.6z"/>
		<path class="st4" d="M910.3,755.6c-0.3-1-5.7-17.4-29.8-14.5c2.8-6.1,4-14.2,3.1-25.4c-3.2-40.7-26.8-73-52.8-72.1
			c-25.9,0.9-42.5,34.6-41.1,75.4c1.4,40.7,23.2,40.5,49.1,39.5C873.7,757.9,892.8,747.2,910.3,755.6z M1038.2,638.5l-18.1,126.6
			l-63.7,44.6l-200.2-22.8l-37.3-123.1c-0.8-2.7-3-4.8-5.7-5.6c-1.2-0.4-26-7.4-52.3-9.7l4.8-0.3c4.1-0.3,73.2-8.8,155.6-37.2
			C912.7,618,987.2,629.2,1038.2,638.5z"/>
	</g>
	<g>
		<path class="st5" d="M378.8,772.3c14.2-7.7,30.3-6.6,55.5-6.5c2.7,0.1,5.5,0,8.4,0c2.5,0,5-0.1,7.6-0.1
			c25.9-0.3,47.5,2.2,47.1-38.6c-0.4-40.8-18.5-73.7-44.4-73.5c-26,0.2-51.1,33.6-49.5,74.4c0.4,10.6,2,18.3,4.5,23.8
			C385.4,757.5,379.1,771.4,378.8,772.3z M690.8,604.6c-10.1,8.2-20.7,15.8-31.7,22.4l-36.8,22.2c-23.1,2.8-43.1,8.5-44.3,8.9
			c-0.7,0.2-1.3,0.5-1.9,0.8c-1.8,1-3.1,2.7-3.8,4.8l-37.5,123.7l-200.4,44.6l-63.1-44.2l-18.4-148.9c35.9-6.6,83.8-14.2,141.4-20.7
			c-6.2,7.4-12.2,15.2-17.8,23.3l-34.3,49.3l49.9-33.3c0.7-0.5,32.5-21.4,84.5-46.9c51.8-3.9,109-6.4,170.2-6.4
			C661.7,604.2,676.4,604.4,690.8,604.6L690.8,604.6z"/>
		<path class="st5" d="M910.3,755.6c-0.3-1-5.7-17.4-29.8-14.5c2.8-6.1,4-14.2,3.1-25.4c-3.2-40.7-26.8-73-52.8-72.1
			c-25.9,0.9-42.5,34.6-41.1,75.4c1.4,40.7,23.2,40.5,49.1,39.5C873.7,757.9,892.8,747.2,910.3,755.6z M1038.2,638.5l-18.1,126.6
			l-63.7,44.6l-200.2-22.8l-37.3-123.1c-0.8-2.7-3-4.8-5.7-5.6c-1.2-0.4-26-7.4-52.3-9.7l4.8-0.3c4.1-0.3,73.2-8.8,155.6-37.2
			C912.7,618,987.2,629.2,1038.2,638.5z"/>
	</g>
	<g>
		<path class="st2" d="M1125.5,694.1c3.1,2.5,5.5,9.1,2.8,39.6c-3.4,37.4-19.1,103-28.8,113.6c-10.7,2.1-33.2-0.4-47-3.6
			c2.4-9.4,3.1-13.9,5-23.6l24-16.8c1.9-1.3,3.2-3.4,3.5-5.7l16.8-117.6C1111.9,685.6,1122.4,691.5,1125.5,694.1L1125.5,694.1z"/>
		<path class="st2" d="M240.4,847.7c1.2,4.3,2.5,8.5,3.8,12.7c-12.9,3.8-39.2,7.4-51.1,5.4c-9.9-9.9-28.3-78.4-32.3-114.7
			c-3.3-29.4-1-35.8,2-38.3c3.5-2.9,16.5-10.3,27.7-16.4L205.8,820c0.3,2.4,1.6,4.5,3.5,5.8L240.4,847.7z"/>
		<path class="st2" d="M726.1,849.4l-0.9,7.9c0,0-27.7,25.7-72.2,31.4c-44.5,5.7-79.5-21.6-79.5-21.6c1.5,4.8,3.5,15.5,13.6,24.7
			c-11.9-1.4-24.7-2.4-38.1-2.4c-4.9,0-9.8,0.1-14.5,0.4c-27.4,1.4-66,42.9-93.1,84.7c-13.3,4.2-54.9,17.4-103,31.7
			c-44.9-62.3-67-126-69.3-132.6l0,0c-0.9-2.5-1.8-5.1-2.7-7.7l11.6,8.1v0l28.5,20l9.5,6.7c1.4,1,3.1,1.5,4.8,1.5
			c0.6,0,1.2-0.1,1.8-0.2L585,843.5c2.9-0.6,5.3-2.9,6.2-5.7l37.4-123.2c6.5-0.9,12.1-1.3,17-1.3c4.8,0,10.5,0.5,17,1.3l38.5,126.9
			c1,3.2,3.8,5.6,7.1,5.9L726.1,849.4z"/>
		<path class="st2" d="M1025.6,842.6l8.5-5.9c-1.4,5.9-2.9,11.7-4.5,17.5c-11.8,37.8-25.7,71.2-41.1,100.7c-3.4,0.2-7,0.4-10.9,0.4
			c-11.9,0-24.1-1-37.5-2.2c-23.4-2.1-60.4-6.4-72.2-7.8c-10.1-8.1-44.6-35.5-73.3-58.1c-1.1-0.9-2.1-1.8-3.1-2.5
			c-5.1-4.3-10.8-9.1-22.4-9.1c-10.6,0-26,3.9-63.4,15.2c19.4-14.5,19.5-33.2,19.5-33.2l0.9-7.9l246.1,28c2,0.2,4.1-0.3,5.8-1.5
			l24.7-17.3L1025.6,842.6z"/>
	</g>
	<path class="st6" d="M844.4,324.5c0.7,21.9,0.2,61.6-10,98.8c-0.4,1.4-0.4,2.9,0,4.3c-13-1.4-26-2.5-38.9-3.6
		c14.6-30.5,17.7-63.1,18.4-74.5C825.1,341.4,836.3,331.9,844.4,324.5z"/>
	<path class="st6" d="M473.1,349.4c0.7,11.5,3.9,43.9,18.4,74.4c-13,1-26,2.2-38.9,3.6c0.4-1.3,0.4-2.8,0-4.2
		c-10.2-37.1-10.7-76.8-10-98.8C450.8,331.9,461.8,341.4,473.1,349.4z"/>
	<path class="st7" d="M910.3,755.6c-17.5-8.4-36.6,2.3-71.4,2.9c-25.9,0.9-47.7,1.2-49.1-39.5c-1.4-40.8,15.2-74.5,41.1-75.4
		c25.9-0.9,49.6,31.4,52.8,72.1c0.9,11.2-0.4,19.4-3.1,25.4C904.6,738.3,910,754.7,910.3,755.6L910.3,755.6z M828.8,695.9
		c7.3-0.2,13.1-6.2,13-13.5c-0.1-7.3-6.2-13.2-13.5-13c-7.3,0.1-13.1,6.2-13,13.5C815.4,690.2,821.5,696.1,828.8,695.9L828.8,695.9z
		"/>
	<ellipse class="st8" cx="828.5" cy="682.6" rx="11.7" ry="11.7"/>
	<path class="st7" d="M497.4,727.1c0.4,40.8-21.2,38.3-47.1,38.6c-2.6,0.1-5.1,0.1-7.6,0.1c-2.9,0.1-5.7,0.1-8.4,0
		c-25.2,0-41.3-1.2-55.5,6.5c0.4-0.9,6.6-14.9,29.2-20.5c-2.5-5.5-4.1-13.2-4.5-23.8c-1.6-40.7,23.6-74.2,49.5-74.4
		C478.9,653.3,497,686.3,497.4,727.1z M457.3,705.7c7.3-0.2,13.1-6.3,12.9-13.6c-0.2-7.3-6.3-13.1-13.6-12.9
		c-7.3,0.2-13.1,6.3-12.9,13.6C443.9,700.2,450,705.9,457.3,705.7z"/>
	<ellipse class="st8" cx="457" cy="692.5" rx="11.7" ry="11.8"/>
	<g class="st9">
		<path class="st6" d="M299.3,450.3c0,0,4-52.5,12.3-72.7c4.2-10.4,30.2-17,50-21.7c19.8-4.7,51.4-14.2,57.5,13.7
			c6.1,27.8,16,48.1,22.6,57.1L433.3,312l-136.3,33l-9,101.5l4.2,8L299.3,450.3"/>
		<path class="st6" d="M988.9,450.3c0,0-4-52.5-12.3-72.7c-4.2-10.4-30.2-17-50-21.7c-19.8-4.7-51.4-14.2-57.5,13.7
			c-6.1,27.8-16,48.1-22.6,57.1L855,312l136.3,33l9,101.5l-4.2,8L988.9,450.3"/>
	</g>
	<g>
		<path class="st10" d="M796.2,107.1c0,0-3.6,274.9-67.8,274.9H561.6c-64.2,0-69.4-274.8-69.4-274.8l-31.5,93.3l0.5,128l22.4,17.8
			l10.2,55l14.2,32.1l274.7,0.5l12.7-22.9l10.7-38.7l1.5-24.4l30.3-86.7L796.2,107.1z"/>
		<path class="st10" d="M998.4,363.5c0,0,13.2,94.8,48.2,111.9c35,17.1,0,0,0,0l-48.9-14.8L998.4,363.5z"/>
		<path class="st10" d="M288.6,363.5c0,0-13.2,94.8-48.2,111.9c-35,17.1,0,0,0,0l48.9-14.8L288.6,363.5z"/>
	</g>
	<path class="st7" d="M1007.8,460.2c16.6,5.5,33.4,11.2,48.5,20.1c-8.1-3.2-16.5-5.5-24.9-7.6c-8.4-2.1-16.9-4-25.4-5.6
		c-17-3.2-34.1-5.9-51.3-8c-17.2-2.2-34.3-4.1-51.6-5.6c-17.3-1.5-34.5-2.9-51.8-3.9c-69.1-4.3-138.5-5.3-207.8-5.4
		c-69.4,0-138.7,1.3-207.8,5.4c-17.3,1-34.5,2.5-51.8,3.9c-17.3,1.5-34.5,3.3-51.6,5.6c-17.2,2.1-34.3,4.8-51.3,8
		c-8.5,1.6-17,3.4-25.4,5.6c-8.4,2.1-16.8,4.4-24.9,7.6c15.2-8.9,31.9-14.7,48.6-20.1c1.4-0.5,2.8-0.8,4.2-1.3
		c-0.1-0.4-0.2-0.7-0.3-1.1c-0.3-1.9-6.5-47.5,4.3-112.7c0.5-3.1,2.8-5.7,5.8-6.5l17.6-5c3.8-136.7,60.1-201.1,61.9-203
		c-50.3,81-49.8,177-49,199.4l109.5-31.1c0.1,0,0.2,0,0.3-0.1c0.5-0.1,0.9-0.2,1.4-0.2c0.1,0,0.3,0,0.5,0c0.6,0,1.2,0,1.8,0.2
		c0.1,0,0.2,0.1,0.3,0.1c0.5,0.1,0.9,0.3,1.4,0.5c0.2,0.1,0.3,0.2,0.5,0.3c0.4,0.2,0.7,0.4,1.1,0.7c0.1,0.1,0.2,0.1,0.3,0.2
		c0.1,0.1,0.1,0.1,0.2,0.2c0.1,0.1,0.2,0.2,0.3,0.3c0.1,0.1,3,3,7.6,7.3c-1.1-36.1,0.6-139.7,49.9-225.5c-1,3-40.1,117.4-26.7,245.6
		c4.4,3.5,9,6.9,13.5,10c2.2,1.5,3.5,4,3.5,6.6c0,0.4,1,41.3,19,76.1c0.3,0.5,0.4,1.1,0.6,1.6c44.9-3.1,89.9-4.3,134.8-4.3
		c44.9,0,89.9,1.3,134.7,4.4c0.2-0.6,0.4-1.2,0.7-1.7c18-34.8,19-75.6,19-76.1c0.1-2.6,1.4-5.1,3.6-6.6c4.5-3,9-6.5,13.4-10
		c13.5-128.2-25.6-242.6-26.6-245.6c49.2,85.8,51,189.4,49.9,225.5c4.6-4.3,7.5-7.2,7.6-7.3c0.1-0.1,0.2-0.2,0.3-0.3
		c0.1-0.1,0.1-0.1,0.2-0.2c0.1-0.1,0.2-0.1,0.3-0.2c0.4-0.3,0.7-0.5,1.1-0.7c0.2-0.1,0.3-0.2,0.5-0.3c0.5-0.2,0.9-0.4,1.4-0.5
		c0.1,0,0.2-0.1,0.3-0.1c0.6-0.1,1.2-0.2,1.8-0.2c0.2,0,0.3,0,0.4,0c0.5,0,0.9,0.1,1.4,0.2c0.1,0,0.2,0,0.3,0.1l109.5,31.1
		c0.9-22.4,1.3-118.4-48.9-199.4c1.7,2,58,66.3,61.8,203l17.6,5c3,0.8,5.3,3.4,5.8,6.5c10.7,65.2,4.5,110.8,4.3,112.7
		c-0.1,0.4-0.2,0.7-0.3,1.1C1005,459.3,1006.4,459.8,1007.8,460.2L1007.8,460.2z M987.9,454.4c0.8-7.3,4.8-47.2-3.6-101.5
		l-123.9-35.3c1.1,21,1.6,66.6-10.3,110c-0.2,0.5-0.4,1-0.6,1.6c1.2,0.1,2.5,0.2,3.7,0.4c34.8,4,69.5,9.6,103.8,17.1
		C967.3,449,977.6,451.6,987.9,454.4L987.9,454.4z M834.4,423.2c10.2-37.2,10.7-76.9,10-98.8c-8.2,7.4-19.3,17-30.5,24.9
		c-0.7,11.5-3.9,44-18.4,74.5c13,1,26,2.2,38.9,3.6C834.1,426.1,834,424.7,834.4,423.2z M491.5,423.8c-14.5-30.5-17.7-63-18.4-74.4
		c-11.2-8-22.3-17.5-30.5-24.9c-0.7,21.9-0.2,61.7,10,98.8c0.4,1.4,0.4,2.9,0,4.2C465.5,426.1,478.5,424.9,491.5,423.8z
		 M437.5,429.1c-0.2-0.5-0.4-1-0.6-1.5c-11.9-43.4-11.4-89-10.3-110l-123.9,35.3c-8.3,54.3-4.4,94.2-3.6,101.5
		c10.3-2.8,20.6-5.4,31-7.8c17.1-3.8,34.4-7,51.7-9.9c17.3-2.9,34.7-5.1,52.1-7.2C435.1,429.3,436.3,429.2,437.5,429.1z"/>
	<g id="XMLID_1_">
		<path class="st7" d="M774.1,110.7v102.9h-72.9v-30.1h-16.4v138.9h24.8v77.7H582.1v-77.7h24.7V183.6h-16.4v30.1h-72.8V110.7
			L774.1,110.7z M752.2,191.8v-59.2H539.4v59.2h29.1v-30.1h60.2v182.7h-24.8v33.9h83.7v-33.9h-24.8V161.7h60.2v30.1L752.2,191.8z"/>
		<polygon class="st0" points="603.9,344.4 628.7,344.4 628.7,161.7 568.5,161.7 568.5,191.8 539.4,191.8 539.4,132.6 662.9,132.6 
			720.4,132.6 752.2,132.6 752.2,191.8 723.1,191.8 723.1,161.7 662.9,161.7 662.9,344.4 687.7,344.4 687.7,378.3 603.9,378.3 		"/>
	</g>
	<path class="st3" d="M178.6,558.9c10.6-2.4,25-5.5,42.6-8.9c-10.8,7.4-23.6,16.6-37.6,27.8L178.6,558.9z"/>
	<g>
		<path class="st5" d="M567.6,840.9c0,0,3,19.1-23.8,27.3c-26.7,8.2-196.2,58.7-215.5,56c-19.3-2.7-68.4-35.5-68.4-35.5l-11.9-42.3
			l72.6,45.3L567.6,840.9z"/>
		<path class="st5" d="M719.4,837.2c0,0-2.1,19.2,25,26.3c27.1,7,198.6,50.1,217.7,46.6c19.2-3.6,66.8-38.4,66.8-38.4l10-42.8
			l-66.7,39.8L719.4,837.2z"/>
		<path class="st5" d="M164.8,805.7c0,0,23.5,47,61.4,30.7l27.1,9.9l-2.7,19.9l-56.9,7.2l-15.3-9L164.8,805.7z"/>
		<path class="st5" d="M1125.9,792.8c0,0-38.4,49-76.3,32.8l-12.2,7.9l2.7,19.9l56.9,7.2l15.3-9L1125.9,792.8z"/>
		<path class="st5" d="M532.4,1161.9c0,0,139.1,70.2,296.6-25.3l-50.6-3.5c0,0-110.4,43.7-197.7,19.6L532.4,1161.9z"/>
	</g>
	<path class="st7" d="M673.4,1032.6l9.6,11.5c0.2,0.3,21.6,25.7,47.8,51.7c17.4,17.2,38.4,26,62.5,26c8.2,0,16.9-1.1,25.6-3.2
		c8.1-2,16.9-4.1,25.9-6.2c32.5-7.8,69.3-16.6,87.2-21.6c3.5-1,7.5-1.9,11.6-2.9c23.8-5.5,56.3-13.1,73.6-47.7
		c13-26,30.5-59.7,43.5-84.4c-11.3,5.2-23,10.8-31.4,15.2c-12.9,6.8-29.8,10.1-51.7,10.1c-13,0-25.8-1.1-39.9-2.4
		c-28.2-2.6-76-8.2-76.5-8.3l-3.7-0.4l-2.9-2.3c-0.4-0.3-42.3-33.7-76.1-60.3c-1.4-1.1-2.6-2.2-3.8-3.1c-3.6-3-3.6-3-5.7-3
		c-10.9,0-42.4,9.8-111.5,31.2l-4.2,1.3l-4.2-1.6c-0.5-0.2-45.8-17-100.1-17c-4.4,0-8.9,0.1-13.2,0.3c-5.4,0.3-36,14.8-75,76.6
		l-2.5,4l-4.5,1.4c-0.6,0.2-67.9,21.9-139.2,42.3l-4.6,1.3l-4.4-2c-0.5-0.2-28.4-13.1-54.9-25.3c14.5,21.4,33,48.1,49.3,69
		c28.5,36.7,64.3,70.6,133.1,70.6c8.6,0,17.8-0.5,27.2-1.6c69.9-7.9,88-11.1,97.7-12.8c3.3-0.6,5.9-1,9.2-1.4
		c0.5-0.1,57.8-7.5,73.9-43.6c16.6-37.1,19.9-45.9,20-46.2l5.8-15.6c0,0,0.7-4,1.9-5.3c0,0,0,0,0,0l0.1,0.1
		C670.7,1028.5,673.4,1032.6,673.4,1032.6L673.4,1032.6z M237.8,332.8c-15.2,6.1-30.3,12.5-45.1,19.4c-14.8,6.8-29.3,14-43.2,22.1
		c-12.8,7.4-25.1,15.5-36,24.6c-0.5,2.7-0.9,5.8-1.3,8.6c-0.5,4-0.9,8.1-1.3,12.1c-0.7,8.1-1,16.3-1.1,24.5c-0.2,16.4,1,32.8,3,49
		c2.2,16.3,5.2,32.4,9.6,48.1c2.2,7.8,4.6,15.6,7.5,23c1.4,3.8,3,7.4,4.6,11c0.8,1.8,1.7,3.5,2.5,5.2l1,2c1.2,0.6,2.5,1.3,3.7,1.8
		l7.3,3.5c4.1,1.9,9.7,4.5,14.3,6.6c0.3-0.2,0.5-0.5,0.7-0.7l-13.5-51.4c2.8-0.8,28.5-7.4,72.7-15.8c-3.6-0.7-7.2-1.4-10.7-2.3
		c-10-2.5-20-5.6-29.6-9.4c-4.8-2-9.5-4.2-13.9-6.8c-4.5-2.6-8.9-5.5-12.3-9.3c48.5,15.9,148.8,8.7,238-0.5
		c81.5-8.4,163.2-13.9,245.4-14.1c82.1,0.2,163.9,5.6,245.4,14.1c89.2,9.2,189.5,16.4,238,0.5c-3.4,3.9-7.8,6.8-12.3,9.3
		c-4.5,2.5-9.2,4.7-13.9,6.8c-9.6,3.9-19.5,6.9-29.6,9.4c-1.5,0.3-3,0.7-4.5,1c48.4,9,76.6,16.3,79.6,17.1l-12.9,49
		c2.6-1.2,5.2-2.3,7.8-3.5l7.3-3.5c1.2-0.6,2.4-1.2,3.7-1.8l1-2c0.9-1.7,1.7-3.4,2.5-5.2c1.6-3.6,3.2-7.2,4.6-11
		c2.8-7.4,5.3-15.2,7.5-23c4.4-15.6,7.4-31.8,9.6-48.1c2.1-16.2,3.2-32.6,3-49c-0.1-8.2-0.4-16.4-1.1-24.5
		c-0.3-4.1-0.8-8.1-1.3-12.1c-0.3-2.8-0.8-5.9-1.3-8.6c-10.9-9.1-23.1-17.2-36-24.6c-13.9-8.1-28.4-15.4-43.2-22.1
		c-14.7-6.9-29.9-13.3-45.1-19.4c-7.6-3.1-15.3-6.1-23-8.9c-7.7-3-15.4-5.8-23.2-8.6c16.3,2.7,32.4,6.4,48.4,10.5
		c10.4,2.7,20.8,5.7,31.1,9c-73.1-191.3-248.1-315.9-439-315.9c-191,0-365.9,124.6-439,315.9c10.3-3.2,20.6-6.3,31-9
		c16-4.1,32.1-7.8,48.4-10.5c-7.8,2.8-15.5,5.6-23.2,8.6C253.1,326.7,245.4,329.7,237.8,332.8L237.8,332.8z M1200.7,443.5
		c0.9,17.6,0.4,35.3-1.6,52.8c-1.8,17.5-5.2,34.8-9.8,52c-2.4,8.5-5.2,17-8.5,25.4c-1.7,4.2-3.4,8.4-5.4,12.5c-1,2.1-2,4.1-3.2,6.2
		l-1.7,3.1c-0.6,1.1-1.1,2-2.1,3.5l-1.8,2.8l-2.8,1.4c-3,1.5-5.4,2.7-8.1,3.9l-7.8,3.5c-5.3,2.2-10.5,4.4-15.8,6.4
		c-3.7,1.4-6.9,2.8-10,4.1l-8.7,33.2c-0.2-0.1-2.8-0.7-7.7-1.9l-0.5,3.5c9.6,5,28.5,15.2,35,20.6c13,10.7,13.9,27.7,11,59.5
		c-1.5,16.3-6.9,48-14.4,77.2c-12.9,50.2-19.8,56-28.7,58.3c-4.5,1.2-11.4,2.3-18.2,2.3c-13.7,0-32.3,0.4-44.9-2.7
		c-3.2,11.4-12.4,41.2-30.6,78.3c0.9-0.4,1.8-0.8,2.6-1.3c22.4-11.8,65.6-30.6,67.4-31.4l34.1-14.8l-17.5,32.8
		c-0.4,0.7-37.8,71.2-60.8,117.1c-22.8,45.6-65.4,55.5-91,61.3c-3.8,0.9-7.5,1.8-10.5,2.6c-18.3,5.2-55.4,14-88.2,21.9
		c-0.4,0.1-0.8,0.2-1.2,0.3c-20.1,12.5-42.1,23.6-66.2,32.7c-88,33.3-180.7,31.5-264.8,0.6c-13.7,1.8-31.6,3.9-55.5,6.6
		c-10.4,1.2-20.5,1.8-30.1,1.8c-80.1,0-122.6-40.7-153.6-80.6c-33.2-42.7-73.8-106-75.5-108.7l-23.5-36.7l39.8,17.9
		c19,8.6,75.6,34.8,91.8,42.3c1.3-0.4,2.6-0.7,3.9-1.1c-26.9-38.4-49-82.2-64.6-130.8c-13.3,4-33.7,7.1-49.6,7.1
		c-5.8,0-11-0.4-15-1.4c-8.9-2-19-10.6-32.8-59.2c-8-28.2-14-59-15.7-74.9c-3.4-31-2.8-47.5,10-58.2c7.7-6.5,33.9-20.2,39.3-23
		l-1.2-9.5c-83,48.8-132.8,92-133.8,92.9l-59.4,52.2L35.5,741c33.5-52.9,72.2-95.7,107.7-128.6c-1.5-0.6-2.8-1.2-4.3-1.8l-7.8-3.5
		c-2.7-1.3-5.1-2.4-8.1-3.9l-2.8-1.4l-1.8-2.8c-1-1.5-1.4-2.3-2.1-3.5l-1.8-3.1c-1.1-2.1-2.2-4.1-3.1-6.2c-2-4.2-3.8-8.3-5.4-12.5
		c-3.3-8.4-6.1-16.8-8.5-25.4c-4.7-17.2-7.9-34.5-9.8-52c-1.9-17.5-2.4-35.2-1.6-52.8c0.5-8.8,1.3-17.6,2.5-26.3
		c0.6-4.4,1.3-8.8,2.2-13.1c0.9-4.4,1.8-8.6,3.1-13.4l0.9-3.4l2.4-1.9c13.9-10.9,28.8-19.1,44-26.4c12.5-5.9,25.3-11.1,38.1-15.8
		c35.9-99.7,97.6-188.1,178.7-249.7C442.2,29.7,540.8-3.9,643.5-3.9s201.3,33.7,285.2,97.3c81.1,61.6,142.8,150,178.7,249.6
		c12.9,4.8,25.6,9.9,38.1,15.8c15.2,7.3,30.1,15.5,44,26.4l2.4,1.9l0.9,3.4c1.4,4.9,2.2,9,3.1,13.4c0.9,4.4,1.6,8.7,2.2,13.1
		C1199.4,425.9,1200.3,434.7,1200.7,443.5L1200.7,443.5z M1128.3,733.7c2.8-30.5,0.4-37.1-2.7-39.6c-3.1-2.6-13.6-8.5-23.8-14.1
		L1085,797.7c-0.3,2.3-1.6,4.4-3.5,5.7l-24,16.8c-1.9,9.6-2.6,14.2-4.9,23.6c13.7,3.2,36.2,5.7,47,3.6
		C1109.2,836.8,1124.9,771.2,1128.3,733.7L1128.3,733.7z M1097.1,627.1l18-68.2c-26.1-5.9-74.1-15.8-139.5-25.1
		c-33.4,24-70,43.2-105.9,58.6C979.6,603.1,1060.4,619,1097.1,627.1z M1068.8,791.7l20.4-143.1c-9.1-2-20.7-4.4-34.6-7.1L1036.2,771
		c-0.3,2.3-1.6,4.4-3.5,5.7l-69.3,48.5c-1.6,1.2-3.7,1.7-5.7,1.5l-208.8-23.7c-3.3-0.4-6.1-2.7-7.1-5.9l-37.6-123.9
		c-10.1-2.6-35.9-8.6-58.6-8.6c-22.7,0-48.6,6-58.6,8.6L549.4,797c-0.7,2.2-2.2,3.9-4.1,5c-0.6,0.3-1.3,0.6-2.1,0.8l-208.8,46.5
		c-0.7,0.1-1.2,0.2-1.8,0.2c-1.7,0-3.4-0.5-4.8-1.5l-69.3-48.5c-1.9-1.3-3.2-3.5-3.5-5.9L236.3,642c-7.8,1.5-14.8,2.9-21,4.2
		c-4.4,2.4-8.8,4.9-13.1,7.3L222,814.2l100.7,70.6l254-56.5l37.5-123.6c0.9-3.1,3.5-5.4,6.7-5.9c9.5-1.5,17.8-2.3,24.9-2.3
		c7,0,15.3,0.8,24.8,2.3c3.2,0.5,5.8,2.8,6.7,5.9l38.4,126.7l255.4,29.1L1068.8,791.7z M1020.1,765l18.1-126.6
		c-51-9.3-125.5-20.5-216.8-27.5c-82.4,28.4-151.5,36.9-155.6,37.2l-4.8,0.3c26.3,2.3,51.1,9.3,52.3,9.7c2.7,0.8,4.9,2.9,5.7,5.6
		l37.4,123.1l200.1,22.7L1020.1,765z M1034,836.6l-8.5,5.9l-22.8,16L978,875.9c-1.7,1.2-3.8,1.7-5.8,1.5l-246.1-28l-17.9-2
		c-3.3-0.4-6.1-2.7-7.1-5.9l-38.5-126.9c-6.4-0.9-12.2-1.3-17-1.3c-4.9,0-10.6,0.4-17,1.3l-37.4,123.2c-0.9,2.9-3.2,5.1-6.2,5.7
		L322.7,902c-0.6,0.1-1.2,0.2-1.8,0.2c-1.7,0-3.4-0.5-4.8-1.5l-9.5-6.6L278,874v-0.1l-11.5-8.1c0.8,2.6,1.7,5.1,2.7,7.7l0,0
		c2.2,6.6,24.3,70.2,69.3,132.5c48.1-14.2,89.7-27.4,103-31.6c27.1-41.8,65.7-83.3,93.1-84.7c4.7-0.2,9.6-0.4,14.5-0.4
		c13.4,0,26.2,1,38.1,2.4c-10.1-9.2-12.2-19.9-13.6-24.7c0,0,35,27.4,79.5,21.7c44.6-5.8,72.2-31.5,72.2-31.5s-0.1,18.7-19.5,33.3
		c37.3-11.3,52.8-15.2,63.4-15.2c11.7,0,17.4,4.9,22.4,9.2c1,0.8,1.9,1.6,3.1,2.5c28.7,22.6,63.2,50.1,73.3,58.1
		c11.7,1.4,48.8,5.6,72.1,7.8c13.5,1.2,25.6,2.2,37.5,2.2c3.8,0,7.4-0.2,10.9-0.4c15.4-29.5,29.3-62.9,41.1-100.6
		C1031.1,848.4,1032.6,842.5,1034,836.6L1034,836.6z M943.2,524.8c-0.1,0-0.1-0.1-0.2-0.1c-19.8-1.5-39.5-2.8-59.3-3.9
		c-27.5-1.6-55-2.9-82.5-4c-1.6,2.4-4.8,7.1-9.5,13.4c-15,20.3-44.7,57.5-82.8,89c53.9-9.7,147.4-33.6,228.3-90.1
		C939.2,527.7,941.2,526.2,943.2,524.8L943.2,524.8z M762.8,530.4c2.3-2.8,4.4-5.6,6.3-8.1c-19.8,2-39.3,4.9-58.4,8.5
		c-65.3,12.2-125.6,32.6-175.8,53.4c35.6-1.7,72.9-2.7,112-2.7c23.6,0,46.6,0.4,68.9,1.1C734.9,564.1,751.1,545.2,762.8,530.4z
		 M784.4,1147.4c-27.2-2-51.9-13.3-71.9-33.1c-1-1.1-2-2.1-3-3.1c-9.7,1.9-19.4,3.4-29.5,4.3c-4.2,0.2-8.2,0.5-12.6,0.5l-6.5,0.1
		l-2.5-0.1c-26.6,39.5-85.5,47.2-88.2,47.6c-2.4,0.3-4.4,0.6-7.2,1.1c32.9,9,66.4,12.9,99.5,10.7
		C695.6,1173.1,738.7,1165.9,784.4,1147.4z M679.3,1102.3c6.4-0.5,12.8-1.3,19.2-2.3c-8.4-8.7-15.7-16.8-21.5-23.3
		c-2.8,6.5-6.6,15.1-11.6,26.2h1.5C670.9,1102.9,675.2,1102.5,679.3,1102.3z M659.1,627c11-6.7,21.6-14.3,31.7-22.4
		c-14.4-0.2-29-0.4-44-0.4c-61.2,0-118.4,2.5-170.3,6.4c-52,25.4-83.8,46.4-84.5,46.9l-49.9,33.3l34.3-49.3
		c5.7-8.2,11.7-15.9,17.9-23.3c-57.6,6.4-105.6,14.1-141.4,20.7l18.3,148.9l63.1,44.2l200.4-44.6l37.5-123.7c0.6-2,2-3.8,3.8-4.8
		c0.6-0.4,1.2-0.7,1.9-0.8c1.2-0.3,21.2-6,44.3-8.9L659.1,627z M682.1,513.5c-14-0.2-27.9-0.3-41.9-0.4h0c-20.5,0-41,0.2-61.5,0.7
		l-37.9,18c0,0-0.2,0.1-0.5,0.3c-5.7,2.8-55.4,27.9-102.2,72.7c41.9-22.1,103.6-50.9,176.1-73.2
		C635.9,524.8,658.7,518.6,682.1,513.5z M417.5,592.9c19.6-19.5,39.9-35.6,57.8-48.2c-68.9,16-132.4,39.5-188,65.1
		C323.5,604.1,367.3,598,417.5,592.9z M430.5,532.8c23.1-6.5,46.9-12.1,71.3-16.9c-35,1.3-70.1,2.9-105,4.9
		c-20.3,1.1-40.6,2.5-60.8,4c-10.1,0.8-20.2,1.6-30.2,2.7c-2.9,0.3-5.7,0.6-8.6,1c-26.4,15.8-127.6,79.4-197.1,162.5
		C167.7,644,285.3,573.5,430.5,532.8z M244.2,860.3c-1.3-4.2-2.6-8.4-3.8-12.7l-31.2-21.8c-2-1.4-3.2-3.5-3.5-5.9l-15.2-123.6
		c-11.3,6-24.3,13.4-27.7,16.4c-3,2.5-5.3,8.8-2,38.3c4,36.3,22.4,104.8,32.3,114.7C205,867.8,231.3,864.1,244.2,860.3z
		 M221.2,549.9c-17.6,3.4-32,6.5-42.6,8.9l5,18.9C197.6,566.6,210.4,557.3,221.2,549.9z"/>
</g>
</svg>
