<?xml version="1.0" encoding="utf-8"?>
<!-- Generator: Adobe Illustrator 26.0.0, SVG Export Plug-In . SVG Version: 6.00 Build 0)  -->
<svg version="1.1" id="Capa_1" xmlns="http://www.w3.org/2000/svg" xmlns:xlink="http://www.w3.org/1999/xlink" x="0px" y="0px"
	 viewBox="0 0 1080 1080" style="enable-background:new 0 0 1080 1080;" xml:space="preserve">
<style type="text/css">
	.st0{fill:#757575;}
	.st1{fill:#0288D1;}
	.st2{fill:#FFFFFF;}
</style>
<path class="st0" d="M513.3,359.3h278.4L513.3,80.9V359.3 M159,5h404.9l303.7,303.7v607.4c0,55.9-45.3,101.2-101.2,101.2H159
	c-55.9,0-101.2-45.3-101.2-101.2V106.2C57.8,50,102.8,5,159,5 M614.5,814.8V713.6H159v101.2H614.5 M766.4,612.4V511.1H159v101.2
	H766.4z"/>
<path class="st1" d="M364.2,417h658v658h-658V417z"/>
<path class="st2" d="M865.7,580.2c17.5,4.1,33.4,13.2,45.7,26.3c6.8,7.1,12.7,14.9,17.6,23.4c0.2,1-31.6,22.3-50.9,34.2
	c-0.7,0.5-3.5-2.5-6.6-7.1c-7.2-12.3-20.2-20.1-34.4-20.5c-22.1-1.5-36.4,10.1-36.3,29.5c-0.2,4.8,0.9,9.5,3.2,13.7
	c4.9,10.1,13.9,16.1,42.3,28.4c52.3,22.7,74.8,37.4,88.6,58.5c15.8,27,19,59.6,8.5,89.1c-14.4,32.6-45.4,54.7-80.8,57.9
	c-18.5,2.1-37.2,1.9-55.6-0.7c-28.3-4.6-54.4-18.2-74.4-38.7c-7.5-8.5-13.9-18-19-28.2c2.1-1.6,4.4-3,6.7-4.3l27.1-15.6l21.1-12.4
	l4.4,6.4c7.4,10.6,16.9,19.6,27.8,26.6c22.4,12.3,49.9,10.9,71-3.5c11.1-10.8,12.8-27.9,4.1-40.6c-5.6-8.2-17.2-15-50.2-29.3
	c-25.8-8.7-49.4-23.1-68.8-42.2c-9.3-10.6-16.1-23-20.1-36.5c-2.9-15.4-3.3-31.1-1.3-46.7c7.9-36.6,37.8-64.3,74.9-69.4
	C828.9,576.2,847.5,576.8,865.7,580.2L865.7,580.2z M694.2,610.6l0.3,30h-95.1v270.3H532V640.6h-95.2v-29.3
	c-0.2-10.1,0-20.1,0.9-30.2c0.3-0.5,58.2-0.7,128.4-0.6l127.7,0.4L694.2,610.6z"/>
</svg>
