<?xml version="1.0" encoding="utf-8"?>
<!-- Generator: Adobe Illustrator 26.0.0, SVG Export Plug-In . SVG Version: 6.00 Build 0)  -->
<svg version="1.1" id="Capa_1" xmlns="http://www.w3.org/2000/svg" xmlns:xlink="http://www.w3.org/1999/xlink" x="0px" y="0px"
	 viewBox="0 0 1080 1080" style="enable-background:new 0 0 1080 1080;" xml:space="preserve">
<style type="text/css">
	.st0{fill:#2979FF;}
	.st1{fill:#448AFF;}
	.st2{fill:#7E57C2;}
	.st3{fill:#AB47BC;}
	.st4{fill:#D81B60;}
	.st5{fill:#F50057;}
	.st6{fill:#ECEFF1;}
</style>
<g transform="translate(-.4 -.49911)">
	<path class="st0" d="M458.2,5.8C335.9,1.6,213.6,39.8,112.4,120.4l67.5,38.2C260,99.2,361.2,73.7,458.2,78V5.8z"/>
	<path class="st1" d="M816.6,167C732.3,78,622.6,22.8,504.6,10.1v72.1C603.9,98.6,695.5,146.1,766,218L816.6,167L816.6,167z"/>
	<path class="st2" d="M968.4,515.1c-4.2-110.4-46.4-220.6-118.1-314l-50.6,51c59,80.6,92.7,169.7,97,263.1H968.4z"/>
	<path class="st3" d="M850.4,880c71.7-93.4,113.8-203.7,118.1-314h-71.7c-4.2,93.4-38,182.5-97,263.1L850.4,880z"/>
	<path class="st4" d="M504.6,1071c113.8-12.7,227.7-67.9,312.1-157L766,863c-71.7,76.4-164.5,123.1-261.5,135.8L504.6,1071z"/>
	<path class="st5" d="M112.4,960.6c97.8,78.3,220.5,119,345.8,114.5v-72.1c-97,4.2-194-21.2-278.3-80.7L112.4,960.6z"/>
	<path class="st6" d="M438.9,245.6c42.7-0.4,85.1,7.4,124.8,23.2c36.6,14,70,35.4,98,62.8c56.7,55.7,88.3,132.1,87.6,211.6
		c0,41.9-7.6,81-23,117.4c-31.1,72.1-89.7,128.8-162.7,157.7c-39.8,15.3-82.1,22.9-124.8,22.4c-45.6,0-87.4-7.4-125.5-22.4
		c-36.3-14.6-69.4-36.1-97.3-63.5c-27.3-26.9-49-58.9-63.9-94.2c-15.5-37.2-23.3-77.1-23-117.4c0-41.8,7.6-80.7,23-116.6
		c14.8-35.6,36.5-67.8,63.9-94.9c27.9-27.3,61-48.7,97.3-62.8C351.5,253.3,393.4,245.6,438.9,245.6z M438.9,387.6
		c-21.3,0-41.6,4-60.9,11.9c-18.9,7.5-35.4,18.2-49.8,32.2c-14.4,14.1-26,30.8-34.1,49.3c-8.6,19.6-12.9,40.7-12.6,62.1
		c0,22.4,4.2,43.1,12.6,62.1c16.3,37.2,46.4,66.7,83.9,82.2c19.3,7.5,39.6,11.2,60.9,11.2c21.3,0,41.4-3.7,60.2-11.2
		c19.4-7.9,36.2-18.9,50.5-32.9c14.8-13.9,26.7-30.7,34.9-49.3c8.5-19.6,12.8-40.7,12.6-62.1c0-22.4-4.2-43.1-12.6-62.1
		c-8.2-18.6-20.1-35.4-34.9-49.3c-14.5-14-31.7-24.9-50.5-32.1C480,391.6,459.6,387.5,438.9,387.6L438.9,387.6z"/>
</g>
</svg>
