<?xml version="1.0" encoding="utf-8"?>
<!-- Generator: Adobe Illustrator 24.1.1, SVG Export Plug-In . SVG Version: 6.00 Build 0)  -->
<svg version="1.1" id="Capa_1" xmlns="http://www.w3.org/2000/svg" xmlns:xlink="http://www.w3.org/1999/xlink" x="0px" y="0px"
	 viewBox="0 0 1080 1080" style="enable-background:new 0 0 1080 1080;" xml:space="preserve">
<style type="text/css">
	.st0{fill:#9BB92F;}
</style>
<path class="st0" d="M113.8,1069.8c-3-5.4-7.2-52.4-4.5-50.5c0.8,0.6,4.2,6.4,7.4,13c3.2,6.5,6.8,11.8,8.1,11.7
	c3-0.3,1.8-28.9-2.4-59.4c-8-58-28.5-107.3-57.1-137.6c-4.8-5.1-8.3-9.7-7.7-10.1c2.2-1.6,32.1,20.4,44.6,32.9
	c7.1,7.1,17.8,20,23.7,28.6c7.9,11.5,11.2,14.9,12.3,12.9c1.9-3.6-5.1-239.5-9.1-307.2c-1.8-30.4,1.5-24.7,14.8,25
	c25.8,96.9,45,191.6,56.7,279.4c2.1,15.4,4.2,28.4,4.7,28.8c0.5,0.4,2.2,0,3.8-0.8c21.5-11.7,36.9-16.1,61.7-17.8
	c17.6-1.2,22.9,1.5,8.5,4.3c-27.8,5.4-48.2,24.5-56.7,53.2c-7.6,25.7-7.9,65.5-0.6,83.1c3.7,8.8,0.9,10.3-25.8,13.6
	c-17.3,2.1-23.7,2.3-29.1,0.9c-8.6-2.2-27.1-2.4-28.9-0.2c-0.8,0.9-5.9,1.6-11.4,1.6C117.6,1075,116.5,1074.6,113.8,1069.8
	L113.8,1069.8z M161.6,991.6c3.7-5,1.7-9.9-4.9-12.6c-5.5-2.2-6.4-2.1-10.6,0.6c-5.1,3.3-6.1,10.4-1.9,13.4
	C148.5,996.1,158.8,995.3,161.6,991.6z M191.8,993.7c1.3-0.6,3.7-2.8,5.2-4.9c5.8-8-8.5-15-18-8.9
	C169.1,986.3,180.9,998.9,191.8,993.7L191.8,993.7z M247.2,1068.5c-0.8-0.9,2.8-9.4,8.1-18.7c5.2-9.4,10-16.1,10.5-15
	c1.7,3.7-4.9,30.9-8,33.2C254.2,1070.6,249.2,1070.8,247.2,1068.5L247.2,1068.5z M76.9,1058.6c-7-8.3-5.4-10.5,3.4-4.4
	c4.3,3,7.8,6.4,7.8,7.5C88,1065.7,81.3,1063.8,76.9,1058.6z M286.2,1055.1c0-1.3,2.5-4.3,5.5-6.8c6-4.9,7.6-2.7,3.5,5
	C292.9,1057.6,286.2,1059,286.2,1055.1z M481.5,1035.1c-5.9-0.6-11.6-2.1-12.8-3.4c-2.7-3-2.7-73.6-0.1-73.6c1.1,0,3.2,3.6,4.7,8
	c3.1,9.2,5.5,10.2,7.5,3c2.3-8.2,1.6-84-1-103.9C469,779.3,434.7,717,374.7,674.3c-26.3-18.7-64.2-34.8-98-41.4
	c-18.5-3.6-12.6-5.4,14.5-4.4c57.2,2.2,100.9,17.1,141.6,48.4c20.5,15.8,41.5,38.4,56.2,60.5c11,16.5,15.5,20.7,15.5,14.1
	c0-1.7,1.5-21.3,3.3-43.7c16.4-199.8,58-365.2,120.6-480.4c45-82.8,123.7-164.9,190.9-199.4c33.8-17.4,61.4-23.9,97.3-23
	c22.6,0.5,24.4,0.9,42.8,7.4c11.7,4.2,24.6,10.4,33,16c14.8,9.8,31.7,24.3,29.9,25.6c-0.6,0.4-8.3-4-17.1-9.8
	C941,1.4,882.8,7.5,833,62.2c-26.8,29.5-64.2,85.4-88,131.6C676.5,327,635.1,471.1,616.9,639.2c-3.9,36.5-6.8,90.9-4.7,89.6
	c0.8-0.5,6.4-12.6,12.5-26.8c38.7-90,86.6-155.5,140.2-191.3c16.3-10.9,39-21.9,41.5-20.1c0.6,0.4-4.1,5.3-10.4,11
	c-47.4,42.4-78.6,91-102.5,159c-22.7,64.8-33.1,135.2-33.1,224.9c0,42.1,4.6,106.1,8.9,123.4c3,12.2,2,13.2-14.1,13.2
	c-13.3,0-55.8,3.4-82.7,6.5c-10,1.2-19.8,1-38.9-0.9c-14.1-1.4-27.3-2.9-29.5-3.4c-4-0.9-4.3-0.4-4.8,7.3
	C498.9,1036.2,496.7,1036.6,481.5,1035.1L481.5,1035.1z M542.2,872.4c7.1-2.6,9.1-5.3,9.1-12.5c0-15.2-31.7-17.1-36.9-2.1
	c-1.8,5.1,3.1,12.4,10.2,14.9C531.7,875.3,534.5,875.2,542.2,872.4L542.2,872.4z M599.5,871.1c6.7-5.4,7.7-8.8,4.2-14.8
	c-9.7-16.7-42.5-7.4-34.6,9.8c2.9,6.4,7.2,8.5,17.9,8.5C592.5,874.7,596.4,873.6,599.5,871.1z M672.4,1032.7
	c-0.6-1.2,2.1-6.5,6.2-11.7c21.3-27.5,29.5-37.4,31.1-37.4c1,0,1.3,0.9,0.8,2c-0.5,1.1-5.1,11.6-10.2,23.3
	c-5.1,11.7-10.8,22.4-12.6,23.6C683.7,1035.6,673.9,1035.6,672.4,1032.7L672.4,1032.7z M731.6,1018.3c0-2.9,20.6-16.5,21.7-14.3
	c0.4,1-1.4,5.1-4,9.1c-4.1,6.3-5.8,7.4-11.2,7.4C734.1,1020.5,731.6,1019.7,731.6,1018.3z M415.9,1015.3
	c-4.3-3.8-11.9-15.9-11.2-17.5c0.4-0.9,6,2.4,12.4,7.5s11,9.8,10.4,10.6C425.7,1018,418.5,1017.7,415.9,1015.3L415.9,1015.3z"/>
</svg>
