<?xml version="1.0" encoding="utf-8"?>
<!-- Generator: Adobe Illustrator 24.1.1, SVG Export Plug-In . SVG Version: 6.00 Build 0)  -->
<svg version="1.1" id="Capa_1" xmlns="http://www.w3.org/2000/svg" xmlns:xlink="http://www.w3.org/1999/xlink" x="0px" y="0px"
	 viewBox="0 0 1080 1080" style="enable-background:new 0 0 1080 1080;" xml:space="preserve">
<style type="text/css">
	.st0{fill-rule:evenodd;clip-rule:evenodd;fill:#0288D1;}
</style>
<g transform="translate(-3,-5)">
	<path class="st0" d="M1078,1080H8V10h1070V1080z M60.5,62.5v965.1h965.1V62.5H60.5z"/>
	<path class="st0" d="M804.7,513.1c-6.2,0-11.8,0.1-16,0.5c-33,2.9-63.9,17.3-85,39.7c-10.6,11.2-20.2,27.4-24.8,41.8
		c-5.2,15.9-5.1,15.6-5.1,40.5c0,31.8,1.6,39.7,12.5,60.9c10.9,21.3,27.5,38.7,51.4,53.9c10.5,6.7,37.4,20.1,59.3,29.6
		c47.8,20.7,62.9,30.2,69.9,44.2l2.9,5.7v12c0,11.6,0,12.2-2.4,17C862,870,849.3,879,833,883.4c-6.2,1.7-9,1.9-22.7,1.9
		c-13.5,0-16.7-0.3-22.9-1.8c-10.8-2.7-19.9-6.5-27-11.2c-8.7-5.8-25.8-23-32.7-33.1c-3.1-4.4-6.1-8.1-6.8-8.1
		c-1.1,0-60.1,33.7-70.4,40.2c-3.5,2.2-4.3,3.2-4.3,5c0,3.7,13.8,24.5,24.6,37.1c22,25.8,66,48.5,105.1,54.2c15.4,2.2,41.1,3,59,1.7
		c11.7-0.9,23.6-3.1,36.3-6.8c46.1-13.5,77.6-42.3,89.2-81.5c4.8-16,6.7-35.7,5.1-52.3c-3.2-34.1-13.7-58.2-34.4-79
		c-19.2-19.4-45.6-35-97.6-57.8c-45.1-19.8-56.9-27.5-63.4-41.4c-5.6-12-4.5-28.5,2.5-38.8c8.3-12,25.1-17.9,43.9-15.4
		c17.5,2.3,28.8,9.2,39.9,24.4c5.8,7.9,9.7,12,11.7,12c1.9,0,10-5,35.3-21.8c25.7-17.1,33.8-22.9,34.3-24.6c0.9-2.7-3.2-9-15-23.5
		c-23.7-29-51.5-44.4-87.2-48.3C826.7,513.7,815,513.2,804.7,513.1L804.7,513.1z M520.6,518.1c-21.2,0-45.4,0-72.3,0
		c-139.6,0.1-172,0.4-172.8,1.3c-0.8,0.8-1.1,9.4-1.1,41.3V601l63.5,0.2l63.5,0.2v179.7c0,98.8,0.2,180.5,0.5,181.5l0.5,1.9h46.1
		c41.3,0,46.2-0.1,46.6-1.3c0.3-0.7,0.5-82.4,0.5-181.5V601.4l63.5-0.2l63.5-0.2v-40.8c0-35.3-0.1-40.9-1.2-41.5
		C620.6,518.3,584.2,518.1,520.6,518.1L520.6,518.1z"/>
</g>
</svg>
