<?xml version="1.0" encoding="utf-8"?>
<!-- Generator: Adobe Illustrator 24.1.1, SVG Export Plug-In . SVG Version: 6.00 Build 0)  -->
<svg version="1.1" id="Capa_1" xmlns="http://www.w3.org/2000/svg" xmlns:xlink="http://www.w3.org/1999/xlink" x="0px" y="0px"
	 viewBox="0 0 1080 1080" style="enable-background:new 0 0 1080 1080;" xml:space="preserve">
<style type="text/css">
	.st0{fill:#3178C6;}
	.st1{fill-rule:evenodd;clip-rule:evenodd;fill:#FFFFFF;}
</style>
<path class="st0" d="M970.9,5H109.4C51.7,5,5,51.7,5,109.4v861.2c0,57.7,46.7,104.4,104.4,104.4h861.2
	c57.7,0,104.4-46.7,104.4-104.4V109.4C1075.3,51.7,1028.6,5,970.9,5z"/>
<path class="st1" d="M667.6,856.8v104.7c17.1,8.7,37.2,15.2,60.3,19.7c23.3,4.5,47.7,6.6,73.4,6.6c25.2,0,48.8-2.4,71.4-7.1
	S915.2,968,932,957c17.1-11,30.4-25.4,40.4-43.3c10-17.8,15-39.6,15-65.8c0-18.9-2.9-35.7-8.4-49.8s-13.9-27-24.7-38
	c-10.8-11-23.6-21-38.6-29.9S884,713,865.1,705.1c-13.6-5.8-26-11.3-37-16.5c-11-5.2-20.2-10.8-27.8-16.3s-13.6-11.5-17.6-17.6
	c-4.2-6.3-6.3-13.1-6.3-21c0-7.1,1.8-13.6,5.5-19.4c3.7-5.8,8.9-10.8,15.7-15s15-7.3,24.9-9.7c9.7-2.4,20.7-3.4,32.8-3.4
	c8.7,0,17.8,0.5,27.5,1.8c9.7,1.3,19.4,3.4,29.4,6c9.7,2.6,19.4,6,28.6,10.2c9.2,4.2,17.8,8.9,25.7,14.4V521
	c-16-6-33.3-10.8-52.2-13.6c-18.9-2.9-40.4-4.5-65.1-4.5c-24.9,0-48.5,2.6-70.6,8.1c-22.3,5.2-41.7,13.6-58.8,24.9
	c-16.8,11.3-30.2,25.7-40.1,43.3c-9.7,17.6-14.7,38.6-14.7,63c0,31.2,8.9,57.7,27,79.7c18.1,22,45.4,40.7,81.8,55.9
	c14.4,5.8,27.8,11.5,40.1,17.3c12.3,5.8,23.1,11.5,32.3,17.6c9.2,6,16.3,12.9,21.5,19.9s7.9,15.5,7.9,24.4c0,6.8-1.6,13.1-5,18.9
	c-3.4,5.8-8.1,10.8-15,15c-6.6,4.2-15,7.6-24.9,10c-10,2.4-21.5,3.7-34.9,3.7c-22.6,0-45.1-3.9-67.4-12.1
	C707.2,884.6,686.5,872.5,667.6,856.8L667.6,856.8z M491.6,598.9h134.3v-85.8H251.6v85.8h133.8v382.5h106.2V598.9z"/>
</svg>
