<?xml version="1.0" encoding="utf-8"?>
<!-- Generator: Adobe Illustrator 24.1.1, SVG Export Plug-In . SVG Version: 6.00 Build 0)  -->
<svg version="1.1" id="Capa_1" xmlns="http://www.w3.org/2000/svg" xmlns:xlink="http://www.w3.org/1999/xlink" x="0px" y="0px"
	 viewBox="0 0 1080 1080" style="enable-background:new 0 0 1080 1080;" xml:space="preserve">
<style type="text/css">
	.st0{fill-rule:evenodd;clip-rule:evenodd;fill:#B39DDB;}
	.st1{fill-rule:evenodd;clip-rule:evenodd;fill:#FBC02D;}
	.st2{fill-rule:evenodd;clip-rule:evenodd;fill:#F06292;}
</style>
<desc>Created with Sketch.</desc>
<g transform="translate(4.5e-6,4.9605e-4)">
	<polygon id="L" class="st0" points="990,864.7 586.7,1075 586.2,574.9 755.3,487.8 755.3,848.7 989.1,728.7 	"/>
	<polygon id="M" class="st1" points="402.5,1022.6 506.8,1075 506.8,573.4 348.3,496.8 298.2,736.1 247.6,447.5 90,370.4 90,872.4 
		193.9,925.7 193.9,623.2 250.6,949.9 343.1,997 402.5,725.4 	"/>
	<path id="U" class="st2" d="M482.1,5L363.2,111.7c0,0,232,121,260.1,135.3c28.2,14.3,68.3,41.8,24.9,82.5
		c-43.4,40.7-91,35.2-123.6,18.7c-32.5-16.5-273.1-139.7-273.1-139.7L129.1,314.1c0,0,236.3,122.1,275.3,143
		c39,20.9,184.3,72.6,321.9-36.3C864,311.9,844.5,272.3,844.5,264.6c0-7.7-3.3-48.4-27.1-73.7c-23.9-25.3-93.2-61.6-122.5-77
		C665.6,98.5,482.1,5,482.1,5L482.1,5z"/>
</g>
</svg>
