<?xml version="1.0" encoding="utf-8"?>
<!-- Generator: Adobe Illustrator 24.1.1, SVG Export Plug-In . SVG Version: 6.00 Build 0)  -->
<svg version="1.1" id="Capa_1" xmlns="http://www.w3.org/2000/svg" xmlns:xlink="http://www.w3.org/1999/xlink" x="0px" y="0px"
	 viewBox="0 0 1080 1080" style="enable-background:new 0 0 1080 1080;" xml:space="preserve">
<style type="text/css">
	.st0{fill:#42A5F5;}
</style>
<path class="st0" d="M754,219H593.5v101.6H754c120.9,0,219.4,97.9,219.4,219.4c0,121.1-98.2,219.4-219.4,219.4l0,0H593.5V861H754
	c177.3,0,321-143.7,321-321C1075,362.4,931.1,219,754,219 M106.6,540c0-121.4,98.4-219.4,219.3-219.4h160.5V219H326
	C148.7,219,5,362.7,5,540s143.7,321,321,321h160.5V759.4H326C205.1,759.4,106.7,660.9,106.6,540 M326,593.5h428v-107H326V593.5z"/>
</svg>
