<?xml version="1.0" encoding="utf-8"?>
<!-- Generator: Adobe Illustrator 24.1.1, SVG Export Plug-In . SVG Version: 6.00 Build 0)  -->
<svg version="1.1" id="Capa_1" xmlns="http://www.w3.org/2000/svg" xmlns:xlink="http://www.w3.org/1999/xlink" x="0px" y="0px"
	 viewBox="0 0 1080 1080" style="enable-background:new 0 0 1080 1080;" xml:space="preserve">
<style type="text/css">
	.st0{fill:#1565C0;}
	.st1{fill:#2979FF;}
</style>
<desc>Created with Sketch.</desc>
<g id="Artboard" transform="matrix(.64333 0 0 .64333 -41.85 -7.5065)">
	<g id="Vagrant_VerticalLogo_FullColor" transform="translate(57,25)">
		<g>
			<g>
				<polygon class="st0" points="847.5,1657.7 1160.9,1476.9 1651.8,274.8 1651.8,122.5 1286.2,335.2 1286.2,463.7 993.6,1094.7 
					847.5,1195.7 				"/>
				<polygon class="st0" points="701.1,1122.5 847.5,1050.2 847.5,866.6 628.1,354.8 628.1,210 626.6,209.1 408.7,335.2 
					408.7,463.7 				"/>
			</g>
			<path class="st1" d="M1066.8,208.5v146.3L847.4,866.5v171l-146.3,84.9L408.7,463.7V335l219.4-126.3L262.4-5.5L43,122.5v156.8
				l493.7,1199.1l310.7,179.2v-450.3l146.1-84.9l-1.7-1.1l294.3-657.7V335l365.7-212.5L1432.5-5.6l-365.5,214L1066.8,208.5z"/>
		</g>
	</g>
</g>
</svg>
