<?xml version="1.0" encoding="utf-8"?>
<!-- Generator: Adobe Illustrator 24.1.1, SVG Export Plug-In . SVG Version: 6.00 Build 0)  -->
<svg version="1.1" id="Capa_1" xmlns="http://www.w3.org/2000/svg" xmlns:xlink="http://www.w3.org/1999/xlink" x="0px" y="0px"
	 viewBox="0 0 1080 1080" style="enable-background:new 0 0 1080 1080;" xml:space="preserve">
<style type="text/css">
	.st0{fill:#9575CD;}
</style>
<path class="st0" d="M423.4,1074.5l-23-974.6c-66.9,25.1-119.1,64.3-156.7,117.7C206.6,271.1,188,337.5,188,416.9
	c0,18.1,0.9,33,2.8,44.6c2.3,11.1,4.6,20.2,7,27.2c2.3,6.5,4.4,11.6,6.3,15.3c2.3,3.7,3.5,7,3.5,9.8c-24.6,0-46.4-2.3-65.4-7
	c-19-5.1-35.1-13-48.1-23.7c-12.5-10.7-22.3-24.8-29.3-42.5C58.3,423,55,401.1,55,375.1c0-31.6,6.7-62.7,20.2-93.3
	c13.9-30.6,32.7-59.7,56.4-87.1c24.1-27.4,52.2-52.7,84.3-75.9c32.5-23.2,67.1-43.2,103.8-59.9c37.1-17.2,75.7-30.4,115.6-39.7
	c40.4-9.8,80.6-14.7,120.5-14.7c10.7,0,20.4,0.2,29.3,0.7c9.3,0.5,18.5,1.2,27.8,2.1L625.3,885L925.4,11.5h99.6L628.8,1074.5
	L423.4,1074.5L423.4,1074.5z"/>
</svg>
