<?xml version="1.0" encoding="utf-8"?>
<!-- Generator: Adobe Illustrator 24.1.1, SVG Export Plug-In . SVG Version: 6.00 Build 0)  -->
<svg version="1.1" id="Capa_1" xmlns="http://www.w3.org/2000/svg" xmlns:xlink="http://www.w3.org/1999/xlink" x="0px" y="0px"
	 viewBox="0 0 1080 1080" style="enable-background:new 0 0 1080 1080;" xml:space="preserve">
<style type="text/css">
	.st0{fill:#0288D1;}
</style>
<g transform="translate(0,3)">
	<g transform="translate(-.00014751 .00011708)">
		<path class="st0" d="M540,193.6c-189.7,0-343.4,153.8-343.4,343.4c0,0,0,0,0,0c0,189.7,153.8,343.4,343.4,343.4c0,0,0,0,0,0
			c189.7,0,343.4-153.8,343.4-343.4C883.4,347.3,729.7,193.6,540,193.6C540,193.6,540,193.6,540,193.6z M540.1,291
			c135.9,0,246,110.1,246,246s-110.1,246-246,246s-246-110.1-246-246S404.2,291,540.1,291z"/>
		<path class="st0" d="M132.3,704.3L5,831.7L132.3,959v-78.6H540V783H132.3L132.3,704.3z"/>
		<path class="st0" d="M245.3,2L117.9,129.3h78.6V537H294V129.3h78.6L245.3,2z"/>
		<path class="st0" d="M947.7,115v78.6H540V291h407.7v78.6L1075,242.3L947.7,115z"/>
		<path class="st0" d="M785.9,537v407.7h-78.6L834.6,1072l127.3-127.3h-78.6V537L785.9,537z"/>
	</g>
</g>
</svg>
