<?xml version="1.0" encoding="utf-8"?>
<!-- Generator: Adobe Illustrator 24.1.1, SVG Export Plug-In . SVG Version: 6.00 Build 0)  -->
<svg version="1.1" id="Capa_1" xmlns="http://www.w3.org/2000/svg" xmlns:xlink="http://www.w3.org/1999/xlink" x="0px" y="0px"
	 viewBox="0 0 1080 1080" style="enable-background:new 0 0 1080 1080;" xml:space="preserve">
<style type="text/css">
	.st0{fill:#FF7043;}
</style>
<path class="st0" d="M837.2,837.2H242.8V242.8h594.4 M1075,480.6V361.7H956.1V242.8c0-66-53.5-118.9-118.9-118.9H718.3V5H599.4
	v118.9H480.6V5H361.7v118.9H242.8c-66,0-118.9,52.9-118.9,118.9v118.9H5v118.9h118.9v118.9H5v118.9h118.9v118.9
	c0,65.7,53.2,118.9,118.9,118.9c0,0,0,0,0,0h118.9V1075h118.9V956.1h118.9V1075h118.9V956.1h118.9c65.7,0,118.9-53.2,118.9-118.9
	V718.3H1075V599.4H956.1V480.6 M599.4,599.4H480.6V480.6h118.9 M718.3,361.7H361.7v356.7h356.7L718.3,361.7z"/>
</svg>
