<?xml version="1.0" encoding="utf-8"?>
<!-- Generator: Adobe Illustrator 26.0.0, SVG Export Plug-In . SVG Version: 6.00 Build 0)  -->
<svg version="1.1" id="Capa_1" xmlns="http://www.w3.org/2000/svg" xmlns:xlink="http://www.w3.org/1999/xlink" x="0px" y="0px"
	 viewBox="0 0 1080 1080" style="enable-background:new 0 0 1080 1080;" xml:space="preserve">
<style type="text/css">
	.st0{fill:#546E7A;}
	.st1{fill:#039BE5;}
</style>
<path class="st0" d="M710.7,1047.8L1073.2,39.9c6.1-17.1-3.5-29.6-21.6-27.8l-285,27.5c-18.1,1.7-37.6,17.1-43.6,34.2L387.4,1037
	c-6,17.2,3.9,31.1,22.1,31.1H687c9.1,0,18.9-6.9,22-15.5L710.7,1047.8z"/>
<path class="st1" d="M28.5,12.1l285,27.5c18.1,1.7,37.6,17.1,43.6,34.2l342.6,978.8c3,8.6-1.9,15.5-11,15.5H409.5
	c-18.2,0-37.9-13.9-44.1-31L6.8,39.9C0.7,22.8,10.4,10.3,28.5,12.1L28.5,12.1z"/>
</svg>
