<?xml version="1.0" encoding="utf-8"?>
<!-- Generator: Adobe Illustrator 24.1.1, SVG Export Plug-In . SVG Version: 6.00 Build 0)  -->
<svg version="1.1" id="Capa_1" xmlns="http://www.w3.org/2000/svg" xmlns:xlink="http://www.w3.org/1999/xlink" x="0px" y="0px"
	 viewBox="0 0 1080 1080" style="enable-background:new 0 0 1080 1080;" xml:space="preserve">
<style type="text/css">
	.st0{fill:#757575;}
	.st1{fill:#41B883;}
	.st2{fill:#35495E;}
</style>
<path class="st0" d="M635,303.7c-52,0-94.2-40.2-94.2-89.6V5h-408c-51.8,0-94,40.2-94,89.6V935c0,49.4,42.2,89.6,94.2,89.6h627.7
	c52,0,94.2-40.2,94.2-89.6V303.7H635z M742,767.4c0,27.5-22.3,49.9-49.9,49.9l-500.3,2c-27.5,0-49.9-22.3-49.9-49.9l0,0
	c0-27.5,22.3-49.9,49.9-49.9l500.3-2C719.7,717.6,742,739.9,742,767.4L742,767.4z M742.8,565.7c0,27.6-22.4,50-50,50h-500
	c-27.6,0-50-22.4-50-50l0,0c0-27.6,22.4-50,50-50h500C720.4,515.7,742.8,538.1,742.8,565.7L742.8,565.7z"/>
<path class="st0" d="M628.3,246.7h201.3L596.9,25.3v191.6C596.9,233.3,610.9,246.7,628.3,246.7z"/>
<g transform="matrix(.57384 0 0 .57384 11.066 10.911)">
	<path class="st1" d="M759.4,962.5l517.9,891.8l517.9-887.4v-4.3h-201.3l-313.6,537.3L968.2,962.5H759.4z"/>
	<path class="st2" d="M968.2,962.5l312.1,537.4l313.6-537.4H1405L1281.6,1174l-122.9-211.5H968.2z"/>
</g>
</svg>
