<?xml version="1.0" encoding="utf-8"?>
<!-- Generator: Adobe Illustrator 24.1.1, SVG Export Plug-In . SVG Version: 6.00 Build 0)  -->
<svg version="1.1" id="Capa_1" xmlns="http://www.w3.org/2000/svg" xmlns:xlink="http://www.w3.org/1999/xlink" x="0px" y="0px"
	 viewBox="0 0 1080 1080" style="enable-background:new 0 0 1080 1080;" xml:space="preserve">
<style type="text/css">
	.st0{fill:#4255E5;}
</style>
<path class="st0" d="M486.2,1073.4c-101-11.5-189.9-46.9-271-107.8c-64.6-48.5-125.2-123-159.4-196.2l-11.2-23.9l73.1-75
	c40.2-41.2,78.3-79.8,84.6-85.6l11.6-10.7l35.5,32.3c46.9,42.6,76.3,66,116.7,93c42.5,28.3,67.9,41.5,102,52.9
	c64.9,21.7,119.7,17,187.9-16c50.7-24.6,126.2-80.3,188.2-138.8l25.2-23.8l82.9,82.8c45.6,45.6,82.9,84.8,82.9,87.3
	c0,2.4-4.5,14-10.1,25.6c-52.3,109.6-140.6,198.6-249.6,251.5c-50.4,24.5-96.5,39.2-152.3,48.6
	C594.1,1074.6,515,1076.7,486.2,1073.4L486.2,1073.4z M504.1,721.7c-49.6-10.8-111.7-46.6-181.5-104.7c-37-30.8-75.7-67.6-75.7-72
	c0-3.6,47.7-48.6,84.4-79.6c57.8-48.8,105-78.1,152.8-94.8c17.8-6.2,23.5-6.9,54.4-6.9c31,0,36.6,0.7,54.4,6.9
	c64.3,22.4,144.1,77.2,225.2,154.5c10.9,10.4,19.8,20,19.8,21.2c0,3.1-61.8,59-92.1,83.4c-55.2,44.2-118.8,80.4-159.7,90.7
	C562.7,726.3,527.7,726.9,504.1,721.7L504.1,721.7z M610.6,663.6c40.4-20.4,52.5-27.7,56.2-33.9c4.4-7.3,4.8-14,4.8-84.7
	c0-70.8-0.4-77.4-4.8-84.7c-3.8-6.3-15.9-13.6-56.9-34.5c-51.7-26.3-52.2-26.5-70.6-26.6c-18.3-0.1-18.9,0.1-65.3,23.8
	c-28.8,14.7-50,27.2-55.1,32.6l-8.3,8.7l0,77.4c0,71.6,0.4,78.1,4.9,85.4c3.7,6.1,14.7,13.1,46.3,29.4
	c57.3,29.7,65.2,32.8,82.6,32.9C558.1,689.6,562.9,687.8,610.6,663.6L610.6,663.6z M494.4,628.4c-20.8-10.8-39.6-21.4-41.7-23.6
	c-3.4-3.4-3.6-12.1-2.1-64.5l1.8-60.6l39.5-20.5c23-11.9,42.6-20.5,47-20.5c8.4,0,81.4,35.6,89.3,43.5c4.8,4.8,5.1,8.6,5.1,63.9
	v58.8l-9.8,6.2c-5.4,3.4-23.8,13.2-40.9,21.8c-22.8,11.4-33.6,15.5-40.7,15.3C535.2,648.2,520.4,641.9,494.4,628.4L494.4,628.4z
	 M26.7,693.3c-4.2-11-11.9-44.7-17-74.1C2.9,579.5,3.6,496.1,11,454.2c6.9-38.6,12-58.7,16-62.4c2.2-2.1,22.7,17.3,79.4,75.2
	c42.1,42.9,76.5,78.6,76.5,79.3c0,0.7-34.5,35.8-76.6,77.9l-76.6,76.6L26.7,693.3z M975.3,622.7C935,581.5,902,546.8,902,545.6
	c0-4.5,147.2-152.9,151-152.2c4.2,0.8,9.5,19.3,17,59.9c6.7,36.3,6.7,137.1,0,173.7c-6.7,36.6-15.2,68.5-18.6,69.6
	C1049.8,697.1,1015.6,663.9,975.3,622.7L975.3,622.7z M127,430.2c-76.5-76.5-85.2-86-83.5-91.5c3.8-12.2,23.7-52.7,35.7-72.6
	C161.1,130.4,294.9,39.2,452.9,11.2c43.3-7.7,128.5-8.4,168.8-1.4C740.6,30.4,838.5,80.4,920,162.3c44.3,44.5,78.8,93.1,105.1,148.3
	c17.6,36.8,24.8,24.3-69.5,120c-45.4,46.1-83.6,84.2-84.7,84.6c-1.1,0.5-16.2-12.1-33.5-27.8C745,403,661.6,348.8,595.5,329.9
	c-22.1-6.3-26.5-6.7-62.7-5.7c-35.5,1-41,1.8-62.5,9.1c-67.6,23.2-141.2,74.2-228.8,158.6c-13.5,13-25.6,23.7-26.9,23.7
	S173.9,477.2,127,430.2L127,430.2z"/>
</svg>
