<?xml version="1.0" encoding="utf-8"?>
<!-- Generator: Adobe Illustrator 24.1.1, SVG Export Plug-In . SVG Version: 6.00 Build 0)  -->
<svg version="1.1" id="Capa_1" xmlns="http://www.w3.org/2000/svg" xmlns:xlink="http://www.w3.org/1999/xlink" x="0px" y="0px"
	 viewBox="0 0 1080 1080" style="enable-background:new 0 0 1080 1080;" xml:space="preserve">
<style type="text/css">
	.st0{fill:#7C4DFF;}
</style>
<g transform="translate(0,142.97)">
	<g id="Notch_-_Black">
		<g id="icon" transform="matrix(2.2365 0 0 2.2365 -188.25 -113.32)">
			<polygon class="st0" points="441.5,288.6 427.6,350.8 470.7,350.8 454.8,288.6 			"/>
			<path class="st0" d="M380.4-11c0,0.9,0,1.7,0,2.6c0,30.3-24.6,54.9-54.9,54.9c-30.3,0-54.8-24.6-54.8-54.9c0,0,0,0,0,0
				c0-0.9,0-1.7,0-2.6H86.4v478.4h478.4V-11H380.4z M314.7,416.2l-23.3-115.3H291l-25.2,115.3h-32.1l-36.4-169.4h31.7l21.7,115.3
				h0.4l26.1-115.3h29.7l23.5,116.7h0.4l24.7-116.7h31.1l-40.4,169.4H314.7z M489.3,416.2l-10.8-37.7h-57l-8.3,37.7h-31.7l41-169.4
				h50l49.8,169.4L489.3,416.2z"/>
		</g>
	</g>
</g>
</svg>
