<?xml version="1.0" encoding="utf-8"?>
<!-- Generator: Adobe Illustrator 24.1.1, SVG Export Plug-In . SVG Version: 6.00 Build 0)  -->
<svg version="1.1" id="Capa_1" xmlns="http://www.w3.org/2000/svg" xmlns:xlink="http://www.w3.org/1999/xlink" x="0px" y="0px"
	 viewBox="0 0 1080 1080" style="enable-background:new 0 0 1080 1080;" xml:space="preserve">
<style type="text/css">
	.st0{fill:#1E88E5;}
</style>
<path class="st0" d="M1075,183.3c0,0-168.7,98.8-172.9,100.1c-4.1,2.7-8.2,5.5-11,8.2c-13.7,13.7-17.8,32.9-13.7,50.7
	c2.7,8.2,6.9,17.8,13.7,24.7c6.9,6.9,15.1,11,24.7,13.7c17.8,4.1,37,0,50.8-13.7c4.1-4.1,6.8-8.2,8.2-12.3l1.4-4.1l24.7-45.3
	L1075,183.3z M697.7,272.5c-264.8,0-308.6,126.2-308.6,282.6c0,37,5.5,76.8-19.2,115.2c-37,57.6-86.4,56.2-98.8,56.2
	c-16.5,0-76.8-9.6-79.6-27.4h9.6c64.5,0,112.5-52.1,112.5-122.1v-24.7h-54.9c-39.8,0-75.5,17.8-98.8,49.4
	c-23.3-31.6-59-49.4-98.8-49.4H5V577c0,68.6,54.9,123.4,123.5,123.4h17.8c0,39.8,54.9,196.2,459.6,196.2
	c157.8,0,392.3-27.4,392.3-325.1c0-56.2-17.8-108.4-45.3-152.3c-9.6,2.7-19.2,5.5-30.2,5.5c-48,0-86.4-38.4-86.4-86.4
	c0-9.6,1.4-19.2,4.1-28.8C799.3,283.5,758.1,272.5,697.7,272.5L697.7,272.5z"/>
</svg>
