<?xml version="1.0" encoding="utf-8"?>
<!-- Generator: Adobe Illustrator 24.1.1, SVG Export Plug-In . SVG Version: 6.00 Build 0)  -->
<svg version="1.1" id="Capa_1" xmlns="http://www.w3.org/2000/svg" xmlns:xlink="http://www.w3.org/1999/xlink" x="0px" y="0px"
	 viewBox="0 0 1080 1080" style="enable-background:new 0 0 1080 1080;" xml:space="preserve">
<style type="text/css">
	.st0{fill:#FFFFFF;fill-opacity:0.785;}
	.st1{fill:#8ED6FB;}
	.st2{fill:#1C78C0;}
</style>
<path class="st0" d="M920.1,754.5L506.8,992.6L93.6,754.5V278.3L506.8,40.2l413.3,238.1V754.5z"/>
<path class="st1" d="M540,5c-11.3,0-22,3.2-30.6,9.6L85.9,252.1c-17.2,9.1-28.4,26.8-28.4,47.1v481.5c0,20.3,11.2,38,28.4,47.1
	l423.5,237.5c8.6,6.4,19.3,9.6,30.6,9.6c11.3,0,22-3.2,30.6-9.6l423.5-237.5c17.2-9.1,28.4-26.8,28.4-47.1V299.3
	c0-20.3-11.2-38-28.4-47.1L570.6,14.6C562,8.2,551.3,5,540,5z M540,120l375.3,210.8v112.5h-0.8v277h0.8v28.8L540,960L164.7,749.2
	V330.8L540,120L540,120z M540,231.3L277.3,382.7L540,534.1l262.7-151.4C802.7,382.7,540,231.3,540,231.3z M271.9,503.1v191.5
	l214.4,123.5V626.6L271.9,503.1z M808.1,503.1L593.6,626.6v191.5l214.4-123.5C808.1,694.6,808.1,503.1,808.1,503.1z"/>
<path class="st2" d="M540,231.3L277.3,382.7L540,534.1l262.7-151.4C802.7,382.7,540,231.3,540,231.3z M271.9,503.1v191.5
	l214.4,123.5V626.6L271.9,503.1z M808.1,503.1L593.6,626.6v191.5l214.4-123.5C808.1,694.6,808.1,503.1,808.1,503.1z"/>
</svg>
