<?xml version="1.0" encoding="utf-8"?>
<!-- Generator: Adobe Illustrator 24.1.1, SVG Export Plug-In . SVG Version: 6.00 Build 0)  -->
<svg version="1.1" id="Capa_1" xmlns="http://www.w3.org/2000/svg" xmlns:xlink="http://www.w3.org/1999/xlink" x="0px" y="0px"
	 viewBox="0 0 1080 1080" style="enable-background:new 0 0 1080 1080;" xml:space="preserve">
<style type="text/css">
	.st0{fill:#03A9F4;}
</style>
<path class="st0" d="M83.7,433C54,433,30,409,30,379.5C30,350,54,326,83.7,326h429.5c59.3,0,107.4-47.9,107.4-107
	s-48.1-107-107.4-107c-29.5,0-56.4,11.8-75.7,31.6c-9.9,10.5-23.7,16.5-38.1,16.5c-14.4,0-28.2-6-38.1-16.5
	c-20.9-20.9-20.9-55.1,0-76C400.4,29.1,454.1,5,513.1,5c118.6,0,214.7,95.8,214.7,214c0,0,0,0,0,0c0,118.2-96.1,214-214.7,214l0,0
	L83.7,433z M888.9,540c29.6,0,53.7-24,53.7-53.5c0-29.5-24-53.5-53.7-53.5l0,0c-15,0-28.5,5.9-38.1,15.5c-10,10-23.6,15.6-37.8,15.6
	c-7,0-14-1.4-20.5-4.1c-6.5-2.7-12.4-6.6-17.4-11.6c-20.4-20.9-20.4-54.6,0-75.4c29-28.9,69.3-47.1,113.8-47.1
	c88.9,0,161,71.8,161.1,160.5c0,42.6-17,83.4-47.2,113.5c-30.2,30.1-71.2,47-113.9,47H137.4c-29.6,0-53.7-24-53.7-53.5
	c0-29.5,24-53.5,53.7-53.5L888.9,540z M835.3,861H83.7C54.1,861,30,837,30,807.5c0-29.5,24-53.5,53.7-53.5h751.6
	c88.9,0,161,71.8,161.1,160.5c0,42.6-17,83.4-47.2,113.5c-30.2,30.1-71.2,47-113.9,47c-44.6,0-84.8-18.2-113.8-47.1
	c-20.4-20.9-20.4-54.6,0-75.4c20.9-20.8,54.7-20.9,75.6-0.1c0,0,0.1,0.1,0.1,0.1c9.7,9.6,23.1,15.5,38.1,15.5
	c29.6,0,53.7-24,53.7-53.5C888.9,885,864.9,861,835.3,861L835.3,861z"/>
</svg>
