<?xml version="1.0" encoding="utf-8"?>
<!-- Generator: Adobe Illustrator 24.1.1, SVG Export Plug-In . SVG Version: 6.00 Build 0)  -->
<svg version="1.1" id="Capa_1" xmlns="http://www.w3.org/2000/svg" xmlns:xlink="http://www.w3.org/1999/xlink" x="0px" y="0px"
	 viewBox="0 0 1080 1080" style="enable-background:new 0 0 1080 1080;" xml:space="preserve">
<style type="text/css">
	.st0{fill-rule:evenodd;clip-rule:evenodd;fill:#212121;}
	.st1{fill-rule:evenodd;clip-rule:evenodd;fill:#E53935;}
	.st2{fill-rule:evenodd;clip-rule:evenodd;fill:#FFFFFF;}
</style>
<desc>Created with Sketch.</desc>
<g transform="scale(.12121)">
	<g transform="translate(-.07283 -.011855)">
		<ellipse id="backgroundCircle" class="st0" cx="4461.6" cy="4451.6" rx="533.9" ry="532.5"/>
		<g id="background" transform="matrix(.93638 0 0 .93638 14.806 14.554)">
			<path id="Shape" class="st1" d="M9455.7,4731.8C9456.3,6351.1,8621,7856.6,7245,8716c-0.6,0.6-1.3,0.9-2.1,1L5626.5,6707.9
				L6965.6,6855c0,0,643.1,66.3,789.6,0c134-52.8,857.1-1068.3,857.1-1068.3S6536.6,4478,5827,3756.8
				c81-1215.5-93.5-2831.9-93.5-2818.5c-522.6,520.2-589.1,601-1111.6,1081.8c-227.5-734.7-334.5-988.5-562-1723.2
				c-683.6,560.6-1205.1,1509.8-1580.1,2618.5c-82.1,90.1-161,185.5-238.9,287c-50.9,67.3-101.8,135.7-150.6,206.2
				c-100.8,143-197.4,293.2-289.8,450.7c-65.4,110.9-129.9,224.9-192.2,340.9c-435.3,815.5-792.6,1750.1-1102.2,2591.5
				c-2.1-3.2-3.9-6.7-5.2-10.4C-345.9,5040-36,2959,1281.4,1538.1C2598.8,117.2,4654.6-353.3,6461.3,352.6
				S9456.4,2796.5,9455.7,4731.8L9455.7,4731.8z"/>
		</g>
		<path id="wolf" class="st2" d="M4580.8,2881.3c0,0-74.9-437.6-125.5-599.6c338.5-326,389.1-375.5,715-687.9
			c25.3,624.8,12.6,949.9-25.3,1713.5C4957.2,3118.9,4580.8,2881.2,4580.8,2881.3L4580.8,2881.3z M3113.8,5032.4
			c0,0-351.2-212.5-614.8-249.4c75.9-175.6,276.3-400.7,326.9-462.8c-101.2,36.9-827.8,361.9-903.7,637.5
			c205.8,50.4,407.1,117.3,602.1,199.9c-262.1,297.5-424.3,669.4-464,1063.4c0,0,1153.7-175.6,2019.5-63.1
			c15,8.9,32.2,13.2,49.6,12.6l451.4,12.6l1433.8,2381.1l11.7,18.4c-2,1-2.9,1.9-3.9,1.9c-2704.3,975.1-4658.6-819.9-5075.9-1447.6
			c1.8-5.4,3.1-10.9,3.9-16.5C1325.9,5536.9,1788.9,3642,2537,3082.2c389.1-676.3,501.9-1676.6,1203.3-2201.5
			c176.1,524.9,452.3,1613.6,640.1,2138.5c827.9,825.7,2081.7,1851.3,2921.2,2276.2c87.6,50.5,200.4,400.7,200.4,400.7l-338.5,425
			l-3610.9-362.9c-80.7-6.8-161.5-9.7-242.2-9.7c-250.9,3.5-501.1,27.5-748,71.8C2737.4,5382.6,3113.8,5032.4,3113.8,5032.4
			L3113.8,5032.4z M4280.2,4569.5c200.4-24.3,413.4,50.5,651.7,188.2c225.7-63.1,251-75.7,476.7-137.8
			c-288.9-212.5-602.1-437.6-1028.2-375.5C4339.5,4350.5,4306.1,4459,4280.2,4569.5L4280.2,4569.5z"/>
	</g>
</g>
</svg>
