<?xml version="1.0" encoding="utf-8"?>
<!-- Generator: Adobe Illustrator 24.1.1, SVG Export Plug-In . SVG Version: 6.00 Build 0)  -->
<svg version="1.1" id="Capa_1" xmlns="http://www.w3.org/2000/svg" xmlns:xlink="http://www.w3.org/1999/xlink" x="0px" y="0px"
	 viewBox="0 0 1080 1080" style="enable-background:new 0 0 1080 1080;" xml:space="preserve">
<style type="text/css">
	.st0{fill:#8BC34A;}
</style>
<g>
	<path class="st0" d="M737.3,318c-54.5,0-98.8-42.2-98.8-94V4.5h-428c-54.4,0-98.7,42.2-98.7,94v882c0,51.8,44.3,94,98.8,94h658.5
		c54.5,0,98.8-42.2,98.8-94V318H737.3z M498.3,838.3c11.4,11.4,17.1,25.3,17.1,41.6s-5.7,29.6-17.1,39.8S473.4,935,457.9,935
		s-28.6-5.3-39.1-15.9L263.5,763.6c-13.1-13-19.6-27.3-19.6-42.8c0-14.7,6.5-28.5,19.6-41.6l155.3-155.3
		c10.6-10.6,24-15.9,40.4-15.9c13.9,0,26.7,4.7,38.5,14.1s17.7,23.1,17.7,41c0,16.3-5.7,30.2-17.1,41.6L382.1,720.8L498.3,838.3z
		 M816.4,763.6L661,919c-10.6,10.6-23.7,15.9-39.1,15.9c-15.5,0-29-5.1-40.4-15.3s-17.1-23.4-17.1-39.8c0-16.3,5.7-30.2,17.1-41.6
		l116.2-117.4L581.5,604.6c-11.4-11.4-17.1-25.3-17.1-41.6c0-17.9,5.9-31.6,17.7-41s24.7-14.1,38.5-14.1c16.3,0,29.8,5.3,40.4,15.9
		l155.4,155.4c13,13.1,19.6,26.9,19.6,41.6C836,736.3,829.4,750.6,816.4,763.6z"/>
	<path class="st0" d="M730.2,258.2h211.2L697.3,25.8v201.1C697.3,244.1,712,258.2,730.2,258.2z"/>
</g>
</svg>
