<?xml version="1.0" encoding="utf-8"?>
<!-- Generator: Adobe Illustrator 24.1.1, SVG Export Plug-In . SVG Version: 6.00 Build 0)  -->
<svg version="1.1" id="Capa_1" xmlns="http://www.w3.org/2000/svg" xmlns:xlink="http://www.w3.org/1999/xlink" x="0px" y="0px"
	 viewBox="0 0 1080 1080" style="enable-background:new 0 0 1080 1080;" xml:space="preserve">
<style type="text/css">
	.st0{fill:#42A5F5;}
</style>
<path class="st0" d="M540,5c295.5,0,535,239.5,535,535s-239.5,535-535,535S5,835.5,5,540S244.5,5,540,5 M540,112
	c-236.4,0-428,191.6-428,428s191.6,428,428,428c-118.2,0-214-95.8-214-214s95.8-214,214-214s214-95.8,214-214S658.2,112,540,112
	 M540,245.8c44.3,0,80.3,35.9,80.3,80.3s-35.9,80.3-80.3,80.3s-80.3-35.9-80.3-80.3S495.7,245.8,540,245.8 M540,673.8
	c-44.3,0-80.3,35.9-80.3,80.3c0,44.3,35.9,80.3,80.3,80.3s80.3-35.9,80.3-80.3C620.3,709.7,584.3,673.8,540,673.8z"/>
</svg>
