<?xml version="1.0" encoding="utf-8"?>
<!-- Generator: Adobe Illustrator 24.1.1, SVG Export Plug-In . SVG Version: 6.00 Build 0)  -->
<svg version="1.1" id="Capa_1" xmlns="http://www.w3.org/2000/svg" xmlns:xlink="http://www.w3.org/1999/xlink" x="0px" y="0px"
	 viewBox="0 0 1080 1080" style="enable-background:new 0 0 1080 1080;" xml:space="preserve">
<style type="text/css">
	.st0{fill:#2C8EBB;}
</style>
<path class="st0" d="M1009,861.3c-55.4,13.1-83.4,25.2-152,69.6c-107.3,68.9-224.4,101-224.4,101s-9.7,14.5-37.7,21
	c-48.5,11.7-230.9,21.7-247.6,22.1c-44.7,0.3-72-11.4-79.6-29.6c-23.2-55.1,33.2-79.3,33.2-79.3s-12.5-7.6-19.7-14.5
	c-6.6-6.5-13.5-19.6-15.6-14.8c-8.7,21-13.2,72.4-36.4,95.5c-31.9,32-92.1,21.4-127.8,2.8c-39.1-20.7,2.8-69.3,2.8-69.3
	s-21.1,12.4-38.1-13.1C51,929.2,36.8,889.3,40.6,840c4.8-56.9,67.9-111.3,67.9-111.3s-11.1-83,25.3-168.2
	c32.9-77.5,121.5-139.9,121.5-139.9s-74.4-81.7-46.7-155.8c18-48.2,25.3-47.9,31.2-50c20.8-7.9,40.9-16.5,55.7-32.7
	c74.4-79.9,169.3-64.8,169.3-64.8S509.1-18.1,550.6,8.4c12.8,8.3,58.9,110.3,58.9,110.3s49.2-28.6,54.7-17.9
	c29.8,57.5,33.2,167.5,20.1,234.3c-22.2,110.3-77.6,169.5-99.7,206.8c-5.2,8.6,59.6,35.8,100.4,148.5c37.7,103,4.2,189.5,10,199.2
	c1,1.7,1.4,2.4,1.4,2.4s43.3,3.4,130.2-50c46.4-28.6,101.4-60.7,164.1-61.3C1051.3,779.7,1054.4,850.7,1009,861.3L1009,861.3z"/>
</svg>
